<svg width="30" height="30" viewBox="0 0 30 30" fill="none" xmlns="http://www.w3.org/2000/svg">
<path d="M10.7555 13.7615H8.16113V11.1212H10.7555C10.7555 11.1212 12.2895 11.0854 12.2895 12.4422C12.2895 13.799 10.7555 13.7615 10.7555 13.7615Z" fill="#898989"/>
<path d="M12.7412 17.1232C12.7412 18.7408 10.914 18.6999 10.914 18.6999H8.16113V15.5499H10.9089C10.9089 15.5499 12.7412 15.5107 12.7412 17.1232Z" fill="#898989"/>
<path d="M20.1648 13.7847C19.229 13.7847 18.4602 14.4852 18.3068 15.583H22.0227C21.8761 14.4886 21.0989 13.7847 20.1648 13.7847ZM20.1648 13.7847C19.229 13.7847 18.4602 14.4852 18.3068 15.583H22.0227C21.8761 14.4886 21.0989 13.7847 20.1648 13.7847ZM25.9091 0H4.09091C3.00593 0 1.96539 0.431005 1.1982 1.1982C0.431005 1.96539 0 3.00593 0 4.09091L0 25.9091C0 26.9941 0.431005 28.0346 1.1982 28.8018C1.96539 29.569 3.00593 30 4.09091 30H25.9091C26.9941 30 28.0346 29.569 28.8018 28.8018C29.569 28.0346 30 26.9941 30 25.9091V4.09091C30 3.00593 29.569 1.96539 28.8018 1.1982C28.0346 0.431005 26.9941 0 25.9091 0ZM17.8057 9.88636H22.5V11.0557H17.8057V9.88636ZM13.3278 20.2381C12.6818 20.5568 11.8705 20.6574 11.1119 20.6574H5.625V9.13295H11.6574C12.404 9.13295 14.7153 9.57784 14.7256 11.7989C14.7256 13.333 13.8733 14.0352 13.1386 14.3727C13.1386 14.3727 15.0545 14.942 15.208 16.6364C15.3614 18.3307 15.058 19.3841 13.3278 20.2381ZM24.3494 17.0591H18.3068C18.2489 18.3903 19.2222 19.1847 20.3284 19.1847C20.7133 19.1855 21.0912 19.0815 21.4215 18.8839C21.7518 18.6864 22.0221 18.4026 22.2034 18.0631H24.1824C23.6386 20.0438 22.0449 20.8687 20.1614 20.8687C17.6949 20.8687 15.9409 18.8915 15.9409 16.4506C15.9409 14.0097 17.8312 12.0307 20.1614 12.0307C22.4915 12.0307 24.375 14.0097 24.375 16.4506C24.375 16.6619 24.375 16.8631 24.3494 17.0591ZM20.1648 13.7847C19.229 13.7847 18.4602 14.4852 18.3068 15.583H22.0227C21.8761 14.4886 21.0989 13.7847 20.1648 13.7847Z" fill="#898989"/>
</svg>
