<svg width="13" height="10" viewBox="0 0 13 10" fill="none" xmlns="http://www.w3.org/2000/svg">
<path d="M12.7117 4.94343C12.7117 6.82576 12.342 8.70693 11.6039 9.88686C11.6039 9.88686 8.61606 9.88686 8.62427 9.88686L6.36875 6.91269L6.3664 6.91617L2.68621 2.07242C2.4961 2.91506 2.40456 3.92925 2.40926 4.94343C2.40456 5.95762 2.49727 6.9718 2.68621 7.81444L4.53921 5.36185L6.17277 7.17116L4.11322 9.88686H1.12072C0.374356 8.70925 0 6.82692 0 4.94343C0 3.05994 0.374356 1.17761 1.12072 0H4.11322L4.27048 0.208632L6.36875 2.97533L6.3711 2.97301L7.86617 4.94111L7.86383 4.94343L10.029 7.81444C10.029 7.80749 10.0325 7.80054 10.0337 7.79358L10.0489 7.81329L10.036 7.78547C10.2179 6.95326 10.3071 5.94834 10.3024 4.94343C10.3071 3.92693 10.2156 2.91042 10.029 2.07242L8.18655 4.51457L6.56355 2.71686L8.6231 0C8.61489 0 11.6027 0 11.6027 0C12.3408 1.17877 12.7105 3.0611 12.7105 4.94343H12.7117Z" fill="white"/>
</svg>
