<svg width="29" height="40" viewBox="0 0 29 40" fill="none" xmlns="http://www.w3.org/2000/svg">
<g clip-path="url(#clip0_79_6066)">
<path d="M5.41126 39.0325C5.43456 39.2559 5.48116 39.6086 5.7491 39.6968C5.92967 39.7556 6.09276 39.7556 6.15101 39.7556C6.18013 39.7556 6.20343 39.7614 6.20343 39.785C6.20343 39.8202 6.14518 39.8437 6.07529 39.8437C5.94132 39.8437 5.27146 39.8261 5.03847 39.8085C4.89285 39.7967 4.86372 39.7791 4.86372 39.7438C4.86372 39.7203 4.87537 39.7085 4.9045 39.7027C4.93362 39.6968 4.93945 39.591 4.9278 39.4793L4.63073 36.2462H4.61326L3.09298 39.5028C2.96483 39.7791 2.94153 39.832 2.88911 39.832C2.84834 39.832 2.81339 39.7673 2.69689 39.5439C2.5338 39.2383 2.00374 38.1508 1.96879 38.092C1.91054 37.9803 1.21739 36.4754 1.14749 36.3049H1.12419L0.873723 39.2089C0.867898 39.3088 0.867898 39.4205 0.867898 39.5263C0.867898 39.6204 0.937796 39.7027 1.03099 39.7203C1.13584 39.7438 1.22904 39.7497 1.26399 39.7497C1.28729 39.7497 1.31641 39.7614 1.31641 39.7791C1.31641 39.8202 1.28146 39.8379 1.20574 39.8379C0.97857 39.8379 0.675679 39.8202 0.629081 39.8202C0.570832 39.8202 0.273767 39.8379 0.104847 39.8379C0.0407737 39.8379 0 39.8261 0 39.7791C0 39.7614 0.0291241 39.7497 0.064073 39.7497C0.116496 39.7497 0.15727 39.7497 0.250467 39.732C0.454336 39.6968 0.47181 39.4499 0.500934 39.2148L0.949446 35.1293C0.961095 35.0587 0.97857 35.0176 1.01934 35.0176C1.06012 35.0176 1.08342 35.0411 1.11254 35.1116L3.01143 39.0502L4.8346 35.1175C4.8579 35.0587 4.88702 35.0176 4.9278 35.0176C4.96857 35.0176 4.99187 35.0705 5.00352 35.1881L5.41708 39.0325H5.41126Z" fill="white"/>
<path d="M8.76641 38.0217C8.76641 38.6213 8.76641 39.115 8.79554 39.3796C8.81301 39.5618 8.85378 39.697 9.04018 39.7264C9.12755 39.7382 9.26152 39.7499 9.31977 39.7499C9.35472 39.7499 9.37219 39.7675 9.37219 39.7852C9.37219 39.8146 9.34307 39.8381 9.27317 39.8381C8.92951 39.8381 8.53924 39.8204 8.51012 39.8204C8.481 39.8204 8.09073 39.8381 7.90434 39.8381C7.83444 39.8381 7.80532 39.8263 7.80532 39.7852C7.80532 39.7675 7.81697 39.7499 7.85774 39.7499C7.91599 39.7499 7.98589 39.7382 8.04413 39.7264C8.16646 39.7029 8.2014 39.5618 8.2247 39.3796C8.25383 39.115 8.25383 38.6213 8.25383 38.0217V36.9165C8.25383 35.9407 8.25383 35.7644 8.24218 35.5645C8.23053 35.3529 8.16646 35.2471 8.03248 35.2118C7.96259 35.1942 7.88104 35.1883 7.84027 35.1883C7.81697 35.1883 7.78784 35.1765 7.78784 35.153C7.78784 35.1177 7.81697 35.1001 7.88686 35.1001C8.09073 35.1001 8.481 35.1177 8.51594 35.1177C8.55089 35.1177 8.93533 35.1001 9.12173 35.1001C9.19162 35.1001 9.22075 35.1119 9.22075 35.153C9.22075 35.1765 9.19745 35.1883 9.16832 35.1883C9.12755 35.1883 9.08678 35.1942 9.01105 35.2059C8.84213 35.2353 8.79554 35.3411 8.78389 35.5645C8.77224 35.7644 8.77224 35.9407 8.77224 36.9165V38.0217H8.76641Z" fill="white"/>
<path d="M12.5932 38.2156C12.5932 37.8747 12.5291 37.7395 12.4475 37.5572C12.4068 37.4573 11.5738 36.0759 11.3525 35.7526C11.1952 35.5233 11.0438 35.3646 10.9331 35.2882C10.8399 35.2235 10.7234 35.1883 10.6651 35.1883C10.636 35.1883 10.6011 35.1765 10.6011 35.1471C10.6011 35.1236 10.6244 35.106 10.6826 35.106C10.7991 35.106 11.2651 35.1236 11.2942 35.1236C11.335 35.1236 11.5738 35.106 11.8126 35.106C11.8825 35.106 11.8942 35.1236 11.8942 35.1471C11.8942 35.1706 11.8592 35.1765 11.801 35.2059C11.7486 35.2294 11.7194 35.2706 11.7194 35.3176C11.7194 35.394 11.7486 35.4704 11.801 35.5645C11.9 35.7467 12.832 37.3633 12.9427 37.5455C13.0591 37.281 13.8513 35.9113 13.9736 35.7056C14.0552 35.5762 14.0785 35.4704 14.0785 35.3881C14.0785 35.2999 14.0552 35.2294 13.9795 35.2118C13.9212 35.1941 13.8863 35.1824 13.8863 35.1471C13.8863 35.1236 13.9212 35.1118 13.9853 35.1118C14.1484 35.1118 14.3464 35.1295 14.393 35.1295C14.428 35.1295 14.8765 35.1118 14.993 35.1118C15.0338 35.1118 15.0745 35.1236 15.0745 35.1471C15.0745 35.1765 15.0454 35.2 14.993 35.2C14.9231 35.2 14.8066 35.2235 14.7076 35.2882C14.5853 35.3646 14.5154 35.441 14.3814 35.6056C14.1775 35.8584 13.3096 37.328 13.1931 37.5984C13.0999 37.8218 13.0999 38.0158 13.0999 38.2274V38.7682C13.0999 38.8681 13.0999 39.1327 13.1174 39.3972C13.129 39.5794 13.1873 39.7146 13.3737 39.744C13.4611 39.7558 13.595 39.7675 13.6533 39.7675C13.6882 39.7675 13.7057 39.7852 13.7057 39.8028C13.7057 39.8322 13.6766 39.8557 13.6067 39.8557C13.263 39.8557 12.8728 39.8381 12.8436 39.8381C12.8145 39.8381 12.4242 39.8557 12.2378 39.8557C12.168 39.8557 12.1388 39.8439 12.1388 39.8028C12.1388 39.7852 12.1505 39.7675 12.1912 39.7675C12.2495 39.7675 12.3194 39.7558 12.3776 39.744C12.5 39.7205 12.5582 39.5794 12.5699 39.3972C12.5873 39.1327 12.5873 38.874 12.5873 38.7682V38.2274L12.5932 38.2156Z" fill="white"/>
<path d="M17.5094 35.2586C17.5851 35.0529 17.6084 35.0117 17.6433 35.0117C17.6783 35.0117 17.7074 35.0411 17.7773 35.2351C17.8705 35.4702 18.8432 38.0626 19.2219 39.0149C19.4432 39.5734 19.6238 39.6733 19.7577 39.7086C19.8509 39.7379 19.9441 39.7438 20.0082 39.7438C20.0432 39.7438 20.0723 39.7497 20.0723 39.7791C20.0723 39.8144 20.014 39.832 19.95 39.832C19.8568 39.832 19.4024 39.832 18.9772 39.8202C18.8607 39.8144 18.7908 39.8144 18.7908 39.7791C18.7908 39.7556 18.8083 39.7438 18.8316 39.7379C18.8665 39.7262 18.9073 39.6674 18.8665 39.5675L18.2899 38.0273C18.2899 38.0273 18.2666 37.9921 18.2316 37.9921H16.8978C16.8686 37.9921 16.8453 38.0097 16.8337 38.045L16.4609 39.156C16.4026 39.3147 16.3735 39.4617 16.3735 39.5734C16.3735 39.6968 16.5017 39.7556 16.6065 39.7556H16.6706C16.7114 39.7556 16.7347 39.7673 16.7347 39.7909C16.7347 39.8261 16.6997 39.8438 16.6415 39.8438C16.49 39.8438 16.2279 39.8261 16.158 39.8261C16.0881 39.8261 15.7503 39.8438 15.459 39.8438C15.3775 39.8438 15.3425 39.832 15.3425 39.7909C15.3425 39.7673 15.3658 39.7556 15.4008 39.7556C15.4416 39.7556 15.5289 39.7497 15.5813 39.7438C15.8668 39.7086 15.9891 39.4675 16.0998 39.156L17.5094 35.2645V35.2586ZM18.1559 37.7687C18.185 37.7687 18.185 37.7511 18.1792 37.7275L17.5909 36.0346C17.5618 35.9405 17.5268 35.9405 17.4977 36.0346L16.9502 37.7275C16.9385 37.7569 16.9502 37.7687 16.9677 37.7687H18.1559Z" fill="white"/>
<path d="M21.8896 36.9224C21.8896 35.9466 21.8896 35.7702 21.878 35.5703C21.8663 35.3587 21.8139 35.2588 21.61 35.2118C21.5576 35.2 21.4527 35.1941 21.4003 35.1941C21.377 35.1941 21.3479 35.1824 21.3479 35.1589C21.3479 35.1236 21.377 35.106 21.4469 35.106C21.7265 35.106 22.1168 35.1236 22.1459 35.1236C22.2973 35.1236 22.5362 35.106 22.8216 35.106C23.8409 35.106 24.0623 35.7349 24.0623 36.0465C24.0623 36.5579 23.771 36.8695 23.4798 37.1752C23.9399 37.3221 24.5516 37.763 24.5516 38.4978C24.5516 39.1679 24.0331 39.8616 22.9672 39.8616C22.8216 39.8616 22.1925 39.8263 22.1401 39.8263C22.1109 39.8263 21.7207 39.8439 21.5343 39.8439C21.4644 39.8439 21.4353 39.8322 21.4353 39.791C21.4353 39.7734 21.4469 39.7558 21.4877 39.7558C21.5459 39.7558 21.6158 39.744 21.6741 39.7323C21.7964 39.7087 21.8314 39.5677 21.8547 39.3854C21.8838 39.1209 21.8838 38.6271 21.8838 38.0275V36.9224H21.8896ZM22.3905 37.0576C22.3905 37.0987 22.4022 37.1164 22.4313 37.1281C22.4663 37.134 22.5828 37.1516 22.8099 37.1516C23.1594 37.1516 23.2468 37.1399 23.3749 36.987C23.5031 36.8342 23.5963 36.6108 23.5963 36.3522C23.5963 35.8349 23.3691 35.2764 22.7575 35.2764C22.6876 35.2764 22.5595 35.2823 22.4604 35.3058C22.4022 35.3176 22.3847 35.3352 22.3847 35.3764V37.0576H22.3905ZM22.3905 37.7218C22.3905 38.2039 22.3905 38.9798 22.3964 39.0739C22.4138 39.3795 22.4138 39.4677 22.6061 39.5618C22.775 39.6441 23.0429 39.6558 23.1536 39.6558C23.4914 39.6558 24.0273 39.4736 24.0273 38.7682C24.0273 38.392 23.905 37.8453 23.4274 37.5161C23.2177 37.3691 23.0604 37.3515 22.9148 37.3339C22.8332 37.3221 22.5245 37.3221 22.4313 37.3221C22.408 37.3221 22.3964 37.3339 22.3964 37.3633V37.7218H22.3905Z" fill="white"/>
<path d="M27.6097 38.0217C27.6097 38.6213 27.6097 39.115 27.6388 39.3796C27.6563 39.5618 27.697 39.697 27.8834 39.7264C27.9708 39.7382 28.1048 39.7499 28.163 39.7499C28.198 39.7499 28.2155 39.7675 28.2155 39.7852C28.2155 39.8146 28.1863 39.8381 28.1164 39.8381C27.7728 39.8381 27.3825 39.8204 27.3534 39.8204C27.3243 39.8204 26.934 39.8381 26.7476 39.8381C26.6777 39.8381 26.6486 39.8263 26.6486 39.7852C26.6486 39.7675 26.6602 39.7499 26.701 39.7499C26.7592 39.7499 26.8291 39.7382 26.8874 39.7264C27.0097 39.7029 27.0447 39.5618 27.068 39.3796C27.0971 39.115 27.0971 38.6213 27.0971 38.0217V36.9165C27.0971 35.9407 27.0971 35.7644 27.0854 35.5645C27.0738 35.3529 27.0097 35.2471 26.8757 35.2118C26.8058 35.1942 26.7243 35.1883 26.6835 35.1883C26.6602 35.1883 26.6311 35.1765 26.6311 35.153C26.6311 35.1177 26.6602 35.1001 26.7301 35.1001C26.934 35.1001 27.3243 35.1177 27.3592 35.1177C27.3942 35.1177 27.7786 35.1001 27.965 35.1001C28.0349 35.1001 28.064 35.1119 28.064 35.153C28.064 35.1765 28.0407 35.1883 28.0116 35.1883C27.9708 35.1883 27.93 35.1942 27.8543 35.2059C27.6854 35.2353 27.6388 35.3411 27.6271 35.5645C27.6155 35.7644 27.6155 35.9407 27.6155 36.9165V38.0217H27.6097Z" fill="white"/>
<path d="M11.1894 32.2844C11.1894 32.5372 11.1894 32.7488 11.2011 32.8605C11.2069 32.9369 11.2244 32.9957 11.3059 33.0074C11.3408 33.0074 11.3991 33.0192 11.4224 33.0192C11.4399 33.0192 11.4457 33.0251 11.4457 33.0368C11.4457 33.0486 11.434 33.0603 11.4049 33.0603C11.2593 33.0603 11.0962 33.0545 11.0846 33.0545C11.0729 33.0545 10.904 33.0603 10.8283 33.0603C10.7991 33.0603 10.7875 33.0603 10.7875 33.0368C10.7875 33.0309 10.7875 33.0192 10.8108 33.0192C10.8341 33.0192 10.8632 33.0192 10.8865 33.0074C10.9389 32.9957 10.9506 32.9369 10.9622 32.8605C10.9739 32.7488 10.9739 32.543 10.9739 32.2844V31.1675H10.5836C10.4205 31.1734 10.3565 31.1969 10.3157 31.2557C10.2866 31.3027 10.2807 31.3203 10.2691 31.338C10.2633 31.3615 10.2516 31.3674 10.2458 31.3674C10.24 31.3674 10.2341 31.3615 10.2341 31.3438C10.2341 31.3203 10.2866 31.0911 10.2924 31.0676C10.2924 31.0499 10.3099 31.0146 10.3215 31.0146C10.339 31.0146 10.3681 31.0382 10.438 31.044C10.5137 31.0499 10.6127 31.0558 10.6477 31.0558H11.6321C11.801 31.0558 11.8709 31.0264 11.8942 31.0264C11.9059 31.0264 11.9059 31.044 11.9059 31.0558C11.9059 31.1322 11.9 31.3203 11.9 31.3438C11.9 31.3674 11.8942 31.3791 11.8826 31.3791C11.8709 31.3791 11.8651 31.3732 11.8593 31.3321V31.3027C11.8476 31.2263 11.7835 31.1616 11.5331 31.1557H11.2011V32.2667L11.1894 32.2844Z" fill="white"/>
<path d="M15.0689 32.2843C15.0689 32.537 15.0689 32.7487 15.0806 32.8604C15.0864 32.9368 15.1039 32.9956 15.1854 33.0073C15.2204 33.0073 15.2786 33.0191 15.3019 33.0191C15.3194 33.0191 15.3252 33.0249 15.3252 33.0367C15.3252 33.0485 15.3136 33.0602 15.2844 33.0602C15.1388 33.0602 14.9757 33.0543 14.9641 33.0543C14.9524 33.0543 14.7835 33.0602 14.7078 33.0602C14.6786 33.0602 14.667 33.0602 14.667 33.0367C14.667 33.0308 14.667 33.0191 14.6903 33.0191C14.7136 33.0191 14.7427 33.0191 14.766 33.0073C14.8184 32.9956 14.8301 32.9368 14.8417 32.8604C14.8534 32.7487 14.8534 32.5429 14.8534 32.2843V32.008C14.8534 32.008 14.8476 31.9903 14.8359 31.9903H13.7234C13.7234 31.9903 13.7059 31.9903 13.7059 32.008V32.2843C13.7059 32.537 13.7059 32.7487 13.7176 32.8604C13.7234 32.9368 13.7409 32.9956 13.8224 33.0073C13.8573 33.0073 13.9156 33.0191 13.9389 33.0191C13.9564 33.0191 13.9622 33.0249 13.9622 33.0367C13.9622 33.0485 13.9505 33.0602 13.9214 33.0602C13.7758 33.0602 13.6127 33.0543 13.6011 33.0543C13.5894 33.0543 13.4205 33.0602 13.3448 33.0602C13.3156 33.0602 13.304 33.0602 13.304 33.0367C13.304 33.0308 13.304 33.0191 13.3273 33.0191C13.3506 33.0191 13.3797 33.0191 13.403 33.0073C13.4554 32.9956 13.4671 32.9368 13.4787 32.8604C13.4904 32.7487 13.4904 32.5429 13.4904 32.2843V31.8199C13.4904 31.4084 13.4904 31.332 13.4904 31.2497C13.4904 31.1615 13.4613 31.1203 13.3797 31.0968C13.3564 31.0968 13.3156 31.091 13.2923 31.091C13.2807 31.091 13.269 31.091 13.269 31.0733C13.269 31.0557 13.2807 31.0498 13.3098 31.0498C13.4263 31.0498 13.5952 31.0557 13.6069 31.0557C13.6185 31.0557 13.7875 31.0498 13.8632 31.0498C13.8923 31.0498 13.9039 31.0498 13.9039 31.0733C13.9039 31.0851 13.8923 31.091 13.8806 31.091C13.8632 31.091 13.8457 31.091 13.8166 31.0968C13.7467 31.1086 13.7234 31.1556 13.7176 31.2497C13.7176 31.332 13.7176 31.4084 13.7176 31.8199V31.8728C13.7176 31.8728 13.7234 31.8904 13.735 31.8904H14.8476C14.8476 31.8904 14.865 31.8904 14.865 31.8728V31.8199C14.865 31.4084 14.865 31.332 14.865 31.2497C14.865 31.1615 14.8417 31.1203 14.7544 31.0968C14.7311 31.0968 14.6903 31.091 14.667 31.091C14.6553 31.091 14.6437 31.091 14.6437 31.0733C14.6437 31.0557 14.6553 31.0498 14.6845 31.0498C14.801 31.0498 14.9699 31.0557 14.9815 31.0557C14.9932 31.0557 15.1621 31.0498 15.2378 31.0498C15.267 31.0498 15.2786 31.0498 15.2786 31.0733C15.2786 31.0851 15.267 31.091 15.2553 31.091C15.2378 31.091 15.2204 31.091 15.1912 31.0968C15.1213 31.1086 15.098 31.1556 15.0922 31.2497C15.0922 31.332 15.0922 31.4084 15.0922 31.8199V32.2843H15.0689Z" fill="white"/>
<path d="M17.0492 31.8199C17.0492 31.4084 17.0492 31.332 17.0492 31.2497C17.0492 31.1616 17.0201 31.1204 16.9386 31.0969C16.9153 31.0969 16.8745 31.091 16.8512 31.091C16.8395 31.091 16.8279 31.091 16.8279 31.0734C16.8279 31.0557 16.8395 31.0499 16.8687 31.0499C16.9852 31.0499 17.1541 31.0557 17.1657 31.0557C17.1832 31.0557 17.7074 31.0557 17.7657 31.0557C17.8181 31.0557 17.8589 31.0499 17.8763 31.044C17.888 31.044 17.8996 31.0322 17.9113 31.0322C17.9171 31.0322 17.9229 31.044 17.9229 31.0557C17.9229 31.0734 17.9113 31.1086 17.8996 31.1792C17.8996 31.2027 17.8938 31.3203 17.888 31.3555C17.888 31.3673 17.8822 31.3849 17.8705 31.3849C17.853 31.3849 17.8472 31.3732 17.8472 31.3497C17.8472 31.332 17.8472 31.285 17.8298 31.2556C17.8123 31.2145 17.7832 31.1792 17.6434 31.1674C17.5968 31.1674 17.3113 31.1615 17.2822 31.1615C17.2706 31.1615 17.2647 31.1674 17.2647 31.1909V31.9199C17.2647 31.9199 17.2647 31.9434 17.2822 31.9434C17.3172 31.9434 17.6375 31.9434 17.6958 31.9434C17.7599 31.9434 17.7948 31.9316 17.8181 31.9081C17.8356 31.8846 17.8472 31.8728 17.8589 31.8728C17.8647 31.8728 17.8705 31.8728 17.8705 31.8963C17.8705 31.9199 17.8589 31.9551 17.8472 32.0433C17.8472 32.0962 17.8356 32.1961 17.8356 32.2138C17.8356 32.2373 17.8356 32.2667 17.8181 32.2667C17.8065 32.2667 17.8006 32.2549 17.8006 32.2432C17.8006 32.2197 17.8006 32.1903 17.789 32.155C17.7773 32.1197 17.754 32.0727 17.655 32.0609C17.5851 32.0551 17.323 32.0492 17.2822 32.0492C17.2706 32.0492 17.2647 32.0551 17.2647 32.0668V32.302C17.2647 32.3901 17.2647 32.6958 17.2647 32.7546C17.2706 32.9368 17.3113 32.9721 17.5676 32.9721C17.6375 32.9721 17.7482 32.9721 17.8181 32.9427C17.888 32.9133 17.9171 32.8604 17.9346 32.7546C17.9346 32.7252 17.9462 32.7134 17.9579 32.7134C17.9754 32.7134 17.9754 32.737 17.9754 32.7546C17.9754 32.7781 17.9521 32.9545 17.9404 33.0132C17.9229 33.0838 17.8996 33.0838 17.8006 33.0838C17.4045 33.0838 17.2298 33.0662 17.1541 33.0662C17.1424 33.0662 16.9735 33.072 16.8978 33.072C16.8687 33.072 16.857 33.072 16.857 33.0485C16.857 33.0426 16.857 33.0309 16.8803 33.0309C16.9036 33.0309 16.9327 33.0309 16.956 33.0191C17.0085 33.0074 17.0201 32.9486 17.0317 32.8722C17.0434 32.7605 17.0434 32.5547 17.0434 32.2961V31.8317L17.0492 31.8199Z" fill="white"/>
<path d="M10.9099 9.56396C8.97028 11.063 7.5432 12.5913 6.55298 14.2314C6.63453 14.443 6.72772 14.6311 6.82675 14.7957C7.49077 13.5848 8.42857 12.4385 9.76828 11.204C9.76828 11.1982 9.7741 11.1923 9.77993 11.1864C10.3333 10.6809 10.9099 10.2047 11.4983 9.76383C11.3002 9.68153 11.0963 9.59336 10.9041 9.56396" fill="white"/>
<path d="M14.0728 3.00371C11.6788 3.04486 9.57603 4.27345 8.14312 6.46609C7.70044 7.14798 7.14708 8.21197 7.05388 9.41117C6.96651 10.5222 7.10048 11.6391 7.43249 12.656C7.56064 12.4973 7.69461 12.3386 7.82276 12.1858C7.28105 10.5339 7.47327 8.72927 8.37029 7.10683C9.34304 5.34919 11.0381 4.04419 12.9137 3.60919C15.2785 3.16243 17.9579 4.16764 19.7578 6.16629C20.0432 6.22508 20.3112 6.28386 20.5675 6.37204C18.9365 4.21466 16.5309 2.95669 14.0728 3.00371Z" fill="white"/>
<path d="M9.7915 15.607C9.62258 15.848 9.46531 16.1184 9.29639 16.4417C9.41871 18.3228 9.96042 20.0628 10.8691 21.4736C11.0671 21.5089 11.2768 21.5147 11.504 21.4971C10.5895 20.2039 10.0187 18.5932 9.83809 16.8297C9.79732 16.4417 9.77985 16.0478 9.78567 15.6011" fill="white"/>
<path d="M12.5058 6.95997C14.6727 7.84761 16.4958 9.02917 17.9346 10.4694C17.9812 10.2695 18.0336 10.0696 18.0511 9.86978C16.7113 8.57653 15.0454 7.49491 13.1 6.6543C12.9019 6.73072 12.7039 6.83065 12.5 6.95997" fill="white"/>
<path d="M21.8198 23.0668C23.7595 20.9094 23.9808 17.8292 22.3848 15.2192C21.9246 14.5431 21.4237 13.8201 20.9053 13.1323C20.8237 13.3204 20.7422 13.4968 20.6606 13.6673C21.1616 14.3433 21.6101 14.9781 22.0586 15.66C22.0586 15.66 22.0586 15.66 22.0586 15.6659C22.0586 15.6659 22.0586 15.6718 22.0644 15.6777C23.3983 17.9644 23.1653 20.7037 21.4703 22.6494C20.6956 23.543 19.6937 24.1602 18.5812 24.4365C17.3929 24.7304 16.1173 24.6187 14.8882 24.1014C14.696 24.2307 14.5096 24.3365 14.3232 24.4306C15.6921 25.0655 17.1192 25.2536 18.4647 24.9832C19.7578 24.7186 20.9111 24.0544 21.8081 23.0609" fill="white"/>
<path d="M4.6015 8.85299C3.58215 9.96988 2.97055 11.2749 2.83658 12.6387C2.73173 14.5668 3.48313 16.5125 4.89856 17.988C6.28487 19.4282 8.13716 20.2453 10.0011 20.2453H10.0128C9.93121 20.0631 9.86131 19.8809 9.79724 19.7104C7.47313 19.6457 5.31795 18.2643 4.15299 16.101C3.32004 14.7373 3.12199 13.2089 3.57051 11.6923C4.11221 9.86995 5.55677 8.25339 7.43236 7.354C7.56051 7.08359 7.70613 6.83082 7.8401 6.60156C6.57611 7.13062 5.45775 7.90657 4.58985 8.85299" fill="white"/>
<path d="M13.6241 19.3223C15.6395 20.2569 17.7015 20.5626 19.6004 20.204C19.6936 20.0218 19.7635 19.8278 19.8218 19.6338C17.7831 20.1158 15.4706 19.7396 13.2747 18.5698C13.3737 18.8167 13.4902 19.0695 13.6241 19.3223Z" fill="white"/>
<path d="M17.4687 16.83C17.7017 16.8535 17.9464 16.8653 18.1852 16.8535C19.7462 15.2605 20.8238 13.3559 21.2956 11.3337C21.1617 11.1397 21.0277 10.9692 20.8821 10.8164C20.4335 13.0737 19.2278 15.1958 17.4629 16.83" fill="white"/>
<path d="M8.53931 16.4303C8.69075 16.5126 8.84802 16.5538 9.02859 16.5891C10.2227 14.1672 12.4245 12.4683 14.2476 11.2574C14.0729 11.1398 13.9214 11.034 13.7816 10.9458C10.3217 13.2972 9.12761 15.19 8.53931 16.4303Z" fill="white"/>
<path d="M5.98201 11.6687C5.46361 12.5446 5.48108 13.685 6.02861 14.7961C6.68682 16.1363 7.9508 17.1474 9.20897 17.3414C9.18567 17.1592 9.16237 16.9769 9.15072 16.7947C7.88673 16.5302 6.69264 15.378 6.29073 14.026C5.96454 12.9385 6.19753 11.9392 6.93146 11.2044C6.90234 10.9692 6.87904 10.7458 6.86739 10.5225C6.50042 10.8869 6.20336 11.269 5.98784 11.657" fill="white"/>
<path d="M13.8049 5.77858C11.9118 5.9902 10.1236 7.72433 9.82068 9.65244C9.80321 9.83467 9.79738 10.0287 9.80321 10.2285C10.0013 10.058 10.1702 9.91697 10.3333 9.78176C10.5022 8.55318 11.3701 7.35987 12.5467 6.73676C13.5835 6.19007 14.7135 6.1548 15.663 6.63682C15.9134 6.54277 16.1523 6.46635 16.3853 6.40169C15.4824 5.94317 14.6145 5.73743 13.799 5.77858" fill="white"/>
<path d="M11.3177 21.6794C10.2692 21.7088 9.35474 21.2091 8.75478 20.2803C8.54509 20.2451 8.32957 20.1922 8.11987 20.1451C8.69653 21.3855 9.75665 22.132 11.0498 22.1908C12.5642 22.2613 14.0379 21.4031 14.8359 19.9923C14.6611 19.9335 14.4864 19.8688 14.335 19.8101C13.6768 20.9328 12.5293 21.6441 11.3235 21.6794" fill="white"/>
<path d="M20.1539 16.8943C19.9501 16.571 19.6472 16.1419 19.4025 15.8009L19.3734 15.7598C19.2685 15.895 19.1579 16.0302 19.0356 16.1771C19.1346 16.3182 19.2511 16.4887 19.3676 16.6533C19.4491 16.7767 19.5307 16.8943 19.6006 16.9884C20.2937 17.923 20.3228 19.2986 19.6763 20.4155C19.1229 21.3678 18.2026 21.8674 17.2007 21.7616C17.0959 21.9203 16.9736 22.0908 16.8396 22.2613C18.0512 22.4788 19.2103 21.9791 19.9559 20.9092C20.8121 19.6865 20.8878 18.07 20.1539 16.8884" fill="white"/>
<path d="M12.7738 14.8428C12.7563 15.0485 12.7505 15.266 12.7446 15.5012C14.9464 17.2706 17.4977 17.9466 19.6063 17.3235C19.5131 17.1765 19.4024 17.0119 19.3034 16.8767C17.2239 17.3764 14.8008 16.618 12.7738 14.8428Z" fill="white"/>
<path d="M15.0454 11.8511C15.2376 12.8093 15.3483 13.7674 15.3832 14.7197C15.5405 14.5786 15.7153 14.4141 15.8725 14.2436C15.8434 13.7028 15.7793 13.1149 15.6687 12.3978C15.4764 12.2038 15.2609 12.0215 15.0512 11.8511" fill="white"/>
<path d="M14.3232 15.7542C14.498 15.8541 14.6669 15.9482 14.8358 16.0364C16.793 14.702 18.1909 12.6504 18.6686 10.4049C18.7035 10.2226 18.7268 10.0345 18.7559 9.85817C18.7559 9.81702 18.7676 9.78175 18.7734 9.7406C18.6103 9.72296 18.4414 9.72296 18.255 9.74648C17.9521 12.139 16.4901 14.3669 14.3291 15.7542" fill="white"/>
<path d="M17.5385 9.1528C17.69 9.27625 17.8589 9.42321 18.0278 9.5878C19.152 9.39382 20.3228 9.86409 21.1674 10.8517C22.0353 11.8686 22.344 13.1854 21.9771 14.3082C22.1401 14.5433 22.2625 14.7196 22.344 14.8372C22.9556 13.4793 22.6469 11.7981 21.5344 10.5107C20.451 9.25273 18.9307 8.74131 17.5327 9.1528" fill="white"/>
<path d="M10.7759 8.85889C10.6886 9.047 10.6187 9.21747 10.5779 9.37619C13.2689 9.79943 15.7037 12.1273 16.7056 13.2089C16.7988 13.0737 16.892 12.9267 16.991 12.7621C15.5989 11.2808 13.4087 9.42909 10.7701 8.86477" fill="white"/>
<path d="M23.573 18.0349C24.7787 16.6359 25.4195 15.0193 25.4311 13.3498C25.4428 11.7921 24.8952 10.2343 23.8875 8.96455C22.0178 6.60143 18.4588 5.16122 14.6843 7.21279C14.8765 7.31272 15.0688 7.42441 15.261 7.5361C16.7288 6.76603 18.2957 6.54853 19.7985 6.91299C21.1732 7.24218 22.443 8.04752 23.375 9.18205C24.2953 10.2989 24.837 11.6804 24.9011 13.0677C24.971 14.5902 24.4758 16.0715 23.4623 17.3589C23.5089 17.5823 23.5439 17.8057 23.5672 18.0349" fill="white"/>
<path d="M17.6901 20.5213C17.4979 20.5213 17.3115 20.5095 17.1309 20.486C16.0824 22.6434 13.7641 24.7067 10.9158 24.4774C9.44795 24.401 8.01504 23.7015 6.98405 22.5493C6.04626 21.503 5.56279 20.2097 5.62104 18.9047C5.45212 18.7754 5.29485 18.6284 5.12593 18.4756C5.12011 18.5344 5.11428 18.5932 5.11428 18.6519C5.03274 19.8923 5.3298 21.0797 5.97636 22.0967C6.57631 23.0372 7.45586 23.8073 8.51598 24.3246C10.9042 25.4826 13.636 25.1358 15.4883 23.437C15.4883 23.437 15.4999 23.4252 15.5058 23.4252C16.4669 22.5611 17.2183 21.5617 17.6901 20.5271" fill="white"/>
<path d="M12.0749 14.949C11.9235 17.0946 12.4536 19.0521 13.5603 20.4688C13.6884 20.3218 13.8049 20.1925 13.9039 20.0691C13.8806 20.0397 13.8632 20.0103 13.8457 19.9809C13.8166 19.9338 13.7816 19.8809 13.7525 19.8457C12.4594 17.9411 12.2206 15.2076 13.071 12.3096C12.8555 12.4742 12.6341 12.6505 12.3953 12.8504C12.2322 13.5382 12.1274 14.2436 12.0808 14.949" fill="white"/>
<path d="M17.6487 27.6696C16.4721 27.6696 15.2897 27.4227 14.1363 26.9407C13.1578 27.3404 12.1151 27.5403 11.0375 27.5403C9.72695 27.5403 8.39889 27.2287 7.18733 26.6409C5.76608 25.9531 4.58946 24.9126 3.77981 23.6488C2.91774 22.2968 2.50418 20.7155 2.59155 19.0695C0.814978 17.159 -0.122818 14.649 0.0111524 12.1565V12.0977C0.197547 10.2696 1.0072 8.52367 2.35273 7.0482C3.45362 5.849 4.86905 4.86143 6.4534 4.1913C8.31735 1.54014 10.9968 0.0587839 14.0198 0C14.0723 0 14.1305 0 14.1829 0C17.2992 0 20.3806 1.62244 22.4367 4.33826L22.5066 4.43231C23.9395 5.05542 25.2035 6.03123 26.1762 7.25982C27.4985 8.93516 28.2208 10.9926 28.2091 13.0559C28.1975 15.178 27.4169 17.2296 25.9549 19.0107C26.0248 21.1975 25.2559 23.2902 23.7764 24.9303C22.5707 26.2705 21.0155 27.1641 19.2797 27.5168C18.7438 27.6226 18.1962 27.6814 17.6429 27.6814M14.1363 25.5828L14.3868 25.6945C15.4586 26.1765 16.5595 26.4234 17.6487 26.4234C18.1205 26.4234 18.5865 26.3764 19.0408 26.2823C20.5145 25.9825 21.8426 25.2183 22.8677 24.0838C24.1783 22.6318 24.8307 20.7625 24.7142 18.8285L24.6967 18.5757L24.8598 18.3817C26.2287 16.7887 26.9568 14.9429 26.9742 13.0442C26.9859 11.263 26.3626 9.48773 25.2152 8.03577C24.3414 6.93063 23.1881 6.06063 21.8834 5.51981L21.7261 5.45515L21.4523 5.09657C19.6292 2.68643 16.9148 1.2521 14.1829 1.2521C14.1363 1.2521 14.0897 1.2521 14.0431 1.2521C11.3696 1.29913 8.99885 2.65116 7.37373 5.05542L7.26888 5.20826L6.96599 5.3317C5.52726 5.9313 4.25162 6.81894 3.2614 7.90056C2.09644 9.17617 1.39746 10.6693 1.24601 12.2271C1.12369 14.4315 1.98577 16.6535 3.59924 18.3406L3.86718 18.611L3.83806 18.899C3.83806 18.9402 3.83224 18.9813 3.83224 19.0284V19.0519C3.73904 20.4686 4.07688 21.8265 4.81663 22.9845C5.50396 24.0603 6.50583 24.942 7.72322 25.5299C8.76586 26.0354 9.91335 26.3058 11.0375 26.3058C12.0336 26.3058 12.9947 26.1001 13.8859 25.7003L14.1363 25.5887V25.5828Z" fill="white"/>
</g>
<defs>
<clipPath id="clip0_79_6066">
<rect width="28.2096" height="39.8614" fill="white"/>
</clipPath>
</defs>
</svg>
