<svg width="47" height="42" viewBox="0 0 47 42" fill="none" xmlns="http://www.w3.org/2000/svg">
<path d="M19.6261 26.4515C18.7976 27.1356 16.7132 28.862 15.842 29.6103C15.7458 29.6905 15.8206 29.8455 15.9489 29.8241C16.8254 29.6424 18.8458 28.9796 19.8185 26.5905C19.8666 26.4729 19.7223 26.3713 19.6261 26.4515Z" fill="white"/>
<path d="M27.2801 26.4515C27.1839 26.3713 27.0396 26.4729 27.0877 26.5905C28.0604 28.9743 30.0809 29.6424 30.9575 29.8241C31.0804 29.8508 31.1605 29.6958 31.0643 29.6103C30.1931 28.862 28.1086 27.1356 27.2801 26.4515Z" fill="white"/>
<path d="M23.5493 0.0748277C23.5386 0.0320691 23.4959 0 23.4531 0C23.4104 0 23.3675 0.0267243 23.3568 0.0748277C23.1858 0.694827 23.0629 1.31483 22.956 1.94017C22.4268 5.01879 22.288 8.14551 22.5392 11.2562C22.5873 12.1915 22.6514 13.1269 22.7904 14.0515C23.0202 15.5962 23.2393 19.9362 23.1431 21.4915C23.1057 22.2932 23.0202 23.1858 22.9293 24.057C22.9293 24.057 22.9293 24.057 22.9293 24.0624C22.9293 24.0784 22.924 24.1212 22.9186 24.1853C22.8759 24.6289 22.7368 26.1362 22.8223 27.3655C22.833 27.5044 22.8438 27.6381 22.8598 27.7663C22.8651 27.8251 22.8758 27.8839 22.8812 27.9427C22.8812 27.9534 23.0148 28.7391 23.2874 29.6531C23.3088 29.7225 23.3301 29.7974 23.3568 29.8829C23.3675 29.9043 23.3729 29.915 23.3729 29.915C23.3836 29.9363 23.405 29.9524 23.4264 29.9577C23.4371 29.9577 23.4478 29.9577 23.4585 29.9577C23.4692 29.9577 23.4798 29.9577 23.4904 29.9577C23.5172 29.9524 23.5333 29.9363 23.5439 29.915C23.5439 29.915 23.5493 29.9043 23.56 29.8829C23.5867 29.8027 23.608 29.7279 23.6294 29.6531C23.902 28.7391 24.0303 27.9534 24.0356 27.9427C24.041 27.8839 24.0517 27.8251 24.057 27.7663C24.0624 27.6969 24.0731 27.622 24.0784 27.5419C24.0784 27.4777 24.0891 27.4243 24.0945 27.3655C24.18 26.1308 24.0464 24.6236 23.9983 24.1853C23.9983 24.1426 23.9876 24.1051 23.9876 24.0624V24.057C23.8967 23.1912 23.8111 22.2932 23.7737 21.4915C23.6775 19.9362 23.8967 15.5962 24.1266 14.0515C24.2655 13.1269 24.3297 12.1915 24.3778 11.2562C24.6236 8.14551 24.49 5.01879 23.9609 1.94017C23.8486 1.32017 23.731 0.700172 23.56 0.0748277H23.5493Z" fill="white"/>
<path d="M21.3634 13.1966C20.7006 9.55673 19.4179 5.40915 16.9379 3.27122C16.863 3.20708 16.7455 3.24984 16.7348 3.34605C16.6547 4.02484 16.5264 6.21087 17.8038 8.76035C18.7391 10.631 20.1181 14.4152 21.0535 17.0983C21.0856 17.1891 21.1176 17.2747 21.1443 17.3655C21.3474 17.9855 21.8284 19.6371 21.8818 21.5826C21.9139 22.8974 21.7537 24.3565 21.1818 25.7195C21.1818 25.7195 21.1818 25.7195 21.1818 25.7248C21.1711 25.7515 21.1604 25.7729 21.1497 25.7996C21.0909 25.9386 21.0267 26.0776 20.9572 26.2112C20.6418 26.8953 20.0914 28.1193 19.8402 28.8088C19.744 29.1134 19.6691 29.3967 19.6263 29.6586C19.6103 29.7602 19.7172 29.835 19.8028 29.7869C20.3907 29.4715 22.0316 28.2743 22.2561 24.6398C22.2561 24.6398 22.6408 19.931 21.3741 13.1912L21.3634 13.1966Z" fill="white"/>
<path d="M27.0767 28.8146C26.8255 28.1252 26.2749 26.9012 25.9596 26.2171C25.8901 26.0781 25.8259 25.9445 25.7671 25.8055C25.7671 25.8055 25.7458 25.7574 25.7352 25.7307V25.7253C25.1579 24.3571 24.9975 22.9033 25.035 21.5884C25.051 19.6643 25.4945 18.1838 25.6335 17.7615C25.6763 17.6333 25.7244 17.505 25.7671 17.3714C25.8259 17.2003 25.8581 17.1041 25.8581 17.1041C26.7934 14.4264 28.167 10.6422 29.1076 8.76621C30.3797 6.21673 30.2568 4.0307 30.1766 3.35191C30.1659 3.2557 30.0484 3.21294 29.9736 3.27708C27.4936 5.41501 26.2108 9.56259 25.548 13.2024C24.2813 19.9476 24.6662 24.651 24.6662 24.651C24.896 28.2855 26.5315 29.4827 27.1194 29.7981C27.2102 29.8462 27.3172 29.7714 27.2958 29.6698C27.253 29.4133 27.1783 29.1246 27.0821 28.82L27.0767 28.8146Z" fill="white"/>
<path d="M14.7462 12.8709C9.33722 8.63248 5.1736 9.31661 4.05653 9.61592C3.94429 9.64265 3.93358 9.79765 4.03513 9.84575C4.19013 9.92058 4.34507 9.99006 4.50542 10.0649C4.61766 10.113 7.86209 11.4706 10.1123 11.9142C12.3998 12.3685 13.9284 12.9297 14.6019 13.0794C14.6179 13.0794 14.6286 13.0847 14.6447 13.0901C14.7729 13.1168 14.8477 12.9511 14.7462 12.8763V12.8709Z" fill="white"/>
<path d="M42.8442 9.61592C41.7271 9.31661 37.5688 8.63248 32.1545 12.8709C32.053 12.9511 32.1278 13.1114 32.256 13.0847C32.2667 13.0847 32.2827 13.0794 32.2987 13.074C32.9722 12.9244 34.5009 12.3632 36.7884 11.9089C39.0386 11.4652 42.2829 10.1023 42.3952 10.0595C42.5555 9.99006 42.7104 9.91523 42.8654 9.84041C42.967 9.7923 42.9564 9.64265 42.8442 9.61058V9.61592Z" fill="white"/>
<path d="M36.35 6.12528C35.265 6.50477 31.4434 8.23649 27.9212 14.6396C27.9212 14.6396 27.0553 16.0987 26.5903 17.4563C26.5476 17.5792 26.724 17.6648 26.7882 17.5472C27.189 16.8737 27.9159 15.8582 29.1398 14.677C29.2948 14.5327 29.4553 14.3884 29.6156 14.2334C31.8337 12.1489 34.8428 9.06494 36.4943 6.30166C36.5531 6.20546 36.4569 6.08787 36.35 6.12528Z" fill="white"/>
<path d="M17.2856 14.2383C17.4513 14.3933 17.6063 14.5376 17.7613 14.6819C18.9906 15.8631 19.7122 16.8733 20.1131 17.5521C20.1825 17.6643 20.3535 17.5841 20.3108 17.4612C19.8458 16.0983 18.9799 14.6445 18.9799 14.6445C15.4523 8.24137 11.6361 6.50965 10.5511 6.13017C10.4442 6.09275 10.348 6.21034 10.4068 6.30655C12.053 9.06982 15.0675 12.1591 17.2856 14.2383Z" fill="white"/>
<path d="M0.00012207 32.3838H4.30808V32.5869H2.64043V36.975H1.88686V32.5869H0.00012207V32.3838Z" fill="white"/>
<path d="M14.3027 32.5714H11.5341V34.239H13.1268V34.426H11.5341V36.7884H14.3027V36.9809H10.7805V32.3896H14.3027V32.5767V32.5714Z" fill="white"/>
<path d="M21.5987 35.8425L21.7697 35.9815C21.5345 36.3129 21.2352 36.5748 20.8718 36.7672C20.503 36.9596 20.1075 37.0611 19.6746 37.0611C19.2149 37.0611 18.7926 36.9542 18.4024 36.7458C18.0122 36.532 17.7023 36.2487 17.4778 35.8799C17.2533 35.5165 17.1411 35.121 17.1411 34.688C17.1411 34.2551 17.2533 33.8596 17.4778 33.4961C17.7023 33.1327 18.0122 32.8441 18.4024 32.6303C18.7926 32.4165 19.2202 32.3149 19.6746 32.3149C20.1021 32.3149 20.4976 32.4058 20.8611 32.5875C21.2245 32.7693 21.5132 33.0205 21.7324 33.3411L21.5399 33.4587C21.3261 33.1701 21.0909 32.951 20.8397 32.8174C20.4976 32.6303 20.161 32.5394 19.8403 32.5394C19.4982 32.5394 19.1721 32.6356 18.8728 32.8227C18.5682 33.0151 18.3276 33.2717 18.1459 33.6084C17.9642 33.9398 17.8733 34.3032 17.8733 34.688C17.8733 35.0729 17.9642 35.4363 18.1459 35.7677C18.3276 36.0991 18.5682 36.361 18.8728 36.5534C19.1775 36.7458 19.4982 36.8367 19.8403 36.8367C20.1823 36.8367 20.519 36.7405 20.8718 36.5427C21.1444 36.3877 21.3903 36.1525 21.5987 35.8425Z" fill="white"/>
<path d="M24.4529 32.4003L26.5533 36.9808H25.725L25.276 36.0027H22.7211L22.2509 36.9808H22.037L23.9291 33.0577L24.3513 32.1758L24.4529 32.4003ZM22.812 35.8103H25.1905L24.0306 33.2822L22.812 35.8103Z" fill="white"/>
<path d="M31.3851 32.3842H31.5883V36.9755H31.4279C31.4279 36.9755 31.4172 36.9434 31.4065 36.9167C31.3958 36.8899 31.3691 36.8365 31.3264 36.7563C31.2836 36.6761 31.2301 36.5906 31.1713 36.5051C31.1126 36.4196 31.027 36.3127 30.9148 36.1844C30.8026 36.0561 30.6797 35.9332 30.5407 35.8049C30.4017 35.682 30.2307 35.5484 30.0169 35.3987C29.8031 35.2491 29.5786 35.1101 29.3328 34.9711C28.2745 34.4046 27.569 33.8915 27.2162 33.4425V36.9487H27.0131V32.3842H27.3445C27.6919 32.9936 28.3813 33.5868 29.4182 34.1641C30.4177 34.7253 31.0751 35.2491 31.3851 35.7301V32.3789V32.3842Z" fill="white"/>
<path d="M36.131 32.6781C36.4945 32.8866 36.7617 33.1698 36.9435 33.5172C37.1252 33.87 37.2161 34.2602 37.2161 34.6878C37.2161 35.1154 37.1252 35.5002 36.9381 35.8476C36.751 36.2003 36.4784 36.4783 36.1203 36.6867C35.7622 36.8952 35.3294 37.0021 34.8323 37.0021C34.3352 37.0021 33.8969 36.9005 33.5387 36.6921C33.1806 36.4836 32.9081 36.2057 32.7263 35.8529C32.5446 35.5002 32.4537 35.1153 32.4537 34.6824C32.4537 34.2495 32.5446 33.8647 32.7263 33.5119C32.9081 33.1591 33.1753 32.8812 33.5387 32.6728C33.8969 32.4643 34.3299 32.3574 34.8323 32.3574C35.3347 32.3574 35.7676 32.4643 36.131 32.6728V32.6781ZM35.7569 36.5157C36.0081 36.3286 36.2058 36.0721 36.3341 35.7567C36.4677 35.4414 36.5319 35.0833 36.5319 34.6931C36.5319 34.3029 36.4677 33.9448 36.3341 33.6295C36.2005 33.3141 36.0081 33.0576 35.7569 32.8652C35.5057 32.6728 35.1956 32.5766 34.8375 32.5766C34.4794 32.5766 34.1694 32.6728 33.9129 32.8652C33.6563 33.0576 33.464 33.3141 33.3357 33.6295C33.2074 33.9448 33.1379 34.3029 33.1379 34.6931C33.1379 35.0833 33.2021 35.4414 33.3357 35.7567C33.464 36.0721 33.6563 36.3286 33.9129 36.5157C34.1694 36.7081 34.4741 36.799 34.8375 36.799C35.201 36.799 35.5057 36.7028 35.7569 36.5157Z" fill="white"/>
<path d="M41.3692 32.6088C41.6257 32.7584 41.8288 32.9615 41.9838 33.2234C42.1334 33.48 42.2082 33.7633 42.2082 34.0679C42.2082 34.3726 42.1334 34.6505 41.9891 34.9071C41.8395 35.1636 41.6416 35.3667 41.3851 35.5217C41.1339 35.6767 40.8561 35.7515 40.5621 35.7515H38.8357V36.9809H38.082V32.3896H40.5247C40.8347 32.3896 41.118 32.4645 41.3745 32.6141L41.3692 32.6088ZM40.733 35.324C40.9522 35.185 41.1285 35.0086 41.2568 34.7895C41.3851 34.5703 41.4493 34.3298 41.4493 34.0679C41.4493 33.79 41.3905 33.5388 41.2782 33.3143C41.166 33.0898 40.9896 32.9134 40.7598 32.7852C40.53 32.6569 40.2574 32.5874 39.9367 32.5874H38.825V35.5377H40.0009C40.2681 35.5271 40.5086 35.4576 40.7277 35.3186L40.733 35.324Z" fill="white"/>
<path d="M46.6443 32.3838H46.9009L45.1264 34.9279V36.9803H44.3728V34.9226L42.5983 32.3891H43.5443L45.0944 34.634L46.6443 32.3891V32.3838Z" fill="white"/>
<path d="M9.16138 32.3838H9.91495V36.975H9.16138V34.4202H5.73526V36.975H4.98169V32.3838H5.73526V34.2384H9.16138V32.3838Z" fill="white"/>
<path d="M13.5922 40.68L13.8702 40.9633C13.9183 41.0114 13.9717 41.0541 14.0252 41.0862C14.0786 41.1236 14.1375 41.1504 14.2016 41.1717V41.2091H13.8489C13.6672 41.2091 13.5121 41.145 13.3838 41.0167L13.0898 40.7335C12.9883 40.6319 12.8654 40.5785 12.7211 40.5785H12.4699V41.2091H12.0851V38.8574H13.3357C13.5281 38.8574 13.7045 38.9162 13.8595 39.0285C13.9236 39.0766 13.9824 39.13 14.0305 39.1941C14.1481 39.3491 14.2016 39.5255 14.2016 39.7179C14.2016 39.8729 14.1642 40.0172 14.0894 40.1509C14.0146 40.2845 13.9076 40.386 13.7793 40.4662C13.7099 40.509 13.6351 40.541 13.5549 40.5571C13.5549 40.5571 13.5281 40.5624 13.4907 40.5731C13.4747 40.5731 13.464 40.5731 13.4586 40.5785C13.5067 40.6052 13.5548 40.6426 13.5922 40.6853V40.68ZM13.3144 40.4235C13.3625 40.4074 13.4053 40.386 13.4427 40.3647C13.5549 40.2952 13.6458 40.2043 13.7099 40.0921C13.7741 39.9798 13.8061 39.8569 13.8061 39.7233C13.8061 39.579 13.7741 39.4507 13.7206 39.3385C13.6618 39.2262 13.5762 39.1354 13.4586 39.0659C13.341 39.0017 13.2022 38.9643 13.0365 38.9643H12.4645V40.4769H13.0684C13.154 40.4769 13.2342 40.4555 13.3144 40.4235Z" fill="white"/>
<path d="M16.441 38.9483H15.0247V39.8034H15.8425V39.8996H15.0247V41.1076H16.441V41.2038H14.6345V38.8521H16.441V38.9483Z" fill="white"/>
<path d="M18.7124 40.2741C18.7926 40.365 18.83 40.4772 18.8193 40.6055C18.8086 40.7177 18.7605 40.8246 18.675 40.9208C18.5894 41.017 18.4666 41.0919 18.3169 41.1507C18.1672 41.2094 18.0016 41.2362 17.8145 41.2362C17.5954 41.2362 17.4244 41.2094 17.3014 41.156C17.1892 41.1079 17.1037 41.0491 17.0395 40.985C16.9754 40.9155 16.9219 40.8353 16.8845 40.7391H17.0128C17.0128 40.7391 17.0181 40.7498 17.0235 40.7605C17.0288 40.7712 17.0396 40.7926 17.0609 40.8193C17.0823 40.846 17.1036 40.8727 17.125 40.8994C17.1464 40.9262 17.1838 40.9529 17.2212 40.985C17.2639 41.017 17.3067 41.0384 17.3548 41.0598C17.4724 41.1132 17.6275 41.14 17.8199 41.14C18.0283 41.14 18.1993 41.1026 18.3276 41.0224C18.3971 40.9796 18.4452 40.9369 18.4773 40.8941C18.5093 40.846 18.5308 40.7926 18.5308 40.7231C18.5308 40.6482 18.5093 40.5841 18.4452 40.5253C18.3864 40.4665 18.3116 40.4184 18.2154 40.381C18.1245 40.3436 17.9963 40.2955 17.8306 40.2367C17.6328 40.1672 17.4724 40.1031 17.3495 40.0443C17.2212 39.9855 17.1144 39.9107 17.0288 39.8198C16.9433 39.7236 16.8952 39.606 16.8952 39.4724C16.8952 39.3495 16.9326 39.2372 17.0128 39.141C17.093 39.0394 17.2051 38.9646 17.3495 38.9058C17.4938 38.847 17.6595 38.8203 17.8466 38.8203C18.0123 38.8203 18.1565 38.8524 18.2848 38.9112C18.3382 38.9379 18.3864 38.97 18.4345 39.002C18.4772 39.0395 18.5146 39.0715 18.536 39.1036C18.5574 39.1357 18.5788 39.1624 18.5948 39.1891C18.6109 39.2158 18.6216 39.2372 18.6216 39.2532V39.2746H18.5094C18.4666 39.1891 18.4078 39.125 18.3383 39.0769C18.194 38.9807 18.023 38.9326 17.8252 38.9326C17.6275 38.9326 17.4831 38.9807 17.3655 39.0715C17.3067 39.1196 17.2586 39.1677 17.2319 39.2105C17.2052 39.2586 17.1892 39.312 17.1892 39.3762C17.1892 39.451 17.2159 39.5205 17.28 39.5739C17.3442 39.6327 17.419 39.6755 17.5152 39.7182C17.606 39.761 17.7343 39.8038 17.9 39.8626C18.1031 39.932 18.2689 39.9908 18.3971 40.0496C18.5201 40.1084 18.6269 40.1832 18.7124 40.2741Z" fill="white"/>
<path d="M19.6534 41.2096H19.2686V38.8579H19.6534V41.2096Z" fill="white"/>
<path d="M21.9034 39.0129C22.0958 39.1198 22.2401 39.2588 22.3417 39.4405C22.4379 39.6222 22.4914 39.82 22.4914 40.0338C22.4914 40.2476 22.4433 40.44 22.3417 40.6217C22.2401 40.7981 22.0958 40.9424 21.898 41.0493C21.7056 41.1562 21.4758 41.2096 21.2085 41.2096H20.0916V38.8579H21.2085C21.4811 38.8579 21.711 38.9114 21.9034 39.0183V39.0129ZM21.6843 40.9691C21.8233 40.8729 21.9302 40.7446 21.9997 40.5789C22.0745 40.4133 22.1066 40.2315 22.1066 40.0338C22.1066 39.836 22.0692 39.6543 21.9997 39.4939C21.9302 39.3336 21.8233 39.2 21.6843 39.1038C21.5453 39.0076 21.3743 38.9595 21.1766 38.9541H20.4764V41.1134H21.1712C21.369 41.1134 21.54 41.0653 21.6789 40.9691H21.6843Z" fill="white"/>
<path d="M24.7359 38.9483H23.3196V39.8034H24.1374V39.8996H23.3196V41.1076H24.7359V41.2038H22.9294V38.8521H24.7359V38.9483Z" fill="white"/>
<path d="M27.414 38.8579H27.5209V41.2096H27.4408L25.2868 39.3871V41.1989H25.1799V38.8579H25.3509L26.4146 39.7719L27.4194 40.5896V38.8579H27.414Z" fill="white"/>
<path d="M30.247 40.6269L30.3378 40.6963C30.2202 40.8674 30.0653 41.001 29.8782 41.0972C29.6911 41.1988 29.488 41.2469 29.2635 41.2469C29.0283 41.2469 28.8092 41.1934 28.6114 41.0865C28.4137 40.9796 28.2534 40.83 28.1358 40.6429C28.0182 40.4558 27.9647 40.2527 27.9647 40.0336C27.9647 39.8145 28.0236 39.6113 28.1358 39.4243C28.2534 39.2372 28.4083 39.0876 28.6114 38.9807C28.8092 38.8738 29.0283 38.8203 29.2635 38.8203C29.4826 38.8203 29.6858 38.8684 29.8729 38.9593C30.0599 39.0555 30.2095 39.1838 30.3164 39.3441L30.2202 39.4029C30.108 39.2532 29.9904 39.1463 29.8622 39.0715C29.6858 38.9753 29.5148 38.9272 29.3491 38.9272C29.1727 38.9272 29.0069 38.9753 28.8519 39.0715C28.6969 39.1677 28.574 39.3013 28.4832 39.4724C28.3923 39.6434 28.3442 39.8251 28.3442 40.0229C28.3442 40.2207 28.3923 40.4024 28.4832 40.5734C28.574 40.7444 28.7023 40.8781 28.8519 40.9743C29.0069 41.0705 29.1727 41.1186 29.3491 41.1186C29.5255 41.1186 29.6965 41.0705 29.8782 40.9689C30.0172 40.8888 30.1401 40.7712 30.2523 40.6108L30.247 40.6269Z" fill="white"/>
<path d="M32.4434 38.9483H31.0271V39.8034H31.8449V39.8996H31.0271V41.1076H32.4434V41.2038H30.637V38.8521H32.4434V38.9483Z" fill="white"/>
<path d="M34.7148 40.2741C34.795 40.365 34.8325 40.4772 34.8219 40.6055C34.8112 40.7177 34.763 40.8246 34.6775 40.9208C34.5867 41.017 34.469 41.0919 34.3193 41.1507C34.1697 41.2094 34.004 41.2362 33.817 41.2362C33.5978 41.2362 33.4268 41.2094 33.3039 41.156C33.1916 41.1079 33.1061 41.0491 33.042 40.985C32.9778 40.9155 32.9244 40.8353 32.887 40.7391H33.0152C33.0152 40.7391 33.0206 40.7498 33.0259 40.7605C33.0259 40.7712 33.042 40.7926 33.0634 40.8193C33.0848 40.846 33.1061 40.8727 33.1275 40.8994C33.1488 40.9262 33.1863 40.9529 33.2238 40.985C33.2665 41.017 33.3093 41.0384 33.3574 41.0598C33.475 41.1132 33.6299 41.14 33.8223 41.14C34.0308 41.14 34.2018 41.1026 34.33 41.0224C34.3995 40.9796 34.4476 40.9369 34.4797 40.8941C34.5118 40.846 34.5332 40.7926 34.5332 40.7231C34.5332 40.6482 34.5117 40.5841 34.4476 40.5253C34.3888 40.4665 34.314 40.4184 34.2178 40.381C34.127 40.3436 33.9987 40.2955 33.833 40.2367C33.6352 40.1672 33.475 40.1031 33.352 40.0443C33.2237 39.9855 33.1168 39.9107 33.0313 39.8198C32.9404 39.7236 32.8977 39.606 32.8977 39.4724C32.8977 39.3495 32.9351 39.2372 33.0152 39.141C33.0954 39.0394 33.2077 38.9646 33.352 38.9058C33.4963 38.847 33.662 38.8203 33.8491 38.8203C34.0147 38.8203 34.1591 38.8524 34.2874 38.9112C34.3408 38.9379 34.3888 38.97 34.4369 39.002C34.4797 39.0395 34.5172 39.0715 34.5386 39.1036C34.5599 39.1357 34.5812 39.1624 34.5973 39.1891C34.6133 39.2158 34.624 39.2372 34.624 39.2532V39.2746H34.5118C34.4691 39.1891 34.4102 39.125 34.3407 39.0769C34.1964 38.9807 34.0254 38.9326 33.8277 38.9326C33.6299 38.9326 33.4855 38.9807 33.3679 39.0715C33.3092 39.1196 33.261 39.1677 33.2343 39.2105C33.2076 39.2586 33.1917 39.312 33.1917 39.3762C33.1917 39.451 33.2183 39.5205 33.2825 39.5739C33.3466 39.6327 33.4214 39.6755 33.5176 39.7182C33.6085 39.761 33.7367 39.8038 33.9024 39.8626C34.1055 39.932 34.2713 39.9908 34.3996 40.0496C34.5225 40.1084 34.6293 40.1832 34.7148 40.2741Z" fill="white"/>
</svg>
