<svg width="45" height="48" viewBox="0 0 45 48" fill="none" xmlns="http://www.w3.org/2000/svg">
<path d="M22.7364 7.03176C24.4653 6.02131 26.2633 5.11602 28.0767 4.2193C28.0607 4.16043 28.0653 4.17701 28.0493 4.11814C27.0194 4.27874 26.0015 4.50392 24.9905 4.76568C22.5129 5.41778 20.0805 6.31222 17.7944 7.54385C19.3644 6.03446 21.2036 4.83426 23.0324 3.73636C25.3928 2.35385 27.8464 1.14793 30.3531 0.11119C30.3788 0.100331 30.3925 0.0700406 30.3851 0.0414645C30.3777 0.0134598 30.3514 -0.0042569 30.3251 0.000886808C28.8025 0.29465 27.3 0.699288 25.8141 1.17194C21.3299 2.66076 12.8599 5.72241 11.8215 11.3559C10.979 17.7581 20.4109 20.9495 24.9762 21.7456C25.0322 21.7576 25.0534 21.6593 24.9991 21.6439C23.5405 21.0518 22.1083 20.406 20.7218 19.6853C18.1585 18.2576 15.3089 16.6442 14.2178 13.6254C12.5513 9.01495 18.6014 5.61039 21.7842 3.84667C23.3211 3.03225 24.9008 2.30012 26.5067 1.62287C25.2848 2.18811 24.0795 2.79564 22.8941 3.44832C20.5566 4.77139 18.2357 6.21506 16.3731 8.28626C16.2702 8.40113 16.2628 8.58174 16.3571 8.70461C16.4462 8.82063 16.6 8.84692 16.7188 8.76805C19.2941 7.05805 22.1357 5.85043 25.0414 4.97543C25.298 4.89941 25.5552 4.82569 25.8129 4.75482C21.6071 6.11104 14.2596 9.1544 15.382 13.3471C16.3359 16.5893 20.8841 18.2073 23.6983 18.8309C23.752 18.8451 23.7777 18.7531 23.728 18.7314C21.427 17.3358 15.3443 13.9089 18.0733 10.5861C19.3244 9.09611 21.087 8.01307 22.7375 7.03291L22.7364 7.03176Z" fill="url(#paint0_linear_79_10719)"/>
<path d="M22.0302 27.7613C20.3014 28.7717 18.5034 29.677 16.6899 30.5737C16.7059 30.6326 16.7013 30.616 16.7173 30.6749C17.7472 30.5143 18.7651 30.2891 19.7761 30.0274C22.2537 29.3752 24.6861 28.4808 26.9722 27.2492C25.4022 28.7586 23.563 29.9588 21.7342 31.0567C19.3738 32.4392 16.9202 33.6451 14.4135 34.6818C14.3878 34.6927 14.3741 34.723 14.3815 34.7516C14.389 34.7796 14.4152 34.7973 14.4415 34.7921C15.9641 34.4984 17.4666 34.0937 18.9526 33.6211C23.4367 32.1323 31.9067 29.0706 32.9452 23.4371C33.7876 17.0349 24.3557 13.8435 19.7904 13.0474C19.7344 13.0354 19.7133 13.1337 19.7676 13.1491C21.2261 13.7412 22.6583 14.3871 24.0448 15.1077C26.6081 16.5354 29.4577 18.1488 30.5488 21.1676C32.2153 25.7781 26.1652 29.1826 22.9824 30.9464C21.4456 31.7608 19.8659 32.4929 18.2599 33.1702C19.4818 32.6049 20.6871 31.9974 21.8725 31.3447C24.21 30.0216 26.531 28.578 28.3936 26.5068C28.4964 26.3919 28.5039 26.2113 28.4096 26.0884C28.3204 25.9724 28.1667 25.9461 28.0478 26.025C25.4725 27.735 22.6309 28.9426 19.7253 29.8176C19.4687 29.8936 19.2115 29.9673 18.9537 30.0382C23.1596 28.682 30.5071 25.6386 29.3846 21.4459C28.4307 18.2037 23.8825 16.5857 21.0683 15.9622C21.0146 15.9479 20.9889 16.0399 21.0386 16.0616C23.3396 17.4573 29.4223 20.8841 26.6933 24.207C25.4422 25.6969 23.6796 26.78 22.0291 27.7601L22.0302 27.7613Z" fill="url(#paint1_linear_79_10719)"/>
<path d="M1.24935 46.344C0.442359 45.8016 0.0297193 44.9866 0.0108591 43.8979H1.79173C1.82602 44.3048 1.96661 44.6266 2.21408 44.8626C2.46155 45.0986 2.80961 45.2649 3.25883 45.3621C3.70804 45.4593 4.28071 45.5078 4.97682 45.5078C6.08786 45.5078 6.90629 45.4393 7.43152 45.3027C7.95675 45.1655 8.21907 44.9563 8.21907 44.6746C8.21907 44.5111 8.07162 44.3757 7.77672 44.2694C7.48181 44.1631 7.08403 44.0756 6.58395 44.007C6.08386 43.9384 5.40889 43.8641 4.56075 43.7841C3.57488 43.6967 2.75417 43.5681 2.09806 43.3989C1.44138 43.2292 0.927582 42.9794 0.556664 42.6485C0.185745 42.3176 0 41.8798 0 41.3357C0 40.4796 0.417783 39.8515 1.25278 39.452C2.08777 39.0525 3.35427 38.853 5.05112 38.853C6.74797 38.853 7.96589 39.1251 8.77288 39.6692C9.57987 40.2133 9.99251 41.026 10.0114 42.1067H8.23051C8.19621 41.6998 8.05619 41.3792 7.81101 41.1448C7.56525 40.9105 7.21719 40.7453 6.76626 40.6482C6.31533 40.551 5.74381 40.5024 5.05112 40.5024C3.93265 40.5024 3.11137 40.5699 2.58843 40.7053C2.06548 40.8402 1.80373 41.0505 1.80373 41.3363C1.80373 41.4843 1.93232 41.6095 2.18893 41.7101C2.44612 41.8107 2.79532 41.8947 3.23654 41.961C3.67832 42.0278 4.24299 42.0953 4.93167 42.1639C5.98956 42.2479 6.88571 42.3753 7.62012 42.5462C8.35452 42.7177 8.93977 42.9743 9.37527 43.3166C9.81077 43.659 10.0291 44.1122 10.0291 44.6751C10.0291 45.5313 9.61131 46.1594 8.77631 46.5589C7.94074 46.9584 6.67482 47.1584 4.9774 47.1584C3.27997 47.1584 2.05691 46.8869 1.24992 46.3451L1.24935 46.344Z" fill="white"/>
<path d="M15.0426 42.8143L21.1556 46.9013H17.9191L13.5927 44.0077V46.9013H11.7546V39.1611H13.5927V41.6667L17.5825 39.1611H20.6647L15.042 42.8143H15.0426Z" fill="white"/>
<path d="M27.7141 44.7373V46.9005H25.9047V44.7373L21.1559 39.1489H23.4963L26.8128 43.0816L30.1174 39.1489H32.4692L27.7147 44.7373H27.7141Z" fill="white"/>
<path d="M43.0151 39.1548H44.7673V46.9006H42.9465V42.7965L40.6518 46.9006H39.1733L36.8786 42.7965V46.9006H35.0577V39.1548H36.81L39.9151 44.714L43.0145 39.1548H43.0151Z" fill="white"/>
<defs>
<linearGradient id="paint0_linear_79_10719" x1="22.7661" y1="-1.78055" x2="18.2065" y2="18.7371" gradientUnits="userSpaceOnUse">
<stop stop-color="#C3A979"/>
<stop offset="0.06" stop-color="#CEB78A"/>
<stop offset="0.18" stop-color="#ECDCB6"/>
<stop offset="0.19" stop-color="#EFE0BB"/>
<stop offset="0.41" stop-color="#AD9264"/>
<stop offset="0.73" stop-color="#F5E2AC"/>
<stop offset="0.95" stop-color="#AC9365"/>
</linearGradient>
<linearGradient id="paint1_linear_79_10719" x1="27.1814" y1="14.5671" x2="22.0857" y2="35.6208" gradientUnits="userSpaceOnUse">
<stop stop-color="#C3A979"/>
<stop offset="0.06" stop-color="#CEB78A"/>
<stop offset="0.18" stop-color="#ECDCB6"/>
<stop offset="0.19" stop-color="#EFE0BB"/>
<stop offset="0.41" stop-color="#AD9264"/>
<stop offset="0.73" stop-color="#F5E2AC"/>
<stop offset="0.95" stop-color="#AC9365"/>
</linearGradient>
</defs>
</svg>
