<svg width="44" height="44" viewBox="0 0 44 44" fill="none" xmlns="http://www.w3.org/2000/svg">
<path d="M41.6922 28.3625H40.3872V27.2812H35.0808C34.7925 27.2812 34.5591 27.5147 34.5591 27.8029V27.84C34.5591 28.1282 34.3257 28.3616 34.0375 28.3616H9.31768C9.02946 28.3616 8.79605 28.1282 8.79605 27.84V27.8029C8.79605 27.5147 8.56264 27.2812 8.27442 27.2812H3.11296V28.3625H1.60201C0.717016 28.3625 0 29.0795 0 29.9645H43.2942C43.2942 29.0795 42.5772 28.3625 41.6922 28.3625Z" fill="white"/>
<path d="M12.4014 1.3023H9.31762C9.0294 1.3023 8.796 1.06889 8.796 0.780673V0.521627C8.796 0.233406 8.56259 0 8.27437 0H3.11291L3.10938 2.90608H12.4023V1.3023H12.4014Z" fill="white"/>
<path d="M9.31762 5.77261C9.0294 5.77261 8.796 5.53921 8.796 5.25098V5.20766C8.796 4.91944 8.56259 4.68604 8.27437 4.68604H3.11291L3.10938 7.30478H13.9115V5.77261H9.31762Z" fill="white"/>
<path d="M9.31762 10.3129C9.0294 10.3129 8.796 10.0795 8.796 9.7913V9.71792C8.796 9.4297 8.56259 9.19629 8.27437 9.19629H3.11291L3.10938 11.8672H15.0414V11.068V10.3129H9.31762Z" fill="white"/>
<path d="M9.31762 14.8522C9.0294 14.8522 8.796 14.6188 8.796 14.3306V14.2033C8.796 13.915 8.56259 13.6816 8.27437 13.6816H3.11291L3.10938 16.4286H16.2279V14.8522H9.31762Z" fill="white"/>
<path d="M9.31762 23.9324C9.0294 23.9324 8.796 23.699 8.796 23.4108C8.796 23.1226 8.56259 22.8892 8.27437 22.8892H3.11291L3.10938 25.515H19.576V24.6874H19.5769V23.9324H9.31762Z" fill="white"/>
<path d="M9.31781 19.392C9.02959 19.392 8.79618 19.1586 8.79618 18.8704V18.5963C8.79618 18.3081 8.56277 18.0747 8.27455 18.0747H3.1131L3.11133 20.9905H17.7894V19.3929H9.31781V19.392Z" fill="white"/>
<path d="M31.0955 1.3023H34.1792C34.4675 1.3023 34.7009 1.06889 34.7009 0.780673V0.521627C34.7009 0.233406 34.9343 0 35.2225 0H40.384L40.3875 2.90608H37.6185H31.0955V2.06264V1.3023Z" fill="white"/>
<path d="M34.1791 5.77261C34.4673 5.77261 34.7007 5.53921 34.7007 5.25098V5.20766C34.7007 4.91944 34.9341 4.68604 35.2223 4.68604H40.3838L40.3873 7.30478H37.6183H29.5852V5.77261H34.1791Z" fill="white"/>
<path d="M34.1791 10.3129C34.4673 10.3129 34.7007 10.0795 34.7007 9.7913V9.71792C34.7007 9.4297 34.9341 9.19629 35.2223 9.19629H40.3838L40.3873 11.8672H28.4553V11.068V10.3129H34.1791Z" fill="white"/>
<path d="M34.179 14.8522C34.4673 14.8522 34.7007 14.6188 34.7007 14.3306V14.2033C34.7007 13.915 34.9341 13.6816 35.2223 13.6816H40.3837L40.3873 16.4286H27.2688V14.8522H34.179Z" fill="white"/>
<path d="M34.1789 23.9324C34.4672 23.9324 34.7006 23.699 34.7006 23.4108C34.7006 23.1226 34.934 22.8892 35.2222 22.8892H40.3836L40.3872 25.515H23.9206V24.6874H23.9197V23.9324H34.1789Z" fill="white"/>
<path d="M34.1791 19.392C34.4673 19.392 34.7007 19.1586 34.7007 18.8704V18.5963C34.7007 18.3081 34.9341 18.0747 35.2224 18.0747H40.3838L40.3856 20.9905H25.7075V19.3929H34.1791V19.392Z" fill="white"/>
<path d="M12.0255 38.989C12.0255 37.5072 10.9486 37.0625 9.55436 37.0625H6.9082V43.8401H8.38467V40.9544H9.35897L10.6409 43.8401H12.2615L10.8054 40.7802C11.5445 40.5185 12.0263 39.996 12.0263 38.989H12.0255ZM10.4155 39.1826C10.4155 39.9668 10.0875 40.2674 9.55436 40.2674H8.38556V37.7503H9.55436C10.0875 37.7503 10.4155 38.0218 10.4155 38.7962V39.1835V39.1826Z" fill="white"/>
<path d="M14.9838 37.0625H13.5073V43.8401H14.9838V37.0625Z" fill="white"/>
<path d="M29.8953 40.2674C30.5513 40.0641 30.9722 39.6476 30.9722 38.8051C30.9722 37.4595 29.9059 37.0625 28.5621 37.0625H26.1626V43.8401H28.8087C30.203 43.8401 31.2798 43.4237 31.2798 42.0003C31.2798 40.9933 30.7565 40.4902 29.8953 40.2674ZM27.6391 37.7495H28.5621C29.0961 37.7495 29.4338 38.0306 29.4338 38.5726V39.1729C29.4338 39.7148 29.0952 39.9474 28.5621 39.9474H27.6391V37.7495ZM29.6699 42.262C29.6699 42.8817 29.3419 43.1532 28.8087 43.1532H27.64V40.6361H28.8087C29.3419 40.6361 29.6699 40.9553 29.6699 41.575V42.2629V42.262Z" fill="white"/>
<path d="M40.8123 39.8315L39.182 37.0625H37.5208L39.6638 40.7607V43.8401H41.1403V40.7802L43.294 37.0625H42.4435L40.8123 39.8315Z" fill="white"/>
<path d="M2.4711 37.0625L0 43.8401H0.820458L1.27136 42.5723H3.19077C3.19077 42.1921 2.86453 41.8845 2.46226 41.8845H1.52775L2.51265 39.1446L3.50728 41.8845L3.75306 42.5723L4.21457 43.8401H5.77326L3.28183 37.0625H2.47198H2.4711Z" fill="white"/>
<path d="M18.5734 37.0625L16.1023 43.8401H16.9228L17.3737 42.5723H19.2931C19.2931 42.1921 18.9668 41.8845 18.5646 41.8845H17.63L18.6149 39.1446L19.6096 41.8845L19.8554 42.5723L20.3169 43.8401H21.8756L19.3841 37.0625H18.5743H18.5734Z" fill="white"/>
<path d="M34.5377 37.0625L32.0667 43.8401H32.8871L33.338 42.5723H35.2574C35.2574 42.1921 34.9312 41.8845 34.5289 41.8845H33.5944L34.5793 39.1446L35.5739 41.8845L35.8197 42.5723L36.2812 43.8401H37.8399L35.3485 37.0625H34.5386H34.5377Z" fill="white"/>
</svg>
