<svg width="61" height="41" viewBox="0 0 61 41" fill="none" xmlns="http://www.w3.org/2000/svg">
<path d="M18.9439 22.4174L18.0074 19.812H18.3281L19.1033 22.0277L19.8804 19.812H20.1854L19.2489 22.4174H18.9439Z" fill="white"/>
<path d="M21.3678 22.4174V19.812H21.655V22.4174H21.3678Z" fill="white"/>
<path d="M23.1091 22.4174V19.812H23.3885L24.7322 21.9347V19.812H25.0057V22.4174H24.7263L23.3806 20.2927V22.4174H23.1091Z" fill="white"/>
<path d="M26.4594 22.4174V19.812H26.7466V20.9396H28.0707V19.812H28.3599V22.4174H28.0707V21.2166H26.7466V22.4174H26.4594Z" fill="white"/>
<path d="M30.0225 20.1603C30.2842 19.8971 30.6049 19.7686 30.9846 19.7686C31.3643 19.7686 31.6889 19.8971 31.9506 20.1603C32.2122 20.4214 32.3401 20.7379 32.3401 21.1138C32.3401 21.4896 32.2122 21.8101 31.9506 22.0732C31.6869 22.3344 31.3682 22.4629 30.9846 22.4629C30.6009 22.4629 30.2802 22.3344 30.0186 22.0732C29.7589 21.8101 29.631 21.4916 29.631 21.1138C29.631 20.7359 29.7589 20.4214 30.0225 20.1603ZM31.7342 20.3581C31.5295 20.1504 31.2797 20.0475 30.9846 20.0475C30.6895 20.0475 30.4396 20.1504 30.2369 20.3581C30.0343 20.5618 29.9359 20.8131 29.9359 21.1138C29.9359 21.4145 30.0343 21.6697 30.2369 21.8774C30.4396 22.0831 30.6855 22.186 30.9846 22.186C31.2836 22.186 31.5295 22.0831 31.7342 21.8774C31.9368 21.6697 32.0391 21.4145 32.0391 21.1138C32.0391 20.8131 31.9368 20.5658 31.7342 20.3581Z" fill="white"/>
<path d="M33.6151 22.4174V19.812H33.9614L34.949 21.9386L35.9367 19.812H36.2731V22.4174H35.9918V20.3125L35.0041 22.4213H34.8821L33.8945 20.3006V22.4174H33.6151Z" fill="white"/>
<path d="M37.7247 22.4174V19.812H39.279V20.0791H38.01V20.9614H39.1905V21.2166H38.01V22.1503H39.2967V22.4174H37.7228H37.7247Z" fill="white"/>
<path d="M42.2264 20.5802H41.9313C41.9018 20.2201 41.6893 20.0282 41.3234 20.0282C40.9988 20.0282 40.7765 20.1944 40.7765 20.4476C40.7765 20.6692 40.8768 20.7918 41.2467 20.8967L41.5733 20.9877C42.1005 21.136 42.2776 21.3359 42.2776 21.688C42.2776 21.9293 42.195 22.1173 42.0336 22.2557C41.8762 22.3942 41.6579 22.4635 41.3883 22.4635C40.7883 22.4635 40.4302 22.143 40.4105 21.5772H40.7037C40.7214 21.9808 40.9653 22.2023 41.3824 22.2023C41.7621 22.2023 41.9825 22.0223 41.9825 21.7058C41.9825 21.595 41.9451 21.506 41.8743 21.4348C41.8054 21.3655 41.6598 21.3022 41.4474 21.2389L41.1758 21.1598C40.9122 21.0866 40.7332 20.9936 40.6328 20.8848C40.5345 20.776 40.4853 20.6336 40.4853 20.4595C40.4853 20.2557 40.564 20.0895 40.7214 19.959C40.8807 19.8284 41.0834 19.7671 41.3254 19.7671C41.8605 19.7671 42.191 20.0599 42.2245 20.5782L42.2264 20.5802Z" fill="white"/>
<path d="M22.4067 9.9209V14.5579C21.9385 14.8072 21.545 15.0584 21.2164 15.2939V11.5371C21.6079 10.9852 22.0054 10.4451 22.4067 9.92288V9.9209Z" fill="#B69D6E"/>
<path d="M24.7875 8.96143V13.5826C24.3586 13.7112 23.9631 13.8556 23.5972 14.004V10.4036C23.9887 9.90901 24.3861 9.4283 24.7875 8.96143Z" fill="#B69D6E"/>
<path d="M27.1679 8.3501V13.0524C26.7509 13.1138 26.3554 13.187 25.9777 13.27V9.61619C26.3731 9.17899 26.7686 8.75762 27.1679 8.3501Z" fill="#B69D6E"/>
<path d="M29.5483 8.08887V12.8505C29.1352 12.8604 28.7397 12.8822 28.358 12.9158V9.18087C28.7535 8.80104 29.1509 8.43902 29.5483 8.08887Z" fill="#B69D6E"/>
<path d="M31.9271 8.17578V12.9157C31.5454 12.884 31.15 12.8623 30.7368 12.8504V9.09369C31.1342 8.77322 31.5317 8.46856 31.9271 8.17578Z" fill="#B69D6E"/>
<path d="M34.3056 8.61279V13.2716C33.9279 13.1885 33.5324 13.1153 33.1154 13.054V9.35464C33.5147 9.09351 33.9122 8.84425 34.3056 8.61279Z" fill="#B69D6E"/>
<path d="M36.6861 9.39648V14.0039C36.3202 13.8555 35.9247 13.7131 35.4958 13.5825V9.96622C35.8972 9.76246 36.2927 9.57255 36.6861 9.39846V9.39648Z" fill="#B69D6E"/>
<path d="M39.0669 10.5322V15.2939C38.7383 15.0605 38.3448 14.8092 37.8766 14.558V10.9259C38.2799 10.7795 38.6754 10.6489 39.0669 10.5322Z" fill="#B69D6E"/>
<path d="M29.5465 1.00298L30.7368 0V9.0921L29.5465 8.08912V1.00298Z" fill="#B69D6E"/>
<path d="M31.927 3.01074L33.1173 4.0157V9.35503L31.927 8.17599V3.01074Z" fill="#B69D6E"/>
<path d="M28.3583 3.01074L27.168 4.0157V8.35007L28.3583 9.18094V3.01074Z" fill="#B69D6E"/>
<path d="M34.3077 5.02002L35.4961 6.023V9.96568L34.3077 8.61255V5.02002Z" fill="#B69D6E"/>
<path d="M25.9775 5.02002L24.7872 6.023V8.96072L25.9775 9.61552V5.02002Z" fill="#B69D6E"/>
<path d="M37.8766 4.01514L36.6863 5.02009V9.39799L37.8766 10.9252V4.01514Z" fill="#B69D6E"/>
<path d="M22.4087 4.01514L23.597 5.02009V10.4029L22.4087 9.92025V4.01514Z" fill="#B69D6E"/>
<path d="M40.2573 2.00781V16.3265C40.096 16.1484 39.7123 15.7548 39.067 15.2938V3.01277L40.2573 2.00979V2.00781Z" fill="#B69D6E"/>
<path d="M21.2186 3.01277V15.2958C20.5772 15.7548 20.1936 16.1465 20.0303 16.3265V2.00781L21.2186 3.01079V3.01277Z" fill="#B69D6E"/>
<path d="M21.3779 16.3284C23.0778 15.1374 25.5134 14.3283 28.3091 14.0811V14.6429C25.6492 14.8447 23.2785 15.452 21.3779 16.3284Z" fill="#B69D6E"/>
<path d="M38.9076 16.3284C37.0071 15.452 34.5931 14.8229 31.9095 14.6429V14.0811C34.7269 14.3066 37.1862 15.1374 38.9076 16.3284Z" fill="#B69D6E"/>
<path d="M30.3394 14.1641C30.2371 13.6854 30.2075 13.3807 30.2016 13.2383H30.0856C30.0777 13.3807 30.0502 13.6873 29.9479 14.1641C29.4678 14.267 29.1668 14.2967 29.0271 14.3026V14.4193C29.1373 14.4252 29.4422 14.449 29.9479 14.5578C30.0502 15.0365 30.0797 15.3412 30.0856 15.4836H30.2016C30.2095 15.3412 30.2371 15.0345 30.3394 14.5578C30.845 14.449 31.1499 14.4252 31.2601 14.4193V14.3026C31.1204 14.2947 30.8194 14.267 30.3394 14.1641Z" fill="#B69D6E"/>
<path d="M4.468 31.8633C4.66474 32.1858 4.88706 32.6704 5.28842 32.8406V32.894H3.71055V32.8406C3.95057 32.714 3.80892 32.437 3.61218 32.0789L2.39041 29.8455C2.23105 29.8633 2.06972 29.8732 1.91036 29.8732H1.24144V32.2036C1.24144 32.4726 1.36539 32.7516 1.58967 32.8406V32.894H0V32.8406C0.222318 32.7516 0.338396 32.4726 0.338396 32.2036V27.0561C0.338396 26.7337 0.222318 26.5101 0 26.4191V26.3657H1.93397C3.41544 26.3657 4.71786 26.5279 4.71786 28.0532C4.71786 28.8682 4.09419 29.4063 3.25411 29.6773L4.468 31.8653V31.8633ZM1.85527 29.7466C2.89801 29.7466 3.74596 29.3153 3.74596 28.0433C3.74596 26.617 2.89014 26.4824 1.86511 26.4824H1.24144V29.7466H1.85724H1.85527Z" fill="white"/>
<path d="M5.61487 29.6207C5.61487 27.7196 6.99599 26.311 8.76273 26.311C10.5295 26.311 11.9106 27.6998 11.9106 29.6009C11.9106 31.502 10.5373 32.954 8.76273 32.954C6.98812 32.954 5.61487 31.5455 5.61487 29.6187V29.6207ZM10.9033 29.6128C10.9033 27.4881 9.96679 26.4396 8.76273 26.4396C7.55868 26.4396 6.63005 27.4881 6.63005 29.6128C6.63005 31.7374 7.56655 32.8334 8.76273 32.8334C9.95892 32.8334 10.8934 31.775 10.9033 29.6128Z" fill="white"/>
<path d="M16.3412 26.3657H17.6259V26.4191C17.2501 26.5438 16.9747 26.9295 16.8311 27.2164L15.1981 30.3737V32.2036C15.1981 32.4726 15.324 32.7516 15.5464 32.8406V32.894H13.8878V32.8406C14.1101 32.7516 14.2361 32.4726 14.2361 32.2036V30.4014L12.6306 27.2362C12.5047 26.977 12.3454 26.5992 11.9716 26.4211V26.3677H13.6655V26.4211C13.3448 26.5457 13.3625 26.7337 13.5848 27.1649L15.1273 30.1778L16.6697 27.1926C16.8212 26.9058 16.7937 26.609 16.3392 26.4211V26.3677L16.3412 26.3657Z" fill="white"/>
<path d="M22.1176 32.1146C22.2337 32.3836 22.3045 32.6348 22.635 32.8406V32.894H20.8427V32.8406C21.128 32.6882 21.3247 32.4904 21.1536 32.0789L20.6715 30.894H17.9506L17.5217 31.9622C17.3525 32.3836 17.567 32.6526 17.8876 32.8228V32.894H16.7013V32.8228C17.0948 32.6427 17.1558 32.3737 17.2718 32.1047L19.5914 26.3657H19.7075L22.1156 32.1146H22.1176ZM18.0136 30.7416H20.6086L19.3062 27.5052L18.0116 30.7416H18.0136Z" fill="white"/>
<path d="M27.3942 31.6833L27.1718 32.894H23.0599V32.8406C23.2823 32.7516 23.3983 32.4726 23.3983 32.2036V27.0561C23.3983 26.7871 23.2823 26.5101 23.0599 26.4191V26.3657H24.6378V26.4191C24.4155 26.5082 24.2994 26.7871 24.2994 27.0561V32.7773H25.6904C26.6544 32.7773 27.1266 32.2214 27.3489 31.6833H27.3942Z" fill="white"/>
<path d="M29.8868 32.894V32.8406C30.1092 32.7516 30.2252 32.4726 30.2252 32.2036V27.0561C30.2252 26.7871 30.1092 26.5101 29.8868 26.4191V26.3657H31.4745V26.4191C31.2522 26.5082 31.1263 26.7871 31.1263 27.0561V32.2036C31.1263 32.4726 31.2503 32.7516 31.4745 32.8406V32.894H29.8868Z" fill="white"/>
<path d="M32.285 32.3838L32.4896 31.4777H32.5251C32.9362 32.2314 33.6052 32.8328 34.4335 32.8328C35.3345 32.8328 35.8697 32.3739 35.8697 31.6221C35.8697 29.8021 32.5349 30.0613 32.5349 27.9999C32.5349 26.9594 33.4183 26.3145 34.6577 26.3145C35.4329 26.3145 36.0762 26.5558 36.5661 26.8881L36.3517 27.812H36.3084C35.9956 27.1394 35.4427 26.4411 34.6223 26.4411C33.8019 26.4411 33.2668 26.9238 33.2668 27.6162C33.2668 29.266 36.6468 28.997 36.6468 31.2047C36.6468 32.2888 35.791 32.9614 34.4354 32.9614C33.5698 32.9614 32.7946 32.7636 32.287 32.3877L32.285 32.3838Z" fill="white"/>
<path d="M41.9058 31.6833L41.6834 32.894H37.5715V32.8406C37.7939 32.7516 37.9099 32.4726 37.9099 32.2036V27.0561C37.9099 26.7871 37.7939 26.5101 37.5715 26.4191V26.3657H39.1494V26.4191C38.9271 26.5082 38.811 26.7871 38.811 27.0561V32.7773H40.202C41.166 32.7773 41.6382 32.2214 41.8605 31.6833H41.9058Z" fill="white"/>
<path d="M47.3065 32.1146C47.4226 32.3836 47.4934 32.6348 47.824 32.8406V32.894H46.0317V32.8406C46.3169 32.6882 46.5137 32.4904 46.3425 32.0789L45.8605 30.894H43.1396L42.7126 31.9622C42.5434 32.3836 42.7559 32.6526 43.0786 32.8228V32.894H41.8922V32.8228C42.2857 32.6427 42.3467 32.3737 42.4628 32.1047L44.7823 26.3657H44.8984L47.3065 32.1146ZM43.2045 30.7416H45.7995L44.4971 27.5052L43.2025 30.7416H43.2045Z" fill="white"/>
<path d="M52.7897 26.3657H53.6987V26.4191C53.4763 26.5893 53.315 26.8227 53.315 27.1551V32.894H53.1989L48.7388 27.3331V32.1047C48.7388 32.437 48.9001 32.6704 49.1323 32.8406V32.894H48.2135V32.8406C48.4535 32.6606 48.5971 32.437 48.5971 32.1047V27.3074C48.5971 26.7871 48.4712 26.5181 48.2489 26.429V26.3657H49.0418L53.1635 31.531V27.1551C53.1635 26.8227 53.0199 26.5992 52.7897 26.4191V26.3657Z" fill="white"/>
<path d="M57.0037 26.3657C58.8511 26.3657 60.2853 27.6832 60.2853 29.6655C60.2853 31.531 58.8235 32.894 56.986 32.894H54.6683V32.8406C54.8907 32.7516 55.0067 32.4726 55.0067 32.2036V27.0561C55.0067 26.7871 54.8907 26.5101 54.6683 26.4191V26.3657H57.0056H57.0037ZM55.9078 32.7694H56.9682C58.3415 32.7694 59.2701 31.711 59.2701 29.6576C59.2701 27.6041 58.3612 26.4923 56.986 26.4923H55.9078V32.7694Z" fill="white"/>
<path d="M12.3393 40.1351L11.4225 37.4585H11.7058L12.5164 39.8245L13.3328 37.4585H13.6162L12.6993 40.1351H12.3393Z" fill="white"/>
<path d="M15.1173 40.1907C14.9146 40.1907 14.7336 40.1492 14.5782 40.0641C14.4228 39.979 14.3008 39.8603 14.2123 39.708C14.1237 39.5537 14.0785 39.3757 14.0785 39.1699V37.4627H14.352V39.1343C14.352 39.2728 14.3756 39.3935 14.4228 39.4944C14.47 39.5952 14.531 39.6783 14.6058 39.7436C14.6825 39.8089 14.7651 39.8564 14.8537 39.888C14.9442 39.9197 15.0307 39.9335 15.1153 39.9335C15.1999 39.9335 15.2904 39.9177 15.379 39.888C15.4695 39.8564 15.5521 39.8089 15.6268 39.7436C15.7016 39.6783 15.7626 39.5952 15.8098 39.4944C15.857 39.3935 15.8806 39.2728 15.8806 39.1343V37.4607H16.1541V39.1699C16.1541 39.3757 16.1089 39.5557 16.0203 39.708C15.9318 39.8603 15.8098 39.979 15.6544 40.0641C15.499 40.1492 15.318 40.1907 15.1153 40.1907H15.1173ZM15.4124 37.1382C15.3612 37.1382 15.3101 37.1284 15.2609 37.1066C15.2117 37.0848 15.1645 37.0611 15.1173 37.0334C15.072 37.0057 15.0268 36.982 14.9855 36.9602C14.9442 36.9384 14.9048 36.9285 14.8674 36.9285C14.8202 36.9285 14.7887 36.9483 14.775 36.9859C14.7612 37.0235 14.7632 37.065 14.775 37.1086H14.5822C14.5546 36.9978 14.5644 36.9048 14.6136 36.8277C14.6628 36.7505 14.7435 36.7109 14.8517 36.7109C14.9048 36.7109 14.956 36.7208 15.0051 36.7426C15.0543 36.7643 15.1015 36.7881 15.1488 36.8158C15.194 36.8435 15.2393 36.8672 15.2806 36.889C15.3219 36.9107 15.3612 36.9206 15.3986 36.9206C15.4419 36.9206 15.4714 36.9028 15.4891 36.8652C15.5049 36.8277 15.5068 36.7861 15.4891 36.7367H15.6819C15.7095 36.8455 15.6996 36.9404 15.6505 37.0195C15.6013 37.0987 15.5206 37.1402 15.4104 37.1402L15.4124 37.1382Z" fill="white"/>
<path d="M18.4168 40.1351V39.0154L17.5236 37.4604H17.8383L18.5545 38.7028L19.2667 37.4604H19.5815L18.6922 39.0154V40.1351H18.4187H18.4168Z" fill="white"/>
<path d="M20.0221 40.1347V37.4582H21.6846V37.7193H20.2936V38.6451H21.4642V38.9062H20.2936V39.8716H21.6846V40.1328H20.0221V40.1347ZM20.2818 37.1416L20.7068 36.6392H20.9586L21.3816 37.1416H21.1042L20.8327 36.8192L20.5592 37.1416H20.2818Z" fill="white"/>
<path d="M22.3143 40.1351V37.4585H22.5878L24.0535 39.6504V37.4585H24.327V40.1351H24.0535L22.5878 37.9412V40.1351H22.3143Z" fill="white"/>
<path d="M25.9164 39.0806V38.8472H27.026V39.0806H25.9164Z" fill="white"/>
<path d="M28.6139 40.1351V37.4585H28.8854V38.6652H30.357V37.4585H30.6266V40.1351H30.357V38.9264H28.8854V40.1351H28.6139Z" fill="white"/>
<path d="M31.1438 40.1346L32.0606 37.458H32.4207L33.3375 40.1346H33.0542L32.1846 37.6104H32.2908L31.4252 40.1346H31.1418H31.1438ZM31.553 39.4858V39.2286H32.9283V39.4858H31.553ZM32.0252 36.7221L31.9387 36.5797C31.9878 36.5283 32.0469 36.4927 32.1157 36.4709C32.1846 36.4511 32.2515 36.4511 32.3184 36.4709C32.3853 36.4907 32.4384 36.5401 32.4817 36.6133C32.5131 36.6707 32.5269 36.7261 32.5269 36.7835C32.5269 36.8388 32.5131 36.8903 32.4876 36.9378C32.462 36.9852 32.4266 37.0268 32.3853 37.0624C32.342 37.098 32.2967 37.1237 32.2456 37.1435L32.1551 37.0169C32.2298 36.9813 32.2829 36.9378 32.3125 36.8824C32.342 36.827 32.342 36.7716 32.3125 36.7182C32.2908 36.6806 32.2652 36.6568 32.2318 36.6509C32.1984 36.645 32.1629 36.647 32.1275 36.6608C32.0921 36.6747 32.0567 36.6944 32.0272 36.7221H32.0252Z" fill="white"/>
<path d="M33.8925 40.1351V37.4585H34.164V40.1351H33.8925Z" fill="white"/>
<path d="M35.8285 40.1351V37.4585H36.8555C36.8811 37.4585 36.9106 37.4585 36.944 37.4605C36.9775 37.4605 37.0089 37.4664 37.0424 37.4723C37.1821 37.4941 37.3001 37.5416 37.3965 37.6187C37.4929 37.6959 37.5657 37.7908 37.6169 37.9056C37.6661 38.0203 37.6916 38.1489 37.6916 38.2894C37.6916 38.4298 37.6661 38.5545 37.6149 38.6712C37.5638 38.7859 37.491 38.8828 37.3946 38.958C37.2982 39.0332 37.1801 39.0826 37.0424 39.1044C37.0089 39.1084 36.9755 39.1123 36.944 39.1163C36.9106 39.1183 36.883 39.1202 36.8555 39.1202H36.1V40.1371H35.8285V40.1351ZM36.1 38.8571H36.8476C36.8693 38.8571 36.8948 38.8571 36.9243 38.8532C36.9539 38.8512 36.9834 38.8472 37.0109 38.8393C37.1014 38.8195 37.1762 38.782 37.2352 38.7266C37.2942 38.6712 37.3375 38.6039 37.367 38.5287C37.3965 38.4516 37.4103 38.3725 37.4103 38.2894C37.4103 38.2063 37.3965 38.1252 37.367 38.048C37.3375 37.9709 37.2942 37.9036 37.2352 37.8482C37.1762 37.7928 37.1014 37.7552 37.0109 37.7355C36.9834 37.7295 36.9539 37.7256 36.9243 37.7236C36.8948 37.7216 36.8693 37.7216 36.8476 37.7216H36.1V38.8591V38.8571Z" fill="white"/>
<path d="M38.2444 40.1351V37.4585H38.5159V38.6652H39.9875V37.4585H40.2571V40.1351H39.9875V38.9264H38.5159V40.1351H38.2444Z" fill="white"/>
<path d="M42.0375 40.1906C41.7719 40.1906 41.5495 40.1312 41.3666 40.0125C41.1836 39.8938 41.0459 39.7296 40.9534 39.5219C40.859 39.3122 40.8137 39.0709 40.8137 38.7979C40.8137 38.5249 40.8609 38.2816 40.9534 38.0738C41.0478 37.8641 41.1856 37.7 41.3666 37.5832C41.5495 37.4645 41.7719 37.4052 42.0375 37.4052C42.3031 37.4052 42.5273 37.4645 42.7083 37.5832C42.8893 37.7019 43.029 37.8661 43.1215 38.0738C43.2159 38.2835 43.2632 38.5249 43.2632 38.7979C43.2632 39.0709 43.2159 39.3142 43.1215 39.5219C43.0271 39.7316 42.8893 39.8958 42.7083 40.0125C42.5273 40.1312 42.3031 40.1906 42.0375 40.1906ZM42.0375 39.9275C42.246 39.9275 42.4191 39.88 42.5588 39.785C42.6985 39.6901 42.8028 39.5575 42.8716 39.3874C42.9405 39.2173 42.9759 39.0195 42.9759 38.7979C42.9759 38.5763 42.9405 38.3785 42.8716 38.2084C42.8028 38.0382 42.6985 37.9057 42.5588 37.8107C42.4191 37.7158 42.246 37.6663 42.0375 37.6663C41.8289 37.6663 41.6558 37.7138 41.5181 37.8088C41.3803 37.9037 41.2761 38.0363 41.2072 38.2084C41.1383 38.3785 41.1029 38.5763 41.101 38.7979C41.101 39.0214 41.1344 39.2173 41.2033 39.3854C41.2721 39.5536 41.3764 39.6861 41.5161 39.7831C41.6558 39.88 41.8289 39.9275 42.0375 39.9295V39.9275ZM41.9135 37.1421L41.6932 36.5664H41.9253L42.1457 37.1421H41.9135Z" fill="white"/>
<path d="M43.8198 40.1351V37.4585H44.0933L45.559 39.6504V37.4585H45.8325V40.1351H45.559L44.0933 37.9412V40.1351H43.8198Z" fill="white"/>
<path d="M47.6013 40.1907C47.4144 40.1907 47.2452 40.1571 47.0957 40.0918C46.9462 40.0265 46.8183 39.9335 46.7121 39.8109C46.6058 39.6902 46.5271 39.5438 46.4701 39.3717C46.415 39.1996 46.3875 39.0077 46.3875 38.796C46.3875 38.5151 46.4366 38.2718 46.533 38.0621C46.6294 37.8524 46.7691 37.6921 46.9501 37.5754C47.1311 37.4587 47.3495 37.4033 47.6033 37.4033C47.8866 37.4033 48.1168 37.4706 48.2958 37.6031C48.4729 37.7357 48.5988 37.9157 48.6677 38.1392L48.3942 38.2065C48.3372 38.0423 48.2408 37.9117 48.1089 37.8148C47.9771 37.7179 47.8119 37.6684 47.6151 37.6684C47.4066 37.6684 47.2334 37.7139 47.0957 37.8089C46.958 37.9038 46.8537 38.0364 46.7849 38.2065C46.716 38.3766 46.6806 38.5745 46.6786 38.796C46.6786 39.0196 46.7121 39.2154 46.7809 39.3836C46.8498 39.5517 46.9541 39.6843 47.0938 39.7812C47.2334 39.8781 47.4066 39.9256 47.6151 39.9276C47.806 39.9276 47.9634 39.89 48.0873 39.8168C48.2112 39.7416 48.3057 39.6368 48.3706 39.4963C48.4355 39.3559 48.4729 39.1936 48.4808 39.0037H47.8669V38.7703H48.7661C48.77 38.798 48.772 38.8296 48.772 38.8613C48.772 38.893 48.772 38.9147 48.772 38.9286C48.772 39.1699 48.7287 39.3855 48.6421 39.5755C48.5555 39.7654 48.4257 39.9157 48.2526 40.0245C48.0794 40.1333 47.863 40.1887 47.6013 40.1887V40.1907Z" fill="white"/>
</svg>
