<svg width="79" height="29" viewBox="0 0 79 29" fill="none" xmlns="http://www.w3.org/2000/svg">
<g clip-path="url(#clip0_79_10444)">
<path d="M37.1538 12.7334C37.1538 10.618 38.8401 8.9126 40.9394 8.9126C42.495 8.9126 43.7442 9.82903 44.3189 11.2071L43.2521 11.4862C42.846 10.556 41.9822 9.95995 40.9394 9.95995C39.3942 9.95995 38.262 11.1968 38.262 12.7368C38.262 14.2768 39.3908 15.4896 40.9394 15.4896C42.199 15.4896 43.1695 14.6558 43.4242 13.3638L40.9394 13.3742L40.9291 12.4336H44.5013V12.8195C44.5013 14.9452 43.0181 16.5438 40.9394 16.5438C38.8608 16.5438 37.1538 14.8246 37.1538 12.7334Z" fill="white"/>
<path d="M45.5028 8.98486H46.6006V15.4343H50.3966V16.4576H45.5028V8.98486Z" fill="white"/>
<path d="M50.6512 12.7334C50.6512 10.618 52.3272 8.9126 54.4265 8.9126C56.5258 8.9126 58.1915 10.6111 58.2018 12.7334C58.2018 14.835 56.5258 16.5438 54.4265 16.5438C52.3272 16.5438 50.6512 14.8246 50.6512 12.7334ZM57.0937 12.7334C57.0937 11.1968 55.9511 9.93583 54.4265 9.93583C52.902 9.93583 51.7491 11.1968 51.7491 12.7334C51.7491 14.2699 52.8779 15.5102 54.4265 15.5102C55.9752 15.5102 57.0937 14.2596 57.0937 12.7334Z" fill="white"/>
<path d="M59.1929 8.98486H62.5001C63.9077 8.98486 64.7508 9.79794 64.7508 10.9176C64.7508 11.7066 64.3447 12.3371 63.6943 12.6265C64.5684 12.9262 65.0261 13.5774 65.0261 14.4421C65.0261 15.648 64.152 16.461 62.6687 16.461H59.1929V8.98831V8.98486ZM62.4244 12.2406C63.1918 12.2406 63.6943 11.7721 63.6943 11.0865C63.6943 10.4009 63.2366 9.97709 62.4691 9.97709H60.2632V12.2406H62.4278H62.4244ZM62.5965 15.4654C63.4087 15.4654 63.9077 15.0175 63.9077 14.2802C63.9077 13.5429 63.3226 13.1364 62.5655 13.1364H60.2632V15.4654H62.5999H62.5965Z" fill="white"/>
<path d="M68.2267 8.98486H70.0404L72.7075 16.4576H71.5546L70.9351 14.7487H67.2872L66.6574 16.4576H65.5045L68.2233 8.98486H68.2267ZM70.6048 13.7462L69.1318 9.52921L67.6279 13.7462H70.6048Z" fill="white"/>
<path d="M73.6023 8.98486H74.7001V15.4343H78.4961V16.4576H73.6023V8.98486Z" fill="white"/>
<path d="M37.1538 22.3388C37.1538 20.2235 38.8401 18.5181 40.9394 18.5181C42.495 18.5181 43.7442 19.4379 44.3189 20.8126L43.2521 21.0917C42.846 20.1614 41.9822 19.5654 40.9394 19.5654C39.3942 19.5654 38.262 20.8023 38.262 22.3423C38.262 23.8823 39.3908 25.095 40.9394 25.095C42.199 25.095 43.1695 24.2613 43.4242 22.9693L40.9394 22.9796L40.9291 22.0391H44.5013V22.425C44.5013 24.5507 43.0181 26.1493 40.9394 26.1493C38.8608 26.1493 37.1538 24.4301 37.1538 22.3388Z" fill="white"/>
<path d="M47.6125 18.5938H49.4261L52.0932 26.0665H50.9403L50.3209 24.3576H46.6729L46.0431 26.0665H44.8903L47.609 18.5938H47.6125ZM49.9905 23.3551L48.5176 19.1381L47.0136 23.3551H49.9905Z" fill="white"/>
<path d="M54.5332 19.617H52.0485V18.5938H58.0297V19.617H55.631V26.0665H54.5332V19.617Z" fill="white"/>
<path d="M59.2032 18.5938H64.4721V19.617H60.3011V21.8254H64.0454V22.828H60.3011V25.0364H64.4721V26.0596H59.2032V18.5869V18.5938Z" fill="white"/>
<path d="M37.271 3.77637H37.5911L38.5512 6.47743L39.5286 3.77637H39.8418L38.8093 6.59457H38.3L37.271 3.77637Z" fill="white"/>
<path d="M41.2114 3.77637H41.5005V6.59457H41.2114V3.77637Z" fill="white"/>
<path d="M43.0251 3.77637H43.5792L45.0522 6.46365V3.77637H45.3378V6.59457H44.7906L43.3073 3.88317V6.59457H43.0251V3.77637Z" fill="white"/>
<path d="M46.8521 3.77637H47.1411V5.05111H48.8171V3.77637H49.1062V6.59457H48.8171V5.31983H47.1411V6.59457H46.8521V3.77637Z" fill="white"/>
<path d="M50.5275 5.18523C50.5275 4.39282 51.1469 3.74512 51.9385 3.74512C52.73 3.74512 53.3495 4.38593 53.3495 5.18523C53.3529 5.97763 52.73 6.62189 51.9385 6.62189C51.1469 6.62189 50.5275 5.97763 50.5275 5.18523ZM53.0604 5.18523C53.0604 4.54441 52.582 4.01729 51.9385 4.01729C51.2949 4.01729 50.8165 4.54097 50.8165 5.18523C50.8165 5.82949 51.288 6.34972 51.9385 6.34972C52.5889 6.34972 53.0604 5.82949 53.0604 5.18523Z" fill="white"/>
<path d="M54.7537 3.77637H55.2871L56.261 6.49121L57.235 3.77637H57.7753V6.59457H57.4931V3.89695L56.5295 6.59457H55.996L55.0393 3.91073V6.59457H54.7571V3.77637H54.7537Z" fill="white"/>
<path d="M59.2654 3.77639H61.2236V4.04512H59.5545V5.05113H61.0618V5.31297H59.5545V6.32243H61.2236V6.59115H59.2654V3.77295V3.77639Z" fill="white"/>
<path d="M62.6518 6.17404V5.85708C62.989 6.17404 63.3745 6.35319 63.7668 6.35319C64.1591 6.35319 64.493 6.19471 64.493 5.86052C64.493 5.57801 64.2589 5.41953 63.6567 5.27828C62.989 5.13013 62.6449 4.94409 62.6449 4.52721C62.6449 4.01043 63.1852 3.7417 63.6945 3.7417C64.1763 3.7417 64.5136 3.93808 64.7063 4.09311V4.41352C64.4448 4.18269 64.0765 4.01043 63.6945 4.01043C63.3366 4.01043 62.9305 4.17924 62.9305 4.52032C62.9305 4.84073 63.3297 4.9372 63.8219 5.05089C64.548 5.21626 64.7752 5.48499 64.7786 5.85018C64.782 6.38075 64.2693 6.62536 63.7496 6.62192C63.3091 6.61847 62.9546 6.44966 62.6518 6.17059V6.17404Z" fill="white"/>
<path d="M4.1917 14.4111C4.1917 10.7557 5.74724 7.46552 8.23198 5.16411C8.32834 5.07453 8.3834 4.9505 8.3834 4.82303V0.175402C8.3834 0.041038 8.23542 -0.045093 8.11841 0.0238118C3.25562 2.9626 0 8.30616 0 14.4111C0 20.5161 3.25562 25.8596 8.12185 28.7984C8.23886 28.8673 8.38684 28.7847 8.38684 28.6468V23.9992C8.38684 23.8683 8.33178 23.7443 8.23542 23.6581C5.75068 21.3567 4.19514 18.0665 4.19514 14.4111H4.1917Z" fill="white"/>
<path d="M33.5439 14.4116C33.5439 8.30663 30.2883 2.96307 25.4221 0.0242787C25.3051 -0.044626 25.1571 0.0380597 25.1571 0.175869V4.82349C25.1571 4.95441 25.2122 5.07844 25.3085 5.16457C27.7933 7.46599 29.3488 10.7562 29.3488 14.4116C29.3488 18.067 27.7933 21.3572 25.3085 23.6586C25.2122 23.7482 25.1571 23.8722 25.1571 23.9997V28.6473C25.1571 28.7817 25.3051 28.8678 25.4221 28.7989C30.2883 25.8601 33.5439 20.5166 33.5439 14.4116Z" fill="white"/>
<path d="M12.5785 6.94557V2.79061C12.5785 2.67003 12.4581 2.5839 12.3445 2.62524C10.9404 3.15236 9.66018 3.92409 8.54515 4.88876C8.4419 4.97834 8.38684 5.10581 8.38684 5.24018V12.7611C8.38684 12.7611 8.38684 12.8059 8.41781 12.8266C8.44879 12.8473 8.49008 12.8404 8.51417 12.8197C8.54171 12.799 8.54515 12.7715 8.54859 12.7646C8.68969 12.0549 9.03728 10.8111 9.95271 9.5295C10.7993 8.34778 11.7732 7.63462 12.4099 7.2453C12.5132 7.18329 12.5785 7.0696 12.5785 6.94557Z" fill="white"/>
<path d="M20.9655 6.94557V2.79061C20.9655 2.67003 21.0859 2.5839 21.1995 2.62524C22.6036 3.15236 23.8838 3.92409 24.9988 4.88876C25.1021 4.97834 25.1572 5.10581 25.1572 5.24018V12.7611C25.1572 12.7611 25.1572 12.8059 25.1262 12.8266C25.0952 12.8473 25.0539 12.8404 25.0298 12.8197C25.0023 12.799 24.9988 12.7715 24.9954 12.7646C24.8543 12.0549 24.5067 10.8111 23.5913 9.5295C22.7447 8.34778 21.7708 7.63462 21.1341 7.2453C21.0308 7.18329 20.9655 7.0696 20.9655 6.94557Z" fill="white"/>
<path d="M20.9653 21.8808V26.0358C20.9653 26.1563 21.0858 26.2425 21.1994 26.2011C22.6035 25.674 23.8837 24.9023 24.9987 23.9376C25.102 23.848 25.157 23.7206 25.157 23.5862V16.0652C25.157 16.0652 25.157 16.0205 25.1261 15.9998C25.0951 15.9791 25.0538 15.986 25.0297 16.0067C25.0022 16.0273 24.9987 16.0549 24.9953 16.0618C24.8542 16.7715 24.5066 18.0152 23.5912 19.2969C22.7446 20.4786 21.7706 21.1918 21.134 21.5811C21.0307 21.6431 20.9653 21.7568 20.9653 21.8808Z" fill="white"/>
<path d="M12.5785 21.8808V26.0358C12.5785 26.1563 12.4581 26.2425 12.3445 26.2011C10.9404 25.674 9.66018 24.9023 8.54515 23.9376C8.4419 23.848 8.38684 23.7206 8.38684 23.5862V16.0652C8.38684 16.0652 8.38684 16.0205 8.41781 15.9998C8.44879 15.9791 8.49008 15.986 8.51417 16.0067C8.54171 16.0273 8.54515 16.0549 8.54859 16.0618C8.68969 16.7715 9.03728 18.0152 9.95271 19.2969C10.7993 20.4786 11.7732 21.1918 12.4099 21.5811C12.5132 21.6431 12.5785 21.7568 12.5785 21.8808Z" fill="white"/>
<path d="M20.7865 7.04231C19.5957 6.39116 18.226 6.01562 16.7737 6.01562C15.3214 6.01562 13.9517 6.38771 12.761 7.04231C12.6509 7.10432 12.582 7.22146 12.582 7.34893V13.2851C12.582 13.3161 12.5958 13.3436 12.6199 13.3574C12.6543 13.3747 12.6887 13.354 12.6922 13.3505C12.7197 13.3333 12.7266 13.3023 12.73 13.2989C12.8264 12.9474 13.1602 11.9139 14.1858 11.1111C15.2664 10.2636 16.4227 10.2154 16.7737 10.2154C17.1248 10.2154 18.2811 10.2602 19.3617 11.1111C20.3838 11.9139 20.7211 12.9474 20.8174 13.2989C20.8174 13.3023 20.8278 13.3333 20.8553 13.3505C20.8553 13.3505 20.8932 13.3747 20.9276 13.3574C20.9517 13.3436 20.9689 13.3161 20.9654 13.2851V7.34893C20.9654 7.22146 20.8966 7.10432 20.7865 7.04231Z" fill="white"/>
<path d="M20.9654 15.6898C20.9654 15.6002 20.9138 15.5244 20.8381 15.4865C20.8071 15.4693 20.7727 15.4624 20.7348 15.4624H18.0471C17.9197 15.4624 17.8165 15.5658 17.8165 15.6932V18.4735C17.3347 18.5976 16.9492 18.6113 16.7668 18.6113C16.4158 18.6113 15.2595 18.5666 14.1789 17.7156C13.1568 16.9128 12.8195 15.8793 12.7231 15.5279C12.7231 15.5244 12.7128 15.4934 12.6853 15.4762C12.6853 15.4762 12.6474 15.4521 12.613 15.4693C12.5889 15.4831 12.5717 15.5106 12.5751 15.5416V21.4778C12.5751 21.6053 12.644 21.7224 12.7541 21.7844C13.9448 22.4356 15.3145 22.8111 16.7668 22.8111C18.2191 22.8111 19.5888 22.439 20.7796 21.7844C20.8897 21.7224 20.9585 21.6053 20.9585 21.4778V19.6621V15.6932L20.9654 15.6898Z" fill="white"/>
</g>
<defs>
<clipPath id="clip0_79_10444">
<rect width="78.4963" height="28.8229" fill="white"/>
</clipPath>
</defs>
</svg>
