<svg width="117" height="37" viewBox="0 0 117 37" fill="none" xmlns="http://www.w3.org/2000/svg">
<path d="M40.4366 16.2323H37.99V15.4838C37.99 15.1321 37.9599 14.9111 37.8946 14.8156C37.8343 14.7202 37.7288 14.6699 37.5831 14.6699C37.4274 14.6699 37.3068 14.7352 37.2214 14.8659C37.141 14.9965 37.1008 15.1924 37.1008 15.4537C37.1008 15.7902 37.146 16.0465 37.2365 16.2173C37.3219 16.3881 37.5731 16.5941 37.98 16.8352C39.1505 17.5285 39.889 18.1012 40.1955 18.5483C40.5019 18.9954 40.6526 19.7138 40.6526 20.7035C40.6526 21.4269 40.5672 21.9544 40.4015 22.2961C40.2306 22.6377 39.9041 22.924 39.4218 23.1551C38.9395 23.3862 38.3769 23.5018 37.7338 23.5018C37.0305 23.5018 36.4276 23.3661 35.9303 23.0999C35.4329 22.8336 35.1064 22.492 34.9506 22.08C34.7949 21.6681 34.7195 21.0803 34.7195 20.3217V19.6586H37.1661V20.8894C37.1661 21.2712 37.2013 21.5124 37.2716 21.6229C37.342 21.7334 37.4625 21.7836 37.6384 21.7836C37.8142 21.7836 37.9448 21.7133 38.0302 21.5777C38.1156 21.442 38.1558 21.236 38.1558 20.9648C38.1558 20.3669 38.0754 19.9801 37.9096 19.7942C37.7439 19.6134 37.3319 19.3069 36.6788 18.8749C36.0257 18.4428 35.5887 18.1263 35.3777 17.9304C35.1667 17.7345 34.9908 17.4632 34.8502 17.1165C34.7095 16.7699 34.6392 16.3278 34.6392 15.7902C34.6392 15.0166 34.7396 14.4489 34.9356 14.0872C35.1315 13.7305 35.453 13.4492 35.8951 13.2482C36.3372 13.0473 36.8697 12.9468 37.4977 12.9468C38.1809 12.9468 38.7637 13.0573 39.246 13.2783C39.7283 13.4994 40.0448 13.7757 40.2005 14.1123C40.3562 14.4489 40.4366 15.0166 40.4366 15.8204V16.2223V16.2323Z" fill="white"/>
<path d="M47.7813 13.167V19.929C47.7813 20.6977 47.7562 21.2352 47.706 21.5467C47.6557 21.8582 47.5101 22.1747 47.2639 22.5012C47.0177 22.8278 46.6912 23.0739 46.2893 23.2447C45.8874 23.4155 45.4151 23.4959 44.8675 23.4959C44.2647 23.4959 43.7322 23.3954 43.265 23.1945C42.8028 22.9935 42.4561 22.7323 42.225 22.4158C41.9939 22.0943 41.8583 21.7577 41.8181 21.401C41.7779 21.0443 41.7578 20.2958 41.7578 19.1554V13.167H44.3903V20.758C44.3903 21.2 44.4154 21.4814 44.4606 21.607C44.5109 21.7275 44.6063 21.7929 44.752 21.7929C44.9178 21.7929 45.0283 21.7225 45.0735 21.5919C45.1238 21.4563 45.1439 21.1347 45.1439 20.6324V13.172H47.7763L47.7813 13.167Z" fill="white"/>
<path d="M55.0008 13.167V23.2899H52.6948L51.3234 18.6881V23.2899H49.1229V13.167H51.3234L52.8003 17.7236V13.167H55.0008Z" fill="white"/>
<path d="M59.4719 13.1681H62.1245C62.8429 13.1681 63.3905 13.2234 63.7773 13.3389C64.1642 13.4494 64.4505 13.6152 64.6464 13.8262C64.8424 14.0372 64.973 14.2985 65.0383 14.5999C65.1086 14.9013 65.1438 15.3685 65.1438 16.0015V16.8807C65.1438 17.5288 65.0785 17.996 64.9428 18.2924C64.8072 18.5888 64.5661 18.8149 64.2094 18.9756C63.8527 19.1364 63.3855 19.2117 62.8127 19.2117H62.1044V23.286H59.4719V13.1631V13.1681ZM62.1044 14.9013V17.4785C62.1797 17.4785 62.2451 17.4836 62.2953 17.4836C62.5364 17.4836 62.7072 17.4233 62.7977 17.3077C62.8931 17.1871 62.9383 16.941 62.9383 16.5692V15.7403C62.9383 15.3937 62.8831 15.1676 62.7776 15.0671C62.6671 14.9616 62.446 14.9114 62.1044 14.9114V14.9013Z" fill="white"/>
<path d="M66.2189 13.1681H68.0827C69.3236 13.1681 70.1676 13.2183 70.6047 13.3138C71.0417 13.4093 71.4035 13.6554 71.6798 14.0473C71.9561 14.4391 72.0967 15.0671 72.0967 15.9312C72.0967 16.7199 71.9963 17.2474 71.8003 17.5187C71.6044 17.79 71.2176 17.9508 70.6449 18.006C71.1673 18.1366 71.514 18.3075 71.6948 18.5235C71.8757 18.7395 71.9862 18.9405 72.0314 19.1213C72.0766 19.3022 72.0967 19.7995 72.0967 20.6184V23.286H69.6502V19.9251C69.6502 19.3825 69.6049 19.046 69.5195 18.9204C69.4341 18.7897 69.2081 18.7244 68.8463 18.7244V23.286H66.2139V13.1631L66.2189 13.1681ZM68.8514 14.9013V17.152C69.1478 17.152 69.3537 17.1118 69.4743 17.0314C69.5949 16.951 69.6502 16.6848 69.6502 16.2427V15.685C69.6502 15.3635 69.5949 15.1525 69.4793 15.052C69.3638 14.9516 69.1528 14.9013 68.8514 14.9013Z" fill="white"/>
<path d="M79.4517 19.0956C79.4517 20.1104 79.4265 20.8339 79.3813 21.2559C79.3311 21.6779 79.1854 22.0647 78.9292 22.4164C78.678 22.768 78.3364 23.0343 77.9043 23.2252C77.4773 23.4111 76.9749 23.5065 76.4022 23.5065C75.8295 23.5065 75.3723 23.4161 74.9403 23.2403C74.5082 23.0644 74.1616 22.7982 73.9004 22.4415C73.6391 22.0848 73.4834 21.703 73.4331 21.286C73.3829 20.869 73.3578 20.1406 73.3578 19.0956V17.3624C73.3578 16.3476 73.3829 15.6242 73.4281 15.2022C73.4733 14.7802 73.6241 14.3933 73.8803 14.0417C74.1315 13.69 74.4731 13.4238 74.9001 13.2379C75.3271 13.052 75.8295 12.9565 76.4022 12.9565C76.9749 12.9565 77.4321 13.047 77.8641 13.2228C78.2962 13.3986 78.6428 13.6649 78.9041 14.0216C79.1653 14.3783 79.321 14.7601 79.3713 15.1771C79.4215 15.594 79.4466 16.3225 79.4466 17.3674V19.1006L79.4517 19.0956ZM76.8192 15.7699C76.8192 15.2976 76.7941 14.9962 76.7388 14.8656C76.6835 14.735 76.578 14.6697 76.4173 14.6697C76.2816 14.6697 76.1761 14.7249 76.1008 14.8304C76.0254 14.9359 75.9903 15.2524 75.9903 15.7699V20.4973C75.9903 21.085 76.0154 21.4468 76.0606 21.5874C76.1108 21.7231 76.2214 21.7934 76.3972 21.7934C76.573 21.7934 76.6936 21.713 76.7388 21.5573C76.789 21.4015 76.8142 21.0197 76.8142 20.4269V15.7749L76.8192 15.7699Z" fill="white"/>
<path d="M80.7527 13.1681H83.4053C84.1237 13.1681 84.6713 13.2234 85.0581 13.3389C85.4449 13.4494 85.7313 13.6152 85.9272 13.8262C86.1231 14.0372 86.2537 14.2985 86.3191 14.5999C86.3894 14.9013 86.4246 15.3685 86.4246 16.0015V16.8807C86.4246 17.5288 86.3592 17.996 86.2236 18.2924C86.088 18.5888 85.8468 18.8149 85.4901 18.9756C85.1334 19.1364 84.6662 19.2117 84.0935 19.2117H83.3852V23.286H80.7527V13.1631V13.1681ZM83.3852 14.9013V17.4785C83.4605 17.4785 83.5258 17.4836 83.5761 17.4836C83.8172 17.4836 83.988 17.4233 84.0784 17.3077C84.1739 17.1871 84.2191 16.941 84.2191 16.5692V15.7403C84.2191 15.3937 84.1638 15.1676 84.0583 15.0671C83.9478 14.9616 83.7268 14.9114 83.3852 14.9114V14.9013Z" fill="white"/>
<path d="M87.4996 13.1681H91.8904V15.1927H90.1321V17.1118H91.7749V19.0359H90.1321V21.2614H92.0612V23.286H87.4996V13.1631V13.1681Z" fill="white"/>
<path d="M93.1365 13.1681H95.0003C96.2412 13.1681 97.0852 13.2183 97.5222 13.3138C97.9593 13.4093 98.321 13.6554 98.5973 14.0473C98.8737 14.4391 99.0143 15.0671 99.0143 15.9312C99.0143 16.7199 98.9138 17.2474 98.7179 17.5187C98.522 17.79 98.1352 17.9508 97.5624 18.006C98.0849 18.1366 98.4316 18.3075 98.6124 18.5235C98.7933 18.7395 98.9038 18.9405 98.949 19.1213C98.9942 19.3022 99.0143 19.7995 99.0143 20.6184V23.286H96.5677V19.9251C96.5677 19.3825 96.5225 19.046 96.4421 18.9204C96.3567 18.7897 96.1307 18.7244 95.7689 18.7244V23.286H93.1365V13.1631V13.1681ZM95.7689 14.9013V17.152C96.0653 17.152 96.2713 17.1118 96.3919 17.0314C96.5125 16.951 96.5677 16.6848 96.5677 16.2427V15.685C96.5677 15.3635 96.5125 15.1525 96.3969 15.052C96.2814 14.9516 96.0704 14.9013 95.7689 14.9013Z" fill="white"/>
<path d="M105.656 13.1675V15.1921H104.093V23.2904H101.461V15.1921H99.9033V13.1675H105.656Z" fill="white"/>
<path d="M112.503 13.1675L110.584 19.6231V23.2854H108.147V19.6231L106.299 13.1675H108.715C109.092 15.1418 109.308 16.4731 109.353 17.1564C109.499 16.0763 109.745 14.745 110.087 13.1675H112.503Z" fill="white"/>
<path d="M114.588 13.0269C113.799 13.0269 113.161 13.6699 113.161 14.4536C113.161 15.2373 113.804 15.8804 114.588 15.8804C115.371 15.8804 116.014 15.2373 116.014 14.4536C116.014 13.6699 115.371 13.0269 114.588 13.0269ZM114.588 15.6593C113.925 15.6593 113.387 15.1218 113.387 14.4586C113.387 13.7955 113.925 13.2579 114.588 13.2579C115.251 13.2579 115.788 13.7955 115.788 14.4586C115.788 15.1218 115.251 15.6593 114.588 15.6593Z" fill="white"/>
<path d="M115.115 15.0913C115.115 15.0913 115.08 15.0561 115.075 14.8301C115.075 14.7246 115.065 14.6492 115.045 14.599C115.025 14.5387 114.99 14.4935 114.95 14.4633C115 14.4332 115.04 14.398 115.07 14.3528C115.11 14.2925 115.125 14.2171 115.125 14.1317C115.125 13.9509 115.04 13.7349 114.623 13.7349H114.05V15.1717H114.256V14.5537H114.623C114.693 14.5537 114.744 14.5638 114.779 14.5789C114.819 14.599 114.844 14.6341 114.854 14.6844V14.6944C114.854 14.7246 114.864 14.7949 114.874 14.9104C114.879 15.026 114.894 15.1064 114.924 15.1516L114.934 15.1717H115.13V15.1013L115.115 15.0913ZM114.914 14.1368C114.914 14.2171 114.889 14.2724 114.829 14.3126C114.779 14.3478 114.703 14.3679 114.613 14.3679H114.251V13.9207H114.618C114.879 13.9207 114.909 14.0413 114.909 14.1368" fill="white"/>
<path fill-rule="evenodd" clip-rule="evenodd" d="M16.493 17.3071H16.3473V18.0356H16.5281C16.6336 18.0356 16.709 18.0004 16.7492 17.9251L16.7743 17.8296L16.7844 17.6588C16.7844 17.5332 16.7743 17.4478 16.7492 17.3976C16.714 17.3373 16.6286 17.3071 16.498 17.3071H16.493Z" fill="white"/>
<path fill-rule="evenodd" clip-rule="evenodd" d="M18.834 17.2822C18.7436 17.2822 18.6833 17.3174 18.6482 17.3877C18.6281 17.443 18.623 17.5033 18.623 17.5736V19.1511C18.623 19.2465 18.6381 19.3219 18.6733 19.3772C18.7034 19.4224 18.7587 19.4475 18.8391 19.4475C18.9245 19.4475 18.9898 19.4073 19.0199 19.337C19.04 19.2817 19.045 19.2214 19.045 19.1561V17.5786C19.045 17.5033 19.035 17.443 19.0199 17.3978C18.9898 17.3274 18.9245 17.2923 18.834 17.2923V17.2822Z" fill="white"/>
<path fill-rule="evenodd" clip-rule="evenodd" d="M23.2398 17.3317H23.1544V18.1254H23.3353C23.4408 18.1254 23.5161 18.0953 23.5563 18.04C23.5915 17.9747 23.6116 17.8692 23.6116 17.7185C23.6116 17.5427 23.5814 17.4271 23.5161 17.3769C23.4759 17.3417 23.3855 17.3267 23.2398 17.3267V17.3317Z" fill="white"/>
<path fill-rule="evenodd" clip-rule="evenodd" d="M27.0682 16.0159H3.84321C5.13432 13.8657 7.85722 12.238 12.0973 11.2031C19.6682 9.36436 23.7977 14.4736 26.1639 14.7901C28.5352 15.1015 29.128 13.9913 29.8916 13.1171C24.3303 12.4088 19.206 5.04389 15.1518 0C11.3488 4.45109 6.32496 12.7002 0.0050238 13.0116V19.4873H2.92385V20.6428H26.0936C24.8125 22.8231 22.0796 24.4759 17.7993 25.5159C10.2285 27.3596 6.04865 22.2203 3.72766 21.9289C1.40666 21.6375 0.763617 22.7327 0 23.6018C5.56637 24.3051 11.0524 31.675 15.1066 36.724C18.9096 32.2679 23.5666 24.0188 29.8866 23.7123V17.1713H27.0582V16.0159H27.0682ZM7.28953 19.7184C7.10868 19.9143 6.84744 20.0098 6.5008 20.0098C6.15415 20.0098 5.92306 19.9194 5.75225 19.7385C5.61661 19.5928 5.54627 19.422 5.54627 19.2211V18.8794H6.25965V19.1156C6.25965 19.2211 6.27472 19.2964 6.30487 19.3466C6.34506 19.412 6.41539 19.4471 6.51084 19.4471C6.5862 19.4471 6.65151 19.422 6.69672 19.3718C6.74194 19.3215 6.76203 19.2663 6.76203 19.201C6.76203 19.0553 6.6716 18.9096 6.49577 18.7538L6.17927 18.5177C5.94818 18.3268 5.81253 18.2062 5.77234 18.156C5.71708 18.0857 5.66684 18.0053 5.63168 17.9098C5.60154 17.8144 5.59149 17.7139 5.59149 17.6084C5.59149 17.307 5.67187 17.0859 5.83765 16.9352C5.99841 16.7895 6.22951 16.7142 6.53094 16.7142C6.83237 16.7142 7.06848 16.7845 7.22422 16.9252C7.37494 17.0658 7.45029 17.2668 7.45029 17.518V17.8094H6.76203V17.6386C6.76203 17.5431 6.75199 17.4627 6.72687 17.4024C6.6917 17.3271 6.62639 17.2869 6.53094 17.2869C6.45558 17.2869 6.39027 17.307 6.34506 17.3472C6.29984 17.3924 6.27472 17.4527 6.27472 17.528C6.27472 17.6285 6.37018 17.7591 6.56108 17.9149L6.88763 18.1661C7.17901 18.4223 7.34479 18.5881 7.37996 18.6534C7.46034 18.7991 7.50053 18.9849 7.50053 19.206C7.50053 19.4019 7.4302 19.5777 7.28953 19.7285V19.7184ZM9.7311 19.0854C9.7311 19.3667 9.64569 19.5928 9.47488 19.7586C9.30408 19.9244 9.07298 20.0098 8.7816 20.0098C8.49022 20.0098 8.26415 19.9294 8.09334 19.7636C7.91751 19.5978 7.8321 19.3718 7.8321 19.0854V16.7644H8.56558V19.0955C8.56558 19.206 8.57562 19.2864 8.59572 19.3416C8.61581 19.3969 8.6761 19.422 8.77658 19.422C8.84691 19.422 8.89715 19.4019 8.93734 19.3617C8.9725 19.3215 8.98757 19.2311 8.98757 19.1005V16.7694H9.72105V19.0904L9.7311 19.0854ZM12.2229 19.9545H11.4241L10.8263 17.9802L10.8162 19.9545H10.1029V16.7594H10.9067L11.4995 18.6433L11.5095 16.7594H12.2229V19.9545ZM15.2372 17.8496H14.5389V17.5331C14.5389 17.3673 14.4635 17.2819 14.3078 17.2819C14.2274 17.2819 14.1671 17.317 14.1219 17.3874C14.0968 17.4477 14.0817 17.5079 14.0817 17.5682V19.1457C14.0817 19.2411 14.0968 19.3165 14.1269 19.3718C14.1571 19.417 14.2123 19.4421 14.2927 19.4421C14.4484 19.4421 14.5288 19.3617 14.5288 19.201V18.789H14.2726V18.1962H15.2422V19.9545H14.5992V19.6933C14.4635 19.8993 14.2726 20.0048 14.0214 20.0048C13.7702 20.0048 13.6044 19.9143 13.4889 19.7234C13.3934 19.5677 13.3482 19.3517 13.3482 19.0804V17.6335C13.3482 17.3321 13.4387 17.101 13.6145 16.9402C13.7803 16.7895 14.0114 16.7142 14.2977 16.7142C14.5841 16.7142 14.8001 16.7694 14.9558 16.88C15.1468 17.0156 15.2422 17.2166 15.2422 17.4979V17.8546L15.2372 17.8496ZM16.8498 19.9545C16.8247 19.9294 16.8046 19.8641 16.7845 19.7636C16.7745 19.6782 16.7694 19.5978 16.7694 19.5275C16.7694 19.4521 16.7694 19.3919 16.7694 19.3517V18.8392C16.7694 18.7538 16.7493 18.6885 16.7041 18.6383C16.6639 18.5981 16.5886 18.573 16.4881 18.573H16.3525V19.9545H15.619V16.7594H16.5936C16.9202 16.7594 17.1563 16.8197 17.302 16.9302C17.4477 17.0457 17.523 17.2467 17.523 17.5331C17.523 17.739 17.4979 17.8897 17.4527 17.9952C17.3874 18.1259 17.2668 18.2163 17.0809 18.2716C17.2115 18.2967 17.317 18.357 17.3924 18.4524C17.4728 18.5428 17.5079 18.6534 17.5079 18.789V19.6682C17.5079 19.6983 17.5079 19.7285 17.518 19.7586C17.518 19.834 17.5431 19.8993 17.5883 19.9545H16.8599H16.8498ZM19.7787 19.0854C19.7787 19.3667 19.6933 19.5928 19.5225 19.7586C19.3517 19.9244 19.1206 20.0098 18.8342 20.0098C18.5479 20.0098 18.3168 19.9244 18.146 19.7636C17.9751 19.5978 17.8847 19.3718 17.8847 19.0854V17.6335C17.8847 17.3321 17.9751 17.101 18.151 16.9402C18.3168 16.7895 18.5479 16.7142 18.8342 16.7142C19.1206 16.7142 19.3466 16.7946 19.5225 16.9503C19.6983 17.106 19.7837 17.3371 19.7837 17.6386V19.0904L19.7787 19.0854ZM22.0444 19.0854C22.0444 19.3667 21.959 19.5928 21.7882 19.7586C21.6174 19.9244 21.3863 20.0098 21.1 20.0098C20.8136 20.0098 20.5825 19.9294 20.4117 19.7636C20.2359 19.5978 20.1505 19.3718 20.1505 19.0854V16.7644H20.8839V19.0955C20.8839 19.206 20.894 19.2864 20.9141 19.3416C20.9342 19.3969 20.9945 19.422 21.0949 19.422C21.1653 19.422 21.2155 19.4019 21.2557 19.3617C21.2909 19.3215 21.3059 19.2311 21.3059 19.1005V16.7694H22.0394V19.0904L22.0444 19.0854ZM24.3403 17.9601C24.3403 18.0003 24.3252 18.0656 24.3102 18.1409C24.2951 18.2213 24.2599 18.3067 24.2047 18.3871C24.0791 18.5881 23.8681 18.6936 23.5717 18.6936H23.1547V19.9596H22.4212V16.7644H23.2099C23.6319 16.7644 23.9233 16.8197 24.0791 16.9352C24.2599 17.0709 24.3453 17.3371 24.3453 17.734C24.3453 17.8445 24.3453 17.9149 24.3453 17.9601H24.3403Z" fill="white"/>
</svg>
