<svg width="74" height="35" viewBox="0 0 74 35" fill="none" xmlns="http://www.w3.org/2000/svg">
<path d="M9.6107 22.0517H5.2391V22.5473H6.95585V23.5149C6.95585 23.8806 6.89106 24.1992 6.76716 24.4706C6.63737 24.742 6.47213 24.9603 6.27154 25.1314C6.07095 25.3025 5.83501 25.4382 5.58133 25.5208C5.32174 25.6092 5.06212 25.6505 4.80253 25.6505C4.36595 25.6505 4.01195 25.6033 3.74647 25.5208C3.48688 25.4323 3.22726 25.2789 2.97358 25.0547C2.74939 24.8541 2.56063 24.6122 2.41904 24.329C2.27155 24.0399 2.15941 23.7214 2.07682 23.3733C1.99422 23.0252 1.93534 22.6535 1.89994 22.2641C1.86454 21.8689 1.84679 21.4736 1.84679 21.0783C1.84679 20.5001 1.88216 19.922 1.95885 19.3497C2.02965 18.7892 2.17713 18.2878 2.39542 17.8453C2.60781 17.4146 2.9087 17.0606 3.29218 16.7952C3.66976 16.5356 4.17718 16.3999 4.81434 16.3999C5.34531 16.3999 5.78776 16.4943 6.11814 16.6772C6.46032 16.86 6.73165 17.0901 6.93813 17.3556C7.14462 17.627 7.29802 17.9102 7.39242 18.2052C7.49271 18.5061 7.55766 18.7715 7.59306 18.9957L7.61078 19.1255H8.04144V16.1521H7.61668L7.56944 16.2111C7.51044 16.2878 7.44551 16.3468 7.38651 16.3822C7.36292 16.394 7.29212 16.4294 7.09153 16.4294C6.94994 16.4294 6.82611 16.4058 6.71402 16.3586C6.58422 16.3055 6.44264 16.2465 6.28335 16.1757C6.11816 16.1049 5.91757 16.0459 5.69339 15.9869C5.4633 15.9279 5.17423 15.9043 4.82615 15.9043C4.14769 15.9043 3.53407 16.0341 2.9972 16.2937C2.46623 16.5474 1.99431 16.8836 1.58134 17.2966C1.46334 17.4146 1.31585 17.5739 1.13886 17.7863C0.961871 17.9987 0.784801 18.2642 0.61371 18.5709C0.44262 18.8836 0.30104 19.2494 0.183046 19.6624C0.0650529 20.0813 0.00012207 20.5532 0.00012207 21.0724C0.00012207 21.8453 0.153525 22.5591 0.454408 23.1786C0.755291 23.798 1.13887 24.3408 1.59315 24.7951C2.05922 25.2612 2.54888 25.6033 3.05625 25.8216C3.56362 26.0399 4.14766 26.1461 4.79662 26.1461C5.2273 26.1461 5.59891 26.0989 5.90569 26.0163C6.20657 25.9278 6.47211 25.8275 6.6963 25.7213C6.92049 25.6092 7.10926 25.5149 7.27445 25.4323C7.41605 25.3615 7.55762 25.3202 7.69331 25.3202C7.8349 25.3202 7.89397 25.3438 7.91166 25.3556C7.94706 25.3733 8.01187 25.4205 8.11807 25.5326L8.16531 25.5798H8.54282V22.5532H9.6107V22.0577V22.0517Z" fill="white"/>
<path d="M19.3392 22.8367C19.1386 23.6509 18.8261 24.3057 18.4013 24.7718C17.9824 25.232 17.4159 25.4562 16.6726 25.4562H14.4543V16.6421H15.9351V16.1465H11.3335V16.6421H12.8143V25.4562H11.3335V25.9517H19.7876V22.7246H19.3688L19.3392 22.8426V22.8367Z" fill="white"/>
<path d="M30.407 17.3792C29.9587 16.9249 29.4455 16.5592 28.8732 16.2996C28.3009 16.04 27.7051 15.9043 27.0974 15.9043C26.5251 15.9043 25.9469 16.0341 25.3805 16.2996C24.8141 16.5592 24.301 16.9249 23.8467 17.3792C23.3983 17.8335 23.0207 18.3763 22.7375 18.9957C22.4484 19.6152 22.3009 20.3054 22.3009 21.0311C22.3009 21.686 22.419 22.3349 22.6608 22.9485C22.8968 23.5621 23.2331 24.1107 23.6579 24.5827C24.0826 25.0547 24.5959 25.4323 25.18 25.7154C25.77 25.9986 26.413 26.1461 27.0974 26.1461C27.7818 26.1461 28.4012 25.9986 28.9853 25.7036C29.5634 25.4146 30.0767 25.0252 30.5015 24.5473C30.9322 24.0753 31.2685 23.5267 31.5162 22.9131C31.764 22.2995 31.8879 21.6683 31.8879 21.0311C31.8879 20.3054 31.7522 19.6211 31.4808 18.9957C31.2094 18.3763 30.8495 17.8335 30.4011 17.3733M27.0974 25.6505C26.5428 25.6505 26.0826 25.5561 25.7109 25.3733C25.3451 25.1904 25.0443 24.9072 24.8142 24.5355C24.5782 24.152 24.4072 23.6683 24.301 23.096C24.1948 22.5119 24.1417 21.8158 24.1417 21.0311C24.1417 20.4293 24.1829 19.8335 24.2596 19.273C24.3363 18.7184 24.4838 18.217 24.7021 17.7863C24.9145 17.3615 25.2154 17.0252 25.5989 16.7715C25.9764 16.5238 26.4779 16.394 27.0974 16.394C27.7169 16.394 28.2125 16.5179 28.5959 16.7715C28.9735 17.0252 29.2743 17.3615 29.4926 17.7863C29.7108 18.217 29.8583 18.7184 29.935 19.273C30.0117 19.8394 30.0531 20.4293 30.0531 21.0311C30.0531 21.8217 30 22.5119 29.8938 23.096C29.7935 23.6683 29.6165 24.152 29.3805 24.5355C29.1504 24.9072 28.8436 25.1904 28.4778 25.3733C28.1062 25.5561 27.6402 25.6505 27.0974 25.6505Z" fill="white"/>
<path d="M42.4185 26.0409C42.6132 26.0409 42.7783 26.0291 42.9199 26.0055C43.0556 25.9819 43.1796 25.9465 43.2799 25.9111C43.3802 25.8757 43.4627 25.8285 43.5335 25.7813C43.5925 25.74 43.6456 25.6987 43.6928 25.6633L43.8108 25.5689L43.4864 25.1737L43.3683 25.2917C43.2857 25.3743 43.1972 25.4332 43.091 25.4686C42.9848 25.5099 42.8786 25.5276 42.7843 25.5276C42.5778 25.5276 42.4421 25.4627 42.3536 25.3212C42.2474 25.1501 42.1708 24.9554 42.1177 24.7371C42.0823 24.5955 42.0586 24.4185 42.0468 24.2002C42.035 23.976 42.0233 23.7459 42.0056 23.51C41.9938 23.274 41.976 23.038 41.9524 22.802C41.9289 22.566 41.8876 22.3536 41.8345 22.1648C41.7401 21.8345 41.5689 21.5631 41.333 21.3566C41.1088 21.156 40.861 20.9908 40.5955 20.8728C40.3772 20.7725 40.1649 20.6958 39.9525 20.6486C40.1708 20.5837 40.3596 20.5011 40.5248 20.4067C40.8493 20.2179 41.1089 19.9997 41.28 19.7696C41.4569 19.5336 41.5748 19.3035 41.6279 19.0734C41.681 18.8492 41.7047 18.6722 41.7047 18.5247C41.7047 18.2357 41.6339 17.9289 41.4982 17.6103C41.3625 17.2858 41.1206 16.9908 40.7902 16.7371C40.4245 16.4481 40.0233 16.2652 39.5985 16.2062C39.1914 16.1472 38.7194 16.1177 38.1884 16.1177C38.0822 16.1177 37.9761 16.1177 37.864 16.1236C37.7637 16.1236 37.6575 16.1295 37.5513 16.1295H37.5395C37.4333 16.1413 37.333 16.1472 37.2268 16.1531C37.1265 16.1531 37.0203 16.159 36.9141 16.159H34.2297V16.6545H35.7106V25.4686H34.2297V25.9642H38.8315V25.4686H37.3507V20.9613H38.5306C38.6722 20.9613 38.8493 20.9731 39.0499 20.9908C39.2327 21.0085 39.4097 21.0734 39.5808 21.1737C39.746 21.274 39.8994 21.4392 40.0292 21.6634C40.1589 21.8935 40.2415 22.2179 40.2769 22.6368L40.3714 23.8521C40.4009 24.2002 40.4481 24.507 40.5189 24.7666C40.5897 25.038 40.7076 25.274 40.861 25.4627C41.0202 25.6574 41.2327 25.8049 41.4923 25.8993C41.7459 25.9937 42.0587 26.0409 42.4304 26.0409M39.7637 17.4864C39.8758 17.746 39.9289 18.1 39.9289 18.5424C39.9289 18.9318 39.8875 19.2622 39.8167 19.51C39.7459 19.7519 39.6398 19.9466 39.5101 20.0823C39.3803 20.2179 39.2327 20.3123 39.0499 20.3654C38.8611 20.4244 38.6486 20.4539 38.4127 20.4539H37.3389V16.625C37.4215 16.6191 37.5099 16.6132 37.6102 16.6073C37.7754 16.6073 37.9348 16.6015 38.094 16.6015C38.3123 16.6015 38.5425 16.6251 38.7667 16.6663C38.9791 16.7076 39.1738 16.7902 39.3448 16.92C39.51 17.0439 39.6516 17.2386 39.7637 17.4923" fill="white"/>
<path d="M50.8489 16.1465V16.6421H52.0936L49.8283 20.8603L47.4271 16.6421H48.6483V16.1465H44.2648V16.6421H45.5392L48.4772 21.822V25.4503H46.9964V25.9458H51.5982V25.4503H50.1173V21.3913L52.6541 16.6421H54.011V16.1465H50.8489Z" fill="white"/>
<path d="M3.2387 31.4093H1.13262V29.2441H0.442261V34.1586H1.13262V32.0642H3.2387V34.1586H3.92905V29.2441H3.2387V31.4093Z" fill="white"/>
<path d="M9.63425 29.2441H9.30383V34.1586H9.63425H9.98829H12.4602V33.5037H9.98829V32.0465H12.0885V31.3916H9.98829V29.899H12.4602V29.2441H9.98829H9.63425Z" fill="white"/>
<path d="M18.2827 29.2441H17.5925V34.1586H18.2827V29.2441Z" fill="white"/>
<path d="M25.3154 32.1702H26.3124V32.3885C26.3124 32.7543 26.218 33.0375 26.0351 33.2381C25.8522 33.4445 25.6045 33.5448 25.2977 33.5448C24.9909 33.5448 24.7372 33.4504 24.5484 33.2557C24.3596 33.0611 24.2652 32.8074 24.2652 32.4888V31.0375C24.2652 30.6894 24.3596 30.4062 24.5425 30.1938C24.7254 29.9814 24.9732 29.8752 25.28 29.8752C25.4864 29.8752 25.6811 29.9401 25.864 30.0758C26.0469 30.2115 26.1709 30.4062 26.2299 30.6599H26.979C26.92 30.3649 26.8139 30.1112 26.6546 29.8929C26.4953 29.6747 26.2947 29.5036 26.0587 29.3797C25.8228 29.2558 25.5631 29.1968 25.274 29.1968C24.926 29.1968 24.6251 29.2735 24.3655 29.4269C24.1059 29.5803 23.9053 29.7926 23.7637 30.0699C23.6221 30.3472 23.5514 30.6658 23.5514 31.0375V32.4888C23.5514 32.8369 23.6221 33.1437 23.7696 33.4032C23.9171 33.6628 24.1177 33.8634 24.3773 34.005C24.6369 34.1466 24.9437 34.2174 25.2918 34.2174C25.6398 34.2174 25.9407 34.1407 26.1944 33.9873C26.454 33.8339 26.6546 33.6215 26.7962 33.3442C26.9378 33.067 27.0085 32.7425 27.0085 32.3767V31.5154H25.3036V32.1702H25.3154Z" fill="white"/>
<path d="M35.085 31.4093H32.9788V29.2441H32.2885V34.1586H32.9788V32.0642H35.085V34.1586H35.7752V29.2441H35.085V31.4093Z" fill="white"/>
<path d="M40.4717 29.899H41.8582V34.1586H42.5484V29.899H43.9406V29.2441H40.4717V29.899Z" fill="white"/>
<path d="M51.4332 31.7336C51.2857 31.6392 51.1204 31.5625 50.9435 31.5154C50.7606 31.4623 50.5836 31.421 50.4007 31.3856C50.2001 31.3443 50.0112 31.303 49.8401 31.2558C49.6632 31.2086 49.5216 31.1378 49.4154 31.0434C49.3092 30.949 49.2502 30.8074 49.2502 30.6245C49.2502 30.3767 49.3447 30.1879 49.5276 30.0522C49.7164 29.9165 49.9759 29.8516 50.3121 29.8516C50.6838 29.8516 51.0615 29.9873 51.4332 30.2646L51.8284 29.716C51.5865 29.5449 51.3446 29.4151 51.0909 29.3266C50.8373 29.244 50.5776 29.1968 50.3181 29.1968C49.7635 29.1968 49.3328 29.3207 49.032 29.5744C48.7252 29.828 48.5777 30.182 48.5777 30.6363C48.5777 30.9313 48.6249 31.1555 48.7252 31.3266C48.8196 31.4976 48.9493 31.6274 49.1086 31.7159C49.2679 31.8044 49.439 31.8693 49.6278 31.9165C49.8166 31.9578 49.9995 31.9991 50.1824 32.0345C50.3712 32.064 50.5482 32.1053 50.7134 32.1525C50.8727 32.1997 51.0025 32.2764 51.1028 32.3708C51.203 32.4711 51.2502 32.6127 51.2502 32.8015C51.2502 33.0434 51.15 33.2321 50.9553 33.3619C50.7606 33.4917 50.4833 33.5625 50.1294 33.5625C49.8639 33.5625 49.6219 33.5212 49.3977 33.4386C49.1735 33.356 48.9671 33.2381 48.7783 33.0729L48.3477 33.5979C48.5836 33.7985 48.8549 33.9519 49.1499 34.0522C49.4449 34.1525 49.7754 34.2056 50.1294 34.2056C50.7016 34.2056 51.144 34.0817 51.4626 33.8339C51.7752 33.5861 51.9346 33.238 51.9346 32.7838C51.9346 32.5065 51.8874 32.2941 51.7989 32.123C51.7104 31.9578 51.5925 31.8221 51.445 31.7277" fill="white"/>
<mask id="mask0_79_10776" style="mask-type:luminance" maskUnits="userSpaceOnUse" x="56" y="21" width="10" height="14">
<path d="M65.0084 34.2118V27.2324L56.8373 21.0791L65.0084 34.2118Z" fill="white"/>
</mask>
<g mask="url(#mask0_79_10776)">
<path d="M58.2897 17.852L51.6538 31.7207L63.4151 37.3482L70.0509 23.4794L58.2897 17.852Z" fill="url(#paint0_linear_79_10776)"/>
</g>
<mask id="mask1_79_10776" style="mask-type:luminance" maskUnits="userSpaceOnUse" x="65" y="21" width="9" height="14">
<path d="M65.0082 27.2324V34.2118L73.1732 21.0791L65.0082 27.2324Z" fill="white"/>
</mask>
<g mask="url(#mask1_79_10776)">
<path d="M69.2873 17.0332L58.4789 27.4126L68.9564 38.3232L79.7648 27.9438L69.2873 17.0332Z" fill="url(#paint1_linear_79_10776)"/>
</g>
<mask id="mask2_79_10776" style="mask-type:luminance" maskUnits="userSpaceOnUse" x="62" y="1" width="12" height="21">
<path d="M62.7603 6.59517C64.4005 9.00223 68.6423 15.2205 68.6423 15.2205C68.6423 15.2205 70.4888 17.7101 67.1201 20.2411L70.017 21.775L71.9403 20.3237C71.9403 20.3237 74.8959 18.2529 71.1378 12.7721L63.5332 1.66895C63.5332 1.66895 61.3208 4.48309 62.7603 6.58927" fill="white"/>
</mask>
<g mask="url(#mask2_79_10776)">
<path d="M68.4185 -5.07245L51.308 11.3589L67.866 28.6013L84.9765 12.17L68.4185 -5.07245Z" fill="url(#paint2_linear_79_10776)"/>
</g>
<mask id="mask3_79_10776" style="mask-type:luminance" maskUnits="userSpaceOnUse" x="63" y="0" width="3" height="5">
<path d="M63.5337 1.6814L65.5513 4.63123C63.7932 2.05308 64.8316 0 64.8316 0C63.982 1.04424 63.5337 1.6755 63.5337 1.6755" fill="white"/>
</mask>
<g mask="url(#mask3_79_10776)">
<path d="M64.6116 -0.980829L61.2457 2.25146L64.5271 5.66846L67.893 2.43617L64.6116 -0.980829Z" fill="url(#paint3_linear_79_10776)"/>
</g>
<mask id="mask4_79_10776" style="mask-type:luminance" maskUnits="userSpaceOnUse" x="62" y="18" width="10" height="8">
<path d="M62.5541 23.7393L65.0084 25.5682L71.9464 20.3293L69.8579 18.1582L62.5541 23.7393Z" fill="white"/>
</mask>
<g mask="url(#mask4_79_10776)">
<path d="M67.4691 13.5068L58.8862 21.749L67.0917 30.2936L75.6746 22.0514L67.4691 13.5068Z" fill="url(#paint4_linear_79_10776)"/>
</g>
<mask id="mask5_79_10776" style="mask-type:luminance" maskUnits="userSpaceOnUse" x="57" y="11" width="5" height="8">
<path d="M58.3712 14.8137C59.209 16.0349 60.2355 17.5393 60.2355 17.5393L60.8727 18.7606C62.619 17.4862 61.7929 16.4715 61.7929 16.4715L58.6721 11.9229C58.6721 11.9229 57.3624 13.3447 58.3771 14.8137" fill="white"/>
</mask>
<g mask="url(#mask5_79_10776)">
<path d="M60.1262 9.32353L53.973 15.2324L59.9105 21.4154L66.0637 15.5065L60.1262 9.32353Z" fill="url(#paint5_linear_79_10776)"/>
</g>
<mask id="mask6_79_10776" style="mask-type:luminance" maskUnits="userSpaceOnUse" x="57" y="17" width="4" height="4">
<path d="M57.8048 20.1529L58.4243 20.619L60.8728 18.7547L60.6426 17.9229L57.8048 20.1529Z" fill="white"/>
</mask>
<g mask="url(#mask6_79_10776)">
<path d="M59.4314 16.4208L56.4868 19.2485L59.3064 22.1847L62.251 19.3569L59.4314 16.4208Z" fill="url(#paint6_linear_79_10776)"/>
</g>
<mask id="mask7_79_10776" style="mask-type:luminance" maskUnits="userSpaceOnUse" x="58" y="11" width="2" height="2">
<path d="M58.4832 12.158L58.6955 12.3055L59.2972 12.8365C58.784 12.0872 59.1026 11.2554 59.1026 11.2554L58.4832 12.1639V12.158Z" fill="white"/>
</mask>
<g mask="url(#mask7_79_10776)">
<path d="M58.9345 10.8753L57.7175 12.0439L58.8985 13.2737L60.1154 12.1051L58.9345 10.8753Z" fill="url(#paint7_linear_79_10776)"/>
</g>
<mask id="mask8_79_10776" style="mask-type:luminance" maskUnits="userSpaceOnUse" x="59" y="7" width="9" height="13">
<path d="M60.4479 11.2557C61.8934 13.3796 64.5246 17.1849 64.5246 17.1849L65.2384 19.9872C68.2472 17.9046 66.5481 15.6038 66.5481 15.6038L60.8255 7.20264C60.8255 7.20264 59.1441 9.33242 60.4479 11.2498" fill="white"/>
</mask>
<g mask="url(#mask8_79_10776)">
<path d="M63.9106 2.69372L52.7874 13.3755L63.5427 24.5754L74.666 13.8936L63.9106 2.69372Z" fill="url(#paint8_linear_79_10776)"/>
</g>
<mask id="mask9_79_10776" style="mask-type:luminance" maskUnits="userSpaceOnUse" x="59" y="16" width="7" height="7">
<path d="M59.5453 21.4275L61.4686 22.8788L65.7988 19.5632L65.5865 16.814L59.5453 21.4275Z" fill="white"/>
</mask>
<g mask="url(#mask9_79_10776)">
<path d="M62.8251 13.7222L56.54 19.7578L62.5715 26.0386L68.8566 20.003L62.8251 13.7222Z" fill="url(#paint9_linear_79_10776)"/>
</g>
<mask id="mask10_79_10776" style="mask-type:luminance" maskUnits="userSpaceOnUse" x="59" y="16" width="2" height="4">
<path d="M59.7343 16.801C59.7343 16.801 60.578 18.0399 59.168 19.0841L60.9438 17.7862L60.0529 16.6299L59.7343 16.801Z" fill="white"/>
</mask>
<g mask="url(#mask10_79_10776)">
<path d="M60.1078 15.7728L57.9589 17.8364L60.0347 19.9981L62.1837 17.9345L60.1078 15.7728Z" fill="url(#paint10_linear_79_10776)"/>
</g>
<mask id="mask11_79_10776" style="mask-type:luminance" maskUnits="userSpaceOnUse" x="60" y="6" width="2" height="3">
<path d="M60.8015 7.22663L60.8251 7.58061L61.5921 8.33576C60.8606 7.26793 61.3267 6.43018 61.3267 6.43018L60.8015 7.22073V7.22663Z" fill="white"/>
</mask>
<g mask="url(#mask11_79_10776)">
<path d="M61.2391 6.07568L59.8774 7.3833L61.2096 8.77052L62.5713 7.4629L61.2391 6.07568Z" fill="url(#paint11_linear_79_10776)"/>
</g>
<mask id="mask12_79_10776" style="mask-type:luminance" maskUnits="userSpaceOnUse" x="62" y="15" width="3" height="5">
<path d="M62.6367 19.0671L64.9257 17.3739L63.7753 15.8753L63.2856 15.3975C63.2856 15.3975 64.6603 17.5036 62.6367 19.0671Z" fill="white"/>
</mask>
<g mask="url(#mask12_79_10776)">
<path d="M63.862 14.285L60.8364 17.1904L63.7664 20.2415L66.7919 17.336L63.862 14.285Z" fill="url(#paint12_linear_79_10776)"/>
</g>
<defs>
<linearGradient id="paint0_linear_79_10776" x1="64.7061" y1="31.8411" x2="75.1217" y2="36.8247" gradientUnits="userSpaceOnUse">
<stop stop-color="#DDAD76"/>
<stop offset="0.14" stop-color="#D2A46B"/>
<stop offset="0.7" stop-color="#AF8748"/>
<stop offset="1" stop-color="#A27D3B"/>
</linearGradient>
<linearGradient id="paint1_linear_79_10776" x1="53.8031" y1="20.9706" x2="75.4189" y2="43.4799" gradientUnits="userSpaceOnUse">
<stop stop-color="#DDAD76"/>
<stop offset="0.14" stop-color="#D2A46B"/>
<stop offset="0.7" stop-color="#AF8748"/>
<stop offset="1" stop-color="#A27D3B"/>
</linearGradient>
<linearGradient id="paint2_linear_79_10776" x1="61.2892" y1="13.8179" x2="82.9049" y2="36.3271" gradientUnits="userSpaceOnUse">
<stop stop-color="#DDAD76"/>
<stop offset="0.13" stop-color="#D5A46D"/>
<stop offset="0.69" stop-color="#B08849"/>
<stop offset="1" stop-color="#A27D3B"/>
</linearGradient>
<linearGradient id="paint3_linear_79_10776" x1="63.8316" y1="11.1251" x2="85.4474" y2="33.6344" gradientUnits="userSpaceOnUse">
<stop stop-color="#DDAD76"/>
<stop offset="0.14" stop-color="#D2A46B"/>
<stop offset="0.7" stop-color="#AF8748"/>
<stop offset="1" stop-color="#A27D3B"/>
</linearGradient>
<linearGradient id="paint4_linear_79_10776" x1="55.8962" y1="19.0294" x2="77.512" y2="41.5387" gradientUnits="userSpaceOnUse">
<stop stop-color="#DDAD76"/>
<stop offset="0.14" stop-color="#D2A46B"/>
<stop offset="0.7" stop-color="#AF8748"/>
<stop offset="1" stop-color="#A27D3B"/>
</linearGradient>
<linearGradient id="paint5_linear_79_10776" x1="55.3226" y1="19.5759" x2="76.9383" y2="42.0851" gradientUnits="userSpaceOnUse">
<stop stop-color="#DDAD76"/>
<stop offset="0.14" stop-color="#D2A46B"/>
<stop offset="0.7" stop-color="#AF8748"/>
<stop offset="1" stop-color="#A27D3B"/>
</linearGradient>
<linearGradient id="paint6_linear_79_10776" x1="52.8695" y1="21.8018" x2="74.4852" y2="44.311" gradientUnits="userSpaceOnUse">
<stop stop-color="#DDAD76"/>
<stop offset="0.14" stop-color="#D2A46B"/>
<stop offset="0.7" stop-color="#AF8748"/>
<stop offset="1" stop-color="#A27D3B"/>
</linearGradient>
<linearGradient id="paint7_linear_79_10776" x1="51.5589" y1="-1.23422" x2="73.1587" y2="21.2584" gradientUnits="userSpaceOnUse">
<stop stop-color="#DDAD76"/>
<stop offset="0.14" stop-color="#D2A46B"/>
<stop offset="0.7" stop-color="#AF8748"/>
<stop offset="1" stop-color="#A27D3B"/>
</linearGradient>
<linearGradient id="paint8_linear_79_10776" x1="58.1968" y1="16.8467" x2="79.8125" y2="39.3559" gradientUnits="userSpaceOnUse">
<stop stop-color="#DDAD76"/>
<stop offset="0.14" stop-color="#D2A46B"/>
<stop offset="0.7" stop-color="#AF8748"/>
<stop offset="1" stop-color="#A27D3B"/>
</linearGradient>
<linearGradient id="paint9_linear_79_10776" x1="54.4823" y1="20.3717" x2="76.0981" y2="42.8809" gradientUnits="userSpaceOnUse">
<stop stop-color="#DDAD76"/>
<stop offset="0.14" stop-color="#D2A46B"/>
<stop offset="0.7" stop-color="#AF8748"/>
<stop offset="1" stop-color="#A27D3B"/>
</linearGradient>
<linearGradient id="paint10_linear_79_10776" x1="53.5577" y1="20.9135" x2="75.1733" y2="43.4226" gradientUnits="userSpaceOnUse">
<stop stop-color="#DDAD76"/>
<stop offset="0.14" stop-color="#D2A46B"/>
<stop offset="0.7" stop-color="#AF8748"/>
<stop offset="1" stop-color="#A27D3B"/>
</linearGradient>
<linearGradient id="paint11_linear_79_10776" x1="59.6627" y1="15.2411" x2="81.2784" y2="37.7503" gradientUnits="userSpaceOnUse">
<stop stop-color="#DDAD76"/>
<stop offset="0.14" stop-color="#D2A46B"/>
<stop offset="0.7" stop-color="#AF8748"/>
<stop offset="1" stop-color="#A27D3B"/>
</linearGradient>
<linearGradient id="paint12_linear_79_10776" x1="56.2468" y1="18.6653" x2="77.8625" y2="41.1745" gradientUnits="userSpaceOnUse">
<stop stop-color="#DDAD76"/>
<stop offset="0.14" stop-color="#D2A46B"/>
<stop offset="0.7" stop-color="#AF8748"/>
<stop offset="1" stop-color="#A27D3B"/>
</linearGradient>
</defs>
</svg>
