<svg width="63" height="39" viewBox="0 0 63 39" fill="none" xmlns="http://www.w3.org/2000/svg">
<mask id="mask0_79_10728" style="mask-type:luminance" maskUnits="userSpaceOnUse" x="0" y="23" width="44" height="16">
<path d="M42.9165 37.7602H43.1455C43.2281 37.7602 43.2979 37.7793 43.3424 37.8111C43.3869 37.8492 43.4061 37.9001 43.4061 37.9637C43.4061 38.0272 43.3806 38.0845 43.3424 38.1162C43.2979 38.1544 43.2345 38.1735 43.1455 38.1735H42.9165V37.7538V37.7602ZM42.783 37.6394V38.5677H42.9165V38.2879H43.1455C43.1455 38.2879 43.1771 38.2879 43.2026 38.2879L43.4061 38.574H43.5523L43.3299 38.2625C43.3934 38.2371 43.4443 38.2053 43.4824 38.1544C43.5206 38.1035 43.5332 38.04 43.5332 37.97C43.5332 37.8683 43.5015 37.792 43.4315 37.7348C43.3616 37.6775 43.2663 37.6458 43.1455 37.6458H42.783V37.6394ZM42.4269 38.1099C42.4269 37.7157 42.7513 37.3914 43.1518 37.3914C43.5524 37.3914 43.8766 37.7093 43.8766 38.1099C43.8766 38.5104 43.5524 38.822 43.1518 38.822C42.7513 38.822 42.4269 38.5041 42.4269 38.1099ZM42.3571 38.1099C42.3571 38.5359 42.7131 38.8919 43.1455 38.8919C43.5778 38.8919 43.9338 38.5422 43.9338 38.1099C43.9338 37.6775 43.5778 37.3279 43.1455 37.3279C42.7131 37.3279 42.3571 37.6775 42.3571 38.1099ZM11.5399 23.9888L7.744 34.0726L4.46333 36.0817L3.56054 34.6257L7.57869 23.9888H1.25887L2.58775 26.1696L0 33.0298L3.57963 38.8728L12.0738 33.5957L14.5979 26.9007L12.824 23.9824H11.5335L11.5399 23.9888ZM14.9158 23.9888L16.41 26.4112L11.705 38.8856H15.8632L18.9914 30.6265L21.7063 35.058L27.6064 31.3958L24.7771 38.8792H28.9734L33.5512 26.7545L32.3114 24.739L23.3466 30.2895L19.4936 23.9824H14.9031L14.9158 23.9888Z" fill="white"/>
</mask>
<g mask="url(#mask0_79_10728)">
<path d="M0.379886 20.574L-1.05579 38.8159L43.7694 42.3437L45.2051 24.1018L0.379886 20.574Z" fill="white"/>
</g>
<mask id="mask1_79_10728" style="mask-type:luminance" maskUnits="userSpaceOnUse" x="30" y="0" width="33" height="39">
<path d="M35.6236 26.5002L30.9441 38.8855H35.1341L40.7546 23.9887H34.0851L35.6236 26.5002ZM38.9616 0.0826571L39.1778 4.78757C39.1905 5.10547 39.3114 5.41066 39.5148 5.63319L49.2108 16.5753C49.3061 16.6834 49.3187 16.8423 49.2615 16.9759C49.2488 17.0077 49.2362 17.0394 49.2108 17.0649C49.1535 17.1348 49.0708 17.1666 48.9945 17.1666C48.9182 17.1666 48.8419 17.1348 48.7847 17.0649L48.6703 16.9377L39.3875 6.45973C39.343 6.40887 39.2604 6.44701 39.2604 6.5233L39.4003 9.51793C39.4193 9.89305 39.5657 10.2427 39.8136 10.4907L45.3132 16.0667C45.4404 16.1938 45.4531 16.41 45.3387 16.5499C45.2815 16.6262 45.2051 16.6643 45.1225 16.6643C45.0462 16.6643 44.97 16.6389 44.9128 16.5817L39.6038 11.1964C39.5529 11.1456 39.4766 11.1964 39.483 11.2664L39.6547 14.8014C39.6737 15.1638 39.8326 15.539 40.0679 15.7869C41.0915 16.8551 45.7329 21.6871 46.6676 22.6981C46.9346 22.9905 47.208 23.3021 47.4241 23.5818C48.0091 24.3321 48.2444 25.0124 48.2571 25.7054C48.3016 27.829 46.6038 29.3549 44.1306 30.582C42.3567 31.4594 38.8599 32.6293 38.968 38.8919C40.6783 36.1897 43.3359 34.9054 45.6311 33.9263C48.0027 32.909 50.9782 31.4975 52.4723 30.3722C53.833 29.3485 54.9012 28.2613 55.5497 26.8562C56.5352 25.0505 57.0818 24.0014 57.6668 22.7553C58.8557 20.2121 60.7759 18.5209 62.2827 18.5145C62.3272 18.5145 62.3463 18.4573 62.3145 18.4255C61.2909 17.4718 59.9493 16.8932 58.4679 16.8932C57.9593 16.8932 57.4634 16.9631 56.9866 17.0967C55.8867 17.4018 54.8057 18.1457 54.0618 19.0041L53.5532 18.3428C53.2925 17.9804 39.0824 0.0317919 39.0824 0.0317919C39.0696 0.0127179 39.0507 0 39.0252 0C38.9871 0 38.9489 0.0317896 38.9489 0.0890116" fill="white"/>
</mask>
<g mask="url(#mask1_79_10728)">
<path d="M31.2368 -2.4498L28.0013 38.6611L62.2541 41.3569L65.4896 0.245945L31.2368 -2.4498Z" fill="white"/>
</g>
<mask id="mask2_79_10728" style="mask-type:luminance" maskUnits="userSpaceOnUse" x="54" y="18" width="6" height="9">
<path d="M54.9331 18.1514C54.6597 18.3739 54.31 18.7172 54.0684 18.997C54.4308 19.4738 54.8567 20.027 54.8567 20.027C55.6324 21.0761 56.4145 22.869 56.1538 24.7573C56.0457 25.5394 55.8423 26.226 55.5498 26.8555C56.5353 25.0498 57.082 24.0007 57.6669 22.7546C58.1183 21.7945 58.6651 20.9553 59.2628 20.2877C58.3727 18.9906 56.9103 18.145 55.2636 18.145C55.1491 18.145 55.0412 18.145 54.9331 18.1577" fill="white"/>
</mask>
<g mask="url(#mask2_79_10728)">
<path d="M54.2079 17.7539L53.4945 26.8179L59.3385 27.2778L60.0519 18.2139L54.2079 17.7539Z" fill="white"/>
</g>
</svg>
