<svg width="84" height="26" viewBox="0 0 84 26" fill="none" xmlns="http://www.w3.org/2000/svg">
<path d="M25.9 24.0839L19.9794 20.7868L10.1591 22.1992C9.8876 22.2385 9.61608 22.2607 9.34937 22.2754C9.26527 22.2803 9.18117 22.2803 9.09708 22.2803C8.91206 22.2853 8.72944 22.2853 8.54923 22.2779C8.45552 22.2754 8.36422 22.268 8.27291 22.2631C8.09751 22.2508 7.9245 22.2311 7.7515 22.209C7.6674 22.1967 7.5833 22.1868 7.4992 22.1745C7.28776 22.1401 7.08111 22.0958 6.87687 22.0441C6.83843 22.0343 6.79758 22.0294 6.76154 22.0171C6.51645 21.9506 6.27617 21.8744 6.03829 21.7858C5.97101 21.7612 5.90614 21.7317 5.83886 21.7046C5.66826 21.6357 5.50247 21.5643 5.33907 21.4856C5.19971 21.4192 5.06035 21.3527 4.92579 21.2765L10.8463 24.5735C10.9448 24.6277 11.0458 24.6818 11.1467 24.7335C11.1827 24.7531 11.2236 24.7654 11.2596 24.7827C11.423 24.8614 11.5888 24.9328 11.7594 25.0016C11.8267 25.0287 11.8915 25.0582 11.9612 25.0828C12.1967 25.1714 12.437 25.2477 12.6821 25.3141C12.6869 25.3141 12.6917 25.3191 12.6989 25.3191C12.7325 25.3289 12.7686 25.3314 12.7998 25.3412C13.0041 25.3929 13.2107 25.4372 13.4221 25.4716C13.5062 25.4864 13.5903 25.4962 13.672 25.506C13.845 25.5307 14.018 25.5479 14.1934 25.5602C14.2848 25.5676 14.3761 25.5725 14.4698 25.5749C14.65 25.5823 14.8326 25.5823 15.0176 25.5774C15.1017 25.5774 15.1834 25.5774 15.2699 25.5725C15.5366 25.5577 15.8057 25.5356 16.0797 25.4962L25.9 24.0839Z" fill="white"/>
<path d="M23.0574 5.97714C22.7955 5.72617 22.524 5.49489 22.2405 5.28329C21.9569 5.07168 21.6614 4.88223 21.3562 4.71245L15.4357 1.4154C16.046 1.75494 16.6155 2.17815 17.1369 2.68009C18.9895 4.46148 20.0034 7.03515 19.9986 9.93361L19.9794 20.7868L25.9 24.0839L25.9192 13.2307C25.924 10.3347 24.91 7.75854 23.0574 5.97714Z" fill="white"/>
<path d="M23.3241 5.6499C22.7619 5.10859 22.1444 4.65832 21.486 4.29909C21.51 4.31139 21.5364 4.32369 21.5581 4.336L15.6375 1.03894C15.5366 0.98235 15.4357 0.93068 15.3348 0.87901C15.2939 0.856865 15.2483 0.842102 15.2074 0.822419C15.0464 0.746143 14.8855 0.674789 14.7197 0.608356C14.6404 0.57637 14.5635 0.541923 14.4842 0.512397C14.2679 0.433661 14.0493 0.362307 13.8282 0.300795C13.8018 0.293413 13.7778 0.283571 13.7537 0.27619C13.7513 0.27619 13.7465 0.27619 13.7417 0.27619C13.487 0.209757 13.2275 0.155626 12.9632 0.111337C12.8839 0.0990347 12.8046 0.0916532 12.7277 0.0793508C12.5379 0.0522854 12.3481 0.0326015 12.1559 0.020299C12.0621 0.0129176 11.9684 0.00799659 11.8747 0.0055361C11.6825 -0.00184537 11.4903 -0.00184537 11.2981 0.0055361C11.2116 0.0055361 11.1275 0.0055361 11.041 0.0129176C10.7646 0.0276805 10.4859 0.0522854 10.2048 0.0916532C9.9765 0.12364 9.74824 0.167928 9.51997 0.217138C9.4647 0.229441 9.40944 0.241743 9.35418 0.254045C9.12831 0.305716 8.90485 0.364768 8.68379 0.433661C8.67178 0.436122 8.66216 0.441043 8.65015 0.443503C8.4363 0.509936 8.22726 0.586212 8.01821 0.664947C7.96535 0.684631 7.91249 0.706776 7.85963 0.72646C7.64337 0.812577 7.42952 0.906075 7.21807 1.00696C7.21327 1.00696 7.21087 1.00942 7.20606 1.01188C7.19645 1.0168 7.18684 1.02418 7.17482 1.0291C6.92253 1.15212 6.67504 1.28499 6.42995 1.4277C6.40352 1.44246 6.37709 1.45722 6.34826 1.47445C6.10797 1.61716 5.8725 1.77217 5.63943 1.93456C5.6178 1.94932 5.59377 1.96409 5.56974 1.97885C5.54812 1.99361 5.5289 2.01083 5.50967 2.0256C5.32225 2.16092 5.13724 2.29871 4.95703 2.44388C4.94021 2.45864 4.92339 2.47341 4.90416 2.48817C4.73837 2.6235 4.57738 2.76374 4.4188 2.90891C4.39477 2.93106 4.37074 2.95074 4.34671 2.97043C4.32028 2.99503 4.29625 3.01964 4.27222 3.04424C4.14728 3.16234 4.02233 3.28291 3.89979 3.40839C3.86134 3.4453 3.8229 3.48221 3.78686 3.52158C3.63067 3.68397 3.4793 3.84882 3.33032 4.02105C3.32311 4.0309 3.3135 4.03828 3.30629 4.04812C3.20057 4.17114 3.09725 4.29417 2.99633 4.42211C2.79449 4.67308 2.60467 4.9339 2.42206 5.19717C2.40764 5.21685 2.39082 5.23654 2.3764 5.25622C2.3692 5.26852 2.35958 5.28083 2.35238 5.29313C2.21782 5.48997 2.09047 5.68927 1.96793 5.89349C1.93909 5.94024 1.91266 5.98699 1.88623 6.03374C1.78771 6.19859 1.694 6.3659 1.6051 6.53321C1.58588 6.56766 1.56666 6.59965 1.54984 6.63409C1.53782 6.65378 1.53061 6.67592 1.5186 6.69807C1.39125 6.94166 1.27351 7.19017 1.16058 7.44114C1.14136 7.48788 1.12213 7.53217 1.10051 7.57892C0.98998 7.83235 0.886659 8.0907 0.792949 8.34906C0.790546 8.35644 0.785741 8.36382 0.783338 8.3712C0.783338 8.37366 0.783338 8.37612 0.780935 8.38104C0.744893 8.47946 0.713656 8.57788 0.68242 8.6763C0.655989 8.7575 0.627155 8.83623 0.600724 8.91743C0.569487 9.01339 0.543057 9.11181 0.516626 9.21023C0.492597 9.29388 0.466166 9.37754 0.444541 9.4612C0.41811 9.55962 0.396485 9.6605 0.372457 9.75892C0.353234 9.84257 0.329206 9.92623 0.312386 10.0099C0.290761 10.1132 0.271538 10.2141 0.249913 10.3174C0.233093 10.3986 0.216274 10.4823 0.201857 10.5635C0.182634 10.6767 0.165815 10.7899 0.148995 10.903C0.136981 10.9769 0.124967 11.0482 0.115356 11.122C0.100939 11.2377 0.0889246 11.3558 0.0769106 11.4714C0.0697021 11.5428 0.0600909 11.6117 0.0528824 11.683C0.0432712 11.7987 0.0360627 11.9143 0.0288543 12.0299C0.0240487 12.1013 0.0168402 12.1751 0.0144374 12.2465C0.00482614 12.4335 0.00242332 12.6229 2.05109e-05 12.8099C-0.00718793 16.8131 1.88623 20.0634 4.73597 21.6505L10.6565 24.9475C10.6253 24.9303 10.5964 24.9106 10.5652 24.8909C12.1559 25.8038 14.0517 26.1974 16.0869 25.9046L26.2796 24.4382L26.3012 13.1741C26.306 10.1649 25.2512 7.49281 23.3313 5.64744L23.3241 5.6499ZM25.9 24.0839L16.0797 25.4962C10.6709 26.2737 6.27617 22.0417 6.28578 16.0553C6.29059 13.1593 7.31659 10.2904 9.17637 7.97506C11.0337 5.65728 13.499 4.17607 16.1181 3.79715C18.7468 3.41824 21.2073 4.19329 23.055 5.97714C24.9076 7.75854 25.9216 10.3322 25.9168 13.2307L25.8976 24.0839H25.9Z" fill="white"/>
<path d="M31.7388 15.9569C31.734 15.92 31.7027 15.8462 31.6979 15.7477C31.7652 15.7847 31.7364 15.8905 31.7388 15.9569Z" fill="white"/>
<path d="M84 15.7896H83.9592C83.8414 15.578 83.8414 15.1622 83.9592 14.9505H84V15.7896Z" fill="white"/>
<path d="M83.9592 14.9505C83.9712 15.2163 83.9712 15.5238 83.9592 15.7896C83.7982 19.4655 79.8792 21.7612 76.6138 20.3095C72.7957 18.6142 72.3488 13.3168 75.7559 10.8907C79.0334 8.55574 83.7813 10.8612 83.9592 14.9481V14.9505ZM78.5048 11.8602C75.8617 12.0176 74.408 15.1154 75.9001 17.352C77.2481 19.372 80.2612 19.3573 81.578 17.3102C83.1374 14.8866 81.3305 11.6929 78.5048 11.8602Z" fill="white"/>
<path d="M53.4458 16.3752C53.4482 16.3407 53.4458 16.3014 53.4867 16.2915C53.4819 16.326 53.4867 16.3653 53.4458 16.3752Z" fill="white"/>
<path d="M56.9275 19.5197V25.7447C56.9275 25.7447 56.8698 25.8087 56.865 25.8087H55.1038C55.0701 25.8087 55.0317 25.7078 55.0413 25.6635C55.1614 22.2705 54.8875 18.7717 55.0413 15.391C55.2551 10.6619 60.5029 8.12761 63.9317 11.4099C68.485 15.7699 63.1075 23.2645 57.6531 20.0167L56.9275 19.5221V19.5197ZM60.2362 11.8602C57.7445 11.9217 56.1802 14.6454 57.2663 16.9288C58.4365 19.3917 61.9398 19.5418 63.2829 17.1576C64.6357 14.7611 62.9393 11.7913 60.2362 11.8602Z" fill="white"/>
<path d="M69.0929 20.777H67.3125C67.2788 20.777 67.2404 20.6761 67.25 20.6318C67.3653 18.3977 67.1034 16.0135 67.2524 13.7966C67.447 10.8957 70.6139 8.90759 73.1225 10.4306C73.2282 10.4946 73.5406 10.6718 73.5141 10.8095L72.5386 12.2046C71.5678 11.6953 70.4169 11.6756 69.6504 12.559C69.3861 12.8616 69.0977 13.4743 69.0977 13.8802V20.7745L69.0929 20.777Z" fill="white"/>
<path d="M39.8074 11.3878L39.8483 11.4296C40.0838 11.5723 40.2015 11.7322 40.3817 11.9315L40.6268 12.2243C41.2299 13.0215 41.6047 13.927 41.6504 14.9481C41.6648 16.7664 41.672 18.5847 41.6672 20.4055C41.3452 20.4448 41.0113 20.4571 40.6677 20.4399C40.3985 20.3784 40.1919 20.2554 40.0525 20.0019C40.0309 19.9626 39.93 19.7239 39.93 19.7067V15.0957C39.93 15.0121 39.8363 14.5519 39.8074 14.4461L39.7666 14.3625C39.6441 13.9713 39.3605 13.4718 39.1106 13.147L38.8247 12.8542C37.8564 12.0422 36.5156 11.7888 35.343 12.3104L35.3022 12.3523C34.5837 12.6992 33.9566 13.3562 33.6634 14.114L33.6226 14.1976C33.3919 14.8694 33.3871 15.8732 33.6226 16.5449L33.6634 16.6286C33.798 16.9632 34.0359 17.2979 34.2377 17.5931C34.8384 18.2845 35.7131 18.688 36.6117 18.7274C37.246 18.693 37.8876 18.693 38.5364 18.7225C39.3605 18.9095 39.2428 19.7608 39.2332 20.4399C39.2236 20.4571 39.2115 20.4596 39.1947 20.4596C38.4282 20.5211 37.2436 20.526 36.4868 20.4399C35.4608 20.3218 34.6366 20.0413 33.786 19.4754C33.1204 18.9907 32.7576 18.5601 32.3515 17.8416L32.2698 17.7161C31.9454 17.0887 31.8109 16.668 31.7364 15.9544L31.6955 15.7453C31.6523 14.953 31.7316 14.3896 31.9815 13.6489L32.0223 13.5653C32.0824 13.4004 32.1088 13.3094 32.1857 13.147L32.2266 13.0634C32.3083 12.8985 32.3659 12.7583 32.4717 12.6032L32.5533 12.5196C32.7744 12.0915 33.0363 11.8651 33.3727 11.5551C33.4424 11.4714 33.5169 11.3902 33.6178 11.3459C34.8192 10.3691 36.2321 10.032 37.7554 10.3593C38.2937 10.4749 39.4711 10.935 39.8026 11.3878H39.8074Z" fill="white"/>
<path d="M39.2332 20.4424C39.2284 20.5014 39.1731 20.4817 39.1323 20.4866C38.5075 20.5654 37.1667 20.5285 36.506 20.4866C35.5232 20.4251 34.5765 20.0561 33.7836 19.4778C33.995 19.5049 34.1656 19.6894 34.3555 19.7928C34.9369 20.1077 35.5761 20.2923 36.2248 20.3932L39.2308 20.4399L39.2332 20.4424Z" fill="white"/>
<path d="M38.5388 18.7225C38.1351 18.7274 37.7314 18.7176 37.3277 18.7225C37.1331 18.7225 36.9361 18.7741 36.7126 18.7668C35.8428 18.7397 34.7375 18.3288 34.2353 17.5907C34.824 18.1566 35.5593 18.6093 36.3858 18.6807C37.0514 18.7372 37.9092 18.5798 38.5364 18.7225H38.5388Z" fill="white"/>
<path d="M32.1881 13.147C32.2025 13.1175 32.2145 13.0904 32.229 13.0634L32.1881 13.147Z" fill="white"/>
<path d="M32.3539 17.8416C32.3371 17.8121 32.3083 17.785 32.2722 17.7161L32.3539 17.8416Z" fill="white"/>
<path d="M33.6634 16.6261L33.6226 16.5425C33.6274 16.5572 33.6514 16.5942 33.6634 16.6261Z" fill="white"/>
<path d="M31.9839 13.6514C31.9983 13.612 32.0175 13.585 32.0247 13.5678L31.9839 13.6514Z" fill="white"/>
<path d="M33.6226 14.1952L33.6634 14.1115C33.649 14.146 33.6274 14.1829 33.6226 14.1952Z" fill="white"/>
<path d="M33.6226 11.3459C33.5409 11.4124 33.4544 11.4837 33.3775 11.5551C33.4376 11.464 33.5121 11.3582 33.6226 11.3459Z" fill="white"/>
<path d="M32.4765 12.6032C32.5005 12.5688 32.5149 12.5319 32.5582 12.5196C32.5389 12.559 32.5197 12.5885 32.4765 12.6032Z" fill="white"/>
<path d="M35.343 12.3104L35.3022 12.3523C35.319 12.3424 35.343 12.3104 35.343 12.3104Z" fill="white"/>
<path d="M40.6677 20.4424C40.795 20.3366 41.6096 20.4424 41.6504 20.4005C41.5879 18.6019 41.7321 16.7442 41.6504 14.9505L41.6864 20.4153C41.6816 20.4374 41.672 20.4522 41.6528 20.4645C41.5639 20.5285 40.8166 20.4743 40.6677 20.4399V20.4424Z" fill="white"/>
<path d="M39.8074 14.4461C39.8074 14.4461 39.7786 14.4043 39.7666 14.3625L39.8074 14.4461Z" fill="white"/>
<path d="M44.6395 19.2687C44.6107 19.2392 44.5866 19.2146 44.5578 19.1851L44.6395 19.2687Z" fill="white"/>
<path d="M40.3817 11.9315L40.6268 12.2243C40.5427 12.1136 40.473 12.0349 40.3817 11.9315Z" fill="white"/>
<path d="M39.1106 13.147L38.8247 12.8542C38.9424 12.9526 39.0169 13.024 39.1106 13.147Z" fill="white"/>
<path d="M39.8483 11.4296C39.8315 11.4197 39.8195 11.4025 39.8074 11.3878C39.8195 11.4025 39.8363 11.4148 39.8483 11.4296Z" fill="white"/>
<path d="M53.5275 4.97326C53.5636 6.90475 53.5636 8.91743 53.5275 10.8415C53.5323 11.7593 53.5467 12.6525 53.5684 13.5235C53.5636 14.456 53.6068 15.3639 53.4867 16.2891L53.4458 16.3727C53.292 18.1098 51.8383 19.6624 50.3342 20.312L50.2933 20.3538C48.3302 21.1657 46.1725 20.7499 44.6419 19.2638L44.5602 19.1801C44.344 18.9587 44.2022 18.752 44.0268 18.5084L43.9451 18.4248C43.9451 18.4248 43.9523 18.3928 43.9451 18.3829L43.8634 18.2993C42.4409 16.0209 42.823 13.1888 44.7645 11.3828L44.8053 11.341C44.9254 11.2303 44.9687 11.1516 45.1321 11.0482C45.197 11.0162 45.2498 10.9744 45.2955 10.9227C45.5982 10.6964 45.8553 10.5709 46.1965 10.4208L46.2782 10.379C47.8016 9.75153 49.9617 9.81797 51.2761 10.9227L51.3578 11.0064C51.4899 11.0827 51.6101 11.154 51.7254 11.2574V4.9708H53.5275V4.97326ZM47.8761 11.8897C47.273 11.966 46.7756 12.1677 46.2782 12.5196C46.2638 12.5294 46.2518 12.5516 46.2374 12.5614C46.1341 12.6377 45.9538 12.7681 45.8697 12.8542C45.8553 12.869 45.8433 12.8813 45.8289 12.896C44.9903 13.7917 44.7044 15.0933 44.9687 16.2915C44.9831 16.3555 44.9999 16.385 45.0095 16.417C45.0143 16.4293 45.0047 16.4465 45.0095 16.4588C45.024 16.5031 45.0432 16.5228 45.0504 16.5425C45.1994 16.9534 45.4757 17.4184 45.7472 17.758C45.8217 17.8539 45.8577 17.8908 45.9514 17.9671C46.7564 18.6191 47.7824 19.0079 48.818 18.848C48.8973 18.8357 48.9333 18.816 48.9814 18.8061C49.1448 18.7717 49.3995 18.6979 49.5557 18.6388C49.5941 18.6241 49.6133 18.6068 49.6374 18.597C49.9641 18.4543 50.4928 18.1 50.7426 17.8416C50.7571 17.8269 50.7715 17.8146 50.7835 17.7998C51.1247 17.4258 51.4202 16.8623 51.562 16.3752C51.562 16.3727 51.5956 16.3653 51.6029 16.3333C51.9441 14.9727 51.4899 13.4767 50.4159 12.6032C50.3966 12.5885 50.3798 12.554 50.3342 12.5196C49.7623 12.0964 48.8252 11.8233 48.1236 11.8479C48.0467 11.8528 47.9241 11.8159 47.8785 11.8897H47.8761Z" fill="white"/>
<path d="M53.5684 10.8415C53.5563 10.8784 53.5419 10.8784 53.5275 10.8415V4.97326L53.5708 5.0766C53.566 6.99825 53.5708 8.91989 53.5708 10.8415H53.5684Z" fill="white"/>
<path d="M53.5684 13.5259C53.5011 13.4816 53.5275 13.366 53.5275 13.2971C53.5203 12.4802 53.5275 11.6609 53.5275 10.844H53.5684C53.5684 11.7372 53.5732 12.6328 53.5684 13.5259Z" fill="white"/>
<path d="M45.1321 11.0507C45.1753 10.9941 45.2402 10.967 45.2955 10.9252C45.2714 11.0285 45.1825 11.0187 45.1321 11.0507Z" fill="white"/>
<path d="M46.2782 10.3814L46.1965 10.4232C46.2206 10.4109 46.247 10.3937 46.2782 10.3814Z" fill="white"/>
<path d="M51.3578 11.0088C51.3193 10.9867 51.2905 10.9719 51.2761 10.9252C51.3073 10.9498 51.3458 10.9621 51.3578 11.0088Z" fill="white"/>
<path d="M43.9451 18.3879C43.9355 18.3731 43.8946 18.3534 43.8634 18.3042L43.9451 18.3879Z" fill="white"/>
<path d="M44.0268 18.5133C44.0148 18.4986 43.9787 18.4764 43.9451 18.4297L44.0268 18.5133Z" fill="white"/>
<path d="M50.2933 20.3562L50.3342 20.3144C50.3342 20.3144 50.3125 20.3489 50.2933 20.3562Z" fill="white"/>
<path d="M44.762 11.3878C44.7765 11.3755 44.7885 11.3582 44.8029 11.3459L44.762 11.3878Z" fill="white"/>
<path d="M48.1212 11.8479C48.0947 11.8479 47.941 11.8823 47.8761 11.8897C47.9217 11.8159 48.0443 11.8528 48.1212 11.8479Z" fill="white"/>
<path d="M48.818 18.848C48.8973 18.8357 48.9333 18.816 48.9814 18.8061L48.818 18.848Z" fill="white"/>
<path d="M44.9687 16.2915C44.9831 16.3555 44.9999 16.385 45.0095 16.417L44.9687 16.2915Z" fill="white"/>
<path d="M49.6374 18.597C49.6133 18.6068 49.5917 18.6241 49.5557 18.6388L49.6374 18.597Z" fill="white"/>
<path d="M45.0095 16.4588C45.024 16.5031 45.0432 16.5228 45.0504 16.5425L45.0095 16.4588Z" fill="white"/>
<path d="M51.562 16.3752L51.6029 16.3333C51.5956 16.3653 51.562 16.3727 51.562 16.3752Z" fill="white"/>
<path d="M45.9514 17.9671C45.8553 17.8908 45.8217 17.8515 45.7472 17.758L45.9514 17.9671Z" fill="white"/>
<path d="M50.7426 17.8416L50.7835 17.7998C50.7691 17.8146 50.7571 17.8269 50.7426 17.8416Z" fill="white"/>
<path d="M45.8697 12.8542C45.8553 12.869 45.8433 12.8813 45.8289 12.896L45.8697 12.8542Z" fill="white"/>
<path d="M50.4159 12.6032L50.3342 12.5196C50.3798 12.554 50.3966 12.5885 50.4159 12.6032Z" fill="white"/>
<path d="M46.2782 12.5196C46.2638 12.5294 46.2518 12.5516 46.2374 12.5614L46.2782 12.5196Z" fill="white"/>
</svg>
