<svg width="49" height="43" viewBox="0 0 49 43" fill="none" xmlns="http://www.w3.org/2000/svg">
<g clip-path="url(#clip0_79_6203)">
<path d="M6.40609 41.4343C6.40609 42.3224 5.89625 42.9294 4.72409 42.9294H0V37.749H4.57622C5.74993 37.749 6.1119 38.3931 6.1119 39.1407C6.1119 39.533 5.97943 39.9021 5.70526 40.1771C6.14732 40.4072 6.40609 40.798 6.40609 41.4359V41.4343ZM0.88567 39.9392H4.36212C4.84115 39.9392 5.22623 39.9392 5.22623 39.2133C5.22623 38.4873 4.84269 38.4873 4.35596 38.4873H0.88567V39.9377V39.9392ZM5.52042 41.4343C5.52042 40.679 5.13689 40.679 4.65015 40.679H0.88567V42.1881H4.64861C5.13535 42.1881 5.51888 42.1881 5.51888 41.4328L5.52042 41.4343Z" fill="white"/>
<path d="M8.62102 38.4885V39.9681H13.1972V40.708H8.62102V42.1877H13.1972V42.9275H7.73535V37.7471H13.1972V38.4869H8.62102V38.4885Z" fill="white"/>
<path d="M21.5071 37.7485L18.4589 42.929H17.4253L14.3771 37.7485H15.4029L17.9413 42.1073L20.4797 37.7485H21.5056H21.5071Z" fill="white"/>
<path d="M23.5743 38.4885V39.9681H28.1505V40.708H23.5743V42.1877H28.1505V42.9275H22.6886V37.7471H28.1505V38.4869H23.5743V38.4885Z" fill="white"/>
<path d="M34.3055 41.3303L35.2943 42.929H34.2608L33.3305 41.4199H30.4378V42.929H29.5521V37.7485H33.6108C34.7845 37.7485 35.5885 38.4297 35.5885 39.5835C35.5885 40.4932 35.0941 41.1079 34.3039 41.3303H34.3055ZM30.4393 40.6785H33.2442C33.8049 40.6785 34.706 40.6785 34.706 39.5835C34.706 38.4884 33.8049 38.4884 33.2442 38.4884H30.4393V40.6785Z" fill="white"/>
<path d="M42.2333 42.1877V42.9275H36.9193V37.7471H37.805V42.1877H42.2333Z" fill="white"/>
<path d="M41.2738 37.7485H42.4182L44.8612 40.4422L47.3041 37.7485H48.4485L45.3048 41.2269V42.929H44.4191V41.2269L41.2753 37.7485H41.2738Z" fill="white"/>
<path d="M23.6497 29.3713C23.2662 29.8424 22.9458 30.3737 22.6008 30.8695C22.8103 30.8572 23.0198 30.8325 23.2308 30.8325C23.4048 30.8325 23.5512 30.9807 23.6266 31.1167V31.129L23.3432 31.1167C23.0352 31.1167 22.7132 31.1414 22.4052 31.1537C21.9477 31.8349 20.3319 34.1239 20.3319 34.8792C20.3319 35.0027 20.3689 35.0892 20.5168 35.0892C20.9357 35.0892 22.1587 33.9633 22.4422 33.642C22.0602 34.1996 21.1468 35.4862 20.4428 35.4862C20.0978 35.4862 19.8129 34.9672 19.8129 34.6568C19.8129 34.1733 21.5657 31.7113 21.8984 31.1784C21.6889 31.1908 21.4918 31.2032 21.2823 31.2032C21.022 31.2032 20.8125 31.1414 20.8248 30.8448C21.0466 30.8942 21.2823 30.9066 21.5041 30.9066L22.0725 30.8942C22.3682 30.3861 23.0352 29.3219 23.1091 28.752C23.3802 28.8508 23.6528 29.0501 23.6528 29.3713H23.6497Z" fill="white"/>
<path d="M25.6984 28.2437C25.9818 28.2808 26.2051 28.5156 26.2421 28.8013C24.785 30.4849 23.5389 32.5021 22.2912 34.3462C23.2909 33.3191 24.3537 32.1422 25.5135 31.3019C25.797 31.339 26.0449 31.5244 26.1558 31.7838C25.6121 32.1669 23.8978 34.5069 23.8593 35.1386C24.403 35.1633 25.9818 33.5539 26.3776 33.1832C26.0573 33.6527 24.5262 35.5464 23.9948 35.5464C23.7114 35.5464 23.391 35.1139 23.391 34.8529C23.391 34.2829 24.8481 32.3522 25.2425 31.858C24.6001 32.3661 21.786 34.9023 21.786 35.6329C21.5642 35.534 21.3671 35.3116 21.3671 35.0506L21.3917 34.927C22.6008 33.4906 25.0083 29.9257 25.6999 28.2422L25.6984 28.2437Z" fill="white"/>
<path d="M27.7116 31.3887C28.0319 31.3887 28.3662 31.7099 28.3662 32.0327C28.169 32.4915 27.576 33.8399 27.0215 33.8399C26.7997 33.8399 26.5394 33.7163 26.4038 33.531C26.182 33.8522 25.6999 34.4839 25.6999 34.8933C25.6999 35.0539 25.7615 35.2022 25.9464 35.2022C26.6749 35.2022 28.1798 33.8167 28.6373 33.2838C28.2553 33.965 26.8475 35.3891 26.0819 35.562C25.7369 35.4632 25.3041 35.091 25.3041 34.7079C25.3041 33.8538 26.946 31.8242 27.6992 31.3902H27.7116V31.3887ZM26.4639 33.4553C26.5255 33.4923 26.6118 33.5294 26.6857 33.5294C27.1925 33.5294 28.1059 32.2536 28.1167 31.7964C27.5729 31.8582 26.7828 33.0089 26.4624 33.4553H26.4639Z" fill="white"/>
<path d="M33.9112 13.3296C33.9112 16.0125 32.8269 18.4822 31.0725 20.2816C29.3181 22.081 26.8983 23.207 24.2243 23.207C21.5504 23.207 19.1167 22.081 17.35 20.2816C15.5833 18.4822 14.485 16.0125 14.485 13.3311H14.083C14.083 18.9193 18.6484 23.6086 24.2243 23.6117C29.8017 23.6101 34.3133 18.9178 34.3133 13.3311H33.9112V13.3296Z" fill="white"/>
<path d="M34.0898 13.4668C34.0898 16.1728 32.9731 18.6642 31.1802 20.4791C29.3873 22.2939 26.9213 23.4307 24.2242 23.4307C21.5256 23.4307 19.035 22.2939 17.2159 20.4791C15.3983 18.6642 14.257 16.1728 14.257 13.4683H14.0275C14.029 19.0102 18.6976 23.6608 24.2242 23.6624C29.7508 23.6624 34.3178 19.0102 34.3193 13.4683H34.0898V13.4668Z" fill="white"/>
<path d="M26.2852 21.6563V21.6424C26.2852 21.5389 26.2744 21.3968 26.2636 21.2069C26.2528 21.0184 26.2436 20.7852 26.2436 20.5211C26.2436 19.3627 26.4408 17.5864 27.6622 16.1083C28.2737 15.3685 29.1424 14.6966 30.387 14.207C31.6331 13.7173 33.2581 13.41 35.3714 13.41C35.4915 13.41 35.6148 13.41 35.738 13.4131L35.7441 13.0099C35.6178 13.0084 35.4931 13.0068 35.3699 13.0068C33.2165 13.0068 31.5422 13.3188 30.2376 13.8316C28.2814 14.5993 27.1678 15.8256 26.5609 17.0829C25.9525 18.3402 25.8385 19.6206 25.8385 20.5226C25.8385 20.7975 25.8493 21.0385 25.8601 21.2316C25.8708 21.4231 25.8816 21.5714 25.8801 21.6455V21.6548L26.2821 21.6609L26.2852 21.6563Z" fill="white"/>
<path d="M26.3206 21.9046V21.8923C26.3206 21.7873 26.3068 21.6251 26.2929 21.4088C26.2791 21.1941 26.2667 20.9269 26.2667 20.6211C26.2667 19.4133 26.4762 17.6201 27.71 16.1327C28.9422 14.6468 31.2065 13.4436 35.3776 13.4421C35.4977 13.4421 35.6179 13.4421 35.7411 13.4451L35.7442 13.215C35.621 13.2135 35.4977 13.2119 35.3776 13.2119C31.1664 13.2119 28.819 14.4337 27.5344 15.9844C26.2498 17.5351 26.0372 19.387 26.0372 20.6196C26.0372 20.9316 26.0511 21.2034 26.065 21.4212C26.0788 21.639 26.0911 21.8042 26.0911 21.8892V21.8985L26.3206 21.9016V21.9046Z" fill="white"/>
<path d="M12.7044 13.41C14.9594 13.41 16.6861 13.7606 18.0092 14.3166C19.9931 15.1522 21.0729 16.445 21.6736 17.764C22.2727 19.0831 22.3821 20.433 22.3821 21.3505C22.3821 21.6038 22.3744 21.8231 22.3652 22.0023C22.3575 22.1815 22.3482 22.3158 22.3482 22.4116V22.427L22.7502 22.4209V22.4116C22.7502 22.3405 22.7579 22.2015 22.7672 22.0208C22.7749 21.8386 22.7841 21.6131 22.7841 21.3505C22.7841 20.0855 22.5885 18.0035 21.2146 16.2226C20.5276 15.3329 19.5464 14.5267 18.1632 13.9444C16.78 13.3636 14.9979 13.0068 12.7029 13.0068V13.41H12.7044Z" fill="white"/>
<path d="M12.7044 13.4455C17.2468 13.447 19.6696 14.8726 20.9743 16.5871C22.2789 18.3015 22.4653 20.328 22.4637 21.542C22.4637 22.0162 22.436 22.3622 22.436 22.5321V22.5475L22.6655 22.5444V22.5321C22.6655 22.3838 22.6932 22.0239 22.6932 21.542C22.6932 20.3048 22.5069 18.2259 21.156 16.4465C19.8052 14.6672 17.2914 13.2122 12.7029 13.2153V13.4455H12.7044Z" fill="white"/>
<path d="M37.0164 13.0298H36.8147C36.8147 16.5174 35.4053 19.6729 33.1272 21.9589C30.8476 24.2448 27.7007 25.6565 24.2227 25.6565C20.7448 25.6565 17.5979 24.2432 15.3183 21.9589C13.0387 19.6729 11.6308 16.5174 11.6308 13.0298C11.6308 9.54223 13.0402 6.38671 15.3183 4.10078C17.5979 1.81485 20.7448 0.403127 24.2227 0.403127C27.7007 0.403127 30.8476 1.81639 33.1272 4.10078C35.4068 6.38671 36.8147 9.54223 36.8147 13.0298H37.2167C37.2182 5.83376 31.4005 0 24.2243 0C17.048 0 11.2303 5.83376 11.2303 13.0298C11.2303 20.2259 17.048 26.0596 24.2243 26.0596C31.4005 26.0596 37.2182 20.2259 37.2182 13.0298H37.0164Z" fill="white"/>
<path d="M36.8793 13.0301H36.7653C36.7653 16.5068 35.3606 19.6531 33.0886 21.9313C30.8167 24.2095 27.6791 25.6181 24.2119 25.6181C20.7447 25.6181 17.6071 24.2095 15.3352 21.9313C13.0633 19.6531 11.6585 16.5068 11.6585 13.0301C11.6585 9.55327 13.0633 6.40702 15.3352 4.12881C17.6071 1.8506 20.7447 0.441972 24.2119 0.441972C27.6791 0.441972 30.8167 1.8506 33.0886 4.12881C35.3606 6.40702 36.7653 9.55327 36.7653 13.0301H36.9933C36.9933 5.95138 31.2711 0.213379 24.2119 0.213379C17.1527 0.213379 11.4305 5.95138 11.4305 13.0301C11.4305 20.1087 17.1527 25.8467 24.2119 25.8467C31.2711 25.8467 36.9933 20.1087 36.9933 13.0301H36.8793Z" fill="white"/>
<path d="M13.1096 13.2088C13.1096 10.1305 14.3526 7.34564 16.3642 5.32846C18.3758 3.31128 21.153 2.06483 24.2228 2.06483C27.2926 2.06483 30.0698 3.31128 32.0814 5.32846C34.093 7.34564 35.336 10.1305 35.336 13.2088H35.7381C35.7381 6.83131 30.5827 1.66016 24.2213 1.66016C17.8614 1.66016 12.7045 6.82976 12.7045 13.2088H13.1065H13.1096Z" fill="white"/>
<path d="M13.1542 13.0176C13.3067 9.93312 14.5343 7.25332 16.4935 5.34271C18.4543 3.43211 21.1468 2.29068 24.2428 2.29068C27.328 2.29068 30.0497 3.43365 32.0259 5.34271C34.0021 7.25178 35.2328 9.93003 35.3329 13.0083L35.5624 13.0006C35.4623 9.86516 34.2054 7.12821 32.1861 5.17745C30.1668 3.22668 27.3865 2.06055 24.2443 2.06055C21.0913 2.06055 18.3373 3.22514 16.3334 5.17745C14.331 7.12976 13.0803 9.86824 12.9247 13.0068L13.1542 13.0176Z" fill="white"/>
<path fill-rule="evenodd" clip-rule="evenodd" d="M22.9258 21.9078V5.28536C22.9258 3.97559 21.6243 3.97559 21.6243 3.97559V20.5857C21.6243 20.5857 21.6243 23.2129 24.2258 23.2129C22.9258 23.2129 22.9258 21.9094 22.9258 21.9094" fill="white"/>
<path fill-rule="evenodd" clip-rule="evenodd" d="M24.2258 12.7237C25.5258 12.7237 25.5258 14.0273 25.5258 14.0273V21.9076C25.5258 21.9076 25.5258 23.2112 24.2258 23.2112C26.8459 23.2112 26.8459 20.5839 26.8459 20.5839V15.3309C26.8459 15.3309 26.8459 12.7222 24.2258 12.7222" fill="white"/>
<path fill-rule="evenodd" clip-rule="evenodd" d="M24.1442 23.2114C23.0167 23.179 22.1819 22.2646 22.1819 20.5857V5.55103C22.1819 4.72315 21.9631 4.1563 21.6243 3.97559V20.5857C21.6243 20.5857 21.6243 23.1573 24.1442 23.2114Z" fill="white"/>
<path fill-rule="evenodd" clip-rule="evenodd" d="M25.5258 14.0273V21.8891C25.5258 21.8891 25.5258 23.1927 24.2258 23.1927C25.1423 23.1927 26.0834 22.6629 26.0834 21.4566V14.4582C26.0834 13.2519 25.1423 12.7222 24.2258 12.7222C25.5258 12.7222 25.5258 14.0258 25.5258 14.0258" fill="white"/>
<path fill-rule="evenodd" clip-rule="evenodd" d="M24.2258 4.00342C25.5258 4.00342 25.5258 5.08769 25.5258 5.08769V11.6397C25.5258 11.6397 25.5258 12.7239 24.2258 12.7239C26.8459 12.7239 26.8459 10.54 26.8459 10.54V6.17197C26.8459 6.17197 26.8459 4.00342 24.2258 4.00342Z" fill="white"/>
<path fill-rule="evenodd" clip-rule="evenodd" d="M25.5258 5.08761V11.6241C25.5258 11.6241 25.5258 12.7239 24.2258 12.7239C25.1423 12.7239 26.0834 12.2682 26.0834 11.2658V5.44749C26.0834 4.44508 25.1423 4.00488 24.2258 4.00488C25.5258 4.00488 25.5258 5.08916 25.5258 5.08916" fill="white"/>
</g>
<defs>
<clipPath id="clip0_79_6203">
<rect width="48.4469" height="42.9277" fill="white"/>
</clipPath>
</defs>
</svg>
