<svg width="88" height="19" viewBox="0 0 88 19" fill="none" xmlns="http://www.w3.org/2000/svg">
<g clip-path="url(#clip0_79_6126)">
<path d="M48.7214 17.0923H53.3253V18.1579H47.5682V0H48.7214V17.0923Z" fill="white"/>
<path d="M65.0728 18.1578H63.9931V16.1892H63.9455C63.1293 17.5886 61.3542 18.3932 59.7217 18.3932C56.3616 18.3932 54.2496 15.8084 54.2496 12.6116C54.2496 9.41479 56.3357 6.97119 59.6698 6.97119C61.3715 6.97119 63.004 7.72866 63.9412 9.10238H63.9887V7.20656H65.0685V18.1535L65.0728 18.1578ZM55.3294 12.6159C55.3294 15.1279 57.0094 17.4046 59.6958 17.4046C62.5289 17.4046 64.0622 15.1279 64.0622 12.5003C64.0622 9.87269 62.3087 7.97259 59.6223 7.97259C57.0785 7.97259 55.325 10.2493 55.325 12.6201" fill="white"/>
<path d="M68.0182 8.91848H68.0657C68.7135 7.71166 69.9142 6.97559 71.3524 6.97559C74.2072 6.97559 75.0018 8.73018 75.0018 11.5504V18.1622H73.9221V11.5504C73.9221 9.5818 73.6846 7.97271 71.2574 7.97271C68.4717 7.97271 68.0182 10.5319 68.0182 12.7615V18.1622H66.9385V7.21524H68.0182V8.91848Z" fill="white"/>
<path d="M86.6154 16.1936H86.5679C85.7516 17.593 83.9765 18.3976 82.344 18.3976C78.9839 18.3976 76.8719 15.8128 76.8719 12.616C76.8719 9.41919 78.958 6.97559 82.2922 6.97559C83.9981 6.97559 85.6263 7.73307 86.5635 9.10678H86.611V0.291016H87.6908V18.1579H86.611V16.1894L86.6154 16.1936ZM86.6888 12.4961C86.6888 9.95841 84.9353 7.96844 82.249 7.96844C79.7051 7.96844 77.9517 10.2451 77.9517 12.616C77.9517 15.128 79.6317 17.4047 82.3181 17.4047C85.1513 17.4047 86.6845 15.128 86.6845 12.5004" fill="white"/>
<path d="M9.77365 8.68305H9.57498C11.9547 8.68305 13.8766 6.77868 13.8766 4.43351C13.8766 2.08834 11.9504 0.179688 9.57498 0.179688H0V3.37219C0.513948 3.37219 0.932881 3.78731 0.932881 4.29229V13.8784C0.932881 14.3876 0.513948 14.8027 0 14.8027V17.9952H9.77365C12.3779 17.9952 14.4899 15.9068 14.4899 13.3349C14.4899 10.7629 12.3779 8.67877 9.77365 8.67877M6.57335 14.8027H6.1501V10.6859H6.57335C7.7265 10.6859 8.65938 11.606 8.65938 12.7443C8.65938 13.8826 7.7265 14.8027 6.57335 14.8027ZM6.57335 7.48907H6.1501V3.37219H6.57335C7.7265 3.37219 8.65938 4.29229 8.65938 5.43063C8.65938 6.56898 7.7265 7.48907 6.57335 7.48907Z" fill="white"/>
<path d="M16.36 0V3.37225C16.8653 3.37225 17.2799 3.77024 17.2929 4.26666V13.8784C17.2929 14.3877 16.8739 14.7985 16.36 14.7985V18.1023H22.6267C23.1406 18.1023 23.5553 17.6915 23.5553 17.1822V14.7985C23.0499 14.7985 22.6397 14.4005 22.6224 13.9041V4.29662C22.6224 3.78736 23.0413 3.37653 23.5553 3.37653V0H16.36Z" fill="white"/>
<path d="M43.664 3.37225V0H36.1621L34.5469 7.4934L32.9316 0H25.4297V3.37225C25.948 3.37225 26.3626 3.78736 26.3626 4.29234V13.8784C26.3626 14.3877 25.9436 14.7985 25.4297 14.7985V18.1023H30.6728C31.1911 18.1023 31.6057 17.6872 31.6057 17.1779V14.7985C31.0874 14.7985 30.6728 14.3877 30.6728 13.8784V6.90711L33.0914 18.1066H35.091L37.5096 6.90711V13.8784C37.5096 14.3877 37.0907 14.7985 36.5767 14.7985V18.1023H42.7657C43.2667 18.1023 43.677 17.7 43.677 17.2036V14.7985C43.1631 14.7985 42.7441 14.3877 42.7441 13.8784V4.29662C42.7441 3.78736 43.1631 3.37653 43.677 3.37653" fill="white"/>
<path d="M48.7214 17.0923H53.3253V18.1579H47.5682V0H48.7214V17.0923Z" fill="white"/>
<path d="M65.0728 18.1578H63.9931V16.1892H63.9455C63.1293 17.5886 61.3542 18.3932 59.7217 18.3932C56.3616 18.3932 54.2496 15.8084 54.2496 12.6116C54.2496 9.41479 56.3357 6.97119 59.6698 6.97119C61.3715 6.97119 63.004 7.72866 63.9412 9.10238H63.9887V7.20656H65.0685V18.1535L65.0728 18.1578ZM55.3294 12.6159C55.3294 15.1279 57.0094 17.4046 59.6958 17.4046C62.5289 17.4046 64.0622 15.1279 64.0622 12.5003C64.0622 9.87269 62.3087 7.97259 59.6223 7.97259C57.0785 7.97259 55.325 10.2493 55.325 12.6201" fill="white"/>
<path d="M68.0182 8.91848H68.0657C68.7135 7.71166 69.9142 6.97559 71.3524 6.97559C74.2072 6.97559 75.0018 8.73018 75.0018 11.5504V18.1622H73.9221V11.5504C73.9221 9.5818 73.6846 7.97271 71.2574 7.97271C68.4717 7.97271 68.0182 10.5319 68.0182 12.7615V18.1622H66.9385V7.21524H68.0182V8.91848Z" fill="white"/>
<path d="M86.6154 16.1936H86.5679C85.7516 17.593 83.9765 18.3976 82.344 18.3976C78.9839 18.3976 76.8719 15.8128 76.8719 12.616C76.8719 9.41919 78.958 6.97559 82.2922 6.97559C83.9981 6.97559 85.6263 7.73307 86.5635 9.10678H86.611V0.291016H87.6908V18.1579H86.611V16.1894L86.6154 16.1936ZM86.6888 12.4961C86.6888 9.95841 84.9353 7.96844 82.249 7.96844C79.7051 7.96844 77.9517 10.2451 77.9517 12.616C77.9517 15.128 79.6317 17.4047 82.3181 17.4047C85.1513 17.4047 86.6845 15.128 86.6845 12.5004" fill="white"/>
<path d="M9.77365 8.68305H9.57498C11.9547 8.68305 13.8766 6.77868 13.8766 4.43351C13.8766 2.08834 11.9504 0.179688 9.57498 0.179688H0V3.37219C0.513948 3.37219 0.932881 3.78731 0.932881 4.29229V13.8784C0.932881 14.3876 0.513948 14.8027 0 14.8027V17.9952H9.77365C12.3779 17.9952 14.4899 15.9068 14.4899 13.3349C14.4899 10.7629 12.3779 8.67877 9.77365 8.67877M6.57335 14.8027H6.1501V10.6859H6.57335C7.7265 10.6859 8.65938 11.606 8.65938 12.7443C8.65938 13.8826 7.7265 14.8027 6.57335 14.8027ZM6.57335 7.48907H6.1501V3.37219H6.57335C7.7265 3.37219 8.65938 4.29229 8.65938 5.43063C8.65938 6.56898 7.7265 7.48907 6.57335 7.48907Z" fill="white"/>
<path d="M16.36 0V3.37225C16.8653 3.37225 17.2799 3.77024 17.2929 4.26666V13.8784C17.2929 14.3877 16.8739 14.7985 16.36 14.7985V18.1023H22.6267C23.1406 18.1023 23.5553 17.6915 23.5553 17.1822V14.7985C23.0499 14.7985 22.6397 14.4005 22.6224 13.9041V4.29662C22.6224 3.78736 23.0413 3.37653 23.5553 3.37653V0H16.36Z" fill="white"/>
<path d="M43.664 3.37225V0H36.1621L34.5469 7.4934L32.9316 0H25.4297V3.37225C25.948 3.37225 26.3626 3.78736 26.3626 4.29234V13.8784C26.3626 14.3877 25.9436 14.7985 25.4297 14.7985V18.1023H30.6728C31.1911 18.1023 31.6057 17.6872 31.6057 17.1779V14.7985C31.0874 14.7985 30.6728 14.3877 30.6728 13.8784V6.90711L33.0914 18.1066H35.091L37.5096 6.90711V13.8784C37.5096 14.3877 37.0907 14.7985 36.5767 14.7985V18.1023H42.7657C43.2667 18.1023 43.677 17.7 43.677 17.2036V14.7985C43.1631 14.7985 42.7441 14.3877 42.7441 13.8784V4.29662C42.7441 3.78736 43.1631 3.37653 43.677 3.37653" fill="white"/>
</g>
<defs>
<clipPath id="clip0_79_6126">
<rect width="87.6951" height="18.3976" fill="white"/>
</clipPath>
</defs>
</svg>
