<svg width="61" height="27" viewBox="0 0 61 27" fill="none" xmlns="http://www.w3.org/2000/svg">
<mask id="mask0_79_5949" style="mask-type:luminance" maskUnits="userSpaceOnUse" x="0" y="8" width="49" height="9">
<path d="M43.1686 13.6483L42.5489 16.5968H44.2322L44.8261 13.7309L48.5491 9.01132H46.5766L44.2013 12.2335L43.0704 8.99066H41.3561L43.1634 13.6483H43.1686ZM29.0613 13.607L30.7137 10.5862H30.7344L31.0958 13.6122H29.0613V13.607ZM25.6739 16.5348H27.4296L28.3952 14.8515L31.2404 14.8618L31.4779 16.5555H33.1406L31.9014 8.94934H30.187L25.6739 16.5348ZM21.5533 10.3229L23.939 10.3332L22.617 16.5297H24.3004L25.6223 10.3384L27.9047 10.3487L28.2092 8.94419L21.858 8.92353L21.5533 10.3281V10.3229ZM13.028 16.4935H14.5823L15.6873 11.1646H15.7079L17.7786 16.509H19.4516L21.0886 8.9132H19.555L18.4499 14.3144H18.4292L16.3792 8.89255H14.6545L13.028 16.4883V16.4935ZM8.33933 13.5347L9.99181 10.5139H10.0124L10.3739 13.5399H8.33933V13.5347ZM4.95204 16.4625H6.70764L7.67332 14.7792L10.5185 14.7895L10.756 16.4832H12.4187L11.1794 8.87705H9.46511L4.95204 16.4625ZM0 16.447H1.6627L2.34434 13.3127L5.59233 13.323L5.87623 12.0269L2.61803 12.0166L2.99497 10.2609L6.72315 10.2712L7.03806 8.86673L1.62652 8.84607L0 16.447ZM36.6158 8.92353C36.2543 9.01131 35.9342 9.15072 35.6502 9.33662C35.3662 9.52251 35.1338 9.76521 34.9531 10.0647C34.7723 10.3642 34.6845 10.7257 34.6845 11.1491C34.6845 11.4744 34.7362 11.7532 34.8447 11.9804C34.9531 12.2076 35.0977 12.3987 35.2784 12.5588C35.4592 12.7137 35.6605 12.8428 35.8877 12.9461C36.1149 13.0493 36.3474 13.1319 36.59 13.2042C36.8224 13.2765 37.0547 13.3437 37.2871 13.4108C37.5194 13.4727 37.726 13.5502 37.9015 13.638C38.0822 13.7258 38.2269 13.8239 38.3405 13.9426C38.4541 14.0614 38.5109 14.2112 38.5109 14.3971C38.5109 14.5881 38.4645 14.7533 38.3767 14.8876C38.2889 15.0219 38.1752 15.1303 38.0358 15.2181C37.8964 15.3007 37.7415 15.3678 37.5711 15.4091C37.4007 15.4504 37.2303 15.4711 37.0599 15.4711C36.8172 15.4711 36.5951 15.4453 36.3886 15.3988C36.182 15.3523 36.0065 15.2749 35.8567 15.1664C35.707 15.058 35.5934 14.9134 35.516 14.7327C35.4385 14.552 35.4076 14.3248 35.423 14.0562H33.8378C33.8378 14.9805 34.0908 15.6622 34.6123 16.1011C35.1338 16.5348 35.9238 16.7569 36.9927 16.762C37.3542 16.762 37.7209 16.7207 38.0926 16.6329C38.4593 16.5451 38.7949 16.4006 39.0892 16.2043C39.3835 16.0081 39.6263 15.7499 39.8174 15.4298C40.0084 15.1096 40.1013 14.7224 40.1064 14.268C40.1064 13.9272 40.0599 13.638 39.9618 13.4056C39.8637 13.1681 39.7244 12.9719 39.5437 12.8066C39.3629 12.6414 39.1461 12.5071 38.8982 12.4039C38.6503 12.3006 38.3766 12.2076 38.0771 12.1302C37.948 12.0992 37.7828 12.0631 37.5763 12.0166C37.3697 11.9701 37.1684 11.903 36.9773 11.8204C36.7811 11.7377 36.6158 11.6345 36.4763 11.5105C36.3369 11.3866 36.2698 11.2317 36.2698 11.0458C36.2698 10.8702 36.3111 10.7205 36.3886 10.5966C36.466 10.4778 36.5694 10.3797 36.6985 10.3022C36.8276 10.2299 36.9721 10.1783 37.1321 10.1422C37.2922 10.1112 37.4524 10.0957 37.6073 10.0957C37.7983 10.0957 37.979 10.1163 38.1494 10.1577C38.3198 10.199 38.4644 10.2609 38.5883 10.3539C38.7123 10.4468 38.8052 10.5656 38.8724 10.7102C38.9395 10.8547 38.9704 11.0355 38.9601 11.2472H40.5454C40.5454 10.8134 40.4731 10.4365 40.3182 10.1267C40.1685 9.81684 39.9618 9.56383 39.7036 9.36244C39.4455 9.16106 39.146 9.01648 38.8 8.92869C38.454 8.84091 38.0875 8.79443 37.7002 8.79443H37.6795C37.3181 8.79443 36.9617 8.83574 36.6054 8.92353" fill="white"/>
</mask>
<g mask="url(#mask0_79_5949)">
<path d="M48.5028 7.31344L-0.254639 8.8457L0.0431531 18.3216L48.8006 16.7893L48.5028 7.31344Z" fill="url(#paint0_linear_79_5949)"/>
</g>
<mask id="mask1_79_5949" style="mask-type:luminance" maskUnits="userSpaceOnUse" x="18" y="17" width="35" height="10">
<path d="M44.0978 26.0306L50.5112 26.0513L50.9293 24.1045L46.7313 24.089L47.0153 22.7723L50.8416 22.7878L51.2392 20.9443L47.4129 20.9289L47.6453 19.8445L51.7814 19.86L52.1894 17.9133L45.8277 17.8926L44.0978 26.0358V26.0306ZM34.4365 25.9944H36.5743L37.4573 21.3884L37.9995 26.0048H39.6829L42.0685 21.564L41.0357 26.0151L43.1632 26.0254L44.9137 17.8823L42.084 17.8719L39.4608 22.7671L38.9547 17.8616L36.1767 17.8513L34.4365 25.9944ZM18.2535 25.9377L20.4842 25.948L21.1865 22.669L23.7115 22.6794L23.0093 25.9583H25.2503L27.0008 17.8203L24.7597 17.81L24.1298 20.7275L21.6099 20.7171L22.2399 17.7997L19.9988 17.7893L18.2587 25.9325L18.2535 25.9377ZM30.3159 24.213C30.0525 24.213 29.8305 24.1665 29.6549 24.0787C29.4742 23.9909 29.3348 23.8722 29.2212 23.7224C29.1076 23.5675 29.0147 23.3868 28.9579 23.1906C28.8959 22.9788 28.87 22.7568 28.87 22.5193C28.87 22.1836 28.9217 21.8325 29.0146 21.4762C29.1076 21.1302 29.247 20.8049 29.4329 20.5261C29.6136 20.2524 29.846 20.0252 30.1301 19.8548C30.4037 19.6896 30.729 19.6069 31.1008 19.6069C31.3693 19.6069 31.5913 19.6534 31.7669 19.7412C31.9425 19.829 32.0819 19.9478 32.1904 20.0872C32.304 20.2369 32.3866 20.4125 32.433 20.6139C32.4847 20.8308 32.5156 21.0631 32.5104 21.311C32.5104 21.6466 32.4588 21.9926 32.3607 22.3437C32.2626 22.6897 32.1181 23.0098 31.9322 23.2938C31.7463 23.5675 31.5139 23.7947 31.2402 23.9703C30.9768 24.1355 30.6773 24.2181 30.3159 24.2181H30.3055M29.2418 18.0423C28.6944 18.3057 28.2194 18.6672 27.8373 19.1112C27.4603 19.5553 27.1608 20.0769 26.9543 20.6603C26.7529 21.2387 26.6497 21.8635 26.6446 22.5038C26.6446 23.6604 26.9595 24.5641 27.5946 25.1941C28.2297 25.8189 29.1334 26.139 30.2797 26.1442C30.9871 26.1442 31.6223 26.0099 32.1749 25.7466C32.7222 25.4781 33.1921 25.1115 33.569 24.6519C33.9408 24.1975 34.2299 23.6605 34.4262 23.0666C34.6224 22.4728 34.7205 21.8428 34.7205 21.1922C34.7205 20.6294 34.6379 20.1182 34.4675 19.6844C34.2971 19.2455 34.0493 18.8685 33.7291 18.5639C33.409 18.2592 33.0217 18.0269 32.5621 17.8771C32.1181 17.7274 31.6223 17.6499 31.0801 17.6499H31.0594C30.3881 17.6499 29.7738 17.7842 29.2316 18.0423" fill="white"/>
</mask>
<g mask="url(#mask1_79_5949)">
<path d="M52.1581 16.6336L17.9861 17.7075L18.2865 27.266L52.4584 26.1921L52.1581 16.6336Z" fill="url(#paint1_linear_79_5949)"/>
</g>
<mask id="mask2_79_5949" style="mask-type:luminance" maskUnits="userSpaceOnUse" x="42" y="0" width="19" height="15">
<path d="M59.8009 0.00516086L42.2133 2.24621C41.9861 2.2772 41.9294 2.57152 42.1256 2.68512L49.742 7.04845C49.8195 7.08976 49.9124 7.08975 49.9899 7.04328L52.2722 5.58196C52.422 5.48385 52.4168 5.26181 52.2619 5.17402L50.8729 4.40981C50.6715 4.30137 50.7282 3.99671 50.9554 3.97089L54.5081 3.51648C54.7044 3.49066 54.8386 3.70237 54.7405 3.86761L50.403 11.3343C50.372 11.386 50.3617 11.4531 50.3772 11.515L51.2291 14.7269C51.2859 14.9283 51.5545 14.9696 51.6629 14.7837L60.0384 0.356297C60.1314 0.196222 60.0126 0 59.837 0C59.8267 0 59.8164 0 59.8061 0" fill="white"/>
</mask>
<g mask="url(#mask2_79_5949)">
<path d="M60.1122 -0.521232L41.4598 0.0649414L41.9477 15.5897L60.6001 15.0035L60.1122 -0.521232Z" fill="url(#paint2_linear_79_5949)"/>
</g>
<defs>
<linearGradient id="paint0_linear_79_5949" x1="-1.34514" y1="14.5614" x2="47.1504" y2="13.0373" gradientUnits="userSpaceOnUse">
<stop stop-color="#DDAD76"/>
<stop offset="0.14" stop-color="#D2A46B"/>
<stop offset="0.7" stop-color="#AF8748"/>
<stop offset="1" stop-color="#A27D3B"/>
</linearGradient>
<linearGradient id="paint1_linear_79_5949" x1="19.976" y1="21.2339" x2="54.2514" y2="20.1567" gradientUnits="userSpaceOnUse">
<stop stop-color="#DDAD76"/>
<stop offset="0.14" stop-color="#D2A46B"/>
<stop offset="0.7" stop-color="#AF8748"/>
<stop offset="1" stop-color="#A27D3B"/>
</linearGradient>
<linearGradient id="paint2_linear_79_5949" x1="47.0096" y1="4.63393" x2="65.1887" y2="4.06263" gradientUnits="userSpaceOnUse">
<stop stop-color="#DDAD76"/>
<stop offset="0.14" stop-color="#D2A46B"/>
<stop offset="0.7" stop-color="#AF8748"/>
<stop offset="1" stop-color="#A27D3B"/>
</linearGradient>
</defs>
</svg>
