<svg width="50" height="49" viewBox="0 0 50 49" fill="none" xmlns="http://www.w3.org/2000/svg">
<path d="M0.00012207 43.5425H1.86111V48.7179H2.48592V43.5425H4.34691V43.2368H0.00012207V43.5425Z" fill="white"/>
<path d="M9.17657 45.8114H6.0794V43.2236H5.45459V48.7115H6.0794V46.117H9.17657V48.7115H9.80817V43.2236H9.17657V45.8114Z" fill="white"/>
<path d="M14.4875 45.9472C14.1412 45.0507 13.7947 44.1541 13.4416 43.2508L13.428 43.2236H13.1293L10.8879 48.7047H11.2139L13.0953 44.1066C13.3806 44.8401 13.6659 45.594 13.9579 46.3411C14.2568 47.1154 14.5623 47.8897 14.8679 48.6776L14.8815 48.7047H15.5541L15.5335 48.6436C15.1803 47.7403 14.8273 46.8437 14.4809 45.9472" fill="white"/>
<path d="M20.0977 47.7607L17.0208 43.244L17.0072 43.2236H16.3008L16.7425 43.8689V48.7115H17.048V44.3307L20.0228 48.6912L20.0364 48.7115H20.4031V43.2236H20.0977V47.7607Z" fill="white"/>
<path d="M25.7957 45.8114H22.7055V43.2236H22.0807V48.7115H22.7055V46.117H25.7957V48.7115H26.4344V43.2236H25.7957V45.8114Z" fill="white"/>
<path d="M33.77 43.2236L31.9904 45.5669L30.5846 43.2236H29.851L29.8918 43.2916C30.1363 43.6991 30.4013 44.1405 30.6934 44.6296C30.9787 45.105 31.2772 45.6008 31.5828 46.1034L29.593 48.7183H29.987L31.7596 46.3887C31.9973 46.7894 32.2281 47.1833 32.459 47.5637C32.69 47.9508 32.9211 48.3312 33.1452 48.6979L33.1588 48.7183H33.899L32.1672 45.8521L34.157 43.2304H33.7766L33.77 43.2236Z" fill="white"/>
<path d="M38.9587 46.8705C38.9587 47.0811 38.9178 47.2848 38.8363 47.4682C38.7548 47.6516 38.6463 47.8214 38.5037 47.9572C38.361 48.0999 38.1979 48.2085 38.0145 48.29C37.8311 48.3715 37.6274 48.4123 37.4169 48.4123C37.2063 48.4123 37.0025 48.3715 36.8123 48.29C36.6221 48.2085 36.4591 48.0999 36.3165 47.9572C36.1739 47.8146 36.065 47.6516 35.9835 47.4682C35.902 47.2848 35.8615 47.0811 35.8615 46.8705V43.2368H35.2367V46.5513C35.2367 46.8501 35.291 47.1286 35.4065 47.3935C35.522 47.6584 35.6781 47.8893 35.8751 48.0863C36.0721 48.2832 36.303 48.4395 36.5679 48.5549C36.826 48.6704 37.1112 48.7247 37.4169 48.7247C37.7225 48.7247 37.994 48.6704 38.2589 48.5549C38.5238 48.4395 38.7547 48.2832 38.9517 48.0863C39.1487 47.8893 39.305 47.6584 39.4137 47.3935C39.5291 47.1286 39.5835 46.8433 39.5835 46.5513V43.2368H38.9587V46.8705Z" fill="white"/>
<path d="M43.8153 45.9408C43.4689 45.0442 43.1225 44.1477 42.7693 43.2444L42.7557 43.2036H42.4297L40.1749 48.7187H40.5417L42.4161 44.1545C42.7014 44.8948 42.9867 45.6283 43.2651 46.3483C43.564 47.1226 43.8695 47.8968 44.1751 48.6847L44.1887 48.7255H44.8951L44.8613 48.644C44.5081 47.7406 44.1547 46.8441 43.8084 45.9476" fill="white"/>
<path d="M42.1513 42.7073L42.5523 42.2522L42.9459 42.7073H43.6119L42.6607 41.9194H42.4365L41.4857 42.7073H42.1513Z" fill="white"/>
<path d="M49.2962 43.2236V47.7607L46.2196 43.244L46.206 43.2236H45.4996L45.941 43.8689V48.7115H46.2468V44.3307L49.2216 48.6912L49.2352 48.7115H49.602V43.2236H49.2962Z" fill="white"/>
<path d="M9.02002 36.6015H10.1406V39.7122H10.555V36.6015H11.6756V36.3706H9.02002V36.6015Z" fill="white"/>
<path d="M12.7215 38.15H14.5417V39.7122H14.9629V36.3569H14.5417V37.9191H12.7215V36.3569H12.3003V39.7122H12.7215V38.15Z" fill="white"/>
<path d="M17.6795 39.6103C17.8425 39.5424 17.9852 39.4473 18.1007 39.3251C18.2229 39.2028 18.318 39.0602 18.3859 38.8972C18.4538 38.7342 18.4877 38.5644 18.4877 38.381V36.3638H18.0665V38.5712C18.0665 38.6934 18.0461 38.8157 17.9985 38.9243C17.951 39.033 17.8834 39.1281 17.8019 39.2164C17.7204 39.2979 17.6252 39.3658 17.5097 39.4134C17.2924 39.5084 17.0275 39.5084 16.8033 39.4134C16.6946 39.3658 16.5926 39.2979 16.5111 39.2164C16.4296 39.1349 16.3617 39.0398 16.3142 38.9243C16.2666 38.8157 16.2465 38.7002 16.2465 38.5712V36.3638H15.8253V38.381C15.8253 38.5644 15.8592 38.7342 15.9271 38.8972C15.995 39.0602 16.0901 39.2028 16.2123 39.3251C16.3346 39.4473 16.4773 39.5424 16.6335 39.6103C16.7965 39.6782 16.9662 39.7122 17.1495 39.7122C17.3329 39.7122 17.5029 39.6782 17.6659 39.6103" fill="white"/>
<path d="M21.3877 39.0398L19.5743 36.3841L19.5537 36.3569H19.0785L19.3637 36.778V39.7122H19.5945V37.1176L21.3403 39.685L21.3539 39.7122H21.6119V36.3569H21.3877V39.0398Z" fill="white"/>
<path d="M22.7738 39.2035C22.93 39.3597 23.1134 39.4888 23.324 39.5771C23.5345 39.6654 23.7587 39.7129 24.0032 39.7129C24.2477 39.7129 24.4718 39.6654 24.6824 39.5771C24.8929 39.4888 25.0764 39.3597 25.2326 39.2035C25.3888 39.0473 25.5109 38.8639 25.606 38.6534C25.6943 38.4428 25.742 38.2187 25.742 37.981V37.8859H23.9554V38.1168H25.3546C25.341 38.2934 25.3005 38.47 25.2326 38.6262C25.1579 38.796 25.056 38.9522 24.9338 39.0745C24.8115 39.2035 24.6688 39.2986 24.5126 39.3733C24.3564 39.448 24.1866 39.482 24.0032 39.482C23.8198 39.482 23.643 39.4412 23.4732 39.3665C23.3102 39.2918 23.161 39.1832 23.0388 39.0473C22.9165 38.9115 22.8145 38.7485 22.7466 38.5719C22.6787 38.3885 22.6378 38.1915 22.6378 37.9878C22.6378 37.784 22.6719 37.5802 22.7466 37.3969C22.8145 37.2135 22.9165 37.0505 23.0388 36.9146C23.161 36.7788 23.3102 36.6701 23.4732 36.5954C23.6362 36.5207 23.813 36.4799 24.0032 36.4799C24.2069 36.4799 24.3904 36.5275 24.567 36.6158C24.7436 36.7041 24.8929 36.8263 25.022 36.9826L25.0558 37.0301L25.2598 36.7924L25.2256 36.7584C25.0694 36.6022 24.886 36.4799 24.6754 36.3849C24.4649 36.2966 24.2409 36.249 24.0032 36.249C23.7655 36.249 23.5345 36.2966 23.324 36.3849C23.1134 36.4732 22.93 36.6022 22.7738 36.7584C22.6176 36.9146 22.4951 37.098 22.4 37.3086C22.3117 37.5191 22.2644 37.7433 22.2644 37.9878C22.2644 38.2323 22.3117 38.4496 22.4 38.6602C22.4883 38.8707 22.6176 39.0541 22.7738 39.2103" fill="white"/>
<path d="M30.476 39.4812H29.0496V36.3569H28.6288V39.7122H30.476V39.4812Z" fill="white"/>
<path d="M31.0733 39.3251C31.1956 39.4473 31.3383 39.5424 31.4945 39.6103C31.6575 39.6782 31.8275 39.7122 32.0109 39.7122C32.1943 39.7122 32.3639 39.6782 32.5269 39.6103C32.6899 39.5424 32.8326 39.4473 32.9481 39.3251C33.0704 39.2028 33.1654 39.0602 33.2333 38.8972C33.3012 38.7342 33.3351 38.5644 33.3351 38.381V36.3638H32.9143V38.5712C32.9143 38.6934 32.887 38.8157 32.8463 38.9243C32.7987 39.033 32.7308 39.1281 32.6493 39.2164C32.5678 39.2979 32.4726 39.3658 32.3571 39.4134C32.1398 39.5084 31.8749 39.5084 31.6507 39.4134C31.5421 39.3658 31.4404 39.2979 31.3589 39.2164C31.2774 39.1349 31.2094 39.0398 31.1619 38.9243C31.1144 38.8157 31.0939 38.7002 31.0939 38.5712V36.3638H30.6727V38.381C30.6727 38.5644 30.7066 38.7342 30.7745 38.8972C30.8425 39.0602 30.9375 39.2028 31.0598 39.3251" fill="white"/>
<path d="M36.2083 39.7122H36.4597V36.3638H36.2355V39.0398L34.4221 36.3841L34.4085 36.3638H33.9263L34.2184 36.7781V39.7122H34.4426V37.1177L36.188 39.685L36.2083 39.7122Z" fill="white"/>
<path d="M40.0795 39.2035C40.2357 39.0473 40.3578 38.8639 40.4529 38.6534C40.5412 38.4428 40.5889 38.2187 40.5889 37.981V37.8859H38.8027V38.1168H40.2019C40.1883 38.3002 40.1474 38.47 40.0795 38.6262C40.0048 38.796 39.9029 38.9522 39.7807 39.0745C39.6584 39.2035 39.5157 39.2986 39.3595 39.3733C39.2033 39.448 39.0335 39.482 38.8501 39.482C38.6667 39.482 38.4903 39.4412 38.3205 39.3665C38.1575 39.2918 38.008 39.1832 37.8857 39.0473C37.7634 38.9115 37.6614 38.7553 37.5935 38.5719C37.5256 38.3885 37.4851 38.1915 37.4851 37.9878C37.4851 37.784 37.5188 37.5802 37.5935 37.3969C37.6614 37.2135 37.7634 37.0505 37.8857 36.9146C38.008 36.7788 38.1575 36.6701 38.3205 36.5954C38.4835 36.5207 38.6599 36.4799 38.8501 36.4799C39.0539 36.4799 39.2373 36.5275 39.4139 36.6158C39.5905 36.7041 39.7399 36.8263 39.8689 36.9826L39.9027 37.0301L40.1067 36.7924L40.0725 36.7584C39.9163 36.6022 39.7332 36.4799 39.5227 36.3849C39.3121 36.2966 39.0878 36.249 38.8501 36.249C38.6124 36.249 38.3815 36.2966 38.1709 36.3849C37.9604 36.4732 37.7769 36.6022 37.6207 36.7584C37.4645 36.9146 37.3424 37.098 37.2473 37.3086C37.159 37.5191 37.1113 37.7433 37.1113 37.9878C37.1113 38.2323 37.159 38.4496 37.2473 38.6602C37.3356 38.8707 37.4645 39.0541 37.6207 39.2103C37.7769 39.3665 37.9604 39.4956 38.1709 39.5839C38.3815 39.6722 38.6056 39.7197 38.8501 39.7197C39.0946 39.7197 39.3188 39.6722 39.5293 39.5839C39.7399 39.4956 39.9233 39.3665 40.0795 39.2103" fill="white"/>
<path d="M31.1138 35.678C31.1138 35.678 31.1274 35.7187 31.141 35.7391L31.1546 35.7663H31.345L31.2906 35.6848C31.2634 35.644 31.2566 35.6304 31.2498 35.5761C31.243 35.5082 31.2498 35.4606 31.2906 35.4199C31.3245 35.3791 31.3719 35.3452 31.4262 35.3316C31.4873 35.318 31.5485 35.318 31.6232 35.3316H31.6504C31.7183 35.352 31.7728 35.3655 31.8272 35.4131C31.8747 35.4606 31.9222 35.5082 31.9562 35.5489C31.9765 35.5761 31.9968 35.5965 32.0172 35.6169C32.0308 35.6304 32.0444 35.644 32.058 35.6576C32.0987 35.7051 32.1396 35.7459 32.1804 35.7799C32.2279 35.8206 32.2822 35.8478 32.3502 35.8681C32.3909 35.8817 32.4314 35.8885 32.4722 35.8885C32.4926 35.8885 32.5198 35.8885 32.5402 35.8885C32.6013 35.8749 32.6558 35.8546 32.7033 35.8206C32.7509 35.7867 32.7916 35.7459 32.8188 35.6984C32.8459 35.644 32.8662 35.5897 32.8662 35.5286C32.8662 35.4946 32.8662 35.4606 32.8526 35.4199C32.8458 35.3859 32.8323 35.3452 32.8052 35.3044C32.7508 35.2433 32.6897 35.2025 32.6218 35.1822H32.4858L32.4928 35.2976H32.5266C32.6285 35.3248 32.6762 35.3995 32.6762 35.3995C32.6897 35.4267 32.6964 35.4538 32.6964 35.481C32.6964 35.515 32.6964 35.5353 32.6828 35.5557C32.676 35.5761 32.6624 35.5965 32.642 35.6101C32.6284 35.6236 32.608 35.6372 32.5876 35.644C32.5672 35.6508 32.5471 35.6576 32.5335 35.6576C32.5132 35.6576 32.4926 35.6576 32.4722 35.6508C32.4586 35.6508 32.4385 35.6372 32.4045 35.6101C32.3706 35.5897 32.3365 35.5557 32.2958 35.5082C32.2822 35.4946 32.2686 35.481 32.255 35.4674C32.221 35.4335 32.1869 35.4063 32.1462 35.352C32.0919 35.2773 32.0309 35.2365 31.9698 35.2025L31.9426 35.1822C31.8679 35.1346 31.7865 35.1007 31.7117 35.0871C31.6302 35.0735 31.5553 35.0667 31.4806 35.0871C31.4059 35.1007 31.3381 35.1278 31.277 35.1754C31.2158 35.2161 31.175 35.2705 31.141 35.3384C31.107 35.4063 31.0934 35.481 31.1002 35.5693C31.1002 35.6101 31.1004 35.6236 31.1208 35.6644" fill="white"/>
<path d="M35.108 10.16C34.9858 10.2687 34.8295 10.3298 34.6597 10.3298C34.5306 10.3298 34.4084 10.289 34.3065 10.2279C34.1367 10.3705 33.926 10.4656 33.6883 10.4656C33.3215 10.4656 33.0025 10.2551 32.8463 9.94265C32.8055 9.94945 32.7646 9.95624 32.7239 9.95624C32.6492 9.95624 32.5744 9.94265 32.5133 9.90869C32.5201 10.6558 33.0025 11.2875 33.6681 11.5252C34.388 11.4165 34.9653 10.8664 35.1147 10.1532" fill="#C95C68"/>
<path d="M34.3476 8.84315C34.3476 9.0605 34.1437 9.23708 33.8992 9.23708C33.6547 9.23708 33.4508 9.0605 33.4508 8.84315C33.4508 8.62581 33.6547 8.44922 33.8992 8.44922C34.1437 8.44922 34.3476 8.62581 34.3476 8.84315Z" fill="#B08F36"/>
<path d="M33.6745 8.02771C33.6745 8.24506 33.471 8.42165 33.2265 8.42165C32.9819 8.42165 32.7781 8.24506 32.7781 8.02771C32.7781 7.81037 32.9819 7.63379 33.2265 7.63379C33.471 7.63379 33.6745 7.81037 33.6745 8.02771Z" fill="#B08F36"/>
<path d="M33.2333 8.97254C33.2333 9.18988 33.0295 9.36647 32.785 9.36647C32.5404 9.36647 32.3369 9.18988 32.3369 8.97254C32.3369 8.75519 32.5404 8.57861 32.785 8.57861C33.0295 8.57861 33.2333 8.75519 33.2333 8.97254Z" fill="#B08F36"/>
<path d="M34.0279 9.74549C34.0279 9.96283 33.8244 10.1394 33.5798 10.1394C33.3353 10.1394 33.1315 9.96283 33.1315 9.74549C33.1315 9.52814 33.3353 9.35156 33.5798 9.35156C33.8244 9.35156 34.0279 9.52814 34.0279 9.74549Z" fill="#B08F36"/>
<path d="M35.1417 9.56972C35.1417 9.78706 34.9378 9.96365 34.6933 9.96365C34.4488 9.96365 34.2452 9.78706 34.2452 9.56972C34.2452 9.35237 34.4488 9.17578 34.6933 9.17578C34.9378 9.17578 35.1417 9.35237 35.1417 9.56972Z" fill="#B08F36"/>
<path d="M35.4267 8.63221C35.4267 8.84955 35.2228 9.02614 34.9783 9.02614C34.7338 9.02614 34.5303 8.84955 34.5303 8.63221C34.5303 8.41486 34.7338 8.23828 34.9783 8.23828C35.2228 8.23828 35.4267 8.41486 35.4267 8.63221Z" fill="#B08F36"/>
<path d="M34.7953 7.8783C34.7953 8.09564 34.5918 8.27223 34.3473 8.27223C34.1028 8.27223 33.8989 8.09564 33.8989 7.8783C33.8989 7.66096 34.1028 7.48438 34.3473 7.48438C34.5918 7.48438 34.7953 7.66096 34.7953 7.8783Z" fill="#B08F36"/>
<path d="M37.5935 10.3506C37.3286 10.6494 37.0161 10.9007 36.6629 11.0977C36.1332 11.3965 35.5221 11.5663 34.8701 11.5663C34.809 11.5663 34.7478 11.5663 34.6867 11.5596C34.2928 11.8244 33.8309 12.0078 33.3419 12.0825C33.8921 12.4697 34.5577 12.7006 35.2777 12.7006C36.3508 12.7006 37.3015 12.198 37.9195 11.4169C37.9195 11.4101 37.9333 11.4033 37.9401 11.3898C38.0148 11.2811 38.0555 11.1452 38.0555 11.0026C38.0555 10.7038 37.8652 10.4457 37.5935 10.3506Z" fill="#C95C68"/>
<path d="M32.9413 11.7226C32.8191 11.5595 32.6767 11.4101 32.5205 11.2811C32.3235 11.1181 32.0992 10.989 31.8615 10.8871C31.8479 10.8871 31.8413 10.8804 31.8277 10.8736C31.8073 10.8668 31.7799 10.8532 31.7527 10.8464C31.5829 10.7853 31.4065 10.7377 31.2231 10.7173C31.0397 10.663 30.8631 10.5951 30.6865 10.5204C30.6526 10.5136 30.6119 10.5 30.5711 10.5C30.4285 10.5 30.3131 10.5951 30.2723 10.7241C30.2723 10.7377 30.2655 10.7581 30.2587 10.7717C30.2587 10.7853 30.2587 10.7989 30.2587 10.8124C30.2587 10.8192 30.2587 10.8328 30.2587 10.8396C30.2587 10.8736 30.2451 10.9075 30.2451 10.9415C30.2451 11.3286 30.4351 11.675 30.734 11.8856C30.7747 11.9127 30.8156 11.9331 30.8563 11.9603C30.8631 11.9603 30.8699 11.9671 30.8835 11.9739C31.1552 12.1369 31.4541 12.2659 31.7733 12.3474C32.045 12.4153 32.3301 12.4629 32.6289 12.4629C32.8327 12.4629 33.0365 12.4425 33.2335 12.4085C33.0705 12.2252 32.9687 11.9874 32.9619 11.7226" fill="#C95C68"/>
<path d="M32.0716 6.21408C31.8203 5.82694 31.3856 5.56885 30.883 5.56885C30.8694 5.56885 30.8628 5.56885 30.8492 5.56885C30.0817 5.58922 29.4702 6.21408 29.4702 6.98158C29.4702 7.05629 29.4772 7.1242 29.4908 7.19891C29.5315 7.47738 29.6606 7.73548 29.844 7.93245C29.9662 7.89169 30.1018 7.86453 30.2376 7.85773C30.2852 7.85773 30.3261 7.85773 30.3736 7.85773C30.5026 7.85773 30.6248 7.87133 30.747 7.89849C31.0255 7.95962 31.277 8.08866 31.4876 8.26525C31.7253 8.14979 31.929 7.9732 32.0716 7.75586C31.9969 7.51135 31.9628 7.25325 31.9628 6.98836C31.9628 6.72348 32.0037 6.46539 32.0716 6.22088" fill="#C95C68"/>
<path d="M30.048 8.31929C29.9529 8.31929 29.8578 8.32608 29.7627 8.33966C29.4164 8.36683 29.1379 8.65209 29.1379 9.00527C29.1379 9.15469 29.1922 9.29732 29.2805 9.40599C29.2805 9.40599 29.3144 9.44675 29.328 9.46033C29.328 9.46033 29.3348 9.47392 29.3416 9.47392C29.9053 10.0512 30.693 10.4112 31.5692 10.4112C31.7797 10.4112 31.9838 10.3908 32.1807 10.3501C32.1332 9.21583 31.1958 8.3125 30.048 8.3125" fill="#C95C68"/>
<path d="M37.5731 7.19189C37.4509 7.19189 37.3286 7.21227 37.2199 7.24623C37.152 7.26661 37.0907 7.29377 37.0296 7.32773C37.0092 7.34132 36.9889 7.34811 36.9685 7.36169C36.4795 7.613 36.0788 8.00693 35.8207 8.48916C35.8954 8.72688 35.9431 8.97818 35.9431 9.24307C35.9431 9.69134 35.8207 10.1056 35.6101 10.4656C35.583 10.5132 35.5557 10.5539 35.5286 10.6015C35.5693 10.6015 35.61 10.6015 35.644 10.5947C36.7035 10.4792 37.6614 10.0038 38.3813 9.29061C38.3881 9.28381 38.3948 9.27702 38.4015 9.27023C38.4219 9.24986 38.4492 9.22269 38.4695 9.20232C38.6597 8.99177 38.7753 8.7133 38.7753 8.40766C38.7753 7.74205 38.2387 7.20548 37.5731 7.20548" fill="#C95C68"/>
<path d="M34.8157 3.87793C34.4285 3.87793 34.0687 3.97302 33.7495 4.14282C33.3352 4.39412 32.9953 4.74051 32.7575 5.16161C32.5266 5.56913 32.3977 6.03777 32.3977 6.53359C32.3977 6.83243 32.4454 7.1177 32.5337 7.38938C32.6152 7.33504 32.6964 7.2875 32.7847 7.24674C33.0972 7.09053 33.4436 7.00223 33.8171 7.00223C34.5914 7.00223 35.3726 7.53879 35.7937 8.1229C36.0586 7.40975 36.7852 6.98865 37.0161 6.89356C37.0704 6.71018 37.1249 6.24832 37.1249 6.1804C37.1249 4.91031 36.0924 3.87793 34.8223 3.87793" fill="#C95C68"/>
<path d="M30.0278 10.5413C29.7086 10.419 29.4434 10.1881 29.2736 9.88927C29.2125 9.7806 29.165 9.65834 29.131 9.5293C29.1242 9.59042 29.1174 9.65834 29.1174 9.72626C29.1174 10.2764 29.4367 10.7518 29.8918 10.9896C29.8918 10.976 29.8918 10.9624 29.8918 10.9488C29.8918 10.7994 29.9395 10.6635 30.0278 10.5549C30.0278 10.5549 30.0275 10.5549 30.041 10.5481" fill="#C95C68"/>
<path d="M29.7902 28.56C29.5797 28.071 29.0906 27.7925 28.588 27.8197C28.3843 28.0099 28.2482 28.268 28.2143 28.5464C28.1871 28.7638 28.2145 28.9879 28.3028 29.2053C28.5134 29.6943 29.0024 29.9727 29.505 29.9456C29.7631 29.7011 29.9056 29.3615 29.892 29.0083C29.892 28.8589 29.8581 28.7094 29.7902 28.5668" fill="#C95C68"/>
<path d="M40.2353 14.5273C40.2013 14.3847 40.0723 14.2692 39.9229 14.2488C39.9093 14.2488 39.8957 14.2488 39.8821 14.2488C39.8821 14.2488 39.8687 14.2488 39.8619 14.2488C38.7208 14.2081 37.5727 14.6292 36.717 15.5121C35.868 16.3883 35.4878 17.5497 35.5625 18.6772H35.542C35.542 18.6772 35.542 18.6976 35.542 18.7111C35.542 18.847 35.4672 18.9692 35.3586 19.0371C35.345 19.0371 35.3315 19.0507 35.3247 19.0575C35.3112 19.0643 35.2975 19.0711 35.2839 19.0779C35.0734 19.1866 34.8629 19.2884 34.6455 19.3767C33.423 19.9133 32.0849 20.2393 30.6858 20.314C30.6654 20.314 30.6451 20.314 30.6248 20.3072C30.9711 20.0424 31.3039 19.7435 31.6164 19.4243C32.0714 18.9556 32.4653 18.4462 32.7914 17.9097C33.294 17.0879 33.6538 16.2049 33.8712 15.2948C33.878 15.2676 33.8849 15.2404 33.8917 15.2133V15.1997C33.8917 15.1861 33.8917 15.1657 33.8917 15.1521C33.8917 14.8941 33.6878 14.6767 33.4298 14.6699C33.2056 14.6699 33.0087 14.8193 32.9611 15.0299C32.8117 15.6751 32.5874 16.3068 32.275 16.9045C31.9286 17.5701 31.4873 18.2017 30.9372 18.7655C30.3327 19.3903 29.6465 19.8929 28.9198 20.2801C28.9062 20.2869 28.886 20.3004 28.8724 20.3072L27.1744 20.2665C27.2763 20.1986 27.3715 20.1239 27.4666 20.0424C28.5125 19.1866 29.2255 17.9436 29.3682 16.5173C29.3682 16.5173 29.3682 16.5105 29.3682 16.5037C29.3682 16.2321 29.1577 16.0011 28.886 16.0011C28.6279 16.0011 28.4172 16.1845 28.3832 16.4358H28.3766C28.2272 17.835 27.3986 19.0304 26.2236 19.6892C25.7753 19.9405 25.2794 20.1103 24.7564 20.185C24.6953 20.1918 24.6273 20.1986 24.5594 20.2054L23.5476 20.185L22.3862 20.1578C22.3862 20.1578 22.3248 20.1442 22.2976 20.1374C22.3859 20.0695 22.4745 19.9948 22.556 19.9201C22.6239 19.859 22.6917 19.791 22.7596 19.7231C22.8955 19.5805 23.0176 19.4379 23.133 19.2817C23.3368 19.0032 23.5136 18.7111 23.6494 18.4055C23.9143 17.7942 24.0434 17.1422 24.0298 16.4902C24.0298 16.4222 24.0296 16.3475 24.0228 16.2796C24.0228 16.2796 24.0228 16.2389 24.0228 16.2117C24.0228 16.0894 24.0771 15.9808 24.1518 15.8993C24.179 15.8721 24.2132 15.8517 24.2404 15.8246C24.8449 15.3016 25.2318 14.5273 25.2522 13.6647C25.2658 12.9448 25.0213 12.2724 24.6002 11.7562C24.4032 11.5117 24.1587 11.2943 23.8938 11.1245C23.8734 11.1109 23.8532 11.0974 23.8328 11.0906C23.7649 11.0498 23.6968 11.0158 23.6288 10.9751C23.5541 11.0091 23.4797 11.0498 23.405 11.0906C23.405 11.0906 23.4048 11.0906 23.398 11.0906C22.943 11.3419 22.5627 11.7154 22.291 12.1705C22.1688 12.3742 22.0737 12.5916 22.0058 12.8293C21.9311 13.0738 21.8902 13.3319 21.8834 13.6036C21.8834 13.7123 21.8834 13.8141 21.897 13.9228C21.9649 14.6971 22.3317 15.3967 22.8886 15.8789C22.9022 15.8925 22.9158 15.906 22.9294 15.9128C23.0109 15.9876 23.0584 16.0962 23.072 16.2117C23.072 16.2253 23.072 16.2457 23.072 16.2592C23.072 16.3204 23.0788 16.3815 23.0856 16.4426C23.106 16.9113 23.0314 17.3867 22.8684 17.835C22.7529 18.1542 22.5831 18.4598 22.3726 18.7383C22.2843 18.8538 22.1889 18.9692 22.0871 19.0711C21.958 19.2069 21.8224 19.3292 21.6798 19.4379C21.4353 19.6213 21.1771 19.7707 20.9054 19.8861C20.8579 19.9065 20.8102 19.9269 20.7695 19.9405C20.7695 19.9405 20.7491 19.9405 20.7423 19.9405C20.7287 19.9405 20.722 19.9405 20.7084 19.9405C20.3009 19.9405 19.907 19.9609 19.5198 20.0152C19.3297 20.0424 19.1464 20.0763 18.963 20.1171C18.4536 20.2325 17.9643 20.4023 17.5025 20.6197C15.4513 21.5841 13.9165 23.4791 13.4615 25.768C13.4615 25.7884 13.4615 25.8019 13.4479 25.8223C13.4479 25.8359 13.4479 25.8563 13.4479 25.8699C13.4479 26.1483 13.6652 26.3792 13.9437 26.386C14.1746 26.386 14.3716 26.2434 14.4395 26.0396C14.4395 26.0193 14.4531 25.9989 14.4531 25.9853C14.4531 25.9717 14.4529 25.9514 14.4597 25.9378C15.0099 23.4315 17.0476 21.4958 19.5878 21.0883C19.8459 21.0883 20.0973 21.0612 20.3486 21.0136C20.4709 21.0136 20.5996 21.0136 20.7287 21.0136C20.817 21.0136 20.9053 21.0136 20.9936 21.0272C21.0208 21.0408 21.0481 21.0611 21.0752 21.0747C21.0752 21.0611 21.0684 21.0476 21.0616 21.034C22.1551 21.1155 23.1603 21.4755 24.0228 22.0392C24.5798 22.406 25.0757 22.861 25.49 23.3772C25.8364 23.8119 26.1285 24.2941 26.3526 24.8103C26.3933 24.9122 26.4339 25.0141 26.4746 25.1159C25.972 25.6185 25.6257 26.2909 25.5374 27.0449C25.5374 27.0924 25.5238 27.1467 25.5238 27.1943C25.4627 27.9821 25.6871 28.7293 26.1082 29.327C26.1625 29.3949 26.2369 29.4356 26.332 29.4356C26.3999 29.4356 26.4611 29.4153 26.5154 29.3745C26.5154 29.3745 26.5222 29.3677 26.529 29.3609C26.9365 29.0281 27.2695 28.6002 27.4868 28.1112C27.6498 27.7444 27.7584 27.3505 27.7856 26.9294C27.7992 26.746 27.7992 26.5626 27.7856 26.3792C27.7992 26.386 27.8062 26.3996 27.8198 26.4064C27.9081 26.4879 28.0031 26.5626 28.105 26.6305C28.9064 27.1943 29.8572 27.3777 30.7538 27.2079C30.7809 27.2079 30.8148 27.2011 30.842 27.1875C30.9507 27.1467 31.0323 27.0449 31.0323 26.9226C31.0323 26.8954 31.0322 26.8683 31.0254 26.8411V26.8275C30.8284 26.1279 30.3936 25.4963 29.7552 25.048C29.0285 24.5386 28.1659 24.362 27.3508 24.4911C27.1674 24.036 26.9435 23.6081 26.6786 23.2006C26.4205 22.8067 26.1215 22.4399 25.7954 22.1071C25.4626 21.7675 25.1029 21.4687 24.709 21.197C24.7158 21.197 24.7294 21.197 24.7362 21.197V21.2242L27.6566 21.3057L28.0572 21.3192H28.0436L28.9606 21.3328L29.6534 21.3532C29.7009 21.3532 29.7486 21.3532 29.803 21.3532C29.8301 21.3532 29.857 21.3532 29.8842 21.3532C30.7536 21.3668 31.6027 21.2921 32.4246 21.1359C33.6403 20.9049 34.795 20.4974 35.8613 19.9405C36.0175 19.859 36.1737 19.7707 36.3299 19.6824C37.3759 19.6552 38.4218 19.2341 39.2029 18.4191C39.8617 17.7399 40.2352 16.8909 40.3371 16.0215C40.3982 15.5257 40.3642 15.0231 40.2419 14.5409" fill="white"/>
<path d="M9.18289 15.0711C9.18289 15.0711 9.19649 15.0983 9.20328 15.1119C9.20328 15.1119 9.21009 15.1186 9.21688 15.1254C9.21688 15.1254 9.23048 15.139 9.23048 15.1458C9.23048 15.1458 9.24392 15.1526 9.25071 15.1594C9.25071 15.1594 9.25751 15.1662 9.2643 15.173C9.2711 15.173 9.27792 15.1798 9.2915 15.1866C9.2915 15.1866 9.2983 15.1866 9.3051 15.1866C9.31189 15.1866 9.32551 15.1934 9.33909 15.2002C9.35267 15.2002 9.36629 15.2002 9.37308 15.2002C9.37308 15.2002 9.40012 15.2002 9.41371 15.2002C9.41371 15.2002 9.44092 15.2001 9.4545 15.1934C9.80768 15.0507 10.1609 14.9285 10.5141 14.8402C10.6567 14.8062 10.7925 14.7722 10.9351 14.7451C11.2272 14.6907 11.5192 14.65 11.8045 14.6296C11.8928 14.1542 12.0219 13.6855 12.1781 13.2237C11.8657 13.1829 11.5533 13.1558 11.2409 13.1422C11.0575 13.1422 10.8673 13.1354 10.6771 13.1422C10.2152 13.1558 9.74655 13.2033 9.2779 13.2848C9.2779 13.2848 9.23726 13.2984 9.22368 13.3052C9.11501 13.3527 9.04708 13.4614 9.04028 13.5701C9.04028 14.0455 9.08778 14.5277 9.16249 15.0032C9.16249 15.0032 9.16249 15.0236 9.16249 15.0371C9.16249 15.0507 9.16251 15.0643 9.17609 15.0711" fill="white"/>
<path d="M11.9812 9.81374C12.0763 9.65752 12.1783 9.5081 12.2802 9.35868C12.5111 9.02587 12.7691 8.70665 13.0408 8.40101C12.5586 8.30592 12.0696 8.24479 11.5806 8.21763C11.4855 8.21083 11.3835 8.21763 11.2884 8.25839C11.2069 8.29914 11.1323 8.35347 11.0848 8.42818C10.7656 8.82212 10.4803 9.23642 10.229 9.66432C10.6365 9.66432 11.0439 9.68469 11.4514 9.73903C11.6348 9.7594 11.8114 9.78657 11.988 9.82053" fill="white"/>
<path d="M13.7879 10.3167C14.1139 10.4457 14.4332 10.5816 14.7456 10.7446C15.1396 10.3099 15.5742 9.91597 16.0496 9.5492C16.0564 9.54241 16.07 9.53562 16.0768 9.52883C16.0768 9.52883 16.0836 9.52204 16.0904 9.51524C15.9885 9.46091 15.8865 9.40658 15.7847 9.35224C15.5741 9.20282 15.3566 9.05339 15.1393 8.92435C14.8948 8.77492 14.6504 8.63908 14.3991 8.51004C14.3923 8.51004 14.3787 8.49645 14.3719 8.49645C14.304 8.46928 14.2292 8.46928 14.1613 8.49645C14.1409 8.50324 14.1274 8.51683 14.1139 8.52362C14.1003 8.53721 14.0867 8.54399 14.0731 8.55758C14.0459 8.57795 14.0188 8.60512 13.9985 8.63229C13.8422 8.78171 13.6861 8.93114 13.5434 9.08736C13.2786 9.37262 13.0272 9.67146 12.7963 9.98389C13.1359 10.0722 13.4685 10.1809 13.7945 10.3099" fill="white"/>
<path d="M16.3347 10.1473C15.9748 10.4326 15.635 10.7382 15.3226 11.071C15.1935 11.2069 15.0714 11.3495 14.9492 11.4921C14.7454 11.7367 14.562 11.9812 14.3854 12.2461C14.8336 12.4362 15.2684 12.6536 15.6827 12.9049C15.8933 12.7011 16.1174 12.5109 16.3483 12.3344C16.4638 12.2461 16.5793 12.1645 16.7015 12.083C17.0004 11.8793 17.3194 11.6959 17.659 11.5329C17.7677 11.4786 17.8221 11.3495 17.7678 11.2408C17.7678 11.2273 17.7543 11.2137 17.7475 11.2069C17.7475 11.2069 17.7339 11.1933 17.7339 11.1865C17.4351 10.8197 17.1091 10.4801 16.7695 10.1609C16.7695 10.1609 16.7627 10.1541 16.7559 10.1473C16.6676 10.0726 16.5384 10.0522 16.423 10.0998C16.4026 10.1066 16.3889 10.1202 16.3686 10.127C16.3686 10.127 16.3618 10.1338 16.355 10.1405C16.355 10.1405 16.3415 10.1473 16.3347 10.1541" fill="white"/>
<path d="M9.07428 12.6737C9.65839 12.5583 10.2493 12.5039 10.8335 12.4971C10.9218 12.1575 11.0304 11.8247 11.1527 11.4987C11.2749 11.1727 11.4176 10.8467 11.5806 10.5343C11.1935 10.5003 10.8064 10.4799 10.4124 10.4935C10.1951 10.4935 9.98442 10.5071 9.76707 10.5275C9.73311 10.5275 9.69922 10.5275 9.66526 10.5343C9.64488 10.5343 9.63125 10.5343 9.61087 10.5343C9.59049 10.5343 9.57702 10.5411 9.55665 10.5546C9.48873 10.5886 9.43425 10.6429 9.41388 10.7109C9.41388 10.7177 9.41387 10.7312 9.40708 10.738C9.33237 11.0097 9.27139 11.2882 9.21705 11.5666C9.16951 11.8247 9.13544 12.076 9.10827 12.3341C9.0811 12.4428 9.05402 12.5583 9.02686 12.6669C9.02686 12.6669 9.04046 12.6669 9.04725 12.6669C9.06084 12.6669 9.06749 12.6669 9.08108 12.6669" fill="white"/>
<path d="M9.37292 16.0141C9.37292 16.0141 9.41254 15.981 9.43901 15.9678C9.41916 15.981 9.39278 15.9876 9.37292 16.0009V16.0141Z" fill="white"/>
<path d="M13.0406 12.1842C13.2444 12.0959 13.4686 12.1095 13.6452 12.1978C13.686 12.1299 13.7265 12.0687 13.7673 12.0076C13.9438 11.7359 14.1342 11.4711 14.338 11.2198C14.0188 11.0907 13.6994 10.9753 13.3666 10.8802C13.1697 10.8258 12.9728 10.7715 12.7758 10.7307C12.7215 10.7104 12.6672 10.6968 12.6128 10.6968C12.5381 10.6968 12.4633 10.7104 12.3886 10.7375C12.3139 10.7715 12.2528 10.819 12.2052 10.8734C12.1713 10.9141 12.144 10.9685 12.1237 11.016C12.0218 11.1926 11.9267 11.376 11.8384 11.5594C11.689 11.865 11.5599 12.1842 11.4445 12.5102C11.7705 12.5238 12.0966 12.5578 12.4158 12.6121C12.4905 12.6257 12.5651 12.6325 12.6398 12.6461C12.6874 12.4491 12.8301 12.2725 13.0338 12.1842" fill="white"/>
<path d="M13.2308 14.6567C13.5704 14.6974 13.9034 14.7586 14.2294 14.8401C14.3856 14.5412 14.562 14.2492 14.759 13.9707C14.8881 13.7941 15.024 13.6175 15.1666 13.4477C14.7727 13.2575 14.3653 13.0945 13.9442 12.9655C13.8015 12.9179 13.6588 12.8772 13.5094 12.8364C13.4958 12.8364 13.4822 12.8297 13.4686 12.8229C13.4279 12.8161 13.3805 12.8229 13.333 12.8432C13.2922 12.8636 13.258 12.8908 13.2308 12.9315C13.224 12.9451 13.2174 12.9587 13.2106 12.9723C13.1427 13.1081 13.0747 13.244 13.0136 13.3798C12.837 13.7805 12.6808 14.1948 12.5586 14.6091C12.7827 14.6091 13.0001 14.6295 13.2242 14.6567" fill="white"/>
<path d="M18.6301 12.1573C18.5689 12.0554 18.4603 12.0011 18.3448 12.0079C18.3177 12.0079 18.2904 12.0079 18.2633 12.0215C18.2497 12.0215 18.2429 12.0283 18.2361 12.0351C18.2361 12.0351 18.2226 12.0351 18.2158 12.0419C18.1887 12.0554 18.1684 12.0622 18.1412 12.0758C17.8152 12.2184 17.5095 12.3882 17.2242 12.5716C17.1224 12.6395 17.0205 12.7075 16.9254 12.7754C16.7013 12.9384 16.4837 13.1082 16.2867 13.2984C16.1169 13.4546 15.9607 13.6176 15.8045 13.7874C15.6551 13.9504 15.5193 14.1202 15.3903 14.2968C15.2137 14.5413 15.0577 14.7926 14.915 15.0507C16.0765 15.465 17.1292 16.1714 17.9578 17.1154C18.0461 17 18.1274 16.8845 18.2089 16.7623C18.3379 16.5585 18.4534 16.348 18.5485 16.1374C18.6028 16.0219 18.6503 15.9133 18.6911 15.791C18.7794 15.5601 18.8473 15.3156 18.9017 15.0711C18.9085 15.0303 18.9154 14.9964 18.9222 14.9556C19.0513 14.2832 19.0375 13.5768 18.8745 12.8908C18.8201 12.6735 18.7523 12.4562 18.6708 12.2456C18.6708 12.2252 18.6574 12.2117 18.6506 12.1913C18.6506 12.1777 18.637 12.1709 18.637 12.1573" fill="white"/>
<path d="M13.9302 15.4925C13.6381 15.4245 13.346 15.377 13.0472 15.343C12.8298 15.3227 12.6125 15.3091 12.3884 15.3091C12.1643 15.3091 11.9333 15.3159 11.7024 15.343C11.4307 15.3702 11.1591 15.411 10.8874 15.4721C10.7719 15.4993 10.6497 15.5264 10.5342 15.5604C10.2014 15.6487 9.87542 15.7709 9.5562 15.9136C9.52903 15.9271 9.50858 15.9339 9.48141 15.9475C9.48141 15.9475 9.46781 15.9475 9.46102 15.9543C9.45423 15.9543 9.44062 15.9611 9.43382 15.9679C9.40666 15.9815 9.38638 16.0019 9.366 16.0155C9.2845 16.097 9.25046 16.2192 9.28442 16.3279C9.28442 16.3415 9.29123 16.3483 9.29802 16.3618C9.30481 16.3822 9.31842 16.3958 9.32521 16.4162C9.42709 16.6199 9.54256 16.8169 9.67161 17.0003C10.0723 17.5844 10.5885 18.0598 11.1794 18.413C11.2134 18.4334 11.2473 18.4538 11.2812 18.4741C11.4986 18.5964 11.7227 18.7051 11.9536 18.8001C12.0691 18.8477 12.1846 18.8884 12.3068 18.9224C12.5309 18.9903 12.7687 19.0447 12.9996 19.0854C13.1422 19.1058 13.2848 19.1262 13.4274 19.1397C13.278 17.89 13.4547 16.6403 13.9166 15.4993" fill="white"/>
<path d="M17.2521 17.4004C16.6001 16.7076 15.8119 16.171 14.9426 15.8178C14.9154 15.8042 14.8885 15.7907 14.8613 15.7839C14.7934 15.7703 14.7253 15.7703 14.6574 15.8043C14.5894 15.8382 14.5353 15.8858 14.5081 15.9469C14.4945 15.974 14.4877 16.0012 14.4809 16.0284C14.1685 16.9113 14.0393 17.8622 14.1208 18.8131C14.1208 18.8538 14.1276 18.8946 14.148 18.9285C14.2023 19.0508 14.3315 19.1187 14.4537 19.1051C14.9563 19.044 15.4587 18.9082 15.9478 18.6908C16.43 18.4735 16.8649 18.195 17.2385 17.869C17.2385 17.869 17.2453 17.8622 17.2521 17.8554C17.3472 17.7671 17.3811 17.6245 17.3267 17.5022C17.3199 17.4819 17.3065 17.4615 17.2929 17.4479C17.2793 17.4275 17.2655 17.4139 17.2451 17.4004" fill="white"/>
<path d="M27.9352 4.12959C27.6636 4.12959 27.419 4.02092 27.2425 3.84433C27.2221 3.81716 27.1948 3.78999 27.1745 3.76961C27.1745 3.76282 27.1607 3.75603 27.1539 3.74924C27.0996 3.68811 27.0454 3.62698 26.9775 3.57944C26.8213 3.43681 26.6515 3.31455 26.4681 3.20588C26.4681 2.81195 26.1488 2.49951 25.7617 2.49951C25.5172 2.49951 25.2998 2.62856 25.1707 2.81873C25.1164 2.81873 25.0552 2.81873 25.0009 2.81873C24.8243 2.81873 24.6477 2.83232 24.4779 2.86628C24.4032 2.87987 24.3354 2.89345 24.2607 2.91382C23.9822 2.98853 23.724 3.09721 23.4863 3.23984C22.7935 3.65415 22.2911 4.34692 22.1213 5.16196C22.0805 5.35213 22.0599 5.54911 22.0599 5.75286C22.0599 6.35056 22.2368 6.9007 22.5425 7.36255C22.9907 6.97541 23.3506 6.4864 23.5951 5.93625C23.6834 5.73928 23.7513 5.53552 23.8057 5.32497C23.5748 5.29101 23.3981 5.09404 23.3981 4.85632C23.3981 4.82915 23.3981 4.80878 23.3981 4.78161C23.4185 4.67294 23.473 4.57107 23.5477 4.50315C23.6292 4.42844 23.7378 4.38089 23.8601 4.38089C23.8804 4.38089 23.9007 4.38089 23.9211 4.38089C23.9822 4.38768 24.0433 4.40805 24.0909 4.44201C24.1384 4.46918 24.1859 4.50314 24.2199 4.55068C24.281 4.6186 24.3151 4.7069 24.3287 4.80198C24.3287 4.81557 24.3287 4.83595 24.3287 4.84953C24.3287 4.89028 24.3287 4.93103 24.3151 4.97178C24.2947 5.05329 24.254 5.12121 24.1997 5.17554C24.1793 5.19592 24.1588 5.2163 24.1317 5.22988C24.0706 5.53552 23.9754 5.82757 23.8531 6.11284C23.6018 6.70374 23.2282 7.22672 22.7663 7.6614C22.7324 7.68857 22.7054 7.71573 22.6715 7.7429C22.7394 7.76328 22.814 7.78365 22.8887 7.79724C22.9702 7.81082 23.0516 7.81761 23.1331 7.81761C23.8123 7.81761 24.3899 7.36935 24.5937 6.75807C24.6072 6.72411 24.6137 6.69015 24.6205 6.6494C24.6205 6.62223 24.6341 6.59506 24.6341 6.5679C24.7632 6.22151 25.096 5.977 25.4831 5.977C25.5442 5.977 25.6054 5.977 25.6665 5.99737C25.8363 6.03813 26.0131 6.0585 26.1965 6.0585C26.8689 6.0585 27.4665 5.75966 27.8673 5.27743C28.1661 4.92425 28.3495 4.48277 28.3767 3.99375C28.234 4.07525 28.071 4.12279 27.8945 4.12279" fill="#DB9E98"/>
<path d="M20.859 0.45506C20.7639 0.45506 20.6753 0.455059 20.587 0.475435C20.587 0.475435 20.5329 0.475435 20.5058 0.475435C20.302 0.475435 20.1254 0.393937 19.9964 0.258098C19.8673 0.101883 19.6703 0 19.4462 0C19.0522 0 18.7328 0.319224 18.7328 0.713157C18.7328 0.753909 18.7328 0.801454 18.7464 0.842206C18.76 0.903334 18.7736 0.957669 18.8008 1.01201C18.8008 1.02559 18.8008 1.03916 18.8008 1.04596C18.8008 1.27688 18.6175 1.46027 18.3866 1.46027C18.3526 1.46027 18.3118 1.46027 18.2778 1.44669C18.2574 1.44669 18.2302 1.4331 18.2098 1.41952C18.108 1.38556 17.9995 1.37198 17.8908 1.37198C17.2931 1.37198 16.8107 1.8542 16.8107 2.4519C16.8107 2.5334 16.8175 2.60811 16.8378 2.68282C16.8378 2.72357 16.8514 2.75074 16.8514 2.7847C16.8514 2.98166 16.7292 3.15147 16.5526 3.21939C16.3693 3.28731 16.2402 3.4639 16.2402 3.67445C16.2402 3.93934 16.4576 4.15667 16.7224 4.15667C16.8039 4.15667 16.8857 4.1363 16.9536 4.09555C17.2728 3.95292 17.6327 3.87141 18.0062 3.87141C18.991 3.87141 19.8467 4.43514 20.2746 5.25018L20.2816 5.26377C20.2816 5.22981 20.2816 5.20264 20.2816 5.16868C20.2816 5.15509 20.2816 5.13471 20.2816 5.12113C20.2816 4.84266 20.2748 4.5574 20.2544 4.28572C20.2272 3.89858 20.1795 3.51824 20.1184 3.14468C19.9011 3.10393 19.738 2.91375 19.738 2.68282C19.738 2.42473 19.9487 2.20739 20.2136 2.20739C20.4785 2.20739 20.6892 2.41793 20.6892 2.68282C20.6892 2.83224 20.6144 2.96808 20.5058 3.05638C20.5805 3.49107 20.6414 3.92575 20.6686 4.37402C20.6686 4.46232 20.6822 4.55061 20.6822 4.64569C20.6958 4.86304 20.7024 5.07359 20.7024 5.29093C20.7024 5.42677 20.7024 5.56261 20.7024 5.69845C20.75 5.71203 20.7978 5.71882 20.8454 5.71882C21.1442 5.71882 21.3884 5.47431 21.3952 5.17547C21.3952 5.17547 21.3952 5.17547 21.3952 5.16868C21.3952 5.10755 21.3887 5.05322 21.3684 4.99888C21.3548 4.87662 21.3548 4.75437 21.3684 4.62532C21.3752 4.51665 21.3954 4.41476 21.4158 4.31289C21.5856 3.59973 22.129 3.036 22.815 2.83224C22.8421 2.6964 22.8624 2.55378 22.8624 2.41115C22.8624 1.32443 21.9795 0.441473 20.8928 0.441473" fill="#DB9E98"/>
<path d="M21.4084 8.42825C21.225 7.11061 20.4507 5.98314 19.3572 5.32432C19.3368 5.31074 19.3165 5.30394 19.2962 5.29036C18.6237 4.95755 17.8698 4.76058 17.0752 4.72662C17.0548 4.72662 17.0345 4.72662 17.0141 4.72662C16.953 4.72662 16.8849 4.72662 16.8238 4.72662C16.5589 4.72662 16.2942 4.747 16.0361 4.78096C15.975 4.78775 15.9069 4.79455 15.8458 4.79455C15.5945 4.79455 15.3568 4.73342 15.153 4.61796C15.0239 4.55004 14.9086 4.46174 14.8068 4.35986C14.8611 4.59079 14.9425 4.80814 15.0512 5.0119C15.0851 5.07982 15.126 5.14773 15.1736 5.20886C15.2211 5.28357 15.2753 5.35829 15.3364 5.42621C15.3636 5.46017 15.391 5.49412 15.4249 5.52808C15.4657 5.56883 15.5062 5.61638 15.547 5.65713C15.7643 5.86768 16.0225 6.03748 16.3078 6.15294C16.3485 6.81176 16.8919 7.34153 17.5643 7.34153H17.5779C17.5711 7.40266 17.5643 7.46379 17.5643 7.52492C17.5643 8.19053 18.1075 8.73388 18.7732 8.73388C18.8615 8.73388 18.943 8.72709 19.0245 8.70671V8.71351C19.0789 8.69992 19.1264 8.69313 19.1807 8.68634C19.2419 8.68634 19.3029 8.67955 19.3708 8.67955C19.4727 8.67955 19.5748 8.68634 19.6699 8.69992C20.0163 8.74747 20.3354 8.87652 20.6071 9.07348C20.6954 9.13461 20.7702 9.20252 20.8449 9.27044C20.7702 9.1346 20.6953 8.99877 20.6138 8.86293C20.4032 8.52333 20.1655 8.2109 19.9074 7.91205C19.7579 7.74225 19.595 7.57925 19.4252 7.42303C19.3708 7.44341 19.3029 7.45699 19.2418 7.45699C18.9633 7.45699 18.7324 7.22607 18.7324 6.9476C18.7324 6.92043 18.7325 6.89326 18.7393 6.8661C18.7597 6.72347 18.8481 6.59441 18.9635 6.5197C19.045 6.46536 19.1399 6.4382 19.2418 6.4382C19.2689 6.4382 19.2895 6.4382 19.3167 6.4382C19.5069 6.46537 19.6628 6.60121 19.724 6.7846C19.7375 6.83214 19.7512 6.88647 19.7512 6.94081C19.7512 7.00194 19.7377 7.06307 19.7173 7.12419C19.7988 7.19891 19.8802 7.2804 19.9618 7.36191C20.3013 7.7083 20.6069 8.08186 20.8718 8.48937C21.0348 8.74068 21.1843 9.00556 21.3201 9.27724C21.3201 9.27724 21.354 9.31119 21.3812 9.31119C21.4151 9.31119 21.4424 9.28403 21.4491 9.25007C21.4491 9.17536 21.4491 9.10065 21.4491 9.01915C21.4491 8.82218 21.4355 8.62522 21.4084 8.42825Z" fill="#DB9E98"/>
</svg>
