<svg width="53" height="40" viewBox="0 0 53 40" fill="none" xmlns="http://www.w3.org/2000/svg">
<g clip-path="url(#clip0_79_5889)">
<path d="M36.0726 7.36402C36.0726 6.08693 35.548 4.92888 34.6974 4.08057L31.4459 7.36402H36.0726Z" fill="#8BAB80"/>
<path d="M34.5999 3.98594C33.7255 3.16074 32.5346 2.6499 31.22 2.6499V7.14457L34.5999 3.98594Z" fill="#8BAB80"/>
<path d="M16.0537 17.3823C16.0537 18.6594 16.5784 19.8175 17.429 20.6658L20.6804 17.3823H16.0537Z" fill="#8BAB80"/>
<path d="M34.6974 20.6668C35.5468 19.8173 36.0726 18.6604 36.0726 17.3833H31.4459L34.6974 20.6668Z" fill="#8BAB80"/>
<path d="M17.5266 20.7617C18.401 21.5869 19.5919 22.0977 20.9065 22.0977V17.603L17.5266 20.7617Z" fill="#8BAB80"/>
<path d="M31.22 17.6016V22.0962C32.5346 22.0962 33.7267 21.5865 34.5999 20.7602L31.22 17.6016Z" fill="#8BAB80"/>
<path d="M17.429 4.08057C16.5796 4.93003 16.0537 6.08693 16.0537 7.36402H20.6804L17.429 4.08057Z" fill="#8BAB80"/>
<path d="M20.9065 7.14457V2.6499C19.5919 2.6499 18.3998 3.15958 17.5266 3.98594L20.9065 7.14457Z" fill="#8BAB80"/>
<path d="M25.9532 2.65576C23.3251 2.71355 21.2111 4.79734 21.2111 7.36424H25.8592L25.9532 2.65576Z" fill="#1B4C3B"/>
<path d="M26.2673 7.36424H30.9155C30.9155 4.79734 28.8014 2.71355 26.1733 2.65576L26.2673 7.36424Z" fill="#1B4C3B"/>
<path d="M31.22 12.5718V17.0872C33.8623 17.0872 36.0073 15.0335 36.0668 12.4805L31.22 12.5718Z" fill="#1B4C3B"/>
<path d="M36.0668 12.266C36.0073 9.71293 33.8623 7.65918 31.22 7.65918V12.1746L36.0668 12.266Z" fill="#1B4C3B"/>
<path d="M25.8592 17.3823H21.2111C21.2111 19.9492 23.3251 22.033 25.9532 22.0908L25.8592 17.3823Z" fill="#1B4C3B"/>
<path d="M20.9065 12.1746V7.65918C18.2642 7.65918 16.1192 9.71293 16.0597 12.266L20.9065 12.1746Z" fill="#1B4C3B"/>
<path d="M26.1733 22.0918C28.8014 22.034 30.9155 19.9502 30.9155 17.3833H26.2673L26.1733 22.0918Z" fill="#1B4C3B"/>
<path d="M20.9065 17.0872V12.5718L16.0597 12.4805C16.1192 15.0335 18.2642 17.0872 20.9065 17.0872Z" fill="#1B4C3B"/>
<path d="M26.1674 2.35539H30.2659C29.4366 0.961574 27.8924 0.0196475 26.121 0L26.1674 2.35539Z" fill="#C6D486"/>
<path d="M15.7504 12.2716V8.29004C14.3156 9.09674 13.3472 10.5957 13.3258 12.3178L15.7504 12.2727V12.2716Z" fill="#C6D486"/>
<path d="M36.3761 12.2717L38.8007 12.3168C38.7805 10.5959 37.8109 9.09577 36.3761 8.28906V12.2706V12.2717Z" fill="#C6D486"/>
<path d="M26.0056 0C24.2341 0.0196475 22.6899 0.961574 21.8595 2.35539H25.958L26.0044 0H26.0056Z" fill="#C6D486"/>
<path d="M36.3761 12.4749V16.4565C37.8109 15.6498 38.7793 14.1508 38.8007 12.4287L36.3761 12.4738V12.4749Z" fill="#C6D486"/>
<path d="M26.121 24.7465C27.8924 24.7269 29.4366 23.7849 30.2671 22.3911H26.1686L26.1222 24.7465H26.121Z" fill="#C6D486"/>
<path d="M15.7504 12.4752L13.3258 12.4302C13.346 14.1511 14.3156 15.6512 15.7504 16.4579V12.4764V12.4752Z" fill="#C6D486"/>
<path d="M25.9592 22.3926H21.8607C22.6911 23.7864 24.2342 24.7272 26.0068 24.748L25.9604 22.3926H25.9592Z" fill="#C6D486"/>
<path d="M21.6322 31.2605L21.644 31.2027H21.7214C21.8356 31.2027 21.9355 31.1877 22.0188 31.1565C22.1021 31.1253 22.1699 31.0802 22.2234 31.0178C22.277 30.9554 22.3138 30.8791 22.3341 30.7867L23.1181 27.1958H22.6303C22.4328 27.1958 22.2686 27.2189 22.1402 27.2651C22.0117 27.3114 21.907 27.39 21.8285 27.5021C21.7487 27.6142 21.6821 27.7656 21.6262 27.9586L21.5727 28.1493H21.5132L21.769 27.1392H25.1037L24.9193 28.1493H24.8598C24.8753 28.0684 24.8872 28.0002 24.8931 27.9447C24.8991 27.8892 24.9038 27.8418 24.9086 27.8037C24.9121 27.7656 24.9145 27.7309 24.9145 27.6997C24.9145 27.5113 24.861 27.3807 24.7539 27.3067C24.6468 27.2339 24.4684 27.1969 24.2185 27.1969H23.7189L22.9337 30.7878C22.9301 30.8109 22.9253 30.8317 22.9218 30.8514C22.9182 30.871 22.9158 30.8895 22.9158 30.9092C22.9158 31.0051 22.9527 31.0791 23.0265 31.1288C23.1002 31.1785 23.2097 31.2039 23.356 31.2039H23.4333L23.4215 31.2617H21.6322V31.2605Z" fill="#1B4C3B"/>
<path d="M27.4034 31.3181C27.2297 31.3181 27.0953 31.2638 27.0025 31.154C26.9097 31.0442 26.8633 30.9067 26.8633 30.7414C26.8633 30.649 26.8716 30.5403 26.8895 30.4155C26.9073 30.2907 26.9358 30.1393 26.9763 29.9625L27.0774 29.5117C27.0893 29.4574 27.1048 29.3892 27.125 29.3072C27.1452 29.2239 27.1631 29.1338 27.1785 29.0356C27.194 28.9373 27.2023 28.8437 27.2023 28.7559C27.2023 28.6865 27.194 28.6149 27.1785 28.5398C27.1631 28.4646 27.1321 28.4011 27.0869 28.3491C27.0417 28.297 26.9727 28.2716 26.8823 28.2716C26.7717 28.2716 26.661 28.3098 26.5528 28.3872C26.4433 28.4646 26.3434 28.5606 26.253 28.6761C26.1625 28.7917 26.0852 28.9119 26.0245 29.0367C25.9639 29.1615 25.9222 29.2702 25.9032 29.3626L25.4868 31.2627H24.9336L25.7485 27.51C25.7688 27.4326 25.7818 27.3667 25.7902 27.3112C25.7985 27.2557 25.8021 27.2199 25.8021 27.2037C25.8021 27.0881 25.7616 27.0142 25.6795 26.9818C25.5986 26.9495 25.4999 26.9333 25.3857 26.9333H25.3381L25.35 26.8755H26.4433L26.2113 27.9376C26.1875 28.0416 26.1649 28.1422 26.1423 28.2404C26.1197 28.3387 26.0983 28.4311 26.0769 28.5178C26.0555 28.6045 26.0364 28.6808 26.0198 28.7455C26.0043 28.8113 25.99 28.861 25.9781 28.8957H26.0019C26.1126 28.727 26.2268 28.5837 26.3434 28.4681C26.46 28.3525 26.5837 28.2647 26.7146 28.2057C26.8454 28.1468 26.9858 28.1168 27.1369 28.1168C27.2951 28.1168 27.4201 28.1468 27.5117 28.2057C27.6033 28.2647 27.6687 28.3433 27.7103 28.4392C27.752 28.5351 27.7722 28.6415 27.7722 28.757C27.7722 28.853 27.7591 28.9581 27.7341 29.0714C27.708 29.1847 27.6854 29.2921 27.6663 29.3915L27.5117 30.0734C27.4879 30.1809 27.4688 30.2872 27.4546 30.3912C27.4403 30.4953 27.4343 30.5912 27.4343 30.6802C27.4343 30.8189 27.4605 30.924 27.5117 30.998C27.5628 31.0708 27.6401 31.1078 27.7437 31.1078C27.7948 31.1078 27.8495 31.0928 27.9066 31.0639C27.9637 31.035 28.0268 30.9957 28.0934 30.946L28.1291 30.9922C28.0661 31.0419 27.9971 31.0928 27.9245 31.1448C27.8507 31.1968 27.7722 31.2396 27.6865 31.2719C27.6009 31.3043 27.5069 31.3205 27.4046 31.3205L27.4034 31.3181Z" fill="#1B4C3B"/>
<path d="M29.6151 31.3184C29.4045 31.3184 29.2118 31.2745 29.0357 31.1855C28.8596 31.0965 28.7192 30.9647 28.6133 30.7902C28.5086 30.6145 28.4563 30.3926 28.4563 30.1233C28.4563 29.9546 28.4813 29.7766 28.5313 29.5894C28.5812 29.4033 28.6526 29.2219 28.7478 29.0462C28.8429 28.8705 28.9619 28.7122 29.1047 28.57C29.2474 28.4279 29.4128 28.3146 29.6008 28.2325C29.7888 28.1493 29.9981 28.1089 30.2278 28.1089C30.4776 28.1089 30.6715 28.1678 30.8107 28.2846C30.9499 28.4024 31.0189 28.5642 31.0189 28.7723C31.0189 28.9572 30.9451 29.1294 30.7964 29.2889C30.6477 29.4484 30.4443 29.5778 30.1873 29.6784C29.9303 29.7789 29.6389 29.8286 29.3141 29.8286H29.1059C29.1023 29.8633 29.0964 29.9003 29.0904 29.9384C29.0845 29.9766 29.0809 30.017 29.0785 30.0575C29.0761 30.0979 29.0749 30.1361 29.0749 30.1696C29.0749 30.4007 29.0975 30.5972 29.1439 30.7613C29.1892 30.9254 29.257 31.0491 29.3462 31.1335C29.4354 31.2178 29.5437 31.2606 29.6698 31.2606C29.8958 31.2606 30.0755 31.1936 30.2099 31.0583C30.3443 30.9231 30.4478 30.7509 30.5192 30.5382C30.5585 30.5498 30.5894 30.5695 30.6108 30.5983C30.6322 30.6272 30.643 30.6654 30.643 30.7105C30.643 30.7833 30.6061 30.8688 30.5335 30.9647C30.4609 31.0606 30.3479 31.1439 30.198 31.2132C30.0469 31.2825 29.853 31.3172 29.6151 31.3172V31.3184ZM29.276 29.7708C29.4509 29.7708 29.6079 29.7466 29.7483 29.6992C29.8887 29.6506 30.0077 29.5813 30.1052 29.4911C30.2028 29.401 30.2765 29.2912 30.3277 29.1618C30.3788 29.0323 30.405 28.889 30.405 28.7318C30.405 28.5515 30.3777 28.4128 30.3217 28.3158C30.2658 28.2198 30.1873 28.1713 30.0838 28.1713C29.9648 28.1713 29.8542 28.2187 29.7507 28.3123C29.6472 28.4071 29.5544 28.533 29.4711 28.6902C29.3878 28.8474 29.3164 29.0208 29.257 29.2103C29.1975 29.3987 29.1499 29.5859 29.1142 29.7708H29.2748H29.276Z" fill="#1B4C3B"/>
<path d="M0 39.7674V39.6737H0.202248C0.356908 39.6737 0.486585 39.6518 0.592468 39.6079C0.69835 39.5639 0.77925 39.4958 0.833976 39.4021C0.888701 39.3085 0.916064 39.1837 0.916064 39.0277V33.791C0.916064 33.6408 0.888701 33.5206 0.833976 33.4304C0.77925 33.3403 0.69835 33.2744 0.592468 33.234C0.486585 33.1935 0.356908 33.1727 0.202248 33.1727H0V33.0791H2.95044V33.1727H2.74819C2.60067 33.1727 2.47218 33.1947 2.36273 33.2386C2.25328 33.2825 2.17119 33.353 2.11647 33.4501C2.06174 33.5472 2.03438 33.6731 2.03438 33.8292V36.9115L4.42566 34.3169C4.5482 34.1851 4.64813 34.0707 4.72428 33.9702C4.80161 33.8708 4.8599 33.7818 4.89797 33.7032C4.93604 33.6246 4.95627 33.5553 4.95627 33.4917C4.95627 33.4166 4.92414 33.3565 4.8599 33.3091C4.79566 33.2617 4.69572 33.2293 4.56129 33.2109C4.42566 33.1924 4.24959 33.1831 4.03068 33.1831V33.0803H6.22924V33.1831C6.08172 33.1831 5.94014 33.2062 5.80452 33.2536C5.67008 33.301 5.52494 33.3865 5.37028 33.5113C5.21562 33.6362 5.02884 33.8176 4.81112 34.0545L3.34542 35.6379L5.41906 38.5885C5.56658 38.8012 5.69744 38.9768 5.80928 39.1178C5.9223 39.2588 6.02223 39.3698 6.10789 39.4507C6.19474 39.5316 6.27326 39.5894 6.34464 39.624C6.41483 39.6587 6.48978 39.6761 6.56592 39.6761H6.58496V39.7697H6.36248C6.02818 39.7697 5.75336 39.7558 5.53803 39.7269C5.32269 39.6992 5.14424 39.6541 5.00266 39.5905C4.86109 39.5281 4.73736 39.4426 4.63148 39.3328C4.5256 39.2242 4.41733 39.0843 4.30907 38.9156L2.60186 36.4423L2.03319 37.0606V39.0184C2.03319 39.1745 2.06055 39.3016 2.11528 39.3975C2.17 39.4946 2.25209 39.5651 2.36154 39.6079C2.47099 39.6518 2.59948 39.6737 2.747 39.6737H2.94925V39.7674H0Z" fill="#8BAB80"/>
<path d="M9.94348 39.8612C9.2487 39.8612 8.6717 39.7179 8.21248 39.4301C7.75326 39.1423 7.41063 38.7401 7.18577 38.2212C6.96092 37.7022 6.8479 37.0966 6.8479 36.4032C6.8479 35.7098 6.95973 35.1076 7.18577 34.5956C7.41063 34.0836 7.75445 33.6849 8.21724 33.4006C8.68003 33.1163 9.25941 32.9741 9.953 32.9741C10.6466 32.9741 11.176 33.1163 11.6364 33.4006C12.0956 33.6849 12.4454 34.0848 12.6834 34.6002C12.9213 35.1157 13.0403 35.7202 13.0403 36.4124C13.0403 37.1047 12.9201 37.7103 12.6786 38.2258C12.4371 38.7413 12.0873 39.1423 11.6269 39.4301C11.1677 39.7179 10.6061 39.8612 9.94348 39.8612ZM9.94348 39.7675C10.2718 39.7675 10.5538 39.704 10.7917 39.5757C11.0297 39.4474 11.2224 39.2475 11.3699 38.9759C11.5174 38.7043 11.6293 38.3564 11.703 37.9311C11.7768 37.5069 11.8137 37.0007 11.8137 36.4136C11.8137 35.8265 11.7768 35.3226 11.703 34.9007C11.6293 34.4789 11.5186 34.1322 11.3699 33.8606C11.2224 33.589 11.0309 33.389 10.7965 33.2607C10.5621 33.1325 10.2802 33.0689 9.953 33.0689C9.62584 33.0689 9.34269 33.1325 9.10475 33.2607C8.86681 33.389 8.67051 33.589 8.51585 33.8606C8.36119 34.1322 8.24698 34.4789 8.17322 34.9007C8.09946 35.3226 8.06258 35.8265 8.06258 36.4136C8.06258 37.0007 8.09946 37.5069 8.17322 37.9311C8.24698 38.3564 8.36 38.7043 8.51109 38.9759C8.66218 39.2475 8.8561 39.4474 9.09523 39.5757C9.33317 39.704 9.61632 39.7675 9.94348 39.7675Z" fill="#8BAB80"/>
<path d="M13.917 39.7674V39.6737H14.3893C14.5368 39.6737 14.6641 39.6518 14.77 39.6079C14.8759 39.5639 14.9568 39.4958 15.0115 39.4021C15.0662 39.3085 15.0936 39.1837 15.0936 39.0277V33.791C15.0936 33.6408 15.0662 33.5206 15.0115 33.4304C14.9568 33.3403 14.8759 33.2744 14.77 33.234C14.6641 33.1935 14.5368 33.1727 14.3893 33.1727H13.917V33.0791H16.068L18.3926 38.5689L20.3889 33.0791H22.3269V33.1727H22.1247C21.97 33.1727 21.8404 33.1947 21.7345 33.2386C21.6286 33.2825 21.5477 33.353 21.493 33.4501C21.4382 33.5472 21.4109 33.6731 21.4109 33.8292V39.0196C21.4109 39.1756 21.4382 39.3027 21.493 39.3987C21.5477 39.4958 21.6286 39.5663 21.7345 39.609C21.8404 39.6518 21.97 39.6749 22.1247 39.6749H22.3269V39.7685H19.6168V39.6749H19.6656C19.8012 39.6749 19.9178 39.6529 20.0177 39.609C20.1177 39.5651 20.195 39.4969 20.2497 39.4033C20.3045 39.3097 20.3318 39.1872 20.3318 39.0381V33.5287L18.075 39.7685H17.7764L15.1923 33.6315V39.0184C15.1923 39.1745 15.2209 39.3016 15.2792 39.3975C15.3375 39.4934 15.4243 39.5651 15.5397 39.6079C15.6551 39.6518 15.7967 39.6737 15.9645 39.6737H16.1953V39.7674H13.9194H13.917Z" fill="#8BAB80"/>
<path d="M26.2993 39.8612C25.6045 39.8612 25.0275 39.7179 24.5683 39.4301C24.1091 39.1423 23.7665 38.7401 23.5416 38.2212C23.3168 37.7022 23.2037 37.0966 23.2037 36.4032C23.2037 35.7098 23.3156 35.1076 23.5416 34.5956C23.7665 34.0836 24.1103 33.6849 24.5731 33.4006C25.0359 33.1163 25.6152 32.9741 26.3088 32.9741C27.0024 32.9741 27.5318 33.1163 27.9923 33.4006C28.4515 33.6849 28.8012 34.0848 29.0392 34.6002C29.2771 35.1157 29.3961 35.7202 29.3961 36.4124C29.3961 37.1047 29.2759 37.7103 29.0344 38.2258C28.7929 38.7413 28.4431 39.1423 27.9827 39.4301C27.5235 39.7179 26.962 39.8612 26.2993 39.8612ZM26.2993 39.7675C26.6277 39.7675 26.9096 39.704 27.1476 39.5757C27.3855 39.4474 27.5782 39.2475 27.7258 38.9759C27.8733 38.7043 27.9851 38.3564 28.0589 37.9311C28.1326 37.5069 28.1695 37.0007 28.1695 36.4136C28.1695 35.8265 28.1326 35.3226 28.0589 34.9007C27.9851 34.4789 27.8745 34.1322 27.7258 33.8606C27.5782 33.589 27.3867 33.389 27.1523 33.2607C26.918 33.1325 26.636 33.0689 26.3088 33.0689C25.9817 33.0689 25.6985 33.1325 25.4606 33.2607C25.2226 33.389 25.0263 33.589 24.8717 33.8606C24.717 34.1322 24.6028 34.4789 24.5291 34.9007C24.4553 35.3226 24.4184 35.8265 24.4184 36.4136C24.4184 37.0007 24.4553 37.5069 24.5291 37.9311C24.6028 38.3564 24.7158 38.7043 24.8669 38.9759C25.018 39.2475 25.2119 39.4474 25.4511 39.5757C25.689 39.704 25.9722 39.7675 26.2993 39.7675Z" fill="#8BAB80"/>
<path d="M30.2729 39.7674V39.6737H30.4752C30.6299 39.6737 30.7595 39.6518 30.8654 39.6079C30.9713 39.5639 31.0522 39.4958 31.1069 39.4021C31.1617 39.3085 31.189 39.1837 31.189 39.0277V33.791C31.189 33.6408 31.1617 33.5206 31.1069 33.4304C31.0522 33.3403 30.9713 33.2744 30.8654 33.234C30.7595 33.1935 30.6299 33.1727 30.4752 33.1727H30.2729V33.0791H33.0116C33.5839 33.0791 34.0562 33.1461 34.4297 33.2802C34.8021 33.4143 35.0805 33.6119 35.2637 33.8708C35.4469 34.1297 35.5385 34.4475 35.5385 34.822C35.5385 35.1964 35.4648 35.4726 35.3161 35.7072C35.1685 35.9419 34.9806 36.1256 34.7521 36.2597C34.5237 36.3938 34.2846 36.4989 34.0336 36.5741L35.3065 38.5608C35.4541 38.785 35.5814 38.9711 35.6872 39.1178C35.7931 39.2646 35.8883 39.379 35.9716 39.4599C36.0549 39.5408 36.1322 39.5975 36.2036 39.6287C36.2738 39.6599 36.3487 39.6761 36.4249 39.6761H36.4534V39.7697H36.2607C35.9644 39.7697 35.7158 39.7593 35.5136 39.7373C35.3113 39.7153 35.14 39.6749 35.002 39.616C34.864 39.557 34.7402 39.4703 34.6308 39.3582C34.5213 39.2461 34.4095 39.0993 34.2929 38.9179L32.876 36.6503H32.3073V39.03C32.3073 39.186 32.3347 39.3108 32.3894 39.4045C32.4441 39.4981 32.5262 39.5674 32.6357 39.6102C32.7451 39.6541 32.8736 39.6761 33.0211 39.6761H33.2234V39.7697H30.2729V39.7674ZM32.9545 36.5544C33.2888 36.5544 33.5577 36.4978 33.7599 36.3857C33.9622 36.2736 34.1097 36.0956 34.2037 35.8517C34.2965 35.6079 34.3429 35.2866 34.3429 34.8867C34.3429 34.4868 34.2941 34.1516 34.1978 33.8985C34.1014 33.6454 33.9503 33.4617 33.7445 33.3461C33.5387 33.2305 33.2686 33.1727 32.9343 33.1727H32.3073V36.5544H32.9533H32.9545Z" fill="#8BAB80"/>
<path d="M36.7354 39.7674V39.6737H36.9376C37.0923 39.6737 37.2219 39.6518 37.3278 39.6079C37.4337 39.5639 37.5146 39.4958 37.5693 39.4021C37.6241 39.3085 37.6514 39.1837 37.6514 39.0277V33.8003C37.6514 33.65 37.6241 33.5287 37.5693 33.4351C37.5146 33.3415 37.4337 33.2744 37.3278 33.234C37.2219 33.1935 37.0923 33.1727 36.9376 33.1727H36.7354V33.0791H41.7214L41.7797 34.7376H41.6833L41.6643 34.4278C41.6381 34.1158 41.5786 33.8673 41.4858 33.6836C41.3918 33.4998 41.2467 33.368 41.0468 33.2906C40.8481 33.212 40.584 33.1739 40.2557 33.1739H38.7804V36.2192H41.1622V36.3129H38.7804V39.6761H40.5162C40.8636 39.6761 41.1408 39.6368 41.3502 39.5593C41.5596 39.4807 41.7118 39.3501 41.8082 39.1664C41.9046 38.9826 41.9652 38.7341 41.9914 38.4221L42.0105 38.1135H42.1068L42.039 39.772H36.7354V39.7674Z" fill="#8BAB80"/>
<path d="M42.8207 39.7674V39.6737H43.0229C43.1776 39.6737 43.3073 39.6518 43.4131 39.6079C43.519 39.5639 43.5999 39.4946 43.6547 39.3975C43.7094 39.3004 43.7367 39.1745 43.7367 39.0184V33.8003C43.7367 33.65 43.7094 33.5298 43.6547 33.4397C43.5999 33.3495 43.5178 33.2825 43.4084 33.2386C43.2989 33.1947 43.1705 33.1727 43.0229 33.1727H42.8207V33.0791H45.4725C46.3208 33.0791 46.9596 33.2155 47.3867 33.4871C47.8138 33.7587 48.028 34.1597 48.028 34.6914C48.028 35.0034 47.9554 35.2692 47.8103 35.4877C47.6651 35.7061 47.4522 35.876 47.169 35.9985C46.8859 36.1198 46.5325 36.1973 46.1078 36.2285V36.247C46.8728 36.2724 47.4319 36.4354 47.7865 36.7393C48.1398 37.0421 48.3171 37.4536 48.3171 37.9713C48.3171 38.5712 48.1053 39.0208 47.6806 39.3201C47.2559 39.6194 46.6158 39.7697 45.7616 39.7697H42.8207V39.7674ZM45.444 36.2169C45.7783 36.2169 46.0471 36.1672 46.2494 36.0667C46.4516 35.9673 46.5991 35.809 46.6931 35.594C46.7859 35.379 46.8335 35.0924 46.8335 34.7364C46.8335 34.1678 46.7264 33.7656 46.5111 33.5275C46.2958 33.2906 45.9341 33.1716 45.4261 33.1716H44.8574V36.2169H45.4463H45.444ZM45.714 39.6737C46.222 39.6737 46.5837 39.542 46.799 39.2808C47.0144 39.0184 47.1214 38.585 47.1214 37.9783C47.1214 37.5726 47.075 37.249 46.981 37.0086C46.8882 36.7682 46.7395 36.5914 46.5373 36.4793C46.335 36.3672 46.0662 36.3105 45.7319 36.3105H44.8539V39.6737H45.7128H45.714Z" fill="#8BAB80"/>
<path d="M49.176 39.7674V39.6737H49.3783C49.5329 39.6737 49.6626 39.6518 49.7685 39.6079C49.8744 39.5639 49.9553 39.4946 50.01 39.3975C50.0647 39.3004 50.0921 39.1745 50.0921 39.0184V33.8003C50.0921 33.65 50.0647 33.5287 50.01 33.4351C49.9553 33.3415 49.8744 33.2744 49.7685 33.234C49.6626 33.1935 49.5329 33.1727 49.3783 33.1727H49.176V33.0791H52.1265V33.1727H51.9242C51.7767 33.1727 51.6482 33.1947 51.5388 33.2386C51.4293 33.2825 51.3496 33.353 51.2972 33.4501C51.2461 33.5472 51.2199 33.6731 51.2199 33.8292V39.0196C51.2199 39.1756 51.2449 39.3027 51.2972 39.3987C51.3484 39.4958 51.4293 39.5663 51.5388 39.609C51.6482 39.6529 51.7767 39.6749 51.9242 39.6749H52.1265V39.7685H49.176V39.7674Z" fill="#8BAB80"/>
<path d="M25.3619 12.0912L22.49 9.19141C21.7429 9.98309 21.2717 11.0221 21.2206 12.1686L25.3607 12.0912H25.3619Z" fill="#8BAB80"/>
<path d="M25.8532 7.66943C24.673 7.71913 23.6035 8.17565 22.7886 8.90261L25.7735 11.6926L25.8532 7.67059V7.66943Z" fill="#8BAB80"/>
<path d="M26.3541 11.6926L29.3391 8.90261C28.5241 8.1768 27.4546 7.71913 26.2744 7.66943L26.3541 11.6914V11.6926Z" fill="#8BAB80"/>
<path d="M30.9046 12.1686C30.8535 11.0221 30.3835 9.98309 29.6352 9.19141L26.7633 12.0912L30.9034 12.1686H30.9046Z" fill="#8BAB80"/>
<path d="M26.3541 13.0554L26.2744 17.0773C27.4546 17.0276 28.5241 16.5711 29.3391 15.8442L26.3541 13.0542V13.0554Z" fill="#8BAB80"/>
<path d="M25.3619 12.6551L21.2218 12.5776C21.273 13.7241 21.7429 14.7631 22.4912 15.5548L25.3631 12.6551H25.3619Z" fill="#8BAB80"/>
<path d="M26.7645 12.6551L29.6364 15.5548C30.3836 14.7631 30.8547 13.7241 30.9059 12.5776L26.7657 12.6551H26.7645Z" fill="#8BAB80"/>
<path d="M25.7723 13.0552L22.7874 15.8451C23.6023 16.5709 24.6718 17.0286 25.852 17.0783L25.7723 13.0563V13.0552Z" fill="#8BAB80"/>
</g>
<defs>
<clipPath id="clip0_79_5889">
<rect width="52.1264" height="39.8614" fill="white"/>
</clipPath>
</defs>
</svg>
