<svg width="30" height="54" viewBox="0 0 30 54" fill="none" xmlns="http://www.w3.org/2000/svg">
<path d="M12.5516 43.923V46.0557H11.954V43.923H11.1525V43.4204H13.3531V43.923H12.5516Z" fill="white"/>
<path d="M15.4655 46.0489V45.0097H14.2701V46.0489H13.6724V43.4136H14.2701V44.5139H15.4655V43.4136H16.0563V46.0489H15.4655Z" fill="white"/>
<path d="M17.2311 43.9094V44.48H18.5011V44.9758H17.2311V45.5599H18.6845V46.0557H16.6401V43.4204H18.6437V43.9162H17.2311V43.9094Z" fill="white"/>
<path d="M1.6436 52.5557H4.70678V53.5745H0V52.7526L3.02239 49.2004H0.101813V48.1816H4.65935V48.9967L1.6436 52.5624V52.5557Z" fill="white"/>
<path d="M10.3172 51.3127C10.3172 51.6659 10.2628 51.9851 10.1474 52.2704C10.0319 52.5556 9.87572 52.8001 9.66517 52.9971C9.45461 53.1941 9.2034 53.3503 8.90455 53.4589C8.60571 53.5676 8.26596 53.6219 7.89919 53.6219C7.53243 53.6219 7.18604 53.5676 6.8872 53.4589C6.58835 53.3503 6.33033 53.1941 6.11299 52.9971C5.90244 52.7933 5.73265 52.5556 5.61719 52.2704C5.50172 51.9851 5.44739 51.6659 5.44739 51.3127V48.1748H6.66317V51.3127C6.66317 51.7066 6.77864 52.0123 7.00957 52.2296C7.2405 52.4537 7.53243 52.5624 7.89919 52.5624C8.26596 52.5624 8.55804 52.4537 8.77538 52.2296C8.99272 52.0055 9.10138 51.6998 9.10138 51.3127V48.1748H10.3172V51.3127Z" fill="white"/>
<path d="M13.8624 52.0326H12.6196V53.5744H11.4038V48.1748H13.747C14.4534 48.1748 15.0035 48.3378 15.3838 48.6638C15.7642 48.9898 15.9612 49.4517 15.9612 50.0494C15.9612 50.4637 15.873 50.8237 15.7032 51.1157C15.5334 51.4146 15.282 51.6387 14.9492 51.7881L16.097 53.5676H14.7182L13.8624 52.0259V52.0326ZM13.747 51.0138C14.0866 51.0138 14.3446 50.9391 14.528 50.7829C14.7114 50.6267 14.7998 50.3958 14.7998 50.0901C14.7998 49.7845 14.7114 49.5604 14.528 49.4109C14.3446 49.2615 14.0866 49.1868 13.747 49.1868H12.6196V51.0138H13.747Z" fill="white"/>
<path d="M16.9865 53.5744V48.1748H18.2022V53.5744H16.9865Z" fill="white"/>
<path d="M21.8905 48.1406C22.0875 48.1406 22.2777 48.161 22.4747 48.2017C22.6717 48.2425 22.8617 48.3036 23.0451 48.3783C23.2285 48.453 23.4051 48.5481 23.5681 48.6568C23.7311 48.7654 23.8807 48.8945 24.0165 49.0303L23.3033 49.8929C23.1199 49.6756 22.9026 49.5058 22.6513 49.3767C22.4 49.2477 22.1486 49.1865 21.8973 49.1865C21.6664 49.1865 21.4491 49.2273 21.2521 49.3156C21.0552 49.4039 20.8786 49.5194 20.7291 49.6688C20.5797 49.8182 20.4642 49.9948 20.3827 50.1918C20.3012 50.3955 20.2537 50.6129 20.2537 50.8506C20.2537 51.0883 20.2944 51.3056 20.3827 51.5094C20.4642 51.7132 20.5797 51.8897 20.7291 52.0392C20.8786 52.1886 21.0484 52.304 21.2521 52.3923C21.4559 52.4806 21.6664 52.5214 21.8973 52.5214C22.1418 52.5214 22.3932 52.4671 22.6377 52.3516C22.8822 52.2361 23.1063 52.0867 23.3033 51.8897L24.0233 52.6708C23.738 52.9629 23.3983 53.2006 23.0111 53.3704C22.624 53.547 22.2369 53.6353 21.8361 53.6353C21.4354 53.6353 21.0619 53.5674 20.7155 53.4247C20.3691 53.2821 20.0702 53.0919 19.8189 52.8406C19.5676 52.5893 19.3708 52.304 19.2281 51.9644C19.0855 51.6248 19.0107 51.2649 19.0107 50.8709C19.0107 50.477 19.0855 50.117 19.2281 49.7842C19.3708 49.4514 19.5744 49.1662 19.8325 48.9217C20.0906 48.6771 20.3895 48.487 20.7427 48.3443C21.0891 48.2085 21.4762 48.1338 21.8837 48.1338L21.8905 48.1406Z" fill="white"/>
<path d="M28.411 53.5744V51.4485H25.9658V53.5744H24.75V48.1748H25.9658V50.4297H28.411V48.1748H29.6267V53.5744H28.411Z" fill="white"/>
<path d="M12.5516 43.923V46.0557H11.954V43.923H11.1525V43.4204H13.3531V43.923H12.5516Z" fill="white"/>
<path d="M15.4655 46.0489V45.0097H14.2701V46.0489H13.6724V43.4136H14.2701V44.5139H15.4655V43.4136H16.0563V46.0489H15.4655Z" fill="white"/>
<path d="M17.2311 43.9094V44.48H18.5011V44.9758H17.2311V45.5599H18.6845V46.0557H16.6401V43.4204H18.6437V43.9162H17.2311V43.9094Z" fill="white"/>
<path d="M1.6436 52.5557H4.70678V53.5745H0V52.7526L3.02239 49.2004H0.101813V48.1816H4.65935V48.9967L1.6436 52.5624V52.5557Z" fill="white"/>
<path d="M10.3172 51.3127C10.3172 51.6659 10.2628 51.9851 10.1474 52.2704C10.0319 52.5556 9.87572 52.8001 9.66517 52.9971C9.45461 53.1941 9.2034 53.3503 8.90455 53.4589C8.60571 53.5676 8.26596 53.6219 7.89919 53.6219C7.53243 53.6219 7.18604 53.5676 6.8872 53.4589C6.58835 53.3503 6.33033 53.1941 6.11299 52.9971C5.90244 52.7933 5.73265 52.5556 5.61719 52.2704C5.50172 51.9851 5.44739 51.6659 5.44739 51.3127V48.1748H6.66317V51.3127C6.66317 51.7066 6.77864 52.0123 7.00957 52.2296C7.2405 52.4537 7.53243 52.5624 7.89919 52.5624C8.26596 52.5624 8.55804 52.4537 8.77538 52.2296C8.99272 52.0055 9.10138 51.6998 9.10138 51.3127V48.1748H10.3172V51.3127Z" fill="white"/>
<path d="M13.8624 52.0326H12.6196V53.5744H11.4038V48.1748H13.747C14.4534 48.1748 15.0035 48.3378 15.3838 48.6638C15.7642 48.9898 15.9612 49.4517 15.9612 50.0494C15.9612 50.4637 15.873 50.8237 15.7032 51.1157C15.5334 51.4146 15.282 51.6387 14.9492 51.7881L16.097 53.5676H14.7182L13.8624 52.0259V52.0326ZM13.747 51.0138C14.0866 51.0138 14.3446 50.9391 14.528 50.7829C14.7114 50.6267 14.7998 50.3958 14.7998 50.0901C14.7998 49.7845 14.7114 49.5604 14.528 49.4109C14.3446 49.2615 14.0866 49.1868 13.747 49.1868H12.6196V51.0138H13.747Z" fill="white"/>
<path d="M16.9865 53.5744V48.1748H18.2022V53.5744H16.9865Z" fill="white"/>
<path d="M21.8905 48.1406C22.0875 48.1406 22.2777 48.161 22.4747 48.2017C22.6717 48.2425 22.8617 48.3036 23.0451 48.3783C23.2285 48.453 23.4051 48.5481 23.5681 48.6568C23.7311 48.7654 23.8807 48.8945 24.0165 49.0303L23.3033 49.8929C23.1199 49.6756 22.9026 49.5058 22.6513 49.3767C22.4 49.2477 22.1486 49.1865 21.8973 49.1865C21.6664 49.1865 21.4491 49.2273 21.2521 49.3156C21.0552 49.4039 20.8786 49.5194 20.7291 49.6688C20.5797 49.8182 20.4642 49.9948 20.3827 50.1918C20.3012 50.3955 20.2537 50.6129 20.2537 50.8506C20.2537 51.0883 20.2944 51.3056 20.3827 51.5094C20.4642 51.7132 20.5797 51.8897 20.7291 52.0392C20.8786 52.1886 21.0484 52.304 21.2521 52.3923C21.4559 52.4806 21.6664 52.5214 21.8973 52.5214C22.1418 52.5214 22.3932 52.4671 22.6377 52.3516C22.8822 52.2361 23.1063 52.0867 23.3033 51.8897L24.0233 52.6708C23.738 52.9629 23.3983 53.2006 23.0111 53.3704C22.624 53.547 22.2369 53.6353 21.8361 53.6353C21.4354 53.6353 21.0619 53.5674 20.7155 53.4247C20.3691 53.2821 20.0702 53.0919 19.8189 52.8406C19.5676 52.5893 19.3708 52.304 19.2281 51.9644C19.0855 51.6248 19.0107 51.2649 19.0107 50.8709C19.0107 50.477 19.0855 50.117 19.2281 49.7842C19.3708 49.4514 19.5744 49.1662 19.8325 48.9217C20.0906 48.6771 20.3895 48.487 20.7427 48.3443C21.0891 48.2085 21.4762 48.1338 21.8837 48.1338L21.8905 48.1406Z" fill="white"/>
<path d="M28.411 53.5744V51.4485H25.9658V53.5744H24.75V48.1748H25.9658V50.4297H28.411V48.1748H29.6267V53.5744H28.411Z" fill="white"/>
<path d="M22.2299 7.6002H18.3857V5.30452H17.2718V7.6002C16.5926 7.6002 16.0425 7.05005 16.0425 6.37086V3.26693H14.9286V6.37086C14.9286 7.05005 14.3784 7.6002 13.6992 7.6002H13.5974V5.30452H12.4834V7.6002H7.77661V10.7788H8.8226C8.8226 9.59703 9.7802 8.63937 10.962 8.63937H12.4902V19.717C10.0247 24.2065 7.78341 29.9865 7.78341 36.2011V39.0605H22.2503V35.8819H21.2043C21.2043 37.0637 20.2467 38.0214 19.0649 38.0214H16.0492V15.9475C16.837 14.8064 17.6182 13.7741 18.3449 12.864H18.3993V12.796C20.5456 10.1132 22.2231 8.5239 22.2435 8.50352V7.6002H22.2299ZM13.6992 38.0282H13.5838V19.8665C14.0252 19.0786 14.4735 18.3315 14.915 17.6387V36.8124C14.915 37.4848 14.3716 38.0282 13.6992 38.0282ZM20.6135 8.64615C20.0566 9.22346 19.2823 10.0657 18.3857 11.1388V9.87549C18.3857 9.19629 18.9357 8.64615 19.6149 8.64615H20.6135ZM17.265 9.88229V12.5244C16.8642 13.0338 16.4568 13.5771 16.0357 14.1476V8.65294C16.7149 8.65294 17.265 9.20309 17.265 9.88229ZM14.8132 8.64615H14.915V15.7302C14.8267 15.866 14.7316 16.0018 14.6434 16.1377C14.297 16.6607 13.9437 17.2176 13.5838 17.7949V9.87549C13.5838 9.19629 14.134 8.64615 14.8132 8.64615ZM12.47 38.0282H12.3544C11.682 38.0282 11.1386 37.4848 11.1386 36.8124V24.9604C11.5529 23.9281 12.0013 22.9296 12.47 21.9788V38.0214V38.0282ZM8.8022 36.2147C8.8022 33.4232 9.27087 30.72 10.018 28.1934V36.8192C10.018 37.4916 9.47461 38.035 8.8022 38.035V36.2215V36.2147ZM14.8539 2.54698L14.5007 2.19379V0.638445H14.8539L15.472 0L16.09 0.638445H16.4432V2.19379L16.09 2.54698H14.8539Z" fill="white"/>
</svg>
