<svg width="74" height="39" viewBox="0 0 74 39" fill="none" xmlns="http://www.w3.org/2000/svg">
<path d="M2.92762 27.0459H4.0008C4.0008 27.0459 3.70865 27.2021 3.56602 27.6232L2.58802 30.6456C2.45218 31.0667 2.65584 31.2841 2.65584 31.2841H2.37743C1.92237 31.2841 1.52846 30.9988 1.38583 30.5709L0.428224 27.6232C0.292384 27.2021 0.000244141 27.0459 0.000244141 27.0459H1.27042C1.27042 27.0459 1.08019 27.2021 1.21603 27.6232L2.09902 30.3264L2.97521 27.6232C3.11784 27.2021 2.92082 27.0459 2.92082 27.0459" fill="white"/>
<path d="M5.29822 27.6232V30.6456C5.29822 31.0667 5.53601 31.2297 5.53601 31.2297H4.25903C4.25903 31.2297 4.49682 31.0735 4.49682 30.6456V27.6232C4.49682 27.2021 4.25903 27.0459 4.25903 27.0459H5.53601C5.53601 27.0459 5.29822 27.2021 5.29822 27.6232Z" fill="white"/>
<path d="M9.80783 27.0458C9.80783 27.0458 9.57021 27.2021 9.57021 27.6232V31.284H9.4344C8.93859 31.284 8.47674 31.0123 8.24581 30.5709L6.78544 28.0103V30.6388C6.78544 31.0599 7.02323 31.2161 7.02323 31.2161H6.01123C6.01123 31.2161 6.24885 31.0599 6.24885 30.6388V27.6164C6.24885 27.1953 6.01123 27.0391 6.01123 27.0391H7.19302L9.03362 30.306V27.6164C9.03362 27.1953 8.79583 27.0391 8.79583 27.0391H9.80783V27.0458Z" fill="white"/>
<path d="M13.6863 27.6232V30.6456C13.6863 31.0667 13.9239 31.2297 13.9239 31.2297H12.6471C12.6471 31.2297 12.8847 31.0735 12.8847 30.6456V29.3552H11.3023V30.6456C11.3023 31.0667 11.5399 31.2297 11.5399 31.2297H10.2699C10.2699 31.2297 10.5075 31.0735 10.5075 30.6456V27.6232C10.5075 27.2021 10.2699 27.0459 10.2699 27.0459H11.5399C11.5399 27.0459 11.3023 27.2021 11.3023 27.6232V28.9137H12.8847V27.6232C12.8847 27.2021 12.6471 27.0459 12.6471 27.0459H13.9239C13.9239 27.0459 13.6863 27.2021 13.6863 27.6232Z" fill="white"/>
<path d="M18.4473 29.1316C18.4473 30.6394 17.4421 31.2847 16.4233 31.2847C15.4045 31.2847 14.3993 30.6394 14.3993 29.1316C14.3993 27.6238 15.4045 26.9854 16.4233 26.9854C17.4421 26.9854 18.4473 27.6238 18.4473 29.1316ZM15.2009 29.2471C15.3027 30.3745 15.9004 30.8975 16.5661 30.8364C17.2317 30.7753 17.7341 30.1572 17.6323 29.0297C17.5304 27.9023 16.9395 27.3793 16.2671 27.4404C15.5947 27.5015 15.099 28.1128 15.2009 29.2471Z" fill="white"/>
<path d="M22.9568 30.646L22.7462 28.2484L21.5168 31.2233C21.2452 31.2233 21.0075 31.0671 20.8988 30.8158L19.8324 28.2077L19.622 30.6392C19.5881 31.0603 19.812 31.2165 19.812 31.2165H18.8C18.8 31.2165 19.0583 31.0603 19.0922 30.6392L19.357 27.6168C19.391 27.1957 19.16 27.0327 19.16 27.0327H20.1516L21.4286 30.1638L22.495 27.5692C22.5697 27.3994 22.5968 27.2093 22.5764 27.0259H23.6768C23.6768 27.0259 23.4458 27.1821 23.4866 27.61L23.7514 30.6324C23.7854 31.0535 24.0368 31.2097 24.0368 31.2097H22.7598C22.7598 31.2097 22.984 31.0535 22.95 30.6324" fill="white"/>
<path d="M26.3394 30.7814C26.9915 30.7814 27.331 30.503 27.331 30.503L27.202 31.2229H24.3969C24.3969 31.2229 24.6346 31.0667 24.6346 30.6456V27.6232C24.6346 27.2021 24.3969 27.0391 24.3969 27.0391H27.1408V27.7386C27.1408 27.7386 26.8623 27.4873 26.2578 27.4873H25.4292V28.8118H26.9032L26.808 29.423C26.808 29.423 26.5908 29.26 26.0814 29.26H25.4292V30.7814H26.3394Z" fill="white"/>
<path d="M30.7676 30.1504C30.7676 30.8704 30.1496 31.2915 29.0968 31.2915C28.3701 31.2915 27.8606 31.1013 27.8606 31.1013L27.8062 30.2455C27.8062 30.2455 28.3292 30.8296 29.1646 30.8296C29.6061 30.8296 29.973 30.6327 29.973 30.2591C29.973 29.3626 27.7994 29.2947 27.7994 28.0246C27.7994 27.3657 28.404 26.9922 29.253 26.9922C29.973 26.9922 30.523 27.1824 30.523 27.1824V27.9974C30.523 27.9974 30.0408 27.4405 29.3208 27.4405C28.8997 27.4405 28.5874 27.6374 28.5874 27.9431C28.5874 28.7377 30.7608 28.7513 30.7608 30.1572" fill="white"/>
<path d="M36.7516 29.1316C36.7516 30.6394 35.7464 31.2847 34.7276 31.2847C33.7088 31.2847 32.7036 30.6394 32.7036 29.1316C32.7036 27.6238 33.7088 26.9854 34.7276 26.9854C35.7464 26.9854 36.7516 27.6238 36.7516 29.1316ZM33.5118 29.2471C33.6137 30.3745 34.2114 30.8975 34.877 30.8364C35.5426 30.7753 36.0451 30.1572 35.9432 29.0297C35.8413 27.9023 35.2504 27.3793 34.578 27.4404C33.9056 27.5015 33.4099 28.1128 33.5118 29.2471Z" fill="white"/>
<path d="M40.7182 30.2931L40.6707 31.1013C40.6707 31.1013 40.0865 31.2915 39.353 31.2915C38.3749 31.2915 37.2272 30.6938 37.2272 29.1384C37.2272 27.5831 38.3478 26.9922 39.2444 26.9922C39.9915 26.9922 40.3922 27.1824 40.3922 27.1824V27.9974C40.3922 27.9974 39.9915 27.4405 39.2988 27.4405C38.7011 27.4405 38.0558 27.8684 38.0558 29.1452C38.0558 30.4221 38.7077 30.85 39.3462 30.85C40.2291 30.85 40.7114 30.2999 40.7114 30.2999" fill="white"/>
<path d="M43.1292 30.7814C43.7812 30.7814 44.1208 30.503 44.1208 30.503L43.9918 31.2229H41.1868C41.1868 31.2229 41.4244 31.0667 41.4244 30.6456V27.6232C41.4244 27.2021 41.1868 27.0391 41.1868 27.0391H43.9306V27.7386C43.9306 27.7386 43.6522 27.4873 43.0478 27.4873H42.219V28.8118H43.693L43.5978 29.423C43.5978 29.423 43.3806 29.26 42.8712 29.26H42.219V30.7814H43.1292Z" fill="white"/>
<path d="M47.1635 30.6456L46.9801 30.0683H45.5811L45.4045 30.6456C45.2619 31.0667 45.4519 31.2297 45.4519 31.2297H44.4399C44.4399 31.2297 44.7321 31.0735 44.8747 30.6456L45.8527 27.6232C45.9886 27.2021 45.7983 27.0459 45.7983 27.0459H46.2941C46.5726 27.0459 46.8308 27.2293 46.9191 27.501L47.9447 30.6524C48.0805 31.0735 48.3725 31.2365 48.3725 31.2365H47.0957C47.0957 31.2365 47.2858 31.0803 47.1499 30.6524M46.8647 29.6812L46.2875 27.8134L45.7101 29.6812H46.8647Z" fill="white"/>
<path d="M52.4408 27.0458C52.4408 27.0458 52.2031 27.2021 52.2031 27.6232V31.284H52.0672C51.5714 31.284 51.1095 31.0123 50.8786 30.5709L49.4184 28.0103V30.6388C49.4184 31.0599 49.6562 31.2161 49.6562 31.2161H48.6442C48.6442 31.2161 48.8818 31.0599 48.8818 30.6388V27.6164C48.8818 27.1953 48.6442 27.0391 48.6442 27.0391H49.826L51.6666 30.306V27.6164C51.6666 27.1953 51.4288 27.0391 51.4288 27.0391H52.4408V27.0458Z" fill="white"/>
<path d="M57.5283 28.35C57.5283 29.0767 56.9374 29.6676 56.2107 29.6676H55.4161V30.6456C55.4161 31.0667 55.6537 31.223 55.6537 31.223H54.3837C54.3837 31.223 54.6213 31.0667 54.6213 30.6456V27.6232C54.6213 27.2021 54.3837 27.0459 54.3837 27.0459H56.2175C56.9374 27.0459 57.5351 27.63 57.5351 28.3568M55.8575 27.4874H55.4093V29.2329H55.8575C56.3397 29.2329 56.7337 28.839 56.7337 28.3568C56.7337 27.8745 56.3397 27.4874 55.8575 27.4874Z" fill="white"/>
<path d="M60.1564 30.6456L59.973 30.0683H58.5739L58.3973 30.6456C58.2546 31.0667 58.4449 31.2297 58.4449 31.2297H57.4329C57.4329 31.2297 57.7248 31.0735 57.8675 30.6456L58.8456 27.6232C58.9815 27.2021 58.7913 27.0459 58.7913 27.0459H59.2871C59.5655 27.0459 59.8236 27.2293 59.9119 27.501L60.9375 30.6524C61.0733 31.0735 61.3654 31.2365 61.3654 31.2365H60.0885C60.0885 31.2365 60.2787 31.0803 60.1428 30.6524M59.8576 29.6812L59.2803 27.8134L58.7029 29.6812H59.8576Z" fill="white"/>
<path d="M65.2707 31.2297C65.2707 31.2297 65.0398 31.3045 64.5983 31.3045C64.1569 31.3045 63.9734 31.1075 63.8036 30.7951L63.1244 29.525L62.6762 29.6133V30.6524C62.6762 31.0735 62.9139 31.2297 62.9139 31.2297H61.637C61.637 31.2297 61.8747 31.0735 61.8747 30.6524V27.63C61.8747 27.2089 61.637 27.0459 61.637 27.0459H63.6202C64.2586 27.0459 64.7817 27.5689 64.7817 28.2073C64.7817 28.9273 64.1568 29.2261 63.9123 29.3144L64.6933 30.6524C64.9379 31.0735 65.2639 31.2297 65.2639 31.2297M62.6762 27.4874V29.2261L63.2874 29.1039C63.7017 29.002 63.9938 28.6352 63.9938 28.2073C63.9938 27.8134 63.6745 27.4942 63.2806 27.4942H62.6762V27.4874Z" fill="white"/>
<path d="M69.2443 31.2301L68.4973 31.2573C68.2188 31.2709 67.9471 31.1351 67.7909 30.8973L66.5751 29.1926V30.6392C66.5751 31.0603 66.8129 31.2234 66.8129 31.2234H65.5359C65.5359 31.2234 65.7805 31.0603 65.7805 30.6392V27.6236C65.7805 27.2025 65.5359 27.0395 65.5359 27.0395H66.8129C66.8129 27.0395 66.5751 27.2025 66.5751 27.6236V29.145L67.7093 27.6168C68.0285 27.1957 67.9063 27.0327 67.9063 27.0327H69.0406C69.0406 27.0327 68.6941 27.1957 68.3681 27.6168L67.3359 28.8937L68.5991 30.6392C68.9115 31.0671 69.2579 31.2234 69.2579 31.2234" fill="white"/>
<path d="M73.7543 27.9016C73.7543 28.9815 72.0019 29.6132 72.0019 30.7678H72.5725C73.5573 30.7678 73.9377 30.3807 73.9377 30.3807L73.6999 31.2161H71.2073V30.9172C71.2073 29.4773 72.9595 28.8661 72.9595 27.9152C72.9595 27.6095 72.7422 27.4126 72.3823 27.4126C71.737 27.4126 71.3499 27.9016 71.3499 27.9016L71.4721 27.1477C71.4721 27.1477 71.9272 26.9575 72.5793 26.9575C73.2788 26.9575 73.7543 27.236 73.7543 27.9016Z" fill="white"/>
<mask id="mask0_79_6373" style="mask-type:luminance" maskUnits="userSpaceOnUse" x="0" y="27" width="5" height="5">
<path d="M2.92717 27.0459C2.92717 27.0459 3.11739 27.2021 2.98155 27.6232L2.10537 30.3264L1.22238 27.6232C1.08654 27.2021 1.27677 27.0459 1.27677 27.0459H0.0065918C0.0065918 27.0459 0.298732 27.2021 0.434571 27.6232L1.39218 30.5709C1.53481 30.9988 1.93551 31.2841 2.38378 31.2841H2.66219C2.66219 31.2841 2.45853 31.0667 2.59437 30.6456L3.57237 27.6232C3.715 27.2021 4.00715 27.0459 4.00715 27.0459H2.93396H2.92717Z" fill="white"/>
</mask>
<g mask="url(#mask0_79_6373)">
<path d="M4.00035 27.0459H0.0065918V31.2909H4.00035V27.0459Z" fill="white"/>
</g>
<mask id="mask1_79_6373" style="mask-type:luminance" maskUnits="userSpaceOnUse" x="4" y="27" width="2" height="5">
<path d="M4.26526 27.0459C4.26526 27.0459 4.50304 27.2021 4.50304 27.6232V30.6456C4.50304 31.0667 4.26526 31.223 4.26526 31.223H5.53543C5.53543 31.223 5.29765 31.0667 5.29765 30.6456V27.6232C5.29765 27.2021 5.53543 27.0459 5.53543 27.0459H4.26526Z" fill="white"/>
</mask>
<g mask="url(#mask1_79_6373)">
<path d="M5.53543 27.0459H4.26526V31.2297H5.53543V27.0459Z" fill="white"/>
</g>
<mask id="mask2_79_6373" style="mask-type:luminance" maskUnits="userSpaceOnUse" x="6" y="27" width="4" height="5">
<path d="M8.79571 27.0459C8.79571 27.0459 9.0335 27.2021 9.0335 27.6232V30.3128L7.1929 27.0459H6.01111C6.01111 27.0459 6.24873 27.2021 6.24873 27.6232V30.6456C6.24873 31.0667 6.01111 31.223 6.01111 31.223H7.0231C7.0231 31.223 6.78532 31.0667 6.78532 30.6456V28.0172L8.24569 30.5777C8.48341 31.0192 8.93847 31.2909 9.44108 31.2909H9.57689V27.63C9.57689 27.2089 9.8145 27.0527 9.8145 27.0527H8.80251L8.79571 27.0459Z" fill="white"/>
</mask>
<g mask="url(#mask2_79_6373)">
<path d="M9.8077 27.0459H6.01111V31.2909H9.8077V27.0459Z" fill="white"/>
</g>
<mask id="mask3_79_6373" style="mask-type:luminance" maskUnits="userSpaceOnUse" x="10" y="27" width="4" height="5">
<path d="M12.6532 27.0459C12.6532 27.0459 12.8908 27.2021 12.8908 27.6232V28.9137H11.3084V27.6232C11.3084 27.2021 11.5528 27.0459 11.5528 27.0459H10.276C10.276 27.0459 10.5136 27.2021 10.5136 27.6232V30.6456C10.5136 31.0667 10.276 31.223 10.276 31.223H11.5528C11.5528 31.223 11.3084 31.0667 11.3084 30.6456V29.3552H12.8908V30.6456C12.8908 31.0667 12.6532 31.223 12.6532 31.223H13.9232C13.9232 31.223 13.6856 31.0667 13.6856 30.6456V27.6232C13.6856 27.2021 13.9232 27.0459 13.9232 27.0459H12.6532Z" fill="white"/>
</mask>
<g mask="url(#mask3_79_6373)">
<path d="M13.9232 27.0459H10.276V31.2297H13.9232V27.0459Z" fill="white"/>
</g>
<mask id="mask4_79_6373" style="mask-type:luminance" maskUnits="userSpaceOnUse" x="14" y="26" width="5" height="6">
<path d="M15.2007 29.2466C15.0989 28.1123 15.6013 27.4943 16.267 27.4399C16.9394 27.3788 17.5371 27.9018 17.6321 29.0292C17.734 30.1567 17.2315 30.7748 16.5659 30.8359C16.532 30.8359 16.4979 30.8359 16.464 30.8359C15.8391 30.8359 15.2958 30.3129 15.2007 29.2398M14.3992 29.1311C14.3992 30.6389 15.4044 31.2842 16.4232 31.2842C17.442 31.2842 18.4471 30.6389 18.4471 29.1311C18.4471 27.6233 17.442 26.9849 16.4232 26.9849C15.4044 26.9849 14.3992 27.6233 14.3992 29.1311Z" fill="white"/>
</mask>
<g mask="url(#mask4_79_6373)">
<path d="M18.4471 26.9849H14.3992V31.2842H18.4471V26.9849Z" fill="white"/>
</g>
<mask id="mask5_79_6373" style="mask-type:luminance" maskUnits="userSpaceOnUse" x="18" y="27" width="7" height="5">
<path d="M22.5831 27.0459C22.6035 27.2293 22.5832 27.4127 22.5017 27.5893L21.4353 30.1838L20.1583 27.0527H19.1667C19.1667 27.0527 19.3977 27.2089 19.3569 27.63L19.0921 30.6524C19.0581 31.0735 18.7999 31.2297 18.7999 31.2297H19.8119C19.8119 31.2297 19.5879 31.0735 19.6219 30.6524L19.8323 28.2209L20.8987 30.829C21.0074 31.0735 21.245 31.2365 21.5167 31.2365L22.7393 28.2617L22.9499 30.6592C22.9838 31.0803 22.7597 31.2365 22.7597 31.2365H24.0367C24.0367 31.2365 23.7852 31.0803 23.7513 30.6592L23.4865 27.6368C23.4457 27.2157 23.6767 27.0595 23.6767 27.0595H22.5763L22.5831 27.0459Z" fill="white"/>
</mask>
<g mask="url(#mask5_79_6373)">
<path d="M24.0435 27.0459H18.7999V31.2297H24.0435V27.0459Z" fill="white"/>
</g>
<mask id="mask6_79_6373" style="mask-type:luminance" maskUnits="userSpaceOnUse" x="24" y="27" width="4" height="5">
<path d="M24.3967 27.0454C24.3967 27.0454 24.6345 27.2016 24.6345 27.6227V30.6451C24.6345 31.0662 24.3967 31.2224 24.3967 31.2224H27.2019L27.3309 30.5025C27.3309 30.5025 26.9913 30.7809 26.3393 30.7809H25.4291V29.2595H26.0813C26.5907 29.2595 26.8079 29.4225 26.8079 29.4225L26.9031 28.8113H25.4291V27.4868H26.2577C26.8622 27.4868 27.1407 27.7381 27.1407 27.7381V27.0386H24.3967V27.0454Z" fill="white"/>
</mask>
<g mask="url(#mask6_79_6373)">
<path d="M27.3309 27.0459H24.3967V31.2297H27.3309V27.0459Z" fill="white"/>
</g>
<mask id="mask7_79_6373" style="mask-type:luminance" maskUnits="userSpaceOnUse" x="27" y="26" width="4" height="6">
<path d="M27.8064 28.0173C27.8064 29.2941 29.98 29.3553 29.98 30.2518C29.98 30.6253 29.6131 30.8223 29.1716 30.8223C28.3294 30.8223 27.8132 30.245 27.8132 30.245L27.8676 31.1008C27.8676 31.1008 28.377 31.291 29.1038 31.291C30.1633 31.291 30.7746 30.8767 30.7746 30.1499C30.7746 28.744 28.6012 28.7304 28.6012 27.9358C28.6012 27.6301 28.9135 27.4331 29.3346 27.4331C30.0545 27.4331 30.5368 27.9901 30.5368 27.9901V27.175C30.5368 27.175 29.9867 26.9849 29.2668 26.9849C28.4178 26.9849 27.8132 27.3584 27.8132 28.0173" fill="white"/>
</mask>
<g mask="url(#mask7_79_6373)">
<path d="M30.7678 26.9849H27.8064V31.2842H30.7678V26.9849Z" fill="white"/>
</g>
<mask id="mask8_79_6373" style="mask-type:luminance" maskUnits="userSpaceOnUse" x="32" y="26" width="5" height="6">
<path d="M33.5117 29.2466C33.4098 28.1123 33.9123 27.4943 34.5779 27.4399C35.2503 27.3788 35.848 27.9018 35.9431 29.0292C36.045 30.1567 35.5425 30.7748 34.8769 30.8359C34.8429 30.8359 34.8089 30.8359 34.7749 30.8359C34.15 30.8359 33.6 30.3129 33.5117 29.2398M32.7035 29.1311C32.7035 30.6389 33.7087 31.2842 34.7275 31.2842C35.7463 31.2842 36.7515 30.6389 36.7515 29.1311C36.7515 27.6233 35.7463 26.9849 34.7275 26.9849C33.7087 26.9849 32.7035 27.6233 32.7035 29.1311Z" fill="white"/>
</mask>
<g mask="url(#mask8_79_6373)">
<path d="M36.7515 26.9849H32.7035V31.2842H36.7515V26.9849Z" fill="white"/>
</g>
<mask id="mask9_79_6373" style="mask-type:luminance" maskUnits="userSpaceOnUse" x="37" y="26" width="4" height="6">
<path d="M37.2267 29.1316C37.2267 30.6869 38.3744 31.2846 39.3525 31.2846C40.0928 31.2846 40.6703 31.0944 40.6703 31.0944L40.7177 30.2862C40.7177 30.2862 40.2286 30.8363 39.3525 30.8363C38.714 30.8363 38.0621 30.3609 38.0621 29.1316C38.0621 27.9022 38.7074 27.4268 39.3051 27.4268C39.9978 27.4268 40.3985 27.9837 40.3985 27.9837V27.1687C40.3985 27.1687 39.991 26.9785 39.2507 26.9785C38.3541 26.9785 37.2335 27.6441 37.2335 29.1248" fill="white"/>
</mask>
<g mask="url(#mask9_79_6373)">
<path d="M40.7177 26.9849H37.2267V31.2842H40.7177V26.9849Z" fill="white"/>
</g>
<mask id="mask10_79_6373" style="mask-type:luminance" maskUnits="userSpaceOnUse" x="41" y="27" width="4" height="5">
<path d="M41.1866 27.0454C41.1866 27.0454 41.4243 27.2016 41.4243 27.6227V30.6451C41.4243 31.0662 41.1866 31.2224 41.1866 31.2224H43.9916L44.1207 30.5025C44.1207 30.5025 43.7811 30.7809 43.1291 30.7809H42.2189V29.2595H42.871C43.3804 29.2595 43.5977 29.4225 43.5977 29.4225L43.6928 28.8113H42.2189V27.4868H43.0476C43.6521 27.4868 43.9373 27.7381 43.9373 27.7381V27.0386H41.1934L41.1866 27.0454Z" fill="white"/>
</mask>
<g mask="url(#mask10_79_6373)">
<path d="M44.1205 27.0459H41.1865V31.2297H44.1205V27.0459Z" fill="white"/>
</g>
<mask id="mask11_79_6373" style="mask-type:luminance" maskUnits="userSpaceOnUse" x="44" y="27" width="5" height="5">
<path d="M46.2804 27.8128L46.8576 29.6806H45.703L46.2804 27.8128ZM45.8048 27.0454C45.8048 27.0454 45.995 27.2016 45.8592 27.6227L44.8812 30.6451C44.7386 31.0662 44.4464 31.2224 44.4464 31.2224H45.4584C45.4584 31.2224 45.2684 31.0662 45.411 30.6451L45.5876 30.0678H46.9866L47.17 30.6451C47.3058 31.0662 47.1158 31.2224 47.1158 31.2224H48.3926C48.3926 31.2224 48.1006 31.0662 47.9648 30.6451L46.9392 27.4936C46.8509 27.2219 46.5995 27.0386 46.321 27.0386H45.8184L45.8048 27.0454Z" fill="white"/>
</mask>
<g mask="url(#mask11_79_6373)">
<path d="M48.3858 27.0459H44.4464V31.2297H48.3858V27.0459Z" fill="white"/>
</g>
<mask id="mask12_79_6373" style="mask-type:luminance" maskUnits="userSpaceOnUse" x="48" y="27" width="5" height="5">
<path d="M51.4352 27.0454C51.4352 27.0454 51.6798 27.2016 51.6798 27.6227V30.3124L49.8392 27.0454H48.6506C48.6506 27.0454 48.8883 27.2016 48.8883 27.6227V30.6452C48.8883 31.0663 48.6506 31.2225 48.6506 31.2225H49.6626C49.6626 31.2225 49.4248 31.0663 49.4248 30.6452V28.0167L50.885 30.5772C51.1228 31.0187 51.5778 31.2904 52.0736 31.2904H52.2096V27.6295C52.2096 27.2084 52.4472 27.0522 52.4472 27.0522H51.4352V27.0454Z" fill="white"/>
</mask>
<g mask="url(#mask12_79_6373)">
<path d="M52.4405 27.0454H48.6439V31.2904H52.4405V27.0454Z" fill="white"/>
</g>
<mask id="mask13_79_6373" style="mask-type:luminance" maskUnits="userSpaceOnUse" x="54" y="27" width="4" height="5">
<path d="M55.4159 27.4868H55.8641C56.3464 27.4868 56.7403 27.8808 56.7403 28.3562C56.7403 28.8317 56.3464 29.2324 55.8641 29.2324H55.4159V27.4868ZM54.3835 27.0454C54.3835 27.0454 54.6212 27.2016 54.6212 27.6227V30.6451C54.6212 31.0662 54.3835 31.2224 54.3835 31.2224H55.6536C55.6536 31.2224 55.4159 31.0662 55.4159 30.6451V29.6671H56.2105C56.9305 29.6671 57.5281 29.0829 57.5281 28.3494C57.5281 27.6159 56.9373 27.0386 56.2105 27.0386H54.3835V27.0454Z" fill="white"/>
</mask>
<g mask="url(#mask13_79_6373)">
<path d="M57.5281 27.0459H54.3835V31.2297H57.5281V27.0459Z" fill="white"/>
</g>
<mask id="mask14_79_6373" style="mask-type:luminance" maskUnits="userSpaceOnUse" x="57" y="27" width="5" height="5">
<path d="M59.2737 27.8133L59.8511 29.6811H58.6964L59.2737 27.8133ZM58.7983 27.0458C58.7983 27.0458 58.9886 27.2021 58.8527 27.6232L57.8746 30.6456C57.7319 31.0667 57.4399 31.2229 57.4399 31.2229H58.4519C58.4519 31.2229 58.2617 31.0667 58.4043 30.6456L58.5809 30.0683H59.9801L60.1635 30.6456C60.2994 31.0667 60.1091 31.2229 60.1091 31.2229H61.3793C61.3793 31.2229 61.0872 31.0667 60.9513 30.6456L59.9257 27.4941C59.8374 27.2224 59.5862 27.0391 59.3009 27.0391H58.8051L58.7983 27.0458Z" fill="white"/>
</mask>
<g mask="url(#mask14_79_6373)">
<path d="M61.3793 27.0459H57.4399V31.2297H61.3793V27.0459Z" fill="white"/>
</g>
<mask id="mask15_79_6373" style="mask-type:luminance" maskUnits="userSpaceOnUse" x="61" y="27" width="5" height="5">
<path d="M62.6761 27.4868H63.2805C63.6744 27.4868 63.9937 27.8129 63.9937 28.2C63.9937 28.6279 63.7016 29.0014 63.2805 29.0965L62.6693 29.2188V27.48L62.6761 27.4868ZM61.6437 27.0386C61.6437 27.0386 61.8815 27.2016 61.8815 27.6227V30.6451C61.8815 31.0662 61.6437 31.2224 61.6437 31.2224H62.9139C62.9139 31.2224 62.6761 31.0662 62.6761 30.6451V29.6059L63.1243 29.5176L63.8035 30.7877C63.9665 31.1069 64.1704 31.2971 64.5982 31.2971C65.0261 31.2971 65.2706 31.2224 65.2706 31.2224C65.2706 31.2224 64.9446 31.0662 64.7001 30.6451L63.919 29.3071C64.1568 29.2188 64.7884 28.9199 64.7884 28.2C64.7884 27.5615 64.2653 27.0386 63.6269 27.0386H61.6437Z" fill="white"/>
</mask>
<g mask="url(#mask15_79_6373)">
<path d="M65.2706 27.0386H61.6437V31.3039H65.2706V27.0386Z" fill="white"/>
</g>
<mask id="mask16_79_6373" style="mask-type:luminance" maskUnits="userSpaceOnUse" x="65" y="27" width="5" height="5">
<path d="M67.8994 27.0386C67.8994 27.0386 68.0217 27.1948 67.7024 27.6227L66.5682 29.1509V27.6295C66.5682 27.2084 66.806 27.0454 66.806 27.0454H65.5291C65.5291 27.0454 65.7736 27.2084 65.7736 27.6295V30.6451C65.7736 31.0662 65.5291 31.2292 65.5291 31.2292H66.806C66.806 31.2292 66.5682 31.0662 66.5682 30.6451V29.1984L67.784 30.9032C67.9402 31.1409 68.212 31.27 68.4972 31.2632L69.2442 31.236C69.2442 31.236 68.8979 31.0798 68.5854 30.6519L67.3222 28.9064L68.3546 27.6295C68.6806 27.2152 69.027 27.0454 69.027 27.0454H67.8926L67.8994 27.0386Z" fill="white"/>
</mask>
<g mask="url(#mask16_79_6373)">
<path d="M69.244 27.0386H65.5356V31.2699H69.244V27.0386Z" fill="white"/>
</g>
<mask id="mask17_79_6373" style="mask-type:luminance" maskUnits="userSpaceOnUse" x="71" y="26" width="3" height="6">
<path d="M71.472 27.1403L71.3498 27.8942C71.3498 27.8942 71.7369 27.4052 72.3822 27.4052C72.749 27.4052 72.9662 27.6022 72.9662 27.9078C72.9662 28.8587 71.214 29.47 71.214 30.9031V31.2019H73.7066L73.9444 30.3665C73.9444 30.3665 73.564 30.7537 72.5792 30.7537H72.0086C72.0086 29.6058 73.761 28.9674 73.761 27.8875C73.761 27.2218 73.2855 26.9434 72.586 26.9434C71.9339 26.9434 71.4788 27.1335 71.4788 27.1335" fill="white"/>
</mask>
<g mask="url(#mask17_79_6373)">
<path d="M73.9373 26.957H71.2069V31.2156H73.9373V26.957Z" fill="white"/>
</g>
<path d="M11.8859 35.1689L11.7977 35.6376C11.7977 35.6376 11.7093 35.4882 11.4037 35.4882H11.0709V37.7703C11.0709 38.0759 11.2475 38.1914 11.2475 38.1914H10.3237C10.3237 38.1914 10.5003 38.0759 10.5003 37.7703V35.4882H10.1539C9.84826 35.4882 9.70569 35.6376 9.70569 35.6376L9.7939 35.1689H11.8859Z" fill="white"/>
<path d="M17.9712 35.5896V37.7698C17.9712 38.0754 18.1478 38.1909 18.1478 38.1909H17.2242C17.2242 38.1909 17.4008 38.0754 17.4008 37.7698V36.8393H16.2528V37.7698C16.2528 38.0754 16.4294 38.1909 16.4294 38.1909H15.5126C15.5126 38.1909 15.6892 38.0754 15.6892 37.7698V35.5896C15.6892 35.2839 15.5126 35.1685 15.5126 35.1685H16.4294C16.4294 35.1685 16.2528 35.2839 16.2528 35.5896V36.52H17.4008V35.5896C17.4008 35.2839 17.2242 35.1685 17.2242 35.1685H18.1478C18.1478 35.1685 17.9712 35.2839 17.9712 35.5896Z" fill="white"/>
<path d="M23.2762 37.8722C23.7449 37.8722 23.9894 37.6752 23.9894 37.6752L23.8942 38.1982H21.8702C21.8702 38.1982 22.0468 38.0827 22.0468 37.7771V35.5969C22.0468 35.2913 21.8702 35.1758 21.8702 35.1758H23.8536V35.6784C23.8536 35.6784 23.6497 35.495 23.215 35.495H22.6174V36.4527H23.6838L23.6158 36.8941C23.6158 36.8941 23.4596 36.7787 23.0928 36.7787H22.6242V37.879H23.283L23.2762 37.8722Z" fill="white"/>
<path d="M33.5792 37.8722C34.0478 37.8722 34.2923 37.6752 34.2923 37.6752L34.1973 38.1982H32.1733C32.1733 38.1982 32.3499 38.0827 32.3499 37.7771V35.5969C32.3499 35.2913 32.1733 35.1758 32.1733 35.1758H34.1565V35.6784C34.1565 35.6784 33.9528 35.495 33.5181 35.495H32.9204V36.4527H33.9867L33.9188 36.8941C33.9188 36.8941 33.7625 36.7787 33.3958 36.7787H32.9272V37.879H33.586L33.5792 37.8722Z" fill="white"/>
<path d="M40.9421 37.7766L40.7927 36.0446L39.9097 38.1909C39.7127 38.1909 39.543 38.0754 39.4615 37.8988L38.6871 36.0175L38.5377 37.7698C38.5105 38.0754 38.6735 38.1909 38.6735 38.1909H37.9469C37.9469 38.1909 38.1369 38.0754 38.1573 37.7698L38.3475 35.5896C38.3747 35.2839 38.2049 35.1685 38.2049 35.1685H38.9181L39.8417 37.4302L40.6161 35.5556C40.6704 35.4333 40.6909 35.2975 40.6773 35.1685H41.4719C41.4719 35.1685 41.3089 35.2839 41.3361 35.5896L41.5263 37.7698C41.5534 38.0754 41.7367 38.1909 41.7367 38.1909H40.8131C40.8131 38.1909 40.9761 38.0754 40.9489 37.7698" fill="white"/>
<path d="M47.6522 36.1199C47.6522 36.6429 47.2243 37.0707 46.7014 37.0707H46.124V37.7771C46.124 38.0827 46.3006 38.1982 46.3006 38.1982H45.377C45.377 38.1982 45.5536 38.0827 45.5536 37.7771V35.5969C45.5536 35.2913 45.377 35.1758 45.377 35.1758H46.7014C47.2243 35.1758 47.6522 35.5969 47.6522 36.1199ZM46.4433 35.4882H46.124V36.7447H46.4433C46.7897 36.7447 47.0749 36.4595 47.0749 36.1131C47.0749 35.7667 46.7897 35.4882 46.4433 35.4882Z" fill="white"/>
<path d="M52.0806 35.5896V37.7698C52.0806 38.0754 52.2572 38.1909 52.2572 38.1909H51.3336C51.3336 38.1909 51.5102 38.0754 51.5102 37.7698V35.5896C51.5102 35.2839 51.3336 35.1685 51.3336 35.1685H52.2572C52.2572 35.1685 52.0806 35.2839 52.0806 35.5896Z" fill="white"/>
<path d="M58.608 38.1982C58.608 38.1982 58.445 38.2525 58.119 38.2525C57.793 38.2525 57.6639 38.1099 57.5484 37.8858L57.0594 36.9689L56.7402 37.03V37.7771C56.7402 38.0827 56.9168 38.1982 56.9168 38.1982H55.993C55.993 38.1982 56.1696 38.0827 56.1696 37.7771V35.5969C56.1696 35.2913 55.993 35.1758 55.993 35.1758H57.4262C57.8881 35.1758 58.2684 35.5561 58.2684 36.018C58.2684 36.541 57.8134 36.7583 57.6436 36.8194L58.2072 37.7839C58.3838 38.0895 58.6216 38.205 58.6216 38.205M56.7334 35.4882V36.7447L57.1748 36.6564C57.4737 36.5817 57.691 36.3168 57.691 36.0044C57.691 35.7191 57.4601 35.4882 57.1748 35.4882H56.7402H56.7334Z" fill="white"/>
<path d="M63.5927 37.8722C64.0614 37.8722 64.3058 37.6752 64.3058 37.6752L64.2108 38.1982H62.1868C62.1868 38.1982 62.3634 38.0827 62.3634 37.7771V35.5969C62.3634 35.2913 62.1868 35.1758 62.1868 35.1758H64.17V35.6784C64.17 35.6784 63.9662 35.495 63.5316 35.495H62.9338V36.4527H64.0002L63.9323 36.8941C63.9323 36.8941 63.7761 36.7787 63.4094 36.7787H62.9406V37.879H63.5995L63.5927 37.8722Z" fill="white"/>
<mask id="mask18_79_6373" style="mask-type:luminance" maskUnits="userSpaceOnUse" x="9" y="35" width="3" height="4">
<path d="M9.7939 35.1689L9.70569 35.6376C9.70569 35.6376 9.84826 35.4882 10.1539 35.4882H10.5003V37.7703C10.5003 38.0759 10.3237 38.1914 10.3237 38.1914H11.2475C11.2475 38.1914 11.0709 38.0759 11.0709 37.7703V35.4882H11.4037C11.7093 35.4882 11.7977 35.6376 11.7977 35.6376L11.8791 35.1689H9.78711H9.7939Z" fill="white"/>
</mask>
<g mask="url(#mask18_79_6373)">
<path d="M11.8859 35.1689H9.70569V38.1914H11.8859V35.1689Z" fill="white"/>
</g>
<mask id="mask19_79_6373" style="mask-type:luminance" maskUnits="userSpaceOnUse" x="15" y="35" width="4" height="4">
<path d="M17.2243 35.1689C17.2243 35.1689 17.4009 35.2844 17.4009 35.59V36.5205H16.2529V35.59C16.2529 35.2844 16.4295 35.1689 16.4295 35.1689H15.5127C15.5127 35.1689 15.6893 35.2844 15.6893 35.59V37.7703C15.6893 38.0759 15.5127 38.1914 15.5127 38.1914H16.4295C16.4295 38.1914 16.2529 38.0759 16.2529 37.7703V36.8398H17.4009V37.7703C17.4009 38.0759 17.2243 38.1914 17.2243 38.1914H18.1411C18.1411 38.1914 17.9713 38.0759 17.9713 37.7703V35.59C17.9713 35.2844 18.1411 35.1689 18.1411 35.1689H17.2243Z" fill="white"/>
</mask>
<g mask="url(#mask19_79_6373)">
<path d="M18.1417 35.1689H15.5065V38.1914H18.1417V35.1689Z" fill="white"/>
</g>
<mask id="mask20_79_6373" style="mask-type:luminance" maskUnits="userSpaceOnUse" x="21" y="35" width="3" height="4">
<path d="M21.877 35.1689C21.877 35.1689 22.0536 35.2844 22.0536 35.59V37.7703C22.0536 38.0759 21.877 38.1914 21.877 38.1914H23.901L23.9962 37.6684C23.9962 37.6684 23.7517 37.8654 23.283 37.8654H22.6242V36.7651H23.0928C23.4596 36.7651 23.6158 36.8873 23.6158 36.8873L23.6838 36.4458H22.6174V35.4882H23.215C23.6497 35.4882 23.8536 35.6715 23.8536 35.6715V35.1689H21.8702H21.877Z" fill="white"/>
</mask>
<g mask="url(#mask20_79_6373)">
<path d="M23.996 35.1689H21.8768V38.1914H23.996V35.1689Z" fill="white"/>
</g>
<mask id="mask21_79_6373" style="mask-type:luminance" maskUnits="userSpaceOnUse" x="32" y="35" width="3" height="4">
<path d="M32.1803 35.1689C32.1803 35.1689 32.3569 35.2844 32.3569 35.59V37.7703C32.3569 38.0759 32.1803 38.1914 32.1803 38.1914H34.2042L34.2993 37.6684C34.2993 37.6684 34.0547 37.8654 33.5861 37.8654H32.9273V36.7651H33.3959C33.7626 36.7651 33.9189 36.8873 33.9189 36.8873L33.9869 36.4458H32.9205V35.4882H33.5183C33.9529 35.4882 34.1567 35.6715 34.1567 35.6715V35.1689H32.1735H32.1803Z" fill="white"/>
</mask>
<g mask="url(#mask21_79_6373)">
<path d="M34.2989 35.1689H32.1799V38.1914H34.2989V35.1689Z" fill="white"/>
</g>
<mask id="mask22_79_6373" style="mask-type:luminance" maskUnits="userSpaceOnUse" x="37" y="35" width="5" height="4">
<path d="M40.6774 35.1689C40.691 35.298 40.6773 35.4338 40.6162 35.5561L39.8418 37.4307L38.9182 35.1689H38.205C38.205 35.1689 38.368 35.2844 38.3476 35.59L38.1574 37.7703C38.1303 38.0759 37.947 38.1914 37.947 38.1914H38.6736C38.6736 38.1914 38.5107 38.0759 38.5378 37.7703L38.6872 36.0179L39.4616 37.8993C39.5363 38.0759 39.7129 38.1914 39.9098 38.1914L40.7928 36.0451L40.9422 37.7771C40.9694 38.0827 40.8064 38.1982 40.8064 38.1982H41.73C41.73 38.1982 41.5468 38.0827 41.5196 37.7771L41.3294 35.5968C41.3022 35.2912 41.4652 35.1757 41.4652 35.1757H40.6706L40.6774 35.1689Z" fill="white"/>
</mask>
<g mask="url(#mask22_79_6373)">
<path d="M41.73 35.1689H37.9402V38.1914H41.73V35.1689Z" fill="white"/>
</g>
<mask id="mask23_79_6373" style="mask-type:luminance" maskUnits="userSpaceOnUse" x="45" y="35" width="3" height="4">
<path d="M46.1238 35.4882H46.4432C46.7896 35.4882 47.0748 35.7734 47.0748 36.113C47.0748 36.4526 46.7896 36.7447 46.4432 36.7447H46.1238V35.4882ZM45.3768 35.1689C45.3768 35.1689 45.5534 35.2844 45.5534 35.59V37.7703C45.5534 38.0759 45.3768 38.1914 45.3768 38.1914H46.2936C46.2936 38.1914 46.1172 38.0759 46.1172 37.7703V37.0639H46.6944C47.2174 37.0639 47.6454 36.6428 47.6454 36.113C47.6454 35.5832 47.2174 35.1689 46.6944 35.1689H45.37H45.3768Z" fill="white"/>
</mask>
<g mask="url(#mask23_79_6373)">
<path d="M47.6518 35.1689H45.3766V38.1914H47.6518V35.1689Z" fill="white"/>
</g>
<mask id="mask24_79_6373" style="mask-type:luminance" maskUnits="userSpaceOnUse" x="51" y="35" width="2" height="4">
<path d="M51.3402 35.1689C51.3402 35.1689 51.5168 35.2844 51.5168 35.59V37.7703C51.5168 38.0759 51.3402 38.1914 51.3402 38.1914H52.257C52.257 38.1914 52.0804 38.0759 52.0804 37.7703V35.59C52.0804 35.2844 52.257 35.1689 52.257 35.1689H51.3402Z" fill="white"/>
</mask>
<g mask="url(#mask24_79_6373)">
<path d="M52.257 35.1689H51.3402V38.1914H52.257V35.1689Z" fill="white"/>
</g>
<mask id="mask25_79_6373" style="mask-type:luminance" maskUnits="userSpaceOnUse" x="55" y="35" width="4" height="4">
<path d="M56.7336 35.4882H57.1682C57.4535 35.4882 57.6844 35.7191 57.6844 36.0043C57.6844 36.3168 57.4738 36.5817 57.1682 36.6564L56.7268 36.7447V35.4882H56.7336ZM55.9864 35.1689C55.9864 35.1689 56.163 35.2912 56.163 35.59V37.7703C56.163 38.0759 55.9864 38.1914 55.9864 38.1914H56.9102C56.9102 38.1914 56.7336 38.0759 56.7336 37.7703V37.0231L57.0528 36.962L57.5418 37.8857C57.6641 38.1167 57.8067 38.2525 58.1124 38.2525C58.418 38.2525 58.6014 38.1982 58.6014 38.1982C58.6014 38.1982 58.3704 38.0827 58.1938 37.7771L57.6302 36.8126C57.8068 36.7515 58.255 36.5341 58.255 36.0111C58.255 35.5493 57.8746 35.1757 57.4128 35.1757H55.9796L55.9864 35.1689Z" fill="white"/>
</mask>
<g mask="url(#mask25_79_6373)">
<path d="M58.6072 35.1689H55.9855V38.2525H58.6072V35.1689Z" fill="white"/>
</g>
<mask id="mask26_79_6373" style="mask-type:luminance" maskUnits="userSpaceOnUse" x="62" y="35" width="3" height="4">
<path d="M62.1873 35.1689C62.1873 35.1689 62.3639 35.2844 62.3639 35.59V37.7703C62.3639 38.0759 62.1873 38.1914 62.1873 38.1914H64.2113L64.3063 37.6684C64.3063 37.6684 64.0619 37.8654 63.5865 37.8654H62.9277V36.7651H63.3963C63.7631 36.7651 63.9193 36.8873 63.9193 36.8873L63.9871 36.4458H62.9209V35.4882H63.5185C63.9532 35.4882 64.1569 35.6715 64.1569 35.6715V35.1689H62.1737H62.1873Z" fill="white"/>
</mask>
<g mask="url(#mask26_79_6373)">
<path d="M64.3058 35.1689H62.1868V38.1914H64.3058V35.1689Z" fill="white"/>
</g>
<mask id="mask27_79_6373" style="mask-type:luminance" maskUnits="userSpaceOnUse" x="26" y="0" width="21" height="22">
<path d="M35.2907 11.7297C35.3518 11.5124 35.5217 11.3426 35.7459 11.2814L36.9209 10.9758L36.6017 12.1168C36.5405 12.3342 36.3706 12.504 36.1465 12.5651L34.9715 12.8707L35.2907 11.7297ZM37.9735 12.5787C37.7494 12.5176 37.5796 12.341 37.5253 12.1236L37.2197 10.9486L38.3607 11.2679C38.578 11.329 38.7479 11.4988 38.8091 11.7229L39.1147 12.9047L37.9735 12.5855V12.5787ZM37.0567 10.8128C37.0567 10.8128 37.0567 10.8128 37.0567 10.8196V10.8128ZM37.5049 9.50874C37.566 9.2914 37.7427 9.12159 37.9601 9.06047L39.1351 8.75482L38.8159 9.89586C38.7547 10.1132 38.578 10.283 38.3607 10.3441L37.1857 10.6498L37.5049 9.50874ZM35.7527 10.3645C35.5353 10.3034 35.3654 10.1268 35.3043 9.90946L34.9987 8.73444L36.1397 9.05367C36.357 9.11479 36.5269 9.2914 36.5881 9.50874L36.8937 10.6905L35.7527 10.3713V10.3645ZM36.9413 6.48631L36.6085 7.68848C36.5473 7.90582 36.3774 8.07562 36.1533 8.13675L34.9443 8.44919C34.8628 8.46957 34.8289 8.54427 34.8425 8.6054C34.7882 8.6054 34.7407 8.64614 34.7203 8.70727L34.3875 9.90946C34.3264 10.1268 34.1497 10.2966 33.9323 10.3577L32.7233 10.6702C32.5807 10.7041 32.5807 10.9011 32.7233 10.9418L33.9255 11.2746C34.1429 11.3358 34.3128 11.5056 34.3739 11.7297L34.6863 12.9387C34.7067 13.0202 34.7814 13.0473 34.8425 13.0405C34.8425 13.0949 34.8832 13.1424 34.9443 13.1628L36.1465 13.4956C36.3638 13.5567 36.5337 13.7265 36.5949 13.9507L36.9073 15.1596C36.9412 15.3023 37.1381 15.3023 37.1789 15.1596L37.5117 13.9575C37.5728 13.7401 37.7495 13.5703 37.9669 13.5092L39.1757 13.1968C39.2572 13.1764 39.2845 13.1017 39.2777 13.0405C39.332 13.0405 39.3795 12.9998 39.3999 12.9387L39.7327 11.7365C39.7938 11.5192 39.9635 11.3494 40.1877 11.2882L41.3967 10.9758C41.5393 10.9418 41.5393 10.7449 41.3967 10.7041L40.1945 10.3713C39.9771 10.3102 39.8074 10.1336 39.7463 9.91626L39.4339 8.70727C39.4135 8.62577 39.3456 8.59181 39.2777 8.6054C39.2777 8.55106 39.2368 8.50352 39.1757 8.48315L37.9735 8.15035C37.7494 8.08922 37.5796 7.91941 37.5253 7.69528L37.2129 6.48631C37.1925 6.41839 37.1382 6.37764 37.0771 6.37764C37.0159 6.37764 36.9616 6.41159 36.9413 6.47951M29.2527 2.42471C29.3614 4.50984 27.8333 5.48111 27.7721 5.52186L27.5207 5.67806L27.6566 5.94296C27.7109 6.04484 28.1796 6.92778 28.5463 7.28775L28.7365 7.47793L28.9539 7.31493C29.0354 7.2538 29.246 7.10437 29.7825 6.62893C30.2104 6.24858 30.2783 5.15509 30.2783 5.15509C30.1493 5.42677 29.2187 6.30293 28.818 6.62216C28.6549 6.40481 28.4784 6.10597 28.3493 5.88184C28.8316 5.50149 29.8436 4.48947 29.8911 2.76431C30.5024 2.87298 31.7385 3.30767 31.7385 4.93774C31.7385 5.9905 31.0185 6.62895 30.1831 7.36248C29.1168 8.29977 27.9147 9.3593 27.9147 11.5327C27.9555 12.7281 28.3358 13.3869 28.7297 14.0865C29.0829 14.7046 29.8911 15.8117 30.0133 16.4501C30.1356 15.6962 29.6467 14.4125 29.2799 13.7741C28.9064 13.1221 28.5803 12.5583 28.5463 11.5259C28.5463 9.65137 29.5923 8.72765 30.5975 7.8379C31.4669 7.07041 32.3701 6.27576 32.3701 4.93774C32.3701 2.75753 30.5432 2.12587 29.5787 2.09191L29.2391 2.07834L29.2595 2.41793L29.2527 2.42471ZM44.3716 2.09191C43.4072 2.11908 41.5801 2.75753 41.5801 4.93774C41.5801 6.27576 42.4835 7.07041 43.3528 7.8379C44.3648 8.72765 45.404 9.64458 45.404 11.5259C45.3701 12.5515 45.044 13.1221 44.6704 13.7741C44.3037 14.4125 43.8146 15.6962 43.9368 16.4501C44.0591 15.8117 44.8606 14.7046 45.2206 14.0865C45.6213 13.3869 45.9949 12.7349 46.0356 11.5327C46.0356 9.3593 44.8334 8.29977 43.767 7.36248C42.9316 6.62895 42.2118 5.9905 42.2118 4.93774C42.2118 3.30767 43.4479 2.87977 44.0592 2.76431C44.1068 4.48947 45.1188 5.50149 45.601 5.88184C45.472 6.10597 45.2952 6.40481 45.1322 6.62216C44.7315 6.30293 43.8011 5.42677 43.672 5.15509C43.672 5.15509 43.7399 6.24179 44.1678 6.62893C44.7044 7.10437 44.9149 7.2538 44.9964 7.31493L45.2138 7.47793L45.404 7.28775C45.764 6.92778 46.2393 6.04484 46.2936 5.94296L46.4296 5.67806L46.1782 5.52186C46.1171 5.48111 44.589 4.50984 44.6976 2.42471L44.718 2.08511L44.3784 2.09871L44.3716 2.09191ZM35.2365 19.8121C35.773 19.3027 36.4794 19.0175 37.2401 19.0175C38.0008 19.0175 38.6799 19.2959 39.2165 19.785L37.2673 20.6611L35.2365 19.8121ZM30.9847 18.0394C31.1817 17.9172 31.5619 17.693 31.7249 17.5232C31.8336 17.4078 31.9356 17.2787 32.0171 17.1429L37.1993 16.3211L41.8993 17.0953C41.9876 17.2448 42.0962 17.3874 42.2185 17.5232C42.4426 17.7677 42.7144 17.9579 43.0064 18.0938L39.8889 19.4861C39.2097 18.7526 38.2453 18.3315 37.2401 18.3315C36.2349 18.3315 35.2297 18.7729 34.5505 19.5336L30.9847 18.0462V18.0394ZM32.4245 15.7709C32.4245 15.4517 32.3838 15.1325 32.2955 14.8268C32.1936 14.494 32.0442 14.2359 31.9083 13.9982C31.3514 13.0677 31.1409 12.2527 31.1409 11.4376C31.1409 10.6226 31.888 9.2778 32.3227 8.83632C32.7574 8.38805 33.1716 7.93979 33.5859 7.38285C33.9866 6.82591 34.272 6.13993 34.3263 5.43356C34.3535 5.14151 34.3399 4.84946 34.2991 4.56419L37.0907 6.06521L37.1179 6.07879L37.1449 6.03126L39.6309 4.65927C39.5969 4.91057 39.5969 5.16868 39.6173 5.43356C39.6716 6.13993 39.9567 6.82591 40.3575 7.38285C40.7718 7.93979 41.1862 8.38126 41.6209 8.83632C42.0487 9.2778 42.8026 10.6226 42.8026 11.4376C42.8026 12.2527 42.599 13.0677 42.0352 13.9982C41.8994 14.2427 41.7499 14.494 41.648 14.8268C41.5598 15.1325 41.519 15.4449 41.519 15.7709C41.5258 15.9883 41.5597 16.1988 41.6141 16.4094L37.2537 15.6894H37.2061L32.3159 16.4501C32.377 16.226 32.4109 15.995 32.4177 15.7641M34.0953 3.74915C34.0546 3.64048 34.0139 3.5318 33.9731 3.42313C33.7014 2.81185 33.3278 2.2685 32.8931 1.77269C32.635 1.48064 32.3431 1.22255 32.0239 0.998418H33.7693L36.1941 4.86982L34.1021 3.74915H34.0953ZM34.5097 0.998418H36.7715V4.61852L34.5097 0.998418ZM37.4031 0.998418H39.5833L37.4031 4.58457V0.998418ZM40.3168 0.998418H41.9197C41.6004 1.22255 41.3084 1.48064 41.0503 1.77269C40.6156 2.2685 40.2421 2.81185 39.9705 3.42313C39.9093 3.55897 39.8618 3.70162 39.8143 3.84425L37.9735 4.86304L40.3236 0.998418H40.3168ZM29.3613 0V0.0747016C29.3613 0.495803 29.6466 0.848997 30.0337 0.957668C30.0813 0.99842 30.122 1.02558 30.1627 1.03237C30.4344 1.0935 30.7062 1.18858 30.9575 1.30404C31.4737 1.52818 31.922 1.87458 32.2955 2.28889C33.029 3.15826 33.4841 4.2993 33.3279 5.32489C33.2532 5.84108 33.0291 6.31652 32.6895 6.73083C32.3499 7.13156 31.9016 7.56623 31.4669 7.97375C31.0254 8.39485 30.5432 8.79557 30.1153 9.36609C29.9048 9.65135 29.7078 9.99096 29.5991 10.3781C29.4905 10.7449 29.4632 11.132 29.4903 11.4988C29.4903 11.8248 29.5516 12.144 29.6467 12.4361C29.7418 12.7349 29.8775 13.0134 30.0201 13.2647C30.319 13.7673 30.6587 14.1952 30.9575 14.5959C31.1001 14.7929 31.236 14.9898 31.3039 15.1529C31.3786 15.3498 31.4261 15.5536 31.4397 15.7573C31.4465 16.1648 31.3106 16.5792 31.0389 16.878C30.774 17.1904 30.3666 17.3806 29.9659 17.4349C29.5312 17.4621 29.0625 17.3331 28.7161 17.1701C27.2151 16.3482 27.5819 14.6163 27.5819 14.6163C27.3035 14.7385 27.0725 15.0646 26.9842 15.5196C26.9366 15.9883 27.025 16.2124 27.0793 16.4297C27.2491 17.0138 27.5751 17.4961 28.2611 17.9036C28.6958 18.1617 37.2673 21.7207 37.2673 21.7207L44.847 18.3315C44.847 18.3315 45.404 18.0734 45.6824 17.9036C46.2258 17.5708 46.6944 17.0138 46.8642 16.4297C46.9253 16.2124 47.0069 15.9883 46.9594 15.5196C46.8779 15.0646 46.6469 14.7385 46.3616 14.6163C46.3616 14.6163 46.7284 16.3482 45.2274 17.1701C44.881 17.3331 44.4123 17.4621 43.9776 17.4349C43.5769 17.3806 43.1694 17.1904 42.9113 16.878C42.6328 16.5792 42.4971 16.1648 42.5106 15.7573C42.5174 15.5536 42.5717 15.3498 42.6464 15.1529C42.7144 14.9898 42.8502 14.7929 42.9928 14.5959C43.2849 14.1952 43.6312 13.7605 43.93 13.2647C44.0727 13.0066 44.2018 12.7349 44.3036 12.4361C44.3919 12.144 44.4531 11.8248 44.4598 11.4988C44.487 11.132 44.4599 10.7449 44.3512 10.3781C44.2426 9.99776 44.0456 9.65135 43.835 9.36609C43.4071 8.79557 42.9181 8.38806 42.4834 7.97375C42.0488 7.56623 41.6005 7.13156 41.2609 6.73083C40.9213 6.31652 40.6904 5.84108 40.6225 5.32489C40.5613 4.91737 40.5952 4.49626 40.7039 4.08195C40.8737 3.44351 41.2134 2.81187 41.6548 2.28889C42.0284 1.88137 42.4767 1.52818 42.9928 1.30404C43.2509 1.18858 43.5158 1.10029 43.7874 1.03237C43.8146 1.03237 43.8419 1.012 43.869 0.99162C44.3784 0.99162 44.7858 0.577306 44.7858 0.0747016V0H29.3681H29.3613Z" fill="white"/>
</mask>
<g mask="url(#mask27_79_6373)">
<path d="M34.3397 -9.48321L16.6532 14.0474L39.9177 31.5339L57.6042 8.00332L34.3397 -9.48321Z" fill="white"/>
</g>
</svg>
