<svg width="89" height="46" viewBox="0 0 89 46" fill="none" xmlns="http://www.w3.org/2000/svg">
<g clip-path="url(#clip0_79_5856)">
<path d="M86.3487 32.1798L85.9133 31.886C84.3894 30.8774 83.9737 30.3681 83.9737 29.5259C83.9737 28.4585 85.0029 28.0766 85.8935 28.0766C87.358 28.0766 87.7637 28.7131 87.7736 28.7327C87.8528 28.8698 87.9716 29.2419 87.9815 29.4084C88.0012 29.5161 88.021 29.712 88.2585 29.712C88.5158 29.712 88.5158 29.4378 88.5158 29.2517C88.5158 28.4683 88.5554 28.008 88.5752 27.822C88.5752 27.7632 88.5752 27.724 88.5752 27.7142C88.5752 27.4792 88.3674 27.4792 88.2882 27.4792C88.1695 27.4792 88.0606 27.4792 87.7736 27.4106C87.4075 27.3225 86.794 27.2344 86.1508 27.2344C83.9935 27.2344 82.6082 28.3606 82.6082 30.1037C82.6082 31.2201 83.2613 32.1504 84.8643 33.3256L85.5669 33.8446C86.9424 34.8435 87.457 35.3136 87.457 36.2831C87.457 37.3995 86.6258 38.0948 85.28 38.0948C84.3102 38.0948 83.2019 37.7422 82.9743 36.7531C82.9248 36.5671 82.9248 36.3712 82.9248 36.2537C82.9248 36.0285 82.7863 35.9501 82.6477 35.9501C82.5587 35.9501 82.3905 35.9991 82.3905 36.3125C82.3905 36.3614 82.3905 36.4202 82.3707 36.4985C82.341 36.7923 82.3014 37.282 82.3014 37.8695C82.3014 38.2613 82.3113 38.3984 82.6082 38.5355C83.3998 38.8978 84.4784 38.9468 84.9039 38.9468C86.0221 38.9468 86.8632 38.7705 87.4273 38.4082C88.4169 37.7716 88.9215 36.9 88.9215 35.813C88.9215 34.4616 88.1794 33.4137 86.3388 32.1896L86.3487 32.1798Z" fill="white"/>
<path d="M14.2991 24.9625C13.933 24.9625 13.458 24.982 13.1512 25.0016C13.0127 25.0016 12.9236 25.0114 12.884 25.0114C12.8049 25.0114 12.6564 25.0114 12.4585 24.9918C12.0825 24.9723 11.5778 24.9527 11.1028 24.9527C10.9148 24.9527 10.5586 24.9527 10.5586 25.2367C10.5586 25.3248 10.6081 25.4815 10.895 25.4815C11.083 25.4815 11.3403 25.4815 11.5184 25.5402C11.657 25.6088 11.6768 25.7459 11.6768 25.8242C11.6768 25.9809 11.5877 26.2649 11.5184 26.4608C11.1523 27.6457 8.90602 33.3942 7.77793 36.0089L4.41343 27.2148C4.16604 26.5881 3.92855 26.0005 3.92855 25.7851C3.92855 25.6871 3.95824 25.6088 4.07698 25.55C4.20562 25.4913 4.50249 25.4717 4.7103 25.4717C4.99727 25.4717 5.03685 25.2856 5.03685 25.2073C5.03685 24.9429 4.64103 24.9429 4.40354 24.9429C3.94834 24.9429 3.42387 24.9625 3.08743 24.982C2.9093 24.982 2.78066 24.9918 2.72129 24.9918C2.65202 24.9918 2.4838 24.9918 2.27599 24.982C1.84058 24.9625 1.18748 24.9429 0.603638 24.9429C0.346353 24.9429 -0.0098877 24.9429 -0.0098877 25.2073C-0.0098877 25.364 0.0989635 25.4717 0.277084 25.4717C0.376039 25.4717 0.672907 25.4717 0.930191 25.5402C1.50413 25.6969 1.75152 25.8536 2.14735 26.8329L6.60035 37.7423L6.64983 37.8696C6.97638 38.6922 7.08524 38.937 7.3821 38.937C7.6097 38.937 7.68887 38.751 7.96594 38.1536C8.04511 37.9773 8.14406 37.7717 8.26281 37.5073C8.66853 36.6651 9.44038 34.8534 10.5091 32.3464L11.3403 30.3878C11.9934 28.8601 12.4981 27.6457 12.6465 27.2834C13.1215 26.1082 13.3788 25.8144 13.5965 25.6773C13.9033 25.4815 14.2694 25.4815 14.3882 25.4815C14.6949 25.4815 14.7444 25.315 14.7444 25.2171C14.7444 25.0408 14.596 24.9527 14.2991 24.9527V24.9625Z" fill="white"/>
<path d="M18.2277 38.1924C18.099 38.1924 17.7824 38.163 17.5449 38.1238C17.1985 38.0749 17.1491 37.9084 17.0996 37.4677C17.0303 36.8703 17.0303 35.7441 17.0303 34.3046V31.7192C17.0303 29.4375 17.0303 29.036 17.0501 28.5757C17.0897 28.0762 17.159 27.9489 17.4855 27.8902C17.6438 27.8608 17.7428 27.8608 17.8417 27.8608C17.9704 27.8608 18.099 27.7335 18.099 27.6062C18.099 27.4397 17.9704 27.3516 17.7131 27.3516C17.3668 27.3516 16.7433 27.3711 16.4069 27.3809C16.2782 27.3809 16.1892 27.3809 16.1694 27.3809C16.1496 27.3809 16.0408 27.3809 15.9022 27.3809C15.5559 27.3711 14.9621 27.3516 14.6059 27.3516C14.3486 27.3516 14.22 27.4397 14.22 27.6062C14.22 27.7237 14.3288 27.8608 14.4773 27.8608C14.5762 27.8608 14.7642 27.8804 14.9226 27.9098C15.1502 27.9587 15.2689 28.0762 15.3085 28.5855C15.3382 29.0457 15.3382 29.4571 15.3382 31.729V34.3144C15.3382 35.5091 15.3283 36.8214 15.2491 37.4775C15.1897 37.9378 15.1403 38.0945 14.9423 38.1434C14.8137 38.1728 14.6257 38.212 14.497 38.212C14.3387 38.212 14.2398 38.3393 14.2398 38.4666C14.2398 38.5645 14.2892 38.7212 14.6257 38.7212C14.9621 38.7212 15.5361 38.6918 15.8824 38.682C16.0309 38.682 16.1298 38.6722 16.1595 38.6722C16.1793 38.6722 16.2387 38.6722 16.3277 38.6722C16.6543 38.682 17.4261 38.7212 18.099 38.7212C18.4553 38.7212 18.485 38.5254 18.485 38.4666C18.485 38.3393 18.3959 38.212 18.2277 38.212V38.1924Z" fill="white"/>
<path d="M31.2997 27.3418C30.8841 27.3418 30.518 27.3614 30.2706 27.3712C30.1419 27.3712 30.043 27.381 29.9836 27.381C29.9242 27.381 29.8055 27.381 29.6471 27.381C29.3206 27.3712 28.8357 27.3516 28.3607 27.3516C28.2321 27.3516 27.9253 27.3516 27.9253 27.5866C27.9253 27.7531 28.0342 27.8608 28.1826 27.8608C28.3013 27.8608 28.6378 27.8804 28.9149 27.9294C29.2513 27.9881 29.3701 28.1644 29.3899 29.1633L29.5383 36.1653C29.38 35.9988 29.182 35.7931 28.9446 35.5483C28.1826 34.7551 27.1337 33.6681 26.1243 32.6398C24.5014 31.0044 22.9478 29.4081 22.0276 28.4582C21.5921 28.0175 21.3052 27.7237 21.2359 27.6454L21.1666 27.5768C20.9291 27.3418 20.7411 27.1655 20.5432 27.1655C20.2266 27.1655 20.1969 27.616 20.1969 28.0371V36.4297C20.1969 37.7419 20.1375 38.0553 19.8505 38.1337C19.6427 38.2022 19.3755 38.212 19.2568 38.212C19.1084 38.212 18.9995 38.3197 18.9995 38.4666C18.9995 38.7212 19.2766 38.7212 19.3854 38.7212C19.8703 38.7212 20.3453 38.6919 20.6224 38.6821C20.751 38.6821 20.8302 38.6723 20.8797 38.6723C20.9193 38.6723 20.9984 38.6723 21.1073 38.6821C21.3942 38.7017 21.889 38.7212 22.5223 38.7212C22.8687 38.7212 22.9379 38.5841 22.9379 38.4666C22.9379 38.3197 22.8192 38.212 22.6807 38.212C22.5223 38.212 22.1859 38.1924 21.9385 38.1337C21.6218 38.0553 21.4833 37.8105 21.4437 36.5864L21.2755 30.0251C21.9286 30.7204 23.3734 32.2089 25.0457 33.9227C26.6686 35.5777 28.905 37.7419 29.0831 37.8986C30.0034 38.731 30.1419 38.829 30.3497 38.829C30.607 38.829 30.607 38.6233 30.607 37.644L30.6466 29.0556C30.6466 28.135 30.706 27.9881 31.082 27.9098C31.2403 27.8804 31.3591 27.8804 31.4283 27.8804C31.6065 27.8804 31.7351 27.7335 31.7351 27.6062C31.7351 27.3712 31.4283 27.3712 31.3096 27.3712L31.2997 27.3418Z" fill="white"/>
<path d="M45.9352 38.1924C45.8263 38.1924 45.48 38.163 45.2722 38.1238C44.9159 38.0749 44.8862 37.9182 44.8269 37.4677C44.7477 36.8116 44.7378 35.4993 44.7378 34.3046V31.7192C44.7378 29.4473 44.7378 29.036 44.7774 28.5757C44.817 28.0762 44.8862 27.9489 45.193 27.8902C45.3711 27.8608 45.4503 27.8608 45.5591 27.8608C45.6977 27.8608 45.8362 27.7335 45.8362 27.6062C45.8362 27.4887 45.7669 27.3516 45.4305 27.3516C45.094 27.3516 44.53 27.3711 44.1837 27.3809C44.0352 27.3809 43.9264 27.3809 43.8967 27.3809C43.8769 27.3809 43.8076 27.3809 43.7087 27.3809C43.3722 27.3711 42.6597 27.3516 42.1452 27.3516C41.8879 27.3516 41.7592 27.4397 41.7592 27.6062C41.7592 27.7237 41.8681 27.8608 42.0165 27.8608C42.1452 27.8608 42.4025 27.8804 42.5212 27.8902C42.917 27.9489 42.9863 28.0762 43.016 28.5953C43.0358 29.0457 43.0556 29.5158 43.0556 31.7584V32.0228H36.6927V31.7584C36.6927 29.506 36.6927 29.036 36.7125 28.5757C36.7422 28.0762 36.8214 27.9587 37.1479 27.8902C37.3062 27.8608 37.4052 27.8608 37.5041 27.8608C37.6328 27.8608 37.7614 27.7335 37.7614 27.6062C37.7614 27.4397 37.6328 27.3516 37.3755 27.3516C37.0292 27.3516 36.4156 27.3711 36.0792 27.3809C35.9505 27.3809 35.8615 27.3809 35.8417 27.3809C35.8219 27.3809 35.7328 27.3809 35.6141 27.3809C35.2579 27.3711 34.585 27.3516 34.0605 27.3516C33.8032 27.3516 33.6746 27.4397 33.6746 27.6062C33.6746 27.7335 33.8032 27.8608 33.9318 27.8608C34.0605 27.8608 34.3178 27.8804 34.4365 27.8902C34.8521 27.9489 34.9214 28.0958 34.9511 28.5757C34.9907 29.036 34.9907 29.4473 34.9907 31.7192V34.3046C34.9907 35.7344 34.9907 36.8605 34.9016 37.4579V37.4971C34.8224 37.9378 34.7829 38.0749 34.5948 38.1238C34.4662 38.1532 34.2782 38.1924 34.1495 38.1924C33.9912 38.1924 33.8923 38.3197 33.8923 38.447C33.8923 38.5449 33.9417 38.7016 34.2782 38.7016C34.6146 38.7016 35.1985 38.6722 35.5448 38.6625C35.6933 38.6625 35.8021 38.6527 35.8219 38.6527C35.8417 38.6527 35.8912 38.6527 35.9901 38.6527C36.3167 38.6625 37.0687 38.7016 37.7416 38.7016C38.0979 38.7016 38.1276 38.5058 38.1276 38.447C38.1276 38.3197 38.0385 38.1924 37.8703 38.1924C37.7416 38.1924 37.425 38.163 37.1875 38.1238C36.8411 38.0749 36.7917 37.9084 36.7422 37.4677C36.6729 36.8703 36.6729 35.7539 36.6729 34.3437V32.9238H43.0358V34.3437C43.0358 35.7441 43.0358 36.8508 42.9665 37.4481C42.9071 37.9084 42.8576 38.0847 42.6399 38.1238C42.4618 38.163 42.3233 38.1924 42.2144 38.1924C42.0561 38.1924 41.9572 38.3197 41.9572 38.447C41.9572 38.6135 42.0858 38.7016 42.3431 38.7016C42.6795 38.7016 43.3029 38.6722 43.6295 38.6625C43.7581 38.6625 43.8571 38.6527 43.867 38.6527C43.8868 38.6527 43.9561 38.6527 44.0748 38.6527C44.4211 38.6625 45.1435 38.7016 45.7867 38.7016C46.1727 38.7016 46.1925 38.4862 46.1925 38.447C46.1925 38.3197 46.1034 38.1924 45.9154 38.1924H45.9352Z" fill="white"/>
<path d="M52.5259 27.1362C48.1916 27.1362 46.2521 30.5638 46.2521 32.9924C46.2521 35.8324 48.1916 38.8878 52.4368 38.8878C56.0586 38.8878 58.7799 36.2535 58.7799 32.7672C58.7799 29.2809 56.2664 27.1362 52.5259 27.1362ZM52.8821 38.0162C50.0421 38.0162 48.1322 35.8422 48.1322 32.6007C48.1322 29.6922 49.7452 27.9588 52.4467 27.9588C54.6831 27.9588 56.9393 29.5747 56.9393 33.1883C56.9393 37.791 53.5649 38.026 52.8821 38.026V38.0162Z" fill="white"/>
<path d="M73.7912 38.1925C73.6428 38.1925 73.247 38.1925 72.8314 38.0652C72.3267 37.8987 72.1981 37.2915 72.1288 36.6648L71.07 27.665C71.0106 27.2439 70.8424 27.146 70.7038 27.146C70.496 27.146 70.3971 27.3517 70.3377 27.4594L65.9539 36.3024L61.402 27.4398C61.2733 27.1754 61.0655 27.146 60.9666 27.146C60.8083 27.146 60.6796 27.2929 60.6598 27.5279L59.5317 37.0957L59.5119 37.2426C59.4427 37.7714 59.3932 38.0945 59.0468 38.1533H59.0073C58.8192 38.1925 58.7203 38.2023 58.6213 38.2023C58.463 38.2023 58.3245 38.31 58.3245 38.4373C58.3245 38.5352 58.3739 38.7115 58.7302 38.7115C58.9974 38.7115 59.4031 38.6919 59.6901 38.6723C59.8484 38.6723 59.977 38.6527 60.0265 38.6527C60.0661 38.6527 60.165 38.6527 60.3036 38.6625C60.6103 38.6821 61.0754 38.7017 61.4812 38.7017C61.8275 38.7017 61.8968 38.5548 61.8968 38.4275C61.8968 38.2904 61.7582 38.1925 61.6395 38.1925C61.5207 38.1925 61.3129 38.1729 61.0754 38.1141C60.8083 38.0554 60.8083 37.8889 60.8083 37.8301C60.8083 37.5853 60.8083 37.3209 60.828 37.1055L61.3921 30.8673C61.6791 31.4647 62.2035 32.5223 62.6389 33.3939C62.8665 33.8542 63.0644 34.2557 63.203 34.5299C63.5988 35.3525 64.6477 37.2719 65.0139 37.9281C65.3206 38.4667 65.4295 38.6723 65.667 38.6723C65.9045 38.6723 66.0034 38.4863 66.3399 37.8203L69.8825 30.7008L70.5851 37.7126C70.6148 37.9379 70.595 38.0554 70.5851 38.0946C70.4762 38.1337 70.407 38.2317 70.407 38.3394C70.407 38.5548 70.6741 38.6038 70.971 38.6234C71.5449 38.6723 73.2767 38.7115 73.623 38.7115C73.9001 38.7115 74.0782 38.6038 74.0782 38.4373C74.0782 38.3002 73.9694 38.2023 73.8209 38.2023L73.7912 38.1925Z" fill="white"/>
<path d="M81.5593 36.4496C81.3317 36.4496 81.2921 36.6553 81.2624 36.7826C81.1734 37.3603 80.9656 37.5562 80.6489 37.6933C80.263 37.8402 79.5406 37.8402 79.1448 37.8402C77.611 37.8402 77.4625 37.6541 77.4328 36.7924C77.4229 36.5867 77.4328 35.6368 77.4328 34.9513C77.4328 34.6771 77.4328 34.442 77.4328 34.3049V33.1102C77.799 33.1102 79.3328 33.1298 79.7286 33.1787C80.3322 33.2473 80.3817 33.4236 80.4114 33.5411C80.4708 33.7076 80.4708 33.8447 80.4708 33.9818C80.4708 34.1678 80.5895 34.256 80.7083 34.256C80.8765 34.256 80.9853 34.0993 80.9853 33.8447C80.9853 33.7565 81.0249 33.2081 81.0546 32.9045C81.0744 32.5912 81.1239 32.3953 81.1536 32.2582C81.1734 32.1799 81.1833 32.1309 81.1833 32.0819C81.1833 31.8959 81.0645 31.8273 80.9557 31.8273C80.8468 31.8273 80.7874 31.8959 80.6885 31.9938L80.6291 32.0525C80.5104 32.1701 80.3124 32.1897 79.9958 32.219H79.9562C79.7088 32.2484 78.5016 32.2582 77.4328 32.2582V28.2529V28.2333C77.799 28.2333 79.3724 28.2529 79.6 28.2823C80.4411 28.39 80.5301 28.4879 80.5994 28.6446C80.6588 28.7915 80.6786 29.0167 80.6786 29.1147C80.6786 29.4182 80.8765 29.4378 80.9359 29.4378C81.0744 29.4378 81.1734 29.3007 81.2129 29.1734C81.2327 29.0657 81.2525 28.8111 81.2822 28.4879C81.2822 28.3606 81.302 28.2431 81.302 28.1941C81.3218 27.9493 81.3614 27.7926 81.3911 27.6849C81.4109 27.6065 81.4207 27.5478 81.4207 27.4988C81.4207 27.2442 81.2525 27.2246 81.2129 27.2246C81.1437 27.2246 81.0744 27.254 81.0249 27.2736C81.0051 27.2736 80.9853 27.2932 80.9755 27.2932L80.8765 27.3127C80.7281 27.3323 80.5104 27.3715 80.2828 27.3813C80.1838 27.3813 79.8177 27.3813 79.1942 27.3813C78.3432 27.3813 77.2448 27.3813 76.7896 27.3813H76.5818C76.5818 27.3813 76.473 27.3813 76.3443 27.3813C75.9881 27.3715 75.3053 27.3519 74.7808 27.3519C74.5235 27.3519 74.3949 27.4401 74.3949 27.6065C74.3949 27.7338 74.5235 27.8612 74.6522 27.8612C74.7907 27.8612 75.048 27.8807 75.1668 27.8905C75.5725 27.9493 75.6516 28.0962 75.6813 28.576C75.7209 29.0363 75.7209 29.4476 75.7209 31.7196V34.3049C75.7209 35.7347 75.7209 36.8609 75.6318 37.4583V37.5072C75.5527 37.9381 75.5131 38.0948 75.3449 38.1242C75.2855 38.1242 75.2261 38.1438 75.1569 38.1536C75.0579 38.1732 74.9589 38.1927 74.8798 38.1927C74.7214 38.1927 74.6225 38.3201 74.6225 38.4474C74.6225 38.5453 74.672 38.702 75.0084 38.702C75.2756 38.702 75.6516 38.6824 75.9089 38.6628C76.2454 38.6432 76.5323 38.6432 76.5719 38.6432C76.7896 38.6432 77.2052 38.6432 77.8484 38.6824H78.2344C78.8479 38.7118 79.6 38.7314 80.5499 38.7314C81.1635 38.7314 81.4109 38.7314 81.5494 38.2515C81.6385 37.9283 81.7671 36.9197 81.7671 36.8021C81.7671 36.479 81.5989 36.4398 81.5296 36.4398L81.5593 36.4496Z" fill="white"/>
<path d="M31.7252 43.4224H0.0197754V43.8239H31.7153V43.4224H31.7252Z" fill="white"/>
<path d="M33.9418 44.8521V42.394H33.9912L35.6636 44.2743V42.394H35.911V44.8521H35.8516L34.1991 42.9914V44.8521H33.9418Z" fill="white"/>
<path d="M40.2354 42.394H39.988V44.8521H40.2354V42.394Z" fill="white"/>
<path d="M42.2639 42.394H42.5113V43.4223H43.7878V42.394H44.0352V44.8521H43.7878V43.6671H42.5113V44.8521H42.2639V42.394Z" fill="white"/>
<path d="M46.0441 42.394L47.2118 44.8521H46.9347L46.5389 44.0393H45.4602L45.0743 44.8521H44.7972L45.9748 42.394H46.0342H46.0441ZM46.0144 42.9131L45.5889 43.8042H46.4399L46.0144 42.9131Z" fill="white"/>
<path d="M47.9836 44.8521V42.394H48.043L49.7055 44.2743V42.394H49.9529V44.8521H49.9034L48.2508 42.9914V44.8521H47.9935H47.9836Z" fill="white"/>
<path d="M50.7643 42.394H51.0117V43.4223H52.2882V42.394H52.5356V44.8521H52.2882V43.6671H51.0117V44.8521H50.7643V42.394Z" fill="white"/>
<path d="M54.6038 42.394H55.1084C55.3954 42.394 55.5834 42.4038 55.6824 42.4332C55.8209 42.4724 55.9397 42.5409 56.0386 42.6487C56.1277 42.7564 56.1772 42.8935 56.1772 43.0502C56.1772 43.2069 56.1277 43.3538 56.0386 43.4517C55.9496 43.5594 55.8308 43.628 55.6725 43.6671C55.5537 43.6965 55.3459 43.7063 55.0392 43.7063H54.861V44.8521H54.6137V42.4038L54.6038 42.394ZM54.8511 42.6389V43.4713H55.2767C55.4449 43.4713 55.5735 43.4615 55.6527 43.4321C55.7319 43.4027 55.7912 43.3538 55.8407 43.2852C55.8803 43.2167 55.91 43.1383 55.91 43.06C55.91 42.9816 55.8902 42.9033 55.8407 42.8347C55.7912 42.7662 55.7319 42.7172 55.6626 42.6878C55.5834 42.6585 55.4647 42.6487 55.2965 42.6487H54.8511V42.6389Z" fill="white"/>
<path d="M56.949 42.394H57.1964V43.4223H58.4729V42.394H58.7203V44.8521H58.4729V43.6671H57.1964V44.8521H56.949V42.394Z" fill="white"/>
<path d="M59.512 42.394H59.7594V43.8728C59.7594 44.0491 59.7594 44.1568 59.7594 44.2057C59.7693 44.3037 59.799 44.382 59.8484 44.4506C59.8979 44.5191 59.9672 44.5681 60.0562 44.617C60.1552 44.6562 60.2443 44.6856 60.3432 44.6856C60.4224 44.6856 60.5114 44.666 60.5807 44.6366C60.6599 44.5975 60.7192 44.5583 60.7687 44.4897C60.8182 44.431 60.8578 44.3526 60.8776 44.2645C60.8974 44.2057 60.9073 44.0784 60.9073 43.8826V42.4038H61.1546V43.8826C61.1546 44.1078 61.1349 44.2743 61.0854 44.4212C61.0458 44.5485 60.9567 44.666 60.8281 44.7737C60.6994 44.8717 60.5411 44.9304 60.3531 44.9304C60.1552 44.9304 59.9771 44.8815 59.8286 44.7835C59.6901 44.6856 59.5911 44.5681 59.5417 44.4114C59.512 44.3135 59.4922 44.147 59.4922 43.8924V42.4136L59.512 42.394Z" fill="white"/>
<path d="M64.3905 42.8539L64.1926 43.0008C64.0837 42.8637 63.9551 42.756 63.7968 42.6875C63.6483 42.6189 63.4801 42.5797 63.2921 42.5797C63.0942 42.5797 62.9062 42.6287 62.7379 42.7266C62.5697 42.8148 62.4312 42.9421 62.3421 43.1086C62.2531 43.2652 62.2036 43.4415 62.2036 43.6374C62.2036 43.941 62.3124 44.1858 62.5202 44.3914C62.728 44.5971 62.9952 44.695 63.3119 44.695C63.6582 44.695 63.9551 44.5579 64.1926 44.2935L64.3905 44.4404C64.2619 44.5971 64.1035 44.7146 63.9254 44.8027C63.7374 44.8909 63.5296 44.93 63.302 44.93C62.8666 44.93 62.5202 44.7831 62.263 44.4992C62.0453 44.2543 61.9364 43.9703 61.9364 43.6276C61.9364 43.2652 62.065 42.9617 62.3223 42.7266C62.5796 42.4818 62.8963 42.3545 63.2921 42.3545C63.5296 42.3545 63.7374 42.4035 63.9254 42.4916C64.1134 42.5895 64.2718 42.707 64.3905 42.8735V42.8539Z" fill="white"/>
<path d="M66.3993 44.8521V42.394H66.4587L68.1211 44.2743V42.394H68.3685V44.8521H68.3091L66.6566 42.9914V44.8521H66.3993Z" fill="white"/>
<path d="M71.6736 42.805L71.4757 42.9911C71.3372 42.854 71.1789 42.7463 71.0205 42.6777C70.8523 42.6092 70.694 42.57 70.5357 42.57C70.3377 42.57 70.1497 42.619 69.9716 42.7169C69.7935 42.8148 69.6549 42.9421 69.556 43.0988C69.457 43.2555 69.4076 43.4318 69.4076 43.608C69.4076 43.7843 69.457 43.9704 69.556 44.1369C69.6549 44.3034 69.7935 44.4307 69.9716 44.5286C70.1497 44.6265 70.3476 44.6755 70.5554 44.6755C70.8127 44.6755 71.0304 44.6069 71.2086 44.46C71.3867 44.3229 71.4955 44.1369 71.5252 43.9116H70.7237V43.6766H71.8023C71.8023 44.0585 71.6835 44.3523 71.4559 44.5776C71.2283 44.8028 70.9216 44.9105 70.5455 44.9105C70.0805 44.9105 69.7143 44.7538 69.4471 44.4405C69.2393 44.2054 69.1404 43.9214 69.1404 43.6178C69.1404 43.3828 69.1998 43.1674 69.3185 42.9715C69.4372 42.7659 69.6055 42.619 69.8133 42.5014C70.0211 42.3937 70.2586 42.335 70.5159 42.335C70.7237 42.335 70.9315 42.3741 71.1195 42.4427C71.3075 42.521 71.4955 42.6385 71.6736 42.805Z" fill="white"/>
<path d="M73.8605 42.394L75.0282 44.8521H74.761L74.3652 44.0393H73.2865L72.9006 44.8521H72.6235L73.8011 42.394H73.8605ZM73.8308 42.9131L73.3954 43.8042H74.2464L73.8209 42.9131H73.8308Z" fill="white"/>
<path d="M75.701 42.394H76.1958C76.4828 42.394 76.6708 42.4038 76.7698 42.4332C76.9083 42.4724 77.0271 42.5409 77.126 42.6487C77.2151 42.7564 77.2646 42.8935 77.2646 43.0502C77.2646 43.2069 77.225 43.3538 77.126 43.4517C77.037 43.5594 76.9182 43.628 76.7599 43.6671C76.651 43.6965 76.4333 43.7063 76.1266 43.7063H75.9484V44.8521H75.701V42.4038V42.394ZM75.9583 42.6389V43.4713H76.3838C76.562 43.4713 76.6807 43.4615 76.7599 43.4321C76.839 43.4027 76.8984 43.3538 76.9479 43.2852C76.9974 43.2167 77.0172 43.1383 77.0172 43.06C77.0172 42.9816 76.9974 42.9033 76.9479 42.8347C76.9083 42.7662 76.8489 42.7172 76.7698 42.6878C76.6906 42.6585 76.5719 42.6487 76.4036 42.6487H75.9583V42.6389Z" fill="white"/>
<path d="M79.3624 42.6389V42.394H80.7379V42.6389H80.1838V44.8521H79.9265V42.6389H79.3624Z" fill="white"/>
<path d="M81.5295 42.394H82.0342C82.3113 42.394 82.4993 42.4038 82.5983 42.4332C82.7467 42.4626 82.8654 42.5409 82.9644 42.6487C83.0535 42.7564 83.1029 42.8935 83.1029 43.0502C83.1029 43.1873 83.0732 43.3048 83.004 43.4027C82.9446 43.5006 82.8457 43.579 82.7269 43.6378C82.6082 43.6867 82.4399 43.7161 82.2321 43.7161L83.1326 44.8521H82.8259L81.9254 43.7161H81.7868V44.8521H81.5394V42.394H81.5295ZM81.7769 42.6389V43.4713H82.2123C82.3806 43.4713 82.5092 43.4615 82.5785 43.4321C82.6576 43.4027 82.717 43.3538 82.7665 43.2852C82.8061 43.2167 82.8358 43.1383 82.8358 43.06C82.8358 42.9816 82.816 42.9033 82.7665 42.8347C82.717 42.7662 82.6576 42.7172 82.5884 42.6878C82.5092 42.6585 82.3905 42.6487 82.2222 42.6487H81.7769V42.6389Z" fill="white"/>
<path d="M38.9786 42.5211C38.9786 42.5211 39.038 42.4428 39.0578 42.384C39.0677 42.3351 39.0776 42.2763 39.0776 42.2078H38.7807V41.9434H39.2557V42.0119C39.2557 42.0119 39.2557 42.0609 39.2656 42.0903C39.2656 42.149 39.2656 42.2176 39.2557 42.2861C39.2557 42.3645 39.2359 42.433 39.1964 42.4918C39.1568 42.5505 39.1073 42.6093 39.038 42.6485C39.0182 42.668 38.9984 42.6778 38.9786 42.6876C38.9589 42.6974 38.9391 42.7072 38.9094 42.717C39.0182 42.8345 39.0974 42.9716 39.1568 43.1283C39.2161 43.285 39.2458 43.4515 39.2458 43.618C39.2458 43.9901 39.1172 44.3133 38.8698 44.5777C38.6224 44.8421 38.3156 44.9694 37.9594 44.9694C37.6032 44.9694 37.3162 44.8421 37.0589 44.5875C36.8016 44.3231 36.6631 44.0097 36.6631 43.6375C36.6631 43.2654 36.7917 42.9422 37.0391 42.6778C37.2865 42.4232 37.5933 42.2861 37.9495 42.2861C38.1078 42.2861 38.2563 42.3155 38.4047 42.3742C38.5531 42.433 38.6818 42.5113 38.8005 42.6289C38.8104 42.6289 38.8401 42.6093 38.8896 42.5799C38.9292 42.5505 38.9589 42.5309 38.9688 42.5114L38.9786 42.5211ZM37.9792 42.5505C37.6922 42.5505 37.4448 42.6582 37.237 42.8737C37.0292 43.0891 36.9303 43.3438 36.9303 43.6571C36.9303 43.9705 37.0292 44.2055 37.237 44.4112C37.4448 44.6266 37.6922 44.7246 37.9792 44.7246C38.2662 44.7246 38.5037 44.6168 38.7115 44.4014C38.9193 44.186 39.0182 43.9313 39.0182 43.618C39.0182 43.3046 38.9094 43.0695 38.7016 42.8541C38.4938 42.6485 38.2563 42.5407 37.9792 42.5407V42.5505Z" fill="white"/>
<path d="M46.2321 44.979H46.0045V45.3511H46.2321V44.979Z" fill="white"/>
<path d="M60.2245 42.2565L60.7588 41.8647L60.9568 42.0312L60.3234 42.3544L60.2245 42.2663V42.2565Z" fill="white"/>
<path d="M73.3064 42.3839L73.7517 42.002H73.9496L74.4048 42.3839H74.1277L73.8605 42.1684L73.5934 42.3839H73.3163H73.3064ZM73.7319 45.0084H73.9595V45.3903H73.7319V45.0084Z" fill="white"/>
<path d="M54.9995 0C49.2106 0.685508 43.2931 2.57555 42.8972 8.28486C42.7191 10.9583 43.5503 12.9659 44.4805 14.9049C42.1254 12.6134 38.7312 10.7723 33.9714 11.2228C36.8708 12.0356 40.2947 13.5927 42.1353 15.6492C42.5212 16.0899 43.0951 16.8439 42.9566 17.4903C42.729 18.5773 40.7103 18.352 39.4932 18.4108C42.0264 19.4195 44.8665 21.2312 48.4783 21.1137C50.2892 21.0549 51.6152 19.9679 51.4767 17.9505C51.2194 14.3271 48.5278 11.2325 48.2408 7.12929C47.9242 2.507 51.2095 0.812817 54.8808 0.0587579C54.9599 0.0783438 55.0688 0.0587579 55.0985 0.0391719C55.1282 0.019586 55.0985 0 54.9995 0Z" fill="white"/>
</g>
<defs>
<clipPath id="clip0_79_5856">
<rect width="88.9216" height="45.3807" fill="white"/>
</clipPath>
</defs>
</svg>
