<svg width="85" height="44" viewBox="0 0 85 44" fill="none" xmlns="http://www.w3.org/2000/svg">
<g clip-path="url(#clip0_79_6290)">
<path d="M52.2184 14.669L51.0226 14.393L54.4691 12.2405L52.7029 9.41955C52.3656 8.87989 51.7892 8.561 51.1575 8.561C50.8141 8.561 50.4829 8.65912 50.1947 8.83697L44.9637 12.1056L47.9195 12.7863L50.0537 11.4494C50.2438 11.3329 50.4584 11.2654 50.6792 11.2654C50.9797 11.2654 51.2618 11.3758 51.4764 11.5782L48.0667 13.7062L42.7253 12.4736L49.7286 8.09493C50.1579 7.8251 50.6485 7.68405 51.1514 7.68405C52.0897 7.68405 52.9421 8.15626 53.4388 8.94735L55.6649 12.5042L52.2184 14.6567V14.669ZM49.7286 17.1404C50.3664 17.4777 50.8264 18.0419 51.041 18.7287C51.2495 19.4156 51.1821 20.1453 50.8448 20.777L48.8762 24.481L45.2887 22.5738L44.933 21.4025L48.5205 23.3097L50.0843 20.3722C50.3112 19.943 50.3603 19.4462 50.2192 18.9802C50.0782 18.5141 49.7593 18.1339 49.33 17.9008L43.8843 15.0063L44.7736 17.907L46.9997 19.0905C47.2818 19.2377 47.4841 19.4892 47.5761 19.7897C47.6375 19.9859 47.6436 20.1944 47.6007 20.3906L44.0499 18.5018L42.4432 13.2585L49.7348 17.1343L49.7286 17.1404ZM42.1979 11.8358L41.9097 3.58139C41.8851 2.86389 42.1427 2.17705 42.6333 1.64965C43.1239 1.12225 43.7862 0.821758 44.5037 0.797228L48.6984 0.650047L48.8394 4.70978L48.0054 5.60513L47.8644 1.5454L44.5344 1.66191C43.5287 1.69871 42.7376 2.545 42.7744 3.55073L42.989 9.71392L45.0557 7.49394L44.9698 4.97961C44.9575 4.66072 45.0741 4.36022 45.2887 4.12719C45.4297 3.97387 45.6015 3.86349 45.7977 3.8083L45.9387 7.8251L42.1979 11.8358ZM41.1799 23.5795C40.6893 24.1069 40.027 24.4074 39.3095 24.432L35.1148 24.5792L34.9738 20.5194L35.8078 19.6241L35.9489 23.6838L39.2788 23.5673C39.7633 23.5489 40.2171 23.3465 40.5483 22.9847C40.8794 22.629 41.0573 22.1629 41.0389 21.6785L40.8242 15.5153L38.7576 17.7353L38.8434 20.2496C38.8618 20.7954 38.5123 21.2615 38.0155 21.4209L37.8745 17.4041L41.6153 13.3934L41.9035 21.6478C41.9281 22.3653 41.6705 23.0522 41.1799 23.5795ZM34.0784 17.1343C33.6492 17.4041 33.1586 17.5451 32.6557 17.5451C31.7174 17.5451 30.865 17.0729 30.3683 16.2818L28.1422 12.725L31.5886 10.5725L32.7845 10.8484L29.338 13.0009L31.1042 15.8219C31.4415 16.3616 32.0179 16.6805 32.6496 16.6805C32.993 16.6805 33.3241 16.5823 33.6124 16.4045L38.8434 13.1359L35.8875 12.4552L33.7534 13.792C33.5633 13.9086 33.3487 13.9699 33.1279 13.9699C32.8274 13.9699 32.5453 13.8595 32.3245 13.6633L35.7342 11.5353L41.0757 12.7679L34.0723 17.1465L34.0784 17.1343ZM34.0784 8.09493C33.4407 7.75764 32.9807 7.19345 32.7661 6.50661C32.5576 5.81976 32.625 5.08999 32.9623 4.45834L34.9309 0.7543L38.5184 2.66151L38.8741 3.83283L35.2866 1.92561L33.7228 4.86309C33.4959 5.29237 33.4468 5.7891 33.5878 6.25517C33.7289 6.72124 34.0478 7.10146 34.4771 7.3345L39.9227 10.229L39.0335 7.32836L36.8074 6.14479C36.3291 5.88722 36.096 5.34756 36.2064 4.84469L39.7572 6.73351L41.3578 11.9768L34.0662 8.10106L34.0784 8.09493ZM56.3763 12.449L53.9846 8.62233C53.3714 7.64112 52.3166 7.05853 51.1575 7.05853C50.532 7.05853 49.9249 7.23638 49.3975 7.56753L43.7985 11.0692L46.4968 8.17465C46.552 8.11333 46.5888 8.0336 46.5827 7.94775L46.4232 3.43421C46.4232 3.34836 46.3803 3.26863 46.319 3.21344C46.2576 3.15825 46.184 3.12759 46.0982 3.12759H46.0859C45.6015 3.14598 45.1476 3.34836 44.8165 3.71018C44.4853 4.06586 44.3075 4.53193 44.3259 5.0164L44.4056 7.27317L43.5716 8.16852L43.4121 3.5446C43.3876 2.88842 43.9027 2.34262 44.5528 2.31809L47.245 2.22611L47.3921 6.42075C47.3921 6.54953 47.478 6.65992 47.6007 6.70898C47.6375 6.72124 47.6742 6.72738 47.711 6.72738C47.7969 6.72738 47.8828 6.69058 47.9441 6.62312L49.3975 5.06546C49.4527 5.00414 49.4833 4.91828 49.4833 4.83856L49.3239 0.325024C49.3239 0.239168 49.281 0.159446 49.2196 0.104253C49.1583 0.0490602 49.0847 0.0183976 48.9989 0.0183976L44.4731 0.177843C43.5839 0.208506 42.7621 0.58259 42.155 1.23264C41.5479 1.88268 41.229 2.72897 41.2596 3.61819L41.4927 10.2168L40.3336 6.43302C40.3091 6.35329 40.2539 6.28584 40.1803 6.24291L36.1942 4.12106C36.1451 4.09653 36.096 4.08426 36.047 4.08426C36.0163 4.08426 35.9857 4.08426 35.955 4.09653C35.8753 4.12106 35.8078 4.17625 35.7649 4.24984C35.2927 5.13905 35.63 6.24291 36.5192 6.71511L38.5061 7.76991L38.8618 8.94122L34.7776 6.77031C34.4955 6.62312 34.2931 6.37169 34.2011 6.0712C34.1091 5.7707 34.1398 5.44568 34.287 5.16972L35.5503 2.79643L39.2543 4.76497C39.3034 4.7895 39.3524 4.80177 39.4015 4.80177C39.4751 4.80177 39.5487 4.77724 39.6038 4.72818C39.702 4.64845 39.7449 4.51354 39.7081 4.39089L39.0826 2.35489C39.0581 2.27517 39.0029 2.20771 38.9293 2.16478L34.9554 0.0367951C34.9063 0.012265 34.8573 0 34.8082 0C34.7776 0 34.7469 0 34.7162 0.012265C34.6365 0.0367951 34.569 0.0919878 34.5261 0.165578L32.4043 4.15172C31.9873 4.93668 31.9014 5.83816 32.159 6.69058C32.4165 7.543 32.993 8.24211 33.778 8.65912L39.61 11.7622L35.7526 10.873C35.7526 10.873 35.7036 10.8668 35.679 10.8668C35.6177 10.8668 35.5625 10.8852 35.5073 10.9159L31.6806 13.3076C31.5334 13.3996 31.4844 13.5958 31.5764 13.7491C31.9137 14.2888 32.4901 14.6077 33.1218 14.6077C33.4652 14.6077 33.7963 14.5095 34.0907 14.3317L36.0041 13.1359L37.1999 13.4118L33.2751 15.8648C33.085 15.9814 32.8703 16.0427 32.6496 16.0427C32.2387 16.0427 31.8585 15.8342 31.6438 15.4846L30.215 13.2033L33.7718 10.9772C33.8822 10.9098 33.9374 10.781 33.919 10.6522C33.8945 10.5234 33.8025 10.4253 33.6737 10.3946L31.6009 9.91629C31.6009 9.91629 31.5518 9.91016 31.5273 9.91016C31.466 9.91016 31.4108 9.92855 31.3556 9.95922L27.5289 12.3509C27.3817 12.4429 27.3327 12.6391 27.4247 12.7924L29.8163 16.6191C30.4296 17.6003 31.4844 18.1829 32.6434 18.1829C33.2628 18.1829 33.8761 18.0051 34.4035 17.6739L40.0025 14.1723L37.3042 17.0668C37.2428 17.1281 37.2183 17.2079 37.2183 17.2937L37.3777 21.8073C37.3777 21.8931 37.4145 21.9728 37.4759 22.028C37.5372 22.0832 37.6108 22.1139 37.6966 22.1139H37.7089C38.7146 22.0771 39.5057 21.2308 39.4689 20.2251L39.3892 17.9744L40.2232 17.0791L40.3827 21.703C40.3949 22.0219 40.2784 22.3224 40.0638 22.5554C39.8491 22.7885 39.5548 22.9234 39.2359 22.9295L36.5437 23.0215L36.3965 18.8268C36.3965 18.6981 36.3107 18.5815 36.188 18.5386C36.1512 18.5264 36.1144 18.5202 36.0776 18.5202C35.9918 18.5202 35.9059 18.557 35.8446 18.6245L34.3912 20.1821C34.336 20.2435 34.3053 20.3232 34.3053 20.409L34.4648 24.9226C34.4648 25.0084 34.5016 25.0882 34.5629 25.1433C34.6242 25.1985 34.6978 25.2292 34.7837 25.2292L39.3095 25.0698C40.1987 25.0391 41.0205 24.665 41.6276 24.015C42.2347 23.3649 42.5536 22.5186 42.5229 21.6294L42.2899 15.0308L43.4489 18.8146C43.4735 18.8943 43.5287 18.9618 43.6023 19.0047L47.5884 21.1265C47.6375 21.1511 47.6865 21.1633 47.7356 21.1633C47.8521 21.1633 47.9625 21.102 48.0177 20.9916C48.2446 20.5623 48.2936 20.0656 48.1526 19.5995C48.0115 19.1335 47.6926 18.7533 47.2634 18.5202L45.2703 17.4654L44.9146 16.2941L48.9989 18.465C49.281 18.6122 49.4833 18.8636 49.5753 19.1641C49.6673 19.4646 49.6367 19.7897 49.4895 20.0656L48.2262 22.4389L44.5221 20.4704C44.4731 20.4458 44.424 20.4336 44.375 20.4336C44.3014 20.4336 44.2278 20.4581 44.1726 20.5072C44.0745 20.5869 44.0315 20.7218 44.0683 20.8444L44.6938 22.8804C44.7184 22.9602 44.7736 23.0276 44.8472 23.0706L48.8333 25.1924C48.8824 25.2169 48.9314 25.2292 48.9805 25.2292C49.0111 25.2292 49.0418 25.2292 49.0725 25.2169C49.1522 25.1924 49.2196 25.1372 49.2626 25.0636L51.3844 21.0775C51.8014 20.2925 51.8873 19.391 51.6297 18.5386C51.3722 17.6862 50.7957 16.9871 50.0107 16.5701L44.1787 13.467L48.0361 14.3562C48.0361 14.3562 48.0851 14.3624 48.1097 14.3624C48.171 14.3624 48.2262 14.344 48.2814 14.3133L52.1081 11.9216C52.1817 11.8787 52.2307 11.8051 52.2491 11.7193C52.2675 11.6395 52.2491 11.5475 52.2062 11.4801C51.8689 10.9404 51.2924 10.6215 50.6608 10.6215C50.3174 10.6215 49.9862 10.7197 49.6918 10.8975L47.7785 12.0933L46.5827 11.8174L50.5075 9.36436C50.6976 9.24784 50.9122 9.18652 51.133 9.18652C51.5439 9.18652 51.9241 9.39503 52.1387 9.74458L53.5676 12.0259L50.0107 14.252C49.9004 14.3194 49.8452 14.4482 49.8636 14.577C49.882 14.7058 49.9801 14.8039 50.1089 14.8346L52.1816 15.3129C52.1816 15.3129 52.2307 15.319 52.2552 15.319C52.3166 15.319 52.3718 15.3006 52.427 15.27L56.2536 12.8783C56.4008 12.7863 56.4499 12.5901 56.3579 12.4368" fill="#99875D"/>
<path d="M0 37.709H0.742035V42.8664H2.37329V43.0749H0V37.709Z" fill="#F2F1EF"/>
<path d="M5.80746 41.0938L4.87531 38.7205L3.9861 41.0938H5.80746ZM5.06542 37.6719H5.2494L7.33446 43.0746H6.54949L5.88105 41.3023H3.91251L3.26859 43.0746H3.05396L5.05929 37.6719H5.06542Z" fill="#F2F1EF"/>
<path d="M10.0942 43.0195C9.7262 42.8846 9.40118 42.6883 9.12521 42.4369C8.84925 42.1854 8.63461 41.8911 8.4813 41.5599C8.33412 41.2226 8.25439 40.867 8.25439 40.4806C8.25439 39.9348 8.39544 39.4319 8.67141 38.9843C8.80019 38.7696 8.96577 38.5734 9.14974 38.3955C9.33985 38.2177 9.54836 38.0705 9.77526 37.9479C10.2536 37.6903 10.7871 37.5615 11.3636 37.5615C11.8174 37.5615 12.216 37.6351 12.5717 37.7884C12.909 37.9417 13.2279 38.187 13.5284 38.5182L13.0562 38.9781C12.909 38.5795 12.6759 38.279 12.3571 38.0767C12.0382 37.8743 11.6395 37.7762 11.1551 37.7762C10.8485 37.7762 10.5664 37.8375 10.3211 37.954C10.0696 38.0705 9.85498 38.2422 9.67714 38.4691C9.4993 38.696 9.36438 38.972 9.26626 39.2848C9.17427 39.6037 9.12521 39.9532 9.12521 40.3396C9.12521 40.7688 9.17427 41.1429 9.27853 41.4741C9.38278 41.8052 9.52996 42.0812 9.7262 42.3081C9.92244 42.535 10.1616 42.7067 10.4437 42.8232C10.7319 42.9397 11.057 43.0011 11.431 43.0011C11.7377 43.0011 11.9891 42.9765 12.1915 42.9336C12.3877 42.8907 12.5962 42.811 12.817 42.6883V40.7259H10.9956V40.5174H13.559V42.4921C13.2095 42.7435 12.8477 42.9336 12.4736 43.044C12.0995 43.1605 11.7009 43.2157 11.2777 43.2157C10.8546 43.2157 10.4621 43.1483 10.0942 43.0133" fill="#F2F1EF"/>
<path d="M18.9802 42.8232C19.2316 42.7006 19.4524 42.5227 19.6363 42.2958C19.8142 42.0628 19.9552 41.793 20.0533 41.4679C20.1515 41.1491 20.2005 40.7995 20.2005 40.4131C20.2005 40.0268 20.1515 39.6527 20.0533 39.3277C19.9552 39.0027 19.808 38.7206 19.6179 38.4937C19.4278 38.2668 19.2009 38.0889 18.9372 37.9663C18.6735 37.8436 18.3792 37.7823 18.0541 37.7823C17.7475 37.7823 17.4654 37.8436 17.2079 37.9663C16.9503 38.0889 16.7295 38.2668 16.5455 38.4998C16.3616 38.7328 16.2144 39.0088 16.1163 39.3338C16.0181 39.6527 15.9691 40.0084 15.9691 40.3948C15.9691 40.7811 16.0181 41.1491 16.1224 41.4679C16.2267 41.7868 16.3677 42.0689 16.5639 42.302C16.754 42.5289 16.9871 42.7067 17.2569 42.8294C17.5267 42.952 17.8272 43.0133 18.1584 43.0133C18.4589 43.0133 18.7349 42.952 18.9863 42.8294M16.5578 42.8416C16.337 42.719 16.1347 42.5779 15.9568 42.4062C15.779 42.2345 15.6257 42.0444 15.4969 41.8359C15.2332 41.3944 15.0983 40.9099 15.0983 40.3886C15.0983 40.1311 15.1351 39.8796 15.2025 39.6404C15.27 39.4013 15.3742 39.1744 15.503 38.9597C15.6318 38.7512 15.7851 38.5611 15.9691 38.3894C16.1531 38.2177 16.3554 38.0705 16.5762 37.9479C17.0423 37.6903 17.5513 37.5615 18.0971 37.5615C18.373 37.5615 18.6367 37.5922 18.8943 37.6596C19.1519 37.7271 19.391 37.8191 19.6118 37.9417C19.8326 38.0644 20.0288 38.2116 20.2128 38.3894C20.3906 38.5611 20.5439 38.7512 20.6666 38.9597C20.7954 39.1744 20.8935 39.4013 20.961 39.6466C21.0284 39.8919 21.0652 40.1433 21.0652 40.407C21.0652 40.916 20.9303 41.3943 20.6605 41.8298C20.5317 42.0383 20.3784 42.2284 20.2005 42.4001C20.0227 42.5718 19.8203 42.719 19.5934 42.8416C19.3726 42.9643 19.1335 43.0624 18.8759 43.1237C18.6183 43.1912 18.3546 43.2218 18.0848 43.2218C17.5329 43.2218 17.0239 43.0931 16.5578 42.8416Z" fill="#F2F1EF"/>
<path d="M26.1982 42.8232C26.4496 42.7006 26.6704 42.5227 26.8544 42.2958C27.0322 42.0628 27.1732 41.793 27.2714 41.4679C27.3695 41.1491 27.4185 40.7995 27.4185 40.4131C27.4185 40.0268 27.3695 39.6527 27.2714 39.3277C27.1732 39.0027 27.0261 38.7206 26.836 38.4937C26.6458 38.2668 26.4189 38.0889 26.1552 37.9663C25.8915 37.8436 25.5972 37.7823 25.2722 37.7823C24.9655 37.7823 24.6834 37.8436 24.4259 37.9663C24.1683 38.0889 23.9475 38.2668 23.7636 38.4998C23.5796 38.7328 23.4324 39.0088 23.3343 39.3338C23.2362 39.6527 23.1871 40.0084 23.1871 40.3948C23.1871 40.7811 23.2362 41.1491 23.3404 41.4679C23.4447 41.7868 23.5857 42.0689 23.782 42.302C23.9721 42.5289 24.2051 42.7067 24.4749 42.8294C24.7448 42.952 25.0453 43.0133 25.3764 43.0133C25.6769 43.0133 25.9529 42.952 26.2043 42.8294M23.7758 42.8416C23.5551 42.719 23.3527 42.5779 23.1748 42.4062C22.997 42.2345 22.8437 42.0444 22.7149 41.8359C22.4512 41.3944 22.3163 40.9099 22.3163 40.3886C22.3163 40.1311 22.3531 39.8796 22.4205 39.6404C22.488 39.4013 22.5922 39.1744 22.721 38.9597C22.8498 38.7512 23.0031 38.5611 23.1871 38.3894C23.3711 38.2177 23.5735 38.0705 23.7942 37.9479C24.2603 37.6903 24.7693 37.5615 25.3151 37.5615C25.5911 37.5615 25.8548 37.5922 26.1123 37.6596C26.3699 37.7271 26.6091 37.8191 26.8298 37.9417C27.0506 38.0644 27.2468 38.2116 27.4308 38.3894C27.6087 38.5611 27.762 38.7512 27.8846 38.9597C28.0134 39.1744 28.1115 39.4013 28.179 39.6466C28.2464 39.8919 28.2832 40.1433 28.2832 40.407C28.2832 40.916 28.1483 41.3943 27.8785 41.8298C27.7497 42.0383 27.5964 42.2284 27.4185 42.4001C27.2407 42.5718 27.0383 42.719 26.8114 42.8416C26.5907 42.9643 26.3515 43.0624 26.0939 43.1237C25.8364 43.1912 25.5727 43.2218 25.3028 43.2218C24.7509 43.2218 24.2419 43.0931 23.7758 42.8416Z" fill="#F2F1EF"/>
<path d="M30.0616 39.021V43.0746H29.8593V37.6719H30.0494L32.8274 41.7684V37.7087H33.0298V43.1053H32.8458L30.0616 39.021Z" fill="#F2F1EF"/>
<path d="M38.8495 40.3582C39.2052 40.3582 39.4751 40.2478 39.659 40.0393C39.843 39.8247 39.935 39.5119 39.935 39.0949C39.935 38.8742 39.9105 38.6902 39.8614 38.543C39.8123 38.3958 39.7388 38.2732 39.6406 38.1812C39.5425 38.0892 39.4076 38.0217 39.242 37.9788C39.0764 37.9359 38.8679 37.9175 38.6226 37.9175H38.4203V40.3582H38.8434H38.8495ZM37.6782 37.709H39.15C39.3769 37.709 39.5854 37.7396 39.7755 37.801C39.9657 37.8623 40.1374 37.9543 40.2784 38.0708C40.4195 38.1873 40.5298 38.3284 40.6096 38.4878C40.6832 38.6473 40.7261 38.819 40.7261 39.0029C40.7261 39.6591 40.3152 40.1191 39.4873 40.3766L42.0814 43.0811H41.1676L38.8373 40.5729H38.4264V43.0811H37.6844V37.709H37.6782Z" fill="#F2F1EF"/>
<path d="M43.2159 37.709H45.4911V37.9175H43.958V40.1068H45.3255V40.3153H43.958V42.8664H45.669V43.0749H43.2159V37.709Z" fill="#F2F1EF"/>
<path d="M48.128 43.0808C47.9318 43.0256 47.7478 42.9397 47.5761 42.8355C47.4044 42.7312 47.2511 42.6147 47.1284 42.4798C46.9996 42.3449 46.9076 42.1977 46.8463 42.0505L47.3737 41.6948C47.3798 41.8604 47.4228 42.0198 47.5025 42.1732C47.5822 42.3265 47.6926 42.4614 47.8214 42.5779C47.9563 42.6944 48.1096 42.7925 48.2752 42.86C48.4469 42.9275 48.6186 42.9581 48.8026 42.9581C48.9866 42.9581 49.1521 42.9336 49.3055 42.8845C49.4526 42.8355 49.5814 42.768 49.6918 42.6822C49.7961 42.5963 49.8758 42.4859 49.931 42.3633C49.9862 42.2345 50.0168 42.0996 50.0168 41.9463C50.0168 41.8113 49.9923 41.6887 49.9494 41.5844C49.9003 41.4802 49.8267 41.3759 49.7225 41.2839C49.6182 41.1858 49.4772 41.0938 49.2993 40.9957C49.1215 40.8976 48.9007 40.7933 48.6309 40.683C48.0851 40.4499 47.6865 40.2108 47.4473 39.9532C47.3247 39.8244 47.2327 39.6834 47.1713 39.53C47.11 39.3767 47.0855 39.2112 47.0855 39.0333C47.0855 38.8371 47.1284 38.6531 47.2143 38.4814C47.3001 38.3097 47.4166 38.1564 47.5638 38.0214C47.711 37.8927 47.8888 37.7945 48.0912 37.721C48.2936 37.6474 48.5082 37.6167 48.7351 37.6167C48.9314 37.6167 49.1153 37.6412 49.2993 37.6903C49.4833 37.7393 49.6489 37.8129 49.8022 37.8988C49.9494 37.9908 50.0782 38.095 50.1824 38.2177C50.2867 38.3403 50.3541 38.4753 50.3909 38.6102L49.8696 38.9965C49.8696 38.8309 49.8329 38.6776 49.7715 38.5366C49.7041 38.3955 49.6182 38.2667 49.5017 38.1564C49.3852 38.046 49.2503 37.9663 49.0969 37.9049C48.9436 37.8436 48.7842 37.8129 48.6125 37.8129C48.4592 37.8129 48.3242 37.8375 48.1955 37.8804C48.0728 37.9233 47.9624 37.9847 47.8766 38.0705C47.7846 38.1564 47.7171 38.2545 47.6681 38.3649C47.619 38.4814 47.5945 38.604 47.5945 38.7328C47.5945 38.8739 47.6129 38.9904 47.6497 39.0885C47.6865 39.1866 47.7539 39.2786 47.852 39.3645C47.944 39.4503 48.079 39.5423 48.2507 39.6343C48.4224 39.7263 48.6554 39.8367 48.9559 39.9655C49.2687 40.1004 49.5262 40.2292 49.7347 40.3518C49.9371 40.4745 50.1027 40.591 50.2315 40.7136C50.3541 40.8363 50.44 40.9651 50.4952 41.1061C50.5504 41.2472 50.581 41.4005 50.581 41.5722C50.581 41.7929 50.532 42.0015 50.44 42.1977C50.348 42.3878 50.2192 42.5595 50.0475 42.7067C49.8758 42.8477 49.6795 42.9643 49.4526 43.044C49.2257 43.1237 48.9804 43.1605 48.7229 43.1605C48.5328 43.1605 48.3427 43.1298 48.1464 43.0746" fill="#F2F1EF"/>
<path d="M53.0218 37.709H52.2798V43.0811H53.0218V37.709Z" fill="#F2F1EF"/>
<path d="M55.9593 42.8662C56.6768 42.8662 57.2226 42.6577 57.5906 42.2468C57.9585 41.836 58.1425 41.2227 58.1425 40.4193C58.1425 38.7513 57.4127 37.9173 55.9593 37.9173H55.714V42.8724H55.9593V42.8662ZM54.9658 37.7088H55.9103C56.3825 37.7088 56.8179 37.7701 57.1981 37.8866C57.5844 38.0031 57.9095 38.1748 58.1793 38.4079C58.4491 38.6348 58.6515 38.9107 58.7925 39.2296C58.9336 39.5547 59.0072 39.9103 59.0072 40.3151C59.0072 40.7198 58.9336 41.0878 58.7803 41.4251C58.6331 41.7624 58.4185 42.0567 58.1364 42.302C57.8604 42.5473 57.5292 42.7436 57.149 42.8724C56.7688 43.0011 56.3518 43.0747 55.9041 43.0747H54.9597V37.7026L54.9658 37.7088Z" fill="#F2F1EF"/>
<path d="M60.6139 37.709H62.8891V37.9175H61.3559V40.1068H62.7173V40.3153H61.3559V42.8664H63.0669V43.0749H60.6139V37.709Z" fill="#F2F1EF"/>
<path d="M64.8882 39.021V43.0746H64.6858V37.6719H64.8698L67.6539 41.7684V37.7087H67.8563V43.1053H67.6723L64.8882 39.021Z" fill="#F2F1EF"/>
<path d="M70.9164 42.8539C70.4565 42.6147 70.1008 42.2836 69.8371 41.8604C69.5673 41.4189 69.4324 40.9405 69.4324 40.4131C69.4324 40.1494 69.4692 39.8919 69.5366 39.6466C69.6041 39.4013 69.7022 39.1682 69.8371 38.9536C69.9659 38.7451 70.1192 38.555 70.3032 38.3833C70.4872 38.2116 70.6895 38.0644 70.9103 37.9417C71.3764 37.6903 71.8915 37.5615 72.4618 37.5615C73.0874 37.5615 73.6331 37.6903 74.087 37.9479C74.5408 38.2054 74.8903 38.5795 75.1295 39.0701L74.5224 39.4871C74.504 39.2664 74.4365 39.0517 74.32 38.8432C74.2096 38.6347 74.0624 38.4507 73.8785 38.2913C73.6945 38.1318 73.4921 38.0031 73.2713 37.9172C73.0506 37.8252 72.8237 37.7823 72.5968 37.7823C72.2472 37.7823 71.9283 37.8436 71.6401 37.9601C71.3519 38.0828 71.1127 38.2545 70.9103 38.4814C70.7079 38.7083 70.5546 38.9843 70.4504 39.3093C70.3461 39.6343 70.2909 39.9961 70.2909 40.4009C70.2909 40.8056 70.34 41.1613 70.4504 41.4802C70.5546 41.8052 70.7141 42.0751 70.9164 42.302C71.1188 42.5289 71.3641 42.7067 71.6462 42.8294C71.9283 42.952 72.2533 43.0133 72.6029 43.0133C72.8666 43.0133 73.118 42.9704 73.3633 42.8846C73.6086 42.7987 73.8355 42.6822 74.0318 42.535C74.2341 42.3878 74.3997 42.21 74.5285 42.0199C74.6573 41.8236 74.737 41.6213 74.7677 41.4005L75.0804 41.5722C74.9823 41.8175 74.8474 42.0444 74.6757 42.2529C74.504 42.4553 74.3016 42.6331 74.0686 42.7803C73.8355 42.9275 73.5902 43.0379 73.3143 43.1176C73.0383 43.1973 72.7623 43.2341 72.468 43.2341C71.8915 43.2341 71.3703 43.1115 70.9042 42.8662" fill="#F2F1EF"/>
<path d="M76.6934 37.709H78.9685V37.9175H77.4354V40.1068H78.7968V40.3153H77.4354V42.8664H79.1464V43.0749H76.6934V37.709Z" fill="#F2F1EF"/>
<path d="M81.6056 43.0808C81.4093 43.0256 81.2253 42.9397 81.0536 42.8355C80.8819 42.7312 80.7286 42.6147 80.606 42.4798C80.4772 42.3449 80.3852 42.1977 80.3239 42.0505L80.8512 41.6948C80.8574 41.8604 80.9003 42.0198 80.98 42.1732C81.0598 42.3265 81.1701 42.4614 81.2989 42.5779C81.4338 42.6944 81.5872 42.7925 81.7527 42.86C81.9244 42.9275 82.0962 42.9581 82.2801 42.9581C82.4641 42.9581 82.6297 42.9336 82.783 42.8845C82.9302 42.8355 83.059 42.768 83.1693 42.6822C83.2736 42.5963 83.3533 42.4859 83.4085 42.3633C83.4637 42.2345 83.4944 42.0996 83.4944 41.9463C83.4944 41.8113 83.4698 41.6887 83.4269 41.5844C83.3778 41.4802 83.3043 41.3759 83.2 41.2839C83.0958 41.1858 82.9547 41.0938 82.7769 40.9957C82.599 40.8976 82.3782 40.7933 82.1084 40.683C81.5626 40.4499 81.164 40.2108 80.9248 39.9532C80.8022 39.8244 80.7102 39.6834 80.6489 39.53C80.5876 39.3767 80.563 39.2112 80.563 39.0333C80.563 38.8371 80.606 38.6531 80.6918 38.4814C80.7777 38.3097 80.8942 38.1564 81.0414 38.0214C81.1885 37.8927 81.3664 37.7945 81.5688 37.721C81.7711 37.6474 81.9858 37.6167 82.2127 37.6167C82.4089 37.6167 82.5929 37.6412 82.7769 37.6903C82.9608 37.7393 83.1264 37.8129 83.2797 37.8988C83.4269 37.9908 83.5557 38.095 83.6599 38.2177C83.7642 38.3403 83.8317 38.4753 83.8684 38.6102L83.3472 38.9965C83.3472 38.8309 83.3104 38.6776 83.2491 38.5366C83.1816 38.3955 83.0958 38.2667 82.9792 38.1564C82.8627 38.046 82.7278 37.9663 82.5745 37.9049C82.4212 37.8436 82.2617 37.8129 82.09 37.8129C81.9367 37.8129 81.8018 37.8375 81.673 37.8804C81.5504 37.9233 81.44 37.9847 81.3541 38.0705C81.2621 38.1564 81.1947 38.2545 81.1456 38.3649C81.0966 38.4814 81.072 38.604 81.072 38.7328C81.072 38.8739 81.0904 38.9904 81.1272 39.0885C81.164 39.1866 81.2315 39.2786 81.3296 39.3645C81.4216 39.4503 81.5565 39.5423 81.7282 39.6343C81.8999 39.7263 82.1329 39.8367 82.4334 39.9655C82.7462 40.1004 83.0038 40.2292 83.2123 40.3518C83.4146 40.4745 83.5802 40.591 83.709 40.7136C83.8317 40.8363 83.9175 40.9651 83.9727 41.1061C84.0279 41.2472 84.0586 41.4005 84.0586 41.5722C84.0586 41.7929 84.0095 42.0015 83.9175 42.1977C83.8255 42.3878 83.6967 42.5595 83.525 42.7067C83.3533 42.8477 83.1571 42.9643 82.9302 43.044C82.7033 43.1237 82.458 43.1605 82.2004 43.1605C82.0103 43.1605 81.8202 43.1298 81.624 43.0746" fill="#F2F1EF"/>
<path d="M16.8461 34.7835C16.6683 34.716 16.5088 34.624 16.38 34.5014C16.2451 34.3787 16.147 34.2377 16.0734 34.0782C15.9998 33.9188 15.963 33.7409 15.963 33.557C15.963 33.2933 16.0305 33.0541 16.1654 32.8333C16.2267 32.7291 16.3064 32.631 16.3984 32.5512C16.4904 32.4654 16.5885 32.3918 16.6989 32.3366C16.932 32.2139 17.1895 32.1465 17.4655 32.1465C17.6863 32.1465 17.8764 32.1833 18.0481 32.2569C18.2136 32.3305 18.367 32.447 18.508 32.6126L18.2811 32.8333C18.2075 32.6432 18.0971 32.496 17.9438 32.3979C17.7905 32.2998 17.5943 32.2507 17.3612 32.2507C17.214 32.2507 17.0791 32.2814 16.9565 32.3366C16.8338 32.3918 16.7296 32.4776 16.6437 32.588C16.5579 32.6984 16.4904 32.8272 16.4475 32.9805C16.3984 33.1338 16.38 33.3055 16.38 33.4895C16.38 33.698 16.4046 33.8759 16.4536 34.0414C16.5027 34.2009 16.5763 34.3358 16.6683 34.4462C16.7602 34.5566 16.8768 34.6424 17.0178 34.6976C17.1589 34.7528 17.3183 34.7835 17.4961 34.7835C17.6433 34.7835 17.766 34.7712 17.8641 34.7528C17.9622 34.7344 18.0603 34.6915 18.1646 34.6363V33.6919H17.2876V33.5876H18.5264V34.5443C18.3547 34.667 18.183 34.7528 18.0051 34.8141C17.8273 34.8693 17.6311 34.9 17.4287 34.9C17.2263 34.9 17.0362 34.8693 16.8584 34.8019" fill="#F2F1EF"/>
<path d="M19.9982 33.4958C20.1699 33.4958 20.2987 33.4467 20.3907 33.3425C20.4765 33.2382 20.5256 33.0849 20.5256 32.8887C20.5256 32.7844 20.5133 32.6924 20.4888 32.625C20.4643 32.5514 20.4275 32.4962 20.3846 32.4532C20.3355 32.4103 20.2742 32.3797 20.1883 32.3551C20.1086 32.3367 20.0105 32.3245 19.8878 32.3245H19.7897V33.5019H19.9982V33.4958ZM19.434 32.2202H20.1454C20.2558 32.2202 20.3539 32.2386 20.4459 32.2631C20.5379 32.2938 20.6176 32.3367 20.6851 32.3919C20.7525 32.4471 20.8077 32.5146 20.8445 32.5943C20.8813 32.6679 20.8997 32.7537 20.8997 32.8457C20.8997 33.1646 20.6973 33.3854 20.2987 33.508L21.5497 34.8143H21.1082L19.9798 33.6H19.7836V34.8143H19.4218V32.2202H19.434Z" fill="#F2F1EF"/>
<path d="M23.0889 33.8513L22.6413 32.7045L22.212 33.8513H23.0889ZM22.7271 32.2017H22.8191L23.8248 34.808H23.4446L23.1257 33.9494H22.1752L21.8624 34.808H21.7582L22.7271 32.2017Z" fill="#F2F1EF"/>
<path d="M24.524 32.8517V34.8141H24.432V32.2017H24.5179L25.8609 34.1763V32.2201H25.959V34.8264H25.867L24.524 32.8517Z" fill="#F2F1EF"/>
<path d="M27.3695 34.71C27.719 34.71 27.9827 34.6119 28.1605 34.4095C28.3384 34.2072 28.4304 33.9128 28.4304 33.5264C28.4304 32.7169 28.0808 32.3183 27.3756 32.3183H27.2529V34.71H27.3756H27.3695ZM26.8911 32.2202H27.3449C27.5718 32.2202 27.7803 32.2509 27.9704 32.3061C28.1544 32.3613 28.3139 32.4471 28.4426 32.5575C28.5714 32.6679 28.6695 32.8028 28.7431 32.9561C28.8106 33.1094 28.8474 33.2873 28.8474 33.4774C28.8474 33.6675 28.8106 33.8515 28.737 34.017C28.6634 34.1826 28.5592 34.3237 28.4242 34.4402C28.2893 34.5628 28.1299 34.6548 27.9459 34.7162C27.7619 34.7836 27.5596 34.8143 27.3449 34.8143H26.8911V32.2202Z" fill="#F2F1EF"/>
<path d="M31.6316 34.7103C31.8401 34.7103 31.9934 34.6612 32.0977 34.5631C32.1958 34.465 32.2449 34.3117 32.2449 34.1032C32.2449 33.8947 32.1897 33.7352 32.0793 33.6371C31.9689 33.539 31.7972 33.4838 31.5703 33.4838H31.2943V34.7103H31.6316ZM31.5457 33.3857C31.6929 33.3857 31.8094 33.3366 31.8953 33.2385C31.9812 33.1404 32.0241 32.9993 32.0241 32.8215C32.0241 32.4903 31.8524 32.3186 31.5151 32.3186H31.2882V33.3857H31.5457ZM30.9325 32.2205H31.558C31.8462 32.2205 32.0609 32.2695 32.2019 32.3615C32.343 32.4535 32.4104 32.6007 32.4104 32.7908C32.4104 32.938 32.3614 33.0606 32.2633 33.1649C32.1651 33.2692 32.0302 33.3489 31.8585 33.3918C31.9689 33.3918 32.0731 33.4102 32.1713 33.4409C32.2633 33.4715 32.3491 33.5206 32.4166 33.5758C32.484 33.631 32.5392 33.7046 32.576 33.7843C32.6128 33.864 32.6312 33.9499 32.6312 34.0418C32.6312 34.1522 32.6067 34.2565 32.5576 34.3485C32.5086 34.4405 32.4411 34.5263 32.3552 34.5938C32.2694 34.6612 32.1651 34.7164 32.0486 34.7532C31.9321 34.79 31.8033 34.8084 31.6684 34.8084H30.9325V32.2144V32.2205Z" fill="#F2F1EF"/>
<path d="M34.4157 33.8513L33.968 32.7045L33.5387 33.8513H34.4157ZM34.06 32.2017H34.152L35.1577 34.808H34.7775L34.4586 33.9494H33.5081L33.1953 34.808H33.0911L34.06 32.2017Z" fill="#F2F1EF"/>
<path d="M36.2616 33.6552L35.4644 32.2202H35.9182L36.5989 33.4896L37.3041 32.2202H37.4022L36.6173 33.6307V34.8143H36.2616V33.6552Z" fill="#F2F1EF"/>
<path d="M39.3401 32.2202H39.6958V33.4283H40.7322V32.2202H41.0879V34.8081H40.7322V33.5264H39.6958V34.8081H39.3401V32.2202Z" fill="#F2F1EF"/>
<path d="M43.0135 33.8513L42.5659 32.7045L42.1366 33.8513H43.0135ZM42.6517 32.2017H42.7437L43.7494 34.808H43.3692L43.0442 33.9494H42.0936L41.7809 34.808H41.6766L42.6456 32.2017H42.6517Z" fill="#F2F1EF"/>
<path d="M44.3627 32.2202H44.7184V34.71H45.5095V34.8081H44.3627V32.2202Z" fill="#F2F1EF"/>
<path d="M47.8888 34.6854C48.0115 34.624 48.1157 34.5382 48.2077 34.4278C48.2936 34.3174 48.361 34.1825 48.4101 34.0292C48.453 33.8759 48.4775 33.7041 48.4775 33.5202C48.4775 33.3362 48.453 33.1522 48.404 32.9928C48.3549 32.8333 48.2874 32.6984 48.1954 32.588C48.1035 32.4776 47.9931 32.3918 47.8704 32.3305C47.7416 32.2691 47.6006 32.2446 47.4411 32.2446C47.294 32.2446 47.1591 32.2753 47.0303 32.3366C46.9076 32.3979 46.7972 32.4838 46.7114 32.5942C46.6255 32.7045 46.5519 32.8395 46.509 32.9928C46.4599 33.1461 46.4354 33.3178 46.4354 33.5018C46.4354 33.6857 46.4599 33.8636 46.509 34.023C46.5581 34.1764 46.6317 34.3113 46.7236 34.4278C46.8156 34.5382 46.926 34.624 47.0609 34.6854C47.1897 34.7467 47.3369 34.7712 47.4963 34.7712C47.6374 34.7712 47.7723 34.7405 47.895 34.6792M46.7236 34.6976C46.6194 34.6424 46.5213 34.5688 46.4354 34.4891C46.3496 34.4094 46.276 34.3174 46.2146 34.2131C46.0859 33.9985 46.0245 33.7655 46.0245 33.514C46.0245 33.3914 46.0429 33.2687 46.0736 33.1522C46.1043 33.0357 46.1533 32.9253 46.2208 32.8211C46.2821 32.7229 46.3557 32.631 46.4477 32.5451C46.5335 32.4592 46.6317 32.3918 46.742 32.3305C46.9689 32.2078 47.2142 32.1465 47.4779 32.1465C47.6067 32.1465 47.7355 32.1649 47.8643 32.1955C47.9869 32.2262 48.1035 32.2753 48.2077 32.3305C48.312 32.3918 48.4101 32.4592 48.4959 32.5451C48.5818 32.631 48.6554 32.7229 48.7167 32.8211C48.778 32.9253 48.8271 33.0357 48.8578 33.1522C48.8884 33.2687 48.9068 33.3914 48.9068 33.5202C48.9068 33.7655 48.8394 33.9985 48.7106 34.207C48.6493 34.3113 48.5757 34.3971 48.4898 34.483C48.404 34.5688 48.3058 34.6363 48.1954 34.6976C48.0912 34.7589 47.9747 34.8019 47.852 34.8325C47.7294 34.8632 47.6006 34.8816 47.4718 34.8816C47.2081 34.8816 46.9628 34.8203 46.7359 34.6976" fill="#F2F1EF"/>
<path d="M49.7593 32.8517V34.8141H49.6611V32.2017H49.747L51.0961 34.1763V32.2201H51.1881V34.8264H51.1023L49.7593 32.8517Z" fill="#F2F1EF"/>
<path d="M52.8378 34.7835C52.66 34.716 52.5005 34.624 52.3717 34.5014C52.2368 34.3787 52.1387 34.2377 52.0651 34.0782C51.9915 33.9188 51.9547 33.7409 51.9547 33.557C51.9547 33.2933 52.0222 33.0541 52.1571 32.8333C52.2184 32.7291 52.2981 32.631 52.3901 32.5512C52.4821 32.4654 52.5802 32.3918 52.6906 32.3366C52.9236 32.2139 53.1751 32.1465 53.4572 32.1465C53.6779 32.1465 53.8681 32.1833 54.0398 32.2569C54.2053 32.3305 54.3587 32.447 54.4997 32.6126L54.2728 32.8333C54.1992 32.6432 54.0888 32.496 53.9355 32.3979C53.7822 32.2998 53.5921 32.2507 53.3591 32.2507C53.2119 32.2507 53.077 32.2814 52.9543 32.3366C52.8378 32.3918 52.7335 32.4776 52.6416 32.588C52.5557 32.6984 52.4882 32.8272 52.4453 32.9805C52.3963 33.1338 52.3779 33.3055 52.3779 33.4895C52.3779 33.698 52.4024 33.8759 52.4514 34.0414C52.5005 34.2009 52.5741 34.3358 52.6661 34.4462C52.7581 34.5566 52.8746 34.6424 53.0156 34.6976C53.1567 34.7528 53.3161 34.7835 53.494 34.7835C53.6412 34.7835 53.7638 34.7712 53.8619 34.7528C53.96 34.7344 54.0582 34.6915 54.1624 34.6363V33.6919H53.2855V33.5876H54.5242V34.5443C54.3587 34.667 54.1808 34.7528 54.003 34.8141C53.8251 34.8693 53.6289 34.9 53.4265 34.9C53.2241 34.9 53.034 34.8693 52.8562 34.8019" fill="#F2F1EF"/>
<path d="M56.4008 32.2202H56.781L57.523 34.3543L58.2589 32.2202H58.357L57.4188 34.8572H57.339L56.4008 32.2202Z" fill="#F2F1EF"/>
<path d="M59.3015 32.2202H58.9397V34.8143H59.3015V32.2202Z" fill="#F2F1EF"/>
<path d="M60.2397 32.2202H60.5954V34.71H61.3865V34.8081H60.2397V32.2202Z" fill="#F2F1EF"/>
<path d="M62.0612 32.2202H62.423V34.71H63.2079V34.8081H62.0612V32.2202Z" fill="#F2F1EF"/>
<path d="M64.8698 33.8513L64.4221 32.7045L63.9928 33.8513H64.8698ZM64.5079 32.2017H64.5938L65.5995 34.808H65.2193L64.8943 33.9494H63.9437L63.631 34.808H63.5267L64.4957 32.2017H64.5079Z" fill="#F2F1EF"/>
<path d="M66.6115 34.8145C66.5195 34.7838 66.4275 34.747 66.3478 34.698C66.2619 34.6489 66.1883 34.5876 66.127 34.5263C66.0657 34.4588 66.0227 34.3914 65.9921 34.3178L66.2496 34.1461C66.2496 34.2258 66.2742 34.3055 66.311 34.3791C66.3539 34.4527 66.4029 34.5201 66.4643 34.5753C66.5317 34.6305 66.5992 34.6796 66.685 34.7103C66.7648 34.7409 66.8506 34.7593 66.9365 34.7593C67.0223 34.7593 67.1082 34.747 67.1756 34.7225C67.2492 34.698 67.3106 34.6673 67.3596 34.6244C67.4087 34.5815 67.4516 34.5324 67.4761 34.4711C67.5007 34.4098 67.5129 34.3423 67.5129 34.2687C67.5129 34.2013 67.5007 34.1461 67.4823 34.097C67.4577 34.0479 67.4209 33.9989 67.3719 33.9498C67.3228 33.9008 67.2492 33.8578 67.1695 33.8088C67.0837 33.7658 66.9794 33.7107 66.8506 33.6555C66.5869 33.5451 66.3968 33.4286 66.2803 33.2998C66.219 33.2384 66.176 33.1649 66.1454 33.0974C66.1147 33.0238 66.1025 32.9441 66.1025 32.8582C66.1025 32.7662 66.1208 32.6743 66.1638 32.5884C66.2067 32.5025 66.2619 32.429 66.3355 32.3676C66.4091 32.3063 66.4949 32.2572 66.5869 32.2204C66.685 32.1898 66.7893 32.1714 66.8997 32.1714C66.9917 32.1714 67.0837 32.1837 67.1756 32.2082C67.2615 32.2327 67.3412 32.2695 67.4148 32.3124C67.4884 32.3554 67.5497 32.4106 67.5988 32.4657C67.6478 32.5271 67.6785 32.5884 67.6969 32.6559L67.4455 32.846C67.4455 32.7662 67.4271 32.6927 67.3964 32.6252C67.3658 32.5577 67.3228 32.4964 67.2676 32.4412C67.2124 32.3922 67.145 32.3492 67.0714 32.3186C66.9978 32.2879 66.9181 32.2756 66.8384 32.2756C66.7648 32.2756 66.6973 32.2879 66.636 32.3063C66.5747 32.3247 66.5256 32.3615 66.4827 32.3983C66.4397 32.4412 66.4029 32.4841 66.3784 32.5393C66.3539 32.5945 66.3416 32.6559 66.3416 32.7172C66.3416 32.7846 66.3539 32.8398 66.3661 32.8889C66.3845 32.938 66.4152 32.9809 66.4643 33.0238C66.5072 33.0667 66.5747 33.1097 66.6605 33.1526C66.7402 33.1955 66.8568 33.2507 67.0039 33.312C67.1511 33.3795 67.2799 33.4408 67.378 33.496C67.4761 33.5512 67.5559 33.6125 67.6172 33.6677C67.6785 33.729 67.7214 33.7904 67.746 33.8578C67.7705 33.9253 67.7889 33.9989 67.7889 34.0847C67.7889 34.189 67.7644 34.2932 67.7214 34.3852C67.6785 34.4772 67.6111 34.5569 67.5313 34.6305C67.4455 34.698 67.3535 34.7532 67.2431 34.79C67.1327 34.8268 67.0162 34.8452 66.8874 34.8452C66.7954 34.8452 66.7034 34.8329 66.6115 34.8022" fill="#F2F1EF"/>
</g>
<defs>
<clipPath id="clip0_79_6290">
<rect width="84.0401" height="43.222" fill="white"/>
</clipPath>
</defs>
</svg>
