<svg width="38" height="56" viewBox="0 0 38 56" fill="none" xmlns="http://www.w3.org/2000/svg">
<path d="M9.71357 4.3881C9.9874 4.3881 10.2094 4.16613 10.2094 3.8923C10.2094 3.61847 9.9874 3.39648 9.71357 3.39648C9.43974 3.39648 9.21777 3.61847 9.21777 3.8923C9.21777 4.16613 9.43974 4.3881 9.71357 4.3881Z" fill="white"/>
<path d="M23.9225 24.2409C25.1314 23.487 26.157 22.4682 26.9313 21.2592C27.9161 19.7174 28.4392 17.9243 28.4392 16.0905C28.4392 10.82 24.1739 6.52745 18.9169 6.4799C13.789 6.43236 9.46927 10.5075 9.23155 15.6287C9.06854 19.0858 10.7325 22.278 13.5647 24.1254C13.9315 24.3699 14.1216 24.8046 14.0333 25.2325L11.011 39.5771C10.9838 39.7129 11.0857 39.842 11.2283 39.842H26.2386C26.3813 39.842 26.483 39.7129 26.4559 39.5771L23.4675 25.3412C23.3792 24.9133 23.5557 24.465 23.9293 24.2341L23.9225 24.2409ZM22.4215 24.4582L25.3556 38.4361C25.4168 38.7349 25.1925 39.0134 24.8869 39.0134H12.5663C12.2607 39.0134 12.0366 38.7349 12.0977 38.4361L15.0657 24.3699C15.0657 24.3699 15.0725 24.3088 15.0725 24.2816C15.0725 24.1254 14.9843 23.9828 14.8417 23.908C11.6902 22.2984 9.81565 19.0043 10.0737 15.4385C10.393 10.983 14.115 7.43756 18.5841 7.3221C23.5286 7.18626 27.597 11.1731 27.597 16.0905C27.597 17.7613 27.1078 19.371 26.2453 20.7498C25.3827 22.1286 24.1467 23.2628 22.6389 23.9963C22.4623 24.0846 22.3739 24.2748 22.4147 24.4582H22.4215Z" fill="#51A9A3"/>
<path d="M28.1194 22.0264C29.2537 20.2537 29.8514 18.2025 29.8514 16.0902C29.8514 10.0658 24.9477 5.12123 18.9233 5.06689H18.8281C16.0026 5.06689 13.3063 6.15361 11.2347 8.12327C9.16319 10.0929 7.94741 12.735 7.81157 15.5673C7.63498 19.4319 9.4145 23.0112 12.5931 25.1847L9.61817 39.2916C9.51629 39.7738 9.63854 40.2764 9.95097 40.6567C10.2634 41.0371 10.7253 41.2612 11.2211 41.2612H26.2382C26.734 41.2612 27.1958 41.0439 27.5082 40.6567C27.8207 40.2764 27.9429 39.7738 27.841 39.2916L24.9001 25.2933C26.1837 24.4443 27.2976 23.3169 28.1262 22.0196L28.1194 22.0264ZM24.5402 25.0149L24.4111 25.0964L27.4132 39.3799C27.4879 39.7398 27.3996 40.0998 27.1686 40.3851C26.9445 40.6703 26.5982 40.8265 26.2382 40.8265H11.2211C10.8544 40.8265 10.5147 40.6635 10.2906 40.3851C10.0596 40.0998 9.97144 39.7398 10.0461 39.3799L13.0821 24.9877L12.9599 24.9062C9.83562 22.8346 8.07639 19.3504 8.25298 15.5876C8.38203 12.8708 9.54351 10.3307 11.5403 8.4357C13.5304 6.54074 16.1181 5.50159 18.8349 5.50159H18.9301C24.7168 5.55593 29.4236 10.3035 29.4236 16.0902C29.4236 18.121 28.8463 20.0907 27.7596 21.7955C26.9378 23.0792 25.8239 24.193 24.5402 25.0149Z" fill="white"/>
<path d="M2.64942 17.3676L2.63599 16.9397L4.49018 16.8717L4.45618 15.9276L4.83657 15.9141L4.8908 17.286L2.65622 17.3676H2.64942Z" fill="white"/>
<path d="M2.88013 13.2512L2.96171 12.8301L5.1555 13.258L5.07392 13.6791L2.88013 13.2512Z" fill="white"/>
<path d="M4.34042 9.78068L4.7616 9.97086L5.04681 9.34601L5.3932 9.50221L5.10799 10.1271L6.02498 10.5414L5.84838 10.9353L3.81079 10.0116L4.36081 8.78906L4.70721 8.94526L4.33378 9.77388L4.34042 9.78068Z" fill="white"/>
<path d="M6.41921 6.33036L6.7792 6.62241L7.21398 6.09264L7.51279 6.33714L7.07801 6.86691L7.56038 7.26085L8.15119 6.52731L8.45 6.77183L7.58741 7.83817L5.85559 6.43223L6.69779 5.39307L6.99659 5.63757L6.42601 6.34394L6.41921 6.33036Z" fill="white"/>
<path d="M12.2467 2.56142C12.4233 2.96215 12.8579 3.13195 13.2519 2.96215C13.5168 2.84668 13.6525 2.63615 13.7069 2.4256L14.0873 2.54785C14.0058 2.86028 13.7748 3.15233 13.3945 3.31534C12.756 3.59381 12.104 3.32212 11.8459 2.73122C11.5878 2.14032 11.8256 1.48151 12.4641 1.20983C12.7697 1.07399 13.082 1.08079 13.3401 1.17588L13.2043 1.55623C13.0277 1.48831 12.8172 1.47472 12.6135 1.55623C12.2263 1.72603 12.0701 2.1675 12.2399 2.55465L12.2467 2.56142Z" fill="white"/>
<path d="M17.1298 0.00783311C17.8158 -0.0668784 18.3389 0.401752 18.4068 1.0334C18.4747 1.66506 18.0536 2.2288 17.3676 2.29672C16.6816 2.37143 16.1586 1.90278 16.0906 1.27113C16.0227 0.639475 16.4438 0.0757527 17.1298 0.00783311ZM17.3268 1.90957C17.7479 1.86882 18.0196 1.48846 17.9788 1.07415C17.9381 0.653053 17.5917 0.347429 17.1706 0.388181C16.7495 0.428933 16.4779 0.809269 16.5186 1.22358C16.5594 1.64468 16.9057 1.95032 17.3268 1.90957Z" fill="white"/>
<path d="M21.1982 0.0883789L21.497 0.149504L22.4208 1.82712L22.7196 0.400803L23.1407 0.489102L22.6856 2.67611L22.3868 2.61499L21.4632 0.937373L21.1642 2.36369L20.7432 2.27539L21.1982 0.0883789Z" fill="white"/>
<path d="M25.6949 2.69713C25.4844 3.07748 25.6066 3.52575 25.9869 3.7363C26.2382 3.87893 26.4895 3.85855 26.6865 3.77705L26.8155 4.1506C26.5167 4.27285 26.1431 4.26608 25.7899 4.06232C25.1854 3.72272 25.0089 3.03672 25.3213 2.47978C25.6338 1.92284 26.3062 1.71229 26.9107 2.05868C27.2028 2.22169 27.386 2.4662 27.4675 2.73788L27.0805 2.86013C27.0262 2.67675 26.9107 2.50015 26.7205 2.39148C26.3537 2.18093 25.9055 2.32357 25.6949 2.69713Z" fill="white"/>
<path d="M29.9532 4.89718L29.6272 5.2232L30.1094 5.71222L29.8377 5.9839L29.3555 5.49488L28.9141 5.92957L29.5729 6.60197L29.3011 6.87364L28.3367 5.8956L29.926 4.32666L30.8701 5.27753L30.5984 5.5492L29.96 4.90398L29.9532 4.89718Z" fill="white"/>
<path d="M31.671 8.61885L30.8762 9.06712L30.6656 8.69355L32.615 7.59326L33.0294 8.3268C33.172 8.57811 33.1923 8.76148 33.138 8.93128C33.0905 9.08749 32.975 9.22333 32.8188 9.31163C32.6626 9.39992 32.486 9.4271 32.3298 9.38635C32.16 9.3456 32.0105 9.23013 31.8746 8.97883L31.671 8.62563V8.61885ZM32.1938 8.76828C32.2686 8.89732 32.3297 8.94487 32.4044 8.95845C32.4723 8.97204 32.5403 8.96524 32.6014 8.93128C32.6626 8.89732 32.7101 8.84297 32.7304 8.77506C32.7508 8.70714 32.7441 8.62565 32.6762 8.4966L32.486 8.15701L31.997 8.42868L32.187 8.76828H32.1938Z" fill="white"/>
<path d="M34.7685 13.0749L34.3949 13.1632L34.2523 12.5926L32.4525 13.0341L32.3507 12.613L34.1505 12.1715L34.0079 11.601L34.3815 11.5127L34.7685 13.0749Z" fill="white"/>
<path d="M33.4104 15.9342C33.2677 16.0564 33.1592 16.2534 33.1524 16.4572C33.1524 16.6473 33.261 16.7832 33.424 16.79C33.7092 16.79 33.7568 16.3824 33.9402 16.0836C34.0488 15.907 34.2051 15.7712 34.4564 15.778C34.8571 15.7848 35.0745 16.1583 35.0677 16.5319C35.0677 16.756 35.0066 16.9666 34.8436 17.1771L34.5311 16.9462C34.6127 16.8579 34.6806 16.7085 34.6873 16.5658C34.6873 16.4028 34.6262 16.2194 34.4496 16.2126C34.0896 16.2059 34.1779 17.2382 33.424 17.2246C33.03 17.2179 32.7584 16.8579 32.772 16.4504C32.772 16.1515 32.9078 15.8731 33.1252 15.6489L33.4104 15.9342Z" fill="white"/>
<path d="M4.85078 21.7795L3.60205 20.5308L2.35336 21.7795L3.60209 23.0282L4.85078 21.7795Z" fill="white"/>
<path d="M35.2992 21.7794L34.0505 20.5308L32.8018 21.7795L34.0505 23.0281L35.2992 21.7794Z" fill="white"/>
<path d="M5.20342 53.4121H3.79761V55.2051H4.10321V54.6822H5.20342C5.61094 54.6822 5.88942 54.4444 5.88942 54.0437C5.88942 53.643 5.61094 53.4053 5.20342 53.4053V53.4121ZM5.08121 54.4308H4.11001V53.6701H5.08121C5.27818 53.6701 5.58381 53.6701 5.58381 54.0505C5.58381 54.4308 5.27139 54.4308 5.08121 54.4308Z" fill="white"/>
<path d="M9.85564 53.4116V54.1791H8.08966V53.4116H7.78406V55.2047H8.08966V54.4372H9.85564V55.2047H10.1612V53.4116H9.85564Z" fill="white"/>
<path d="M14.053 53.4116V54.3082C14.053 54.6002 13.9851 54.9738 13.238 54.9738C12.4909 54.9738 12.4162 54.6002 12.4162 54.3082V53.4116H12.1106V54.3082C12.1106 54.933 12.4501 55.2319 13.238 55.2319C14.0259 55.2319 14.3654 54.933 14.3654 54.3082V53.4116H14.0598H14.053Z" fill="white"/>
<path d="M21.3074 54.913C21.4432 54.7568 21.5042 54.553 21.5042 54.3085C21.5042 53.738 21.1647 53.3916 20.3768 53.3916C19.5889 53.3916 19.2494 53.738 19.2494 54.3085C19.2494 54.879 19.5889 55.2322 20.3768 55.2322C20.6621 55.2322 20.8794 55.1847 21.056 55.1032L21.3412 55.3817L21.5586 55.1643L21.3074 54.913ZM20.3768 54.9741C19.8266 54.9741 19.555 54.8043 19.555 54.3085C19.555 53.8127 19.8266 53.6497 20.3768 53.6497C20.9269 53.6497 21.1918 53.8195 21.1918 54.3085C21.1918 54.7975 20.9202 54.9741 20.3768 54.9741Z" fill="white"/>
<path d="M25.321 53.4116V54.3082C25.321 54.6002 25.2531 54.9738 24.4992 54.9738C23.7453 54.9738 23.6842 54.6002 23.6842 54.3082V53.4116H23.3784V54.3082C23.3784 54.933 23.7181 55.2319 24.506 55.2319C25.2939 55.2319 25.6334 54.933 25.6334 54.3082V53.4116H25.3278H25.321Z" fill="white"/>
<path d="M28.6219 53.3916C27.834 53.3916 27.4945 53.738 27.4945 54.3085C27.4945 54.879 27.834 55.2322 28.6219 55.2322C29.4098 55.2322 29.7495 54.879 29.7495 54.3085C29.7495 53.738 29.4098 53.3916 28.6219 53.3916ZM28.6219 54.9741C28.0786 54.9741 27.8069 54.8043 27.8069 54.3085C27.8069 53.8127 28.0786 53.6497 28.6219 53.6497C29.1653 53.6497 29.4371 53.8195 29.4371 54.3085C29.4371 54.7975 29.1653 54.9741 28.6219 54.9741Z" fill="white"/>
<path d="M33.553 54.4643C33.4987 54.8446 33.1999 54.9805 32.7448 54.9805C32.2219 54.9805 31.923 54.8107 31.923 54.3149C31.923 53.8191 32.2219 53.656 32.7448 53.656C33.2067 53.656 33.4987 53.7851 33.553 54.1654H33.8588C33.8045 53.69 33.4512 53.3979 32.7448 53.3979C31.957 53.3979 31.6174 53.7443 31.6174 54.3149C31.6174 54.8854 31.957 55.2386 32.7448 55.2386C33.458 55.2386 33.8045 54.9465 33.8656 54.4711H33.553V54.4643Z" fill="white"/>
<path d="M1.729 54.4357L0.864624 53.5713L0.000140419 54.4358L0.864521 55.3002L1.729 54.4357Z" fill="white"/>
<path d="M37.6578 54.4285L36.7933 53.564L35.9289 54.4284L36.7933 55.2929L37.6578 54.4285Z" fill="white"/>
<path d="M32.8397 49.0323L32.765 48.7945L31.3862 44.665H29.96V44.6786C30.3267 44.9095 30.4558 45.025 30.4558 45.1948C30.4558 45.2831 30.4217 45.385 30.381 45.5072L29.8308 47.1848L29.6474 47.735L29.301 48.7945C29.1652 49.1953 29.0633 49.3651 28.5132 49.9084V49.922H29.9736V49.9084C29.3827 49.3583 29.3351 49.236 29.4574 48.8625L29.498 48.7266L29.6814 48.1765L29.8376 47.7146L30.0006 47.2188L30.0346 47.1169L30.0482 47.0694L30.646 45.2491L31.1553 46.7909L31.5492 47.9863L31.5628 48.027L31.6104 48.1765L31.6986 48.4346C31.9499 48.6112 32.2012 48.8013 32.4322 48.9847C32.6291 49.1409 32.8125 49.2836 32.9755 49.4058L32.8533 49.0255L32.8397 49.0323Z" fill="white"/>
<path d="M5.11516 44.5898H5.10156C4.9046 44.6646 4.89781 44.6646 4.76197 44.6646H0.958406C0.829359 44.6646 0.822567 44.6646 0.618808 44.5898H0.605211L0.544189 46.1112H0.571384C1.42038 44.8751 1.50856 44.8208 1.984 44.8208H2.37798V49.2763C2.37798 49.5616 2.35758 49.6091 1.84139 49.908V49.9215H3.89258V49.908C3.3628 49.6091 3.34239 49.5616 3.34239 49.2763V44.8208H3.74317C4.2254 44.8208 4.31375 44.8751 5.15595 46.1112H5.17635L5.11516 44.5898Z" fill="white"/>
<path d="M10.2435 45.3103C10.2435 45.025 10.2705 44.9775 10.7935 44.6786V44.665H8.73566V44.6786C9.26543 44.9775 9.28568 45.025 9.28568 45.3103V49.2768C9.28568 49.562 9.26543 49.6096 8.73566 49.9084V49.922H10.7935V49.9084C10.2705 49.6096 10.2435 49.562 10.2435 49.2768V45.3103ZM7.11229 45.3103C7.11229 45.025 7.1327 44.9775 7.65568 44.6786V44.665H5.60449V44.6786C6.12068 44.9775 6.14788 45.025 6.14788 45.3103V49.2768C6.14788 49.562 6.12068 49.6096 5.60449 49.9084V49.922H7.65568V49.9084C7.1327 49.6096 7.11229 49.562 7.11229 49.2768V45.3103Z" fill="white"/>
<path d="M15.2894 48.4001C14.3385 49.7585 14.2843 49.7653 13.673 49.7653H12.722V44.8208H13.7068C14.2841 44.8208 14.352 44.8411 15.2078 46.0501H15.2282L15.1604 44.5898H15.1468C14.9295 44.6646 14.9226 44.6646 14.7868 44.6646H11.2142V44.6781C11.7304 44.977 11.7508 45.0245 11.7508 45.3098V49.2763C11.7508 49.5616 11.7304 49.6091 11.2142 49.908V49.9215H14.8548C14.9906 49.9215 14.9973 49.9215 15.2078 49.9962H15.2214L15.3098 48.3933H15.2826L15.2894 48.4001Z" fill="white"/>
<path d="M19.0726 46.159C18.7873 46.159 18.468 46.1794 18.1488 46.2473L18.3118 45.2285L18.3798 44.7938L18.4206 44.5221L18.5496 43.7275L18.3526 43.7207L18.2304 44.4542L17.782 47.2186L17.8092 47.2457C18.1148 47.1846 18.4001 47.1574 18.6446 47.1574C19.9486 47.1574 21.0014 48.0879 21.0014 49.0592C21.0014 49.6841 20.5056 50.601 19.3374 50.5942V50.7776C21.1984 50.7776 21.9727 49.4939 21.9727 48.4547C21.9727 47.2321 20.689 46.159 19.0658 46.159H19.0726Z" fill="white"/>
<path d="M28.1737 44.6235V44.6371C28.7714 45.2076 28.7918 45.3434 28.6695 45.7306L27.8545 48.3455L26.8901 45.4657C26.7407 45.0242 26.7542 44.9563 27.1889 44.6303V44.6167H25.3687V44.6303C25.6608 44.9359 25.7897 45.1397 25.9459 45.5879L24.9951 48.3455L24.0374 45.4657C23.8879 45.0174 23.9017 44.9563 24.3431 44.6303V44.6167H22.4753V44.6303C22.7674 44.9359 22.8963 45.1397 23.0526 45.6083L24.5468 49.9484H24.5739L26.0275 45.8189L27.4537 49.9484H27.4809L28.8257 45.7238C28.9548 45.3095 29.0431 45.1872 29.5661 44.6303V44.6167H28.1737V44.6235Z" fill="white"/>
<path d="M35.7126 44.665V44.6786C36.2696 45.2627 36.2764 45.3782 36.059 45.7789L35.1896 47.341L34.0146 45.4189C33.8109 45.0861 33.838 44.9843 34.2658 44.6854V44.6718H32.4185V44.6854C32.6426 44.9367 32.7173 45.0522 32.9279 45.385L34.2998 47.5856V49.2836C34.2998 49.3854 34.2998 49.4601 34.2658 49.5281C34.2658 49.5349 34.259 49.5484 34.2455 49.562C34.2387 49.5688 34.2318 49.5824 34.2251 49.5892C34.2183 49.6028 34.2048 49.6164 34.1844 49.63C34.1029 49.7047 33.9738 49.7862 33.7565 49.9152C33.7904 49.922 33.8177 49.9288 33.8448 49.9288H35.8008V49.9152C35.2779 49.6164 35.2506 49.5688 35.2506 49.2836V47.5108L36.222 45.7857C36.4462 45.385 36.5549 45.2491 37.0982 44.6854V44.6718H35.7058L35.7126 44.665Z" fill="white"/>
<path d="M19.3442 50.7838C17.9858 50.7838 16.9194 50.2608 16.9126 49.1809C16.9058 48.101 18.6515 47.7342 19.0522 48.5425C18.9299 48.3727 17.884 48.5085 17.8772 49.4118C17.8772 49.9212 18.1081 50.6004 19.3442 50.6072V50.7906V50.7838Z" fill="white"/>
<path d="M18.3591 43.7204C18.7938 43.7204 21.334 44.0192 22.0811 43.2178C21.6057 45.0584 20.0096 45.072 18.2369 44.4539L18.3591 43.7204Z" fill="white"/>
<path d="M5.17606 48.7196C4.59874 48.2849 4.4696 47.5445 4.91108 47.008C5.42048 46.3899 6.42568 46.3084 8.13046 46.7091C9.18322 46.9536 10.4466 47.1846 11.6148 47.3272C12.5249 47.4359 13.2381 47.4495 13.8222 47.2797C14.2229 47.1642 14.5692 46.8586 14.576 46.4307C14.8002 46.7023 14.9564 47.0759 14.7866 47.4019C14.6168 47.7279 14.1278 47.9453 13.8222 47.9792C13.1702 48.0539 12.0494 47.7008 11.1461 47.5989C9.81483 47.4427 8.25946 47.0487 7.73648 46.9604C6.3645 46.7295 5.8348 47.1914 5.43408 47.6125C5.21673 47.8366 5.08775 48.1558 5.16246 48.7128L5.17606 48.7196Z" fill="white"/>
<path d="M35.2644 49.419V49.9216H33.8518C33.8518 49.9216 33.3152 49.9555 32.962 49.6838C32.799 49.5616 31.9636 48.9028 31.7123 48.733C31.1553 48.3458 30.5848 47.8364 30.2113 47.721C29.2129 47.4153 28.8325 48.0674 28.7307 48.2304C28.6084 48.4273 28.425 48.8892 28.5065 49.1609C28.2552 49.0182 27.9835 48.3526 28.3027 47.8229C28.6083 47.3067 29.403 47.0214 30.3675 47.4561C30.8497 47.7006 32.7312 48.9435 32.8466 49.0318C33.2474 49.3375 33.6276 49.5616 34.103 49.6159C34.1098 49.6159 34.1235 49.6159 34.137 49.6159C34.137 49.6159 34.1779 49.6159 34.1982 49.6159C34.239 49.6159 34.2865 49.6159 34.334 49.6159C34.4223 49.6159 34.7008 49.6091 34.7958 49.5955C35.0539 49.5684 35.0471 49.5684 35.2712 49.4122L35.2644 49.419Z" fill="white"/>
<path d="M32.765 48.7939L32.8398 49.0317L32.962 49.412L33.125 49.9214" fill="white"/>
<path d="M34.2314 49.5757C34.2314 49.5757 34.2113 49.6026 34.1911 49.6161C34.1709 49.6161 34.1507 49.6161 34.1305 49.6161C34.1709 49.6161 34.2045 49.6026 34.2314 49.5757Z" fill="white"/>
<path d="M26.9176 16.0907C26.9176 11.6352 23.2906 8.0083 18.8351 8.0083C18.7604 8.0083 18.6856 8.0083 18.6109 8.0083C14.5153 8.11697 11.0652 11.4043 10.7731 15.4862C10.5354 18.7464 12.2605 21.8096 15.1675 23.2902L15.9213 23.6705L12.9261 37.8793C12.8989 38.0287 12.96 38.1306 13.0007 38.1782C13.0415 38.2325 13.1299 38.314 13.2793 38.314H24.1872C24.3366 38.314 24.4249 38.2325 24.4656 38.1782C24.4996 38.1306 24.5676 38.0219 24.5404 37.8793L21.5723 23.7452L22.3533 23.3717C25.1244 22.0269 26.9176 19.1743 26.9176 16.0907ZM21.1647 20.3221C20.9134 20.5666 20.6349 20.7636 20.3361 20.9198C20.2953 20.9402 20.2546 20.9605 20.2139 20.9809C20.2139 20.9809 20.2139 20.9809 20.2071 20.9809C19.623 21.3001 19.2291 21.925 19.2291 22.6382V23.0797H19.6095C19.7453 23.0797 19.8539 23.1883 19.8539 23.3242V23.5075C19.8539 23.6434 19.7453 23.752 19.6095 23.752H19.2291V32.534H21.1104V33.1725H20.3429C20.2546 33.1725 20.18 33.2065 20.1256 33.2676C20.0713 33.3219 20.0373 33.3966 20.0373 33.4849C20.0373 33.6547 20.1731 33.7974 20.3497 33.7974H21.1172V34.4154H20.3497C20.1731 34.4154 20.0373 34.5581 20.0373 34.7278V34.7414C20.0373 34.918 20.1731 35.0539 20.3497 35.0539H21.1172V35.6583H19.2359V36.8334H18.1559V23.752H17.7755C17.6397 23.752 17.5311 23.6434 17.5311 23.5075V23.3242C17.5311 23.1883 17.6397 23.0797 17.7755 23.0797H18.1559V22.8283C18.1559 22.0473 17.6805 21.3749 17.0013 21.0828C16.9877 21.0828 16.9673 21.076 16.9537 21.0624C16.9129 21.0421 16.8654 21.0217 16.8247 21.0013C16.8247 21.0013 16.8179 21.0013 16.8111 21.0013C16.7907 20.9877 16.7635 20.9741 16.7363 20.9605C16.5597 20.8655 16.3967 20.7432 16.2473 20.6074C15.6972 20.1048 15.4255 19.5139 15.4255 18.8279C15.4255 18.4136 15.5139 18.0876 15.6905 17.8702C15.8671 17.6461 16.0912 17.5306 16.3629 17.5306C16.6346 17.5306 16.8519 17.6189 17.0217 17.8023C17.1915 17.9857 17.2729 18.2166 17.2729 18.5019C17.2729 18.7192 17.2322 18.889 17.1507 19.0113C17.0692 19.1335 16.913 19.2354 16.6889 19.3169C16.4647 19.4052 16.3561 19.5003 16.3561 19.6157C16.3561 19.7788 16.4307 19.9553 16.5801 20.1523C16.7363 20.3493 16.9605 20.5123 17.2661 20.6277C17.5717 20.75 17.9249 20.8111 18.3189 20.8111C19.0932 20.8111 19.6841 20.5734 20.0917 20.0912C20.4992 19.6089 20.7029 18.8279 20.7029 17.7412C20.7029 16.7563 20.4923 16.0364 20.0577 15.5813C19.6298 15.1195 19.0797 14.8953 18.4073 14.8953C18.1016 14.8953 17.8027 14.9497 17.4971 15.0651C17.1914 15.1738 16.8857 15.3436 16.5869 15.5677C16.5529 15.9209 16.485 16.1586 16.3967 16.2809C16.3016 16.3964 16.1863 16.4575 16.0437 16.4575C15.9486 16.4575 15.8602 16.4235 15.7991 16.3556C15.738 16.2809 15.7041 16.1858 15.7041 16.0568C15.7041 15.8326 15.8059 15.6153 16.0165 15.3979C16.0776 15.33 16.1183 15.2757 16.1455 15.2214L16.3221 12.9936C16.3968 12.1106 16.4307 11.2549 16.4307 10.4262C17.7144 10.7183 18.7604 10.8677 19.5687 10.8677C19.949 10.8677 20.3089 10.8337 20.6417 10.759C20.9745 10.6843 21.2259 10.596 21.3889 10.5009C21.4772 10.4534 21.5315 10.433 21.5587 10.433C21.613 10.433 21.6402 10.467 21.6402 10.5417C21.6402 10.7183 21.5248 10.956 21.3006 11.2481C21.0697 11.5333 20.7572 11.771 20.3701 11.9408C19.9761 12.1106 19.5279 12.1989 19.0117 12.1989C18.4208 12.1989 17.7145 12.1106 16.8927 11.9273L16.6413 14.8274C17.0216 14.6372 17.3885 14.4878 17.7417 14.3927C18.0948 14.2976 18.4208 14.2501 18.7401 14.2501C19.7317 14.2501 20.5671 14.5761 21.2395 15.2349C21.9119 15.8938 22.2582 16.7088 22.2582 17.6732C22.2582 18.7464 21.8982 19.6293 21.1783 20.3289L21.1647 20.3221Z" fill="url(#paint0_linear_79_10638)"/>
<defs>
<linearGradient id="paint0_linear_79_10638" x1="18.8284" y1="7.34269" x2="18.8284" y2="39.0204" gradientUnits="userSpaceOnUse">
<stop stop-color="#395A9F"/>
<stop offset="0.2" stop-color="#407FA2"/>
<stop offset="0.43" stop-color="#4EA7A1"/>
<stop offset="0.49" stop-color="#59AB95"/>
<stop offset="0.61" stop-color="#79B677"/>
<stop offset="0.63" stop-color="#80B971"/>
<stop offset="0.7" stop-color="#9DB36F"/>
<stop offset="0.86" stop-color="#E9A76B"/>
<stop offset="1" stop-color="#D8553B"/>
</linearGradient>
</defs>
</svg>
