<svg width="43" height="47" viewBox="0 0 43 47" fill="none" xmlns="http://www.w3.org/2000/svg">
<path d="M7.53211 46.258C7.41845 46.258 7.31536 46.2435 7.22351 46.2158C7.13165 46.1867 7.05302 46.1358 6.98694 46.0624C6.92151 45.9891 6.88517 45.8959 6.87988 45.7836H7.14091C7.15082 45.8807 7.19575 45.9508 7.27505 45.9944C7.35501 46.038 7.44687 46.0598 7.55061 46.0598C7.65436 46.0598 7.74027 46.036 7.79974 45.9878C7.85988 45.9395 7.88961 45.884 7.88961 45.8212C7.88961 45.7413 7.85922 45.6825 7.79842 45.6435C7.73829 45.6052 7.64643 45.5781 7.52286 45.5602C7.30743 45.5278 7.15214 45.477 7.05698 45.4096C6.96182 45.3415 6.91491 45.2397 6.91491 45.1043C6.91491 44.9688 6.96711 44.8637 7.07152 44.7772C7.17527 44.6906 7.32527 44.647 7.52088 44.647C7.6993 44.6483 7.84336 44.6873 7.95305 44.7639C8.06275 44.8406 8.11958 44.9589 8.12354 45.1181H7.88168C7.87706 45.0659 7.86318 45.021 7.84005 44.9827C7.81692 44.9443 7.78653 44.9159 7.74952 44.8974C7.71185 44.8789 7.67485 44.8644 7.63652 44.8558C7.59819 44.8472 7.55788 44.8426 7.51427 44.8426C7.40061 44.8419 7.31404 44.8637 7.25523 44.908C7.19575 44.9529 7.16668 45.0098 7.16668 45.0785C7.16668 45.1102 7.16998 45.138 7.17791 45.1604C7.18584 45.1836 7.19972 45.2034 7.22087 45.2206C7.24135 45.2377 7.26051 45.2523 7.27505 45.2629C7.29091 45.2741 7.31867 45.2833 7.36096 45.2933C7.40193 45.3032 7.43299 45.3104 7.45347 45.3151C7.47462 45.3197 7.51229 45.327 7.56846 45.3382C7.7819 45.3752 7.93191 45.4267 8.01715 45.4935C8.1024 45.5602 8.14469 45.6633 8.14469 45.8021C8.14469 45.9409 8.09116 46.0459 7.98345 46.1305C7.8764 46.2144 7.72639 46.2561 7.53409 46.2561H7.53079L7.53211 46.258Z" fill="white"/>
<path d="M8.40552 44.6797H8.66985L9.10863 45.4343L9.54807 44.6797H9.81042L9.22758 45.6399V46.2359H8.99034V45.6399L8.40552 44.6797Z" fill="white"/>
<path d="M10.1792 44.6797H10.5367L11.0211 46.0502L11.4982 44.6797H11.8616V46.2359H11.6264V44.9638L11.1711 46.2359H10.8618L10.4125 44.9619V46.2359H10.1792V44.6797Z" fill="white"/>
<path d="M13.0994 44.6817C13.254 44.6817 13.3736 44.716 13.4602 44.7821C13.5468 44.8489 13.5904 44.9473 13.5904 45.0775C13.5904 45.2381 13.517 45.3498 13.3703 45.4112C13.5659 45.4595 13.6637 45.5843 13.6637 45.7852C13.6637 45.9194 13.6168 46.0278 13.5217 46.111C13.4265 46.1943 13.295 46.2359 13.1272 46.2359H12.426V44.6797L13.1001 44.6817H13.0994ZM13.0545 45.3346C13.2593 45.3346 13.3617 45.2559 13.3617 45.0973C13.3617 45.0226 13.334 44.9671 13.2785 44.9301C13.223 44.8931 13.1483 44.874 13.0538 44.874H12.66V45.3359H13.0538V45.3346H13.0545ZM13.0875 46.0436C13.2084 46.0436 13.295 46.0185 13.3472 45.9683C13.3994 45.9181 13.4258 45.8526 13.4258 45.7714C13.4258 45.6035 13.3049 45.5176 13.0624 45.5169H12.66V46.043H13.0875V46.0443V46.0436Z" fill="white"/>
<path d="M14.7877 46.2628C14.561 46.2628 14.3786 46.1881 14.2405 46.0408C14.1024 45.8928 14.0337 45.6985 14.0337 45.4579C14.0337 45.2174 14.1024 45.0225 14.2405 44.8731C14.378 44.7231 14.561 44.6484 14.7877 44.6484C15.0143 44.6484 15.1967 44.7231 15.3348 44.8731C15.4723 45.0231 15.5417 45.2174 15.5417 45.4579C15.5417 45.6985 15.4723 45.8921 15.3348 46.0401C15.1967 46.1875 15.0157 46.2622 14.789 46.2622V46.2635L14.7877 46.2628ZM14.7877 46.0659C14.9397 46.0659 15.0619 46.0091 15.1551 45.8967C15.2476 45.7837 15.2939 45.6383 15.2939 45.4599C15.2939 45.2815 15.247 45.1341 15.1538 45.0218C15.0606 44.9088 14.9384 44.852 14.7877 44.852C14.637 44.852 14.5154 44.9088 14.4223 45.0218C14.3297 45.1341 14.2835 45.2802 14.2835 45.4579C14.2835 45.6357 14.3297 45.7817 14.4223 45.8941C14.5154 46.0071 14.6364 46.0626 14.7877 46.0626V46.0659Z" fill="white"/>
<path d="M16.2488 44.6797V46.0456H17.057V46.2359H16.0135V44.6797H16.2488Z" fill="white"/>
<path d="M18.6594 46.2628C18.4327 46.2628 18.2503 46.1881 18.1122 46.0408C17.9741 45.8928 17.9054 45.6985 17.9054 45.4579C17.9054 45.2174 17.9741 45.0225 18.1122 44.8731C18.2497 44.7231 18.4327 44.6484 18.6594 44.6484C18.886 44.6484 19.0684 44.7231 19.2065 44.8731C19.344 45.0231 19.4134 45.2174 19.4134 45.4579C19.4134 45.6985 19.344 45.8921 19.2065 46.0401C19.0684 46.1875 18.8874 46.2622 18.6607 46.2622V46.2635L18.6594 46.2628ZM18.6594 46.0659C18.8114 46.0659 18.9336 46.0091 19.0268 45.8967C19.1193 45.7837 19.1656 45.6383 19.1656 45.4599C19.1656 45.2815 19.1187 45.1341 19.0255 45.0218C18.9323 44.9088 18.8101 44.852 18.6594 44.852C18.5087 44.852 18.3871 44.9088 18.294 45.0218C18.2014 45.1341 18.1552 45.2802 18.1552 45.4579C18.1552 45.6357 18.2014 45.7817 18.294 45.8941C18.3871 46.0071 18.5081 46.0626 18.6594 46.0626V46.0659Z" fill="white"/>
<path d="M21.0068 44.6797V44.87H20.1193V45.3451H20.8977V45.5374H20.1193V46.2359H19.884V44.6797H21.0061H21.0068Z" fill="white"/>
<path d="M22.5569 46.258C22.4432 46.258 22.3408 46.2435 22.249 46.2158C22.1571 46.1867 22.0785 46.1358 22.0124 46.0624C21.947 45.9891 21.9106 45.8959 21.9047 45.7836H22.1663C22.1763 45.8807 22.2212 45.9508 22.3012 45.9944C22.3811 46.038 22.473 46.0598 22.5767 46.0598C22.6805 46.0598 22.7657 46.036 22.8258 45.9878C22.886 45.9395 22.9151 45.884 22.9151 45.8212C22.9151 45.7413 22.8847 45.6825 22.8245 45.6435C22.7644 45.6052 22.6725 45.5781 22.549 45.5602C22.3335 45.5278 22.1782 45.477 22.0831 45.4096C21.9879 45.3415 21.941 45.2397 21.941 45.1043C21.941 44.9688 21.9932 44.8637 22.097 44.7772C22.2007 44.6906 22.3507 44.647 22.5463 44.647C22.7247 44.6483 22.8695 44.6873 22.9785 44.7639C23.0882 44.8406 23.145 44.9589 23.149 45.1181H22.9071C22.9025 45.0659 22.8886 45.021 22.8655 44.9827C22.8424 44.9443 22.812 44.9159 22.7743 44.8974C22.7373 44.8789 22.6996 44.8644 22.662 44.8558C22.6236 44.8472 22.5833 44.8426 22.5397 44.8426C22.4261 44.8419 22.3395 44.8637 22.28 44.908C22.2212 44.9529 22.1915 45.0098 22.1915 45.0785C22.1915 45.1102 22.1948 45.138 22.2027 45.1604C22.21 45.1836 22.2245 45.2034 22.245 45.2206C22.2661 45.2377 22.2846 45.2523 22.2998 45.2629C22.315 45.2741 22.3434 45.2833 22.3851 45.2933C22.4267 45.3032 22.4578 45.3104 22.4783 45.3151C22.4987 45.3197 22.5371 45.327 22.5932 45.3382C22.8067 45.3752 22.9567 45.4267 23.0413 45.4935C23.1272 45.5602 23.1695 45.6633 23.1695 45.8021C23.1695 45.9409 23.1159 46.0459 23.0089 46.1305C22.9012 46.2144 22.7518 46.2561 22.5595 46.2561H22.5562L22.5569 46.258Z" fill="white"/>
<path d="M24.3142 44.6777C24.4973 44.6771 24.6334 44.7194 24.7246 44.8059C24.8151 44.8925 24.8614 45.0101 24.8614 45.1615C24.8614 45.3128 24.8145 45.4258 24.7206 45.513C24.6261 45.6002 24.486 45.6445 24.2997 45.6445H23.8807V46.2366H23.6475V44.6804L24.3149 44.6777H24.3142ZM24.2964 45.4555C24.3962 45.4555 24.4755 45.4317 24.5363 45.3835C24.5964 45.3353 24.6255 45.2612 24.6255 45.1615C24.6255 44.9645 24.5158 44.8661 24.2964 44.8661H23.8814L23.8794 45.4549H24.2957L24.2964 45.4555Z" fill="white"/>
<path d="M25.5338 44.6797V46.0456H26.342V46.2359H25.2986V44.6797H25.5338Z" fill="white"/>
<path d="M27.9295 44.6797V44.87H27.0123V45.3451H27.8495V45.5374H27.0123V46.0456H27.9295V46.2359H26.7764V44.6797H27.9295Z" fill="white"/>
<path d="M28.6445 46.2359H28.4119V44.6797H28.6663L29.5108 45.9048V44.6817H29.7441V46.2359H29.489L28.6445 45.0108V46.2359Z" fill="white"/>
<path d="M30.8668 44.6797C31.104 44.6797 31.2943 44.7464 31.4364 44.8812C31.5785 45.0154 31.6498 45.205 31.6498 45.4489C31.6498 45.6927 31.5798 45.8863 31.4397 46.0264C31.2996 46.1665 31.1146 46.2366 30.8853 46.2366H30.3097V44.6803H30.8668V44.6797ZM30.8258 46.0423C31.0168 46.0423 31.1628 45.9921 31.2633 45.8916C31.3637 45.7912 31.4139 45.6451 31.4139 45.4562C31.4139 45.2672 31.365 45.1238 31.2659 45.0233C31.1681 44.9229 31.024 44.8726 30.8364 44.8726H30.5456V46.0436H30.8258V46.0423Z" fill="white"/>
<path d="M32.7818 46.2628C32.5552 46.2628 32.3728 46.1881 32.2347 46.0408C32.0966 45.8928 32.0278 45.6985 32.0278 45.4579C32.0278 45.2174 32.0966 45.0225 32.2347 44.8731C32.3721 44.7231 32.5552 44.6484 32.7818 44.6484C33.0085 44.6484 33.1909 44.7231 33.329 44.8731C33.4664 45.0231 33.5358 45.2174 33.5358 45.4579C33.5358 45.6985 33.4664 45.8921 33.329 46.0401C33.1909 46.1875 33.0098 46.2622 32.7832 46.2622V46.2635L32.7818 46.2628ZM32.7818 46.0659C32.9338 46.0659 33.0561 46.0091 33.1492 45.8967C33.2418 45.7837 33.288 45.6383 33.288 45.4599C33.288 45.2815 33.2411 45.1341 33.1479 45.0218C33.0547 44.9088 32.9325 44.852 32.7818 44.852C32.6312 44.852 32.5096 44.9088 32.4164 45.0218C32.3239 45.1341 32.2776 45.2802 32.2776 45.4579C32.2776 45.6357 32.3239 45.7817 32.4164 45.8941C32.5096 46.0071 32.6305 46.0626 32.7818 46.0626V46.0659Z" fill="white"/>
<path d="M34.0076 44.6773L34.6836 44.6753C34.8673 44.674 35.0041 44.715 35.0946 44.7976C35.1851 44.8808 35.2301 44.9965 35.2301 45.1465C35.2301 45.3751 35.1204 45.5212 34.901 45.5859L35.2816 46.2355H35.0107L34.6644 45.6177H34.2408V46.2355H34.0082V44.6766L34.0076 44.6773ZM34.6657 45.4254C34.8858 45.4254 34.9948 45.3328 34.9948 45.1452C34.9948 44.9575 34.8851 44.863 34.6657 44.863H34.2428L34.2402 45.4247H34.6657V45.4254Z" fill="white"/>
<path d="M27.938 30.9971H29.2643V31.236H28.7323V32.5215H28.4845V31.236H27.938V30.9971ZM30.9868 30.9971V32.5215H30.7503V31.4976L30.3647 32.5155H30.0944L29.7002 31.4749V32.5215H29.4697V30.9971H29.7314L30.2382 32.2712L30.7225 30.9971H30.9868Z" fill="white"/>
<path d="M12.0837 9.49072H11.1235V11.7375H12.0837V9.49072Z" fill="url(#paint0_linear_79_10857)"/>
<path d="M13.1187 8.4375H12.1948V12.7903H13.1187V8.4375Z" fill="url(#paint1_linear_79_10857)"/>
<path d="M14.1535 7.38525H13.266V13.8441H14.1535V7.38525Z" fill="url(#paint2_linear_79_10857)"/>
<path d="M15.1869 6.33154H14.3391V14.8964H15.1869V6.33154Z" fill="url(#paint3_linear_79_10857)"/>
<path d="M16.2197 5.27881H15.4115V15.9497H16.2197V5.27881Z" fill="url(#paint4_linear_79_10857)"/>
<path d="M16.4829 17.0032H16.6349V28.2583H17.1028V17.0032H17.2547V4.22559H16.4829V17.0032Z" fill="url(#paint5_linear_79_10857)"/>
<path d="M17.5541 18.0558H17.6697V29.3109H18.1739V18.0558H18.2896V3.17285H17.5541V18.0558Z" fill="url(#paint6_linear_79_10857)"/>
<path d="M18.6272 19.1093H18.7032V30.3644H19.2464V19.1093H19.3224V2.11963H18.6272V19.1093Z" fill="url(#paint7_linear_79_10857)"/>
<path d="M19.6997 20.1619H19.7367V31.4177H20.3189V20.1619H20.3559V1.06689H19.6997V20.1619Z" fill="url(#paint8_linear_79_10857)"/>
<path d="M20.7709 11.2822V21.2017V32.4832H21.3907V21.2017V11.2822V0H20.7709V11.2822Z" fill="url(#paint9_linear_79_10857)"/>
<path d="M22.4249 1.06689H21.8427V12.322H21.8057V31.4177H22.4619V12.322H22.4249V1.06689Z" fill="url(#paint10_linear_79_10857)"/>
<path d="M23.4584 2.11963H22.9152V13.3754H22.8392V30.3644H23.5344V13.3754H23.4584V2.11963Z" fill="url(#paint11_linear_79_10857)"/>
<path d="M24.4919 3.17285H23.9877V14.4279H23.8721V29.3109H24.6076V14.4279H24.4919V3.17285Z" fill="url(#paint12_linear_79_10857)"/>
<path d="M25.5268 4.22559H25.059V15.4813H24.907V28.2583H25.6788V15.4813H25.5268V4.22559Z" fill="url(#paint13_linear_79_10857)"/>
<path d="M26.5616 5.27881H26.1301V15.9497H26.5616V5.27881Z" fill="url(#paint14_linear_79_10857)"/>
<path d="M27.5951 6.33154H27.2032V14.8964H27.5951V6.33154Z" fill="url(#paint15_linear_79_10857)"/>
<path d="M28.628 7.38525H28.2758V13.8441H28.628V7.38525Z" fill="url(#paint16_linear_79_10857)"/>
<path d="M29.6629 8.4375H29.347V12.7903H29.6629V8.4375Z" fill="url(#paint17_linear_79_10857)"/>
<path d="M30.7018 9.49072H30.4143V11.7375H30.7018V9.49072Z" fill="url(#paint18_linear_79_10857)"/>
<path d="M31.038 20.7456H30.0779V22.9924H31.038V20.7456Z" fill="url(#paint19_linear_79_10857)"/>
<path d="M29.9669 19.6929H29.0431V24.0457H29.9669V19.6929Z" fill="url(#paint20_linear_79_10857)"/>
<path d="M28.8955 18.6401H28.0081V25.099H28.8955V18.6401Z" fill="url(#paint21_linear_79_10857)"/>
<path d="M27.8232 17.5874H26.9753V26.1523H27.8232V17.5874Z" fill="url(#paint22_linear_79_10857)"/>
<path d="M26.7501 16.5337H25.9419V27.2046H26.7501V16.5337Z" fill="url(#paint23_linear_79_10857)"/>
<path d="M16.0315 16.5337H15.6V27.2046H16.0315V16.5337Z" fill="url(#paint24_linear_79_10857)"/>
<path d="M14.9583 17.5874H14.5664V26.1523H14.9583V17.5874Z" fill="url(#paint25_linear_79_10857)"/>
<path d="M13.8858 18.6401H13.5336V25.099H13.8858V18.6401Z" fill="url(#paint26_linear_79_10857)"/>
<path d="M12.8147 19.6929H12.4988V24.0457H12.8147V19.6929Z" fill="url(#paint27_linear_79_10857)"/>
<path d="M11.7474 20.7456H11.46V22.9924H11.7474V20.7456Z" fill="url(#paint28_linear_79_10857)"/>
<path d="M2.25207 36.9351C2.13445 36.8168 1.99435 36.7216 1.83509 36.6529C1.51658 36.5148 1.13 36.5148 0.809503 36.6529C0.650907 36.721 0.510812 36.8155 0.392526 36.9337C0.2749 37.052 0.179742 37.1921 0.111678 37.3507C0.0429524 37.51 0.00792951 37.6825 0.00792951 37.8635C0.00792951 38.0558 0.0555082 38.2541 0.148023 38.453C0.238555 38.6479 0.342303 38.8296 0.456625 38.9935C0.569625 39.1574 0.683947 39.3015 0.797608 39.4231C0.908626 39.542 0.985281 39.6226 1.02889 39.6662C1.1115 39.7436 1.19873 39.8374 1.2886 39.9451C1.37781 40.0522 1.46305 40.1652 1.54169 40.2801C1.61835 40.3925 1.68311 40.5035 1.73465 40.6112C1.78355 40.713 1.808 40.8028 1.808 40.8782C1.808 40.9535 1.80536 41.0533 1.80007 41.1835C1.79478 41.309 1.77628 41.4352 1.74324 41.5575C1.71152 41.6751 1.65932 41.7795 1.58927 41.8674C1.52451 41.948 1.43596 41.987 1.31767 41.987C1.19939 41.987 1.11084 41.948 1.04608 41.8674C0.97603 41.7795 0.923825 41.6751 0.892106 41.5575C0.859726 41.4366 0.840562 41.3104 0.835275 41.1835C0.830649 41.0533 0.828006 40.9515 0.828006 40.8782V40.6535H0V40.8788C0 41.0612 0.0350229 41.2344 0.103748 41.3943C0.171812 41.5535 0.26631 41.695 0.384596 41.8132C0.502222 41.9315 0.642315 42.0267 0.801573 42.0954C0.96083 42.1641 1.1333 42.1992 1.31437 42.1992C1.49543 42.1992 1.66725 42.1641 1.82716 42.0954C1.9851 42.0273 2.12585 41.9335 2.24414 41.8146C2.36111 41.6969 2.45626 41.5568 2.52499 41.3976C2.59372 41.2383 2.62874 41.0659 2.62874 40.8848C2.62874 40.6925 2.58182 40.4942 2.48931 40.2953C2.39943 40.1017 2.29635 39.92 2.18202 39.7535C2.06704 39.5876 1.95272 39.4435 1.84236 39.3246C1.73135 39.2056 1.65535 39.125 1.61174 39.0814C1.5298 39.0041 1.44257 38.9103 1.35336 38.8025C1.26415 38.6955 1.17956 38.5825 1.10159 38.4675C1.02493 38.3545 0.96017 38.2428 0.909287 38.1358C0.861047 38.0334 0.836596 37.9435 0.836596 37.8688C0.836596 37.7941 0.83924 37.6937 0.844527 37.5628C0.849813 37.4373 0.868316 37.3117 0.901357 37.1895C0.933737 37.0712 0.985281 36.9668 1.05533 36.8796C1.12009 36.7989 1.20864 36.76 1.32692 36.76C1.44521 36.76 1.53376 36.7989 1.59852 36.8796C1.66857 36.9674 1.72077 37.0719 1.75249 37.1895C1.78487 37.3104 1.80404 37.436 1.80932 37.5628C1.81395 37.6937 1.81725 37.7955 1.81725 37.8688V38.0935H2.63733V37.8681C2.63733 37.6858 2.6023 37.5126 2.53358 37.3527C2.46485 37.1928 2.37036 37.052 2.25273 36.9337L2.25207 36.9351Z" fill="white"/>
<path d="M4.28016 36.5327H3.46008V42.1834H4.28016V36.5327Z" fill="white"/>
<path d="M7.77386 36.5327L6.86524 38.765L5.9652 36.5697L5.95 36.5327H5.10217V42.1834H5.2991V37.1103L6.52624 40.1084L7.7547 37.1103V42.1834H8.57412V36.5327H7.77386Z" fill="white"/>
<path d="M11.6376 36.9411C11.52 36.8234 11.3799 36.7289 11.2207 36.6602C10.9022 36.5228 10.5136 36.5228 10.1951 36.6602C10.0365 36.7283 9.89573 36.8234 9.77876 36.9411C9.66114 37.0587 9.56598 37.1988 9.49791 37.358C9.42919 37.5173 9.39417 37.6898 9.39417 37.8708V40.8696C9.39417 41.0507 9.42919 41.2232 9.49791 41.3824C9.56598 41.541 9.66114 41.6818 9.77876 41.7987C9.89573 41.9164 10.0365 42.0115 10.1957 42.0803C10.355 42.149 10.5275 42.184 10.7085 42.184C10.8896 42.184 11.0614 42.149 11.2213 42.0803C11.3806 42.0115 11.5207 41.917 11.6376 41.7994C11.7553 41.6818 11.8504 41.5417 11.9185 41.3824C11.9872 41.2238 12.0222 41.0514 12.0222 40.8696V37.8708C12.0222 37.6898 11.9872 37.5173 11.9185 37.358C11.8504 37.1994 11.7553 37.0587 11.6376 36.9411ZM11.2022 40.8696C11.2022 40.943 11.1989 41.0448 11.1942 41.1756C11.189 41.3018 11.1698 41.4274 11.1367 41.549C11.1044 41.6666 11.0528 41.771 10.9815 41.8589C10.916 41.9395 10.8262 41.9792 10.7072 41.9792C10.5883 41.9792 10.4984 41.9402 10.4336 41.8589C10.3629 41.771 10.3101 41.6666 10.2783 41.549C10.2453 41.4267 10.2261 41.3011 10.2209 41.1756C10.2162 41.0448 10.2136 40.943 10.2136 40.8696V37.8708C10.2136 37.7975 10.2162 37.6957 10.2209 37.5649C10.2261 37.4387 10.2453 37.3131 10.2783 37.1915C10.3107 37.0739 10.3629 36.9695 10.4336 36.8816C10.4984 36.801 10.5876 36.762 10.7072 36.762C10.8268 36.762 10.9167 36.801 10.9815 36.8816C11.0522 36.9695 11.1044 37.0739 11.1367 37.1915C11.1698 37.3138 11.189 37.4393 11.1942 37.5649C11.1989 37.6957 11.2022 37.7975 11.2022 37.8708V40.8696Z" fill="white"/>
<path d="M15.3865 40.1851L13.7067 36.5671L13.6909 36.5327H12.8444V42.1834H13.0413V37.0786L15.3925 42.149L15.4077 42.1834H15.5828V36.5327H15.3865V40.1851Z" fill="white"/>
<path d="M18.3808 36.5327H17.7359L16.4222 42.1107L16.4056 42.1827H16.6052L17.0546 40.273H18.4059L18.856 42.1827H19.7025L18.4773 36.9404L18.3802 36.5327H18.3808ZM17.0982 40.0767L17.7273 37.3924L18.363 40.0767H17.0982Z" fill="white"/>
<path d="M23.2193 39.256H22.1686V36.5327H21.3485V42.1834H22.1686V39.4601H23.2193V42.1834H24.0387V36.5327H23.2193V39.256Z" fill="white"/>
<path d="M24.8621 42.1752H26.787V41.9783H25.6821V39.3575H26.4163V39.1606H25.6821V36.7446H26.787V36.5483H24.8621V42.1752Z" fill="white"/>
<path d="M28.4298 36.5327H27.6097V42.1834H28.4298V36.5327Z" fill="white"/>
<path d="M31.49 36.9328C31.3724 36.8151 31.233 36.72 31.0744 36.6519C30.7565 36.5145 30.3693 36.5145 30.0521 36.6519C29.8935 36.72 29.7534 36.8151 29.6364 36.9328C29.5195 37.0504 29.425 37.1905 29.3569 37.3497C29.2882 37.509 29.2532 37.6815 29.2532 37.8625V40.8613C29.2532 41.0424 29.2882 41.2149 29.3569 41.3741C29.425 41.5327 29.5195 41.6735 29.6364 41.7911C29.7534 41.9087 29.8935 42.0032 30.0521 42.072C30.2107 42.1407 30.3825 42.1757 30.5629 42.1757C30.7433 42.1757 30.9151 42.1407 31.0737 42.072C31.2323 42.0032 31.3718 41.9087 31.4894 41.7911C31.6064 41.6735 31.7002 41.5334 31.7689 41.3741C31.8376 41.2149 31.8727 41.0431 31.8727 40.8613V39.3111H30.7446V39.5073H31.0526V40.8534C31.0526 40.9268 31.0499 41.0285 31.0447 41.1587C31.0394 41.2836 31.0209 41.4098 30.9878 41.5321C30.9561 41.6497 30.9039 41.7541 30.8339 41.8427C30.7691 41.9233 30.6805 41.9623 30.5623 41.9623C30.444 41.9623 30.3554 41.9233 30.2907 41.8427C30.2206 41.7548 30.1684 41.6504 30.1367 41.5321C30.1043 41.4111 30.0851 41.2849 30.0799 41.1587C30.0752 41.0285 30.0726 40.9268 30.0726 40.8534V37.8539C30.0726 37.7806 30.0752 37.6788 30.0799 37.5486C30.0851 37.4211 30.1043 37.2956 30.1367 37.1753C30.1684 37.0577 30.2206 36.9533 30.2907 36.8647C30.3554 36.7841 30.4446 36.7451 30.5623 36.7451C30.6799 36.7451 30.7691 36.7841 30.8339 36.8647C30.9039 36.9526 30.9561 37.057 30.9878 37.1753C31.0209 37.2975 31.04 37.4231 31.0447 37.5486C31.0499 37.6795 31.0526 37.7806 31.0526 37.8539V38.0773L31.8727 38.0866V37.8619C31.8727 37.6808 31.8376 37.509 31.7689 37.3491C31.7008 37.1905 31.607 37.0497 31.4894 36.9328H31.49Z" fill="white"/>
<path d="M34.5662 39.256H33.5155V36.5327H32.6954V42.1834H33.5155V39.4601H34.5662V42.1834H35.3863V36.5327H34.5662V39.256Z" fill="white"/>
<path d="M36.209 36.7446H37.0456V42.1831H37.8657V36.7446H38.7023V36.5483H36.209V36.7446Z" fill="white"/>
<path d="M42.1604 38.0946V37.8693C42.1604 37.6869 42.1254 37.5138 42.0567 37.3545C41.9886 37.1946 41.8941 37.0532 41.7758 36.9356C41.6582 36.8166 41.5181 36.7221 41.3588 36.6534C41.0397 36.5153 40.6518 36.5153 40.3333 36.6534C40.1747 36.7215 40.0339 36.8166 39.9169 36.9342C39.7993 37.0519 39.7042 37.192 39.6361 37.3512C39.5674 37.5105 39.5323 37.6829 39.5323 37.864C39.5323 38.0563 39.5799 38.2546 39.6724 38.4528C39.763 38.6477 39.8667 38.8295 39.981 38.994C40.0947 39.1579 40.209 39.3026 40.322 39.4229C40.433 39.5418 40.5097 39.6231 40.5533 39.6667C40.6353 39.744 40.7225 39.8379 40.813 39.9456C40.9042 40.0553 40.9895 40.1683 41.0661 40.2813C41.1428 40.3936 41.2075 40.5046 41.2591 40.6124C41.308 40.7141 41.3324 40.804 41.3324 40.8793C41.3324 40.9547 41.3298 41.0544 41.3245 41.1846C41.3192 41.3095 41.3007 41.4357 41.2677 41.558C41.2359 41.6756 41.1837 41.78 41.1137 41.8686C41.0489 41.9492 40.9604 41.9882 40.8421 41.9882C40.7238 41.9882 40.6353 41.9492 40.5705 41.8686C40.5004 41.7807 40.4482 41.6763 40.4165 41.558C40.3841 41.4371 40.365 41.3108 40.3597 41.1846C40.3551 41.0544 40.3524 40.9527 40.3524 40.8793V40.6546H39.5244V40.88C39.5244 41.0617 39.5594 41.2348 39.6282 41.3948C39.6962 41.5547 39.7907 41.6961 39.909 41.8137C40.028 41.9327 40.1681 42.0278 40.326 42.0959C40.4846 42.1653 40.6571 42.2003 40.8388 42.2003C41.0205 42.2003 41.1917 42.1653 41.3516 42.0966C41.5102 42.0278 41.6503 41.9333 41.7686 41.8157C41.8862 41.6981 41.9807 41.558 42.0494 41.3987C42.1181 41.2395 42.1532 41.0677 42.1532 40.8859C42.1532 40.6936 42.1062 40.4954 42.0137 40.2971C41.9239 40.1035 41.8208 39.9218 41.7064 39.7553C41.5915 39.5894 41.4771 39.4453 41.3668 39.3264C41.2558 39.2075 41.1798 39.1268 41.1362 39.0826C41.0555 39.0072 40.969 38.9134 40.8778 38.8037C40.7872 38.6947 40.7027 38.5817 40.626 38.4687C40.5493 38.3557 40.4846 38.244 40.4337 38.1369C40.3855 38.0345 40.361 37.9446 40.361 37.87C40.361 37.7953 40.3637 37.6948 40.3689 37.564C40.3742 37.4384 40.3927 37.3129 40.4258 37.1906C40.4575 37.073 40.5097 36.9679 40.5797 36.88C40.6445 36.7994 40.7331 36.7604 40.8513 36.7604C40.9696 36.7604 41.0582 36.7994 41.1229 36.88C41.193 36.9686 41.2452 37.073 41.2769 37.1906C41.3093 37.3116 41.3285 37.4371 41.3337 37.564C41.3384 37.6948 41.3417 37.7966 41.3417 37.87V38.0946H42.1617H42.1604Z" fill="white"/>
<defs>
<linearGradient id="paint0_linear_79_10857" x1="12.4055" y1="9.81254" x2="10.8017" y2="11.4157" gradientUnits="userSpaceOnUse">
<stop stop-color="#DCBD8D"/>
<stop offset="0.58" stop-color="#AC854F"/>
</linearGradient>
<linearGradient id="paint1_linear_79_10857" x1="13.9757" y1="9.29524" x2="11.3377" y2="11.9332" gradientUnits="userSpaceOnUse">
<stop stop-color="#DCBD8D"/>
<stop offset="0.58" stop-color="#AC854F"/>
</linearGradient>
<linearGradient id="paint2_linear_79_10857" x1="15.5465" y1="8.77826" x2="11.873" y2="12.4511" gradientUnits="userSpaceOnUse">
<stop stop-color="#DCBD8D"/>
<stop offset="0.58" stop-color="#AC854F"/>
</linearGradient>
<linearGradient id="paint3_linear_79_10857" x1="17.1159" y1="8.26113" x2="12.4095" y2="12.9675" gradientUnits="userSpaceOnUse">
<stop stop-color="#DCBD8D"/>
<stop offset="0.58" stop-color="#AC854F"/>
</linearGradient>
<linearGradient id="paint4_linear_79_10857" x1="18.6852" y1="7.74433" x2="12.946" y2="13.4842" gradientUnits="userSpaceOnUse">
<stop stop-color="#DCBD8D"/>
<stop offset="0.58" stop-color="#AC854F"/>
</linearGradient>
<linearGradient id="paint5_linear_79_10857" x1="23.0316" y1="10.0031" x2="10.7054" y2="22.3294" gradientUnits="userSpaceOnUse">
<stop stop-color="#DCBD8D"/>
<stop offset="0.58" stop-color="#AC854F"/>
</linearGradient>
<linearGradient id="paint6_linear_79_10857" x1="24.6116" y1="9.49425" x2="11.232" y2="22.8739" gradientUnits="userSpaceOnUse">
<stop stop-color="#DCBD8D"/>
<stop offset="0.58" stop-color="#AC854F"/>
</linearGradient>
<linearGradient id="paint7_linear_79_10857" x1="26.1909" y1="8.98818" x2="11.7587" y2="23.4205" gradientUnits="userSpaceOnUse">
<stop stop-color="#DCBD8D"/>
<stop offset="0.58" stop-color="#AC854F"/>
</linearGradient>
<linearGradient id="paint8_linear_79_10857" x1="27.7703" y1="8.48129" x2="12.2854" y2="23.9657" gradientUnits="userSpaceOnUse">
<stop stop-color="#DCBD8D"/>
<stop offset="0.58" stop-color="#AC854F"/>
</linearGradient>
<linearGradient id="paint9_linear_79_10857" x1="29.3562" y1="7.96617" x2="12.8054" y2="24.5171" gradientUnits="userSpaceOnUse">
<stop stop-color="#DCBD8D"/>
<stop offset="0.58" stop-color="#AC854F"/>
</linearGradient>
<linearGradient id="paint10_linear_79_10857" x1="29.8763" y1="8.51829" x2="14.3913" y2="24.0033" gradientUnits="userSpaceOnUse">
<stop stop-color="#DCBD8D"/>
<stop offset="0.58" stop-color="#AC854F"/>
</linearGradient>
<linearGradient id="paint11_linear_79_10857" x1="30.403" y1="9.06418" x2="15.9707" y2="23.4958" gradientUnits="userSpaceOnUse">
<stop stop-color="#DCBD8D"/>
<stop offset="0.58" stop-color="#AC854F"/>
</linearGradient>
<linearGradient id="paint12_linear_79_10857" x1="30.9296" y1="9.61055" x2="17.55" y2="22.9895" gradientUnits="userSpaceOnUse">
<stop stop-color="#DCBD8D"/>
<stop offset="0.58" stop-color="#AC854F"/>
</linearGradient>
<linearGradient id="paint13_linear_79_10857" x1="31.4557" y1="10.1551" x2="19.1301" y2="22.4807" gradientUnits="userSpaceOnUse">
<stop stop-color="#DCBD8D"/>
<stop offset="0.58" stop-color="#AC854F"/>
</linearGradient>
<linearGradient id="paint14_linear_79_10857" x1="29.1217" y1="7.83882" x2="23.5701" y2="13.3897" gradientUnits="userSpaceOnUse">
<stop stop-color="#DCBD8D"/>
<stop offset="0.58" stop-color="#AC854F"/>
</linearGradient>
<linearGradient id="paint15_linear_79_10857" x1="29.6384" y1="8.37546" x2="25.16" y2="12.8538" gradientUnits="userSpaceOnUse">
<stop stop-color="#DCBD8D"/>
<stop offset="0.58" stop-color="#AC854F"/>
</linearGradient>
<linearGradient id="paint16_linear_79_10857" x1="30.1545" y1="8.91175" x2="26.7493" y2="12.3176" gradientUnits="userSpaceOnUse">
<stop stop-color="#DCBD8D"/>
<stop offset="0.58" stop-color="#AC854F"/>
</linearGradient>
<linearGradient id="paint17_linear_79_10857" x1="30.672" y1="9.44723" x2="28.338" y2="11.7812" gradientUnits="userSpaceOnUse">
<stop stop-color="#DCBD8D"/>
<stop offset="0.58" stop-color="#AC854F"/>
</linearGradient>
<linearGradient id="paint18_linear_79_10857" x1="31.1914" y1="9.98039" x2="29.9246" y2="11.2479" gradientUnits="userSpaceOnUse">
<stop stop-color="#DCBD8D"/>
<stop offset="0.58" stop-color="#AC854F"/>
</linearGradient>
<linearGradient id="paint19_linear_79_10857" x1="31.3599" y1="21.0674" x2="29.7561" y2="22.6706" gradientUnits="userSpaceOnUse">
<stop stop-color="#DCBD8D"/>
<stop offset="0.58" stop-color="#AC854F"/>
</linearGradient>
<linearGradient id="paint20_linear_79_10857" x1="30.824" y1="20.55" x2="28.186" y2="23.1886" gradientUnits="userSpaceOnUse">
<stop stop-color="#DCBD8D"/>
<stop offset="0.58" stop-color="#AC854F"/>
</linearGradient>
<linearGradient id="paint21_linear_79_10857" x1="30.2885" y1="20.0331" x2="26.615" y2="23.706" gradientUnits="userSpaceOnUse">
<stop stop-color="#DCBD8D"/>
<stop offset="0.58" stop-color="#AC854F"/>
</linearGradient>
<linearGradient id="paint22_linear_79_10857" x1="29.7521" y1="19.5163" x2="25.0458" y2="24.2227" gradientUnits="userSpaceOnUse">
<stop stop-color="#DCBD8D"/>
<stop offset="0.58" stop-color="#AC854F"/>
</linearGradient>
<linearGradient id="paint23_linear_79_10857" x1="29.2156" y1="18.9992" x2="23.4764" y2="24.7391" gradientUnits="userSpaceOnUse">
<stop stop-color="#DCBD8D"/>
<stop offset="0.58" stop-color="#AC854F"/>
</linearGradient>
<linearGradient id="paint24_linear_79_10857" x1="18.5915" y1="19.0937" x2="13.04" y2="24.6452" gradientUnits="userSpaceOnUse">
<stop stop-color="#DCBD8D"/>
<stop offset="0.58" stop-color="#AC854F"/>
</linearGradient>
<linearGradient id="paint25_linear_79_10857" x1="17.0015" y1="19.6307" x2="12.5232" y2="24.109" gradientUnits="userSpaceOnUse">
<stop stop-color="#DCBD8D"/>
<stop offset="0.58" stop-color="#AC854F"/>
</linearGradient>
<linearGradient id="paint26_linear_79_10857" x1="15.4123" y1="20.1666" x2="12.0071" y2="23.5725" gradientUnits="userSpaceOnUse">
<stop stop-color="#DCBD8D"/>
<stop offset="0.58" stop-color="#AC854F"/>
</linearGradient>
<linearGradient id="paint27_linear_79_10857" x1="13.8237" y1="20.7019" x2="11.4897" y2="23.0366" gradientUnits="userSpaceOnUse">
<stop stop-color="#DCBD8D"/>
<stop offset="0.58" stop-color="#AC854F"/>
</linearGradient>
<linearGradient id="paint28_linear_79_10857" x1="12.2371" y1="21.2353" x2="10.9696" y2="22.5027" gradientUnits="userSpaceOnUse">
<stop stop-color="#DCBD8D"/>
<stop offset="0.58" stop-color="#AC854F"/>
</linearGradient>
</defs>
</svg>
