<svg width="53" height="54" viewBox="0 0 53 54" fill="none" xmlns="http://www.w3.org/2000/svg">
<g clip-path="url(#clip0_79_10855)">
<path d="M3.71185 47.7461H2.20203C2.15187 47.7461 2.11676 47.7809 2.11676 47.8305V47.8851C2.11676 47.9794 2.18197 47.9844 2.19702 47.9844H2.76383C2.76383 47.9844 2.78389 48.0787 2.79894 48.2624C2.79894 48.3319 2.80395 48.451 2.80395 48.6198V49.0964C2.80395 49.0964 2.80395 49.1013 2.80395 49.1113C2.60331 49.2453 2.39264 49.3148 2.17695 49.3148C1.93117 49.3148 1.73554 49.2949 1.59008 49.2552C1.37439 49.1957 1.17876 49.0815 1.00822 48.9127C0.707258 48.6148 0.556778 48.2078 0.556778 47.6965C0.556778 47.2298 0.697226 46.8426 0.978123 46.5448C1.15368 46.3611 1.33928 46.232 1.53992 46.1625C1.6904 46.1129 1.88602 46.0831 2.11174 46.0831C2.53309 46.0831 2.8491 46.1476 3.04974 46.2817C3.11495 46.3263 3.16009 46.376 3.17514 46.4355C3.18517 46.4753 3.19019 46.51 3.19019 46.5497C3.19019 46.5845 3.21025 46.6192 3.27546 46.6192C3.29051 46.6192 3.33565 46.6192 3.3507 46.5547C3.36073 46.5199 3.37076 46.4107 3.39083 46.2271L3.41089 46.088C3.42092 46.0136 3.42594 45.9689 3.42594 45.959C3.42594 45.9391 3.42092 45.8994 3.36073 45.8796C3.16511 45.8101 2.86415 45.7753 2.46286 45.7753C2.06158 45.7753 1.75561 45.815 1.50982 45.8895C1.05838 46.0285 0.71729 46.237 0.496586 46.505C0.185593 46.8823 0.0300961 47.3192 0.0300961 47.7957C0.0300961 48.2723 0.130416 48.6595 0.321025 48.9326C0.496586 49.1808 0.737354 49.3644 1.04333 49.4836C1.21388 49.5481 1.48976 49.5779 1.89104 49.5779C2.24718 49.5779 2.58325 49.5084 2.89926 49.3644C3.14504 49.2503 3.24536 49.2304 3.29051 49.2254C3.33565 49.2155 3.36073 49.1857 3.36073 49.1361C3.34568 48.9475 3.34067 48.7439 3.34067 48.5205C3.34067 48.3964 3.34067 48.2723 3.34568 48.1432C3.34568 48.0589 3.34568 48.0042 3.3507 47.9844H3.7269C3.77204 47.9844 3.80716 47.9496 3.80716 47.905V47.8305C3.80716 47.7809 3.77204 47.7511 3.72188 47.7511L3.71185 47.7461ZM48.1187 42.9209C48.4698 43.2286 49.0767 43.3875 49.9194 43.3875C50.6417 43.3875 51.2035 43.1989 51.5847 42.8216C51.9459 42.4642 52.1264 41.9975 52.1264 41.4415C52.1264 40.96 51.991 40.5629 51.7302 40.27C51.5546 40.0764 51.3389 39.9076 51.0881 39.7735C51.0079 39.7289 50.7621 39.6197 50.3307 39.431C50.115 39.3417 49.8993 39.2573 49.6887 39.1729C49.4429 39.0637 49.2723 38.9644 49.1921 38.875C49.0165 38.6864 48.9312 38.4679 48.9312 38.2148C48.9312 37.7978 49.0266 37.5049 49.2071 37.346C49.3827 37.1921 49.6636 37.1127 50.0348 37.1127C50.4561 37.1127 50.8323 37.207 51.1584 37.3907C51.3239 37.485 51.4292 37.629 51.4744 37.8375C51.4994 37.9914 51.5245 38.1155 51.5446 38.2148C51.5697 38.3041 51.6248 38.319 51.6549 38.319H51.8907C51.981 38.319 51.981 38.1999 51.981 38.1552C51.981 37.7382 51.9609 37.4006 51.9258 37.1475C51.9158 37.073 51.8807 37.0134 51.8255 36.9787C51.7252 36.8893 51.5697 36.8049 51.354 36.7205C51.0279 36.5964 50.6718 36.5319 50.2906 36.5319C49.7137 36.5319 49.2422 36.6858 48.8861 36.9886C48.4196 37.3808 48.1788 37.8673 48.1788 38.4431C48.1788 39.0488 48.3544 39.5055 48.7005 39.7934C48.9563 40.0118 49.3877 40.2253 49.9846 40.4387C50.4962 40.6224 50.8624 40.816 51.0631 41.0245C51.2436 41.2082 51.3289 41.4167 51.3289 41.6699C51.3289 41.9578 51.2787 42.206 51.1885 42.3947C50.9778 42.8117 50.5615 43.0102 49.9244 43.0102C49.7589 43.0102 49.5733 42.9755 49.3676 42.906C49.162 42.8365 49.0015 42.7521 48.8961 42.6528C48.6654 42.4443 48.54 42.1663 48.5199 41.8337C48.5049 41.6649 48.4949 41.5656 48.4898 41.521C48.4798 41.4465 48.4296 41.4068 48.3594 41.4068H48.1588C48.0785 41.4068 48.0284 41.4564 48.0284 41.5309C48.0284 41.5557 48.0384 42.6578 48.0384 42.6826C48.0384 42.8017 48.0635 42.8812 48.1187 42.9308V42.9209ZM0.1254 36.939H0.295945C0.366169 36.939 0.446425 36.9886 0.521666 37.0829C0.69221 37.3361 0.932979 37.8375 1.24899 38.5772C1.42956 39.009 1.61014 39.4409 1.79573 39.8778C2.05155 40.4437 2.52306 41.5756 3.19019 43.2336C3.23031 43.3279 3.28549 43.4371 3.3808 43.4371C3.45102 43.4371 3.5062 43.3627 3.59147 43.1691C4.15326 41.799 4.61975 40.6671 4.98592 39.7735C5.40225 38.7509 5.78347 37.8176 6.11954 36.9886C6.1396 36.9588 6.1697 36.9439 6.20481 36.9439H6.52082C6.56095 36.9439 6.61111 36.9141 6.61111 36.8347V36.661C6.61111 36.6113 6.576 36.5617 6.50076 36.5617H4.81036C4.7602 36.5617 4.71004 36.5964 4.71004 36.6709V36.8347C4.71004 36.8893 4.74515 36.9439 4.84046 36.9439H5.39222C5.42733 36.9439 5.48251 36.9439 5.48251 37.073C5.48251 37.2319 5.44238 37.4404 5.36714 37.6836C5.33704 37.763 5.22669 38.0758 5.04611 38.5573C4.81538 39.1778 4.74515 39.3516 4.7301 39.3863C4.56458 39.8083 4.40406 40.2352 4.23853 40.6522C3.92253 41.4614 3.73192 41.9231 3.67172 42.0223C3.67172 42.0273 3.66169 42.0372 3.66169 42.0422C3.65668 42.0323 3.64664 42.0124 3.63661 41.9926C3.58144 41.8833 3.25038 41.0593 2.64344 39.5402L1.67535 37.217C1.64024 37.1276 1.62519 37.0581 1.62519 37.0085C1.62519 36.9588 1.64024 36.9489 1.68538 36.9489H2.29232C2.33746 36.9489 2.39264 36.9191 2.39264 36.8298V36.6659C2.39264 36.6213 2.36254 36.5666 2.27226 36.5666H0.110352C0.0401281 36.5666 0 36.6113 0 36.6759V36.8397C0 36.8645 0.00501602 36.8893 0.0200641 36.9092C0.0501602 36.9539 0.105336 36.9539 0.1254 36.9539V36.939ZM7.43875 45.8845C7.22808 45.7902 6.9221 45.7406 6.52584 45.7406C6.26501 45.7406 6.02424 45.7803 5.80855 45.8647C5.50759 45.9838 5.27183 46.1327 5.10631 46.3164C4.94579 46.4951 4.82039 46.7235 4.74014 46.9866C4.66991 47.21 4.63982 47.4433 4.63982 47.6915C4.63982 48.0489 4.67493 48.3468 4.75017 48.5652C4.81036 48.7538 4.91068 48.9276 5.05113 49.0815C5.16148 49.2106 5.30695 49.3148 5.46746 49.3992C5.69318 49.5134 6.02925 49.568 6.47066 49.568C6.74654 49.568 6.97728 49.5332 7.15284 49.4687C7.36853 49.3893 7.54911 49.2949 7.68454 49.1907C7.74975 49.1361 7.83 49.0567 7.93032 48.9375C8.21122 48.6099 8.35668 48.1532 8.35668 47.5724C8.35668 47.061 8.2363 46.6391 8.00055 46.3214C7.86511 46.1377 7.67451 45.9888 7.43875 45.8845ZM7.67451 48.6198C7.55914 48.873 7.41869 49.0517 7.25818 49.1559C7.05252 49.29 6.82178 49.3595 6.58101 49.3595C6.36533 49.3595 6.15967 49.3148 5.97408 49.2304C5.73832 49.1212 5.56276 48.9772 5.44739 48.7985C5.25177 48.5007 5.15145 48.0837 5.15145 47.5575C5.15145 47.2 5.20663 46.8972 5.31698 46.654C5.39723 46.4703 5.54771 46.3015 5.7634 46.1476C5.87877 46.0632 6.06938 46.0235 6.34025 46.0235C6.5459 46.0235 6.75658 46.0682 6.96725 46.1526C7.14782 46.2271 7.30332 46.3363 7.42872 46.4852C7.56917 46.644 7.67451 46.8377 7.73971 47.0561C7.79991 47.2447 7.83 47.4681 7.83 47.7213C7.83 48.0837 7.77483 48.3865 7.67451 48.6198ZM42.1747 43.3379H46.8546C46.9198 43.3379 46.97 43.3081 47.0151 43.2485C47.1455 43.0053 47.2559 42.7918 47.3512 42.5982C47.3662 42.5535 47.3612 42.5188 47.3412 42.489C47.3311 42.4741 47.3061 42.4542 47.2609 42.4542H47.2308C47.2057 42.4741 47.1305 42.5138 47.0101 42.5833C46.5135 42.8117 45.4852 42.9308 43.9604 42.9308C43.9303 42.9308 43.7647 42.8762 43.7647 41.8188V39.9721V39.9473C43.7848 39.9473 44.9636 39.9671 44.9636 39.9671C45.726 39.982 46.1524 39.987 46.1825 39.987C46.1925 39.987 46.2075 39.987 46.2126 40.0267C46.2326 40.3146 46.2477 40.5629 46.2627 40.7763C46.2778 40.8905 46.358 40.8955 46.3831 40.8955H46.4634C46.4985 40.8955 46.5787 40.8806 46.5787 40.7267C46.5787 40.7068 46.5787 40.548 46.5687 40.2551C46.5637 39.9622 46.5587 39.7934 46.5587 39.7438C46.5587 39.6941 46.5637 39.5402 46.5787 39.2821C46.5938 38.9544 46.5988 38.88 46.5988 38.8701C46.5988 38.7658 46.5336 38.7261 46.4784 38.7261H46.4032C46.3731 38.7261 46.2828 38.736 46.2828 38.8701C46.2778 38.8949 46.2627 39.0289 46.2477 39.1381C46.2276 39.297 46.2176 39.4012 46.2076 39.4509C46.2076 39.4707 46.2025 39.4707 46.1875 39.4707H43.7698C43.7698 39.4707 43.7497 39.4707 43.7497 39.436C43.7497 37.5297 43.7597 37.073 43.7698 37.0283C43.7748 37.0085 43.7798 37.0085 43.7898 37.0085C44.9786 37.0234 45.7661 37.0631 46.1273 37.1226C46.3781 37.1673 46.5637 37.2467 46.674 37.356L46.7643 37.4503H46.7894C46.8646 37.4503 46.8998 37.3659 46.9299 37.2914C47.0001 37.0581 47.0553 36.8446 47.1004 36.6709C47.1154 36.6262 47.1004 36.6014 47.0904 36.5815C47.0703 36.5567 47.0402 36.5418 46.9951 36.5418H46.9299C46.9299 36.5418 46.8797 36.5518 46.8446 36.5518C46.7443 36.5567 46.669 36.5617 46.6088 36.5617H42.1797C42.0894 36.5617 42.0593 36.6213 42.0593 36.6709V36.8347C42.0593 36.8992 42.1044 36.9439 42.1697 36.9439H42.7666C42.7666 36.9439 42.897 36.9539 42.897 37.8772C42.897 37.9169 42.907 39.8778 42.907 39.9076C42.907 39.9374 42.9271 42.8911 42.9271 42.9209C42.9271 42.9606 42.917 42.9606 42.892 42.9606H42.1596C42.1095 42.9606 42.0593 42.9953 42.0593 43.0698V43.2237C42.0593 43.313 42.1195 43.3428 42.1697 43.3428L42.1747 43.3379ZM30.5776 36.7603C30.1964 36.5915 29.6447 36.5071 28.9324 36.5071C28.4609 36.5071 28.0295 36.5815 27.6433 36.7305C27.0965 36.9439 26.6752 37.217 26.3842 37.5396C26.0933 37.8623 25.8726 38.2694 25.7221 38.741C25.5967 39.1381 25.5365 39.565 25.5365 40.0118C25.5365 40.6621 25.6017 41.1933 25.7322 41.5905C25.8375 41.928 26.0181 42.2408 26.2689 42.5188C26.4695 42.7471 26.7253 42.9407 27.0213 43.0847C27.4276 43.2882 28.0345 43.3875 28.8321 43.3875C29.3337 43.3875 29.745 43.3279 30.061 43.2138C30.4522 43.0698 30.7733 42.901 31.019 42.7074C31.1394 42.6131 31.2849 42.4642 31.4605 42.2557C31.9671 41.6649 32.2279 40.8409 32.2279 39.7984C32.2279 38.87 32.0122 38.1105 31.5859 37.5396C31.3451 37.207 31.004 36.9439 30.5776 36.7553V36.7603ZM31.0341 41.7046C30.8234 42.1663 30.5676 42.4989 30.2767 42.6875C29.9005 42.9358 29.4841 43.0599 29.0327 43.0599C28.6364 43.0599 28.2653 42.9804 27.9242 42.8265C27.4928 42.628 27.1718 42.3649 26.9561 42.0372C26.5999 41.4912 26.4194 40.7316 26.4194 39.7735C26.4194 39.1282 26.5197 38.5722 26.7203 38.1254C26.8658 37.7928 27.1417 37.4801 27.5429 37.2021C27.7536 37.0531 28.1098 36.9737 28.6013 36.9737C28.9825 36.9737 29.3638 37.0531 29.745 37.207C30.071 37.3411 30.3569 37.5446 30.5927 37.8127C30.8535 38.1056 31.0441 38.4531 31.1645 38.8502C31.2698 39.1927 31.325 39.6048 31.325 40.0664C31.325 40.7316 31.2297 41.2827 31.0391 41.7046H31.0341ZM12.1438 49.0318L12.1337 49.0219H12.1187C12.1187 49.0219 12.0786 49.0269 12.0134 49.0716C11.8478 49.1708 11.6221 49.2354 11.3512 49.2552C11.266 49.2602 10.9249 49.2652 10.343 49.2652C10.343 49.2652 10.2427 49.2602 10.2427 48.6893C10.2427 48.5801 10.2477 48.1184 10.2578 47.3192C10.2728 46.2817 10.2828 46.0334 10.2879 46.0086H10.8346C10.8697 46.0086 10.9048 45.9838 10.9048 45.9342V45.8398C10.9048 45.8051 10.8797 45.7703 10.8296 45.7703H9.35487C9.30973 45.7703 9.27462 45.8001 9.27462 45.8498V45.9292C9.27462 45.9689 9.2997 46.0086 9.35989 46.0086H9.66586C9.66586 46.0086 9.73107 46.0632 9.73107 46.5398C9.73107 46.5745 9.73107 46.9369 9.72104 47.627C9.71602 48.317 9.71101 48.7687 9.72104 48.9673V48.9872C9.72606 49.1758 9.73107 49.2751 9.72606 49.3049H9.31474C9.2696 49.3049 9.2395 49.3347 9.2395 49.3793V49.4687C9.2395 49.5034 9.26458 49.5432 9.31976 49.5432H11.9181C11.9482 49.5432 11.9782 49.5233 12.0033 49.4886C12.0535 49.4042 12.0886 49.3446 12.0986 49.3098C12.1839 49.1659 12.1939 49.1361 12.1939 49.1162C12.1939 49.0964 12.1839 49.0666 12.1488 49.0368L12.1438 49.0318ZM7.12776 36.9489H7.75476C7.75476 36.9489 7.86511 36.9936 7.86511 37.8127L7.87515 42.8762C7.87515 42.9358 7.86511 42.9556 7.86511 42.9556H7.19297C7.19297 42.9556 7.14782 42.9556 7.13278 42.9705C7.08262 42.9953 7.08262 43.0549 7.08262 43.0748V43.2286C7.08262 43.2535 7.08763 43.2783 7.10268 43.2981C7.12776 43.3379 7.17792 43.3428 7.20802 43.3428H9.60567C9.65082 43.3428 9.69596 43.313 9.69596 43.2435V43.0599C9.69596 43.0003 9.65583 42.9606 9.59564 42.9606H8.89841C8.89841 42.9606 8.79308 42.9556 8.76298 42.4145C8.76298 42.345 8.76298 42.072 8.76298 41.5905C8.76298 41.4912 8.76298 39.9622 8.77301 36.9985C8.77301 36.9588 8.78305 36.9588 8.79809 36.9588H9.49532C9.58059 36.9588 9.61069 36.9042 9.61069 36.8595V36.6808C9.61069 36.6213 9.56555 36.5815 9.50535 36.5815H7.1077C7.03246 36.5815 6.99734 36.6312 6.99734 36.6808V36.8496C6.99734 36.9042 7.03246 36.9588 7.12776 36.9588V36.9489ZM24.8845 45.7703H23.6957C23.6505 45.7703 23.6204 45.8001 23.6204 45.8448V45.9342C23.6204 45.9689 23.6455 46.0086 23.7007 46.0086H24.0719C24.0719 46.0086 24.1822 46.0186 24.2223 46.7582C24.2223 46.8079 24.2223 47.1355 24.2274 47.7362C24.2274 48.317 24.2274 48.6347 24.2274 48.6843C23.791 48.1383 23.3646 47.5922 22.9683 47.071C22.9332 47.0263 22.7727 46.8178 22.4868 46.4405C22.1156 45.9491 22.0454 45.8498 22.0404 45.8349C22.0103 45.7803 21.9702 45.7703 21.9401 45.7703H21.0773C21.0322 45.7703 21.0021 45.8001 21.0021 45.8448V45.9342C21.0021 45.9838 21.0372 46.0086 21.0723 46.0086H21.2629C21.3381 46.0086 21.5639 46.0086 21.5639 46.4604C21.5639 46.4753 21.5538 46.788 21.5237 47.6121C21.4986 48.3766 21.4836 48.7985 21.4836 48.9077V49.2999H21.1525C21.0974 49.2999 21.0723 49.3347 21.0723 49.3744V49.4737C21.0723 49.4737 21.0723 49.5382 21.1525 49.5382H22.226C22.2661 49.5382 22.2962 49.5084 22.2962 49.4687V49.3694C22.2962 49.3347 22.2711 49.2999 22.221 49.2999H21.8598C21.8598 49.2999 21.7595 49.29 21.7595 48.6297C21.7595 48.4709 21.7695 48.0737 21.7896 47.4185C21.8096 46.7979 21.8197 46.5547 21.8297 46.4703C22.2059 46.927 22.542 47.349 22.8229 47.7163C23.6355 48.739 24.127 49.3694 24.2926 49.5878C24.3176 49.6226 24.3528 49.6375 24.3929 49.6375C24.4731 49.6375 24.4731 49.5183 24.4731 49.4637C24.4731 49.429 24.4932 47.5823 24.4932 47.5426C24.4932 47.5029 24.5032 46.0483 24.5032 46.0334C24.5032 46.0136 24.5032 46.0086 24.5133 46.0086H24.8945C24.9296 46.0086 24.9697 45.9838 24.9697 45.9292V45.8398C24.9697 45.8051 24.9447 45.7703 24.8895 45.7703H24.8845ZM41.4373 43.2237V43.0599C41.4373 42.9854 41.3872 42.9506 41.337 42.9506H40.7702C40.7401 42.9506 40.5846 42.901 40.5394 41.9181C40.5144 41.4663 40.5043 40.7068 40.5043 39.6643C40.5043 38.2446 40.5144 37.4205 40.5394 37.212C40.5545 37.0382 40.5996 36.934 40.6548 36.934H41.1464C41.1865 36.934 41.2367 36.9042 41.2367 36.8248V36.651C41.2367 36.6014 41.2016 36.5518 41.1263 36.5518H39.8623C39.772 36.5518 39.6968 36.5964 39.6516 36.6808C39.2253 37.6389 38.7989 38.5921 38.3926 39.5154C37.9763 40.4338 37.58 41.3174 37.2088 42.1514C37.2038 42.1464 37.1938 42.1365 37.1888 42.1266C36.5868 40.9054 36.02 39.7239 35.4984 38.6169C35.1422 37.912 34.8112 37.2567 34.5052 36.656C34.4801 36.6113 34.4299 36.5518 34.3246 36.5518H33.0204C32.9602 36.5518 32.9201 36.5915 32.9201 36.651V36.8298C32.9201 36.8893 32.9602 36.929 33.0154 36.929C33.2863 36.9539 33.3916 36.9836 33.4368 37.0085C33.7478 37.1624 33.9033 37.4602 33.9033 37.912C33.9033 38.2694 33.8882 38.7112 33.8631 39.2175C33.8481 39.4757 33.833 39.7289 33.818 39.987C33.7728 41.3373 33.7478 42.2805 33.7478 42.7918C33.7478 42.9506 33.6976 42.9506 33.6775 42.9506H33.1609C33.1057 42.9506 33.0505 42.9854 33.0505 43.0797V43.2336C33.0505 43.2783 33.0806 43.3329 33.1709 43.3329H34.9616C35.0068 43.3329 35.0569 43.3031 35.0569 43.2237V43.0499C35.0569 43.0053 35.0268 42.9506 34.9416 42.9506H34.3597C34.3196 42.9506 34.1842 42.8911 34.1842 42.1514V41.0444C34.1842 40.4487 34.2293 39.4906 34.3196 38.1949C34.3196 38.1949 34.3196 38.1949 34.3196 38.1899C34.3196 38.1899 34.3196 38.1949 34.3246 38.1999C34.8011 39.153 35.1773 39.9274 35.4482 40.5033C35.9347 41.4912 36.4012 42.4493 36.8527 43.3577C36.8727 43.4322 36.9279 43.4769 37.0032 43.4769C37.0633 43.4769 37.1085 43.4173 37.1436 43.3528C37.254 43.0599 37.4044 42.6975 37.595 42.2755C39.16 38.736 39.5463 37.8772 39.5964 37.7779C39.5964 37.7779 39.5964 37.7779 39.5964 37.773C39.5964 37.7829 39.5964 37.7928 39.5964 37.8027C39.6215 38.2346 39.6366 39.1034 39.6366 40.3841V42.8911C39.6366 42.9407 39.6215 42.9506 39.5764 42.9506H39.0447C38.9795 42.9506 38.9343 42.9953 38.9343 43.0599V43.2237C38.9343 43.2783 38.9694 43.3329 39.0647 43.3329H41.327C41.3972 43.3329 41.4373 43.2882 41.4373 43.2237ZM24.8644 42.9556H24.1471C24.1471 42.9556 24.0418 42.8563 24.0117 42.0223C24.0067 41.8138 24.0016 41.0444 24.0016 39.7289V37.068C24.0016 36.9886 24.0067 36.9638 24.0016 36.9588C24.0117 36.9588 24.0418 36.9489 24.127 36.9489H24.7741C24.8493 36.9489 24.8995 36.8993 24.8995 36.8298V36.7007C24.8995 36.6014 24.8343 36.5666 24.7741 36.5666H22.241C22.1457 36.5666 22.1106 36.6262 22.1106 36.6759V36.8298C22.1106 36.9042 22.1557 36.9489 22.221 36.9489H22.9834C22.9834 36.9489 23.1138 36.9588 23.1138 37.8027C23.1138 37.8524 23.1238 39.3913 23.1238 39.4062C23.1238 39.436 23.1238 39.436 23.1038 39.436H19.6277C19.6277 39.436 19.6176 39.426 19.6176 39.4012H19.6126C19.6227 39.3268 19.6227 39.1629 19.6227 38.8105C19.6227 38.4133 19.6227 37.8176 19.6227 37.0234C19.6227 36.9886 19.6227 36.9687 19.6227 36.9588C19.6377 36.9588 19.6628 36.9588 19.7079 36.9588H20.4503C20.5406 36.9588 20.5707 36.8993 20.5707 36.8496V36.7106C20.5707 36.6113 20.5055 36.5766 20.4503 36.5766H17.9272C17.852 36.5766 17.8069 36.6213 17.8069 36.6858V36.8496C17.8069 36.8993 17.837 36.9588 17.9272 36.9588H18.6195C18.6195 36.9588 18.7248 37.0581 18.7248 37.8921C18.7248 37.9368 18.7248 38.2644 18.7348 38.8849C18.7398 39.5055 18.7449 39.8579 18.7449 39.9473C18.7449 40.0366 18.7449 40.4983 18.7549 41.3323C18.7599 42.1663 18.7649 42.6131 18.7649 42.6677C18.7649 42.906 18.7499 42.9507 18.7499 42.9556C18.7499 42.9556 18.7348 42.9705 18.6646 42.9705H18.0476C17.9724 42.9705 17.9272 43.0202 17.9272 43.0897V43.2435C17.9272 43.2932 17.9573 43.3528 18.0476 43.3528H20.6158C20.666 43.3528 20.7162 43.318 20.7162 43.2435V43.0897C20.7162 43.0003 20.661 42.9705 20.6158 42.9705H19.7832C19.7832 42.9705 19.6528 42.9606 19.6227 41.938C19.6176 41.6997 19.6126 41.0642 19.6126 39.992C19.6126 39.9473 19.6227 39.9473 19.6377 39.9473H23.1088C23.1088 39.9473 23.1238 39.9473 23.1289 39.9473C23.1289 39.9473 23.1289 39.9572 23.1289 39.9721C23.1289 41.4316 23.1289 42.3152 23.1188 42.6677C23.1188 42.901 23.1038 42.9507 23.0988 42.9606C23.0988 42.9606 23.0887 42.9705 23.0486 42.9705H22.3313C22.231 42.9705 22.1959 43.0301 22.1959 43.0797V43.2435C22.1959 43.2932 22.231 43.3528 22.3213 43.3528H24.8744C24.9196 43.3528 24.9747 43.323 24.9747 43.2336V43.0897C24.9747 43.0152 24.9246 42.9705 24.8544 42.9705L24.8644 42.9556ZM12.4999 42.9556H11.8428C11.8077 42.9556 11.6422 42.896 11.6422 41.7146C11.6422 41.4167 11.6622 40.677 11.6974 39.5204C11.7475 38.1353 11.7626 37.7829 11.7676 37.7382C12.4698 38.5821 13.0868 39.3615 13.6034 40.0466C15.0731 41.9032 15.971 43.045 16.2669 43.4371C16.3071 43.4918 16.3673 43.5215 16.4325 43.5215C16.5529 43.5215 16.5529 43.3329 16.5529 43.2286C16.5529 43.174 16.5579 42.6131 16.5729 41.4961C16.588 40.3544 16.593 39.8133 16.593 39.7438C16.593 39.6743 16.593 39.2076 16.603 38.3438C16.603 38.3438 16.613 37.0283 16.613 37.0085C16.613 36.939 16.6331 36.939 16.6532 36.939H17.3404C17.3905 36.939 17.4507 36.9092 17.4507 36.8198V36.656C17.4507 36.6113 17.4206 36.5567 17.3303 36.5567H15.1735C15.1032 36.5567 15.0581 36.6014 15.0581 36.6659V36.8298C15.0581 36.8794 15.0932 36.939 15.1835 36.939H15.8606C15.9108 36.939 16.0864 37.0382 16.1566 38.324C16.1566 38.4133 16.1616 39.009 16.1666 40.1012C16.1666 41.1883 16.1666 41.7692 16.1666 41.8287C16.1666 41.8486 16.1666 41.8635 16.1666 41.8784C15.359 40.8706 14.5816 39.8728 13.8492 38.9048C13.784 38.8254 13.4931 38.4431 12.9764 37.763C12.3394 36.9191 12.1839 36.7007 12.1638 36.6659C12.1137 36.5766 12.0485 36.5567 12.0033 36.5567H10.4383C10.3681 36.5567 10.328 36.6014 10.328 36.6659V36.8298C10.328 36.9042 10.3781 36.939 10.4283 36.939H10.7744C11.1556 36.939 11.3412 37.217 11.3412 37.7829C11.3412 37.7978 11.3312 38.0956 11.271 39.8778C11.2208 41.243 11.2008 42.0323 11.2008 42.2259V42.9556C11.2008 42.9556 11.2008 42.9556 11.1857 42.9556H10.5788C10.4835 42.9556 10.4534 43.0152 10.4534 43.0648V43.2435C10.4534 43.2435 10.4634 43.3329 10.5788 43.3329H12.525C12.5852 43.3329 12.6253 43.2932 12.6253 43.2336V43.0499C12.6253 43.0003 12.5902 42.9506 12.515 42.9506L12.4999 42.9556ZM33.502 49.4339C33.813 48.6794 34.0688 48.0539 34.2694 47.5624C34.5002 47.0015 34.7108 46.4852 34.8914 46.0285C34.9014 46.0136 34.9115 46.0086 34.9315 46.0086H35.1071C35.1071 46.0086 35.1723 45.9937 35.1723 45.9342V45.8398C35.1723 45.8051 35.1472 45.7703 35.0971 45.7703H34.1641C34.129 45.7703 34.0939 45.7952 34.0939 45.8448V45.9342C34.0939 45.9689 34.1139 46.0086 34.1791 46.0086H34.4851C34.4851 46.0086 34.5252 46.0086 34.5252 46.0682C34.5252 46.1526 34.5052 46.2668 34.46 46.4008C34.445 46.4455 34.3848 46.6043 34.2845 46.8823C34.144 47.2546 34.1189 47.3241 34.1089 47.339C34.0186 47.5724 33.9283 47.8057 33.8381 48.039C33.6374 48.5553 33.5572 48.729 33.5321 48.7836C33.5321 48.7836 33.5321 48.7787 33.5321 48.7737C33.512 48.734 33.4017 48.4659 32.9853 47.4234L32.4536 46.1427C32.4336 46.098 32.4286 46.0583 32.4286 46.0334C32.4286 46.0136 32.4286 46.0136 32.4486 46.0136H32.7847C32.8198 46.0136 32.8549 45.9888 32.8549 45.9342V45.8448C32.8549 45.8101 32.8298 45.7753 32.7747 45.7753H31.5808C31.5357 45.7753 31.5056 45.8051 31.5056 45.8498V45.9391C31.5056 45.9391 31.5056 45.9689 31.5207 45.9838C31.5407 46.0136 31.5758 46.0136 31.5909 46.0136H31.6862C31.7213 46.0136 31.7614 46.0384 31.8015 46.088C31.8969 46.227 32.0273 46.505 32.2028 46.9071C32.3031 47.1454 32.4035 47.3837 32.5038 47.622C32.6442 47.9347 32.9051 48.5553 33.2712 49.4737C33.2963 49.5283 33.3264 49.5928 33.3866 49.5928C33.4318 49.5928 33.4669 49.5531 33.512 49.4389L33.502 49.4339ZM38.7989 49.0219H38.7788C38.7788 49.0219 38.7237 49.0567 38.6584 49.0914C38.3876 49.2155 37.8208 49.2801 36.9831 49.2801C36.9831 49.2801 36.8878 49.2751 36.8878 48.6794L36.8778 47.6567L37.5399 47.6667C37.9261 47.6716 38.1468 47.6766 38.202 47.6766C38.207 47.6766 38.212 47.6766 38.212 47.6766C38.212 47.6766 38.212 47.6816 38.212 47.6865C38.222 47.8454 38.2321 47.9794 38.2421 48.0986C38.2521 48.1581 38.2873 48.178 38.3224 48.178H38.3675C38.3675 48.178 38.4428 48.1681 38.4428 48.0737C38.4428 48.0638 38.4428 47.9745 38.4377 47.8156C38.4377 47.6518 38.4327 47.5624 38.4327 47.5326C38.4327 47.5029 38.4327 47.4234 38.4428 47.2795C38.4478 47.1355 38.4528 47.061 38.4528 47.0511C38.4528 46.9816 38.4076 46.9568 38.3725 46.9568H38.3324C38.3324 46.9568 38.2521 46.9568 38.2521 47.0461C38.2521 47.0561 38.2421 47.1057 38.2321 47.1951C38.222 47.2844 38.217 47.339 38.212 47.3688L36.8778 47.3589C36.8778 46.3164 36.8828 46.0583 36.8878 46.0334C37.5399 46.0384 37.9763 46.0632 38.1769 46.098C38.3123 46.1228 38.4127 46.1675 38.4728 46.2221L38.523 46.2767H38.5431C38.5982 46.2767 38.6233 46.2122 38.6334 46.1824C38.6735 46.0533 38.7036 45.9391 38.7287 45.8398C38.7387 45.8101 38.7287 45.7902 38.7186 45.7803C38.7036 45.7604 38.6835 45.7554 38.6534 45.7554H38.6033C38.6033 45.7554 38.5832 45.7554 38.5682 45.7604C38.513 45.7604 38.4728 45.7654 38.4377 45.7654H35.9949C35.9398 45.7654 35.9147 45.8001 35.9147 45.8398V45.9292C35.9147 45.9739 35.9448 46.0037 35.9899 46.0037H36.316C36.316 46.0037 36.3812 46.0533 36.3812 46.505C36.3812 46.5249 36.3862 47.6071 36.3862 47.622C36.3862 47.6369 36.3912 48.7141 36.3912 48.7141C36.3912 49.0815 36.3912 49.2701 36.3912 49.2949H35.9899C35.9548 49.2949 35.9197 49.3198 35.9197 49.3694V49.4538C35.9197 49.5084 35.9548 49.5332 35.9949 49.5332H38.5732C38.6133 49.5332 38.6434 49.5134 38.6735 49.4786C38.7437 49.3446 38.8039 49.2254 38.8591 49.1162C38.8691 49.0864 38.8641 49.0666 38.8541 49.0467C38.8491 49.0368 38.829 49.0219 38.7989 49.0219ZM30.9789 49.4637V49.3843C30.9789 49.3247 30.9438 49.2999 30.9087 49.2999H30.6579C30.6579 49.2999 30.6027 49.2701 30.4874 49.0219C30.387 48.8035 30.2065 48.322 29.9557 47.5872C29.6948 46.8327 29.5193 46.3363 29.424 46.0732C29.3989 45.9987 29.3888 45.9342 29.3888 45.8845C29.3888 45.8448 29.4139 45.8001 29.4591 45.7554C29.5243 45.6909 29.4992 45.6363 29.4892 45.6164C29.4791 45.6016 29.4541 45.5668 29.4139 45.5668H29.3989H29.3888C29.3086 45.5966 29.2484 45.6164 29.1932 45.6363C29.1581 45.6512 29.133 45.6859 29.1079 45.7554C28.797 46.4802 28.5361 47.1008 28.3204 47.6071C27.9693 48.4461 27.7787 48.9077 27.7085 49.0716C27.6282 49.2751 27.5881 49.2949 27.5881 49.2949H27.3523C27.3172 49.2949 27.2821 49.3198 27.2821 49.3694V49.4588C27.2821 49.5034 27.3122 49.5332 27.3574 49.5332H28.4609C28.506 49.5332 28.5361 49.5034 28.5361 49.4588V49.3793C28.5361 49.3297 28.506 49.2949 28.4559 49.2949H28.0546C28.0546 49.2949 28.0445 49.2453 28.0445 49.1609C28.0445 49.146 28.0496 49.0964 28.0897 48.9127C28.1047 48.8482 28.1399 48.734 28.2051 48.5503C28.2653 48.3716 28.3104 48.2624 28.3305 48.2177C28.3305 48.2177 28.3355 48.2078 28.3305 48.2078H29.6447C29.6447 48.2078 29.6497 48.2078 29.6597 48.2326C29.6647 48.2475 29.7049 48.3468 29.8403 48.739C29.9406 49.0318 30.0058 49.2205 30.0259 49.29H29.6647C29.6296 49.29 29.5895 49.3098 29.5895 49.3744V49.4488C29.5895 49.5034 29.6246 49.5283 29.6647 49.5283H30.9237C30.9237 49.5283 30.989 49.5134 30.989 49.4538L30.9789 49.4637ZM28.4508 47.9199C28.4709 47.8752 28.506 47.7908 28.5813 47.6121C28.6766 47.3887 28.8321 47.0114 29.0528 46.4902C29.138 46.7483 29.2183 46.9965 29.2986 47.2348C29.3788 47.478 29.4591 47.7064 29.5293 47.9199H28.4508ZM15.5697 49.285C16.0864 48.9425 16.3472 48.3865 16.3472 47.627C16.3472 47.0362 16.1867 46.5795 15.8707 46.2668C15.7603 46.1575 15.645 46.0682 15.5246 45.9987C15.4694 45.9689 15.3891 45.9292 15.2788 45.8796C15.1082 45.8051 14.8775 45.7703 14.5966 45.7703H12.9112C12.8561 45.7703 12.831 45.8051 12.831 45.8448V45.9342C12.831 45.9788 12.8611 46.0086 12.9062 46.0086H13.2774C13.2774 46.0086 13.3326 46.0732 13.3426 46.515C13.3426 46.5547 13.3426 46.7682 13.3426 47.1603V47.8255C13.3426 47.8652 13.3577 49.2403 13.3577 49.2652C13.3577 49.29 13.3577 49.2999 13.3577 49.3049H12.9815C12.9263 49.3049 12.9012 49.3396 12.9012 49.3793C12.9012 49.3942 12.9012 49.4091 12.9012 49.4339C12.9012 49.4538 12.9012 49.4637 12.9012 49.4687C12.9012 49.5134 12.9313 49.5432 12.9764 49.5432H13.2774C13.4128 49.5432 13.5834 49.5432 13.789 49.5581C13.9997 49.568 14.1652 49.5729 14.2956 49.5729C14.5765 49.5729 14.7872 49.563 14.9277 49.5382C15.1684 49.4985 15.3841 49.4191 15.5697 49.2949V49.285ZM13.9245 49.2602C13.9245 49.2602 13.8643 49.1559 13.8643 48.5851V47.4929C13.8643 47.4383 13.8693 46.1427 13.8693 46.1178C13.8693 46.0583 13.8894 46.0583 13.8944 46.0533C13.9194 46.0483 13.9746 46.0434 14.095 46.0434C14.3308 46.0434 14.5715 46.093 14.8123 46.1873C15.043 46.2817 15.2587 46.4455 15.4543 46.6887C15.7302 47.0313 15.8707 47.4681 15.8707 47.9993C15.8707 48.4361 15.7403 48.7836 15.4844 49.0219C15.2888 49.2106 15.0029 49.3049 14.6367 49.3049C14.2956 49.3049 14.0499 49.29 13.9194 49.2701L13.9245 49.2602ZM52.0462 49.0219H52.0261C52.0261 49.0219 51.971 49.0567 51.9057 49.0914C51.6349 49.2155 51.0681 49.2801 50.2304 49.2801C50.2304 49.2801 50.1351 49.2751 50.1351 48.6794L50.1251 47.6567L50.7872 47.6667C51.1784 47.6716 51.3991 47.6766 51.4493 47.6766H51.4593C51.4593 47.6766 51.4593 47.6816 51.4593 47.6865C51.4693 47.8454 51.4794 47.9794 51.4894 48.0986C51.4994 48.1581 51.5346 48.178 51.5697 48.178H51.6148C51.6148 48.178 51.6901 48.1681 51.6901 48.0737C51.6901 48.0638 51.6901 47.9745 51.685 47.8156C51.685 47.6518 51.68 47.5624 51.68 47.5326C51.68 47.5029 51.68 47.4234 51.6901 47.2795C51.6901 47.2795 51.7001 47.0561 51.7001 47.0511C51.7001 46.9816 51.6549 46.9568 51.6198 46.9568H51.5797C51.5797 46.9568 51.4994 46.9568 51.4994 47.0461C51.4994 47.0561 51.4894 47.1057 51.4794 47.1951C51.4693 47.2844 51.4643 47.339 51.4593 47.3688L50.1251 47.3589C50.1251 46.3164 50.1301 46.0583 50.1351 46.0334C50.7872 46.0384 51.2236 46.0632 51.4242 46.098C51.5596 46.1228 51.66 46.1675 51.7201 46.2221L51.7703 46.2767H51.7904C51.8456 46.2767 51.8706 46.2122 51.8807 46.1824C51.9208 46.0533 51.9509 45.9391 51.976 45.8398C51.986 45.8101 51.976 45.7902 51.9659 45.7803C51.9509 45.7604 51.9308 45.7554 51.9007 45.7554H51.8506C51.8506 45.7554 51.8305 45.7554 51.8155 45.7604C51.7603 45.7604 51.7201 45.7654 51.685 45.7654H49.2422C49.1871 45.7654 49.162 45.8001 49.162 45.8398V45.9292C49.162 45.9739 49.1921 46.0037 49.2372 46.0037H49.5633C49.5633 46.0037 49.6285 46.0533 49.6285 46.505C49.6285 46.5249 49.6335 47.6071 49.6335 47.622C49.6335 47.6369 49.6335 47.9149 49.6385 48.456C49.6385 48.9921 49.6435 49.2701 49.6385 49.2949H49.2322C49.1971 49.2949 49.162 49.3198 49.162 49.3694V49.4538C49.162 49.5084 49.1971 49.5332 49.2372 49.5332H51.8155C51.8556 49.5332 51.8907 49.5134 51.9158 49.4786C51.986 49.3446 52.0462 49.2254 52.1014 49.1162C52.1114 49.0864 52.1064 49.0666 52.0964 49.0467C52.0913 49.0368 52.0713 49.0219 52.0412 49.0219H52.0462ZM19.4973 46.1079C19.6327 46.1327 19.733 46.1774 19.7932 46.232L19.8434 46.2866H19.8634C19.9186 46.2866 19.9437 46.2221 19.9537 46.1923C19.9938 46.0632 20.0239 45.9491 20.049 45.8498C20.0591 45.82 20.049 45.8001 20.039 45.7902C20.0239 45.7703 20.0039 45.7654 19.9738 45.7654H19.9236C19.9236 45.7654 19.9036 45.7654 19.8885 45.7703C19.8333 45.7703 19.7932 45.7753 19.7581 45.7753H17.3153C17.2601 45.7753 17.235 45.8101 17.235 45.8498V45.9391C17.235 45.9838 17.2651 46.0136 17.3103 46.0136H17.6363C17.6363 46.0136 17.7015 46.0632 17.7015 46.515C17.7015 46.5348 17.7015 46.7235 17.7015 47.0759C17.7015 47.0759 17.7015 47.9248 17.7116 48.4659C17.7116 49.0021 17.7166 49.2801 17.7116 49.3049H17.3103C17.2752 49.3049 17.24 49.3297 17.24 49.3793V49.4637C17.24 49.5183 17.2752 49.5432 17.3153 49.5432H19.8935C19.9337 49.5432 19.9688 49.5233 19.9938 49.4886C20.0641 49.3545 20.1243 49.2354 20.1794 49.1262C20.1895 49.0964 20.1845 49.0765 20.1744 49.0567C20.1694 49.0467 20.1493 49.0318 20.1192 49.0318H20.0992C20.0992 49.0318 20.044 49.0666 19.9788 49.1013C19.7079 49.2254 19.1411 49.29 18.3034 49.29C18.3034 49.29 18.2081 49.285 18.2081 48.6893L18.1981 47.6667L18.8602 47.6766C19.2515 47.6816 19.4722 47.6865 19.5223 47.6865C19.5274 47.6865 19.5324 47.6865 19.5324 47.6865C19.5324 47.6865 19.5324 47.6915 19.5324 47.6965L19.5625 48.1085C19.5725 48.1681 19.6076 48.1879 19.6427 48.1879H19.6879C19.6879 48.1879 19.7631 48.178 19.7631 48.0837C19.7631 48.0737 19.7631 47.9844 19.7581 47.8255C19.7581 47.6617 19.7531 47.5724 19.7531 47.5426C19.7531 47.5128 19.7531 47.4334 19.7631 47.2894C19.7681 47.1454 19.7731 47.071 19.7731 47.061C19.7731 46.9915 19.728 46.9667 19.6929 46.9667H19.6528C19.6528 46.9667 19.5725 46.9667 19.5725 47.0561C19.5725 47.066 19.5625 47.1156 19.5524 47.205C19.5424 47.2944 19.5374 47.349 19.5324 47.3788L18.1981 47.3688C18.1981 46.3263 18.2031 46.0682 18.2081 46.0434C18.8602 46.0483 19.2966 46.0732 19.4973 46.1079ZM48.1788 45.7703H47.0653C47.0101 45.7703 46.985 45.8051 46.985 45.8448V45.9342C46.985 45.9342 46.985 45.9639 47.0001 45.9788C47.0151 45.9987 47.0352 46.0086 47.0653 46.0086H47.4164C47.4164 46.0086 47.5167 46.0334 47.5468 46.7979C47.5569 47.0859 47.5619 47.5376 47.5619 48.1383C47.5619 48.5801 47.4866 48.8779 47.3412 49.0219C47.1455 49.2155 46.8797 49.3148 46.5537 49.3148C46.2276 49.3148 45.9567 49.2503 45.7661 49.1212C45.5755 48.9921 45.4652 48.8134 45.425 48.5652C45.405 48.4312 45.395 48.1681 45.395 47.7858C45.395 46.6788 45.4 46.0831 45.405 46.0086H45.7862C45.8163 46.0086 45.8564 45.9888 45.8564 45.9242V45.8398C45.8564 45.8051 45.8313 45.7703 45.7762 45.7703H44.4369C44.3917 45.7703 44.3617 45.8001 44.3617 45.8498V45.9342C44.3617 45.9788 44.3917 46.0086 44.4369 46.0086H44.798C44.798 46.0086 44.8633 46.0781 44.8633 46.5944C44.8633 47.478 44.8633 48.039 44.8733 48.2574C44.8833 48.6049 44.9335 48.868 45.0238 49.0418C45.1341 49.2552 45.3147 49.4042 45.5605 49.4935C45.8013 49.5779 46.1173 49.6176 46.4985 49.6176C46.9098 49.6176 47.2358 49.5034 47.4565 49.2801C47.7224 49.0169 47.8478 48.59 47.8378 48.0142C47.8277 47.4383 47.8227 46.9717 47.8227 46.6292C47.8227 46.3859 47.8327 46.2072 47.8378 46.088C47.8378 46.0583 47.8378 46.0334 47.8428 46.0136C47.8729 46.0136 47.928 46.0136 48.0384 46.0136H48.1939C48.1939 46.0136 48.2591 46.0136 48.2591 45.9342V45.8498C48.2591 45.8051 48.229 45.7753 48.1839 45.7753L48.1788 45.7703ZM43.5591 45.7703H42.3703C42.3252 45.7703 42.2951 45.8001 42.2951 45.8448V45.9342C42.2951 45.9689 42.3201 46.0086 42.3753 46.0086H42.7515C42.7515 46.0086 42.8619 46.0186 42.902 46.7582C42.902 46.8079 42.902 47.1355 42.907 47.7362C42.907 48.317 42.907 48.6347 42.907 48.6843C42.4656 48.1333 42.0443 47.5922 41.648 47.071C41.6129 47.0263 41.4524 46.8178 41.1665 46.4405C40.8153 45.9739 40.7301 45.8547 40.72 45.8349C40.6899 45.7803 40.6498 45.7703 40.6197 45.7703H39.757C39.7118 45.7703 39.6817 45.8001 39.6817 45.8448V45.9342C39.6817 45.9838 39.7168 46.0086 39.7519 46.0086H39.9425C40.0178 46.0086 40.2435 46.0086 40.2435 46.4604C40.2435 46.4753 40.2285 46.8674 40.2034 47.6121C40.1783 48.3766 40.1632 48.7985 40.1632 48.9077V49.2999H39.8322C39.777 49.2999 39.7519 49.3347 39.7519 49.3744V49.4737C39.7519 49.4737 39.7519 49.5382 39.8322 49.5382H40.9056C40.9457 49.5382 40.9758 49.5084 40.9758 49.4687V49.3694C40.9758 49.3347 40.9508 49.2999 40.9006 49.2999H40.5394C40.5394 49.2999 40.4391 49.29 40.4391 48.6297C40.4391 48.461 40.4492 48.0539 40.4692 47.4185C40.4893 46.783 40.4993 46.5497 40.5094 46.4653C40.8856 46.922 41.2216 47.339 41.5025 47.7114C42.3302 48.7538 42.8067 49.3644 42.9722 49.5829C42.9973 49.6176 43.0324 49.6325 43.0725 49.6325C43.1528 49.6325 43.1528 49.5134 43.1528 49.4588C43.1528 49.424 43.1729 47.5773 43.1729 47.5376C43.1729 47.4979 43.1829 46.0285 43.1829 46.0285C43.1829 46.0086 43.1829 46.0037 43.1929 46.0037H43.5741C43.6093 46.0037 43.6494 45.9788 43.6494 45.9242V45.8349C43.6494 45.8001 43.6243 45.7654 43.5691 45.7654L43.5591 45.7703ZM11.7927 20.2839C12.7407 20.2839 13.6887 19.9265 14.411 19.2117L16.6381 17.0076L18.3386 15.3247L18.6847 14.9821L18.7047 14.9623L22.5169 11.1895C22.6975 11.0108 22.9934 11.0108 23.179 11.1895L23.8662 11.8696C24.0468 12.0483 24.0468 12.3412 23.8662 12.5248L20.054 16.2977L20.034 16.3175L19.6879 16.6601L17.9874 18.3429L15.7603 20.5471C14.3157 21.9768 14.3157 24.3 15.7603 25.7297C16.4826 26.4446 17.4307 26.802 18.3787 26.802C19.3267 26.802 20.2747 26.4446 20.997 25.7297L22.5219 24.2206C22.7025 24.0419 22.9984 24.0419 23.184 24.2206L23.8712 24.9007C24.0518 25.0794 24.0518 25.3723 23.8712 25.556L22.3464 27.0651C21.6491 27.7551 21.2679 28.6735 21.2679 29.6564C21.2679 30.6393 21.6541 31.5577 22.3464 32.2478C22.9984 32.8931 23.8662 33.2704 24.7892 33.3151H24.7992C24.8443 33.3151 24.8895 33.3151 24.9346 33.3151C25.9077 33.3051 26.8257 32.9279 27.5129 32.2478C28.2101 31.5577 28.5913 30.6393 28.5913 29.6564C28.5913 28.6735 28.2051 27.7551 27.5129 27.0651L24.9296 24.5085L23.5803 23.1731L19.402 19.0379C19.2214 18.8592 19.2214 18.5663 19.402 18.3826L20.0891 17.7025C20.2697 17.5238 20.5657 17.5238 20.7513 17.7025L24.5634 21.4754L26.2739 23.1682L28.8571 25.7248C29.5544 26.4148 30.4823 26.7921 31.4755 26.7921C32.4687 26.7921 33.3966 26.4098 34.0939 25.7248C35.5385 24.2951 35.5385 21.9718 34.0939 20.5421L32.569 19.033C32.3884 18.8542 32.3884 18.5614 32.569 18.3777L33.2562 17.6976C33.4368 17.5189 33.7327 17.5189 33.9183 17.6976L35.4432 19.2067C36.1655 19.9216 37.1135 20.279 38.0615 20.279C39.0096 20.279 39.9576 19.9216 40.6799 19.2067C41.3671 18.5266 41.7483 17.6231 41.7583 16.6551V16.5111C41.7132 15.5977 41.332 14.7389 40.6799 14.0985C39.9827 13.4085 39.0547 13.0312 38.0615 13.0312C37.0684 13.0312 36.1404 13.4134 35.4432 14.0985L33.2261 16.2927L33.206 16.3126L32.8649 16.6501L31.1545 18.3429L27.3423 22.1158C27.1617 22.2945 26.8658 22.2945 26.6802 22.1158L25.993 21.4357C25.8124 21.2569 25.8124 20.9641 25.993 20.7804L30.1713 16.6452L31.5156 15.3147L34.0989 12.7582C34.7961 12.0681 35.1773 11.1498 35.1773 10.1668C35.1773 9.18392 34.7961 8.26553 34.0989 7.57551C33.4017 6.88548 32.4737 6.50819 31.4805 6.50819C30.4874 6.50819 29.5594 6.89044 28.8622 7.57551L27.3373 9.08463C27.1567 9.26335 26.8608 9.26335 26.6752 9.08463L25.988 8.40453C25.8074 8.22582 25.8074 7.93293 25.988 7.74925L27.5129 6.24013C27.5129 6.24013 27.553 6.19545 27.573 6.17559C27.5931 6.15573 27.6182 6.13091 27.6383 6.11106C28.1649 5.5352 28.491 4.82035 28.5712 4.04593C28.5712 4.03104 28.5712 4.01615 28.5712 4.00622C28.5813 3.89204 28.5863 3.7729 28.5863 3.65376C28.5863 2.67084 28.2 1.75246 27.5078 1.06243C26.8206 0.382328 25.9077 0.00504566 24.9296 -0.00488281H24.9196C23.9414 0.00504566 23.0285 0.382328 22.3413 1.06243C21.6441 1.75246 21.2629 2.67084 21.2629 3.65376C21.2629 4.63668 21.6491 5.55506 22.3413 6.24509L24.5785 8.45914L26.2689 10.1321L30.4472 14.2673C30.6278 14.446 30.6278 14.7389 30.4472 14.9226L29.76 15.6027C29.5795 15.7814 29.2835 15.7814 29.0979 15.6027L24.9196 11.4675L23.5703 10.1321L20.987 7.57551C20.2898 6.88548 19.3618 6.50819 18.3687 6.50819C17.3755 6.50819 16.4475 6.89044 15.7503 7.57551C14.3057 9.00521 14.3057 11.3285 15.7503 12.7582L17.2752 14.2673C17.4557 14.446 17.4557 14.7389 17.2752 14.9226L16.588 15.6027C16.4074 15.7814 16.1114 15.7814 15.9259 15.6027L14.401 14.0935C13.7038 13.4035 12.7758 13.0262 11.7826 13.0262C10.7895 13.0262 9.86149 13.4085 9.16426 14.0935C8.47707 14.7736 8.09585 15.6771 8.08582 16.6452V16.6551C8.09585 17.6231 8.47707 18.5266 9.16426 19.2067C9.88657 19.9216 10.8346 20.279 11.7826 20.279L11.7927 20.2839ZM25.2506 26.2708L26.7755 27.7799C27.2771 28.2764 27.553 28.9416 27.553 29.6515C27.553 30.3613 27.2771 31.0266 26.7755 31.523C26.2789 32.0144 25.6218 32.2875 24.9196 32.2924C24.8845 32.2924 24.8544 32.2924 24.8193 32.2924C24.1521 32.2627 23.5301 31.9896 23.0636 31.523C22.562 31.0266 22.2862 30.3613 22.2862 29.6515C22.2862 28.9416 22.562 28.2764 23.0636 27.7799L24.5885 26.2708C24.7691 26.0921 25.065 26.0921 25.2506 26.2708ZM21.7846 22.8455C21.9651 23.0242 21.9651 23.3171 21.7846 23.5008L20.2597 25.0099C19.2164 26.0425 17.5209 26.0425 16.4776 25.0099C15.4343 23.9773 15.4343 22.2994 16.4776 21.2718L18.0025 19.7627C18.1831 19.584 18.479 19.584 18.6646 19.7627L21.7846 22.8505V22.8455ZM34.6406 16.3275L36.1655 14.8183C36.6671 14.3219 37.3392 14.0489 38.0565 14.0489C38.7738 14.0489 39.446 14.3219 39.9476 14.8183C40.414 15.28 40.6899 15.8956 40.725 16.5508V16.6551C40.72 17.3501 40.4441 18.0004 39.9476 18.4869C38.9042 19.5195 37.2088 19.5195 36.1705 18.4869L34.6456 16.9778C34.4651 16.7991 34.4651 16.5062 34.6456 16.3225L34.6406 16.3275ZM28.0546 22.8455L31.1745 19.7577C31.3551 19.579 31.6511 19.579 31.8367 19.7577L33.3615 21.2669C34.4049 22.2994 34.4049 23.9773 33.3615 25.0049C32.8599 25.5014 32.1878 25.7744 31.4705 25.7744C30.7532 25.7744 30.0811 25.5014 29.5795 25.0049L28.0546 23.4958C27.874 23.3171 27.874 23.0242 28.0546 22.8405V22.8455ZM24.5935 7.03937L23.0687 5.53024C22.5671 5.03382 22.2912 4.36861 22.2912 3.65872C22.2912 2.94884 22.5671 2.28363 23.0687 1.78721C23.5602 1.30071 24.2223 1.02768 24.9246 1.01775C25.6268 1.02768 26.2839 1.30071 26.7805 1.78721C27.2821 2.28363 27.558 2.94884 27.558 3.65872C27.558 3.74808 27.558 3.83744 27.5429 3.92183C27.5429 3.97147 27.5329 4.02111 27.5229 4.07572C27.4376 4.62675 27.1818 5.1331 26.7755 5.53024L25.2506 7.03937C25.0701 7.21808 24.7741 7.21808 24.5885 7.03937H24.5935ZM28.0546 10.4697C27.874 10.2909 27.874 9.99805 28.0546 9.81438L29.5795 8.30525C30.0811 7.80882 30.7532 7.53579 31.4705 7.53579C32.1878 7.53579 32.8599 7.80882 33.3615 8.30525C33.8631 8.80167 34.139 9.46688 34.139 10.1768C34.139 10.8867 33.8631 11.5519 33.3615 12.0483L31.8367 13.5574C31.6561 13.7361 31.3601 13.7361 31.1745 13.5574L28.0546 10.4697ZM25.2506 13.2447L28.3706 16.3324C28.5512 16.5111 28.5512 16.804 28.3706 16.9877L25.2506 20.0755C25.0701 20.2542 24.7741 20.2542 24.5885 20.0755L21.4686 16.9877C21.288 16.809 21.288 16.5161 21.4686 16.3324L24.5885 13.2447C24.7691 13.066 25.065 13.066 25.2506 13.2447ZM16.4826 12.0433C15.4393 11.0108 15.4393 9.33284 16.4826 8.30525C16.9842 7.80882 17.6564 7.53579 18.3737 7.53579C19.091 7.53579 19.7631 7.80882 20.2647 8.30525L21.7896 9.81438C21.9702 9.99309 21.9702 10.286 21.7896 10.4697L18.6696 13.5574C18.489 13.7361 18.1931 13.7361 18.0075 13.5574L16.4826 12.0483V12.0433ZM9.90162 14.8183C10.4032 14.3219 11.0754 14.0489 11.7927 14.0489C12.5099 14.0489 13.1821 14.3219 13.6837 14.8183L15.2086 16.3275C15.3891 16.5062 15.3891 16.7991 15.2086 16.9827L13.6837 18.4919C12.6404 19.5244 10.9449 19.5244 9.90663 18.4919C9.41506 18.0054 9.13918 17.3501 9.12915 16.6551C9.13918 15.9601 9.41506 15.3098 9.90663 14.8183H9.90162ZM37.5449 53.7131H37.3041C37.3041 53.7131 37.279 53.6933 37.269 53.5394C37.269 53.5145 37.269 53.4153 37.269 53.2415C37.269 53.2068 37.269 52.6607 37.269 51.5984H37.5048C37.5499 51.5984 37.57 51.5686 37.57 51.5388V51.4742C37.57 51.4395 37.5449 51.4147 37.5048 51.4147H36.642C36.6019 51.4147 36.5768 51.4445 36.5768 51.4742V51.5338C36.5768 51.5636 36.5969 51.5984 36.647 51.5984H36.8627C36.8627 51.5984 36.8878 51.6778 36.8878 51.8863C36.8878 51.8863 36.8878 53.7081 36.8878 53.7131H36.647L36.637 53.7181C36.6219 53.723 36.6069 53.7429 36.6069 53.7777V53.8571L36.6169 53.867C36.627 53.8819 36.647 53.8918 36.6771 53.8918H37.5399C37.57 53.8918 37.595 53.872 37.595 53.8323V53.7677C37.595 53.733 37.57 53.7082 37.5349 53.7082L37.5449 53.7131ZM20.3851 51.4891C20.2446 51.4246 20.044 51.3948 19.7832 51.3948C19.6126 51.3948 19.4521 51.4246 19.3117 51.4792C19.111 51.5586 18.9555 51.6579 18.8502 51.7771C18.7449 51.8962 18.6596 52.0451 18.6094 52.2189C18.5643 52.3628 18.5392 52.5217 18.5392 52.6855C18.5392 52.9238 18.5643 53.1174 18.6094 53.2614C18.6495 53.3855 18.7148 53.4997 18.805 53.6039C18.8803 53.6883 18.9756 53.7578 19.0809 53.8124C19.2314 53.8869 19.4521 53.9266 19.743 53.9266C19.9236 53.9266 20.0791 53.9067 20.1945 53.862C20.3349 53.8124 20.4553 53.7479 20.5456 53.6784C20.5907 53.6436 20.6409 53.589 20.7061 53.5096C20.8917 53.2912 20.987 52.9883 20.987 52.6111C20.987 52.2735 20.9068 51.9955 20.7513 51.782C20.661 51.6579 20.5356 51.5636 20.3801 51.4941L20.3851 51.4891ZM20.5155 53.2812C20.4403 53.445 20.355 53.5592 20.2497 53.6238C20.1192 53.7081 19.9738 53.7528 19.8183 53.7528C19.6778 53.7528 19.5474 53.723 19.4321 53.6684C19.2816 53.5989 19.1662 53.5096 19.096 53.3904C18.9706 53.1968 18.9054 52.9288 18.9054 52.5912C18.9054 52.3628 18.9405 52.1643 19.0107 52.0054C19.0609 51.8912 19.1562 51.782 19.2966 51.6827C19.3668 51.6331 19.4922 51.6033 19.6628 51.6033C19.7982 51.6033 19.9337 51.6331 20.0641 51.6877C20.1794 51.7374 20.2798 51.8069 20.36 51.9012C20.4503 52.0054 20.5205 52.1246 20.5607 52.2685C20.5958 52.3877 20.6158 52.5366 20.6158 52.7004C20.6158 52.9337 20.5807 53.1323 20.5155 53.2812ZM17.5761 53.7131H17.3755C17.3755 53.7131 17.3253 53.6734 17.3153 53.3656C17.3053 53.2068 17.3053 52.9337 17.3053 52.5564C17.3053 52.0451 17.3053 51.7522 17.3153 51.6778C17.3203 51.6132 17.3354 51.6033 17.3354 51.5984H17.5109C17.541 51.5984 17.5661 51.5785 17.5661 51.5338V51.4742C17.5661 51.4445 17.546 51.4147 17.5009 51.4147H17.0444C17.0043 51.4147 16.9692 51.4345 16.9441 51.4742C16.7886 51.8168 16.6381 52.1593 16.4927 52.4919C16.3472 52.8096 16.2118 53.1124 16.0864 53.3954C15.8757 52.9685 15.6751 52.5564 15.4945 52.1643C15.3641 51.9111 15.2487 51.6778 15.1383 51.4594C15.1233 51.4246 15.0932 51.4097 15.0531 51.4097H14.5816C14.5464 51.4097 14.5214 51.4345 14.5214 51.4693V51.5338C14.5214 51.5686 14.5464 51.5934 14.5765 51.5934C14.6718 51.6033 14.707 51.6132 14.722 51.6182C14.8273 51.6679 14.8775 51.7671 14.8775 51.921C14.8775 52.0501 14.8775 52.204 14.8625 52.3877C14.8625 52.482 14.8524 52.5713 14.8474 52.6657C14.8324 53.1621 14.8223 53.4897 14.8223 53.6734C14.8223 53.6933 14.8223 53.7032 14.8223 53.7082H14.6367C14.6066 53.7082 14.5715 53.728 14.5715 53.7777V53.8323C14.5715 53.862 14.5916 53.8918 14.6418 53.8918H15.2838C15.3139 53.8918 15.344 53.872 15.344 53.8273V53.7677C15.344 53.7379 15.3239 53.7082 15.2788 53.7082H15.0681C15.0681 53.7082 15.028 53.6833 15.028 53.445V53.0479C15.028 52.8493 15.043 52.5366 15.0731 52.1097C15.2286 52.4224 15.349 52.6706 15.4393 52.8593C15.6149 53.2167 15.7804 53.5592 15.9409 53.8819C15.9509 53.9216 15.981 53.9415 16.0161 53.9415C16.0513 53.9415 16.0763 53.9067 16.0914 53.8819C16.1315 53.7777 16.1867 53.6436 16.2519 53.4947C16.6181 52.6657 16.8438 52.1593 16.9341 51.9657C16.9391 52.1395 16.9441 52.4175 16.9441 52.8047V53.7032H16.7535C16.7134 53.7032 16.6883 53.728 16.6883 53.7677V53.8273C16.6883 53.8571 16.7084 53.8918 16.7585 53.8918H17.5711C17.6062 53.8918 17.6363 53.867 17.6363 53.8273V53.7677C17.6363 53.728 17.6062 53.7032 17.5761 53.7032V53.7131ZM24.4531 51.4097H23.6756C23.6355 51.4097 23.6104 51.4345 23.6104 51.4742V51.5338C23.6104 51.5636 23.6305 51.5984 23.6806 51.5984H23.9214C23.9214 51.5984 23.9816 51.643 24.0067 52.0749C24.0067 52.1047 24.0067 52.3182 24.0067 52.7103C24.0067 53.0529 24.0067 53.2117 24.0067 53.2812C23.7308 52.9337 23.4649 52.5912 23.2141 52.2636C23.1941 52.2387 23.0887 52.1047 22.9031 51.8565C22.6624 51.5388 22.6172 51.4742 22.6122 51.4643C22.5871 51.4196 22.552 51.4147 22.5319 51.4147H21.9702C21.935 51.4147 21.9049 51.4395 21.9049 51.4792V51.5388C21.9049 51.5785 21.935 51.6033 21.9651 51.6033H22.0905C22.1658 51.6033 22.2711 51.6331 22.2711 51.8813C22.2711 51.8962 22.2611 52.1444 22.246 52.6359C22.231 53.1373 22.221 53.4103 22.221 53.4798V53.7181H22.0203C21.9702 53.7181 21.9501 53.7528 21.9501 53.7826V53.8472C21.9501 53.8472 21.9501 53.9018 22.0203 53.9018H22.7175C22.7527 53.9018 22.7777 53.8769 22.7777 53.8422V53.7777C22.7777 53.7479 22.7577 53.7181 22.7125 53.7181H22.4818C22.4818 53.7181 22.4266 53.6734 22.4266 53.2961C22.4266 53.1869 22.4316 52.9139 22.4467 52.5068C22.4567 52.1643 22.4667 52.0054 22.4667 51.926C22.7025 52.2139 22.9132 52.4721 23.0887 52.7103C23.6254 53.3855 23.9414 53.7876 24.0468 53.9315C24.0668 53.9564 24.0919 53.9713 24.127 53.9713C24.1973 53.9713 24.1973 53.8819 24.1973 53.8422C24.1973 53.8223 24.2123 52.616 24.2123 52.5912C24.2123 52.5664 24.2173 51.8366 24.2173 51.8366C24.2173 51.6927 24.2173 51.6132 24.2073 51.6083H24.4531C24.4932 51.6083 24.5183 51.5785 24.5183 51.5388V51.4792C24.5183 51.4494 24.4982 51.4196 24.4481 51.4196L24.4531 51.4097ZM27.7637 52.7004H26.7805C26.7354 52.7004 26.7103 52.7302 26.7103 52.7749V52.8096C26.7103 52.8692 26.7454 52.8891 26.7805 52.8891H27.1367C27.1367 52.8891 27.1467 52.9585 27.1567 53.0578C27.1567 53.1025 27.1567 53.177 27.1567 53.2912V53.594C27.0313 53.6784 26.8959 53.723 26.7605 53.723C26.5999 53.723 26.4745 53.7082 26.3792 53.6883C26.2438 53.6486 26.1184 53.5791 26.008 53.4699C25.8174 53.2812 25.7171 53.0181 25.7171 52.6855C25.7171 52.3877 25.8074 52.1395 25.988 51.9458C26.0983 51.8267 26.2187 51.7473 26.3441 51.7026C26.4394 51.6679 26.5648 51.653 26.7153 51.653C26.9862 51.653 27.1868 51.6976 27.3172 51.7771C27.3574 51.8019 27.3824 51.8317 27.3925 51.8664C27.3975 51.8912 27.4025 51.9111 27.4025 51.9359C27.4025 51.9657 27.4226 51.9955 27.4727 51.9955C27.4978 51.9955 27.5279 51.9806 27.5379 51.9409C27.5379 51.931 27.548 51.9061 27.563 51.7274L27.573 51.6331C27.5781 51.5835 27.5831 51.5537 27.5831 51.5487C27.5831 51.5189 27.563 51.4891 27.5329 51.4792C27.4025 51.4345 27.2069 51.4097 26.941 51.4097C26.6752 51.4097 26.4745 51.4345 26.314 51.4842C26.0181 51.5735 25.7924 51.7125 25.6419 51.8912C25.4362 52.1395 25.3309 52.4274 25.3309 52.7451C25.3309 53.0628 25.3961 53.316 25.5265 53.4947C25.6419 53.6585 25.8024 53.7776 26.003 53.8571C26.1134 53.9018 26.299 53.9216 26.5648 53.9216C26.7956 53.9216 27.0213 53.8769 27.232 53.7826C27.4025 53.7032 27.4577 53.6933 27.4828 53.6933C27.5129 53.6883 27.5429 53.6684 27.5429 53.6188C27.5329 53.4997 27.5329 53.3656 27.5329 53.2167C27.5329 53.1373 27.5329 53.0578 27.5329 52.9734C27.5329 52.9337 27.5329 52.9039 27.5329 52.8841H27.7637C27.8038 52.8841 27.8339 52.8543 27.8339 52.8146V52.7649C27.8339 52.7252 27.8038 52.6954 27.7637 52.6954V52.7004ZM35.7291 53.7131H35.5736C35.5736 53.7131 35.5435 53.6933 35.4683 53.5394C35.403 53.4004 35.2877 53.0876 35.1222 52.6061C34.9566 52.1246 34.8413 51.792 34.776 51.6182C34.761 51.5735 34.751 51.5338 34.756 51.4991C34.756 51.4792 34.771 51.4544 34.7961 51.4246C34.8513 51.37 34.8262 51.3253 34.8162 51.3154C34.7961 51.2906 34.776 51.2757 34.751 51.2757H34.7359H34.7259C34.6757 51.2955 34.6356 51.3104 34.6005 51.3204C34.5704 51.3303 34.5503 51.3551 34.5353 51.4097L34.0186 52.616C33.7979 53.1422 33.6675 53.4649 33.6224 53.5741C33.5772 53.6883 33.5521 53.7082 33.5572 53.7082H33.4067C33.3766 53.7082 33.3465 53.728 33.3465 53.7727V53.8323C33.3465 53.867 33.3716 53.8968 33.4117 53.8968H34.129C34.1641 53.8968 34.1942 53.872 34.1942 53.8323V53.7826C34.1942 53.7429 34.1641 53.7131 34.124 53.7131H33.8782C33.8782 53.7131 33.8782 53.6784 33.8782 53.6436C33.8782 53.6387 33.8782 53.6089 33.9033 53.4848C33.9133 53.445 33.9384 53.3656 33.9785 53.2514C34.0186 53.1373 34.0437 53.0628 34.0487 53.038L34.9014 53.0479C34.9014 53.0479 34.9265 53.1124 35.0168 53.3755C35.077 53.5543 35.1171 53.6635 35.1322 53.7131H34.9165C34.8864 53.7131 34.8513 53.733 34.8513 53.7826V53.8323C34.8513 53.872 34.8764 53.9018 34.9165 53.9018H35.7391C35.7692 53.9018 35.7943 53.8819 35.7943 53.8372V53.7876C35.7943 53.733 35.7542 53.7181 35.7341 53.7181L35.7291 53.7131ZM34.149 52.8096C34.1641 52.7749 34.1842 52.7203 34.2243 52.6309C34.2845 52.4919 34.3798 52.2586 34.5152 51.9409C34.5654 52.0948 34.6155 52.2437 34.6607 52.3877C34.7108 52.5416 34.761 52.6806 34.8061 52.8146H34.149V52.8096ZM32.4737 53.3904C32.4586 53.3607 32.4436 53.3259 32.4386 53.2862C32.4235 53.2415 32.3934 53.2365 32.3834 53.2365C32.3684 53.2365 32.3282 53.2415 32.3282 53.306C32.3232 53.3458 32.3031 53.3904 32.2731 53.4351C32.2179 53.5195 32.1326 53.584 32.0223 53.6387C31.9069 53.6933 31.7865 53.7181 31.6661 53.7181C31.4956 53.7181 31.3601 53.7032 31.2648 53.6684C31.1545 53.6337 31.0491 53.5692 30.9388 53.4699C30.7281 53.2763 30.6178 53.0082 30.6178 52.6657C30.6178 52.3529 30.7181 52.0898 30.9237 51.8813C31.0993 51.6976 31.3451 51.6083 31.6461 51.6083C31.8818 51.6083 32.0624 51.6381 32.1777 51.6927C32.2931 51.7671 32.3082 51.792 32.3082 51.7969C32.3232 51.8217 32.3232 51.8317 32.3232 51.8317C32.3282 51.8664 32.3533 51.8863 32.3884 51.8863C32.3985 51.8863 32.4386 51.8863 32.4486 51.8217C32.4486 51.7721 32.4586 51.7175 32.4687 51.653C32.4787 51.5735 32.4837 51.5189 32.4887 51.4991C32.4887 51.4693 32.4737 51.4445 32.4536 51.4395C32.4285 51.4246 32.3684 51.4047 32.1777 51.3849C32.0574 51.375 31.9269 51.365 31.7865 51.365C31.4053 51.365 31.0843 51.4445 30.8385 51.6033C30.6479 51.7274 30.5074 51.8764 30.4121 52.0551C30.2967 52.2735 30.2416 52.4969 30.2416 52.7153C30.2416 53.1075 30.3469 53.4053 30.5475 53.6039C30.6679 53.723 30.7983 53.8025 30.9288 53.8472C31.0542 53.8918 31.2247 53.9117 31.4354 53.9117C31.6862 53.9117 31.8918 53.8819 32.0574 53.8223C32.2731 53.7479 32.4235 53.6585 32.5188 53.5592C32.5389 53.5344 32.5439 53.5046 32.5289 53.4748C32.5088 53.4401 32.4938 53.4053 32.4837 53.3805L32.4737 53.3904Z" fill="white"/>
</g>
<defs>
<clipPath id="clip0_79_10855">
<rect width="52.1264" height="53.9662" fill="white"/>
</clipPath>
</defs>
</svg>
