<svg width="52" height="51" viewBox="0 0 52 51" fill="none" xmlns="http://www.w3.org/2000/svg">
<path d="M3.4298 41.4993L0.264813 34.9179C0.21727 34.816 0.122255 34.7073 0 34.6055H1.18859C1.15463 34.6802 1.1342 34.7481 1.1342 34.8228C1.1342 34.8636 1.13422 34.8907 1.1478 34.9179L3.7762 40.2088L6.58136 34.9043C6.60853 34.8704 6.62216 34.8364 6.62216 34.8024C6.62216 34.7141 6.57463 34.653 6.47275 34.6055H7.24016C7.07037 34.6802 6.94808 34.7889 6.87337 34.9383L3.4298 41.4993Z" fill="white"/>
<path d="M9.08748 34.9179V41.1461C9.08748 41.2276 9.1418 41.3227 9.24368 41.445H8.06189C8.16377 41.3227 8.21809 41.2276 8.21809 41.1461V34.9179C8.21809 34.8364 8.16377 34.7345 8.06189 34.6055H9.24368C9.1418 34.7277 9.08748 34.8296 9.08748 34.9179Z" fill="white"/>
<path d="M16.9592 41.574L11.0163 35.4001V41.1461C11.0163 41.2887 11.0909 41.3838 11.2403 41.4449H10.4661C10.6427 41.377 10.7243 41.2683 10.7243 41.1121V35.108C10.6427 34.8975 10.5205 34.7277 10.3643 34.6054H11.743C11.7159 34.6665 11.7023 34.7277 11.7023 34.7888C11.7023 34.8364 11.7091 34.8771 11.7226 34.9111L16.6536 39.9982V34.8975C16.6536 34.7548 16.5788 34.6598 16.4226 34.5986H17.2036C17.0406 34.6666 16.9592 34.7752 16.9592 34.9314V41.5604V41.574Z" fill="white"/>
<path d="M24.6681 34.9179V41.1461C24.6681 41.2276 24.7158 41.3227 24.8177 41.445H23.6493C23.7444 41.3227 23.7989 41.2276 23.7989 41.1461V37.8316H19.3637V41.1461C19.3637 41.2276 19.418 41.3227 19.5199 41.445H18.3381C18.44 41.3227 18.4943 41.2276 18.4943 41.1461V34.9179C18.4943 34.8364 18.44 34.7345 18.3381 34.6055H19.5199C19.418 34.7277 19.3637 34.8296 19.3637 34.9179V37.5328H23.7989V34.9179C23.7989 34.8364 23.7512 34.7345 23.6493 34.6055H24.8177C24.7226 34.7277 24.6681 34.8296 24.6681 34.9179Z" fill="white"/>
<path d="M33.4027 38.0283C33.4027 39.0064 33.0426 39.8418 32.3159 40.5345C31.5959 41.2273 30.7199 41.5737 29.6943 41.5737C28.6687 41.5737 27.7788 41.2273 27.0453 40.5345C26.3118 39.8418 25.9519 39.0064 25.9519 38.0283C25.9519 37.0503 26.3186 36.2149 27.0453 35.5221C27.7788 34.8293 28.6551 34.4829 29.6943 34.4829C30.7334 34.4829 31.5959 34.8293 32.3159 35.5221C33.0358 36.2149 33.4027 37.0503 33.4027 38.0283ZM32.5877 38.0962C32.5877 37.1046 32.3431 36.3235 31.8609 35.7394C31.3583 35.1146 30.6247 34.7953 29.6671 34.7818C28.7909 34.7614 28.0778 35.067 27.5277 35.7055C27.0183 36.3168 26.7601 37.0842 26.7601 38.0147C26.7601 38.9452 27.0454 39.672 27.6091 40.3172C28.1796 40.9556 28.8588 41.2749 29.6603 41.2681C30.4482 41.2613 31.1274 40.9421 31.7115 40.324C32.2888 39.6991 32.5809 38.9588 32.5809 38.103L32.5877 38.0962Z" fill="white"/>
<path d="M38.2113 41.5736L35.6168 35.78L35.0802 41.1457C35.0666 41.2815 35.1414 41.3766 35.3044 41.4445H34.5232C34.5639 41.4241 34.6048 41.397 34.632 41.3698C34.7135 41.2951 34.761 41.2068 34.7678 41.1117L35.379 35.1076C35.3858 35.0261 35.3519 34.931 35.2704 34.8292C35.1889 34.7273 35.1073 34.6526 35.019 34.6118H36.1262C36.0854 34.7341 36.0786 34.8359 36.1126 34.9242L38.4762 40.1812L40.8261 34.9039C40.8329 34.8224 40.7718 34.7273 40.636 34.6186H41.8517C41.7702 34.7409 41.7295 34.8427 41.7363 34.931L42.3611 41.1593C42.3679 41.2408 42.4291 41.3358 42.5513 41.4581H41.3355C41.4374 41.3426 41.4917 41.2476 41.4849 41.1728L40.9281 35.5219L38.2113 41.5871V41.5736Z" fill="white"/>
<path d="M44.7114 34.9179V37.9811H46.5588C46.6946 37.9811 46.7898 37.8996 46.8441 37.7366V38.538C46.7491 38.375 46.6539 38.2935 46.5588 38.2935H44.7114V41.1461H46.6064C46.7422 41.1461 46.8849 41.0578 47.0343 40.888L46.8849 41.445H43.6858C43.7877 41.3227 43.842 41.2276 43.842 41.1461V34.9179C43.842 34.8364 43.7877 34.7345 43.6858 34.6055H46.8374V35.1624C46.7423 34.9994 46.6472 34.9179 46.5521 34.9179H44.7046H44.7114Z" fill="white"/>
<path d="M50.0768 41.5742C49.7779 41.5742 49.4791 41.5335 49.187 41.4588C49.058 41.4112 48.8543 41.3433 48.5894 41.255C48.5011 41.2482 48.3652 41.2279 48.1886 41.2007L48.1682 40.209C48.3312 40.5215 48.5622 40.7728 48.8678 40.9562C49.1667 41.1463 49.479 41.2414 49.8118 41.2414C50.1446 41.2414 50.4367 41.1328 50.6676 40.9154C50.8985 40.6981 51.014 40.4196 51.014 40.08C51.014 39.6521 50.7424 39.1563 50.2058 38.613C49.8187 38.2326 49.4315 37.8522 49.0444 37.4787C48.6233 36.9965 48.406 36.5278 48.406 36.066C48.406 35.6041 48.5758 35.2306 48.9086 34.9317C49.2414 34.6397 49.6353 34.4902 50.0904 34.4902C50.1923 34.4902 50.3348 34.5038 50.5046 34.531C50.7084 34.5582 50.8511 34.5717 50.919 34.5717C51.0412 34.5921 51.2042 34.5921 51.4216 34.5717V35.4615C51.2246 35.0132 50.8375 34.7891 50.2602 34.7891C49.4791 34.7891 49.092 35.1423 49.092 35.8418C49.092 36.1407 49.187 36.4123 49.3772 36.6636C49.4927 36.8063 49.7032 37.0101 50.0156 37.2749C50.1582 37.3972 50.3755 37.5806 50.6608 37.8319C51.4079 38.5246 51.7884 39.2378 51.7884 39.9645C51.7884 40.4739 51.632 40.8679 51.3196 41.1463C51.0072 41.4248 50.5998 41.5607 50.0904 41.5607L50.0768 41.5742Z" fill="white"/>
<path d="M12.3402 50.8243C12.1364 50.8243 11.9327 50.7972 11.7358 50.7496C11.6475 50.7157 11.5116 50.6681 11.3282 50.6138C11.2671 50.6138 11.172 50.5934 11.0566 50.5798L11.043 49.9074C11.1516 50.118 11.3146 50.2878 11.5184 50.4168C11.7221 50.5458 11.9394 50.607 12.1568 50.607C12.3741 50.607 12.5847 50.5323 12.741 50.3896C12.8972 50.2402 12.9786 50.0568 12.9786 49.8191C12.9786 49.5271 12.7952 49.1943 12.4284 48.8207C12.1635 48.5626 11.8987 48.3045 11.6406 48.0464C11.3485 47.7204 11.206 47.3944 11.206 47.082C11.206 46.7695 11.3214 46.5114 11.5456 46.3145C11.7697 46.1175 12.0413 46.0156 12.347 46.0156C12.4217 46.0156 12.5099 46.0224 12.6254 46.0428C12.768 46.0632 12.8632 46.07 12.904 46.07C12.9855 46.0835 13.1009 46.0835 13.2436 46.07V46.6744C13.1077 46.3688 12.8427 46.2194 12.4556 46.2194C11.9258 46.2194 11.661 46.4571 11.661 46.9325C11.661 47.1363 11.7289 47.3197 11.858 47.4895C11.9327 47.5846 12.082 47.7272 12.2926 47.9106C12.3877 47.9921 12.5372 48.1211 12.7342 48.2909C13.2436 48.7596 13.5016 49.2486 13.5016 49.7444C13.5016 50.0908 13.3929 50.3625 13.1824 50.5458C12.9718 50.736 12.6934 50.8243 12.347 50.8243H12.3402Z" fill="white"/>
<path d="M14.962 48.5151V50.5391C14.962 50.5934 14.9959 50.6613 15.0706 50.7428H14.2692C14.3439 50.6613 14.3778 50.5934 14.3778 50.5391V46.3009C14.3778 46.2465 14.3439 46.1718 14.2692 46.0903H15.0706C14.9959 46.1718 14.962 46.2465 14.962 46.3009V48.3113L16.8636 46.3552C16.9179 46.3009 16.9247 46.2126 16.8908 46.0903H17.5564C17.4817 46.1311 17.3798 46.199 17.2508 46.3009L15.4306 48.1619L17.733 50.5391C17.7873 50.5934 17.8891 50.6613 18.0386 50.7428H16.9316C16.9655 50.6545 16.9587 50.5866 16.9112 50.5323L14.962 48.5151Z" fill="white"/>
<path d="M19.954 50.5391V48.5015L18.6092 46.2941C18.582 46.2398 18.5073 46.1718 18.385 46.0903H19.234C19.2136 46.1718 19.2204 46.2398 19.2612 46.2941L20.4498 48.2502L21.6248 46.3009C21.652 46.2669 21.6656 46.233 21.6656 46.199C21.6656 46.1515 21.6451 46.1107 21.5976 46.0903H22.1274C22.0866 46.1039 22.0459 46.1243 22.012 46.1447C21.9237 46.1922 21.8625 46.2533 21.815 46.3281L20.5586 48.42V50.5459C20.5586 50.6002 20.5925 50.6681 20.6536 50.7496H19.859C19.9269 50.6681 19.9608 50.6002 19.9608 50.5459L19.954 50.5391Z" fill="white"/>
<path d="M25.1633 50.5391C25.1633 50.5934 25.1974 50.6613 25.2721 50.7428H24.4707C24.5454 50.6613 24.5793 50.5934 24.5793 50.5391V46.2941C24.5793 46.2398 24.5454 46.1718 24.4707 46.0903H25.9785C26.2706 46.0903 26.5422 46.1786 26.7867 46.3552C27.0991 46.5794 27.2757 46.9122 27.3097 47.3468C27.3369 47.734 27.2214 48.0668 26.9701 48.3588C26.7188 48.6509 26.4131 48.7935 26.0599 48.7935C25.9173 48.7935 25.7679 48.7664 25.6253 48.7052C25.8291 48.6645 26.0125 48.5966 26.1687 48.5015C26.5287 48.2706 26.7187 47.9174 26.7323 47.4487C26.7391 47.082 26.6304 46.7831 26.4063 46.5658C26.2161 46.3756 25.992 46.2737 25.7475 46.2737H25.1633V50.5391Z" fill="white"/>
<path d="M28.7903 49.031L28.1315 50.532C28.1315 50.532 28.1111 50.5863 28.1111 50.6135C28.1111 50.6678 28.1383 50.7154 28.1995 50.7426H27.6697C27.7104 50.729 27.7443 50.7086 27.7783 50.6882C27.8598 50.6339 27.9073 50.5795 27.9345 50.5116L29.5307 46.8644L29.3813 46.5248L29.7209 45.9746L31.7381 50.5388C31.7652 50.5931 31.8264 50.6611 31.935 50.7426H31.1335C31.1674 50.6611 31.1742 50.5931 31.1471 50.5388L30.4815 49.031H28.7903ZM30.3933 48.8272L29.6257 47.0885L28.8719 48.8272H30.3933Z" fill="white"/>
<path d="M36.798 50.7288C36.6757 50.7763 36.5398 50.8035 36.3768 50.8035C35.9964 50.8035 35.6298 50.6473 35.2766 50.3417C35.1475 50.2398 35.0116 50.1175 34.869 49.9749C34.5158 49.6217 34.1559 49.1802 33.7756 48.6572H33.402V50.5454C33.402 50.5997 33.4359 50.6677 33.5038 50.7492H32.7024C32.7771 50.6677 32.811 50.5997 32.811 50.5454V46.3004C32.811 46.2461 32.7771 46.1782 32.7024 46.0967H33.7348C34.1627 46.0967 34.5294 46.2053 34.8418 46.4295C35.1746 46.6672 35.3378 46.9661 35.331 47.3328C35.331 47.523 35.2698 47.7199 35.1544 47.9101C34.9981 48.1818 34.7604 48.3856 34.4412 48.5078C34.6721 48.9357 35.1067 49.4587 35.7384 50.0768C36.1799 50.5046 36.5263 50.722 36.7912 50.7288H36.798ZM34.7536 47.3464C34.7468 47.1019 34.645 46.8778 34.4616 46.6672C34.251 46.4363 33.9996 46.3208 33.694 46.3208H33.402V48.4331H33.7144C33.9521 48.4263 34.183 48.3312 34.4004 48.1478C34.6449 47.9305 34.7604 47.6588 34.7468 47.3464H34.7536Z" fill="white"/>
<path d="M37.6609 48.5151V50.5391C37.6609 50.5934 37.6948 50.6613 37.7695 50.7428H36.9681C37.0429 50.6613 37.0768 50.5934 37.0768 50.5391V46.3009C37.0768 46.2465 37.0429 46.1718 36.9681 46.0903H37.7695C37.6948 46.1718 37.6609 46.2465 37.6609 46.3009V48.3113L39.5627 46.3552C39.617 46.3009 39.6239 46.2126 39.5899 46.0903H40.2555C40.1808 46.1311 40.0788 46.199 39.9497 46.3009L38.1295 48.1619L40.4321 50.5391C40.4864 50.5934 40.5883 50.6613 40.7377 50.7428H39.6305C39.6645 50.6545 39.6577 50.5866 39.6101 50.5323L37.6609 48.5151Z" fill="white"/>
<path d="M26.1007 15.5332V19.6355L22.3651 15.8999L22.3243 15.866L20.5245 14.0593C20.4634 13.9846 20.4293 13.9031 20.4293 13.808C20.4293 13.7469 20.4498 13.6722 20.4905 13.6178C20.5041 13.6042 20.5041 13.5839 20.5245 13.5771L22.0935 12.0081C22.2293 11.8723 22.4466 11.8723 22.5825 12.0081L26.1007 15.5264V15.5332Z" fill="white"/>
<path d="M29.9993 16.3075L26.6441 19.6355L26.6373 19.6491V15.5332L27.9413 14.2495L29.9993 16.3075Z" fill="white"/>
<path d="M22.7394 3.36201L26.1014 0V4.11592L24.811 5.41319L22.7394 3.36201Z" fill="white"/>
<path d="M32.2957 5.82811C32.2957 5.86886 32.2618 5.91641 32.2415 5.95716C32.2211 5.99791 32.221 6.04546 32.1871 6.07263L29.3413 8.91846L27.5075 7.12538C27.3785 6.98954 27.3785 6.77219 27.5075 6.63635L28.3225 5.82811L26.6245 4.12334V0.0209961L30.3805 3.78375H30.3941L32.1871 5.57681C32.2618 5.65152 32.2957 5.73302 32.2957 5.82811Z" fill="white"/>
<path d="M32.2003 14.08L30.4073 15.8731L29.3817 14.8407L20.6336 6.09265C20.4638 5.92285 20.4638 5.65795 20.6336 5.48816L20.8442 5.27761V5.26403L22.3724 3.73584L24.4439 5.7802L24.4303 5.7938L27.3983 8.75508L32.2003 13.5502C32.3361 13.6996 32.3497 13.9441 32.2003 14.08Z" fill="white"/>
<path d="M16.6539 13.5706H12.5719C12.5719 13.5706 12.5921 13.5298 12.6125 13.5095L18.0665 8.04874C18.2363 7.87894 18.5217 7.87894 18.6915 8.04874L20.1245 9.48183C20.2943 9.66521 20.2943 9.9369 20.1245 10.1067L16.6539 13.5774V13.5706Z" fill="white"/>
<path d="M16.6944 14.1006L26.1013 23.5074V27.6234L12.6124 14.1346C12.6124 14.1346 12.5922 14.1142 12.5922 14.1006H16.6944Z" fill="white"/>
<path d="M40.1401 14.1006C40.1401 14.1006 40.1401 14.1142 40.1265 14.121L26.6378 27.6234V23.5074L36.0446 14.1006H40.1401Z" fill="white"/>
<path d="M32.6078 10.0863C32.438 9.91646 32.438 9.63798 32.6078 9.46819L34.0408 8.02829C34.2106 7.87208 34.4892 7.87208 34.659 8.02829L40.1332 13.5026C40.1332 13.5026 40.1672 13.5434 40.174 13.5637H36.092L32.6146 10.0863H32.6078Z" fill="white"/>
<path d="M24.396 13.815L25.211 13.0067C25.3468 12.8709 25.3468 12.6535 25.211 12.5177L23.384 10.7246L22.0936 12.0015L20.5314 13.5637C20.4975 13.5976 20.4974 13.6384 20.4838 13.6791C20.4635 13.7199 20.4294 13.7606 20.4294 13.8082C20.4294 13.8965 20.4635 13.9847 20.5314 14.0595L22.3312 15.8593L22.372 15.9001L24.4096 13.8218L24.396 13.8082V13.815Z" fill="white"/>
</svg>
