<svg width="46" height="45" viewBox="0 0 46 45" fill="none" xmlns="http://www.w3.org/2000/svg">
<g>
<path d="M2.48542 40.45H1.46983V44.8755H1.01559V40.45H0V40.0117H2.48542V40.45Z" fill="white"/>
<path d="M8.52002 40.0117V44.8755H8.06566V42.5986H6.3821V44.8755H5.92773V40.0117H6.3821V42.1603H8.06566V40.0117H8.52002Z" fill="white"/>
<path d="M12.6292 40.45V42.1603H14.2112V42.5986H12.6292V44.4372H14.2806V44.8755H12.1748V40.0117H14.2806V40.45H12.6292Z" fill="white"/>
<path d="M23.7521 40.0117V44.8755H23.3085V41.1181L22.1273 44.8755H21.8172L20.636 41.1181V44.8755H20.1924V40.0117H20.7322L21.9722 43.9669L23.2123 40.0117H23.7521Z" fill="white"/>
<path d="M27.4082 40.0117H27.8733V44.8755H27.4082V40.0117Z" fill="white"/>
<path d="M33.533 43.4008H32.1702L31.7745 44.8814H31.3203L32.571 40.0176H33.1321L34.3829 44.8814H33.9285L33.533 43.4008ZM33.4636 42.9412L32.8489 40.5681L32.2343 42.9412H33.4636Z" fill="white"/>
<path d="M41.3101 40.0117V44.8755H40.8664V41.1181L39.6852 44.8755H39.37L38.1886 41.1181V44.8755H37.7451V40.0117H38.2849L39.5249 43.9669L40.7649 40.0117H41.3047H41.3101Z" fill="white"/>
<path d="M44.9658 40.0117H45.4308V44.8755H44.9658V40.0117Z" fill="white"/>
<path d="M34.6998 29.3016C41.3186 22.6828 41.3186 11.9517 34.6998 5.33292C28.081 -1.28585 17.3499 -1.28587 10.7311 5.33291C4.11235 11.9517 4.11236 22.6828 10.7311 29.3016C17.3499 35.9204 28.081 35.9204 34.6998 29.3016Z" fill="#606060"/>
<path d="M22.7151 34.6344C13.1693 34.6344 5.39795 26.8684 5.39795 17.3172C5.39795 7.76603 13.1639 0 22.7151 0C32.2663 0 40.0324 7.76603 40.0324 17.3172C40.0324 26.8684 32.2663 34.6344 22.7151 34.6344ZM22.7151 0.737585C13.5755 0.737585 6.13547 8.17223 6.13547 17.3119C6.13547 26.4515 13.5701 33.8915 22.7151 33.8915C31.8601 33.8915 39.2948 26.4569 39.2948 17.3119C39.2948 8.16689 31.8601 0.737585 22.7151 0.737585Z" fill="white"/>
<path d="M24.6393 28.4879H34.9549C35.158 28.2688 35.3503 28.0389 35.5427 27.8091H24.6072C24.6179 28.055 24.6286 28.2795 24.6393 28.4879Z" fill="#E8E8E8"/>
<path d="M20.8287 27.8091H9.89317C10.0802 28.0389 10.2781 28.2688 10.4812 28.4879H20.7967C20.8074 28.2795 20.818 28.055 20.8287 27.8091Z" fill="#E8E8E8"/>
<path d="M24.5325 26.3019H36.6384C36.7827 26.0774 36.9217 25.8529 37.0553 25.6231H24.5004C24.511 25.8529 24.5218 26.0827 24.5325 26.3019Z" fill="#C0C0C0"/>
<path d="M20.9407 25.6284H8.38576C8.51938 25.8582 8.65823 26.0827 8.80254 26.3072H20.9086C20.9193 26.0881 20.93 25.8582 20.9407 25.6284Z" fill="#C0C0C0"/>
<path d="M21.0533 23.3088H16.4567C16.1788 23.4851 15.9008 23.6401 15.6175 23.7631C15.532 23.6188 15.4679 23.4638 15.4038 23.3088H7.26365C7.35452 23.5386 7.44539 23.7631 7.54694 23.9876H21.0212C21.0319 23.7631 21.0426 23.5332 21.0533 23.3088Z" fill="#909090"/>
<path d="M29.8183 23.7631C29.5404 23.6401 29.2571 23.4851 28.9791 23.3088H24.3827C24.3933 23.5332 24.4041 23.7631 24.4148 23.9876H37.889C37.9852 23.7631 38.0815 23.5386 38.1723 23.3088H30.0322C29.9734 23.4638 29.9038 23.6188 29.8183 23.7631Z" fill="#909090"/>
<path d="M18.573 21.4915H21.1385C21.1492 21.2617 21.1599 21.0372 21.1706 20.8127H19.161C18.9739 21.0426 18.7761 21.2724 18.573 21.4915Z" fill="#505050"/>
<path d="M30.31 20.8127C30.3261 21.0319 30.3368 21.2564 30.3368 21.4915H38.7602C38.819 21.267 38.8725 21.0426 38.9206 20.8127H30.31Z" fill="#505050"/>
<path d="M24.26 20.8127C24.2706 21.0319 24.2812 21.2617 24.2919 21.4915H26.8575C26.6544 21.2724 26.4567 21.0479 26.2696 20.8127H24.26Z" fill="#505050"/>
<path d="M15.1253 20.8127H6.51485C6.56295 21.0426 6.6163 21.267 6.67509 21.4915H15.0985C15.0985 21.2617 15.1092 21.0319 15.1253 20.8127Z" fill="#505050"/>
<path d="M12.2821 14.4684C12.2072 14.4684 12.1271 14.431 12.0844 14.3615C12.0096 14.2493 12.0416 14.0996 12.1484 14.0302C15.2591 11.935 18.0064 12.0472 19.7648 12.5122C21.6729 13.0146 22.8274 14.0088 22.8755 14.0462C22.9771 14.1317 22.9878 14.2867 22.8969 14.3829C22.8114 14.4845 22.6564 14.4952 22.5602 14.4043C22.5602 14.4043 21.427 13.4369 19.6205 12.9665C17.21 12.3358 14.7888 12.8276 12.4157 14.4257C12.3729 14.4524 12.3302 14.4684 12.2821 14.4684Z" fill="white"/>
<path d="M13.164 15.2488C13.164 15.2488 13.1158 15.2488 13.0891 15.2381C12.9608 15.1953 12.8913 15.0617 12.9341 14.9388C13.351 13.6239 14.3986 12.897 14.4414 12.865C14.5483 12.7901 14.698 12.8169 14.7782 12.9291C14.853 13.036 14.8262 13.1857 14.714 13.2605C14.714 13.2605 13.7573 13.9286 13.3938 15.0831C13.3617 15.1846 13.2656 15.2488 13.164 15.2488Z" fill="white"/>
<path d="M14.5806 14.8479C14.5806 14.8479 14.5326 14.8479 14.5059 14.8372C14.3776 14.7945 14.3081 14.6608 14.3508 14.5379C14.7677 13.2231 15.8154 12.4962 15.8581 12.4641C15.965 12.3893 16.1146 12.416 16.1894 12.5283C16.2643 12.6352 16.2376 12.7848 16.1254 12.8596C16.1254 12.8596 15.1685 13.5277 14.8051 14.6822C14.773 14.7838 14.6768 14.8479 14.5753 14.8479H14.5806Z" fill="white"/>
<path d="M15.9381 14.6555C15.9381 14.6555 15.8901 14.6555 15.8634 14.6448C15.7351 14.6021 15.6656 14.4684 15.7083 14.3455C16.1252 13.0307 17.1727 12.3038 17.2155 12.2717C17.3224 12.1969 17.4721 12.2236 17.5523 12.3358C17.6271 12.4427 17.6003 12.5924 17.4881 12.6672C17.4881 12.6672 16.5314 13.3353 16.1679 14.4898C16.1358 14.5914 16.0397 14.6555 15.9381 14.6555Z" fill="white"/>
<path d="M17.6535 13.8752C17.6108 13.8752 17.568 13.8645 17.5253 13.8377C17.413 13.7683 17.381 13.6186 17.4505 13.5064C18.0972 12.4748 18.7012 12.3305 18.7653 12.3145C18.8936 12.2877 19.0219 12.3733 19.0486 12.5015C19.0753 12.6298 18.9897 12.7527 18.8615 12.7848C18.8454 12.7848 18.3805 12.9184 17.8567 13.7576C17.8086 13.8324 17.7337 13.8698 17.6535 13.8698V13.8752Z" fill="white"/>
<path d="M18.9313 15.5267C18.9313 15.5267 18.8885 15.5267 18.8671 15.516C18.7388 15.4786 18.664 15.345 18.7014 15.2167C19.0381 14.0355 19.6475 13.7415 19.717 13.7148C19.8399 13.6614 19.9788 13.7148 20.0322 13.8377C20.0857 13.9607 20.0322 14.0996 19.9093 14.1531C19.8933 14.1638 19.4337 14.4043 19.1611 15.3503C19.129 15.4572 19.0329 15.5267 18.9313 15.5267Z" fill="white"/>
<path d="M22.7152 14.4684C22.6244 14.4684 22.5389 14.4203 22.5015 14.3348C22.4908 14.3188 21.8334 12.9986 20.3582 11.8655C18.386 10.3476 15.9594 9.85584 13.1534 10.401C13.0251 10.4277 12.8968 10.3422 12.8701 10.2086C12.8434 10.075 12.929 9.95205 13.0626 9.92532C16.7452 9.20377 19.2305 10.3796 20.6683 11.4967C22.229 12.7046 22.9077 14.0676 22.9345 14.121C22.9933 14.2386 22.945 14.3829 22.8221 14.4417C22.79 14.4577 22.7527 14.4684 22.7152 14.4684Z" fill="white"/>
<path d="M13.6132 11.4646C13.5597 11.4646 13.501 11.4433 13.4583 11.4058C13.3567 11.3203 13.346 11.1653 13.4315 11.0691C14.3295 10.0162 15.5747 9.75963 15.6282 9.74895C15.7565 9.72222 15.8847 9.80774 15.9115 9.93602C15.9382 10.0643 15.8528 10.1926 15.7245 10.2193C15.7084 10.2193 14.5806 10.4652 13.8003 11.3845C13.7522 11.4379 13.6827 11.47 13.6185 11.47L13.6132 11.4646Z" fill="white"/>
<path d="M15.0721 11.6464C15.0187 11.6464 14.96 11.625 14.9173 11.5876C14.8157 11.502 14.805 11.347 14.8905 11.2508C15.7884 10.1979 17.0337 9.94136 17.0872 9.93067C17.2154 9.90394 17.3437 9.98946 17.3704 10.1177C17.3972 10.246 17.3117 10.3743 17.1835 10.401C17.1674 10.401 16.0396 10.6469 15.2593 11.5662C15.2112 11.6196 15.1416 11.6517 15.0775 11.6517L15.0721 11.6464Z" fill="white"/>
<path d="M16.3979 11.9991C16.3445 11.9991 16.2857 11.9777 16.2429 11.9403C16.1414 11.8548 16.1307 11.6998 16.2162 11.6036C17.1141 10.5507 18.3594 10.2941 18.4128 10.2834C18.5411 10.2567 18.6694 10.3422 18.6961 10.4705C18.7228 10.5988 18.6374 10.7271 18.5091 10.7538C18.4931 10.7538 17.3653 10.9996 16.5849 11.9189C16.5368 11.9724 16.4674 12.0045 16.4033 12.0045L16.3979 11.9991Z" fill="white"/>
<path d="M18.0117 12.0686C17.9315 12.0686 17.8514 12.0258 17.8087 11.9564C17.7392 11.8441 17.7766 11.6945 17.8888 11.625C19.07 10.8981 19.8344 10.989 19.8665 10.9943C20.0001 11.0103 20.0909 11.1333 20.0749 11.2615C20.0588 11.3898 19.9359 11.486 19.8076 11.47C19.7916 11.47 19.1556 11.4112 18.1401 12.0365C18.1027 12.0633 18.0598 12.0739 18.0171 12.0739L18.0117 12.0686Z" fill="white"/>
<path d="M13.0466 18.3915C12.9985 18.3915 12.9557 18.3808 12.913 18.3488C12.8007 18.2739 12.7739 18.1243 12.8488 18.0174C14.9439 14.9067 17.5309 13.9767 19.3374 13.7469C21.2937 13.4957 22.7367 13.982 22.7955 14.0034C22.9185 14.0462 22.988 14.1851 22.9452 14.3081C22.9024 14.431 22.7634 14.5005 22.6405 14.4577C22.6405 14.4577 21.2241 13.9874 19.3748 14.2279C16.9055 14.5486 14.8424 15.9169 13.2443 18.2846C13.1962 18.3541 13.1214 18.3915 13.0466 18.3915Z" fill="white"/>
<path d="M14.1581 18.7817C14.0352 18.7817 13.9283 18.6855 13.9176 18.5626C13.8108 17.1836 14.5055 16.12 14.5376 16.0719C14.6124 15.9596 14.7621 15.9329 14.869 16.0024C14.9813 16.0772 15.0079 16.2269 14.9385 16.3338C14.9278 16.3498 14.3026 17.3172 14.3988 18.5198C14.4095 18.6534 14.3078 18.7657 14.1795 18.7763C14.1742 18.7763 14.1688 18.7763 14.1581 18.7763V18.7817Z" fill="white"/>
<path d="M15.318 17.8784C15.1951 17.8784 15.0881 17.7822 15.0774 17.6593C14.9705 16.2803 15.6654 15.2167 15.6975 15.1686C15.7723 15.0564 15.9219 15.0296 16.0288 15.0991C16.1357 15.1686 16.1678 15.3236 16.0983 15.4305C16.0876 15.4465 15.4623 16.4139 15.5585 17.6165C15.5692 17.7501 15.4675 17.8624 15.3393 17.8731C15.3339 17.8731 15.3287 17.8731 15.318 17.8731V17.8784Z" fill="white"/>
<path d="M16.5046 17.1889C16.3817 17.1889 16.2748 17.0927 16.2641 16.9698C16.1572 15.5908 16.852 14.5272 16.8841 14.4791C16.9589 14.3669 17.1085 14.3401 17.2154 14.4096C17.3223 14.4791 17.3544 14.6341 17.285 14.741C17.2743 14.757 16.6489 15.7245 16.7451 16.927C16.7558 17.0607 16.6543 17.1729 16.526 17.1836C16.5207 17.1836 16.5153 17.1836 16.5046 17.1836V17.1889Z" fill="white"/>
<path d="M17.7392 16.5903C17.6109 16.5903 17.5039 16.4888 17.4986 16.3552C17.4558 14.9762 18.295 14.0141 18.3324 13.9767C18.4232 13.8752 18.573 13.8698 18.6745 13.9553C18.7761 14.0408 18.7813 14.1958 18.6958 14.2921C18.6958 14.2921 17.9476 15.1579 17.985 16.3391C17.985 16.4727 17.8834 16.585 17.7497 16.585C17.7497 16.585 17.7497 16.585 17.7444 16.585L17.7392 16.5903Z" fill="white"/>
<path d="M15.9595 22.4215C15.9595 22.4215 15.9434 22.4215 15.9327 22.4215C15.7991 22.4055 15.7083 22.2879 15.719 22.1543C16.1359 18.4289 18.0011 16.4086 19.4923 15.3664C21.1118 14.2386 22.6138 14.0034 22.678 13.9927C22.8116 13.9714 22.9292 14.0622 22.9506 14.1958C22.9719 14.3295 22.881 14.447 22.7474 14.4684C22.7474 14.4684 21.2775 14.7036 19.7489 15.7726C17.7072 17.1996 16.51 19.3643 16.1946 22.2077C16.1786 22.3307 16.0771 22.4215 15.9541 22.4215H15.9595Z" fill="white"/>
<path d="M17.1244 22.2558C17.0442 22.2558 16.9641 22.2184 16.9214 22.1436C16.1891 20.9731 16.312 19.7064 16.3173 19.6529C16.3334 19.5193 16.4509 19.4231 16.5792 19.4391C16.7128 19.4551 16.8091 19.5727 16.7931 19.701C16.7931 19.717 16.6862 20.8608 17.3276 21.887C17.3971 21.9993 17.3649 22.1489 17.2527 22.2184C17.2153 22.2451 17.1672 22.2558 17.1244 22.2558Z" fill="white"/>
<path d="M17.7391 20.9196C17.6589 20.9196 17.5787 20.8822 17.5359 20.8074C16.8037 19.6369 16.9267 18.3701 16.932 18.3167C16.9481 18.1831 17.0657 18.0869 17.1939 18.1029C17.3276 18.1189 17.4237 18.2365 17.4077 18.3648C17.4077 18.3808 17.3008 19.5246 17.9422 20.5508C18.0116 20.6631 17.9796 20.8127 17.8674 20.8822C17.83 20.9089 17.7819 20.9196 17.7391 20.9196Z" fill="white"/>
<path d="M18.4715 19.7544C18.3913 19.7544 18.3112 19.717 18.2684 19.6422C17.5362 18.4717 17.6591 17.205 17.6644 17.1515C17.6804 17.0179 17.798 16.9217 17.9263 16.9377C18.0599 16.9538 18.1562 17.0713 18.1402 17.1996C18.1402 17.2157 18.0333 18.3594 18.6747 19.3857C18.7441 19.4979 18.712 19.6476 18.5998 19.717C18.5623 19.7438 18.5142 19.7544 18.4715 19.7544Z" fill="white"/>
<path d="M19.289 18.6534C19.2035 18.6534 19.1233 18.6107 19.0805 18.5305C18.4017 17.3279 18.7011 16.1039 18.7117 16.0558C18.7438 15.9276 18.8721 15.8474 19.0057 15.8795C19.134 15.9115 19.2142 16.0398 19.1822 16.1734C19.1822 16.1895 18.9255 17.2691 19.5028 18.2953C19.5669 18.4129 19.5295 18.5572 19.4119 18.6214C19.3745 18.6427 19.3318 18.6534 19.2944 18.6534H19.289Z" fill="white"/>
<path d="M20.2728 17.7662C20.1659 17.7662 20.0696 17.6967 20.0429 17.5845C19.6741 16.1734 19.9842 15.1526 20.0002 15.1098C20.0377 14.9815 20.1765 14.912 20.2994 14.9548C20.4277 14.9922 20.4972 15.1312 20.4545 15.2541C20.4545 15.2701 20.1712 16.1948 20.5026 17.4615C20.5347 17.5898 20.4598 17.7234 20.3315 17.7555C20.3102 17.7555 20.2889 17.7608 20.2728 17.7608V17.7662Z" fill="white"/>
<path d="M22.7152 14.4684C22.587 14.4684 22.4802 14.3669 22.4748 14.2333C22.4748 14.2333 22.4268 12.7421 21.5609 11.0905C20.4011 8.88309 18.4074 7.42395 15.6281 6.75051C15.4998 6.71844 15.4197 6.59016 15.4518 6.46189C15.4839 6.33361 15.612 6.25344 15.7403 6.28551C19.3855 7.17275 21.1547 9.27861 21.9939 10.8927C22.9078 12.6405 22.9505 14.1638 22.9558 14.2279C22.9558 14.3615 22.8543 14.4684 22.7207 14.4738C22.7207 14.4738 22.7207 14.4738 22.7153 14.4738L22.7152 14.4684Z" fill="white"/>
<path d="M15.7029 7.93705C15.612 7.93705 15.5264 7.8836 15.4837 7.79809C15.4302 7.67516 15.4838 7.53619 15.6014 7.4774C16.8574 6.90016 18.0973 7.18343 18.1507 7.19412C18.279 7.22619 18.3592 7.35447 18.3272 7.48274C18.2951 7.61102 18.1668 7.69119 18.0385 7.65912C18.0278 7.65912 16.9001 7.40257 15.8044 7.91033C15.7724 7.92636 15.735 7.93171 15.7029 7.93171V7.93705Z" fill="white"/>
<path d="M16.9534 8.71206C16.8625 8.71206 16.7771 8.65861 16.7343 8.57309C16.6809 8.45016 16.7343 8.3112 16.8519 8.2524C18.1079 7.67516 19.3479 7.95844 19.4014 7.96913C19.5296 8.0012 19.6099 8.12947 19.5778 8.25775C19.5457 8.38602 19.4174 8.4662 19.2892 8.43413C19.2785 8.43413 18.1507 8.17758 17.0551 8.68534C17.023 8.70137 16.9855 8.70671 16.9534 8.70671V8.71206Z" fill="white"/>
<path d="M18.0119 9.58326C17.921 9.58326 17.8355 9.52981 17.7928 9.4443C17.7393 9.32136 17.7928 9.1824 17.9103 9.12361C19.1664 8.54636 20.4064 8.82964 20.4598 8.84033C20.5881 8.8724 20.6683 9.00068 20.6362 9.12895C20.6042 9.25723 20.4759 9.3374 20.3476 9.30533C20.3316 9.30533 19.2092 9.04878 18.1135 9.55654C18.0814 9.57257 18.0439 9.57792 18.0119 9.57792V9.58326Z" fill="white"/>
<path d="M21.3578 10.5133C21.3204 10.5133 21.283 10.5026 21.2456 10.4865C21.2349 10.4812 20.6525 10.1926 19.4766 10.3102C19.343 10.3208 19.2253 10.2246 19.2146 10.0964C19.2039 9.96274 19.3002 9.84515 19.4284 9.83446C20.7646 9.70619 21.4381 10.0536 21.4648 10.0643C21.5824 10.1284 21.6252 10.2727 21.5664 10.3903C21.5236 10.4705 21.438 10.5186 21.3525 10.5186L21.3578 10.5133Z" fill="white"/>
<path d="M19.9734 12.4374C19.8665 12.4374 19.7703 12.3679 19.7436 12.261C19.7115 12.1327 19.7863 11.9991 19.9145 11.967C20.5719 11.7907 20.9782 11.8227 20.9942 11.8227C21.1278 11.8334 21.2241 11.951 21.2134 12.0846C21.2027 12.2183 21.085 12.3145 20.9567 12.3038C20.9514 12.3038 20.6094 12.2824 20.0428 12.432C20.0214 12.4374 20.0001 12.4427 19.9787 12.4427L19.9734 12.4374Z" fill="white"/>
<path d="M21.9615 11.6196C21.9295 11.6196 21.9028 11.6143 21.8707 11.6036C21.86 11.6036 21.5446 11.4753 20.962 11.4539C20.8284 11.4486 20.7268 11.3364 20.7322 11.2027C20.7375 11.0691 20.8498 10.9676 20.9834 10.9729C21.6675 10.9996 22.0417 11.1493 22.0577 11.16C22.1806 11.2081 22.2394 11.3524 22.186 11.4753C22.1485 11.5662 22.0577 11.625 21.9615 11.625V11.6196Z" fill="white"/>
<path d="M19.3374 13.6453C19.2733 13.6453 19.2091 13.6186 19.161 13.5705C19.0701 13.4743 19.0755 13.3193 19.1717 13.2284C19.5779 12.8489 19.9841 12.6565 20.0002 12.6512C20.1231 12.5977 20.262 12.6512 20.3208 12.7688C20.3742 12.8917 20.3208 13.0307 20.2032 13.0895C20.2032 13.0895 19.8451 13.2551 19.4977 13.5812C19.4496 13.6239 19.3909 13.6453 19.3321 13.6453H19.3374Z" fill="white"/>
<path d="M33.1539 14.4684C33.1058 14.4684 33.0631 14.4577 33.0203 14.4257C30.6526 12.8276 28.226 12.3359 25.8155 12.9665C24.009 13.4369 22.8866 14.399 22.8759 14.4043C22.7743 14.4898 22.6247 14.4791 22.5392 14.3776C22.4537 14.276 22.4643 14.1264 22.5605 14.0409C22.6086 13.9981 23.7631 13.0093 25.6712 12.5069C27.4296 12.0419 30.1769 11.9296 33.2876 14.0248C33.3998 14.0996 33.4266 14.2493 33.3518 14.3562C33.3037 14.4257 33.2288 14.4631 33.1539 14.4631V14.4684Z" fill="white"/>
<path d="M32.2717 15.2488C32.1701 15.2488 32.0738 15.1846 32.0418 15.0831C31.6783 13.9286 30.7323 13.2658 30.7216 13.2605C30.6147 13.1857 30.5827 13.036 30.6575 12.9238C30.7324 12.8169 30.8819 12.7848 30.9888 12.8596C31.0316 12.8917 32.0792 13.6133 32.4961 14.9334C32.5389 15.0617 32.464 15.1953 32.3411 15.2327C32.3144 15.2381 32.2931 15.2434 32.2663 15.2434L32.2717 15.2488Z" fill="white"/>
<path d="M30.8555 14.8479C30.754 14.8479 30.6578 14.7838 30.6257 14.6822C30.2569 13.5224 29.3162 12.865 29.3056 12.8596C29.1933 12.7848 29.1665 12.6352 29.2414 12.5229C29.3162 12.4107 29.4659 12.3839 29.5781 12.4588C29.6209 12.4908 30.6685 13.2124 31.0854 14.5326C31.1282 14.6608 31.0533 14.7945 30.9304 14.8319C30.9037 14.8372 30.8822 14.8426 30.8555 14.8426V14.8479Z" fill="white"/>
<path d="M29.498 14.6555C29.3965 14.6555 29.3002 14.5914 29.2681 14.4898C28.9047 13.3353 27.9587 12.6726 27.948 12.6672C27.8411 12.5924 27.8091 12.4427 27.8839 12.3305C27.9587 12.2236 28.1083 12.1915 28.2152 12.2664C28.258 12.2984 29.3056 13.02 29.7225 14.3402C29.7652 14.4684 29.6904 14.6021 29.5675 14.6395C29.5407 14.6448 29.5194 14.6502 29.4927 14.6502L29.498 14.6555Z" fill="white"/>
<path d="M27.7768 13.8752C27.6966 13.8752 27.6165 13.8377 27.5738 13.7629C27.0446 12.9131 26.5742 12.7902 26.5742 12.7902C26.4459 12.7634 26.3605 12.6405 26.3872 12.5069C26.4139 12.3786 26.5369 12.2931 26.6705 12.3198C26.7346 12.3305 27.3386 12.4802 27.9853 13.5117C28.0548 13.6239 28.0227 13.7736 27.9104 13.8431C27.873 13.8698 27.8249 13.8805 27.7821 13.8805L27.7768 13.8752Z" fill="white"/>
<path d="M26.505 15.5267C26.3981 15.5267 26.302 15.4572 26.2753 15.3503C25.9973 14.3883 25.5322 14.1531 25.5269 14.1531C25.404 14.0996 25.3505 13.9607 25.404 13.8377C25.4574 13.7148 25.6018 13.6614 25.7247 13.7148C25.7942 13.7469 26.4035 14.0408 26.7402 15.2167C26.7776 15.345 26.7027 15.4786 26.5745 15.516C26.5531 15.5214 26.5318 15.5267 26.5104 15.5267H26.505Z" fill="white"/>
<path d="M22.7152 14.4684C22.6778 14.4684 22.6458 14.4631 22.6084 14.4417C22.4908 14.3829 22.4374 14.2386 22.4962 14.121C22.5229 14.0622 23.2017 12.6993 24.7624 11.4967C26.2002 10.385 28.6855 9.20913 32.3681 9.92533C32.4964 9.95206 32.5819 10.075 32.5606 10.2086C32.5338 10.3369 32.4109 10.4224 32.2773 10.401C29.4712 9.85585 27.05 10.3476 25.0725 11.8655C23.5919 13.004 22.9345 14.3241 22.9292 14.3348C22.8864 14.4203 22.8008 14.4684 22.7152 14.4684Z" fill="white"/>
<path d="M31.8227 11.4646C31.7532 11.4646 31.689 11.4379 31.6409 11.3791C30.8499 10.4545 29.7276 10.2193 29.7169 10.214C29.5886 10.1872 29.503 10.059 29.5297 9.93068C29.5565 9.8024 29.6848 9.71688 29.813 9.74361C29.8665 9.7543 31.1119 10.0162 32.0098 11.0638C32.0953 11.1653 32.0846 11.315 31.9831 11.4005C31.9403 11.4379 31.8815 11.4593 31.828 11.4593L31.8227 11.4646Z" fill="white"/>
<path d="M30.3639 11.6464C30.2944 11.6464 30.2302 11.6196 30.1821 11.5608C29.3965 10.6415 28.2688 10.401 28.2581 10.3957C28.1298 10.3689 28.0442 10.2407 28.071 10.1124C28.0977 9.98412 28.2206 9.8986 28.3543 9.92533C28.4077 9.93602 29.6531 10.1979 30.551 11.2455C30.6366 11.3471 30.6258 11.4967 30.5243 11.5822C30.4815 11.6196 30.4227 11.641 30.3693 11.641L30.3639 11.6464Z" fill="white"/>
<path d="M29.038 11.9991C28.9686 11.9991 28.9044 11.9724 28.8563 11.9136C28.0652 10.989 26.9429 10.7538 26.9322 10.7484C26.8039 10.7217 26.7184 10.5934 26.7451 10.4652C26.7718 10.3369 26.9001 10.2514 27.0284 10.2781C27.0818 10.2888 28.3272 10.5507 29.2252 11.5983C29.3107 11.6998 29.3 11.8495 29.1984 11.935C29.1557 11.9724 29.0968 11.9938 29.0434 11.9938L29.038 11.9991Z" fill="white"/>
<path d="M27.4241 12.0686C27.3814 12.0686 27.3386 12.0579 27.3012 12.0312C26.2804 11.4058 25.6389 11.4646 25.6336 11.4646C25.5053 11.4807 25.3824 11.3845 25.3663 11.2562C25.3503 11.1279 25.4412 11.005 25.5748 10.9889C25.6069 10.9889 26.3659 10.8981 27.5524 11.6196C27.6646 11.6891 27.702 11.8388 27.6325 11.951C27.5898 12.0258 27.5097 12.0633 27.4295 12.0633L27.4241 12.0686Z" fill="white"/>
<path d="M32.3896 18.3915C32.3148 18.3915 32.2345 18.3541 32.1918 18.2846C30.5883 15.9062 28.5199 14.5379 26.0399 14.2226C24.1959 13.9874 22.8117 14.4524 22.7956 14.4577C22.6674 14.5005 22.5337 14.4364 22.491 14.3081C22.4482 14.1852 22.5124 14.0462 22.6406 14.0034C22.6994 13.9821 24.1425 13.501 26.0987 13.7469C27.8999 13.9767 30.4921 14.9067 32.5873 18.0174C32.6621 18.1296 32.6301 18.2793 32.5232 18.3488C32.4804 18.3755 32.4377 18.3915 32.3896 18.3915Z" fill="white"/>
<path d="M31.2778 18.7817C31.2778 18.7817 31.2671 18.7817 31.2564 18.7817C31.1228 18.771 31.0266 18.6534 31.0373 18.5252C31.1335 17.3119 30.5028 16.3498 30.4975 16.3391C30.4227 16.2269 30.4548 16.0772 30.567 16.0077C30.6793 15.9329 30.8289 15.965 30.8984 16.0772C30.9304 16.12 31.6252 17.189 31.5183 18.5679C31.5076 18.6962 31.4007 18.7871 31.2778 18.7871V18.7817Z" fill="white"/>
<path d="M30.1179 17.8784C30.1179 17.8784 30.1072 17.8784 30.0965 17.8784C29.9629 17.8677 29.8667 17.7502 29.8774 17.6219C29.9736 16.4086 29.3429 15.4465 29.3376 15.4358C29.2628 15.3236 29.2948 15.174 29.407 15.1045C29.5193 15.0296 29.669 15.0617 29.7385 15.174C29.7705 15.2167 30.4653 16.2857 30.3584 17.6646C30.3477 17.7929 30.2409 17.8838 30.1179 17.8838V17.8784Z" fill="white"/>
<path d="M28.9312 17.1889C28.9312 17.1889 28.9205 17.1889 28.9098 17.1889C28.7761 17.1782 28.68 17.0607 28.6907 16.9324C28.7869 15.7245 28.1562 14.757 28.1508 14.7464C28.076 14.6341 28.108 14.4845 28.2203 14.415C28.3325 14.3401 28.4822 14.3722 28.5517 14.4845C28.5838 14.5272 29.2786 15.5962 29.1717 16.9751C29.161 17.1034 29.0541 17.1943 28.9312 17.1943V17.1889Z" fill="white"/>
<path d="M27.6967 16.5903C27.6967 16.5903 27.6967 16.5903 27.6914 16.5903C27.5577 16.5903 27.4562 16.4727 27.4562 16.3445C27.4936 15.1579 26.7507 14.3081 26.7453 14.2974C26.6545 14.1958 26.6652 14.0462 26.7667 13.9553C26.8683 13.8698 27.0179 13.8752 27.1087 13.9767C27.1461 14.0195 27.9853 14.9815 27.9426 16.3552C27.9426 16.4834 27.8303 16.5903 27.7021 16.5903H27.6967Z" fill="white"/>
<path d="M29.4765 22.4215C29.3536 22.4215 29.2519 22.3307 29.2359 22.2077C28.9152 19.3589 27.7127 17.1889 25.6656 15.7619C24.137 14.6983 22.6993 14.4684 22.6833 14.4684C22.5496 14.447 22.4641 14.3241 22.4801 14.1958C22.5015 14.0622 22.6244 13.9767 22.7527 13.9927C22.8168 14.0034 24.3187 14.2386 25.9382 15.3664C27.4294 16.4032 29.2948 18.4236 29.7117 22.1543C29.7277 22.2879 29.6315 22.4055 29.4979 22.4215C29.4872 22.4215 29.4819 22.4215 29.4712 22.4215H29.4765Z" fill="white"/>
<path d="M28.3061 22.2558C28.2633 22.2558 28.2206 22.2451 28.1778 22.2184C28.0656 22.1489 28.0336 21.9993 28.1031 21.887C28.7498 20.8555 28.6375 19.7117 28.6375 19.701C28.6215 19.5674 28.7177 19.4498 28.8513 19.4391C28.9849 19.4231 29.1025 19.5193 29.1132 19.6529C29.1185 19.7064 29.2415 20.9731 28.5093 22.1436C28.4612 22.2184 28.3863 22.2558 28.3061 22.2558Z" fill="white"/>
<path d="M27.6966 20.9196C27.6538 20.9196 27.6111 20.9089 27.5683 20.8822C27.4561 20.8127 27.4241 20.6631 27.4936 20.5508C28.1403 19.5193 28.028 18.3755 28.028 18.3648C28.012 18.2312 28.1082 18.1136 28.2418 18.1029C28.3754 18.0869 28.493 18.1831 28.5037 18.3167C28.509 18.3701 28.6319 19.6369 27.8996 20.8074C27.8515 20.8822 27.7768 20.9196 27.6966 20.9196Z" fill="white"/>
<path d="M26.9646 19.7545C26.9219 19.7545 26.8791 19.7438 26.8363 19.7171C26.7241 19.6476 26.6921 19.4979 26.7616 19.3857C27.4029 18.3595 27.2961 17.2103 27.2961 17.1996C27.28 17.066 27.3762 16.9484 27.5098 16.9377C27.6434 16.9217 27.761 17.0179 27.7717 17.1515C27.777 17.205 27.9 18.4717 27.1678 19.6422C27.1197 19.7171 27.0448 19.7545 26.9646 19.7545Z" fill="white"/>
<path d="M26.147 18.6534C26.1095 18.6534 26.0667 18.6427 26.0293 18.6214C25.9117 18.5572 25.8743 18.4076 25.9384 18.2953C26.521 17.2584 26.2592 16.1841 26.2592 16.1734C26.2271 16.0451 26.3072 15.9115 26.4355 15.8795C26.5637 15.8474 26.6974 15.9276 26.7295 16.0558C26.7401 16.1093 27.0395 17.3333 26.3607 18.5305C26.3179 18.6107 26.2325 18.6534 26.1523 18.6534H26.147Z" fill="white"/>
<path d="M25.1631 17.7662C25.1631 17.7662 25.1203 17.7662 25.1043 17.7608C24.976 17.7288 24.9013 17.5952 24.9334 17.4669C25.2701 16.1895 24.9867 15.2702 24.9814 15.2595C24.944 15.1312 25.0135 14.9976 25.1364 14.9602C25.2647 14.9227 25.3983 14.9922 25.4357 15.1152C25.4518 15.1579 25.7617 16.1788 25.3929 17.5898C25.3662 17.6967 25.2647 17.7715 25.1631 17.7715V17.7662Z" fill="white"/>
<path d="M22.7152 14.4684C22.7152 14.4684 22.7152 14.4684 22.7098 14.4684C22.5762 14.4684 22.4747 14.3562 22.4747 14.2226C22.4747 14.1584 22.5228 12.6352 23.4368 10.8874C24.2759 9.27327 26.045 7.16741 29.6902 6.28017C29.8185 6.2481 29.9468 6.32827 29.9788 6.45655C30.0109 6.58482 29.9307 6.7131 29.8024 6.74517C27.0231 7.41861 25.0296 8.88309 23.8697 11.0852C23.0039 12.7367 22.9558 14.2119 22.9558 14.2279C22.9558 14.3562 22.8435 14.4631 22.7152 14.4631L22.7152 14.4684Z" fill="white"/>
<path d="M29.7332 7.93706C29.7011 7.93706 29.6637 7.93171 29.6316 7.91568C28.5306 7.40792 27.4081 7.66447 27.3974 7.66447C27.2691 7.69654 27.1408 7.61637 27.1088 7.48275C27.0767 7.35447 27.1569 7.22619 27.2852 7.19413C27.3386 7.18344 28.5786 6.90016 29.8347 7.4774C29.9576 7.53085 30.0057 7.67516 29.9522 7.79809C29.9095 7.88361 29.824 7.93706 29.7332 7.93706Z" fill="white"/>
<path d="M28.4824 8.71206C28.4504 8.71206 28.413 8.70672 28.3809 8.69068C27.2799 8.18292 26.1575 8.43948 26.1468 8.43948C26.0185 8.47155 25.8902 8.39137 25.8582 8.25775C25.8261 8.12948 25.9062 8.0012 26.0345 7.96913C26.0879 7.95844 27.3279 7.67517 28.5839 8.25241C28.7069 8.30586 28.755 8.45017 28.7015 8.5731C28.6588 8.65861 28.5733 8.71206 28.4824 8.71206Z" fill="white"/>
<path d="M27.4242 9.58326C27.3921 9.58326 27.3547 9.57792 27.3227 9.56188C26.2216 9.05413 25.0992 9.31068 25.0886 9.31068C24.9603 9.34275 24.832 9.26258 24.7999 9.12895C24.7678 9.00068 24.8479 8.8724 24.9762 8.84033C25.0297 8.82964 26.2697 8.54637 27.5257 9.12361C27.6486 9.17706 27.6967 9.32137 27.6433 9.4443C27.6005 9.52982 27.515 9.58326 27.4242 9.58326Z" fill="white"/>
<path d="M24.0782 10.5133C23.9927 10.5133 23.9072 10.4652 23.8645 10.385C23.8057 10.2674 23.8484 10.1231 23.966 10.0643C23.9927 10.0483 24.6662 9.7062 26.0024 9.83447C26.136 9.84516 26.2322 9.96275 26.2162 10.0964C26.2055 10.23 26.0825 10.3262 25.9543 10.3102C24.7731 10.1979 24.1904 10.4865 24.1851 10.4865C24.1477 10.5026 24.1103 10.5133 24.0729 10.5133H24.0782Z" fill="white"/>
<path d="M25.4625 12.4374C25.4625 12.4374 25.4197 12.4374 25.3983 12.4267C24.8317 12.2717 24.4897 12.2984 24.4843 12.2984C24.3561 12.3091 24.2385 12.2076 24.2278 12.0793C24.2171 11.9457 24.3133 11.8334 24.4469 11.8227C24.4629 11.8227 24.8638 11.7907 25.5265 11.9671C25.6548 11.9991 25.7297 12.1327 25.6976 12.261C25.6709 12.3679 25.5694 12.4374 25.4678 12.4374H25.4625Z" fill="white"/>
<path d="M23.4744 11.6196C23.3782 11.6196 23.2872 11.5608 23.2498 11.47C23.2017 11.3471 23.2605 11.2081 23.3781 11.16C23.3941 11.1546 23.7683 11.005 24.4524 10.9729C24.586 10.9729 24.6982 11.0691 24.7036 11.2027C24.7089 11.3364 24.6074 11.4486 24.4738 11.454C23.8859 11.4753 23.5652 11.6036 23.5652 11.6036C23.5385 11.6143 23.5064 11.6196 23.4744 11.6196Z" fill="white"/>
<path d="M26.0987 13.6453C26.0399 13.6453 25.9811 13.6239 25.933 13.5812C25.5803 13.2498 25.2328 13.0895 25.2275 13.0895C25.1045 13.036 25.0564 12.8917 25.1099 12.7688C25.1633 12.6458 25.3077 12.5977 25.4306 12.6512C25.4467 12.6565 25.8529 12.849 26.2591 13.2284C26.3553 13.3193 26.3607 13.4689 26.2698 13.5705C26.2217 13.6186 26.1575 13.6453 26.0934 13.6453H26.0987Z" fill="white"/>
<path d="M21.4698 29.9738C21.4698 29.9738 21.4644 30.0165 21.4591 30.0165C21.3255 30.0112 21.2238 30.0913 21.2292 29.9577L21.8599 13.9286C21.8653 13.795 21.9775 13.6934 22.1111 13.6988C22.2447 13.7041 22.3463 13.8164 22.3409 13.95L21.7103 29.9791C21.7103 30.1074 21.598 29.9791 21.4698 29.9791V29.9738Z" fill="white"/>
<path d="M23.9657 30.102C23.8375 30.102 23.7306 30.102 23.7252 29.9738L23.0945 13.9446C23.0891 13.811 23.1908 13.6988 23.3244 13.6934C23.458 13.6881 23.5702 13.7896 23.5756 13.9233L24.2062 29.9524C24.2116 30.086 24.11 29.9631 23.9764 29.9684C23.9764 29.9684 23.9711 30.102 23.9657 30.102Z" fill="white"/>
<path d="M22.715 29.5194C19.5348 29.5194 16.7289 30.5029 15.0399 31.9994C15.1254 32.0422 15.211 32.0903 15.3018 32.1331C15.3927 32.1758 15.4782 32.2239 15.5691 32.2667C17.1618 30.9465 19.77 30.0807 22.715 30.0807C25.66 30.0807 28.2737 30.9465 29.8664 32.272C29.9573 32.2293 30.0428 32.1812 30.1337 32.1384C30.2192 32.0956 30.3101 32.0475 30.3956 32.0048C28.7066 30.5082 25.8952 29.5194 22.715 29.5194Z" fill="white"/>
<path d="M16.1306 30.1929C15.6763 29.9738 15.1631 29.7226 14.185 29.7226C13.2069 29.7226 12.7205 29.9577 12.2769 30.1769C12.4747 30.3372 12.6725 30.4922 12.8809 30.6472C13.207 30.5082 13.5864 30.4013 14.1904 30.4013C15.0135 30.4013 15.4144 30.5991 15.842 30.8022C16.013 30.8824 16.1894 30.9732 16.3979 31.0481C16.6972 30.877 17.0124 30.7167 17.3438 30.5724C16.8093 30.5136 16.478 30.3586 16.136 30.1929H16.1306Z" fill="#808080"/>
<path d="M32.1702 30.5991C31.3471 30.5991 30.9462 30.4013 30.5186 30.1982C30.0643 29.9791 29.5511 29.7279 28.573 29.7279C27.7179 29.7279 27.2209 29.9203 26.804 30.1127C27.1568 30.2196 27.5041 30.3372 27.8302 30.4708C28.0386 30.4281 28.2791 30.4013 28.573 30.4013C29.3962 30.4013 29.7971 30.5991 30.2246 30.8022C30.5934 30.9839 31.0103 31.1817 31.6838 31.2458C32.0205 31.0267 32.3466 30.8022 32.6673 30.567C32.5176 30.5831 32.3572 30.5938 32.1755 30.5938L32.1702 30.5991Z" fill="#808080"/>
<path d="M22.715 30.0807C19.7647 30.0807 17.1618 30.9465 15.5691 32.2667C15.9753 32.4591 16.387 32.6355 16.8093 32.7958C18.1561 31.7482 20.2994 31.0641 22.7153 31.0641C25.1312 31.0641 27.2745 31.7482 28.6267 32.8012C29.049 32.6408 29.4602 32.4644 29.8664 32.272C28.2737 30.9519 25.6654 30.0807 22.715 30.0807ZM17.4186 33.0203C19.0862 33.5815 20.866 33.8969 22.7207 33.8969C24.5753 33.8969 26.3499 33.5869 28.0175 33.0257C26.7668 32.1758 24.8532 31.636 22.7207 31.636C20.5881 31.636 18.68 32.1758 17.424 33.0257L17.4186 33.0203Z" fill="#606060"/>
<path d="M22.7153 31.0641C20.2994 31.0641 18.1561 31.7482 16.8093 32.7958C16.9055 32.8332 17.0067 32.8706 17.1029 32.9081C17.2098 32.9455 17.3114 32.9775 17.4183 33.015C18.669 32.1705 20.5771 31.6253 22.715 31.6253C24.8529 31.6253 26.7611 32.1705 28.0118 33.015C28.1187 32.9775 28.2255 32.9455 28.3271 32.9081C28.4286 32.8706 28.5248 32.8332 28.6211 32.7958C27.2742 31.7429 25.1255 31.0588 22.7097 31.0588L22.7153 31.0641Z" fill="white"/>
</g>
</svg>
