<svg width="84" height="50" viewBox="0 0 84 50" fill="none" xmlns="http://www.w3.org/2000/svg">
<g clip-path="url(#clip0_79_5965)">
<path d="M26.2292 25.7202H26.777L27.6265 27.8878L28.4704 25.7202H29.007L27.8361 28.5619H27.4002L26.2292 25.7202Z" fill="white"/>
<path d="M30.7256 25.7202H31.2202V28.5395H30.7256V25.7202Z" fill="white"/>
<path d="M33.1819 25.7202H33.6402L35.1492 27.6697V25.7202H35.6355V28.5395H35.2219L33.6681 26.5341V28.5395H33.1819V25.7202Z" fill="white"/>
<path d="M37.5723 25.7202H38.0669V26.8921H39.4111V25.7202H39.9057V28.5395H39.4111V27.3508H38.0669V28.5395H37.5723V25.7202Z" fill="white"/>
<path d="M41.7136 27.1384V27.1301C41.7136 26.3413 42.3256 25.6729 43.1919 25.6729C44.0582 25.6729 44.6618 26.3301 44.6618 27.1245V27.1328C44.6618 27.9216 44.0498 28.59 43.1835 28.59C42.3172 28.59 41.7136 27.9328 41.7136 27.1384ZM44.1421 27.1384V27.1301C44.1421 26.5819 43.748 26.126 43.1835 26.126C42.619 26.126 42.2334 26.5735 42.2334 27.1217V27.1301C42.2334 27.6782 42.6274 28.1341 43.1919 28.1341C43.7564 28.1341 44.1421 27.6866 44.1421 27.1384Z" fill="white"/>
<path d="M46.467 25.7202H46.9952L47.8531 27.0544L48.711 25.7202H49.2392V28.5395H48.7446V26.5173L47.8559 27.8459H47.8391L46.9589 26.5257V28.5395H46.4726V25.7202H46.467Z" fill="white"/>
<path d="M51.1704 25.7206H53.2607V26.1625H51.6678V26.8953H53.0819V27.3372H51.6678V28.0952H53.2831V28.5371H51.1732V25.7178L51.1704 25.7206Z" fill="white"/>
<path d="M54.8871 28.1313L55.1861 27.7761C55.4599 28.0138 55.7226 28.1424 56.0747 28.1424C56.3793 28.1424 56.575 28.0026 56.575 27.7872V27.7788C56.575 27.5803 56.4632 27.4656 55.9378 27.3481C55.337 27.2083 54.9989 27.0209 54.9989 26.5062V26.4979C54.9989 26.014 55.4013 25.6812 55.9602 25.6812C56.3738 25.6812 56.6923 25.807 56.983 26.0364L56.7175 26.4112C56.4604 26.221 56.2117 26.1203 55.9518 26.1203C55.6612 26.1203 55.4935 26.2657 55.4935 26.4559V26.4643C55.4935 26.6853 55.622 26.7775 56.1614 26.9062C56.7566 27.06 57.0668 27.2614 57.0668 27.7313V27.7397C57.0668 28.2711 56.6532 28.5816 56.0608 28.5816C55.6248 28.5816 55.2224 28.4361 54.8843 28.1313H54.8871Z" fill="white"/>
<path d="M26.2292 25.7202H26.777L27.6265 27.8878L28.4704 25.7202H29.007L27.8361 28.5619H27.4002L26.2292 25.7202Z" fill="white"/>
<path d="M30.7256 25.7202H31.2202V28.5395H30.7256V25.7202Z" fill="white"/>
<path d="M33.1819 25.7202H33.6402L35.1492 27.6697V25.7202H35.6355V28.5395H35.2219L33.6681 26.5341V28.5395H33.1819V25.7202Z" fill="white"/>
<path d="M37.5723 25.7202H38.0669V26.8921H39.4111V25.7202H39.9057V28.5395H39.4111V27.3508H38.0669V28.5395H37.5723V25.7202Z" fill="white"/>
<path d="M41.7136 27.1384V27.1301C41.7136 26.3413 42.3256 25.6729 43.1919 25.6729C44.0582 25.6729 44.6618 26.3301 44.6618 27.1245V27.1328C44.6618 27.9216 44.0498 28.59 43.1835 28.59C42.3172 28.59 41.7136 27.9328 41.7136 27.1384ZM44.1421 27.1384V27.1301C44.1421 26.5819 43.748 26.126 43.1835 26.126C42.619 26.126 42.2334 26.5735 42.2334 27.1217V27.1301C42.2334 27.6782 42.6274 28.1341 43.1919 28.1341C43.7564 28.1341 44.1421 27.6866 44.1421 27.1384Z" fill="white"/>
<path d="M46.467 25.7202H46.9952L47.8531 27.0544L48.711 25.7202H49.2392V28.5395H48.7446V26.5173L47.8559 27.8459H47.8391L46.9589 26.5257V28.5395H46.4726V25.7202H46.467Z" fill="white"/>
<path d="M51.1704 25.7206H53.2607V26.1625H51.6678V26.8953H53.0819V27.3372H51.6678V28.0952H53.2831V28.5371H51.1732V25.7178L51.1704 25.7206Z" fill="white"/>
<path d="M54.8871 28.1313L55.1861 27.7761C55.4599 28.0138 55.7226 28.1424 56.0747 28.1424C56.3793 28.1424 56.575 28.0026 56.575 27.7872V27.7788C56.575 27.5803 56.4632 27.4656 55.9378 27.3481C55.337 27.2083 54.9989 27.0209 54.9989 26.5062V26.4979C54.9989 26.014 55.4013 25.6812 55.9602 25.6812C56.3738 25.6812 56.6923 25.807 56.983 26.0364L56.7175 26.4112C56.4604 26.221 56.2117 26.1203 55.9518 26.1203C55.6612 26.1203 55.4935 26.2657 55.4935 26.4559V26.4643C55.4935 26.6853 55.622 26.7775 56.1614 26.9062C56.7566 27.06 57.0668 27.2614 57.0668 27.7313V27.7397C57.0668 28.2711 56.6532 28.5816 56.0608 28.5816C55.6248 28.5816 55.2224 28.4361 54.8843 28.1313H54.8871Z" fill="white"/>
<path d="M0.0251506 34.2428H0V32.3325H7.61226V34.2428H7.60108C7.60108 34.0834 7.47812 32.5982 6.20382 32.5982H4.64728V40.5583C4.64728 41.7022 5.30399 41.8113 5.36547 41.8113V41.8225H2.25238V41.8113C2.31386 41.8113 2.97057 41.7022 2.97057 40.5583V32.5982H1.41402C0.134137 32.5982 0.0251506 34.0834 0.0251506 34.2428Z" fill="white"/>
<path d="M14.6294 36.8216V33.5967C14.6294 32.4528 13.9726 32.3437 13.9112 32.3437V32.3325H17.0243V32.3437C16.9628 32.3437 16.3061 32.4528 16.3061 33.5967V40.5583C16.3061 41.7022 16.9628 41.8113 17.0243 41.8113V41.8225H13.9112V41.8113C13.9726 41.8113 14.6294 41.7022 14.6294 40.5583V37.0901H10.3621V40.5583C10.3621 41.7022 11.0188 41.8113 11.0803 41.8113V41.8225H7.95605V41.8113C8.02871 41.8113 8.68542 41.7022 8.68542 40.5583V33.5967C8.68542 32.4528 8.02871 32.3437 7.95605 32.3437V32.3325H11.0803V32.3437C11.0188 32.3437 10.3621 32.4528 10.3621 33.5967V36.8216H14.6294Z" fill="white"/>
<path d="M24.2481 34.2065H24.223C24.223 34.061 24.114 32.601 22.862 32.601H20.5258V36.8244H22.6552C23.6892 36.8244 23.787 35.8371 23.787 35.728H23.7982V38.1865H23.787C23.787 38.0774 23.6892 37.0901 22.6552 37.0901H20.5258V41.5568H23.0549C24.2956 41.5568 24.4158 40.0716 24.4158 39.9122H24.4409V41.8225H18.1169V41.8113C18.1896 41.8113 18.8463 41.7022 18.8463 40.5583V33.5967C18.8463 32.4528 18.1896 32.3437 18.1169 32.3437V32.3325H24.2453V34.2065H24.2481Z" fill="white"/>
<path d="M28.2693 37.1992C28.2693 34.4359 29.8873 32.1592 33.414 32.1592C34.8252 32.1592 35.834 32.6095 36.3314 32.6095V34.7156H36.3063C36.1973 34.0695 35.9905 33.5353 35.6021 33.1465C35.1046 32.685 34.3501 32.4417 33.4 32.4417C31.0274 32.4417 29.9823 34.4499 29.9823 37.202C29.9823 39.6605 30.9185 41.7191 33.1932 41.7191C33.6068 41.7191 34.202 41.6212 34.5905 41.4869V37.8118C34.5905 36.6678 33.9337 36.5699 33.8611 36.5699V36.5448H37.0468V36.5699C36.9854 36.5699 36.3286 36.6678 36.3286 37.8118V41.3779C36.0129 41.3779 34.4423 41.9988 33.0926 41.9988C29.5184 41.9988 28.2637 39.6857 28.2637 37.202L28.2693 37.1992Z" fill="white"/>
<path d="M36.7339 41.8C36.8429 41.8 37.5862 41.6042 38.0585 40.4015L40.6015 33.963C41.1492 32.5757 40.2354 32.3548 40.1879 32.3548V32.3296H42.4375L45.1258 40.2785C45.5757 41.6042 46.2213 41.8 46.3163 41.8V41.8252H43.2283V41.8C43.2535 41.8 43.8375 41.6406 43.4463 40.4742L42.9237 38.9164H38.9471L38.3379 40.4491C37.888 41.6182 38.5196 41.8 38.5447 41.8V41.8252H36.7339V41.8ZM42.8259 38.6478L41.0877 33.4875L39.045 38.6478H42.8259Z" fill="white"/>
<path d="M52.7856 39.9151H52.8108V41.8254H46.512V41.8142C46.5846 41.8142 47.2413 41.7052 47.2413 40.5612V33.5997C47.2413 32.4557 46.5846 32.3466 46.512 32.3466V32.3354H49.6362V32.3466C49.5747 32.3466 48.918 32.4557 48.918 33.5997V41.5597H51.4107C52.6627 41.5597 52.7856 40.0745 52.7856 39.9151Z" fill="white"/>
<path d="M59.6069 39.9151H59.6321V41.8254H53.3333V41.8142C53.4059 41.8142 54.0626 41.7052 54.0626 40.5612V33.5997C54.0626 32.4557 53.4059 32.3466 53.3333 32.3466V32.3354H56.4575V32.3466C56.396 32.3466 55.7393 32.4557 55.7393 33.5997V41.5597H58.232C59.484 41.5597 59.6069 40.0745 59.6069 39.9151Z" fill="white"/>
<path d="M66.2803 34.2065H66.2552C66.2552 34.061 66.1462 32.601 64.8943 32.601H62.558V36.8244H64.6875C65.7214 36.8244 65.8192 35.8371 65.8192 35.728H65.8304V38.1865H65.8192C65.8192 38.0774 65.7214 37.0901 64.6875 37.0901H62.558V41.5568H65.0871C66.3278 41.5568 66.448 40.0716 66.448 39.9122H66.4732V41.8225H60.1492V41.8113C60.2218 41.8113 60.8785 41.7022 60.8785 40.5583V33.5967C60.8785 32.4528 60.2218 32.3437 60.1492 32.3437V32.3325H66.2775V34.2065H66.2803Z" fill="white"/>
<path d="M67.6553 41.8142C67.7279 41.8142 68.3846 41.7052 68.3846 40.5612V33.5997C68.3846 32.4557 67.7279 32.3466 67.6553 32.3466V32.3354H70.964C72.0818 32.3354 73.0794 32.5061 73.6635 33.0403C74.1749 33.4067 74.4432 33.9521 74.4432 34.7212C74.4432 36.17 73.3729 37.2888 71.8638 37.63C72.8363 37.63 73.2862 37.8482 73.6523 38.6761L74.3928 40.357C74.9406 41.5877 75.6336 41.8058 75.7426 41.8058V41.831H74.1497C73.1521 41.831 72.9704 41.3919 72.4954 40.3207L71.9001 38.9698C71.4502 37.9713 71.0478 37.7783 70.4163 37.7783H70.0641V40.5668C70.0641 41.7107 70.7209 41.8198 70.7823 41.8198V41.831H67.6581V41.8198L67.6553 41.8142ZM70.4749 37.5042C72.0315 37.5042 72.7497 36.3127 72.7497 34.9226C72.7497 34.2905 72.6155 33.7535 72.3361 33.3647C72.0315 32.8781 71.5452 32.5984 70.732 32.5984H70.0641V37.5042H70.4777H70.4749Z" fill="white"/>
<path d="M77.5282 41.814C77.6009 41.814 78.2464 41.7049 78.2464 40.561L78.2576 37.9794L75.9577 33.6218C75.41 32.5617 74.7672 32.3548 74.6694 32.3548V32.3296H77.721V32.3408C77.721 32.3408 77.1985 32.5226 77.6596 33.4008L79.7387 37.392L81.72 33.5211C82.2174 32.5478 81.6473 32.3408 81.6222 32.3408V32.3296H83.3967V32.3548C83.2626 32.3548 82.4857 32.5869 81.9016 33.742L79.9203 37.6018V40.561C79.9203 41.7049 80.577 41.814 80.6385 41.814V41.8252H77.5254V41.814H77.5282Z" fill="white"/>
<path d="M0.0251506 34.2428H0V32.3325H7.61226V34.2428H7.60108C7.60108 34.0834 7.47812 32.5982 6.20382 32.5982H4.64728V40.5583C4.64728 41.7022 5.30399 41.8113 5.36547 41.8113V41.8225H2.25238V41.8113C2.31386 41.8113 2.97057 41.7022 2.97057 40.5583V32.5982H1.41402C0.134137 32.5982 0.0251506 34.0834 0.0251506 34.2428Z" fill="white"/>
<path d="M14.6294 36.8216V33.5967C14.6294 32.4528 13.9726 32.3437 13.9112 32.3437V32.3325H17.0243V32.3437C16.9628 32.3437 16.3061 32.4528 16.3061 33.5967V40.5583C16.3061 41.7022 16.9628 41.8113 17.0243 41.8113V41.8225H13.9112V41.8113C13.9726 41.8113 14.6294 41.7022 14.6294 40.5583V37.0901H10.3621V40.5583C10.3621 41.7022 11.0188 41.8113 11.0803 41.8113V41.8225H7.95605V41.8113C8.02871 41.8113 8.68542 41.7022 8.68542 40.5583V33.5967C8.68542 32.4528 8.02871 32.3437 7.95605 32.3437V32.3325H11.0803V32.3437C11.0188 32.3437 10.3621 32.4528 10.3621 33.5967V36.8216H14.6294Z" fill="white"/>
<path d="M24.2481 34.2065H24.223C24.223 34.061 24.114 32.601 22.862 32.601H20.5258V36.8244H22.6552C23.6892 36.8244 23.787 35.8371 23.787 35.728H23.7982V38.1865H23.787C23.787 38.0774 23.6892 37.0901 22.6552 37.0901H20.5258V41.5568H23.0549C24.2956 41.5568 24.4158 40.0716 24.4158 39.9122H24.4409V41.8225H18.1169V41.8113C18.1896 41.8113 18.8463 41.7022 18.8463 40.5583V33.5967C18.8463 32.4528 18.1896 32.3437 18.1169 32.3437V32.3325H24.2453V34.2065H24.2481Z" fill="white"/>
<path d="M28.2693 37.1992C28.2693 34.4359 29.8873 32.1592 33.414 32.1592C34.8252 32.1592 35.834 32.6095 36.3314 32.6095V34.7156H36.3063C36.1973 34.0695 35.9905 33.5353 35.6021 33.1465C35.1046 32.685 34.3501 32.4417 33.4 32.4417C31.0274 32.4417 29.9823 34.4499 29.9823 37.202C29.9823 39.6605 30.9185 41.7191 33.1932 41.7191C33.6068 41.7191 34.202 41.6212 34.5905 41.4869V37.8118C34.5905 36.6678 33.9337 36.5699 33.8611 36.5699V36.5448H37.0468V36.5699C36.9854 36.5699 36.3286 36.6678 36.3286 37.8118V41.3779C36.0129 41.3779 34.4423 41.9988 33.0926 41.9988C29.5184 41.9988 28.2637 39.6857 28.2637 37.202L28.2693 37.1992Z" fill="white"/>
<path d="M36.7339 41.8C36.8429 41.8 37.5862 41.6042 38.0585 40.4015L40.6015 33.963C41.1492 32.5757 40.2354 32.3548 40.1879 32.3548V32.3296H42.4375L45.1258 40.2785C45.5757 41.6042 46.2213 41.8 46.3163 41.8V41.8252H43.2283V41.8C43.2535 41.8 43.8375 41.6406 43.4463 40.4742L42.9237 38.9164H38.9471L38.3379 40.4491C37.888 41.6182 38.5196 41.8 38.5447 41.8V41.8252H36.7339V41.8ZM42.8259 38.6478L41.0877 33.4875L39.045 38.6478H42.8259Z" fill="white"/>
<path d="M52.7856 39.9151H52.8108V41.8254H46.512V41.8142C46.5846 41.8142 47.2413 41.7052 47.2413 40.5612V33.5997C47.2413 32.4557 46.5846 32.3466 46.512 32.3466V32.3354H49.6362V32.3466C49.5747 32.3466 48.918 32.4557 48.918 33.5997V41.5597H51.4107C52.6627 41.5597 52.7856 40.0745 52.7856 39.9151Z" fill="white"/>
<path d="M59.6069 39.9151H59.6321V41.8254H53.3333V41.8142C53.4059 41.8142 54.0626 41.7052 54.0626 40.5612V33.5997C54.0626 32.4557 53.4059 32.3466 53.3333 32.3466V32.3354H56.4575V32.3466C56.396 32.3466 55.7393 32.4557 55.7393 33.5997V41.5597H58.232C59.484 41.5597 59.6069 40.0745 59.6069 39.9151Z" fill="white"/>
<path d="M66.2803 34.2065H66.2552C66.2552 34.061 66.1462 32.601 64.8943 32.601H62.558V36.8244H64.6875C65.7214 36.8244 65.8192 35.8371 65.8192 35.728H65.8304V38.1865H65.8192C65.8192 38.0774 65.7214 37.0901 64.6875 37.0901H62.558V41.5568H65.0871C66.3278 41.5568 66.448 40.0716 66.448 39.9122H66.4732V41.8225H60.1492V41.8113C60.2218 41.8113 60.8785 41.7022 60.8785 40.5583V33.5967C60.8785 32.4528 60.2218 32.3437 60.1492 32.3437V32.3325H66.2775V34.2065H66.2803Z" fill="white"/>
<path d="M67.6553 41.8142C67.7279 41.8142 68.3846 41.7052 68.3846 40.5612V33.5997C68.3846 32.4557 67.7279 32.3466 67.6553 32.3466V32.3354H70.964C72.0818 32.3354 73.0794 32.5061 73.6635 33.0403C74.1749 33.4067 74.4432 33.9521 74.4432 34.7212C74.4432 36.17 73.3729 37.2888 71.8638 37.63C72.8363 37.63 73.2862 37.8482 73.6523 38.6761L74.3928 40.357C74.9406 41.5877 75.6336 41.8058 75.7426 41.8058V41.831H74.1497C73.1521 41.831 72.9704 41.3919 72.4954 40.3207L71.9001 38.9698C71.4502 37.9713 71.0478 37.7783 70.4163 37.7783H70.0641V40.5668C70.0641 41.7107 70.7209 41.8198 70.7823 41.8198V41.831H67.6581V41.8198L67.6553 41.8142ZM70.4749 37.5042C72.0315 37.5042 72.7497 36.3127 72.7497 34.9226C72.7497 34.2905 72.6155 33.7535 72.3361 33.3647C72.0315 32.8781 71.5452 32.5984 70.732 32.5984H70.0641V37.5042H70.4777H70.4749Z" fill="white"/>
<path d="M77.5282 41.814C77.6009 41.814 78.2464 41.7049 78.2464 40.561L78.2576 37.9794L75.9577 33.6218C75.41 32.5617 74.7672 32.3548 74.6694 32.3548V32.3296H77.721V32.3408C77.721 32.3408 77.1985 32.5226 77.6596 33.4008L79.7387 37.392L81.72 33.5211C82.2174 32.5478 81.6473 32.3408 81.6222 32.3408V32.3296H83.3967V32.3548C83.2626 32.3548 82.4857 32.5869 81.9016 33.742L79.9203 37.6018V40.561C79.9203 41.7049 80.577 41.814 80.6385 41.814V41.8252H77.5254V41.814H77.5282Z" fill="white"/>
<path d="M25.5308 46.9769H26.4781C26.724 46.9769 26.9057 47.0412 27.0314 47.1643C27.1236 47.2566 27.1739 47.3769 27.1739 47.5139V47.5195C27.1739 47.7768 27.0286 47.9083 26.8721 47.9894C27.1236 48.0761 27.2913 48.2132 27.2913 48.504V48.5096C27.2913 48.8872 26.9811 49.0886 26.5088 49.0886H25.5308V46.9741V46.9769ZM26.4054 47.8691C26.6458 47.8691 26.8051 47.7768 26.8051 47.5811V47.5755C26.8051 47.4049 26.6765 47.307 26.4334 47.307H25.8996V47.8691H26.4054ZM26.5116 48.7642C26.7659 48.7642 26.9196 48.6663 26.9196 48.4733V48.4677C26.9196 48.2859 26.7771 48.1824 26.4837 48.1824H25.894V48.7614H26.5088L26.5116 48.7642Z" fill="white"/>
<path d="M28.7611 46.9629H29.1049L30.0354 49.0941H29.6442L29.429 48.5823H28.4286L28.2106 49.0941H27.8306L28.7611 46.9629ZM29.2949 48.2523L28.9288 47.4048L28.5655 48.2523H29.2921H29.2949Z" fill="white"/>
<path d="M32 48.1965H31.7737V47.8637H32V46.9771H32.7881C33.4532 46.9771 33.9115 47.4329 33.9115 48.0287V48.0343C33.9115 48.63 33.4532 49.0915 32.7881 49.0915H32V48.1937V48.1965ZM32.7881 48.7559C33.2324 48.7559 33.5203 48.4566 33.5203 48.0427V48.0371C33.5203 47.6231 33.2296 47.3183 32.7881 47.3183H32.3717V47.8665H32.8999V48.1993H32.3717V48.7587H32.7881V48.7559Z" fill="white"/>
<path d="M34.4006 46.4598L34.7332 46.3115L35.0462 46.8066H34.7723L34.4006 46.4598ZM34.6829 46.9772H35.0546V49.0917H34.6829V46.9772Z" fill="white"/>
<path d="M35.9207 46.9771H36.2644L37.3962 48.4398V46.9771H37.7622V49.0915H37.4521L36.2867 47.5868V49.0915H35.9207V46.9771Z" fill="white"/>
<path d="M38.6091 46.9771H38.9808V47.8553H39.9896V46.9771H40.3613V49.0915H39.9896V48.1993H38.9808V49.0915H38.6091V46.9771Z" fill="white"/>
<path d="M42.457 48.0314V48.0259C42.457 47.7937 42.6526 47.6035 42.8818 47.6035C43.1109 47.6035 43.3094 47.7937 43.3094 48.0259V48.0314C43.3094 48.2636 43.1165 48.4538 42.8818 48.4538C42.6471 48.4538 42.457 48.2636 42.457 48.0314Z" fill="white"/>
<path d="M45.4053 46.9771H45.7769V47.8553H46.7858V46.9771H47.1574V49.0915H46.7858V48.1993H45.7769V49.0915H45.4053V46.9771Z" fill="white"/>
<path d="M48.7504 46.9631H49.0941L50.0247 49.0943H49.6335L49.4183 48.5825H48.4179L48.1999 49.0943H47.8198L48.7504 46.9631ZM48.4458 46.4261L48.7783 46.2778L49.0913 46.7729H48.8175L48.4458 46.4261ZM49.2842 48.2525L48.9181 47.405L48.5548 48.2525H49.2814H49.2842Z" fill="white"/>
<path d="M51.897 46.9771H52.2407L53.3725 48.4398V46.9771H53.7386V49.0915H53.4284L52.2631 47.5868V49.0915H51.897V46.9771Z" fill="white"/>
<path d="M54.4932 48.0426V48.037C54.4932 47.4441 54.9515 46.9434 55.5998 46.9434C56.2481 46.9434 56.7008 47.4357 56.7008 48.0315V48.037C56.7008 48.63 56.2425 49.1306 55.5942 49.1306C54.9459 49.1306 54.4932 48.6384 54.4932 48.0426ZM56.3124 48.0426V48.037C56.3124 47.6259 56.0162 47.2847 55.5942 47.2847C55.1722 47.2847 54.8816 47.6203 54.8816 48.0315V48.037C54.8816 48.4482 55.1778 48.7894 55.5998 48.7894C56.0218 48.7894 56.3124 48.4538 56.3124 48.0426ZM55.4265 46.3281H55.7647L56.1168 46.7728H55.8261L55.5914 46.5715L55.3595 46.7728H55.0744L55.4237 46.3281H55.4265ZM55.4321 49.2957H55.7703V49.6733H55.4321V49.2957Z" fill="white"/>
<path d="M57.4749 46.9771H57.8465V49.0915H57.4749V46.9771Z" fill="white"/>
<path d="M25.5308 46.9769H26.4781C26.724 46.9769 26.9057 47.0412 27.0314 47.1643C27.1236 47.2566 27.1739 47.3769 27.1739 47.5139V47.5195C27.1739 47.7768 27.0286 47.9083 26.8721 47.9894C27.1236 48.0761 27.2913 48.2132 27.2913 48.504V48.5096C27.2913 48.8872 26.9811 49.0886 26.5088 49.0886H25.5308V46.9741V46.9769ZM26.4054 47.8691C26.6458 47.8691 26.8051 47.7768 26.8051 47.5811V47.5755C26.8051 47.4049 26.6765 47.307 26.4334 47.307H25.8996V47.8691H26.4054ZM26.5116 48.7642C26.7659 48.7642 26.9196 48.6663 26.9196 48.4733V48.4677C26.9196 48.2859 26.7771 48.1824 26.4837 48.1824H25.894V48.7614H26.5088L26.5116 48.7642Z" fill="white"/>
<path d="M28.7611 46.9629H29.1049L30.0354 49.0941H29.6442L29.429 48.5823H28.4286L28.2106 49.0941H27.8306L28.7611 46.9629ZM29.2949 48.2523L28.9288 47.4048L28.5655 48.2523H29.2921H29.2949Z" fill="white"/>
<path d="M32 48.1965H31.7737V47.8637H32V46.9771H32.7881C33.4532 46.9771 33.9115 47.4329 33.9115 48.0287V48.0343C33.9115 48.63 33.4532 49.0915 32.7881 49.0915H32V48.1937V48.1965ZM32.7881 48.7559C33.2324 48.7559 33.5203 48.4566 33.5203 48.0427V48.0371C33.5203 47.6231 33.2296 47.3183 32.7881 47.3183H32.3717V47.8665H32.8999V48.1993H32.3717V48.7587H32.7881V48.7559Z" fill="white"/>
<path d="M34.4006 46.4598L34.7332 46.3115L35.0462 46.8066H34.7723L34.4006 46.4598ZM34.6829 46.9772H35.0546V49.0917H34.6829V46.9772Z" fill="white"/>
<path d="M35.9207 46.9771H36.2644L37.3962 48.4398V46.9771H37.7622V49.0915H37.4521L36.2867 47.5868V49.0915H35.9207V46.9771Z" fill="white"/>
<path d="M38.6091 46.9771H38.9808V47.8553H39.9896V46.9771H40.3613V49.0915H39.9896V48.1993H38.9808V49.0915H38.6091V46.9771Z" fill="white"/>
<path d="M42.457 48.0314V48.0259C42.457 47.7937 42.6526 47.6035 42.8818 47.6035C43.1109 47.6035 43.3094 47.7937 43.3094 48.0259V48.0314C43.3094 48.2636 43.1165 48.4538 42.8818 48.4538C42.6471 48.4538 42.457 48.2636 42.457 48.0314Z" fill="white"/>
<path d="M45.4053 46.9771H45.7769V47.8553H46.7858V46.9771H47.1574V49.0915H46.7858V48.1993H45.7769V49.0915H45.4053V46.9771Z" fill="white"/>
<path d="M48.7504 46.9631H49.0941L50.0247 49.0943H49.6335L49.4183 48.5825H48.4179L48.1999 49.0943H47.8198L48.7504 46.9631ZM48.4458 46.4261L48.7783 46.2778L49.0913 46.7729H48.8175L48.4458 46.4261ZM49.2842 48.2525L48.9181 47.405L48.5548 48.2525H49.2814H49.2842Z" fill="white"/>
<path d="M51.897 46.9771H52.2407L53.3725 48.4398V46.9771H53.7386V49.0915H53.4284L52.2631 47.5868V49.0915H51.897V46.9771Z" fill="white"/>
<path d="M54.4932 48.0426V48.037C54.4932 47.4441 54.9515 46.9434 55.5998 46.9434C56.2481 46.9434 56.7008 47.4357 56.7008 48.0315V48.037C56.7008 48.63 56.2425 49.1306 55.5942 49.1306C54.9459 49.1306 54.4932 48.6384 54.4932 48.0426ZM56.3124 48.0426V48.037C56.3124 47.6259 56.0162 47.2847 55.5942 47.2847C55.1722 47.2847 54.8816 47.6203 54.8816 48.0315V48.037C54.8816 48.4482 55.1778 48.7894 55.5998 48.7894C56.0218 48.7894 56.3124 48.4538 56.3124 48.0426ZM55.4265 46.3281H55.7647L56.1168 46.7728H55.8261L55.5914 46.5715L55.3595 46.7728H55.0744L55.4237 46.3281H55.4265ZM55.4321 49.2957H55.7703V49.6733H55.4321V49.2957Z" fill="white"/>
<path d="M57.4749 46.9771H57.8465V49.0915H57.4749V46.9771Z" fill="white"/>
<path d="M41.6998 3.87095C37.2928 3.87095 33.7075 7.4594 33.7075 11.8702C33.7075 16.2809 37.2928 19.8694 41.6998 19.8694C46.1067 19.8694 49.6921 16.2809 49.6921 11.8702C49.6921 7.4594 46.1067 3.87095 41.6998 3.87095ZM41.6998 20.0372C37.2006 20.0372 33.5398 16.3732 33.5398 11.8702C33.5398 7.36711 37.2006 3.70313 41.6998 3.70313C46.1989 3.70313 49.8598 7.36711 49.8598 11.8702C49.8598 16.3732 46.1989 20.0372 41.6998 20.0372ZM41.6998 2.94516C36.7842 2.94516 32.7825 6.94757 32.7825 11.8702C32.7825 16.7928 36.7814 20.7952 41.6998 20.7952C46.6181 20.7952 50.6171 16.7928 50.6171 11.8702C50.6171 6.94757 46.6181 2.94516 41.6998 2.94516ZM41.6998 20.963C36.6892 20.963 32.6148 16.885 32.6148 11.8702C32.6148 6.85527 36.6892 2.77735 41.6998 2.77735C46.7103 2.77735 50.7847 6.85527 50.7847 11.8702C50.7847 16.885 46.7103 20.963 41.6998 20.963ZM41.6998 2.01938C36.2728 2.01938 31.8575 6.43853 31.8575 11.8702C31.8575 17.3018 36.2728 21.7209 41.6998 21.7209C47.1267 21.7209 51.5421 17.3018 51.5421 11.8702C51.5421 6.43853 47.1267 2.01938 41.6998 2.01938ZM41.6998 21.8888C36.1806 21.8888 31.6898 17.3941 31.6898 11.8702C31.6898 6.34623 36.1806 1.85157 41.6998 1.85157C47.2189 1.85157 51.7097 6.34623 51.7097 11.8702C51.7097 17.3941 47.2189 21.8888 41.6998 21.8888ZM41.6998 1.0936C35.7614 1.0936 30.9325 5.92669 30.9325 11.8702C30.9325 17.8136 35.7614 22.6467 41.6998 22.6467C47.6381 22.6467 52.467 17.8136 52.467 11.8702C52.467 5.92669 47.6353 1.0936 41.6998 1.0936ZM41.6998 22.8145C35.6692 22.8145 30.7648 17.9059 30.7648 11.8702C30.7648 5.83439 35.6692 0.925783 41.6998 0.925783C47.7303 0.925783 52.6347 5.83439 52.6347 11.8702C52.6347 17.9059 47.7303 22.8145 41.6998 22.8145ZM41.6998 0.167816C35.2528 0.167816 30.0075 5.41765 30.0075 11.8702C30.0075 18.3227 35.2528 23.5725 41.6998 23.5725C48.1467 23.5725 53.392 18.3227 53.392 11.8702C53.392 5.41765 48.1467 0.167816 41.6998 0.167816ZM41.6998 23.7403C35.1606 23.7403 29.8398 18.415 29.8398 11.8702C29.8398 5.32535 35.1606 0 41.6998 0C48.2389 0 53.5597 5.32535 53.5597 11.8702C53.5597 18.415 48.2389 23.7403 41.6998 23.7403Z" fill="white"/>
<path d="M48.9068 11.87C48.9068 14.7033 47.2748 17.1534 44.8995 18.3337C45.7658 16.8765 45.7685 14.5411 45.7685 11.9036C45.0559 13.7915 43.5022 15.1033 41.6969 15.1033V11.8728H48.904L48.9068 11.87ZM41.6997 4.65674C37.7203 4.65674 34.4927 7.88719 34.4927 11.87C34.4927 14.7033 36.1247 17.1534 38.5 18.3337C37.6309 16.8709 37.6309 14.5215 37.6309 11.87C37.6309 7.43688 39.1763 4.65674 41.7025 4.65674H41.6997ZM45.6624 9.95132H48.6469C47.8057 6.89987 45.0168 4.65674 41.6997 4.65674C43.8375 4.65674 45.2739 6.64815 45.6624 9.95132Z" fill="white"/>
<path d="M49.857 11.9232C49.8458 13.6461 49.3009 15.2432 48.3759 16.5577C48.3899 16.2836 48.401 16.0067 48.4094 15.7242C49.055 14.6027 49.4266 13.3049 49.4378 11.9232H49.857ZM48.2697 7.78096C48.6721 8.42705 48.9823 9.13467 49.1807 9.88704C49.3093 9.86747 49.4462 9.84229 49.5943 9.80873C49.3093 8.71793 48.8062 7.71663 48.1328 6.85238C48.1859 7.15165 48.2306 7.45931 48.2697 7.77816V7.78096ZM32.6176 11.8701C32.6176 14.3174 33.5901 16.5437 35.1662 18.1771C35.1411 17.9506 35.1215 17.7184 35.1019 17.4835C33.8137 15.9704 33.034 14.0097 33.034 11.8701C33.034 9.36961 34.0959 7.11529 35.795 5.52943C35.876 5.26093 35.9627 5.00081 36.0577 4.75189C33.9618 6.41885 32.6176 8.98923 32.6176 11.8701ZM50.3628 11.9232C50.3488 14.0293 49.5831 15.9592 48.32 17.4555C48.3004 17.6933 48.2809 17.9254 48.2557 18.152C49.8095 16.5297 50.768 14.3342 50.782 11.9204H50.3628V11.9232ZM35.0461 16.5885C35.0321 16.3172 35.0209 16.0403 35.0125 15.7606C34.3446 14.6166 33.9618 13.2881 33.9618 11.8701C33.9618 10.2367 34.4704 8.72073 35.3367 7.4677C35.3954 7.14885 35.4596 6.83839 35.5295 6.53633C34.2915 7.96835 33.5426 9.8339 33.5426 11.8701C33.5426 13.6265 34.0987 15.2543 35.0461 16.5885ZM46.0033 1.81511C46.2045 2.03887 46.3918 2.285 46.5706 2.5507C49.0047 3.8289 50.877 6.03568 51.7209 8.69555C51.8327 8.58088 51.9389 8.45502 52.0367 8.31517C51.0307 5.39238 48.8202 3.02898 46.0033 1.81511ZM47.0736 3.42614C47.1882 3.65829 47.2972 3.90442 47.4006 4.16173C49.0913 5.41755 50.3572 7.21598 50.9357 9.29969C51.0614 9.22697 51.1844 9.14865 51.3017 9.05915C50.6143 6.70973 49.0885 4.71832 47.0736 3.42894V3.42614ZM31.6926 11.8701C31.6926 14.9914 33.1262 17.7828 35.3702 19.6231C35.3311 19.4134 35.2976 19.198 35.264 18.9799C33.3274 17.2234 32.1118 14.6866 32.1118 11.8729C32.1118 8.53053 33.8304 5.57978 36.4293 3.86246C36.5467 3.61074 36.6697 3.373 36.7982 3.14365C33.7522 4.86376 31.6926 8.13057 31.6926 11.8729V11.8701ZM42.8931 0.0642348C43.6532 0.204081 44.3462 0.480977 44.9666 0.900516C48.3563 1.913 51.0922 4.4638 52.3637 7.73621C52.4447 7.55161 52.5146 7.35023 52.5677 7.13207C50.8882 3.28909 47.2329 0.500556 42.8931 0.0642348ZM36.2896 22.4257C36.1778 22.2215 36.0772 22.0033 35.985 21.7796C32.5673 19.7994 30.2646 16.099 30.2646 11.8701C30.2646 6.50556 33.9702 1.99132 38.9556 0.757873C39.5173 0.397069 40.1321 0.153737 40.7944 0.0390625C34.68 0.503352 29.8455 5.63292 29.8455 11.8701C29.8455 16.4626 32.4667 20.4538 36.2896 22.4257ZM53.5541 11.9232H53.135C53.1154 16.1186 50.8295 19.7882 47.4425 21.7656C47.3503 21.9893 47.2497 22.2075 47.1379 22.4117C50.9301 20.4426 53.5346 16.4822 53.5541 11.9232ZM52.6291 11.9232H52.21C52.1932 15.3886 50.4941 18.4624 47.8896 20.3671C47.8365 20.5825 47.7779 20.7951 47.7164 20.9992C50.6618 19.0498 52.6124 15.7102 52.6291 11.9232ZM51.7042 11.9232H51.285C51.271 14.7062 50.0666 17.2122 48.1551 18.9575C48.1244 19.1784 48.0881 19.3938 48.0489 19.6036C50.265 17.7744 51.6874 15.0138 51.7014 11.9232H51.7042ZM47.7164 5.06794C47.7918 5.31966 47.8617 5.57978 47.926 5.85108C48.9432 6.90552 49.6977 8.21728 50.0805 9.67727C50.2091 9.63532 50.3432 9.58498 50.4746 9.52904C50.0079 7.77816 49.0326 6.23705 47.7136 5.06794H47.7164ZM30.7676 11.8701C30.7676 15.6907 32.735 19.0582 35.7084 21.016C35.6441 20.8118 35.5882 20.6021 35.5351 20.3867C32.9027 18.4736 31.1896 15.369 31.1896 11.8701C31.1896 7.62153 33.7187 3.95476 37.3487 2.29339C37.536 2.04166 37.7316 1.80952 37.9384 1.59695C33.7578 3.13526 30.7704 7.16004 30.7704 11.8701H30.7676Z" fill="white"/>
</g>
<defs>
<clipPath id="clip0_79_5965">
<rect width="83.4023" height="49.6734" fill="white"/>
</clipPath>
</defs>
</svg>
