<svg width="102" height="24" viewBox="0 0 102 24" fill="none" xmlns="http://www.w3.org/2000/svg">
<g clip-path="url(#clip0_79_6053)">
<path d="M33.1441 15.8672C30.6695 13.9974 26.3389 14.0497 22.35 16.2478C19.6445 17.7417 17.6547 19.9161 16.6944 22.1474C16.6528 22.2474 16.6113 22.3473 16.5743 22.4472C16.5374 22.3473 16.4959 22.2474 16.4543 22.1474C15.4894 19.9161 13.4996 17.7417 10.7987 16.2478C6.80979 14.045 2.47923 13.9926 0 15.8672C1.77286 14.045 4.22438 12.9174 6.92522 12.9174C11.7359 12.9174 15.7433 16.4905 16.5743 21.2054C17.4008 16.4905 21.4081 12.9174 26.2235 12.9174C28.9289 12.9174 31.3758 14.045 33.1487 15.8672H33.1441ZM11.7913 11.5376C14.0028 12.7556 15.6418 14.5255 16.4543 16.3477C16.4959 16.4429 16.5374 16.5333 16.5743 16.6284C16.6113 16.538 16.6482 16.4429 16.6898 16.3477C17.5023 14.5255 19.1413 12.7508 21.3574 11.5328C24.6768 9.69635 28.2826 9.65353 30.3463 11.2141C28.8689 9.69635 26.8329 8.75907 24.5845 8.75907C20.6233 8.75907 17.3223 11.6613 16.579 15.5151C15.831 11.6613 12.53 8.75907 8.57342 8.75907C6.32503 8.75907 4.2844 9.69635 2.80702 11.2141C4.87073 9.65353 8.47646 9.70111 11.8006 11.5328L11.7913 11.5376ZM13.0702 7.7409C14.6491 8.61633 15.8403 9.86763 16.4635 11.1665C16.5051 11.2521 16.542 11.3378 16.579 11.4234C16.6113 11.3378 16.6482 11.2521 16.6944 11.1713C17.3177 9.87239 18.5042 8.61633 20.0877 7.7409C22.5531 6.38018 25.2216 6.35163 26.7544 7.50777C25.6602 6.38494 24.1459 5.68554 22.4792 5.68554C19.6122 5.68554 17.2069 7.7409 16.5836 10.5004C15.9557 7.7409 13.5503 5.68554 10.6879 5.68554C9.01663 5.68554 7.50693 6.38494 6.41275 7.50777C7.94091 6.35163 10.614 6.38494 13.0794 7.7409H13.0702ZM14.4229 4.36288C15.3463 4.87196 16.0526 5.58563 16.4682 6.34212C16.5051 6.41348 16.542 6.48009 16.5743 6.55622C16.6067 6.48485 16.6436 6.41348 16.6805 6.34212C17.096 5.59039 17.8024 4.87672 18.7258 4.36288C20.277 3.50648 21.9622 3.48745 22.9225 4.21539C22.2346 3.50648 21.2835 3.06877 20.2309 3.06877C18.4996 3.06877 17.0406 4.24869 16.5743 5.8711C16.1034 4.24869 14.6445 3.06877 12.9178 3.06877C11.8652 3.06877 10.9141 3.50648 10.2262 4.21539C11.1911 3.48745 12.8717 3.50648 14.4229 4.36288ZM17.8763 1.89359C17.4238 1.89359 16.5697 0.656573 16.5697 0C16.5697 0.656573 15.7156 1.89359 15.2632 1.89359C15.7156 1.89359 16.5697 3.13062 16.5697 3.78719C16.5697 3.13062 17.4238 1.89359 17.8763 1.89359ZM40.0601 7.90267L41.8006 2.89749H41.0988L39.6953 7.07481L38.2872 2.89749H37.5947L39.3306 7.90267H40.0601ZM43.0379 3.75864C43.1164 3.67776 43.1579 3.57785 43.1579 3.46366C43.1579 3.34947 43.1164 3.24956 43.0379 3.16868C42.9594 3.0878 42.8625 3.04498 42.7517 3.04498C42.6409 3.04498 42.5393 3.0878 42.4608 3.16868C42.3823 3.25432 42.3454 3.34947 42.3454 3.46366C42.3454 3.57785 42.3823 3.67776 42.4608 3.75864C42.5393 3.83953 42.6362 3.88235 42.7517 3.88235C42.8671 3.88235 42.9594 3.84428 43.0379 3.75864ZM43.0518 7.90267V4.32482H42.447V7.90267H43.0518ZM44.7184 4.83866V4.32482H44.1136V7.90267H44.7184V6.01383C44.7184 5.61418 44.8108 5.31919 44.9954 5.12413C45.1801 4.93381 45.4248 4.8339 45.7249 4.8339C45.9927 4.8339 46.205 4.91478 46.3574 5.07179C46.5097 5.2288 46.5882 5.45717 46.5882 5.74739V7.90267H47.193V5.70457C47.193 5.4762 47.1607 5.27162 47.0961 5.09082C47.0314 4.91003 46.9391 4.75302 46.8237 4.62932C46.7037 4.50086 46.5651 4.4057 46.3989 4.33433C46.2327 4.26297 46.0527 4.22966 45.8449 4.22966C45.3371 4.22966 44.9631 4.43425 44.7184 4.83866ZM50.7203 7.7409C50.9973 7.57438 51.2097 7.34601 51.3574 7.06054L50.8449 6.75128C50.748 6.9416 50.6095 7.09384 50.4248 7.20327C50.2401 7.31746 50.0324 7.3698 49.7969 7.3698C49.4507 7.3698 49.1598 7.24609 48.9243 7.00345C48.6935 6.75604 48.5781 6.45154 48.5781 6.09947C48.5781 5.74739 48.6935 5.43814 48.9243 5.18598C49.1598 4.94333 49.4507 4.81963 49.7969 4.81963C50.0324 4.81963 50.2401 4.87672 50.4202 4.99091C50.6002 5.10509 50.7341 5.25734 50.8218 5.44765L51.3297 5.14791C51.1958 4.86245 50.9927 4.63407 50.7203 4.46755C50.4479 4.30103 50.1386 4.21539 49.7969 4.21539C49.2752 4.21539 48.8412 4.39619 48.4904 4.75778C48.1441 5.11461 47.9687 5.56184 47.9687 6.09471C47.9687 6.62758 48.1441 7.07481 48.4904 7.44116C48.8366 7.798 49.2706 7.97879 49.7969 7.97879C50.1339 7.97879 50.4433 7.89315 50.7203 7.72663V7.7409ZM55.5679 6.11374C55.5679 5.59039 55.3879 5.14316 55.0324 4.77681C54.6815 4.41522 54.2475 4.23442 53.7351 4.23442C53.2226 4.23442 52.7886 4.41522 52.4377 4.77681C52.0869 5.1384 51.9114 5.58563 51.9114 6.11374C51.9114 6.64186 52.0869 7.08909 52.4377 7.45068C52.7886 7.81227 53.2226 7.99306 53.7351 7.99306C54.2475 7.99306 54.6815 7.81227 55.0324 7.45068C55.3879 7.08433 55.5679 6.6371 55.5679 6.11374ZM52.8671 7.02724C52.6316 6.78459 52.5116 6.48009 52.5116 6.11374C52.5116 5.74739 52.6316 5.4429 52.8671 5.20025C53.1026 4.9576 53.3934 4.8339 53.7351 4.8339C54.0767 4.8339 54.3722 4.9576 54.6122 5.20025C54.8477 5.4429 54.9677 5.74739 54.9677 6.11374C54.9677 6.48009 54.8477 6.78459 54.6122 7.02724C54.3768 7.26988 54.0859 7.39358 53.7351 7.39358C53.3842 7.39358 53.1026 7.26988 52.8671 7.02724ZM59.0767 4.83866C58.8643 4.43425 58.5227 4.22966 58.0564 4.22966C57.5901 4.22966 57.2577 4.42473 57.0222 4.81011V4.32482H56.4174V7.90267H57.0222V5.91867C57.0222 5.55708 57.1053 5.28589 57.2761 5.10509C57.447 4.9243 57.6547 4.8339 57.9133 4.8339C58.1395 4.8339 58.3195 4.91003 58.4534 5.06227C58.5873 5.21452 58.652 5.42862 58.652 5.70457V7.90267H59.2568V5.91867C59.2568 5.54757 59.3306 5.27162 59.4876 5.10034C59.64 4.9243 59.8477 4.8339 60.1109 4.8339C60.3463 4.8339 60.531 4.91003 60.6695 5.06227C60.808 5.21452 60.8726 5.42862 60.8726 5.70457V7.90267H61.4774V5.67603C61.4774 5.45717 61.4451 5.25734 61.3851 5.08131C61.3251 4.90051 61.2328 4.74826 61.1173 4.62456C61.0019 4.4961 60.8634 4.40094 60.7064 4.33433C60.5495 4.26772 60.3694 4.23442 60.1755 4.23442C59.6907 4.23442 59.326 4.43901 59.0859 4.84342L59.0767 4.83866ZM67.1746 7.60768C67.4885 7.34601 67.6455 6.99393 67.6455 6.55622C67.6455 6.39921 67.627 6.25648 67.5901 6.12802C67.5532 6.00431 67.4885 5.89488 67.4008 5.80449C67.3408 5.73312 67.2854 5.67127 67.2392 5.62369C67.1931 5.57611 67.1192 5.52378 67.0222 5.47144C66.9761 5.4429 66.9345 5.41911 66.9022 5.40008C66.8699 5.38105 66.8329 5.36201 66.8006 5.34774C66.7683 5.33347 66.7314 5.31444 66.6898 5.30016C66.6483 5.28589 66.5975 5.2621 66.5375 5.23831C66.4774 5.21452 66.4267 5.19549 66.3851 5.17646C66.3436 5.16219 66.3066 5.14791 66.2789 5.1384L65.9927 5.04324C65.6233 4.9243 65.3602 4.80535 65.2032 4.68641C65.0508 4.57222 64.9724 4.4057 64.9724 4.18684C64.9724 3.96799 65.0555 3.77767 65.2171 3.64446C65.3786 3.51124 65.591 3.44463 65.8542 3.44463C66.3805 3.44463 66.7498 3.70155 66.9576 4.21539L67.4978 3.89186C67.3546 3.56357 67.1423 3.29714 66.8606 3.09731C66.579 2.89749 66.242 2.79757 65.8542 2.79757C65.4294 2.79757 65.0693 2.92603 64.7692 3.18295C64.4737 3.43036 64.326 3.77767 64.326 4.21539C64.326 4.39618 64.3583 4.55795 64.4184 4.70068C64.4784 4.84342 64.5522 4.96236 64.6307 5.05276C64.7046 5.1384 64.8246 5.22404 64.9862 5.30968C65.1524 5.39056 65.2863 5.45241 65.3879 5.49523L65.8542 5.65224C66.0619 5.71885 66.2374 5.78546 66.3851 5.84731C66.5328 5.90916 66.6483 5.97101 66.736 6.03286C66.9114 6.15656 66.9991 6.33736 66.9991 6.57049C66.9991 6.80362 66.9114 6.99393 66.736 7.13191C66.5606 7.27464 66.3066 7.34125 65.9742 7.34125C65.2955 7.34125 64.8616 7.03675 64.6769 6.43251L64.1229 6.7608C64.2521 7.14618 64.4784 7.44592 64.7969 7.66002C65.1155 7.87412 65.5033 7.98355 65.965 7.98355C66.459 7.98355 66.8653 7.85509 67.1838 7.59817L67.1746 7.60768ZM69.0813 4.83866V2.89273H68.4765V7.89791H69.0813V6.00907C69.0813 5.60942 69.1737 5.31444 69.3583 5.11937C69.543 4.92906 69.7877 4.82914 70.0878 4.82914C70.3556 4.82914 70.5679 4.91003 70.7203 5.06703C70.8727 5.22404 70.9511 5.45241 70.9511 5.74264V7.89791H71.5559V5.69982C71.5559 5.47144 71.5236 5.26686 71.459 5.08606C71.3943 4.90527 71.302 4.74826 71.1866 4.62456C71.0666 4.4961 70.9281 4.40094 70.7618 4.32958C70.5956 4.25821 70.4156 4.22491 70.2078 4.22491C69.7 4.22491 69.326 4.42949 69.0813 4.8339V4.83866ZM75.9973 6.11374C75.9973 5.59039 75.8173 5.14316 75.4618 4.77681C75.1109 4.41522 74.6769 4.23442 74.1644 4.23442C73.652 4.23442 73.218 4.41522 72.8671 4.77681C72.5162 5.1384 72.3408 5.58563 72.3408 6.11374C72.3408 6.64186 72.5162 7.08909 72.8671 7.45068C73.218 7.81227 73.652 7.99306 74.1644 7.99306C74.6769 7.99306 75.1109 7.81227 75.4618 7.45068C75.8173 7.08433 75.9973 6.6371 75.9973 6.11374ZM73.2965 7.02724C73.061 6.78459 72.941 6.48009 72.941 6.11374C72.941 5.74739 73.061 5.4429 73.2965 5.20025C73.5319 4.9576 73.8228 4.8339 74.1644 4.8339C74.5061 4.8339 74.8016 4.9576 75.0416 5.20025C75.2771 5.4429 75.3971 5.74739 75.3971 6.11374C75.3971 6.48009 75.2771 6.78459 75.0416 7.02724C74.8062 7.26988 74.5153 7.39358 74.1644 7.39358C73.8136 7.39358 73.5319 7.26988 73.2965 7.02724ZM77.4516 4.93857V4.32482H76.8468V9.33H77.4516V7.28416C77.7471 7.75518 78.1857 7.99306 78.7628 7.99306C79.2522 7.99306 79.6677 7.81227 80.0047 7.45068C80.3463 7.08433 80.5172 6.6371 80.5172 6.11374C80.5172 5.59039 80.3463 5.14791 80.0047 4.78157C79.6631 4.41522 79.2476 4.22966 78.7628 4.22966C78.1857 4.22966 77.7471 4.46755 77.4516 4.93857ZM77.8071 7.02724C77.5716 6.77983 77.4516 6.47533 77.4516 6.11374C77.4516 5.75215 77.5716 5.44765 77.8071 5.20501C78.0426 4.9576 78.338 4.8339 78.6889 4.8339C79.0398 4.8339 79.326 4.9576 79.5615 5.20501C79.7969 5.44765 79.917 5.75215 79.917 6.11374C79.917 6.47533 79.8016 6.77983 79.5615 7.02724C79.326 7.26988 79.0352 7.39358 78.6889 7.39358C78.3427 7.39358 78.0426 7.27464 77.8071 7.02724ZM81.9853 4.83866V2.89273H81.3805V7.89791H81.9853V6.00907C81.9853 5.60942 82.0776 5.31444 82.2623 5.11937C82.447 4.92906 82.6917 4.82914 82.9918 4.82914C83.2596 4.82914 83.4719 4.91003 83.6243 5.06703C83.7766 5.22404 83.8551 5.45241 83.8551 5.74264V7.89791H84.4599V5.69982C84.4599 5.47144 84.4276 5.26686 84.363 5.08606C84.2983 4.90527 84.206 4.74826 84.0906 4.62456C83.9705 4.4961 83.832 4.40094 83.6658 4.32958C83.4996 4.25821 83.3196 4.22491 83.1118 4.22491C82.604 4.22491 82.23 4.42949 81.9853 4.8339V4.83866ZM88.9013 6.11374C88.9013 5.59039 88.7212 5.14316 88.3657 4.77681C88.0149 4.41522 87.5809 4.23442 87.0684 4.23442C86.556 4.23442 86.122 4.41522 85.7711 4.77681C85.4202 5.1384 85.2448 5.58563 85.2448 6.11374C85.2448 6.64186 85.4202 7.08909 85.7711 7.45068C86.122 7.81227 86.556 7.99306 87.0684 7.99306C87.5809 7.99306 88.0149 7.81227 88.3657 7.45068C88.7212 7.08433 88.9013 6.6371 88.9013 6.11374ZM86.2005 7.02724C85.965 6.78459 85.845 6.48009 85.845 6.11374C85.845 5.74739 85.965 5.4429 86.2005 5.20025C86.4359 4.9576 86.7268 4.8339 87.0684 4.8339C87.4101 4.8339 87.7055 4.9576 87.9456 5.20025C88.1811 5.4429 88.3011 5.74739 88.3011 6.11374C88.3011 6.48009 88.1811 6.78459 87.9456 7.02724C87.7102 7.26988 87.4193 7.39358 87.0684 7.39358C86.7175 7.39358 86.4359 7.26988 86.2005 7.02724ZM92.1469 6.21366C92.1469 6.61331 92.0546 6.90829 91.8699 7.10336C91.6852 7.29843 91.4405 7.39358 91.1404 7.39358C90.8727 7.39358 90.6603 7.3127 90.5079 7.1557C90.3556 6.99869 90.2771 6.77032 90.2771 6.48009V4.32482H89.6723V6.52291C89.6723 6.75128 89.7046 6.95587 89.7693 7.13666C89.8339 7.31746 89.9262 7.46971 90.0416 7.59817C90.1617 7.72187 90.3002 7.82178 90.4664 7.89315C90.6326 7.96452 90.8127 7.99782 91.0204 7.99782C91.5283 7.99782 91.9022 7.79324 92.1469 7.38883V7.90267H92.7517V4.32482H92.1469V6.21841V6.21366ZM94.4969 4.93381C94.6169 4.84817 94.7646 4.81011 94.9355 4.81011C95.3094 4.81011 95.5587 4.96236 95.6834 5.26686L96.1912 4.97188C96.0804 4.73875 95.9142 4.55795 95.6926 4.42473C95.471 4.29151 95.2217 4.22966 94.9401 4.22966C94.5892 4.22966 94.2937 4.32958 94.0583 4.5294C93.8274 4.72923 93.712 4.98615 93.712 5.2954C93.712 5.48572 93.7536 5.64272 93.8321 5.76642C93.9105 5.89013 94.0121 5.99004 94.1321 6.07092C94.2522 6.1518 94.3907 6.21366 94.5384 6.26123C94.6862 6.30881 94.8293 6.35163 94.9678 6.38969C95.1617 6.43727 95.3233 6.50388 95.4572 6.58476C95.591 6.6704 95.6557 6.77983 95.6557 6.91781C95.6557 7.08433 95.5911 7.20803 95.4618 7.28416C95.3325 7.36504 95.1663 7.4031 94.9678 7.4031C94.7554 7.4031 94.5707 7.35552 94.4184 7.25561C94.266 7.1557 94.1598 7.01772 94.1044 6.84644L93.5827 7.1557C93.6843 7.41262 93.8551 7.6172 94.0952 7.76469C94.3353 7.91694 94.6261 7.98831 94.9632 7.98831C95.3371 7.98831 95.6465 7.88839 95.8911 7.69332C96.1358 7.49826 96.2559 7.23658 96.2559 6.91305C96.2559 6.72274 96.2189 6.56097 96.1405 6.43727C96.062 6.30881 95.9604 6.2089 95.8357 6.12326C95.7111 6.04238 95.5726 5.97577 95.4249 5.92819C95.2771 5.88061 95.134 5.84255 95.0001 5.814C94.8062 5.76167 94.6446 5.69506 94.5107 5.60942C94.3768 5.52378 94.3122 5.41435 94.3122 5.27637C94.3122 5.12413 94.3722 5.00518 94.4922 4.9243L94.4969 4.93381ZM100.453 6.39921C100.466 6.30881 100.471 6.21366 100.471 6.1185C100.471 5.59514 100.309 5.14791 99.9863 4.78632C99.6677 4.41522 99.2522 4.22966 98.7443 4.22966C98.2088 4.22966 97.7702 4.41046 97.4332 4.76729C97.0961 5.11937 96.9253 5.5666 96.9253 6.11374C96.9253 6.66089 97.0961 7.10336 97.4378 7.46495C97.7887 7.81703 98.2365 7.99306 98.7859 7.99306C99.4599 7.99306 99.9724 7.72187 100.314 7.18424L99.8016 6.8845C99.5938 7.23182 99.2614 7.40786 98.7997 7.40786C98.4673 7.40786 98.1903 7.32222 97.9687 7.14142C97.7471 6.96063 97.604 6.71798 97.544 6.39921H100.453ZM99.4738 5.07655C99.6815 5.25258 99.8108 5.5095 99.8616 5.85207H97.544C97.5947 5.53805 97.7286 5.28589 97.941 5.09558C98.1534 4.91003 98.4212 4.81487 98.7443 4.81487C99.0213 4.81487 99.266 4.90051 99.4738 5.07655ZM45.3463 20.6059L43.3241 17.0519C43.8551 16.7997 44.2798 16.4286 44.603 15.9338C44.9262 15.439 45.0878 14.8966 45.0878 14.3066C45.0878 13.4455 44.7923 12.708 44.2013 12.099C43.6104 11.49 42.8902 11.1855 42.0453 11.1855H38.3888V20.6059H40.1893V17.3373H41.5605L43.4026 20.6059H45.3463ZM42.0453 12.9221C42.2115 12.9221 42.3685 12.9602 42.5208 13.0315C42.6732 13.1029 42.8071 13.2028 42.9179 13.3265C43.0287 13.4502 43.121 13.5977 43.1856 13.769C43.2503 13.9403 43.2826 14.1163 43.2826 14.3066C43.2826 14.4969 43.2503 14.673 43.1856 14.8443C43.121 15.0155 43.0287 15.163 42.9179 15.2963C42.8024 15.4247 42.6732 15.5294 42.5208 15.6007C42.3685 15.6721 42.2115 15.7102 42.0453 15.7102H40.1893V12.9269H42.0453V12.9221ZM52.8948 17.2422C52.8948 16.2573 52.5578 15.4152 51.8883 14.7253C51.2189 14.0354 50.4017 13.6881 49.4322 13.6881C48.4627 13.6881 47.6455 14.0354 46.976 14.7253C46.3158 15.4057 45.9834 16.2478 45.9834 17.2422C45.9834 18.2366 46.3158 19.0882 46.976 19.7733C47.6362 20.4584 48.458 20.7962 49.4322 20.7962C50.4063 20.7962 51.2235 20.4537 51.8883 19.7733C52.5578 19.0834 52.8948 18.2413 52.8948 17.2422ZM47.6686 17.2422C47.6686 16.7141 47.8348 16.2668 48.1626 15.91C48.5042 15.5579 48.9243 15.3866 49.4276 15.3866C49.9308 15.3866 50.3555 15.5627 50.6926 15.91C51.0296 16.2573 51.2004 16.7046 51.2004 17.2422C51.2004 17.7798 51.0296 18.2223 50.6926 18.5744C50.3555 18.9264 49.9308 19.0977 49.4276 19.0977C48.9243 19.0977 48.4996 18.9217 48.1626 18.5744C47.8302 18.2175 47.6686 17.7703 47.6686 17.2422ZM56.6252 18.3983L54.9262 13.8784H53.0841L55.7618 20.3918C55.6049 20.8486 55.3925 21.1816 55.1293 21.3862C54.8662 21.5908 54.5061 21.6907 54.0536 21.6812V23.2941C54.8985 23.3369 55.6002 23.1466 56.1543 22.7136C56.7129 22.2854 57.1607 21.5813 57.4978 20.6012L59.8754 13.8737H58.0749L56.6252 18.3936V18.3983ZM65.374 14.673C64.8708 14.0164 64.1598 13.6881 63.2457 13.6881C62.3316 13.6881 61.6252 14.0354 61.0019 14.7253C60.3833 15.4152 60.0739 16.2573 60.0739 17.2422C60.0739 18.227 60.3833 19.0787 61.0019 19.7733C61.6298 20.4537 62.3777 20.7962 63.2457 20.7962C64.1598 20.7962 64.8708 20.468 65.374 19.8114V20.6059H67.0592V13.8784H65.374V14.673ZM61.7591 17.2422C61.7591 16.6855 61.9299 16.2335 62.2669 15.8815C62.6086 15.5246 63.0379 15.3438 63.5596 15.3438C64.0813 15.3438 64.5107 15.5246 64.8523 15.8815C65.1986 16.2335 65.374 16.6855 65.374 17.2422C65.374 17.7988 65.1986 18.2556 64.8523 18.6124C64.5061 18.9693 64.0813 19.1358 63.5596 19.1358C63.0379 19.1358 62.6086 18.9597 62.2669 18.6124C61.9253 18.2556 61.7591 17.7941 61.7591 17.2422ZM70.2678 20.6059V10.7859H68.5827V20.6059H70.2678ZM75.1524 11.1855V20.6059H76.953V17.5134H78.5596C79.4276 17.5134 80.1709 17.2089 80.7803 16.5999C81.3805 16.0004 81.6806 15.2487 81.6806 14.3542C81.6806 13.4597 81.3805 12.7175 80.7803 12.1085C80.1709 11.4995 79.4322 11.195 78.5596 11.195H75.1524V11.1855ZM76.953 15.7768V12.9269H78.5596C78.9521 12.9269 79.2706 13.0601 79.5199 13.3313C79.7692 13.6025 79.8939 13.9403 79.8939 14.3542C79.8939 14.5588 79.8616 14.7491 79.7969 14.9204C79.7323 15.0917 79.64 15.2392 79.5246 15.3724C79.4091 15.5008 79.266 15.6055 79.0998 15.6769C78.9336 15.7482 78.7582 15.7863 78.5643 15.7863H76.9576L76.953 15.7768ZM87.3085 14.673C86.8053 14.0164 86.0943 13.6881 85.1801 13.6881C84.266 13.6881 83.5596 14.0354 82.9364 14.7253C82.3177 15.4152 82.0084 16.2573 82.0084 17.2422C82.0084 18.227 82.3177 19.0787 82.9364 19.7733C83.5643 20.4537 84.3122 20.7962 85.1801 20.7962C86.0943 20.7962 86.8053 20.468 87.3085 19.8114V20.6059H88.9936V13.8784H87.3085V14.673ZM83.6889 17.2422C83.6889 16.6855 83.8597 16.2335 84.1968 15.8815C84.5384 15.5246 84.9678 15.3438 85.4895 15.3438C86.0112 15.3438 86.4405 15.5246 86.7822 15.8815C87.1284 16.2335 87.3039 16.6855 87.3039 17.2422C87.3039 17.7988 87.1284 18.2556 86.7822 18.6124C86.4359 18.9693 86.0112 19.1358 85.4895 19.1358C84.9678 19.1358 84.5384 18.9597 84.1968 18.6124C83.8551 18.2556 83.6889 17.7941 83.6889 17.2422ZM92.2023 13.8784H90.5172V20.6059H92.2023V17.3897C92.2023 16.7426 92.4008 16.2811 92.8025 16.0052C93.2134 15.7197 93.6751 15.6103 94.1875 15.6816V13.7452C93.7443 13.7452 93.3427 13.8546 92.9779 14.0687C92.6178 14.2828 92.3593 14.6064 92.2023 15.0393V13.8832V13.8784ZM98.4812 17.1994L101.104 13.8784H99.0952L96.8514 16.8378V11.1855H95.1663V20.6059H96.8514V17.5514L99.2291 20.6059H101.187L98.4858 17.1994H98.4812Z" fill="white"/>
</g>
<defs>
<clipPath id="clip0_79_6053">
<rect width="101.187" height="23.3036" fill="white"/>
</clipPath>
</defs>
</svg>
