<svg width="31" height="44" viewBox="0 0 31 44" fill="none" xmlns="http://www.w3.org/2000/svg">
<path d="M5.92732 42.3145C5.95405 42.5603 6.00225 42.9398 6.29621 43.036C6.49397 43.0948 6.67026 43.0948 6.73975 43.0948C6.77181 43.0948 6.79325 43.1002 6.79325 43.1269C6.79325 43.1696 6.73444 43.1857 6.64892 43.1857C6.49927 43.1857 5.7671 43.1643 5.51589 43.1429C5.36089 43.1269 5.32342 43.1109 5.32342 43.0734C5.32342 43.0467 5.3395 43.0307 5.37157 43.0253C5.40364 43.02 5.41422 42.9024 5.39819 42.7795L5.07223 39.2733H5.05083L3.38853 42.8062C3.24422 43.1055 3.22288 43.1643 3.16409 43.1643C3.11599 43.1643 3.08398 43.0948 2.9557 42.8543C2.77932 42.5229 2.19674 41.3471 2.15933 41.2776C2.10054 41.1546 1.33613 39.5245 1.2613 39.3428H1.23468L0.962094 42.4909C0.956749 42.5977 0.956744 42.7207 0.956744 42.8383C0.956744 42.9398 1.03148 43.0307 1.13303 43.0467C1.25062 43.0734 1.35216 43.0788 1.38957 43.0788C1.4163 43.0788 1.44308 43.0948 1.44308 43.1109C1.44308 43.159 1.40033 43.1696 1.32015 43.1696C1.06895 43.1696 0.742951 43.1483 0.689503 43.1483C0.63071 43.1483 0.304639 43.1696 0.11757 43.1696C0.0480877 43.1696 0 43.1536 0 43.1109C0 43.0895 0.0320063 43.0788 0.06942 43.0788C0.122868 43.0788 0.171039 43.0788 0.272591 43.0574C0.497073 43.0146 0.518458 42.7527 0.545182 42.4962L1.03151 38.0707C1.04755 37.9959 1.06366 37.9478 1.10641 37.9478C1.14917 37.9478 1.17587 37.9745 1.20793 38.0493L3.28701 42.3198L5.28597 38.0546C5.31269 37.9959 5.33939 37.9478 5.38749 37.9478C5.43559 37.9478 5.45705 38.0012 5.46774 38.1295L5.92197 42.2984L5.92732 42.3145Z" fill="white"/>
<path d="M9.59407 41.2183C9.59407 41.8704 9.5941 42.4049 9.62617 42.6935C9.64755 42.8913 9.68496 43.0409 9.89341 43.0676C9.98962 43.0837 10.1392 43.0944 10.198 43.0944C10.2407 43.0944 10.2515 43.1157 10.2515 43.1371C10.2515 43.1692 10.2194 43.1906 10.1446 43.1906C9.77046 43.1906 9.34285 43.1692 9.31078 43.1692C9.27871 43.1692 8.85112 43.1906 8.64267 43.1906C8.56785 43.1906 8.5358 43.1745 8.5358 43.1371C8.5358 43.1157 8.55189 43.0944 8.5893 43.0944C8.6481 43.0944 8.73355 43.0783 8.79235 43.0676C8.92597 43.0409 8.96344 42.8913 8.99017 42.6935C9.02224 42.4102 9.02214 41.8704 9.02214 41.2183V40.0211C9.02214 38.9628 9.02212 38.7704 9.00609 38.5566C8.99005 38.3268 8.92595 38.2092 8.7763 38.1771C8.70147 38.1558 8.61601 38.1504 8.5679 38.1504C8.54118 38.1504 8.5144 38.1344 8.5144 38.1077C8.5144 38.0649 8.54645 38.0542 8.62127 38.0542C8.84576 38.0542 9.27336 38.0756 9.30543 38.0756C9.3375 38.0756 9.76508 38.0542 9.97353 38.0542C10.0484 38.0542 10.0804 38.0702 10.0804 38.1077C10.0804 38.1344 10.0538 38.1504 10.027 38.1504C9.97893 38.1504 9.93613 38.1558 9.85596 38.1718C9.67424 38.2039 9.6208 38.3214 9.60477 38.5566C9.58873 38.7758 9.58872 38.9628 9.58872 40.0211V41.2183H9.59407Z" fill="white"/>
<path d="M13.7841 41.4331C13.7841 41.0643 13.7146 40.9146 13.6291 40.7222C13.581 40.6153 12.6724 39.1188 12.4319 38.766C12.2609 38.5148 12.0898 38.3438 11.9722 38.2636C11.8706 38.1941 11.7423 38.1567 11.6782 38.1567C11.6461 38.1567 11.6088 38.1407 11.6088 38.1086C11.6088 38.0819 11.6354 38.0605 11.6996 38.0605C11.8279 38.0605 12.3356 38.0819 12.373 38.0819C12.4211 38.0819 12.6777 38.0605 12.945 38.0605C13.0198 38.0605 13.0358 38.0819 13.0358 38.1086C13.0358 38.1353 12.9931 38.1407 12.9343 38.1674C12.8808 38.1941 12.8488 38.2369 12.8488 38.2903C12.8488 38.3705 12.8808 38.456 12.9343 38.5576C13.0412 38.7553 14.0621 40.5084 14.185 40.7008C14.3133 40.4176 15.1737 38.9264 15.3127 38.7019C15.3982 38.5576 15.4303 38.4453 15.4303 38.3545C15.4303 38.2583 15.4036 38.1834 15.3234 38.162C15.2646 38.1407 15.2219 38.13 15.2219 38.0926C15.2219 38.0658 15.2646 38.0498 15.3287 38.0498C15.5051 38.0498 15.7243 38.0712 15.7778 38.0712C15.8205 38.0712 16.3069 38.0498 16.4352 38.0498C16.4833 38.0498 16.5206 38.0658 16.5206 38.0926C16.5206 38.1246 16.4886 38.146 16.4352 38.146C16.3603 38.146 16.232 38.1727 16.1251 38.2422C15.9915 38.3224 15.9167 38.4026 15.7671 38.5896C15.5426 38.8622 14.5912 40.455 14.4683 40.7489C14.3667 40.9948 14.3666 41.2032 14.3666 41.4277V42.0103C14.3666 42.1172 14.3667 42.4058 14.388 42.6891C14.4041 42.8869 14.4629 43.0365 14.666 43.0632C14.7622 43.0793 14.9119 43.09 14.9707 43.09C15.0134 43.09 15.024 43.1113 15.024 43.1327C15.024 43.1648 14.992 43.1862 14.9172 43.1862C14.543 43.1862 14.1154 43.1648 14.0834 43.1648C14.0513 43.1648 13.6237 43.1862 13.4153 43.1862C13.3404 43.1862 13.3084 43.1701 13.3084 43.1327C13.3084 43.1113 13.3245 43.09 13.3619 43.09C13.4207 43.09 13.5061 43.0739 13.5649 43.0632C13.6985 43.0365 13.7628 42.8869 13.7734 42.6891C13.7948 42.4058 13.7948 42.1172 13.7948 42.0103V41.4277L13.7841 41.4331Z" fill="white"/>
<path d="M19.161 38.2252C19.2411 38.0008 19.2679 37.958 19.3106 37.958C19.3534 37.958 19.3801 37.9901 19.4603 38.2039C19.5619 38.4604 20.6308 41.2664 21.0424 42.298C21.2882 42.902 21.486 43.0089 21.625 43.0516C21.7265 43.0837 21.8281 43.0944 21.8976 43.0944C21.9403 43.0944 21.967 43.0997 21.967 43.1371C21.967 43.1799 21.9082 43.1906 21.8334 43.1906C21.7318 43.1906 21.2348 43.1906 20.7698 43.1746C20.6415 43.1692 20.5667 43.1692 20.5667 43.1264C20.5667 43.0997 20.5882 43.0837 20.6149 43.0783C20.6576 43.0623 20.695 43.0035 20.6575 42.8966L20.0269 41.2237C20.0109 41.197 20.0001 41.1809 19.968 41.1809H18.5089C18.4769 41.1809 18.4555 41.2023 18.4395 41.2344L18.0333 42.437C17.9745 42.608 17.9371 42.7683 17.9371 42.8913C17.9371 43.0249 18.0814 43.089 18.1937 43.089H18.2631C18.3112 43.089 18.3326 43.1051 18.3326 43.1318C18.3326 43.1745 18.2898 43.1852 18.231 43.1852C18.0653 43.1852 17.7767 43.1639 17.7018 43.1639C17.627 43.1639 17.2529 43.1852 16.9322 43.1852C16.8414 43.1852 16.804 43.1692 16.804 43.1318C16.804 43.1051 16.8307 43.089 16.8628 43.089C16.9109 43.089 17.007 43.0837 17.0605 43.073C17.3705 43.0302 17.5095 42.7737 17.6324 42.437L19.1717 38.2199L19.161 38.2252ZM19.8665 40.9404C19.8986 40.9404 19.8986 40.919 19.8933 40.8923L19.2466 39.059C19.2145 38.9575 19.1771 38.9575 19.1451 39.059L18.5464 40.8923C18.5303 40.9244 18.5464 40.9404 18.5678 40.9404H19.8665Z" fill="white"/>
<path d="M23.9555 40.027C23.9555 38.9687 23.9555 38.7763 23.9395 38.5625C23.9234 38.3326 23.87 38.2204 23.6455 38.1776C23.592 38.1616 23.4745 38.1563 23.4157 38.1563C23.389 38.1563 23.3622 38.1402 23.3622 38.1135C23.3622 38.0707 23.3942 38.0601 23.4691 38.0601C23.7737 38.0601 24.2013 38.0814 24.2387 38.0814C24.399 38.0814 24.6663 38.0601 24.9763 38.0601C26.0881 38.0601 26.3339 38.7389 26.3339 39.0809C26.3339 39.6368 26.0131 39.9682 25.6978 40.3049C26.2002 40.4599 26.8738 40.9409 26.8738 41.7373C26.8738 42.4642 26.3019 43.2178 25.142 43.2178C24.987 43.2178 24.2921 43.1751 24.2387 43.1751C24.2066 43.1751 23.779 43.1964 23.5706 43.1964C23.4957 43.1964 23.4637 43.1804 23.4637 43.143C23.4637 43.1216 23.4798 43.1002 23.5172 43.1002C23.576 43.1002 23.6615 43.0842 23.7202 43.0735C23.8539 43.0468 23.8913 42.8971 23.9181 42.6994C23.9501 42.4161 23.9502 41.8763 23.9502 41.2242V40.027H23.9555ZM24.5006 40.1766C24.5006 40.2247 24.5166 40.2354 24.5487 40.2514C24.5915 40.2568 24.7144 40.2782 24.9603 40.2782C25.3398 40.2782 25.4359 40.2621 25.5802 40.1018C25.7245 39.9361 25.8262 39.6956 25.8262 39.4176C25.8262 38.8564 25.5749 38.2471 24.9068 38.2471C24.832 38.2471 24.6877 38.2525 24.5808 38.2792C24.522 38.2952 24.5006 38.3113 24.5006 38.354V40.1766ZM24.5006 40.8982C24.5006 41.422 24.5006 42.2611 24.5059 42.3626C24.5273 42.694 24.5274 42.7902 24.7358 42.8918C24.9176 42.9773 25.2115 42.9933 25.3344 42.9933C25.7032 42.9933 26.2911 42.7956 26.2911 42.0313C26.2911 41.6251 26.1575 41.0318 25.6337 40.6737C25.4039 40.5187 25.2328 40.4973 25.0725 40.4759C24.987 40.4599 24.6449 40.4599 24.5434 40.4599C24.5166 40.4599 24.5006 40.4759 24.5006 40.508V40.8928V40.8982Z" fill="white"/>
<path d="M30.2088 41.2183C30.2088 41.8704 30.2087 42.4049 30.2408 42.6935C30.2622 42.8913 30.2996 43.0409 30.508 43.0676C30.6042 43.0837 30.7539 43.0944 30.8127 43.0944C30.8555 43.0944 30.8662 43.1157 30.8662 43.1371C30.8662 43.1692 30.8342 43.1906 30.7593 43.1906C30.3852 43.1906 29.9576 43.1692 29.9255 43.1692C29.8935 43.1692 29.4659 43.1906 29.2574 43.1906C29.1826 43.1906 29.1506 43.1745 29.1506 43.1371C29.1506 43.1157 29.1665 43.0944 29.2039 43.0944C29.2627 43.0944 29.3483 43.0783 29.4071 43.0676C29.5407 43.0409 29.5781 42.8913 29.6048 42.6935C29.6369 42.4102 29.6369 41.8704 29.6369 41.2183V40.0211C29.6369 38.9628 29.6369 38.7704 29.6208 38.5566C29.6048 38.3268 29.5407 38.2092 29.391 38.1771C29.3162 38.1558 29.2306 38.1504 29.1825 38.1504C29.1558 38.1504 29.1292 38.1344 29.1292 38.1077C29.1292 38.0649 29.1612 38.0542 29.236 38.0542C29.4605 38.0542 29.8881 38.0756 29.9202 38.0756C29.9522 38.0756 30.3798 38.0542 30.5883 38.0542C30.6631 38.0542 30.6951 38.0702 30.6951 38.1077C30.6951 38.1344 30.6684 38.1504 30.6416 38.1504C30.5935 38.1504 30.5509 38.1558 30.4707 38.1718C30.289 38.2039 30.2355 38.3214 30.2195 38.5566C30.2035 38.7758 30.2035 38.9628 30.2035 40.0211V41.2183H30.2088Z" fill="white"/>
<path d="M12.2449 34.9971C12.2449 35.2697 12.2449 35.4995 12.261 35.6171C12.2717 35.7026 12.2877 35.7614 12.3732 35.7721C12.4106 35.7775 12.4747 35.7828 12.5015 35.7828C12.5175 35.7828 12.5229 35.7935 12.5229 35.7989C12.5229 35.8149 12.5068 35.8202 12.4747 35.8202C12.3197 35.8202 12.138 35.8095 12.122 35.8095C12.106 35.8095 11.9296 35.8202 11.8387 35.8202C11.8067 35.8202 11.7907 35.8149 11.7907 35.7989C11.7907 35.7882 11.7959 35.7828 11.812 35.7828C11.8387 35.7828 11.8708 35.7775 11.8976 35.7721C11.9564 35.7614 11.967 35.6973 11.983 35.6171C11.9991 35.4942 11.9991 35.2697 11.9991 34.9971V33.7839H11.5768C11.4004 33.7945 11.3309 33.8106 11.2828 33.8801C11.2508 33.9282 11.2455 33.9495 11.2348 33.9709C11.2241 33.9923 11.2188 33.9976 11.2081 33.9976C11.1974 33.9976 11.192 33.987 11.192 33.9709C11.192 33.9442 11.2509 33.6983 11.2562 33.6716C11.2616 33.6556 11.2721 33.6182 11.2828 33.6182C11.3042 33.6182 11.3309 33.6449 11.4111 33.6502C11.4966 33.6609 11.6036 33.6663 11.6357 33.6663H12.71C12.8917 33.6663 12.9719 33.6395 12.9933 33.6395C13.0093 33.6395 13.0092 33.6556 13.0092 33.6716C13.0092 33.7571 12.9986 33.9549 12.9986 33.987C12.9986 34.0137 12.9879 34.0244 12.9772 34.0244C12.9612 34.0244 12.9558 34.0137 12.9558 33.9763V33.9442C12.9398 33.8587 12.8756 33.7945 12.603 33.7892H12.2396V34.9971H12.2449Z" fill="white"/>
<path d="M16.4943 34.9973C16.4943 35.2699 16.4943 35.4997 16.5103 35.6173C16.521 35.7029 16.537 35.7616 16.6225 35.7723C16.6599 35.7777 16.7241 35.783 16.7508 35.783C16.7668 35.783 16.7722 35.7937 16.7722 35.7991C16.7722 35.8151 16.7563 35.8204 16.7242 35.8204C16.5692 35.8204 16.3874 35.8097 16.3713 35.8097C16.3553 35.8097 16.1789 35.8204 16.088 35.8204C16.056 35.8204 16.04 35.8151 16.04 35.7991C16.04 35.7884 16.0454 35.783 16.0614 35.783C16.0882 35.783 16.1202 35.7777 16.1469 35.7723C16.2057 35.7616 16.2163 35.6975 16.2324 35.6173C16.2484 35.4944 16.2484 35.2699 16.2484 34.9973V34.698C16.2484 34.698 16.2377 34.682 16.2324 34.682H15.0191C15.0191 34.682 15.0032 34.682 15.0032 34.698V34.9973C15.0032 35.2699 15.0031 35.4997 15.0191 35.6173C15.0298 35.7029 15.0459 35.7616 15.1314 35.7723C15.1742 35.7777 15.233 35.783 15.2597 35.783C15.2757 35.783 15.281 35.7937 15.281 35.7991C15.281 35.8151 15.265 35.8204 15.233 35.8204C15.078 35.8204 14.8961 35.8097 14.8801 35.8097C14.8641 35.8097 14.6878 35.8204 14.597 35.8204C14.5649 35.8204 14.5488 35.8151 14.5488 35.7991C14.5488 35.7884 14.5542 35.783 14.5702 35.783C14.5969 35.783 14.6289 35.7777 14.6557 35.7723C14.7145 35.7616 14.7251 35.6975 14.7411 35.6173C14.7572 35.4944 14.7572 35.2699 14.7572 34.9973V34.4949C14.7572 34.046 14.7572 33.9658 14.7518 33.8749C14.7465 33.7787 14.7251 33.7306 14.6289 33.7092C14.6075 33.7039 14.5595 33.6985 14.5328 33.6985C14.5221 33.6985 14.5114 33.6932 14.5114 33.6825C14.5114 33.6665 14.5274 33.6611 14.5595 33.6611C14.6878 33.6611 14.8694 33.6718 14.8855 33.6718C14.9015 33.6718 15.0779 33.6611 15.1688 33.6611C15.2008 33.6611 15.2169 33.6665 15.2169 33.6825C15.2169 33.6932 15.2062 33.6985 15.1955 33.6985C15.1741 33.6985 15.1582 33.6985 15.1261 33.7092C15.0459 33.7253 15.0244 33.7734 15.0191 33.8749C15.0137 33.9658 15.0137 34.046 15.0137 34.4949V34.5537C15.0137 34.5537 15.0244 34.5698 15.0298 34.5698H16.2431C16.2431 34.5698 16.2591 34.5698 16.2591 34.5537V34.4949C16.2591 34.046 16.2591 33.9658 16.2538 33.8749C16.2484 33.7787 16.2271 33.7306 16.1308 33.7092C16.1095 33.7039 16.0614 33.6985 16.0347 33.6985C16.024 33.6985 16.0133 33.6932 16.0133 33.6825C16.0133 33.6665 16.0294 33.6611 16.0614 33.6611C16.1897 33.6611 16.3714 33.6718 16.3874 33.6718C16.4034 33.6718 16.5798 33.6611 16.6707 33.6611C16.7028 33.6611 16.7188 33.6665 16.7188 33.6825C16.7188 33.6932 16.7081 33.6985 16.6974 33.6985C16.6761 33.6985 16.66 33.6985 16.6279 33.7092C16.5531 33.7253 16.5264 33.7734 16.521 33.8749C16.5157 33.9658 16.5157 34.046 16.5157 34.4949V34.9973H16.4943Z" fill="white"/>
<path d="M18.6589 34.4948C18.6589 34.0459 18.6589 33.9657 18.6536 33.8748C18.6482 33.7786 18.6269 33.7305 18.5307 33.7091C18.5093 33.7038 18.4612 33.6984 18.4345 33.6984C18.4238 33.6984 18.4131 33.6931 18.4131 33.6824C18.4131 33.6664 18.4292 33.661 18.4612 33.661C18.5895 33.661 18.7712 33.6717 18.7872 33.6717C18.8086 33.6717 19.3751 33.6717 19.4446 33.6717C19.498 33.6717 19.5461 33.661 19.5675 33.6557C19.5836 33.6557 19.5943 33.6396 19.605 33.6396C19.6157 33.6396 19.6157 33.6503 19.6157 33.6664C19.6157 33.6877 19.5996 33.7198 19.5943 33.8C19.5943 33.8267 19.5836 33.955 19.5782 33.9871C19.5782 34.0031 19.5675 34.0191 19.5568 34.0191C19.5408 34.0191 19.5356 34.0031 19.5356 33.9817C19.5356 33.9603 19.5355 33.9122 19.5195 33.8802C19.4981 33.8321 19.4713 33.8 19.3163 33.784C19.2682 33.7786 18.9529 33.7733 18.9262 33.7733C18.9155 33.7733 18.9101 33.784 18.9101 33.8V34.591C18.9101 34.591 18.9101 34.6178 18.9262 34.6178C18.9636 34.6178 19.3164 34.6178 19.3805 34.6124C19.45 34.6071 19.4874 34.6017 19.5142 34.575C19.5355 34.5536 19.5461 34.5376 19.5568 34.5376C19.5675 34.5376 19.5729 34.5429 19.5729 34.559C19.5729 34.575 19.5568 34.6231 19.5515 34.7193C19.5461 34.7781 19.5409 34.885 19.5409 34.901C19.5409 34.9224 19.5409 34.9545 19.5195 34.9545C19.5035 34.9545 19.4981 34.9438 19.4981 34.9277C19.4981 34.901 19.4981 34.869 19.4874 34.8315C19.4767 34.7941 19.45 34.7407 19.3377 34.73C19.2629 34.7193 18.9743 34.714 18.9262 34.714C18.9101 34.714 18.9048 34.7246 18.9048 34.7353V34.9865C18.9048 35.0827 18.9048 35.4141 18.9048 35.4783C18.9155 35.676 18.9583 35.7134 19.2362 35.7134C19.311 35.7134 19.4393 35.7134 19.5088 35.6814C19.5836 35.6493 19.6157 35.5905 19.6371 35.4729C19.6424 35.4409 19.6478 35.4302 19.6638 35.4302C19.6799 35.4302 19.6799 35.4515 19.6799 35.4729C19.6799 35.4943 19.6585 35.6921 19.6424 35.7509C19.621 35.8257 19.5996 35.8257 19.4874 35.8257C19.0545 35.8257 18.862 35.8096 18.7818 35.8096C18.7658 35.8096 18.5894 35.8203 18.4986 35.8203C18.4665 35.8203 18.4505 35.815 18.4505 35.799C18.4505 35.7883 18.4559 35.7829 18.4719 35.7829C18.4987 35.7829 18.5307 35.7776 18.5574 35.7722C18.6162 35.7615 18.6268 35.6974 18.6429 35.6172C18.6589 35.4996 18.6589 35.2698 18.6589 34.9972V34.4948Z" fill="white"/>
<path d="M11.9403 10.3735C9.81837 11.9984 8.25773 13.6553 7.17273 15.4297C7.26359 15.6596 7.36517 15.8627 7.47207 16.039C8.19897 14.7242 9.22519 13.4842 10.695 12.1427C10.695 12.1373 10.7057 12.132 10.7111 12.1266C11.315 11.5815 11.9457 11.063 12.5925 10.5873C12.3733 10.4965 12.1541 10.4056 11.9456 10.3735" fill="white"/>
<path d="M15.4038 3.25928C12.7849 3.30738 10.4812 4.63824 8.91513 7.01134C8.42875 7.74893 7.83014 8.90341 7.72325 10.2075C7.62704 11.4101 7.77136 12.6234 8.13481 13.7298C8.27378 13.5534 8.41811 13.3824 8.56242 13.222C7.96915 11.4315 8.17753 9.48065 9.16097 7.71686C10.2246 5.8141 12.0793 4.39772 14.1263 3.92738C16.7132 3.441 19.6475 4.53135 21.6144 6.696C21.9298 6.76014 22.2183 6.82427 22.4963 6.92048C20.7111 4.57945 18.0762 3.22186 15.3931 3.26997" fill="white"/>
<path d="M10.7218 16.9214C10.5401 17.1833 10.3637 17.4772 10.182 17.8247C10.3156 19.861 10.9089 21.7478 11.903 23.2817C12.1222 23.3191 12.352 23.3298 12.5979 23.3084C11.5984 21.9081 10.973 20.1603 10.7806 18.2522C10.7378 17.83 10.7165 17.4024 10.7218 16.9214Z" fill="white"/>
<path d="M13.6881 7.55254C16.0559 8.51461 18.0549 9.79202 19.6316 11.3527C19.6851 11.1389 19.7385 10.9144 19.7599 10.7006C18.2954 9.3003 16.4727 8.12978 14.3402 7.21582C14.121 7.29599 13.9019 7.40823 13.6881 7.5472" fill="white"/>
<path d="M23.8754 25.0081C25.9973 22.6724 26.2431 19.3319 24.4954 16.4991C23.9876 15.7669 23.4479 14.9866 22.876 14.2383C22.7852 14.4467 22.6996 14.6338 22.6088 14.8209C23.1593 15.5531 23.6456 16.2426 24.1373 16.9855C24.1373 16.9855 24.1373 16.9855 24.1373 16.9909C24.1373 16.9909 24.1373 17.0016 24.1427 17.0016C25.6018 19.4816 25.3506 22.4479 23.496 24.5591C22.6461 25.5265 21.5559 26.1946 20.3372 26.494C19.0331 26.8146 17.6381 26.6917 16.3019 26.1359C16.0881 26.2748 15.8849 26.3924 15.6871 26.494C17.1837 27.1781 18.7445 27.3865 20.2143 27.0926C21.6253 26.8093 22.892 26.0878 23.8754 25.0081Z" fill="white"/>
<path d="M5.04009 9.59834C3.92303 10.8063 3.255 12.228 3.11069 13.7032C2.9931 15.7876 3.81619 17.9042 5.36618 19.5023C6.87877 21.063 8.90977 21.9502 10.9515 21.9502H10.9675C10.882 21.7525 10.8018 21.5601 10.7323 21.3676C8.18814 21.2982 5.83118 19.8016 4.55911 17.4552C3.65049 15.9747 3.43126 14.3178 3.92298 12.6716C4.51625 10.694 6.09306 8.94093 8.15082 7.96817C8.28978 7.67421 8.45004 7.39628 8.59435 7.15576C7.21538 7.72766 5.99147 8.56679 5.04009 9.59834Z" fill="white"/>
<path d="M14.9122 20.9457C17.1142 21.9612 19.3751 22.2926 21.4489 21.9024C21.5504 21.7047 21.6306 21.4962 21.6947 21.2824C19.4606 21.8009 16.9325 21.3947 14.5327 20.1333C14.6396 20.4005 14.7679 20.6731 14.9175 20.9511" fill="white"/>
<path d="M19.1183 18.2468C19.3748 18.2735 19.6421 18.2842 19.904 18.2735C21.6143 16.5471 22.7901 14.484 23.3085 12.2873C23.1642 12.0788 23.0147 11.8918 22.8597 11.7261C22.3679 14.1687 21.0478 16.4723 19.1183 18.2468Z" fill="white"/>
<path d="M9.34802 17.8136C9.51371 17.8991 9.68475 17.9472 9.8825 17.9846C11.192 15.3549 13.6025 13.5217 15.5907 12.2068C15.4037 12.0786 15.238 11.9663 15.083 11.8701C11.2989 14.4196 9.9894 16.472 9.34802 17.8136Z" fill="white"/>
<path d="M6.55279 12.656C5.98624 13.6074 6.00754 14.8421 6.60616 16.0447C7.32771 17.4984 8.71202 18.5888 10.0803 18.8026C10.0536 18.6048 10.0323 18.4071 10.0162 18.2147C8.63726 17.9314 7.32772 16.6807 6.8841 15.2162C6.53135 14.0403 6.77724 12.9553 7.58966 12.159C7.55759 11.9078 7.53627 11.6619 7.52024 11.4214C7.11938 11.8169 6.79331 12.2285 6.55814 12.6507" fill="white"/>
<path d="M15.1097 6.26909C13.0413 6.49357 11.0797 8.38029 10.7483 10.4701C10.7322 10.6679 10.7269 10.8763 10.7322 11.0955C10.946 10.9137 11.1331 10.7534 11.3095 10.6144C11.4966 9.28357 12.4426 7.99012 13.7307 7.31667C14.8638 6.7234 16.1039 6.68599 17.1408 7.20443C17.4134 7.10823 17.6753 7.02271 17.9318 6.94788C16.943 6.45081 15.9916 6.22633 15.1044 6.27443" fill="white"/>
<path d="M12.3841 23.5062C11.2349 23.5382 10.2408 22.9984 9.57803 21.9882C9.35355 21.9455 9.11301 21.892 8.88318 21.8439C9.51387 23.1908 10.6737 23.9925 12.0847 24.062C13.7363 24.1422 15.3504 23.2068 16.227 21.6782C16.0345 21.6141 15.8475 21.5446 15.6764 21.4805C14.9549 22.6991 13.6989 23.4687 12.3841 23.5062Z" fill="white"/>
<path d="M22.0529 18.3157C21.8284 17.963 21.497 17.5033 21.2351 17.1292L21.203 17.0864C21.0908 17.2307 20.9679 17.3804 20.8342 17.5407C20.9411 17.6904 21.0747 17.8775 21.1977 18.0592C21.2885 18.1928 21.3794 18.3157 21.4488 18.4226C22.2078 19.4328 22.24 20.9294 21.5344 22.1426C20.9305 23.1742 19.9203 23.7193 18.8246 23.6018C18.707 23.7728 18.5787 23.9545 18.4291 24.1416C19.7546 24.3768 21.0213 23.8369 21.839 22.6771C22.7744 21.3516 22.8599 19.5985 22.0529 18.3211" fill="white"/>
<path d="M13.9821 16.0986C13.966 16.3231 13.9553 16.5583 13.95 16.8095C16.3605 18.7229 19.1505 19.4605 21.4541 18.7871C21.3579 18.6267 21.235 18.4504 21.1281 18.3007C18.8566 18.8459 16.2002 18.0228 13.9821 16.0986Z" fill="white"/>
<path d="M16.4622 12.8481C16.6706 13.885 16.7935 14.9273 16.8309 15.9588C17.0073 15.8038 17.1944 15.6275 17.3654 15.4404C17.3333 14.8525 17.2639 14.2164 17.141 13.4414C16.9272 13.233 16.6973 13.0352 16.4622 12.8535" fill="white"/>
<path d="M15.6817 17.0763C15.8742 17.1885 16.0613 17.2901 16.243 17.3809C18.3862 15.9325 19.9096 13.709 20.4334 11.2718C20.4708 11.074 20.5028 10.8709 20.5242 10.6785C20.5295 10.6357 20.5349 10.593 20.5402 10.5502C20.3639 10.5289 20.1768 10.5342 19.9736 10.5556C19.6423 13.1478 18.0441 15.569 15.6764 17.0709" fill="white"/>
<path d="M19.1935 9.93012C19.3592 10.0637 19.5462 10.2241 19.728 10.4005C20.9573 10.1867 22.2346 10.6944 23.1646 11.7687C24.116 12.8698 24.4528 14.3022 24.052 15.5155C24.2284 15.772 24.362 15.9644 24.4528 16.0927C25.1209 14.6229 24.7841 12.8003 23.5709 11.4053C22.3843 10.0424 20.7221 9.4865 19.1935 9.93012Z" fill="white"/>
<path d="M11.7958 9.60938C11.6996 9.81248 11.6247 9.99955 11.5819 10.1706C14.5269 10.6302 17.1886 13.153 18.2843 14.3235C18.3859 14.1792 18.4875 14.0189 18.5997 13.8371C17.0765 12.2337 14.682 10.224 11.7958 9.60938Z" fill="white"/>
<path d="M25.7941 19.5557C27.1143 18.0377 27.8145 16.29 27.8252 14.4781C27.8358 12.7891 27.2371 11.1002 26.1361 9.72653C24.089 7.16102 20.1981 5.60568 16.0719 7.82912C16.2803 7.94136 16.4888 8.05361 16.7026 8.17654C18.306 7.34274 20.0217 7.10757 21.6679 7.49774C23.1698 7.85585 24.5594 8.72705 25.5802 9.95636C26.5851 11.1696 27.1784 12.6662 27.2479 14.1681C27.3227 15.8196 26.7829 17.4231 25.6765 18.8234C25.73 19.0639 25.7674 19.3098 25.7887 19.5557" fill="white"/>
<path d="M19.3642 22.2498C19.1504 22.2498 18.9525 22.2338 18.7548 22.2124C17.6056 24.5534 15.0722 26.7822 11.9562 26.5364C10.3527 26.4562 8.78668 25.6919 7.65893 24.4465C6.63272 23.3081 6.10369 21.9077 6.16783 20.4914C5.98076 20.3471 5.80972 20.1921 5.628 20.0264C5.62265 20.0905 5.61729 20.1546 5.61195 20.2188C5.52108 21.5603 5.84712 22.8538 6.55264 23.9495C7.21005 24.9703 8.16675 25.8041 9.33192 26.36C11.9402 27.616 14.9387 27.2419 16.959 25.3979C16.9643 25.3926 16.9697 25.3872 16.9804 25.3819C18.028 24.4465 18.8511 23.3615 19.3695 22.2445" fill="white"/>
<path d="M13.2179 16.2052C13.0522 18.5302 13.6295 20.6521 14.8428 22.1914C14.9871 22.0364 15.11 21.8921 15.2222 21.7584C15.2009 21.7264 15.1794 21.6943 15.158 21.6622C15.1206 21.6088 15.0886 21.5553 15.0512 21.5126C13.6401 19.4441 13.3729 16.4831 14.3029 13.3457C14.0678 13.5221 13.8218 13.7198 13.5599 13.9336C13.3782 14.6766 13.266 15.4409 13.2179 16.2052Z" fill="white"/>
<path d="M19.3159 30.0005C18.0278 30.0005 16.7344 29.7332 15.473 29.2095C14.3987 29.6424 13.2602 29.8615 12.0844 29.8615C10.652 29.8615 9.19824 29.5248 7.87272 28.8888C6.31738 28.1405 5.02929 27.0181 4.1474 25.6445C3.20136 24.1746 2.7523 22.4643 2.84851 20.6791C0.902996 18.6 -0.123095 15.8795 0.0265604 13.1803V13.1162C0.229664 11.1333 1.1168 9.2412 2.59197 7.6431C3.79456 6.3443 5.34463 5.26999 7.07635 4.5431C9.10738 1.67293 12.0417 0.058793 15.3501 0C15.4089 0 15.4677 0 15.5265 0C18.9365 0 22.3091 1.75845 24.5539 4.6981L24.634 4.79965C26.2 5.47844 27.5844 6.53137 28.648 7.86223C30.0964 9.67413 30.8875 11.9083 30.8715 14.1424C30.8555 16.4407 30.0056 18.6695 28.4075 20.5989C28.4823 22.9667 27.6432 25.2329 26.0237 27.0127C24.7035 28.4612 23.0039 29.4339 21.1065 29.8134C20.5239 29.931 19.9199 29.9898 19.3159 29.9898M15.473 27.7343L15.7456 27.8572C16.9215 28.381 18.1187 28.6482 19.3106 28.6482C19.8237 28.6482 20.3368 28.6001 20.8339 28.4986C22.448 28.1726 23.8965 27.3495 25.0189 26.1148C26.4514 24.5381 27.1675 22.5177 27.0392 20.4172L27.0233 20.1393L27.2049 19.9308C28.7014 18.2045 29.5032 16.2002 29.5139 14.1424C29.5246 12.2129 28.8404 10.2834 27.5897 8.71206C26.633 7.51482 25.3717 6.56879 23.9446 5.9862L23.7736 5.91672L23.4742 5.52655C21.4806 2.91827 18.5089 1.35758 15.5212 1.35758C15.4677 1.35758 15.4196 1.35758 15.3662 1.35758C12.4426 1.41103 9.85024 2.87551 8.07041 5.47844L7.95819 5.64413L7.63223 5.7831C6.06085 6.43517 4.66047 7.39723 3.58081 8.56775C2.3034 9.94671 1.5445 11.5715 1.37347 13.2605C1.23985 15.6496 2.18044 18.0602 3.94958 19.8881L4.23822 20.182L4.20612 20.4974C4.20612 20.5402 4.20076 20.5883 4.19542 20.6364V20.6577C4.09386 22.1917 4.46801 23.6615 5.27508 24.9176C6.02336 26.0827 7.12449 27.0341 8.45 27.6755C9.5938 28.226 10.8444 28.5146 12.0737 28.5146C13.164 28.5146 14.2116 28.2955 15.1898 27.8626L15.4623 27.7396L15.473 27.7343Z" fill="white"/>
</svg>
