<svg width="69" height="49" viewBox="0 0 69 49" fill="none" xmlns="http://www.w3.org/2000/svg">
<path d="M3.0383 39.6901L4.80824 34.2441H4.9444L6.80382 39.7485L7.67907 36.5976C7.81522 36.0997 7.8619 35.6056 7.8619 35.1777C7.8619 34.7498 7.77632 34.427 7.3173 34.3997L7.11113 34.3881V34.357H9.03667V34.3881L8.92775 34.3997C8.57765 34.427 8.30535 34.5164 7.72185 36.5976L6.47706 41.0322H6.34868L4.45037 35.4773L2.64151 41.0322H2.51315L1.08163 35.9946C0.68096 34.602 0.556478 34.4464 0.155808 34.3997L0.0780029 34.3881V34.357H2.35366V34.3881L2.14749 34.3997C1.55232 34.427 1.61067 34.7887 1.94132 35.948L3.02274 39.694L3.0383 39.6901Z" fill="#FFE4C8"/>
<path d="M6.55076 41.1247H6.29012L4.46183 35.7682L2.71521 41.1247H2.45459L1.00751 36.021C0.602949 34.605 0.490141 34.5311 0.159491 34.4922L0 34.4728V34.2705H2.45847V34.4767L2.16672 34.4922C1.94888 34.5039 1.88275 34.5623 1.85163 34.6012C1.73104 34.7723 1.85163 35.2352 2.04613 35.9199L3.04197 39.3781L4.74191 34.1538H5.01032L6.79583 39.4403L7.59328 36.5773C7.71387 36.1455 7.77611 35.6631 7.77611 35.1808C7.77611 34.6984 7.65552 34.5156 7.31709 34.4922L7.02534 34.4767V34.2705H9.13371V34.4767L8.94311 34.4922C8.66303 34.5156 8.4024 34.5389 7.81501 36.624L6.55076 41.1247ZM4.52795 35.4025L6.41461 40.9302L6.7258 39.8176L4.87417 34.3366L4.52795 35.4025ZM0.548491 34.4494C0.762441 34.6323 0.91415 35.0407 1.17867 35.9665L2.58685 40.9224L2.96418 39.7632L1.87109 35.9665C1.62991 35.1185 1.54044 34.7217 1.70382 34.4922C1.71549 34.4767 1.72716 34.4611 1.73883 34.4494H0.548491ZM7.72553 34.4494C7.92003 34.6167 7.95116 34.8968 7.95116 35.1769C7.95116 35.313 7.94727 35.4531 7.9356 35.5892C8.16511 34.9162 8.34794 34.6012 8.52299 34.4533H7.72164L7.72553 34.4494Z" fill="#FFE4C8"/>
<path d="M12.1991 41.0438C10.1374 41.0438 8.98987 39.41 8.98987 37.6284C8.98987 35.8468 10.1374 34.2324 12.1991 34.2324C14.2608 34.2324 15.4084 35.8468 15.4084 37.6284C15.4084 39.41 14.2608 41.0438 12.1991 41.0438ZM12.1991 34.2713C10.5264 34.2713 9.9896 35.8662 9.9896 37.6362C9.9896 39.4061 10.5264 41.001 12.1991 41.001C13.8718 41.001 14.4086 39.4061 14.4086 37.6362C14.4086 35.8662 13.8718 34.2713 12.1991 34.2713Z" fill="#FFE4C8"/>
<path d="M12.1992 41.1329C10.0325 41.1329 8.89661 39.3707 8.89661 37.628C8.89661 35.8853 10.0325 34.1426 12.1992 34.1426C14.3659 34.1426 15.5018 35.897 15.5018 37.628C15.5018 39.3591 14.3659 41.1329 12.1992 41.1329ZM12.1992 34.3643C10.3592 34.3643 10.0831 36.4143 10.0831 37.6397C10.0831 38.865 10.3592 40.9151 12.1992 40.9151C14.0392 40.9151 14.3154 38.865 14.3154 37.6397C14.3154 36.4143 14.0392 34.3643 12.1992 34.3643ZM13.4323 34.5666C14.1287 35.0917 14.4982 36.1381 14.4982 37.6397C14.4982 39.1412 14.1286 40.1837 13.4362 40.7089C14.471 40.281 15.3151 39.2813 15.3151 37.6319C15.3151 35.9825 14.4671 34.9945 13.4323 34.5705V34.5666ZM10.9622 34.5666C9.92357 34.9906 9.07944 35.9864 9.07944 37.628C9.07944 39.2696 9.92356 40.2771 10.9583 40.705C10.2659 40.1799 9.89634 39.1334 9.89634 37.6358C9.89634 36.1381 10.2659 35.0878 10.9622 34.5627V34.5666Z" fill="#FFE4C8"/>
<path d="M22.2353 39.799V36.6948C22.2353 35.8974 21.963 34.4386 21.2239 34.3997L21.0177 34.388V34.3569H23.13V34.388L23.0211 34.3997C22.4843 34.4503 22.2703 35.1972 22.2703 36.6948V41.0049H22.1342L17.0382 34.9443V38.5815C17.0382 39.3789 17.3106 40.8377 18.0497 40.8766L18.2558 40.8882V40.9155H16.1436V40.8882L16.2525 40.8766C16.7893 40.826 17.0032 40.0791 17.0032 38.5815V35.8662C17.0032 34.532 16.7971 34.4153 16.3225 34.3958L16.1474 34.3841V34.353H17.754L22.2392 39.7912L22.2353 39.799Z" fill="#FFE4C8"/>
<path d="M22.3674 41.0945H22.099L17.1354 35.1934V38.5816C17.1354 39.4491 17.431 40.7522 18.0612 40.7872L18.353 40.8028V41.0089H16.0579V40.8028L16.2485 40.7872C16.7036 40.7444 16.9137 40.0442 16.9137 38.5816V35.8664C16.9137 34.5126 16.7036 34.5049 16.3224 34.4893L16.0579 34.4737V34.2676H17.7967L22.1457 39.5424V36.6949C22.1457 35.8275 21.8501 34.5243 21.2199 34.4893L20.9281 34.4737V34.2676H23.2232V34.4737L23.0326 34.4893C22.5775 34.5321 22.3674 35.2323 22.3674 36.6949V41.0945ZM22.1807 40.9117V39.877L22.1613 39.8536L17.7033 34.4504H16.8009C16.8748 34.5126 16.9292 34.6021 16.972 34.7266L22.1729 40.9117H22.1807ZM16.6102 40.8261H17.6683C17.3571 40.5888 17.1587 40.0909 17.0537 39.5735C16.9876 40.2232 16.8475 40.6277 16.6141 40.8261H16.6102ZM21.6089 34.4504C21.9201 34.6877 22.1185 35.1856 22.2235 35.703C22.2896 35.0534 22.4297 34.6488 22.6631 34.4504H21.605H21.6089Z" fill="#FFE4C8"/>
<path d="M23.5501 40.8877L23.7563 40.8761C24.2348 40.8566 24.3204 40.7399 24.3204 39.4057V35.8657C24.3204 34.5315 24.2348 34.4148 23.7563 34.3953L23.5501 34.3837V34.3525H26.74C28.8911 34.3525 30.027 35.8307 30.027 37.6201C30.027 39.4095 28.8289 40.9072 26.7477 40.9072H23.5463V40.88L23.5501 40.8877ZM25.6585 34.3992C25.2306 34.3992 25.1995 34.5548 25.1995 35.8696V39.4095C25.1995 40.7244 25.2267 40.88 25.6585 40.88H26.74C28.3854 40.88 29.0273 39.2928 29.0273 37.6396C29.0273 35.9863 28.2571 34.3992 26.74 34.3992H25.6585Z" fill="#FFE4C8"/>
<path d="M26.7476 41.009H23.4567V40.8028L23.7484 40.7872C24.1257 40.7717 24.2269 40.7678 24.2269 39.4102V35.8703C24.2269 34.5127 24.1257 34.5088 23.7523 34.4932L23.4606 34.4777V34.2715H26.7437C28.4242 34.2715 30.1241 35.3101 30.1241 37.6324C30.1241 39.6202 28.7393 41.0128 26.7554 41.0128L26.7476 41.009ZM24.2036 40.8261H25.2616C25.1099 40.6316 25.1099 40.2115 25.1099 39.4102V35.8703C25.1099 35.0689 25.1099 34.6488 25.2616 34.4543H24.2036C24.3747 34.6333 24.4058 35.0261 24.4058 35.8703V39.4102C24.4058 40.2543 24.3708 40.6472 24.1997 40.8261H24.2036ZM25.6584 34.4893C25.3355 34.4893 25.2927 34.5399 25.2927 35.8664V39.4063C25.2927 40.7328 25.3355 40.7833 25.6584 40.7833H26.7398C28.3581 40.7833 28.9338 39.1573 28.9338 37.6363C28.9338 36.1153 28.2569 34.4893 26.7398 34.4893H25.6584ZM27.7979 34.5905C28.7004 35.1351 29.1166 36.3915 29.1166 37.6363C29.1166 38.8189 28.7821 40.0598 27.9068 40.6355C29.14 40.2115 29.9335 39.0912 29.9335 37.6247C29.9335 36.0726 29.1244 34.9639 27.794 34.5866L27.7979 34.5905Z" fill="#FFE4C8"/>
<path d="M34.4227 38.6593L34.3643 38.4453C34.1426 37.6284 33.633 37.5701 33.1584 37.5701H32.6021V39.41C32.6021 40.7249 32.6333 40.8805 33.0612 40.8805H33.7925C34.7455 40.8805 35.2901 40.6937 35.7764 39.1961L35.8853 38.8654H35.9164V40.9194H30.9567V40.8921L31.1628 40.8805C31.6413 40.861 31.7269 40.7443 31.7269 39.41V35.8701C31.7269 34.5359 31.6413 34.4192 31.1628 34.3997L30.9567 34.388V34.3569H35.7219V36.1191H35.6947L35.5858 35.7885C35.1773 34.532 34.4849 34.3958 33.6019 34.3958H33.0651C32.6372 34.3958 32.606 34.5514 32.606 35.8662V37.5312H33.1623C33.6408 37.5312 34.1465 37.4728 34.3682 36.6559L34.4265 36.442H34.4577V38.6593H34.4265H34.4227Z" fill="#FFE4C8"/>
<path d="M36.0021 41.009H30.8595V40.8028L31.1512 40.7872C31.5286 40.7717 31.6297 40.7678 31.6297 39.4102V35.8703C31.6297 34.5127 31.5286 34.5088 31.1551 34.4932L30.8634 34.4777V34.2715H35.8115V36.2165H35.6247L35.4964 35.8236C35.0957 34.5944 34.4305 34.4971 33.5981 34.4971H33.0612C32.7384 34.4971 32.6956 34.5477 32.6956 35.8742V37.4457H33.1585C33.6292 37.4457 34.0726 37.3835 34.2749 36.6366L34.3527 36.3565H34.5433V38.7567H34.3527L34.2749 38.4766C34.0687 37.7297 33.6292 37.6675 33.1585 37.6675H32.6956V39.4141C32.6956 40.7406 32.7384 40.7911 33.0612 40.7911H33.7926C34.6445 40.7911 35.2007 40.6822 35.6909 39.1729L35.8192 38.78H36.006V41.0167L36.0021 41.009ZM34.7417 40.8261H35.8192V39.3518C35.5197 40.2193 35.193 40.6394 34.7417 40.8261ZM31.6064 40.8261H32.6645C32.5128 40.6316 32.5127 40.2115 32.5127 39.4102V35.8703C32.5127 35.0689 32.5128 34.6488 32.6645 34.4543H31.6064C31.7775 34.6333 31.8087 35.0261 31.8087 35.8703V39.4102C31.8087 40.2543 31.7736 40.6472 31.6025 40.8261H31.6064ZM33.7342 37.5508C33.9793 37.6324 34.2049 37.8036 34.3605 38.1576V36.9478C34.2049 37.3018 33.9832 37.4729 33.7342 37.5546V37.5508ZM34.6133 34.4504C35.0218 34.6099 35.3758 34.9445 35.6247 35.6369V34.4504H34.6133Z" fill="#FFE4C8"/>
<path d="M43.2725 40.8761L43.4476 40.8877V40.915H41.8332C41.7438 40.7321 41.6271 40.4871 41.4248 40.1059C41.2303 39.7441 40.9385 39.1606 40.7635 38.861C40.1683 37.8185 39.9738 37.6629 39.3125 37.6629H38.6901V39.4057C38.6901 40.7399 38.7796 40.8566 39.2542 40.8761L39.4603 40.8877V40.915H37.0369V40.8877L37.243 40.8761C37.7215 40.8566 37.8071 40.7399 37.8071 39.4057V35.8657C37.8071 34.5315 37.7215 34.4148 37.243 34.3953L37.0369 34.3837V34.3525H40.2461C41.4131 34.3525 42.3856 34.9088 42.3856 36.0058C42.3856 36.7177 41.8799 37.2428 41.2069 37.484C40.7401 37.6513 40.2733 37.6785 39.7171 37.659C40.8179 37.9391 41.3042 38.2814 41.7399 38.9622C41.8566 39.145 42.16 39.6624 42.2572 39.8297C42.619 40.4248 42.9108 40.8527 43.2686 40.8722L43.2725 40.8761ZM40.2383 37.6279C41.1914 37.6279 41.3976 36.9083 41.3976 36.033C41.3976 34.9711 40.9697 34.3992 40.25 34.3992H39.1491C38.7212 34.3992 38.6901 34.5548 38.6901 35.8696V37.6318H40.2383V37.6279Z" fill="#FFE4C8"/>
<path d="M43.541 41.009H41.7788L41.7554 40.9584C41.6621 40.7639 41.5454 40.5227 41.3509 40.157C41.277 40.017 41.1836 39.842 41.0903 39.663C40.9463 39.3829 40.7946 39.0951 40.6896 38.9123C40.0866 37.8542 39.9155 37.7608 39.3203 37.7608H38.7913V39.4102C38.7913 40.7678 38.8924 40.7717 39.2658 40.7872L39.5576 40.8028V41.009H36.9513V40.8028L37.243 40.7872C37.6204 40.7717 37.7215 40.7678 37.7215 39.4102V35.8703C37.7215 34.5127 37.6204 34.5088 37.2469 34.4932L36.9552 34.4777V34.2715H40.2578C41.6115 34.2715 42.4907 34.9561 42.4907 36.0181C42.4907 36.7183 42.0277 37.3018 41.2536 37.5819C40.9463 37.6908 40.639 37.7414 40.3434 37.7569C41.0514 38.0098 41.4598 38.3443 41.8332 38.9239C41.9383 39.0873 42.1756 39.4958 42.3078 39.7175L42.3506 39.7914C42.6852 40.3438 42.9691 40.7717 43.2881 40.7872L43.5487 40.8028V41.009H43.541ZM41.8916 40.8261H42.903C42.654 40.6394 42.4323 40.2971 42.1833 39.8848L42.1367 39.807C42.0161 39.6047 41.7671 39.1807 41.666 39.0212C41.3081 38.4649 40.9269 38.1576 40.2383 37.9203C40.4134 38.107 40.5923 38.391 40.8374 38.8228C40.9463 39.0095 41.098 39.2974 41.242 39.5774C41.3353 39.7564 41.4248 39.9275 41.4987 40.0676C41.6815 40.406 41.7943 40.6394 41.8838 40.8261H41.8916ZM37.6943 40.8261H38.8029C38.6318 40.6472 38.6007 40.2543 38.6007 39.4102V35.8703C38.6007 35.0689 38.6007 34.6488 38.7524 34.4543H37.6943C37.8654 34.6333 37.8966 35.0261 37.8966 35.8703V39.4102C37.8966 40.2543 37.8616 40.6472 37.6904 40.8261H37.6943ZM38.7835 37.5391H40.2383C40.9852 37.5391 41.3042 37.0878 41.3042 36.0337C41.3042 35.0378 40.9308 34.4893 40.2461 34.4893H39.1453C38.8224 34.4893 38.7796 34.5399 38.7796 35.8664V37.5352L38.7835 37.5391ZM40.9424 34.5282C41.2964 34.8005 41.487 35.3179 41.487 36.0337C41.487 36.5199 41.4287 37.1073 41.0552 37.4457C41.098 37.434 41.1369 37.4185 41.1797 37.4029C41.8799 37.1501 42.2962 36.6288 42.2962 36.0103C42.2962 35.1351 41.6621 34.6877 40.9424 34.5243V34.5282Z" fill="#FFE4C8"/>
<path d="M51.6939 41.0438C51.4411 40.7209 51.196 40.507 50.9937 40.507C50.877 40.507 50.7992 40.5576 50.6436 40.6626C50.2818 40.9077 49.9123 41.0438 49.4455 41.0438C47.4227 41.0438 46.3918 39.3789 46.3918 37.6478C46.3918 35.9168 47.4227 34.2324 49.4455 34.2324C49.8851 34.2324 50.2624 34.3491 50.5853 34.5631C50.6825 34.6331 50.7797 34.6992 50.8964 34.6992C51.0715 34.6992 51.266 34.5125 51.4994 34.2324H51.5189V36.1191H51.4877L51.3788 35.7884C51.1182 34.9715 50.4724 34.2713 49.461 34.2713C47.8934 34.2713 47.3877 35.9557 47.3877 37.6362C47.3877 39.3167 47.8934 41.001 49.461 41.001C50.7175 41.001 51.3672 39.8418 51.5733 39.1922L51.6822 38.8615H51.7095V41.0399H51.69L51.6939 41.0438Z" fill="#FFE4C8"/>
<path d="M51.8072 41.1329H51.6516L51.6243 41.0979C51.2976 40.6856 51.1031 40.5961 50.9942 40.5961C50.9086 40.5961 50.8464 40.6311 50.6946 40.7361C50.2901 41.0084 49.905 41.1329 49.4459 41.1329C47.2831 41.1329 46.299 39.3241 46.299 37.6475C46.299 35.9709 47.2831 34.1426 49.4459 34.1426C49.8894 34.1426 50.2901 34.2593 50.6363 34.4888C50.7258 34.551 50.8074 34.6094 50.8969 34.6094C51.0525 34.6094 51.2626 34.376 51.4298 34.1776L51.4571 34.1426H51.6127V36.2121H51.426L51.2976 35.8192C51.0058 34.9089 50.3212 34.3643 49.4693 34.3643C47.6838 34.3643 47.4893 36.6555 47.4893 37.6397C47.4893 38.6239 47.6838 40.9151 49.4693 40.9151C50.9047 40.9151 51.4376 39.3474 51.4921 39.1685L51.6205 38.7756H51.8072V41.1368V41.1329ZM50.9942 40.4171C51.177 40.4171 51.3832 40.5494 51.6205 40.8139V39.3474C51.4882 39.7169 51.2704 40.1021 50.9747 40.4133C50.9825 40.4133 50.9864 40.4133 50.9942 40.4133V40.4171ZM48.419 34.4966C47.0964 34.9673 46.4857 36.3482 46.4857 37.6514C46.4857 38.9545 47.1003 40.3199 48.4229 40.7867C47.7032 40.2849 47.3064 39.1996 47.3064 37.6397C47.3064 36.0798 47.7032 34.9984 48.4229 34.4966H48.419ZM50.9125 34.7922C51.1303 35.0178 51.3054 35.3057 51.4298 35.6402V34.4577C51.247 34.6599 51.0798 34.7844 50.9125 34.7922Z" fill="#FFE4C8"/>
<path d="M54.4483 39.41C54.4483 40.7443 54.5378 40.861 55.0123 40.8805L55.2185 40.8921V40.9194H52.795V40.8921L53.0012 40.8805C53.4797 40.861 53.5653 40.7443 53.5653 39.41V35.8701C53.5653 34.5359 53.4797 34.4192 53.0012 34.3997L52.795 34.388V34.3569H55.2185V34.388L55.0123 34.3997C54.5339 34.4192 54.4483 34.5359 54.4483 35.8701V39.41Z" fill="#FFE4C8"/>
<path d="M55.308 41.009H52.7017V40.8028L52.9934 40.7872C53.3707 40.7717 53.4719 40.7678 53.4719 39.4102V35.8703C53.4719 34.5127 53.3707 34.5088 52.9973 34.4932L52.7056 34.4777V34.2715H55.3119V34.4777L55.0201 34.4932C54.6428 34.5088 54.5416 34.5127 54.5416 35.8703V39.4102C54.5416 40.7678 54.6428 40.7717 55.0162 40.7872L55.308 40.8028V41.009ZM53.4485 40.8261H54.5572C54.386 40.6472 54.3549 40.2543 54.3549 39.4102V35.8703C54.3549 35.0261 54.3899 34.6333 54.5611 34.4543H53.4524C53.6236 34.6333 53.6547 35.0261 53.6547 35.8703V39.4102C53.6547 40.2543 53.6197 40.6472 53.4485 40.8261Z" fill="#FFE4C8"/>
<path d="M59.7854 40.9155H57.3619V40.8882L57.5681 40.8766C58.0465 40.8571 58.1321 40.7404 58.1321 39.4062V35.8662C58.1321 34.5514 58.101 34.3958 57.6731 34.3958H57.4202C57.1168 34.3958 56.4361 34.462 55.942 35.983L55.8331 36.3136H55.802V34.3569H61.3375V36.3136H61.3063L61.1974 35.983C60.6995 34.4659 60.0188 34.3958 59.7192 34.3958H59.4664C59.0385 34.3958 59.0074 34.5514 59.0074 35.8662V39.4062C59.0074 40.7404 59.0968 40.8571 59.5714 40.8766L59.7776 40.8882V40.9155H59.7854Z" fill="#FFE4C8"/>
<path d="M59.8787 41.0089H57.2724V40.8028L57.5642 40.7872C57.9415 40.7717 58.0426 40.7678 58.0426 39.4102V35.8703C58.0426 34.5438 57.9999 34.4932 57.677 34.4932H57.4241C57.2024 34.4932 56.5294 34.4932 56.0315 36.0142L55.9031 36.4071H55.7164V34.2676H61.4347V36.4071H61.248L61.1196 36.0142C60.6217 34.4932 59.9487 34.4932 59.727 34.4932H59.4742C59.1513 34.4932 59.1085 34.5438 59.1085 35.8703V39.4102C59.1085 40.7678 59.2097 40.7717 59.5831 40.7872L59.8748 40.8028V41.0089H59.8787ZM58.0193 40.8261H59.128C58.9568 40.6472 58.9257 40.2543 58.9257 39.4102V35.8703C58.9257 35.0689 58.9257 34.6488 59.0774 34.4543H58.0699C58.2216 34.6488 58.2216 35.0689 58.2216 35.8703V39.4102C58.2216 40.2543 58.1866 40.6472 58.0154 40.8261H58.0193ZM55.8993 34.4504V35.8314C56.191 35.0028 56.545 34.6255 56.8445 34.4504H55.8993ZM60.3066 34.4504C60.6062 34.6216 60.9601 34.9989 61.2519 35.8314V34.4504H60.3066Z" fill="#FFE4C8"/>
<path d="M65.9508 36.5971C66.2309 36.1692 66.6043 35.4962 66.6043 35.0683C66.6043 34.7065 66.5188 34.4264 66.0597 34.3953L65.8536 34.3837V34.3525H67.9736V34.3837L67.7674 34.3953C67.3979 34.4148 67.1528 34.7843 65.9858 36.6126L65.2856 37.694V39.4057C65.2856 40.7399 65.3712 40.8566 65.8497 40.8761L66.0559 40.8877V40.915H63.6324V40.8877L63.8385 40.8761C64.317 40.8566 64.4026 40.7399 64.4026 39.4057V37.7213L63.2745 35.9902C62.4848 34.7727 62.3215 34.4148 61.9208 34.3953L61.7457 34.3837V34.3525H64.1497V34.3837L63.9436 34.3953C63.3095 34.4459 63.5935 34.9205 64.2275 35.9435L65.2701 37.6357L65.9508 36.5932V36.5971Z" fill="#FFE4C8"/>
<path d="M66.1496 41.009H63.5433V40.8028L63.835 40.7872C64.2123 40.7717 64.3135 40.7678 64.3135 39.4102V37.753L63.2009 36.0453C63.0881 35.8703 62.987 35.7147 62.8975 35.5746C62.3724 34.7538 62.2168 34.5088 61.9211 34.4932L61.6605 34.4777V34.2715H64.2474V34.4777L63.9556 34.4932C63.8156 34.5049 63.73 34.536 63.7028 34.5943C63.6133 34.7694 63.9362 35.2945 64.3135 35.9014L65.2782 37.473L65.8812 36.551C66.029 36.3254 66.5191 35.5474 66.5191 35.0728C66.5191 34.7344 66.4413 34.5166 66.0601 34.4932L65.7684 34.4777V34.2715H68.0712V34.4777L67.7795 34.4932C67.4605 34.5088 67.2076 34.8861 66.0718 36.6677L65.3871 37.7258V39.4102C65.3871 40.7678 65.4883 40.7717 65.8617 40.7872L66.1535 40.8028V41.009H66.1496ZM64.294 40.8261H65.4027C65.2315 40.6472 65.2004 40.2543 65.2004 39.4102L65.1926 37.6869L64.1501 35.9948C63.6405 35.174 63.4032 34.7655 63.5316 34.5088C63.5433 34.4893 63.5549 34.4699 63.5705 34.4543H62.3024C62.5007 34.6177 62.703 34.9328 63.0531 35.4774C63.1426 35.6174 63.2437 35.773 63.3566 35.9481L64.5002 37.7025V39.4141C64.5002 40.2582 64.4652 40.6511 64.294 40.83V40.8261ZM66.4841 34.4504C66.6669 34.6021 66.6981 34.8472 66.6981 35.0689C66.6981 35.1856 66.6747 35.3179 66.6319 35.454C66.9937 34.9017 67.2193 34.6021 67.4099 34.4504H66.4841Z" fill="#FFE4C8"/>
<path d="M21.6442 30.2528L22.3522 28.4011C22.4533 28.1405 22.5077 27.8565 22.5077 27.6231C22.5077 27.3897 22.4611 27.2108 22.2082 27.1952H22.0954V27.1758H23.1768V27.1913H23.1185C22.9006 27.2186 22.7995 27.2925 22.3716 28.4011L21.4419 30.8207H21.3835L20.2593 28.0705C19.9442 27.3042 19.8898 27.2225 19.6719 27.1952H19.6292V27.1758H20.9051V27.1913H20.765C20.4227 27.2069 20.52 27.4247 20.765 28.0432L21.6403 30.2528H21.6442Z" fill="#FFE4C8"/>
<path d="M21.4805 30.8672H21.3599L20.2241 28.0858C19.909 27.3156 19.8623 27.2612 19.6756 27.2378L19.5939 27.2261V27.125H20.9593V27.23L20.7764 27.2378C20.6909 27.2378 20.6364 27.2573 20.6131 27.2884C20.5586 27.374 20.652 27.6113 20.7959 27.973L21.6478 30.1203L22.3169 28.3815C22.4141 28.1325 22.4686 27.8563 22.4686 27.619C22.4686 27.3506 22.4024 27.2495 22.2118 27.2378L22.0562 27.23V27.125H23.231V27.23L23.1299 27.2378C22.9393 27.2573 22.8459 27.3078 22.4219 28.4126L21.4844 30.8633L21.4805 30.8672ZM19.874 27.2222C19.9945 27.3156 20.0918 27.5334 20.3057 28.0547L21.4183 30.7738L21.6089 30.2798L20.7103 28.0158C20.5391 27.584 20.4536 27.3701 20.5352 27.2456C20.5391 27.2378 20.5469 27.23 20.5547 27.2222H19.8778H19.874ZM22.4219 27.2222C22.5347 27.3117 22.5542 27.4712 22.5542 27.6229C22.5542 27.7007 22.5464 27.7863 22.5347 27.8719C22.702 27.479 22.807 27.3001 22.9159 27.2184H22.4219V27.2222Z" fill="#FFE4C8"/>
<path d="M24.2777 29.9411C24.2777 30.6724 24.3244 30.7346 24.5889 30.7463H24.7017V30.7658H23.3752V30.7502H23.4881C23.7487 30.7346 23.7993 30.6685 23.7993 29.9411V28C23.7993 27.2687 23.7526 27.2064 23.4881 27.1947H23.3752V27.1753H24.7017V27.1909H24.5889C24.3283 27.2064 24.2777 27.2725 24.2777 28V29.9411Z" fill="#FFE4C8"/>
<path d="M24.7442 30.8122H23.3243V30.7072L23.4799 30.6994C23.69 30.6917 23.7445 30.6878 23.7445 29.9409V27.9998C23.7445 27.2529 23.69 27.249 23.4799 27.2412L23.3243 27.2334V27.1284H24.7442V27.2334L24.5886 27.2412C24.3785 27.249 24.3241 27.2529 24.3241 27.9998V29.9409C24.3241 30.6878 24.3785 30.6917 24.5886 30.6994L24.7442 30.7072V30.8122ZM23.7211 30.7228H24.3513C24.2502 30.6294 24.2307 30.4155 24.2307 29.9409V27.9998C24.2307 27.5252 24.2502 27.3112 24.3513 27.2179H23.7211C23.8223 27.3112 23.8417 27.5252 23.8417 27.9998V29.9409C23.8417 30.4155 23.8223 30.6294 23.7211 30.7228Z" fill="#FFE4C8"/>
<path d="M28.3661 30.155V28.4551C28.3661 28.0194 28.2182 27.2181 27.8098 27.1947H27.697V27.1753H28.8523V27.1909H28.794C28.5022 27.222 28.3816 27.6343 28.3816 28.4551V30.8163H28.3077L25.5147 27.4943V29.4898C25.5147 29.9255 25.6625 30.7269 26.071 30.7502H26.1838V30.7697H25.0284V30.7541H25.0868C25.3785 30.723 25.4991 30.3106 25.4991 29.4898V28.0039C25.4991 27.2725 25.3863 27.2103 25.1257 27.1986H25.0284V27.1792H25.9076L28.3661 30.1589V30.155Z" fill="#FFE4C8"/>
<path d="M28.436 30.8628H28.296L28.2804 30.8473L25.5652 27.6224V29.4896C25.5652 29.9681 25.7286 30.6839 26.0748 30.7033L26.2304 30.7111V30.8161H24.9817V30.7111L25.0828 30.7033C25.3357 30.68 25.4524 30.2949 25.4524 29.4896V28.0037C25.4524 27.2568 25.3357 27.2529 25.1217 27.2451L24.9817 27.2373V27.1323H25.9309L25.9464 27.1479L28.3232 30.0304V28.4549C28.3232 27.9764 28.1598 27.2607 27.8136 27.2412L27.658 27.2334V27.1284H28.9067V27.2334L28.8056 27.2412C28.5527 27.2646 28.436 27.6497 28.436 28.4549V30.8628ZM28.3349 30.7695H28.3426V30.1976L25.8881 27.2218H25.3785C25.4213 27.2568 25.4563 27.3074 25.4835 27.3774L28.3387 30.7695H28.3349ZM25.2734 30.7228H25.8803C25.6974 30.5944 25.5846 30.3027 25.5263 29.9992C25.4913 30.3805 25.4096 30.6139 25.2734 30.7228ZM28.012 27.2218C28.1948 27.3501 28.3076 27.6419 28.366 27.9453C28.401 27.5641 28.4827 27.3307 28.6188 27.2218H28.012Z" fill="#FFE4C8"/>
<path d="M32.5904 29.9411C32.5904 30.6724 32.6371 30.7346 32.9016 30.7463H33.0145V30.7658H31.688V30.7502H31.8008C32.0614 30.7346 32.112 30.6685 32.112 29.9411V28.9336H30.1008V29.9411C30.1008 30.6724 30.1475 30.7346 30.412 30.7463H30.5249V30.7658H29.1984V30.7502H29.3112C29.5718 30.7346 29.6224 30.6685 29.6224 29.9411V28C29.6224 27.2687 29.5757 27.2064 29.3112 27.1947H29.1984V27.1753H30.5249V27.1909H30.412C30.1514 27.2064 30.1008 27.2725 30.1008 28V28.9102H32.112V28C32.112 27.2687 32.0653 27.2064 31.8008 27.1947H31.688V27.1753H33.0145V27.1909H32.9016C32.641 27.2064 32.5904 27.2725 32.5904 28V29.9411Z" fill="#FFE4C8"/>
<path d="M33.0572 30.8122H31.6374V30.7072L31.793 30.6994C32.003 30.6917 32.0575 30.6878 32.0575 29.9409V28.9801H30.1397V29.9409C30.1397 30.6878 30.1942 30.6917 30.4043 30.6994L30.5599 30.7072V30.8122H29.14V30.7072L29.2956 30.6994C29.5057 30.6917 29.5601 30.6878 29.5601 29.9409V27.9998C29.5601 27.2529 29.5057 27.249 29.2956 27.2412L29.14 27.2334V27.1284H30.5599V27.2334L30.4043 27.2412C30.1942 27.249 30.1397 27.2529 30.1397 27.9998V28.8672H32.0575V27.9998C32.0575 27.2529 32.003 27.249 31.793 27.2412L31.6374 27.2334V27.1284H33.0572V27.2334L32.9016 27.2412C32.6916 27.249 32.6371 27.2529 32.6371 27.9998V29.9409C32.6371 30.6878 32.6916 30.6917 32.9016 30.6994L33.0572 30.7072V30.8122ZM32.0303 30.7228H32.6605C32.5593 30.6294 32.5399 30.4155 32.5399 29.9409V27.9998C32.5399 27.5252 32.5593 27.3112 32.6605 27.2179H32.0303C32.1314 27.3112 32.1509 27.5252 32.1509 27.9998V29.9409C32.1509 30.4155 32.1314 30.6294 32.0303 30.7228ZM29.5368 30.7228H30.167C30.0658 30.6294 30.0464 30.4155 30.0464 29.9409V27.9998C30.0464 27.5252 30.0658 27.3112 30.167 27.2179H29.5368C29.6379 27.3112 29.6574 27.5252 29.6574 27.9998V29.9409C29.6574 30.4155 29.6379 30.6294 29.5368 30.7228Z" fill="#FFE4C8"/>
<path d="M35.1776 30.8394C34.0456 30.8394 33.4193 29.9447 33.4193 28.9683C33.4193 27.9919 34.0495 27.1089 35.1776 27.1089C36.3057 27.1089 36.9359 27.9958 36.9359 28.9683C36.9359 29.9408 36.3057 30.8394 35.1776 30.8394ZM35.1776 27.1244C34.2595 27.1244 33.9678 27.9997 33.9678 28.9683C33.9678 29.9369 34.2595 30.8122 35.1776 30.8122C36.0956 30.8122 36.3874 29.9369 36.3874 28.9683C36.3874 27.9997 36.0956 27.1244 35.1776 27.1244Z" fill="#FFE4C8"/>
<path d="M35.1774 30.8825C33.991 30.8825 33.3724 29.9177 33.3724 28.9647C33.3724 28.0116 33.991 27.0586 35.1774 27.0586C36.3639 27.0586 36.9824 28.0194 36.9824 28.9647C36.9824 29.91 36.3639 30.8825 35.1774 30.8825ZM35.1774 27.1714C34.1621 27.1714 34.0143 28.2995 34.0143 28.9725C34.0143 29.6454 34.166 30.7735 35.1774 30.7735C36.1888 30.7735 36.3405 29.6454 36.3405 28.9725C36.3405 28.2995 36.1888 27.1714 35.1774 27.1714ZM35.8192 27.2687C36.216 27.5487 36.43 28.1283 36.43 28.9686C36.43 29.8088 36.2199 30.3884 35.8192 30.6685C36.4027 30.4429 36.8851 29.8866 36.8851 28.9647C36.8851 28.0428 36.4027 27.4943 35.8154 27.2687H35.8192ZM34.5317 27.2687C33.9482 27.4943 33.4619 28.0428 33.4619 28.9647C33.4619 29.8866 33.9443 30.4429 34.5278 30.6685C34.131 30.3884 33.9209 29.8088 33.9209 28.9686C33.9209 28.1283 34.1349 27.5448 34.5317 27.2687Z" fill="#FFE4C8"/>
<path d="M37.807 28C37.807 27.2687 37.6942 27.2064 37.4336 27.1947H37.3363V27.1753H38.2388L39.538 29.2487L40.6856 27.1753H41.5219V27.1909H41.4091C41.1485 27.2064 41.0979 27.2725 41.0979 28V29.9411C41.0979 30.6724 41.1446 30.7346 41.4091 30.7463H41.5219V30.7658H40.1955V30.7502H40.3083C40.5689 30.7346 40.6195 30.6685 40.6195 29.9411V27.3348L39.3241 29.7038H39.2541L37.8303 27.4709V29.4937C37.8303 29.9294 37.9782 30.7308 38.3866 30.7541H38.4994V30.7735H37.3441V30.758H37.4024C37.6942 30.7269 37.8148 30.3145 37.8148 29.4937V28.0078L37.807 28Z" fill="#FFE4C8"/>
<path d="M41.5726 30.8122H40.1527V30.7072L40.3083 30.6994C40.5184 30.6917 40.5728 30.6878 40.5728 29.9409V27.5135L39.3514 29.7464H39.2308L37.8771 27.6224V29.4858C37.8771 29.9642 38.0405 30.68 38.3867 30.6994L38.5423 30.7072V30.8122H37.2936V30.7072L37.3947 30.6994C37.6476 30.6761 37.7643 30.291 37.7643 29.4858V27.9998C37.7643 27.2529 37.6476 27.249 37.4336 27.2412L37.2936 27.2334V27.1284H38.2661L39.5381 29.159L40.6584 27.1284H41.5687V27.2334L41.4131 27.2412C41.203 27.249 41.1486 27.2529 41.1486 27.9998V29.9409C41.1486 30.6878 41.203 30.6917 41.4131 30.6994L41.5687 30.7072V30.8122H41.5726ZM40.5456 30.7228H41.1758C41.0747 30.6294 41.0552 30.4155 41.0552 29.9409V27.9998C41.0552 27.5252 41.0747 27.3112 41.1758 27.2179H40.7129L40.6623 27.3074V29.937C40.6623 30.4116 40.6429 30.6255 40.5417 30.7189L40.5456 30.7228ZM37.5814 30.7228H38.1883C38.0054 30.5944 37.8926 30.3027 37.8343 29.9992C37.7993 30.3805 37.7176 30.6139 37.5814 30.7228ZM39.2775 29.6569H39.293L39.5031 29.2757L38.2155 27.2218H37.6865C37.7254 27.2529 37.7565 27.2957 37.7837 27.3618V27.3151L39.2775 29.6608V29.6569Z" fill="#FFE4C8"/>
<path d="M43.7587 29.5327L43.7275 29.4159C43.6031 28.9686 43.3269 28.9375 43.0662 28.9375H42.7628V29.945C42.7628 30.6646 42.7784 30.7502 43.0118 30.7502H43.4124C43.9337 30.7502 44.2332 30.6491 44.5017 29.8283L44.56 29.6455H44.5756V30.7697H41.8564V30.7541H41.9693C42.2299 30.7386 42.2805 30.6724 42.2805 29.945V28.0039C42.2805 27.2726 42.2338 27.2103 41.9693 27.1987H41.8564V27.1792H44.4705V28.1439H44.455L44.3966 27.9611C44.171 27.2726 43.7937 27.1987 43.3074 27.1987H43.0157C42.7823 27.1987 42.7667 27.2842 42.7667 28.0039V28.9141H43.0701C43.3308 28.9141 43.6069 28.883 43.7314 28.4357L43.7626 28.319H43.7781V29.5365H43.7626L43.7587 29.5327Z" fill="#FFE4C8"/>
<path d="M44.6184 30.8122H41.8059V30.7072L41.9615 30.6994C42.1716 30.6917 42.226 30.6878 42.226 29.9409V27.9998C42.226 27.2529 42.1716 27.249 41.9615 27.2412L41.8059 27.2334V27.1284H44.5095V28.1865H44.4161L44.3461 27.9725C44.1243 27.2957 43.7587 27.2412 43.3035 27.2412H43.0118C42.829 27.2412 42.8056 27.2685 42.8056 27.9998V28.8672H43.0624C43.323 28.8672 43.5681 28.8322 43.6809 28.4199L43.7237 28.2682H43.8209V29.5752H43.7237L43.6809 29.4235C43.5681 29.0112 43.323 28.9762 43.0624 28.9762H42.8056V29.937C42.8056 30.6683 42.829 30.6955 43.0118 30.6955H43.4125C43.8832 30.6955 44.1866 30.6372 44.455 29.8047L44.525 29.5908H44.6184V30.8084V30.8122ZM43.9104 30.7228H44.5289V29.8825C44.3577 30.3882 44.1749 30.6216 43.9104 30.7228ZM42.2027 30.7228H42.8017C42.7201 30.6255 42.7162 30.3999 42.7162 29.9409V27.9998C42.7162 27.5408 42.7201 27.319 42.8017 27.2179H42.2027C42.3038 27.3112 42.3233 27.5252 42.3233 27.9998V29.9409C42.3233 30.4155 42.3038 30.6294 42.2027 30.7228ZM43.3658 28.9217C43.5097 28.9645 43.642 29.0617 43.7276 29.2757V28.5677C43.642 28.7817 43.5097 28.8789 43.3658 28.9217ZM43.8404 27.2218C44.0777 27.3074 44.2799 27.4941 44.4239 27.9025V27.2218H43.8404Z" fill="#FFE4C8"/>
<path d="M46.6254 30.8399C46.3842 30.8399 46.1547 30.7932 45.9097 30.6337C45.828 30.5792 45.7813 30.552 45.7113 30.552C45.5946 30.552 45.4701 30.6687 45.3378 30.8399H45.3262V29.6456H45.3417L45.404 29.844C45.544 30.2642 45.8786 30.8204 46.6138 30.8204C47.0883 30.8204 47.4462 30.6065 47.4462 30.1163C47.4462 29.0349 45.474 29.2528 45.474 28.0507C45.474 27.4867 45.9447 27.1055 46.5243 27.1055C46.7499 27.1055 46.9444 27.1638 47.1311 27.2883C47.2011 27.335 47.2556 27.3622 47.3062 27.3622C47.3956 27.3622 47.5085 27.2572 47.6329 27.1055H47.6446V28.1402H47.629L47.5707 27.9535C47.4112 27.4167 46.9833 27.1288 46.5398 27.1288C46.0964 27.1288 45.8474 27.3583 45.8474 27.7162C45.8474 28.821 47.8469 28.6031 47.8469 29.8596C47.8469 30.447 47.3256 30.8399 46.6215 30.8399H46.6254Z" fill="#FFE4C8"/>
<path d="M46.6254 30.8825C46.3414 30.8825 46.1158 30.8163 45.8863 30.6685C45.8046 30.6141 45.7696 30.5946 45.7151 30.5946C45.6023 30.5946 45.47 30.7502 45.3767 30.8669L45.3611 30.8864H45.2911L45.2794 30.8397V29.5988H45.3728L45.4467 29.8283C45.5634 30.1823 45.8668 30.7736 46.6137 30.7736C47.1116 30.7736 47.3995 30.5324 47.3995 30.1161C47.3995 29.6182 46.9521 29.4082 46.4775 29.1864C45.9602 28.9453 45.4272 28.6963 45.4272 28.0506C45.4272 27.4787 45.8902 27.0625 46.5242 27.0625C46.7576 27.0625 46.9638 27.1247 47.1583 27.2531C47.2283 27.2998 47.2711 27.3192 47.31 27.3192C47.4034 27.3192 47.5512 27.1403 47.6018 27.0781L47.6173 27.0625H47.6835L47.6951 27.1092V28.1906H47.5979L47.5278 27.9728C47.3839 27.4904 46.9988 27.1792 46.5437 27.1792C46.1391 27.1792 45.8979 27.3815 45.8979 27.7199C45.8979 28.2256 46.3453 28.4396 46.8238 28.6691C47.3528 28.9219 47.8974 29.1864 47.8974 29.8633C47.8974 30.4662 47.3761 30.8903 46.6254 30.8903V30.8825ZM45.3767 29.8827V30.723C45.4778 30.6063 45.5945 30.5051 45.7151 30.5051C45.7268 30.5051 45.7346 30.5051 45.7462 30.5051C45.5556 30.3106 45.4428 30.0695 45.3767 29.8827ZM45.9563 27.2959C45.6879 27.4515 45.5245 27.7238 45.5245 28.0467C45.5245 28.6341 46.0302 28.8713 46.5242 29.097C47.0027 29.3226 47.5006 29.5521 47.5006 30.1084C47.5006 30.3379 47.4267 30.5207 47.2867 30.6452C47.6095 30.4857 47.8079 30.2017 47.8079 29.8516C47.8079 29.2292 47.2867 28.9803 46.7849 28.7391C46.3064 28.5096 45.8085 28.2684 45.8085 27.7082C45.8085 27.541 45.8629 27.397 45.9602 27.292L45.9563 27.2959ZM47.3139 27.4048C47.4423 27.5332 47.5434 27.7005 47.6057 27.8911V27.2142C47.4851 27.3465 47.3956 27.4048 47.3139 27.4048Z" fill="#FFE4C8"/>
<path d="M17.7654 28.751H0.528809V28.9338H17.7654V28.751Z" fill="#FFE4C8"/>
<path d="M67.4487 28.751H50.2122V28.9338H67.4487V28.751Z" fill="#FFE4C8"/>
<path d="M38.3789 5.00291V5.13128L38.9274 5.15851C40.1527 5.23631 40.3861 6.06877 40.3861 7.23966C40.3861 8.41055 40.1061 9.26636 39.7404 10.5928L39.5926 11.1258L38.5151 15.008L37.3986 19.0264L34.7184 11.0791L33.2052 15.7315L32.186 18.8669L29.9104 10.9118L29.4475 9.29358C28.5605 6.19714 28.4049 5.23242 29.996 5.15462L30.5445 5.12739V4.99902H19.5902V5.12739L19.8003 5.15462C20.8661 5.28299 21.2046 5.70312 22.2743 9.42585L26.1021 22.9125H26.4405L28.8562 15.4942L30.9607 22.9125H31.2991L33.7693 15.3309L36.3561 22.9125H36.6945L38.7368 15.6421L41.2186 22.9125H41.557L44.8908 11.0402C46.4545 5.46971 47.182 5.23631 48.1195 5.15851L48.4073 5.13128V5.00291H38.3906H38.3789ZM27.3196 18.8669L24.5811 9.29358C23.7525 6.39942 23.558 5.18185 24.8378 5.18185C25.7714 5.18185 26.1215 5.92873 27.1251 9.42195L28.6461 14.7824L27.3196 18.8669ZM44.599 10.589L42.2572 19.0225L39.8143 11.7793L40.0244 11.0363C41.5882 5.46583 42.3 5.15462 43.2531 5.15462H43.7938C45.0075 5.15462 45.2526 6.06488 45.2526 7.23577C45.2526 8.40666 44.9725 9.26246 44.6068 10.589H44.599Z" fill="#FFE4C8"/>
<path d="M34.695 0C34.695 2.7619 33.3569 5.00254 31.7075 5.00254V5.12313C33.3569 5.12313 34.695 7.36377 34.695 10.1257H34.8156C34.8156 7.36377 36.1538 5.12313 37.8032 5.12313V5.00254C36.1538 5.00254 34.8156 2.7619 34.8156 0H34.695Z" fill="#FFE4C8"/>
<path d="M13.88 46.4347V46.1235H15.1092V46.4347H13.88ZM14.0978 47.6211V44.9409H14.9381C14.9614 44.9409 15.0081 44.9409 15.0781 44.9409C15.1442 44.9409 15.2104 44.9487 15.2726 44.9565C15.4827 44.9837 15.6577 45.0576 15.8017 45.1821C15.9456 45.3066 16.0545 45.4622 16.1245 45.6528C16.1946 45.8434 16.2334 46.0535 16.2334 46.2791C16.2334 46.5047 16.1984 46.7186 16.1245 46.9093C16.0506 47.0999 15.9417 47.2555 15.8017 47.3799C15.6577 47.5044 15.4827 47.5783 15.2726 47.6056C15.2104 47.6134 15.1442 47.6211 15.0781 47.6211C15.012 47.6211 14.9653 47.6211 14.9381 47.6211H14.0978ZM14.4985 47.2477H14.9381C14.9809 47.2477 15.0314 47.2477 15.0898 47.2477C15.1481 47.2477 15.1987 47.2399 15.2454 47.2321C15.3815 47.2049 15.4943 47.1466 15.576 47.0532C15.6577 46.9598 15.7239 46.847 15.7628 46.7109C15.8017 46.5747 15.8211 46.4308 15.8211 46.2791C15.8211 46.1274 15.8017 45.9757 15.7589 45.8395C15.7161 45.7034 15.6538 45.5905 15.5683 45.5011C15.4827 45.4116 15.3738 45.3533 15.2415 45.326C15.1987 45.3183 15.1443 45.3105 15.0859 45.3105C15.0276 45.3105 14.977 45.3105 14.9342 45.3105H14.4946V47.2516L14.4985 47.2477Z" fill="#FFE4C8"/>
<path d="M16.4083 47.6211L17.2797 44.9409H17.8398L18.7112 47.6211H18.3066L17.5053 45.1743H17.6064L16.8129 47.6211H16.4083ZM16.8634 47.0143V46.6486H18.2639V47.0143H16.8634Z" fill="#FFE4C8"/>
<path d="M19.0496 47.6211V44.9409H19.4424L20.7612 46.9326V44.9409H21.1541V47.6211H20.7612L19.4424 45.6256V47.6211H19.0496Z" fill="#FFE4C8"/>
<path d="M22.4224 47.6211V44.9409H23.5077C23.5349 44.9409 23.566 44.9409 23.6049 44.9409C23.6438 44.9409 23.6788 44.9487 23.7138 44.9526C23.8617 44.9759 23.9861 45.0265 24.0873 45.1043C24.1884 45.1821 24.2623 45.2794 24.3129 45.3999C24.3635 45.5205 24.3868 45.6489 24.3868 45.7928C24.3868 45.9368 24.3635 46.069 24.3129 46.1896C24.2623 46.3102 24.1884 46.4074 24.0873 46.4852C23.9861 46.563 23.8617 46.6136 23.7138 46.637C23.6788 46.6408 23.6438 46.6447 23.6049 46.6486C23.566 46.6525 23.5349 46.6486 23.5077 46.6486H22.8114V47.6095H22.4224V47.6211ZM22.8114 46.2869H23.4921C23.5155 46.2869 23.5427 46.2869 23.5738 46.2869C23.6049 46.2869 23.6322 46.2791 23.6594 46.2752C23.7372 46.2557 23.8033 46.2207 23.85 46.1702C23.8967 46.1196 23.9317 46.0612 23.955 45.9951C23.9745 45.929 23.9862 45.8628 23.9862 45.7967C23.9862 45.7306 23.9745 45.6645 23.955 45.6022C23.9356 45.5361 23.9006 45.4777 23.85 45.4272C23.7994 45.3766 23.7372 45.3416 23.6594 45.3221C23.6322 45.3144 23.6049 45.3105 23.5738 45.3066C23.5427 45.3027 23.5155 45.3066 23.4921 45.3066H22.8114V46.2907V46.2869Z" fill="#FFE4C8"/>
<path d="M24.7563 47.6211V44.9409H25.1453V46.0962H26.4874V44.9409H26.8803V47.6211H26.4874V46.4619H25.1453V47.6211H24.7563Z" fill="#FFE4C8"/>
<path d="M28.4672 47.6752C28.2572 47.6752 28.0704 47.6324 27.9109 47.5468C27.7515 47.4612 27.6231 47.3406 27.5336 47.185C27.4441 47.0294 27.3975 46.8466 27.3975 46.6365V44.9444H27.7904V46.6171C27.7904 46.7299 27.8098 46.831 27.8487 46.9205C27.8876 47.0061 27.9382 47.08 28.0043 47.1383C28.0704 47.1967 28.1404 47.2395 28.2221 47.2706C28.3038 47.3017 28.3855 47.3134 28.4672 47.3134C28.5489 47.3134 28.6345 47.2978 28.7123 47.2667C28.794 47.2356 28.864 47.1928 28.9301 47.1345C28.9963 47.0761 29.0468 47.0022 29.0818 46.9166C29.1207 46.831 29.1402 46.7299 29.1402 46.6171V44.9444H29.5331V46.6404C29.5331 46.8505 29.4864 47.0333 29.3969 47.1889C29.3074 47.3445 29.1791 47.4651 29.0196 47.5546C28.8601 47.644 28.6734 47.6829 28.4633 47.6829L28.4672 47.6752ZM29.6576 44.606H29.961C29.9765 44.7265 29.9726 44.8316 29.9454 44.9133C29.9182 44.995 29.8637 45.0611 29.7898 45.1078C29.7198 45.1506 29.642 45.17 29.5564 45.17C29.4708 45.17 29.3891 45.17 29.3113 45.1583V44.9366C29.3386 44.9366 29.3658 44.9366 29.393 44.9366C29.4203 44.9366 29.4475 44.9366 29.4708 44.9288C29.5603 44.9133 29.6148 44.8705 29.6342 44.8082C29.6537 44.746 29.6614 44.676 29.6576 44.606Z" fill="#FFE4C8"/>
<path d="M31.1787 47.6752C30.9103 47.6752 30.6807 47.6168 30.494 47.5001C30.3073 47.3834 30.1595 47.22 30.0622 47.01C29.965 46.7999 29.9105 46.5587 29.9105 46.2787C29.9105 45.9986 29.9611 45.7574 30.0622 45.5473C30.1634 45.3373 30.3073 45.1739 30.494 45.0572C30.6807 44.9405 30.9103 44.8821 31.1787 44.8821C31.4471 44.8821 31.6727 44.9405 31.8633 45.0572C32.0539 45.1739 32.1978 45.3373 32.2951 45.5473C32.3962 45.7574 32.4429 45.9986 32.4429 46.2787C32.4429 46.5587 32.3923 46.7999 32.2951 47.01C32.194 47.22 32.05 47.3834 31.8633 47.5001C31.6727 47.6168 31.4471 47.6752 31.1787 47.6752ZM31.1787 47.3056C31.3693 47.3056 31.5249 47.2667 31.6532 47.1811C31.7777 47.0956 31.875 46.975 31.9372 46.8194C31.9994 46.6638 32.0306 46.4848 32.0306 46.2787C32.0306 46.0725 31.9994 45.8935 31.9372 45.7418C31.875 45.5901 31.7777 45.4695 31.6532 45.384C31.5288 45.2984 31.3693 45.2556 31.1787 45.2556C30.9881 45.2556 30.8325 45.2945 30.7041 45.3801C30.5796 45.4656 30.4824 45.5862 30.4201 45.7418C30.3579 45.8974 30.3229 46.0764 30.3229 46.2825C30.3229 46.4887 30.354 46.6677 30.4162 46.8194C30.4785 46.9711 30.5757 47.0917 30.7002 47.1772C30.8286 47.2628 30.9842 47.3056 31.1748 47.3056H31.1787ZM30.9997 48.3404V47.963H31.4121V48.3404H30.9997ZM31.8983 44.606H32.2017C32.2173 44.7265 32.2134 44.8316 32.1862 44.921C32.1589 45.0066 32.1084 45.0728 32.0306 45.1155C31.9606 45.1544 31.875 45.17 31.7777 45.17C31.6805 45.17 31.591 45.1428 31.5171 45.0961V44.921C31.5754 44.9366 31.626 44.9444 31.6649 44.9483C31.7077 44.9483 31.7427 44.9483 31.7777 44.9288C31.8439 44.8977 31.8789 44.851 31.8905 44.7927C31.9022 44.7343 31.9061 44.6721 31.9022 44.606H31.8983Z" fill="#FFE4C8"/>
<path d="M32.8163 47.6211V44.9409H33.2092L34.5279 46.9326V44.9409H34.9208V47.6211H34.5279L33.2092 45.6256V47.6211H32.8163Z" fill="#FFE4C8"/>
<path d="M36.5431 47.6763C36.3642 47.6763 36.1969 47.6452 36.0452 47.583C35.8935 47.5207 35.7613 47.4274 35.6523 47.3068C35.5434 47.1862 35.4539 47.0384 35.3917 46.8672C35.3295 46.6961 35.2983 46.4977 35.2983 46.2798C35.2983 45.992 35.3528 45.743 35.4578 45.5329C35.5629 45.3268 35.7107 45.1634 35.8974 45.0545C36.0841 44.9417 36.302 44.8872 36.547 44.8872C36.8621 44.8872 37.115 44.9611 37.3017 45.105C37.4884 45.249 37.6168 45.4551 37.6868 45.7119L37.2939 45.7819C37.2395 45.6224 37.15 45.494 37.0294 45.3968C36.9088 45.2995 36.7532 45.2529 36.5704 45.2529C36.3798 45.2529 36.2242 45.2957 36.0958 45.3812C35.9713 45.4668 35.8741 45.5874 35.8118 45.743C35.7496 45.8986 35.7146 46.0775 35.7146 46.2837C35.7146 46.4899 35.7457 46.6688 35.8079 46.8205C35.8702 46.9722 35.9674 47.0928 36.0919 47.1784C36.2203 47.264 36.3759 47.3068 36.5665 47.3068C36.7182 47.3068 36.8504 47.2796 36.9594 47.2212C37.0683 47.1629 37.1578 47.0773 37.22 46.9606C37.2861 46.8478 37.325 46.7077 37.3445 46.5405H36.8232V46.2293H37.7568C37.7568 46.2526 37.7607 46.2798 37.7607 46.3187C37.7607 46.3537 37.7607 46.3771 37.7607 46.3887C37.7607 46.6377 37.714 46.8594 37.6168 47.0539C37.5195 47.2484 37.3834 47.4001 37.2006 47.513C37.0177 47.6258 36.796 47.6802 36.5393 47.6802L36.5431 47.6763Z" fill="#FFE4C8"/>
<path d="M39.9117 46.9446C39.8183 46.9446 39.7328 46.9212 39.655 46.8784C39.5772 46.8357 39.5188 46.7773 39.4721 46.6995C39.4255 46.6256 39.406 46.54 39.406 46.4466C39.406 46.3533 39.4294 46.2677 39.4721 46.1899C39.5188 46.116 39.5772 46.0538 39.655 46.011C39.7328 45.9682 39.8183 45.9487 39.9117 45.9487C40.0012 45.9487 40.079 45.9721 40.1529 46.0149C40.2268 46.0576 40.2851 46.116 40.3279 46.1938C40.3707 46.2677 40.3941 46.3533 40.3941 46.4466C40.3941 46.54 40.3707 46.6256 40.3279 46.6995C40.2851 46.7734 40.2268 46.8357 40.1529 46.8784C40.079 46.9212 39.9973 46.9446 39.9117 46.9446Z" fill="#FFE4C8"/>
<path d="M42.1835 47.6211V44.9409H42.5725V46.0962H43.9145V44.9409H44.3035V47.6211H43.9145V46.4619H42.5725V47.6211H42.1835Z" fill="#FFE4C8"/>
<path d="M46.9448 47.6211H46.5403L45.7467 45.1743H45.8479L45.0465 47.6211H44.642L45.5133 44.9409H46.0735L46.9448 47.6211ZM46.4897 47.0142H45.0893V46.6486H46.4897V47.0142ZM45.5989 44.6413L45.3344 43.9917H45.6417L45.9062 44.6413H45.5989Z" fill="#FFE4C8"/>
<path d="M48.0225 47.6211V44.9409H48.4153L49.734 46.9326V44.9409H50.1269V47.6211H49.734L48.4153 45.6256V47.6211H48.0225Z" fill="#FFE4C8"/>
<path d="M51.7723 47.6754C51.5039 47.6754 51.2744 47.6171 51.0877 47.5004C50.897 47.3837 50.7531 47.2203 50.6558 47.0102C50.5586 46.8002 50.5042 46.559 50.5042 46.2789C50.5042 45.9988 50.5547 45.7576 50.6558 45.5476C50.757 45.3375 50.9009 45.1741 51.0877 45.0574C51.2744 44.9407 51.5039 44.8824 51.7723 44.8824C52.0407 44.8824 52.2663 44.9407 52.4569 45.0574C52.6475 45.1741 52.7914 45.3375 52.8887 45.5476C52.9898 45.7576 53.0365 45.9988 53.0365 46.2789C53.0365 46.559 52.9859 46.8002 52.8887 47.0102C52.7876 47.2203 52.6436 47.3837 52.4569 47.5004C52.2663 47.6171 52.0407 47.6754 51.7723 47.6754ZM51.7723 47.3059C51.9629 47.3059 52.1185 47.267 52.2469 47.1814C52.3713 47.0958 52.4686 46.9752 52.5308 46.8196C52.5931 46.664 52.6242 46.4851 52.6242 46.2789C52.6242 46.0727 52.5931 45.8938 52.5308 45.7421C52.4686 45.5904 52.3713 45.4698 52.2469 45.3842C52.1224 45.2986 51.9629 45.2558 51.7723 45.2558C51.5817 45.2558 51.4261 45.2947 51.2977 45.3803C51.1732 45.4659 51.076 45.5865 51.0137 45.7421C50.9515 45.8977 50.9165 46.0766 50.9165 46.2828C50.9165 46.489 50.9476 46.6679 51.0098 46.8196C51.0721 46.9713 51.1693 47.0919 51.2938 47.1775C51.4222 47.2631 51.5778 47.3059 51.7684 47.3059H51.7723ZM51.1188 44.6412L51.6011 44.0811H51.9357L52.418 44.6412H52.0446L51.7684 44.3106L51.4922 44.6412H51.1188ZM51.5661 48.3406V47.9633H51.9785V48.3406H51.5661Z" fill="#FFE4C8"/>
<path d="M53.4487 47.6211V44.9409H53.8377V47.6211H53.4487Z" fill="#FFE4C8"/>
</svg>
