<svg width="55" height="31" viewBox="0 0 55 31" fill="none" xmlns="http://www.w3.org/2000/svg">
<path d="M0 0.280762H9.07969C14.2744 0.280762 15.5842 3.23429 15.5842 5.434C15.5842 7.6337 14.4018 8.89716 12.9936 9.68573C15.2744 10.5583 16.6826 11.8545 16.6826 14.5291C16.6826 17.2037 15.0147 19.9922 9.30459 19.9922H0V0.280762ZM8.1502 8.25047C10.1607 8.25047 11.2755 7.54877 11.2755 6.11061C11.2755 4.67245 10.1318 4.08271 8.43108 4.08271H4.45539V8.25047H8.14923H8.1502ZM9.30459 16.1912C11.3074 16.1912 12.3739 15.4596 12.3739 14.0514C12.3739 12.6431 11.3885 11.8545 9.16367 11.8545H4.45636V16.1912H9.30459Z" fill="#3A518B"/>
<path d="M48.0895 8.19363C44.6823 7.32109 43.8377 6.89833 43.8377 5.60302V5.54704C43.8377 4.58955 44.7103 3.82897 46.3724 3.82897C47.825 3.82897 49.3211 4.38879 50.8403 5.33855L53.7504 2.50567C51.7505 0.900536 49.3008 0 46.4293 0C42.4025 0 39.53 2.36572 39.53 5.94181V5.99779C39.53 9.9117 42.0926 11.0101 46.0625 12.0236C49.3568 12.8681 50.0334 13.4318 50.0334 14.5292V14.5852C50.0334 15.7396 48.963 16.4442 47.1889 16.4442C45.0722 16.4442 43.304 15.6238 41.6264 14.3101L38.7405 17.1199C41.1062 19.2317 44.1186 20.2732 47.104 20.2732C51.3557 20.2732 54.3411 18.0764 54.3411 14.1625V14.1065C54.3411 10.6713 52.0883 9.23509 48.0895 8.19267V8.19363Z" fill="#3A518B"/>
<path d="M37.039 0.258301V10.9702L32.5933 6.52056V0.258301H37.039Z" fill="#3A518B"/>
<path d="M32.5933 13.7817L37.039 18.2256V20.017H32.5933V13.7817Z" fill="#3A518B"/>
<path d="M23.7267 0.258301V6.52635L19.2858 10.9702V0.258301H23.7267Z" fill="#3A518B"/>
<path d="M19.2859 18.2256L23.7268 13.7866V20.017H19.2859V18.2256Z" fill="#3A518B"/>
<path d="M37.0399 11.9029V17.2945L37.037 17.2916L28.1648 8.4233L28.1619 8.42619L28.159 8.4233L19.2839 17.2945V11.9029L28.1619 3.0249L37.0399 11.9029Z" fill="#09BCCA"/>
<path d="M9.4436 27.4726C9.4436 25.742 10.5613 24.3965 12.4686 24.3965C13.3343 24.3965 14.2754 24.7575 14.8883 25.464L13.8971 26.3047C13.5776 25.9939 13.1075 25.7159 12.4686 25.7159C11.6201 25.7159 10.9136 26.3636 10.9136 27.4726C10.9136 28.4388 11.5101 29.2283 12.5274 29.2283C12.8971 29.2283 13.2166 29.1521 13.5612 28.9677V28.2621H12.402V27.1029H14.9057V29.7833C14.3594 30.2032 13.4521 30.5149 12.5274 30.5149C10.8045 30.5149 9.4436 29.4146 9.4436 27.4736V27.4726Z" fill="white"/>
<path d="M17.5358 24.4814H19.8638C21.3425 24.4814 21.9979 25.3472 21.9979 26.5402C21.9979 27.406 21.6118 28.0276 20.8715 28.3297L22.2913 30.4474H20.6447L19.4179 28.5228H18.9054V30.4474H17.5358V24.4814ZM19.6119 27.296C20.2171 27.296 20.5443 27.0016 20.5443 26.5064C20.5443 26.0528 20.2673 25.7169 19.637 25.7169H18.9064V27.297H19.6119V27.296Z" fill="white"/>
<path d="M24.2509 27.4644C24.2509 25.6662 25.5114 24.397 27.326 24.397C29.1406 24.397 30.3934 25.6324 30.3934 27.4644C30.3934 29.2964 29.1078 30.5231 27.326 30.5231C25.5442 30.5231 24.2509 29.2626 24.2509 27.4644ZM28.9225 27.4644C28.9225 26.4731 28.2497 25.7087 27.326 25.7087C26.4023 25.7087 25.7209 26.4895 25.7209 27.4644C25.7209 28.4393 26.3849 29.2201 27.326 29.2201C28.2671 29.2201 28.9225 28.4557 28.9225 27.4644Z" fill="white"/>
<path d="M32.8721 27.96V24.4814H34.2842V27.8761C34.2842 28.6077 34.6374 29.2119 35.3343 29.2119C35.9559 29.2119 36.4095 28.7245 36.4095 27.8761V24.4814H37.813V27.96C37.813 29.515 36.9221 30.5227 35.3343 30.5227C33.8633 30.5227 32.8721 29.6154 32.8721 27.96Z" fill="white"/>
<path d="M40.5029 24.4814H42.7721C44.2431 24.4814 44.8985 25.3472 44.8985 26.5402C44.8985 27.8674 44.0163 28.5228 42.6631 28.5228H41.8735V30.4474H40.5039V24.4814H40.5029ZM42.5028 27.296C43.1244 27.296 43.4439 27.0016 43.4439 26.5064C43.4439 26.0528 43.1582 25.7169 42.5279 25.7169H41.8726V27.297H42.5028V27.296Z" fill="white"/>
</svg>
