<svg width="20" height="55" viewBox="0 0 20 55" fill="none" xmlns="http://www.w3.org/2000/svg">
<g clip-path="url(#clip0_79_6057)">
<path fill-rule="evenodd" clip-rule="evenodd" d="M4.7196 44.7245H2.47192V25.5446H4.7196V37.725H3.2336V43.9556H4.7196V44.7266V44.7245ZM12.0832 11.1874V18.8573H11.3194V10.5568L12.0832 11.1874ZM7.6916 9.08191V18.8573H6.92992V9.53234L7.6916 9.08191ZM9.17552 5.3025V0H9.83343V5.3025H10.5972V33.2354L10.5121 33.4763L9.99324 34.1258L10.5142 34.7878L10.5972 35.0266V42.4158H9.83343V35.1607L9.17552 34.3248V42.4179H8.41177V5.3025H9.17552ZM15.7774 36.225V26.3134H15.0552V36.9541H16.5412V44.7245H14.2935V43.9556H15.0552H15.7774V37.725H14.2914V25.5446H16.5391V36.225H15.7754H15.7774ZM3.23568 26.3134V36.9541H3.95792V26.3134H3.23568ZM6.2056 36.9541H6.92785V20.2442H6.2056V36.9541ZM6.92785 37.7229H6.2056V43.9535H5.44392V19.4732H7.6916V43.1826H6.92992V37.7229H6.92785ZM12.8054 43.9535V20.2442H12.0832V43.1846H11.3194V19.4753H13.5671V43.9556H12.8034L12.8054 43.9535ZM9.17552 6.07137V33.9226L9.83343 33.0992V6.07137H9.17552Z" fill="#979797"/>
<path fill-rule="evenodd" clip-rule="evenodd" d="M7.54219 48.3426V46.3879H6.84692V46.1177H8.53839V46.3879H7.84312V48.3426H7.54219ZM8.57782 48.3426V46.1177H8.87876V47.0311H10.0223V46.1177H10.3232V48.3426H10.0223V47.2993H8.87876V48.3426H8.57782ZM10.5661 48.3426V46.1177H12.1372V46.3921H10.8629V47.0583H12.0396V47.3181H10.8629V48.0639H12.1621V48.3426H10.564H10.5661Z" fill="#979797"/>
<path d="M5.78211 47.0791H0.020752V47.3808H5.78211V47.0791Z" fill="#979797"/>
<path d="M18.9901 47.0791H13.2288V47.3808H18.9901V47.0791Z" fill="#979797"/>
<path fill-rule="evenodd" clip-rule="evenodd" d="M0 54.5106H1.04393V53.0755H1.83674C2.89936 53.0755 3.75443 52.5077 3.75443 51.3932V51.3785C3.75443 50.3938 3.06954 49.7234 1.93844 49.7234H0V54.5106ZM1.04393 52.139V50.6746H1.8492C2.37013 50.6746 2.69597 50.9281 2.69597 51.3994V51.4141C2.69597 51.8247 2.39088 52.139 1.86995 52.139H1.04393ZM3.39538 54.5106L5.42722 49.6899H6.38813L8.41997 54.5106H7.3283L6.89454 53.4379H4.88968L4.45592 54.5106H3.39331H3.39538ZM5.26533 52.5077H6.52511L5.89419 50.9553L5.26326 52.5077H5.26533ZM8.90562 54.5106H9.94955V52.9791H10.7693L11.7863 54.5106H13.0066L11.8486 52.801C12.4504 52.5748 12.8655 52.0908 12.8655 51.3177V51.3031C12.8655 50.8443 12.7306 50.4818 12.4587 50.2095C12.1412 49.8889 11.6804 49.7234 11.0765 49.7234H8.90977V54.5106H8.90562ZM9.94955 52.0489V50.6746H10.9852C11.4999 50.6746 11.805 50.9008 11.805 51.3575V51.3722C11.805 51.7828 11.5206 52.0489 11.0059 52.0489H9.94955ZM13.6023 54.5106H14.6462V49.7234H13.6023V54.5106ZM17.2695 54.5797C18.2927 54.5797 19.0108 54.0455 19.0108 53.0964V53.0817C19.0108 52.2479 18.4691 51.9064 17.5061 51.6467C16.6864 51.4288 16.483 51.3387 16.483 51.0182V51.0035C16.483 50.7647 16.6864 50.5866 17.0931 50.5866C17.4999 50.5866 17.8984 50.7647 18.3259 51.058L18.8676 50.2639C18.3799 49.8743 17.805 49.6543 17.1056 49.6543C16.1301 49.6543 15.4453 50.2283 15.4453 51.0978V51.1124C15.4453 52.0552 16.0554 52.3359 17.0163 52.5769C17.8092 52.7759 17.971 52.9183 17.971 53.1844V53.1991C17.971 53.4798 17.7199 53.6495 17.2862 53.6495C16.7445 53.6495 16.3045 53.4232 15.8707 53.0692L15.2543 53.815C15.823 54.3346 16.5411 54.5818 17.2654 54.5818L17.2695 54.5797Z" fill="#979797"/>
</g>
<defs>
<clipPath id="clip0_79_6057">
<rect width="19.0108" height="54.5795" fill="white"/>
</clipPath>
</defs>
</svg>
