<svg width="57" height="46" viewBox="0 0 57 46" fill="none" xmlns="http://www.w3.org/2000/svg">
<g clip-path="url(#clip0_79_10417)">
<path d="M22.6114 8.79311C19.3773 9.09766 16.4774 10.4519 13.9325 12.3651C13.902 12.621 13.8891 12.8818 13.873 13.1426C17.565 11.9406 21.7808 12.1836 25.476 13.0503C26.4865 13.2868 27.4794 13.5719 28.4626 13.8894C31.1923 12.8834 34.0392 12.3391 36.6756 13.3257C38.8076 14.1243 40.6407 15.3619 42.4642 16.7129C42.5879 16.1152 42.657 15.498 42.6988 14.8759C41.8842 14.6443 41.0825 14.3624 40.2953 14.053C38.3433 13.2852 36.4411 12.4023 34.5758 11.4595C31.3899 9.8493 27.8264 8.72021 24.2003 8.72021C23.6701 8.72021 23.14 8.74451 22.6082 8.79473" fill="#464B5C"/>
<path d="M29.9696 14.1551C27.1757 14.9392 24.7899 16.6709 22.131 17.7805C20.7766 18.3443 19.3788 18.8788 17.9329 19.1801C16.948 19.3859 15.9793 19.4004 15.0024 19.4636C15.2354 19.9901 15.5101 20.4939 15.8074 20.9847C22.0972 17.3464 29.7832 17.7773 36.6707 19.2676C38.0187 19.5592 39.3586 19.888 40.6664 20.3141C40.7355 20.3368 40.9138 20.3967 41.0889 20.455C41.5291 19.6451 41.8906 18.7865 42.1605 17.8923C40.4656 16.8393 37.2363 15.0817 35.408 14.5455C34.3251 14.228 33.0768 13.917 31.7963 13.917C31.1906 13.917 30.5785 13.9866 29.9712 14.1567" fill="#464B5C"/>
<path d="M20.9742 20.9262C22.3865 20.7334 23.842 20.7787 25.2221 21.0234C27.1757 21.37 28.8611 22.1119 30.7006 22.7599C32.9724 23.5618 35.3389 24.1903 37.7504 24.4139C37.7649 24.4139 37.8034 24.4187 37.8468 24.4236C38.9586 23.4759 39.9145 22.3679 40.6809 21.1335C40.1571 20.9731 39.6286 20.8192 39.0968 20.6832C36.1503 19.9315 33.1459 19.4941 30.1142 19.4941C27.0858 19.4941 24.03 19.9299 20.9758 20.9262" fill="#464B5C"/>
<path d="M17.4156 13.139C16.2412 13.3253 15.0025 13.591 13.8345 14.0106C13.8409 15.6807 14.1638 17.2779 14.7277 18.7618C15.87 18.6921 16.977 18.6111 18.1193 18.2742C19.554 17.8498 20.9325 17.2763 22.2868 16.6559C23.5079 16.097 24.8365 15.4329 26.2214 14.8124C23.7521 14.145 21.2233 13.0435 18.672 13.0435C18.2542 13.0435 17.8349 13.0726 17.4156 13.139Z" fill="#464B5C"/>
<path d="M17.1152 22.7424C17.1023 22.7505 17.0911 22.7602 17.0782 22.7716C19.7275 25.9158 23.7666 27.9262 28.2924 27.9262C31.6903 27.9262 34.8088 26.7857 37.2781 24.8888C34.4473 25.0232 32.6029 24.8289 29.9809 23.8277C27.6304 22.9287 24.9458 21.2521 21.7985 21.2051C21.7663 21.2051 21.7326 21.2051 21.7005 21.2051C20.0778 21.2051 18.4182 21.8207 17.1184 22.7424" fill="#464B5C"/>
<path d="M21.8965 7.09509C19.7533 7.63129 17.4912 8.04599 15.2644 7.93421C14.7166 9.03738 14.3101 10.2151 14.0771 11.4543C16.561 9.81657 19.4496 8.54007 22.4652 7.96823C28.1992 6.88126 30.8164 8.71016 34.4875 10.5828C36.2419 11.477 38.0268 12.3339 39.8568 13.0823C40.6809 13.4193 41.8088 13.8243 42.7406 14.1061C42.7406 14.0575 42.7486 14.0106 42.7486 13.9636C42.7486 11.1903 41.902 8.61296 40.4576 6.44226C38.4558 5.44924 36.2483 4.85635 34.0248 4.53398C33.501 4.45785 32.9837 4.42383 32.4728 4.42383C28.7921 4.42383 25.4262 6.21385 21.8949 7.09671" fill="#ABE1FA"/>
<path d="M19.901 2.60484C21.159 1.98765 22.8363 1.27002 24.7787 1.11451C28.5799 0.808344 32.4293 2.19014 35.7775 3.80035C36.0249 3.92023 36.2755 4.04496 36.5246 4.16807C37.1029 4.30901 37.6829 4.46614 38.2645 4.65567C38.6421 4.77879 39.0341 4.91486 39.4277 5.06066C36.7752 1.97145 32.7731 0 28.2907 0C25.1594 0 22.2675 0.971957 19.901 2.60484Z" fill="#FFCC2B"/>
<path d="M24.9538 1.59563C22.2932 1.71551 19.8062 2.75388 17.7851 4.38839C16.9818 5.21131 16.2765 6.12333 15.6981 7.11473C17.8012 7.14389 18.9129 7.32694 20.9244 6.77616C22.5648 6.32744 25.0116 4.87275 26.6343 4.38191C29.388 3.55089 32.0662 3.40833 34.7605 3.82304C31.8831 2.55301 28.7373 1.58105 25.6189 1.58105C25.3972 1.58105 25.1755 1.58591 24.9538 1.59563Z" fill="#FFCC2B"/>
<path d="M6.37982 32.7955C6.04564 32.8539 5.77413 33.1001 5.56366 33.5358C4.57399 35.5656 3.78193 37.2617 3.1907 38.6289C2.62196 37.307 1.82991 35.6094 0.81453 33.5358C0.604065 33.1001 0.332548 32.8539 0.00158691 32.7955V32.7891C0.631377 32.8182 1.24831 32.8182 1.84918 32.7891L1.85722 32.7955C1.65157 32.8393 1.54875 32.9543 1.54875 33.1422C1.54875 33.2507 1.58249 33.382 1.65318 33.5358L3.32566 37.2763C3.73534 36.3399 4.28641 35.0942 4.97564 33.5358C5.04312 33.382 5.07686 33.2507 5.07686 33.1422C5.07686 32.9543 4.97404 32.8393 4.76839 32.7955L4.77482 32.7891C5.29696 32.8134 5.83036 32.8134 6.375 32.7891C6.37982 32.7891 6.38142 32.7923 6.38142 32.7955" fill="#474C5C"/>
<path d="M10.3803 38.3697C10.3803 38.3697 10.3755 38.3762 10.3659 38.3762C9.75053 38.3567 9.13842 38.3567 8.53273 38.3762C8.51827 38.3762 8.51184 38.3745 8.51184 38.3697C8.88939 38.3 9.08379 38.0311 9.09825 37.5646C9.13681 36.4841 9.13681 35.1476 9.09825 33.5569C9.08861 33.1292 8.90546 32.8765 8.54719 32.802C8.84923 32.8117 9.15127 32.8166 9.44849 32.8166C9.74571 32.8166 10.0461 32.8117 10.3434 32.802C10.3482 32.7971 10.3514 32.7971 10.3514 32.802C9.98831 32.8765 9.80195 33.1276 9.79231 33.5569C9.75857 35.2027 9.75857 36.5392 9.79231 37.5646C9.81319 38.0263 10.0092 38.2952 10.3787 38.3697" fill="#474C5C"/>
<path d="M18.4502 32.7955C18.2799 32.8296 18.1482 32.9267 18.0534 33.0904C17.9586 33.2524 17.9072 33.4484 17.904 33.6768C17.859 35.8313 17.8494 37.4982 17.8751 38.6791C16.5239 37.0835 15.1583 35.5883 13.7766 34.1919C13.7573 34.9063 13.7621 35.9933 13.7911 37.4512C13.7911 37.6861 13.8409 37.887 13.9389 38.0506C14.0369 38.2288 14.1718 38.3341 14.3469 38.3681H14.3405C14.2698 38.3584 14.0321 38.3535 13.632 38.3535C13.195 38.3486 12.9139 38.3535 12.7869 38.3681H12.7516C13.1099 38.2887 13.293 37.9923 13.3027 37.4804C13.3364 35.9738 13.3332 34.3069 13.2946 32.478C13.8457 33.1033 14.5269 33.8517 15.3382 34.7232C16.0371 35.47 16.7344 36.212 17.4284 36.9506C17.4429 35.9107 17.4397 34.8285 17.422 33.7059C17.4172 33.4678 17.3658 33.2637 17.2678 33.0936C17.1698 32.9235 17.0332 32.8247 16.8565 32.7955C16.8565 32.7907 16.8613 32.7891 16.8709 32.7891C16.9448 32.7988 17.1826 32.8036 17.5827 32.8036C18.0116 32.8085 18.2896 32.8036 18.4165 32.7891C18.4406 32.7891 18.4534 32.7923 18.4534 32.7955" fill="#474C5C"/>
<path d="M26.2246 38.363C26.2246 38.363 26.2117 38.3646 26.1989 38.3711C25.5836 38.3517 24.9714 38.3517 24.3658 38.3711C24.3561 38.3711 24.3497 38.3679 24.3449 38.363C24.7224 38.2885 24.92 38.0212 24.9393 37.5579C24.9586 36.9181 24.9682 36.2733 24.9682 35.627H21.89C21.89 36.2733 21.8996 36.9181 21.9189 37.5579C21.9398 38.0147 22.139 38.2837 22.5133 38.363C22.5085 38.3679 22.5005 38.3711 22.4925 38.3711C22.2129 38.3614 21.6024 38.3614 20.6593 38.3711C20.6449 38.3711 20.6384 38.3679 20.6384 38.363C21.016 38.2885 21.212 38.0212 21.2264 37.5579C21.265 36.492 21.2666 35.1539 21.2329 33.5437C21.2232 33.1193 21.0369 32.8715 20.6754 32.797V32.7889C20.9774 32.8034 21.2795 32.8099 21.5767 32.8099C21.8739 32.8099 22.1743 32.8034 22.4716 32.7889C22.4764 32.784 22.478 32.7872 22.478 32.797C22.1101 32.8715 21.9253 33.1209 21.9189 33.5437L21.89 35.2511H24.9682C24.9682 35.1766 24.9586 34.608 24.9393 33.5437C24.9297 33.1193 24.7449 32.8715 24.385 32.797C24.385 32.7921 24.3866 32.7889 24.3931 32.7889C24.6919 32.8034 24.9891 32.8099 25.2847 32.8099C25.5803 32.8099 25.8824 32.8034 26.1796 32.7889C26.1844 32.7889 26.186 32.7905 26.186 32.797C25.8262 32.8715 25.6398 33.1209 25.6302 33.5437C25.5948 35.1944 25.5964 36.5325 25.6366 37.5579C25.651 38.0147 25.847 38.2837 26.2246 38.363Z" fill="#474C5C"/>
<path d="M33.26 35.3225C33.1813 34.6729 32.9387 34.127 32.529 33.6864C32.1209 33.2458 31.6485 33.0238 31.1119 33.0238C30.5159 33.0238 30.0307 33.2911 29.658 33.8257C29.3302 34.2923 29.1679 34.8414 29.1679 35.4716C29.1679 36.139 29.3656 36.7351 29.7624 37.2632C30.1914 37.8334 30.7264 38.1185 31.3658 38.1185C31.9618 38.1185 32.4422 37.8707 32.8053 37.375C33.1282 36.9295 33.2889 36.3949 33.2889 35.768C33.2889 35.6222 33.2793 35.4732 33.26 35.3241M34.052 35.5752C34.052 36.3641 33.7757 37.0413 33.223 37.605C32.6703 38.1704 32.0052 38.4522 31.2276 38.4522C30.45 38.4522 29.7897 38.1704 29.2386 37.6099C28.6876 37.0477 28.4128 36.3706 28.4128 35.5752C28.4128 34.7798 28.6876 34.1027 29.2386 33.5406C29.7881 32.9785 30.4516 32.6982 31.2276 32.6982C32.0036 32.6982 32.6703 32.9785 33.223 33.5406C33.7757 34.1027 34.052 34.7798 34.052 35.5752Z" fill="#474C5C"/>
<path d="M43.4426 38.3549C43.4426 38.3646 43.4362 38.3695 43.425 38.3695C43.3077 38.3598 42.9783 38.3549 42.4369 38.3549C41.8955 38.3549 41.5966 38.3598 41.542 38.3695C41.5372 38.3744 41.5324 38.3695 41.5276 38.3549C41.7043 38.3258 41.8441 38.2253 41.9469 38.052C42.0401 37.8932 42.0866 37.6972 42.0866 37.4672C42.0866 36.7139 42.0577 35.7242 41.9967 34.4963C41.2833 35.8311 40.5925 37.1643 39.9242 38.4959C39.4727 37.6227 38.7642 36.2911 37.7986 34.5027C37.7986 34.5821 37.7809 35.094 37.744 36.04C37.7199 36.6605 37.7135 37.1708 37.7231 37.5709C37.7376 38.0423 37.9111 38.3031 38.2453 38.3533C38.2404 38.363 38.2292 38.3646 38.2131 38.3614C37.5351 38.3371 37.013 38.3403 36.6451 38.3695C36.6354 38.3744 36.6306 38.3711 36.6306 38.3614C36.817 38.3322 36.9632 38.2302 37.0708 38.0585C37.164 37.9127 37.2186 37.7394 37.2315 37.5417C37.3584 35.9348 37.442 34.2452 37.4821 32.4697C38.0878 33.628 38.5087 34.4217 38.7417 34.8559C39.2044 35.729 39.6414 36.5228 40.0527 37.2388C40.8399 35.8716 41.6818 34.2954 42.5767 32.507C42.6297 34.4298 42.7148 36.1065 42.8337 37.5352C42.8771 38.0066 43.0795 38.2804 43.4426 38.3549Z" fill="#474C5C"/>
<path d="M50.094 36.7884C50.1133 36.803 50.0811 36.9488 49.9976 37.2274C49.9141 37.5061 49.8514 37.6956 49.808 37.7993C49.7148 38.0163 49.6441 38.154 49.5975 38.214C49.5188 38.3128 49.4031 38.3614 49.2505 38.3614H45.5537C45.5393 38.3614 45.5328 38.3598 45.5328 38.3549C45.9088 38.2804 46.1048 38.0147 46.1192 37.5579C46.1578 36.5325 46.1594 35.1944 46.1273 33.5437C46.1176 33.1209 45.9313 32.8715 45.5698 32.7969V32.7905H48.8955C49.281 32.7905 49.5092 32.7856 49.5751 32.7759C49.5365 33.0869 49.5301 33.5032 49.5542 34.0248C49.5542 34.0297 49.5526 34.0346 49.5461 34.0394C49.5413 33.7819 49.408 33.5648 49.1461 33.3898C48.9147 33.2359 48.677 33.1566 48.4344 33.1517C47.8431 33.142 47.3354 33.1436 46.9113 33.1582C46.8422 33.163 46.8069 33.1857 46.8069 33.2262L46.7924 35.2074H48.5741C48.881 35.2074 49.1075 35.1539 49.2521 35.0486C49.2152 35.3256 49.2071 35.7112 49.2312 36.2036C49.2361 36.2182 49.2345 36.2247 49.2248 36.2247C49.2152 36.0093 49.1172 35.8408 48.9324 35.7225C48.791 35.6334 48.6288 35.5865 48.4424 35.5816C47.7885 35.5719 47.2374 35.5719 46.7876 35.5816L46.8021 37.5563C46.8021 37.8382 46.9242 37.9856 47.17 38.0001C47.7708 38.039 48.2512 38.0196 48.6111 37.9451C49.4771 37.7685 49.9719 37.383 50.0988 36.7868" fill="#474C5C"/>
<path d="M54.1973 38.4198C53.8197 38.4052 53.447 38.3291 53.0758 38.193C52.8108 38.0942 52.6565 37.9241 52.6147 37.6843C52.5842 37.5207 52.5473 37.0493 52.5039 36.2685C52.4991 36.2005 52.5087 36.1649 52.5328 36.16C52.5232 36.424 52.6003 36.6994 52.7626 36.9862C52.9136 37.2534 53.1112 37.4721 53.357 37.6422C53.6928 37.8804 54.0784 38.0002 54.5138 38.0002C54.8415 38.0002 55.1146 37.9225 55.3379 37.7686C55.5854 37.6017 55.73 37.3587 55.7669 37.0364C55.7717 36.9926 55.7749 36.9521 55.7749 36.9133C55.7749 36.6217 55.6223 36.3852 55.3203 36.2021C55.1757 36.1082 54.8399 35.9656 54.3178 35.7728C53.847 35.6011 53.508 35.4326 53.2976 35.2626C52.965 35.0001 52.7995 34.6486 52.7995 34.2047C52.7995 33.9423 52.867 33.7026 53.0035 33.4871C53.1562 33.2457 53.3956 33.0546 53.7233 32.9137C54.027 32.7841 54.3515 32.716 54.6969 32.7112C55.2271 32.7063 55.7782 32.7792 56.3549 32.9266C56.3405 33.3462 56.3244 33.8111 56.3051 34.3246C56.3051 34.3392 56.3019 34.3457 56.2971 34.3457C56.2923 33.9601 56.1107 33.641 55.7524 33.3851C55.4343 33.1566 55.0873 33.0416 54.7114 33.0416C54.4527 33.0416 54.2149 33.0967 53.9948 33.2069C53.7538 33.33 53.5884 33.5001 53.4968 33.7155C53.4566 33.8143 53.4357 33.918 53.4357 34.0265C53.4357 34.2874 53.5385 34.5028 53.7442 34.6761C53.9161 34.8187 54.1812 34.9564 54.5427 35.0908C54.8511 35.1994 55.158 35.3095 55.4665 35.4229C56.1027 35.6951 56.4224 36.0952 56.4224 36.6217C56.4224 37.1482 56.1782 37.5839 55.6898 37.9419C55.2335 38.274 54.7371 38.4311 54.2005 38.4149" fill="#474C5C"/>
<path d="M13.0954 43.0737V43.064C13.0954 42.842 13.0263 42.6573 12.8849 42.5002C12.7403 42.3431 12.5572 42.2621 12.3371 42.2621C12.117 42.2621 11.9274 42.3382 11.7876 42.4954C11.6527 42.6411 11.5884 42.8307 11.5884 43.0542V43.0656C11.5884 43.2875 11.6591 43.4722 11.7989 43.6293C11.9435 43.7864 12.1266 43.8691 12.3483 43.8691C12.57 43.8691 12.758 43.7929 12.8978 43.6358C13.0327 43.49 13.097 43.2988 13.097 43.0769M10.7819 43.0737V43.064C10.7819 42.6395 10.9329 42.2815 11.2285 41.9948C11.529 41.6967 11.9017 41.5493 12.3467 41.5493C12.7917 41.5493 13.1645 41.6951 13.4601 41.9883C13.7557 42.275 13.9019 42.6347 13.9019 43.051V43.0623C13.9019 43.4851 13.7509 43.8431 13.4553 44.1315C13.1532 44.4295 12.7821 44.577 12.3355 44.577C11.8888 44.577 11.5177 44.4312 11.2221 44.138C10.9265 43.8496 10.7803 43.4916 10.7803 43.0737" fill="#474C5C"/>
<path d="M14.8916 43.0737V43.064C14.8916 42.646 15.0314 42.288 15.3174 41.9948C15.6081 41.6967 15.968 41.5493 16.4034 41.5493C16.8822 41.5493 17.2694 41.7113 17.5554 42.0369L17.0557 42.5796C16.8565 42.3674 16.6364 42.2605 16.4002 42.2605C16.201 42.2605 16.0339 42.3366 15.8989 42.4937C15.764 42.6509 15.6997 42.8355 15.6997 43.0526V43.064C15.6997 43.2924 15.764 43.4819 15.8989 43.6325C16.0339 43.7897 16.2106 43.8658 16.4323 43.8658C16.654 43.8658 16.879 43.7621 17.0943 43.5564L17.573 44.0456C17.2549 44.3988 16.8629 44.577 16.3954 44.577C15.9648 44.577 15.6049 44.4312 15.319 44.138C15.033 43.8496 14.8932 43.4916 14.8932 43.0737" fill="#474C5C"/>
<path d="M20.4554 42.8291C20.4023 42.4176 20.1967 42.2102 19.8481 42.2102C19.4994 42.2102 19.2938 42.416 19.2231 42.8291H20.4554ZM18.4214 43.0737V43.064C18.4214 42.6395 18.5547 42.2815 18.8198 41.9948C19.0946 41.6967 19.4335 41.5493 19.8481 41.5493C20.3059 41.5493 20.661 41.7064 20.9132 42.0256C21.1398 42.3139 21.2522 42.6816 21.2522 43.1271C21.2522 43.1709 21.2474 43.2405 21.241 43.3442H19.2343C19.3147 43.7233 19.5508 43.9128 19.9396 43.9128C20.1935 43.9128 20.4296 43.8156 20.6401 43.6147L21.1076 44.031C20.8168 44.3955 20.4248 44.5737 19.93 44.5737C19.493 44.5737 19.1331 44.4328 18.8536 44.1558C18.5676 43.8739 18.423 43.5094 18.423 43.0704" fill="#474C5C"/>
<path d="M24.1024 43.4872V43.3398C23.9465 43.2701 23.7746 43.2312 23.5802 43.2312C23.2043 43.2312 23.0147 43.3673 23.0147 43.633V43.6443C23.0147 43.8776 23.1657 43.9975 23.4613 43.9975C23.6493 43.9975 23.8051 43.9489 23.924 43.8565C24.0429 43.7593 24.1008 43.6346 24.1008 43.4872M22.2242 43.6767V43.667C22.2242 43.3576 22.3319 43.1243 22.5472 42.9672C22.7512 42.8149 23.0308 42.7388 23.3858 42.7388C23.6284 42.7388 23.8598 42.776 24.0911 42.8586V42.81C24.0911 42.4569 23.8871 42.2771 23.4726 42.2771C23.2252 42.2771 22.9617 42.3322 22.6757 42.4342L22.4717 41.8041C22.8219 41.6469 23.1978 41.5708 23.5915 41.5708C24.0269 41.5708 24.3498 41.6793 24.5651 41.8964C24.7755 42.107 24.8784 42.4164 24.8784 42.8246V44.5126H24.0879V44.1983C23.8678 44.4429 23.577 44.5677 23.2155 44.5677C22.9295 44.5677 22.6982 44.4915 22.5166 44.3393C22.3222 44.1756 22.2258 43.9537 22.2258 43.6767" fill="#474C5C"/>
<path d="M26.1202 41.6028H26.938V42.0159C27.1806 41.7065 27.4601 41.5493 27.7831 41.5493C28.106 41.5493 28.3325 41.6465 28.5044 41.836C28.6763 42.0256 28.7615 42.2912 28.7615 42.6282V44.5105H27.9437V42.8874C27.9437 42.4921 27.7767 42.2961 27.4489 42.2961C27.1212 42.2961 26.938 42.4921 26.938 42.8874V44.5105H26.1202V41.6028Z" fill="#474C5C"/>
<path d="M34.3733 43.064V43.0526C34.3733 42.8193 34.3026 42.6233 34.1628 42.4711C34.0279 42.3253 33.8656 42.2491 33.668 42.2491C33.4704 42.2491 33.3081 42.3253 33.1732 42.4711C33.0382 42.6233 32.9691 42.8193 32.9691 43.0526V43.064C32.9691 43.2972 33.0382 43.4916 33.1732 43.6455C33.3081 43.7913 33.4688 43.8674 33.668 43.8674C33.8672 43.8674 34.0295 43.7962 34.1628 43.6504C34.3026 43.4981 34.3733 43.3037 34.3733 43.064ZM32.161 41.6028H32.9788V42.0207C33.2101 41.7065 33.5057 41.5493 33.8785 41.5493C34.2512 41.5493 34.5404 41.6789 34.7878 41.9349C35.0577 42.2167 35.1911 42.5909 35.1911 43.0526V43.064C35.1911 43.5256 35.0577 43.8998 34.7926 44.1817C34.5452 44.436 34.2384 44.5672 33.8785 44.5672C33.5186 44.5672 33.2214 44.4198 32.9788 44.1331V45.3805H32.161V41.6044V41.6028Z" fill="#474C5C"/>
<path d="M38.0364 43.4872V43.3398C37.8806 43.2701 37.7087 43.2312 37.5143 43.2312C37.1384 43.2312 36.9488 43.3673 36.9488 43.633V43.6443C36.9488 43.8776 37.0998 43.9975 37.3954 43.9975C37.5834 43.9975 37.7392 43.9489 37.8581 43.8565C37.977 43.7593 38.0348 43.6346 38.0348 43.4872M36.1583 43.6767V43.667C36.1583 43.3576 36.266 43.1243 36.4813 42.9672C36.6853 42.8149 36.9664 42.7388 37.3199 42.7388C37.5625 42.7388 37.7938 42.776 38.0252 42.8586V42.81C38.0252 42.4569 37.8212 42.2771 37.4067 42.2771C37.1592 42.2771 36.8958 42.3322 36.6098 42.4342L36.4057 41.8041C36.756 41.6469 37.1319 41.5708 37.5255 41.5708C37.9609 41.5708 38.2839 41.6793 38.4992 41.8964C38.7096 42.107 38.8108 42.4164 38.8108 42.8246V44.5126H38.0204V44.1983C37.8003 44.4429 37.5095 44.5677 37.148 44.5677C36.862 44.5677 36.6323 44.4915 36.4491 44.3393C36.2547 44.1756 36.1583 43.9537 36.1583 43.6767Z" fill="#474C5C"/>
<path d="M40.0543 41.6032H40.8721V42.1896C41.0601 41.7441 41.3669 41.5335 41.7927 41.5497V42.4115H41.7509C41.1645 42.4115 40.8737 42.7533 40.8737 43.4369V44.5109H40.0559V41.6032H40.0543Z" fill="#474C5C"/>
<path d="M42.8402 40.5518H43.6596V42.6625L44.6171 41.6047H45.5955L44.4982 42.7484L45.6341 44.5125H44.6862L43.9488 43.3186L43.6596 43.628V44.5125H42.8402V40.5518Z" fill="#474C5C"/>
</g>
<defs>
<clipPath id="clip0_79_10417">
<rect width="56.4192" height="45.3807" fill="white"/>
</clipPath>
</defs>
</svg>
