<svg width="50" height="22" viewBox="0 0 50 22" fill="none" xmlns="http://www.w3.org/2000/svg">
<path d="M2.51983 9.06668C1.73494 8.64842 1.11526 8.07527 0.67118 7.33686C0.221938 6.59845 0 5.77225 0 4.84795C0 3.92365 0.221938 3.09745 0.67118 2.35904C1.12042 1.62063 1.73494 1.04746 2.51983 0.629198C3.30471 0.210938 4.18777 0.00439453 5.17404 0.00439453C6.16031 0.00439453 7.04324 0.210938 7.82813 0.629198C8.61301 1.04746 9.22753 1.62063 9.67677 2.35904C10.126 3.09745 10.3481 3.92365 10.3481 4.84795C10.3481 5.77225 10.126 6.59845 9.67677 7.33686C9.22753 8.07527 8.61301 8.64842 7.82813 9.06668C7.04324 9.48494 6.16031 9.6915 5.17404 9.6915C4.18777 9.6915 3.30471 9.48494 2.51983 9.06668ZM6.44946 7.17678C6.83157 6.95474 7.13107 6.64492 7.35311 6.23699C7.57515 5.83422 7.68353 5.36948 7.68353 4.84795C7.68353 4.32642 7.57515 3.86168 7.35311 3.45891C7.13107 3.05614 6.83157 2.74115 6.44946 2.51911C6.06735 2.29708 5.64394 2.18865 5.17404 2.18865C4.70414 2.18865 4.27544 2.30224 3.89849 2.51911C3.51638 2.74115 3.21689 3.05614 2.99485 3.45891C2.77281 3.86168 2.66443 4.32642 2.66443 4.84795C2.66443 5.36948 2.77281 5.83422 2.99485 6.23699C3.21689 6.63975 3.51638 6.95474 3.89849 7.17678C4.28061 7.39882 4.70414 7.50725 5.17404 7.50725C5.64394 7.50725 6.07251 7.39882 6.44946 7.17678Z" fill="white"/>
<path d="M49.8247 0.19043V9.50574H47.656L43.5456 4.54343V9.50574H40.9637V0.19043H43.1326L47.2429 5.15274V0.19043H49.8247Z" fill="white"/>
<path d="M12.2069 21.0934C11.4323 20.6803 10.823 20.1071 10.3789 19.3687C9.93483 18.6303 9.71277 17.799 9.71277 16.8643C9.71277 15.9297 9.93483 15.0983 10.3789 14.3599C10.823 13.6215 11.4323 13.0484 12.2069 12.6353C12.9814 12.2222 13.8593 12.0156 14.8352 12.0156C15.6873 12.0156 16.4566 12.1654 17.1382 12.47C17.8198 12.7695 18.3879 13.2084 18.8423 13.7764L17.1641 15.2946C16.5599 14.5665 15.8267 14.205 14.9695 14.205C14.4635 14.205 14.0142 14.3186 13.6166 14.5355C13.2241 14.7576 12.9143 15.0725 12.6974 15.4753C12.4805 15.8781 12.3722 16.3428 12.3722 16.8643C12.3722 17.3859 12.4805 17.8506 12.6974 18.2534C12.9143 18.6561 13.219 18.9711 13.6166 19.1932C14.009 19.4152 14.4635 19.5236 14.9695 19.5236C15.8318 19.5236 16.5599 19.1622 17.1641 18.4341L18.8423 19.9522C18.3879 20.5202 17.8198 20.954 17.1382 21.2586C16.4566 21.5581 15.6873 21.7131 14.8352 21.7131C13.8593 21.7131 12.9814 21.5065 12.2069 21.0934Z" fill="white"/>
<path d="M20.0144 12.2114H22.6478V21.5267H20.0144V12.2114Z" fill="white"/>
<path d="M26.5052 14.2978H23.6447V12.2065H30.7396L31.9892 14.2978H29.1388V21.5219H26.5052V14.2978Z" fill="white"/>
<path d="M38.1804 18.1858V21.5267H35.5468V18.1445L31.9943 12.2114H34.7774L36.9875 15.9086L39.1976 12.2114H41.7536L38.1855 18.1858H38.1804Z" fill="white"/>
<path d="M37.473 9.50574H40.2149L36.0891 0.19043H33.4918L31.2405 5.29215L33.497 4.35237L34.7672 2.74645L34.7827 2.80326L37.473 9.50574Z" fill="white"/>
<path d="M24.1661 2.22491H28.8599V0.19043H21.5533V4.87906L24.1661 5.01332V3.79468V2.22491Z" fill="white"/>
<path d="M24.1662 7.47164V6.61963C23.216 6.61963 22.3435 7.05338 21.5586 7.91055V9.50614H28.1423L29.0408 7.47164H24.1713H24.1662Z" fill="white"/>
<path d="M30.2283 7.58571L29.3813 9.50661H32.0716L33.4504 6.07275C32.6449 6.76469 31.5862 7.36368 30.2333 7.58571H30.2283Z" fill="white"/>
<path d="M32.4282 2.60251C31.5194 4.8229 29.6037 4.84873 29.0254 4.80225C28.2508 4.71963 27.4194 4.50791 26.5313 4.09998C21.5999 1.84344 18.7031 6.41849 18.7031 6.41849C18.099 7.14658 17.3657 7.50803 16.5086 7.50803C16.0025 7.50803 15.5532 7.3996 15.1556 7.17756C14.7632 6.95552 14.4533 6.64569 14.2365 6.23776C14.0196 5.83499 13.9112 5.37026 13.9112 4.84872C13.9112 4.32719 14.0196 3.86246 14.2365 3.45969C14.4533 3.05692 14.758 2.74193 15.1556 2.51989C15.5481 2.29785 16.0025 2.18942 16.5086 2.18942C17.3709 2.18942 18.099 2.55087 18.7031 3.27895L20.3813 1.76082C19.9269 1.19282 19.3589 0.759067 18.6773 0.454408C17.9957 0.154914 17.2263 0 16.3743 0C15.3984 0 14.5205 0.206554 13.7459 0.619651C12.9714 1.03275 12.362 1.60592 11.918 2.34433C11.4739 3.08273 11.252 3.91409 11.252 4.84872C11.252 5.78335 11.4739 6.61471 11.918 7.35312C12.362 8.09153 12.9714 8.6647 13.7459 9.0778C14.5205 9.49089 15.3984 9.69743 16.3743 9.69743C17.2263 9.69743 17.9957 9.5477 18.6773 9.24304C19.3589 8.94354 19.9269 8.50463 20.3813 7.93662C22.075 5.61812 23.965 5.61295 24.9048 5.79884C25.3178 5.91244 25.7516 6.05187 26.2164 6.22227C32.5884 8.58208 34.7622 2.74192 34.7622 2.74192L32.4231 2.59734L32.4282 2.60251Z" fill="white"/>
<path d="M32.4282 2.60205C31.5194 4.82244 29.6037 4.84827 29.0254 4.80179C28.2508 4.71917 27.4194 4.50745 26.5313 4.09952C22.3642 2.19412 19.6532 5.16326 18.9096 6.12887C18.9045 6.13919 18.8993 6.14951 18.8993 6.14951C18.8993 6.14951 20.815 4.02207 26.0097 6.14951C26.0768 6.17533 26.1492 6.19599 26.2163 6.22181C31.7363 8.26664 34.1012 4.16149 34.6382 3.02548L32.4231 2.60205H32.4282Z" fill="url(#paint0_linear_79_11015)"/>
<defs>
<linearGradient id="paint0_linear_79_11015" x1="18.8993" y1="4.69335" x2="34.6434" y2="4.69335" gradientUnits="userSpaceOnUse">
<stop stop-color="#CD644A"/>
<stop offset="0.26" stop-color="#CD644A"/>
<stop offset="0.73" stop-color="#3E4E80"/>
</linearGradient>
</defs>
</svg>
