<svg width="64" height="51" viewBox="0 0 64 51" fill="none" xmlns="http://www.w3.org/2000/svg">
<g clip-path="url(#clip0_79_11029)">
<path fill-rule="evenodd" clip-rule="evenodd" d="M20.6194 31.0444L21.384 29.1175L24.9907 20.4892C25.2124 19.9578 25.7311 19.6108 26.305 19.6108C26.879 19.6108 27.3968 19.9553 27.6194 20.4867L31.2754 29.2114L31.9748 31.0393H30.5885C29.8665 31.0393 29.2207 30.5893 28.9697 29.9096L28.3464 28.525H24.2085L23.5626 30.011C23.3384 30.6303 22.7552 31.0393 22.0985 31.0393H20.6185L20.621 31.0435L20.6194 31.0444ZM24.7682 26.423H27.8118L26.2824 22.6817L24.769 26.423H24.7682ZM4.71599 30.4619C4.90925 30.9865 5.29242 31.2497 5.87137 31.2497C6.45031 31.2497 6.83348 30.9865 7.02674 30.4619L11.0819 19.9402C10.9656 19.8748 10.8041 19.8229 10.6016 19.7801C10.4084 19.7265 10.2268 19.6988 10.057 19.6988C9.16013 19.6988 8.57198 20.0676 8.29423 20.8085L5.84962 27.593L5.7442 27.3072L3.4368 20.8085C3.18079 20.0676 2.59348 19.6988 1.67403 19.6988C1.50336 19.6988 1.31512 19.7257 1.1135 19.7801C0.920236 19.8229 0.76546 19.8765 0.64917 19.9402L4.71934 30.4619H4.71683H4.71599ZM13.3299 31.1055C12.9885 31.1055 12.6932 30.9815 12.4489 30.7368C12.213 30.4895 12.0967 30.1945 12.0967 29.8517V21.4061C12.0967 20.8278 12.2899 20.3978 12.6731 20.1187C13.0588 19.8396 13.6511 19.6997 14.4518 19.6997V29.0639H18.1789C18.7127 29.0639 19.1184 29.2416 19.397 29.5953C19.6865 29.9397 19.8296 30.4418 19.8296 31.1081H13.3299V31.1055ZM34.0304 30.4778C34.8913 30.9932 36.0575 31.2497 37.5317 31.2497C38.4352 31.2497 39.2183 31.1215 39.8801 30.865C40.5527 30.5968 41.0664 30.2163 41.4253 29.7235C41.7934 29.2307 41.9766 28.6566 41.9766 28.0012C41.9766 27.3458 41.8286 26.8152 41.5349 26.3761C41.2521 25.9369 40.7878 25.5614 40.1486 25.2505C39.5187 24.9287 38.6619 24.6445 37.5785 24.3973C36.9594 24.2573 36.4792 24.1182 36.1429 23.9782C35.8174 23.8383 35.5865 23.6832 35.4502 23.5122C35.3138 23.3295 35.246 23.0999 35.246 22.8208C35.246 22.4135 35.4251 22.1025 35.7823 21.8863C36.1387 21.6726 36.6499 21.5645 37.3116 21.5645C38.1215 21.5645 38.7155 21.7313 39.092 22.0623C39.471 22.3959 39.686 22.9197 39.7378 23.6405C40.3996 23.6179 40.8723 23.4963 41.1576 23.2717C41.4512 23.0354 41.5993 22.7202 41.5993 22.3221C41.5993 21.8067 41.4153 21.3516 41.048 20.9535C40.6799 20.5571 40.1712 20.2512 39.5187 20.0374C38.8686 19.812 38.1324 19.6997 37.3116 19.6997C36.4508 19.6997 35.6919 19.8279 35.0419 20.0869C34.3893 20.3433 33.8798 20.7079 33.5125 21.1806C33.1561 21.6424 32.9763 22.178 32.9763 22.7898C32.9763 23.4335 33.1084 23.969 33.3711 24.399C33.6447 24.8289 34.0798 25.1977 34.6788 25.5086C35.2778 25.8196 36.1027 26.0987 37.1544 26.3459C37.8471 26.5077 38.3741 26.6635 38.7306 26.8119C39.0987 26.9628 39.3563 27.127 39.5019 27.3097C39.65 27.4924 39.722 27.7288 39.722 28.0188C39.722 28.4487 39.527 28.7865 39.1388 29.0321C38.7506 29.2684 38.2144 29.3857 37.5308 29.3857C36.6474 29.3857 35.9588 29.1879 35.4652 28.7915C34.9808 28.3842 34.7181 27.7875 34.678 27.0063C33.9852 27.0063 33.4916 27.1304 33.1955 27.3759C32.9018 27.6232 32.7537 27.9433 32.7537 28.3414C32.7537 29.2533 33.1796 29.9665 34.0296 30.482V30.4778H34.0304ZM42.7346 21.8871H46.5965V31.2514C47.3653 31.2514 47.9485 31.1072 48.3433 30.8172C48.7491 30.5272 48.9532 30.104 48.9532 29.545V21.8871H50.9561C52.1851 21.8871 52.7992 21.2049 52.7992 19.843H44.5752C43.3462 19.843 42.7313 20.5252 42.7313 21.8871H42.7338H42.7346ZM51.9249 29.1175L51.1603 31.0444H52.6402C53.2953 31.0444 53.8801 30.632 54.1043 30.016L54.7502 28.53H58.8881L59.5114 29.9146C59.7624 30.5943 60.4083 31.0444 61.1303 31.0444H62.5166L61.8172 29.2164L58.1619 20.4917C57.9402 19.9603 57.4215 19.6159 56.8476 19.6159C56.2737 19.6159 55.755 19.9628 55.5333 20.4942L51.9266 29.1226L51.9241 29.1184L51.9249 29.1175ZM58.3527 26.423H55.3091L56.8225 22.6817L58.3519 26.423H58.3527Z" fill="white"/>
<path fill-rule="evenodd" clip-rule="evenodd" d="M49.6795 0.510254C49.6795 0.510254 36.4968 7.98788 17.0838 0.780126C17.0838 0.780126 15.0006 3.18886 13.4822 4.98074C28.6652 8.51925 43.629 7.09697 49.6795 0.510254ZM20.0313 8.58881C23.1736 8.91064 38.7423 9.59957 45.4144 4.98074C45.4144 4.98074 38.0429 12.5782 17.7506 11.5675L20.0313 8.58965V8.58881ZM23.9425 13.7465C33.5862 13.2487 40.1596 9.46044 40.1596 9.46044C32.5028 16.0472 23.0255 16.3103 23.0255 16.3103L23.9425 13.7465Z" fill="white"/>
<path fill-rule="evenodd" clip-rule="evenodd" d="M49.6795 0.510254C49.6795 0.510254 36.4968 7.98788 17.0838 0.780126C17.0838 0.780126 15.0006 3.18886 13.4822 4.98074C28.6652 8.51925 43.629 7.09697 49.6795 0.510254ZM20.0313 8.58881C23.1736 8.91064 38.7423 9.59957 45.4144 4.98074C45.4144 4.98074 38.0429 12.5782 17.7506 11.5675L20.0313 8.58965V8.58881ZM23.9425 13.7465C33.5862 13.2487 40.1596 9.46044 40.1596 9.46044C32.5028 16.0472 23.0255 16.3103 23.0255 16.3103L23.9425 13.7465Z" fill="url(#paint0_linear_79_11029)"/>
<path opacity="0.8" d="M11.6642 34.5016H14.6083V34.9424H13.3583V38.4147H12.9191V34.9424H11.6642V34.5016ZM18.3714 34.5016V38.4173H17.9322V36.6698H15.6992V38.4173H15.26V34.5016H15.6992V36.2491H17.9322V34.5016H18.3714ZM19.8037 36.9019C19.8037 37.0679 19.8296 37.2196 19.884 37.357C19.9359 37.4945 20.012 37.6135 20.1082 37.7107C20.2053 37.8105 20.3207 37.8859 20.4554 37.9404C20.5926 37.9923 20.744 38.0208 20.9089 38.0208C21.0737 38.0208 21.2301 37.9948 21.3648 37.9404C21.502 37.8859 21.6175 37.8079 21.7145 37.7107C21.8116 37.611 21.8869 37.4928 21.9387 37.357C21.9906 37.2196 22.0191 37.0679 22.0191 36.9019V34.5016H22.4583V36.9019C22.4583 37.1316 22.4206 37.3453 22.347 37.5372C22.2734 37.7292 22.1697 37.8951 22.0324 38.0309C21.8978 38.1683 21.7346 38.2748 21.543 38.351C21.3539 38.4273 21.1414 38.465 20.9072 38.465C20.6729 38.465 20.4655 38.4273 20.2739 38.351C20.0848 38.2748 19.9216 38.1658 19.7844 38.0309C19.6497 37.8934 19.5435 37.73 19.4699 37.5372C19.3962 37.3453 19.3611 37.1341 19.3611 36.9019V34.5016H19.8003V36.9019H19.8037ZM24.3758 38.4147V36.8659C24.3758 36.8139 24.3616 36.757 24.3357 36.6949C24.3097 36.6354 24.2646 36.555 24.201 36.4577L22.8733 34.4991H23.2564C23.351 34.4991 23.4313 34.5485 23.4974 34.6483L24.4687 36.0596C24.4996 36.1074 24.5256 36.1644 24.5465 36.2281C24.5699 36.2901 24.5841 36.3488 24.5917 36.4033H24.5967C24.5992 36.3798 24.6059 36.3538 24.6134 36.3253C24.6201 36.2943 24.6302 36.2633 24.6394 36.2348C24.6511 36.2038 24.6628 36.1753 24.6745 36.1468C24.6862 36.1183 24.7004 36.0948 24.7147 36.0731L25.6977 34.6499C25.7638 34.5502 25.8441 34.5008 25.9386 34.5008H26.3168L24.9866 36.4619C24.9205 36.5592 24.8753 36.6371 24.8519 36.6991C24.8284 36.7586 24.8167 36.8156 24.8167 36.8676V38.4164H24.3775V38.4139L24.3758 38.4147ZM31.6879 34.5016V38.4173H31.3474C31.3215 38.4173 31.2955 38.408 31.2646 38.3888C31.2361 38.3695 31.2102 38.3435 31.191 38.315L28.9555 35.0589H28.9438C28.9647 35.1109 28.9789 35.1637 28.9865 35.2157C28.9957 35.2651 29.0007 35.3129 29.0007 35.3581V38.4147H28.5615V34.4991H28.902C28.9614 34.4991 29.0132 34.5083 29.0576 34.5276C29.1044 34.5469 29.1471 34.5846 29.1856 34.639L31.3148 37.7292H31.324C31.293 37.6655 31.2721 37.6085 31.2604 37.5582C31.2512 37.5062 31.2462 37.4585 31.2462 37.4132V34.4982H31.6879V34.5008V34.5016ZM35.7045 38.2203C35.5841 38.2773 35.4586 38.3242 35.3264 38.3603C35.1942 38.3963 35.062 38.424 34.9248 38.4407C34.7876 38.4575 34.6504 38.4642 34.514 38.4642C34.33 38.4642 34.1526 38.4407 33.9803 38.3955C33.8104 38.3477 33.6515 38.2815 33.5025 38.1935C33.3561 38.108 33.2239 38.0041 33.1035 37.8825C32.983 37.7593 32.8793 37.6244 32.7939 37.4769C32.7086 37.3277 32.64 37.1685 32.5931 36.9958C32.548 36.8223 32.5245 36.6421 32.5245 36.4552C32.5245 36.2683 32.548 36.0898 32.5931 35.9172C32.64 35.7437 32.7069 35.5853 32.7939 35.4361C32.8793 35.2894 32.983 35.1536 33.1035 35.033C33.2265 34.9098 33.3612 34.805 33.5076 34.7203C33.6565 34.6349 33.8146 34.5686 33.9869 34.5234C34.1593 34.4756 34.3417 34.4521 34.5282 34.4521C34.6579 34.4521 34.7884 34.4689 34.9231 34.4999C35.0578 34.5284 35.1875 34.5686 35.313 34.6206C35.4385 34.6726 35.5564 34.7321 35.6652 34.8008C35.774 34.867 35.871 34.9408 35.9513 35.0212L35.8593 35.1134C35.8309 35.1394 35.8024 35.1629 35.7698 35.1821C35.7388 35.2014 35.7062 35.2173 35.6686 35.2249C35.6334 35.2316 35.5974 35.2341 35.5598 35.2274C35.5247 35.2207 35.4862 35.2039 35.4535 35.1754C35.4017 35.1327 35.3381 35.095 35.2645 35.0589C35.1934 35.0237 35.1181 34.9952 35.0377 34.9709C34.9574 34.945 34.8746 34.9257 34.7893 34.9139C34.7039 34.8997 34.6194 34.893 34.5366 34.893C34.3166 34.893 34.1141 34.9332 33.9225 35.0137C33.7334 35.0941 33.5661 35.2056 33.4239 35.3456C33.2825 35.4855 33.1712 35.649 33.0909 35.8409C33.0106 36.0303 32.9704 36.2373 32.9704 36.4577C32.9704 36.6782 33.0106 36.8818 33.0909 37.0721C33.1712 37.2615 33.2825 37.4274 33.4214 37.5699C33.5628 37.7099 33.7259 37.8188 33.9125 37.8993C34.1016 37.9798 34.3049 38.02 34.5224 38.0225C34.6119 38.0225 34.7039 38.0175 34.7985 38.0083C34.8955 37.999 34.9901 37.9848 35.0846 37.968C35.1791 37.9487 35.2712 37.9228 35.359 37.8918C35.4485 37.8607 35.5313 37.823 35.605 37.7803V36.8559H35.175C35.0854 36.8559 35.0193 36.8324 34.9742 36.7846C34.929 36.7368 34.9081 36.6757 34.9081 36.5969V36.4686H36.0442V38.015C36.0442 38.015 35.8292 38.1616 35.7062 38.2186L35.7045 38.2203ZM37.1912 36.9019C37.1912 37.0679 37.2171 37.2196 37.2715 37.357C37.3234 37.4945 37.3987 37.6135 37.4957 37.7107C37.5928 37.8105 37.7082 37.8859 37.8429 37.9404C37.9801 37.9923 38.1307 38.0208 38.2964 38.0208C38.462 38.0208 38.6177 37.9948 38.7523 37.9404C38.8896 37.8859 39.005 37.8079 39.1021 37.7107C39.1991 37.611 39.2744 37.4928 39.3263 37.357C39.3781 37.2221 39.4066 37.0679 39.4066 36.9019V34.5016H39.8483V36.9019C39.8483 37.1316 39.8107 37.3453 39.7345 37.5372C39.6609 37.7292 39.5572 37.8951 39.42 38.0309C39.2853 38.1683 39.1221 38.2748 38.9305 38.351C38.7415 38.4273 38.529 38.465 38.2947 38.465C38.0605 38.465 37.853 38.4273 37.6639 38.351C37.4748 38.2748 37.3092 38.1658 37.1745 38.0309C37.0398 37.8934 36.936 37.73 36.8599 37.5372C36.7863 37.3453 36.7511 37.1341 36.7511 36.9019V34.5016H37.1904L37.1879 36.9019H37.1912ZM41.7625 38.4147V36.8659C41.7625 36.8139 41.7483 36.757 41.7224 36.6949C41.6964 36.6354 41.6512 36.555 41.5877 36.4577L40.2599 34.4991H40.6431C40.7377 34.4991 40.818 34.5485 40.8841 34.6483L41.8554 36.0596C41.8863 36.1074 41.9123 36.1644 41.9357 36.2281C41.9591 36.2901 41.9733 36.3488 41.9809 36.4033H41.9859C41.9884 36.3798 41.9951 36.3538 42.0026 36.3253C42.0093 36.2943 42.0194 36.2633 42.026 36.2348C42.0378 36.2038 42.0495 36.1753 42.0612 36.1468C42.0729 36.1183 42.0871 36.0948 42.1013 36.0731L43.0844 34.6499C43.153 34.5502 43.2333 34.5008 43.3253 34.5008H43.7035L42.3732 36.4619C42.3072 36.5592 42.262 36.6371 42.2386 36.6991C42.2151 36.7586 42.2034 36.8156 42.2034 36.8676V38.4164H41.7642V38.4139L41.7625 38.4147ZM44.2623 38.4147V34.4991H46.6442V34.9399H44.7041V36.1896H46.2778V36.6304H44.7041V37.968H46.6442V38.4089H44.2623V38.4139V38.4147ZM50.6374 34.5016V38.4173H50.2969C50.271 38.4173 50.245 38.408 50.2141 38.3888C50.1856 38.3695 50.1597 38.3435 50.1405 38.315L47.905 35.0589H47.8933C47.9142 35.1109 47.9284 35.1637 47.936 35.2157C47.9452 35.2651 47.9502 35.3129 47.9502 35.3581V38.4147H47.5084V34.4991H47.8489C47.9083 34.4991 47.9602 34.5083 48.0046 34.5276C48.0522 34.5469 48.0941 34.5846 48.1326 34.639L50.2618 37.7292H50.2685C50.2375 37.6655 50.2166 37.6085 50.2049 37.5582C50.1957 37.5062 50.1907 37.4585 50.1907 37.4132V34.4982H50.6324L50.6374 34.5008V34.5016Z" fill="white"/>
<path d="M47.5595 41.7563H16.5016" stroke="white" stroke-width="0.25" stroke-linecap="round"/>
<g opacity="0.8">
<path d="M16.7701 44.9761H17.841L18.8717 46.9272H18.9169L19.9476 44.9761H21.016L19.3687 47.9053V49.5077H18.4208V47.9053L16.7735 44.9761H16.771H16.7701Z" fill="white" stroke="white" stroke-miterlimit="10"/>
<path d="M13.2872 49.5087V44.9771H15.0952C15.4265 44.9771 15.7042 45.0257 15.9259 45.1246C16.1476 45.2235 16.3158 45.3601 16.4254 45.5377C16.5375 45.7121 16.5936 45.9132 16.5936 46.1403C16.5936 46.3172 16.5584 46.4731 16.4865 46.6063C16.417 46.7404 16.3183 46.8477 16.1953 46.9332C16.0723 47.0162 15.9335 47.0782 15.7762 47.1126V47.1578C15.9469 47.1662 16.11 47.214 16.2597 47.3028C16.412 47.3908 16.535 47.5199 16.6279 47.6808C16.7216 47.8417 16.7693 48.032 16.7693 48.2574C16.7693 48.4988 16.7107 48.7134 16.5902 48.9003C16.4731 49.088 16.2991 49.2355 16.0665 49.3453C15.8373 49.4551 15.5511 49.5087 15.2123 49.5087H13.2814H13.2864H13.2872ZM14.2401 48.7259H15.0174C15.2842 48.7259 15.4767 48.6748 15.5997 48.5734C15.7226 48.472 15.7837 48.332 15.7837 48.161C15.7837 48.0353 15.7544 47.9255 15.6925 47.8283C15.6314 47.7319 15.5453 47.6565 15.4332 47.6029C15.3236 47.5492 15.1905 47.5199 15.0383 47.5199H14.2376V48.7234L14.2401 48.7259ZM14.2401 46.8737H14.9479C15.0784 46.8737 15.1939 46.8494 15.2951 46.8041C15.3989 46.7555 15.4792 46.6918 15.5377 46.6055C15.5988 46.52 15.6289 46.4178 15.6289 46.2971C15.6289 46.1336 15.5704 46.0021 15.4558 45.9006C15.3411 45.8017 15.178 45.7506 14.9672 45.7506H14.241V46.8737H14.2401Z" fill="white"/>
<path d="M24.4336 49.5338C24.2512 49.1491 24.0722 48.7494 23.8948 48.3353C23.7174 47.9213 23.5493 47.5123 23.3895 47.1067C23.2297 46.7018 23.0833 46.3138 22.9502 45.9434C22.8164 45.5729 22.7009 45.2419 22.6039 44.951H23.7392C23.8245 45.2159 23.9199 45.5017 24.0245 45.8076C24.129 46.1135 24.2361 46.4186 24.3449 46.722C24.4537 47.0254 24.5574 47.317 24.6578 47.5953C24.7573 47.8735 24.8527 48.1141 24.9439 48.316C25.0301 48.1149 25.1238 47.8752 25.2259 47.5969C25.3279 47.3187 25.4333 47.0279 25.5421 46.7236C25.6509 46.4202 25.7571 46.1152 25.8625 45.8093C25.9671 45.5033 26.0625 45.2167 26.1487 44.9502H27.2446C27.1417 45.2427 27.0246 45.5737 26.8907 45.9434C26.7577 46.313 26.6113 46.701 26.4532 47.1067C26.2951 47.5123 26.1277 47.9221 25.952 48.337C25.7764 48.7519 25.5973 49.15 25.4158 49.5338H24.4336Z" fill="white"/>
<path d="M30.4715 49.5338C30.4204 49.3745 30.3661 49.2111 30.3075 49.0435C30.2489 48.8758 30.1904 48.7082 30.1326 48.5423H28.3456C28.2879 48.7091 28.2302 48.8767 28.1724 49.0451C28.1147 49.2128 28.0603 49.3762 28.0101 49.5346H26.9409C27.1133 49.0409 27.2764 48.5842 27.4312 48.166C27.586 47.7469 27.7365 47.353 27.8846 46.9825C28.0327 46.6121 28.1783 46.2609 28.3213 45.9282C28.4652 45.5955 28.6142 45.2703 28.7681 44.9526H29.7444C29.8942 45.2703 30.0431 45.5955 30.1887 45.9282C30.3351 46.2609 30.4815 46.6129 30.6296 46.9825C30.7777 47.353 30.9291 47.7477 31.0839 48.166C31.2386 48.585 31.4026 49.0409 31.575 49.5346H30.4723L30.4715 49.5338ZM29.2349 45.9894C29.2123 46.0556 29.178 46.1461 29.1337 46.2609C29.0894 46.3757 29.0392 46.5082 28.9823 46.6582C28.9262 46.8082 28.8626 46.9733 28.7932 47.1544C28.7238 47.3354 28.6526 47.524 28.5807 47.7226H29.8883C29.8189 47.524 29.7503 47.3337 29.685 47.1527C29.6198 46.9716 29.557 46.8057 29.4976 46.6557C29.4382 46.5057 29.3872 46.3732 29.342 46.2584C29.2977 46.1444 29.2617 46.0539 29.2341 45.9894H29.2349Z" fill="white"/>
<path d="M35.2311 49.534C34.9366 49.0093 34.617 48.4914 34.274 47.9801C33.931 47.4689 33.5654 46.9861 33.178 46.5318V49.534H32.1615V44.9512H32.9998C33.1454 45.0962 33.306 45.2755 33.4817 45.4867C33.6574 45.6988 33.8373 45.9242 34.0196 46.1648C34.202 46.4053 34.3836 46.6542 34.5643 46.9115C34.7442 47.1696 34.914 47.4177 35.0721 47.6558V44.9512H36.0953V49.534H35.2302H35.2311Z" fill="white"/>
<path d="M38.5248 44.8983C39.2066 44.8983 39.7303 45.0181 40.0959 45.2587C40.4615 45.4992 40.6439 45.8923 40.6439 46.4387C40.6439 46.9852 40.459 47.3875 40.0892 47.6322C39.7194 47.8769 39.1915 47.9993 38.5055 47.9993H38.1817V49.5339H37.1519V45.0173C37.3761 44.9729 37.6137 44.9427 37.8647 44.9243C38.1156 44.9067 38.3357 44.8975 38.5248 44.8975V44.8983ZM38.5908 45.7783C38.5164 45.7783 38.4428 45.7808 38.37 45.785C38.2972 45.7892 38.2344 45.7942 38.1817 45.7984V47.121H38.5055C38.8619 47.121 39.1305 47.0724 39.3103 46.9751C39.4911 46.8779 39.5814 46.6977 39.5814 46.4329C39.5814 46.3055 39.558 46.199 39.512 46.1152C39.466 46.0314 39.3999 45.9644 39.3137 45.9133C39.2275 45.863 39.1229 45.8269 39 45.8076C38.877 45.7875 38.7406 45.7783 38.5908 45.7783Z" fill="white"/>
<path d="M44.162 44.9512H45.1919V49.534H44.162V47.5895H42.4327V49.534H41.4028V44.9512H42.4327V46.7037H44.162V44.9512Z" fill="white"/>
<path d="M48.0372 49.626C47.7159 49.626 47.439 49.5808 47.2056 49.4902C46.9722 49.3997 46.7797 49.274 46.6283 49.1131C46.4769 48.9522 46.3648 48.7602 46.292 48.5382C46.2192 48.3152 46.1832 48.0696 46.1832 47.8006V44.9502H47.2131V47.7143C47.2131 47.8995 47.234 48.0571 47.2759 48.187C47.3177 48.3169 47.3746 48.4225 47.4474 48.5046C47.5201 48.5859 47.608 48.6446 47.7117 48.6798C47.8146 48.715 47.9284 48.7326 48.0514 48.7326C48.3024 48.7326 48.5057 48.6555 48.6621 48.5013C48.8186 48.3471 48.8964 48.0847 48.8964 47.7143V44.9502H49.9263V47.8006C49.9263 48.0696 49.8886 48.316 49.8142 48.5415C49.7389 48.7661 49.6251 48.9589 49.4712 49.1198C49.3172 49.2807 49.1214 49.4056 48.8838 49.4936C48.6462 49.5816 48.3643 49.626 48.0389 49.626H48.0372Z" fill="white"/>
</g>
</g>
<defs>
<linearGradient id="paint0_linear_79_11029" x1="32.5781" y1="1.1271" x2="21.7134" y2="18.6926" gradientUnits="userSpaceOnUse">
<stop stop-color="#D62C2C"/>
<stop offset="1" stop-color="#AA007A"/>
</linearGradient>
<clipPath id="clip0_79_11029">
<rect width="63.165" height="50.2867" fill="white"/>
</clipPath>
</defs>
</svg>
