<svg width="42" height="46" viewBox="0 0 42 46" fill="none" xmlns="http://www.w3.org/2000/svg">
<path d="M34.8501 14.1884C34.8501 6.36407 28.4861 0 20.6618 0C12.8374 0 6.47327 6.36407 6.47327 14.1884C6.47327 22.0127 12.8374 28.3768 20.6618 28.3768C25.6538 28.3768 30.0549 25.7823 32.5815 21.8701C32.6087 21.8361 32.6223 21.8158 32.6291 21.809C34.035 19.6016 34.8501 16.9867 34.8501 14.1884ZM13.7338 2.45191C15.6627 1.30407 18.1894 1.9425 19.2422 3.92575C19.2693 3.98009 19.3032 4.04121 19.3304 4.09555C18.4542 3.10392 16.7699 2.47907 15.7036 2.40436C14.8071 2.33644 14.0124 2.46547 13.2924 2.73036C13.435 2.63527 13.5844 2.54698 13.7338 2.45868V2.45191ZM8.36145 8.30657C8.78934 7.42361 9.59757 6.79197 10.5552 6.56783C10.6775 6.54066 10.7998 6.51348 10.922 6.48631C11.8933 5.06679 13.4282 3.57257 15.5948 3.8035C18.0875 4.06839 19.3237 5.46753 19.8196 6.52028C19.4868 5.88184 16.2674 3.60652 13.3672 6.21464C14.3928 6.17388 15.0176 6.24181 15.3572 6.30973C15.7987 6.11956 16.3624 6.03126 17.0756 6.15351C18.9366 6.48632 19.5954 7.7768 19.8128 9.09444C18.9502 8.04169 17.5102 6.99572 15.8258 6.69008C15.819 6.69008 15.8054 6.69008 15.785 6.69008C15.7171 6.6765 15.6559 6.6697 15.588 6.66291C15.5269 6.65612 15.4591 6.64932 15.3844 6.63573C15.2825 6.62215 15.1805 6.61536 15.0786 6.61536C15.0107 6.61536 14.9429 6.60178 14.875 6.59498C14.1075 6.54065 12.9731 6.52029 11.8524 6.758C11.8117 6.7648 11.771 6.77837 11.7302 6.78516C11.7031 6.79195 11.6692 6.79874 11.642 6.80553C11.5605 6.82591 11.4789 6.8463 11.3974 6.86668C10.0798 7.22665 9.02707 7.84471 8.37505 8.29977C8.36826 8.30656 8.35464 8.31335 8.34785 8.32015C8.34785 8.32015 8.34785 8.31336 8.34785 8.30657H8.36145ZM19.2014 27.7587C15.6492 27.3784 12.4978 25.626 10.2904 23.0451C9.37351 21.972 8.85732 20.6 8.92524 19.1873C8.9524 18.5828 9.07462 17.9851 9.39384 17.5232C9.72665 17.041 10.2225 16.7829 10.9152 16.7286C12.4774 16.6063 14.0938 18.1821 15.9684 20.0023C17.0347 21.0415 18.1895 22.1621 19.4732 23.1062C19.3713 24.8653 19.2761 26.5362 19.2082 27.7587H19.2014ZM19.507 22.4474C18.3591 21.5712 17.32 20.5525 16.342 19.6084C14.3791 17.6998 12.6811 16.0494 10.8676 16.1852C10.0119 16.2531 9.36673 16.5995 8.94563 17.2108C8.4634 17.9172 8.34789 18.8681 8.38185 19.717C8.38185 19.7782 8.34101 19.8121 8.29346 19.8121C8.2595 19.8121 8.23242 19.7985 8.21205 19.7578C8.21205 19.7578 8.21204 19.7442 8.20525 19.7374C7.64831 18.5013 7.55318 17.0886 7.99466 15.8117C8.17125 15.3023 8.42932 14.7997 8.81646 14.4057C9.35302 13.8488 10.0731 13.5771 10.956 13.5907C12.2669 13.6179 13.8494 14.9491 15.6832 16.4977C16.8922 17.5165 18.2165 18.6371 19.67 19.5337C19.6157 20.4778 19.5613 21.4694 19.507 22.4474ZM19.704 18.9156C18.3796 18.0666 17.1571 17.0342 16.0364 16.0833C14.1279 14.4737 12.4774 13.0813 10.9696 13.0541C9.93045 13.0338 9.07467 13.3666 8.42944 14.0322C7.94042 14.5416 7.628 15.18 7.42424 15.8117C7.40386 15.8864 7.3358 15.9203 7.27467 15.9203C7.19996 15.9203 7.13205 15.8728 7.11847 15.7845C7.05055 15.2887 7.02345 14.7521 7.02345 14.2156C7.02345 14.2088 7.02345 14.202 7.02345 14.1884C7.02345 12.2935 7.96069 10.5072 9.51605 9.42044C10.7454 8.56465 12.2192 7.98735 13.7542 7.96697C11.3974 8.54429 10.2563 10.2491 9.82165 11.0913L11.2344 11.458C11.6759 10.7313 12.6472 9.55629 14.4878 9.26424C14.678 9.23028 14.8614 9.21669 15.038 9.19631C13.6456 9.89589 12.946 11.3086 12.7218 11.8452L14.1142 12.2051C14.3995 11.6142 15.1534 10.3577 16.4982 10.2287C17.5102 10.1268 18.2845 10.3509 18.8482 10.9079C19.6293 11.6754 19.9622 12.993 19.969 13.9846C19.969 14.2156 19.8602 16.3279 19.7108 18.9292L19.704 18.9156ZM19.9554 2.9613C19.9554 2.9613 19.935 2.92733 19.9282 2.90696C19.4052 1.96287 18.7056 1.29047 18.006 0.808244C18.6376 0.679197 19.2898 0.597683 19.9554 0.563723V2.9613ZM30.4081 6.49311C30.6051 6.53386 30.7953 6.57461 30.9719 6.62216C31.8209 6.8395 32.5273 7.4304 32.8669 8.23865V8.25222C32.2148 7.79716 31.1892 7.21986 29.9259 6.86668C29.8444 6.8463 29.7628 6.82591 29.6813 6.80553C29.6542 6.80553 29.6203 6.79195 29.5931 6.78516C29.5524 6.77837 29.5117 6.7648 29.4709 6.758C28.3502 6.52708 27.216 6.54065 26.4485 6.59498C26.3806 6.60178 26.3126 6.60857 26.2447 6.61536C26.1428 6.61536 26.041 6.62894 25.9391 6.63573C25.8644 6.64253 25.7965 6.64932 25.7353 6.66291C25.6674 6.6697 25.6063 6.68329 25.5383 6.69008C25.518 6.69008 25.5043 6.69008 25.4975 6.69008C23.8131 6.99572 22.3733 8.04169 21.5107 9.09444C21.7281 7.7768 22.3868 6.48632 24.2478 6.15351C24.9609 6.02446 25.5247 6.11956 25.9661 6.30973C26.3057 6.24181 26.9307 6.17388 27.9563 6.21464C25.0561 3.61332 21.8368 5.88184 21.504 6.52028C21.9998 5.46753 23.2359 4.06839 25.7285 3.8035C27.8952 3.57257 29.4369 5.06679 30.4013 6.48631L30.4081 6.49311ZM27.6099 2.44511C27.7661 2.5334 27.9155 2.62848 28.0649 2.73036C27.345 2.46547 26.5299 2.32964 25.6265 2.39756C24.5602 2.47906 22.8759 3.10392 21.9997 4.08875C22.0269 4.02762 22.054 3.97329 22.088 3.91895C23.1475 1.9357 25.6742 1.30406 27.6099 2.44511ZM21.3748 0.563723C22.0404 0.597683 22.6857 0.679197 23.3241 0.808244C22.6314 1.29047 21.9317 1.96287 21.402 2.90696C21.3952 2.92733 21.3816 2.94093 21.3748 2.9613V0.563723ZM21.3748 13.9711C21.3748 12.9794 21.7145 11.6618 22.4955 10.8943C23.0593 10.3374 23.8267 10.1132 24.8455 10.2151C26.1836 10.3509 26.9443 11.6007 27.2295 12.1916L28.6219 11.8316C28.3978 11.3018 27.6981 9.88229 26.3057 9.18272C26.4823 9.1963 26.6658 9.21668 26.8559 9.25064C28.6898 9.54949 29.6678 10.7177 30.1093 11.4444L31.5221 11.0777C31.0874 10.2355 29.9395 8.5239 27.5895 7.95337C28.8528 7.97375 30.0822 8.36768 31.1689 8.99254C32.9416 10.0113 33.8177 12.1101 33.2947 14.0797C33.2947 14.0933 33.2947 14.1001 33.2879 14.1137C33.2607 14.2291 33.2268 14.3378 33.1929 14.4533C32.242 17.598 30.1297 19.622 26.9103 20.4777C25.0154 20.9803 23.2562 20.6679 21.6194 19.948C21.4903 16.8848 21.3816 14.2291 21.3816 13.9643L21.3748 13.9711ZM21.633 20.5592C22.6993 21.0007 23.8267 21.2792 25.0153 21.2792C25.6742 21.2792 26.3465 21.1977 27.0393 21.0143C31.2911 19.8801 33.0095 16.912 33.7023 14.6231C33.8449 14.1476 33.9536 13.6926 34.0283 13.2511C34.0554 13.1356 34.0962 12.9862 34.1573 12.9794C34.1912 12.9794 34.2321 13.0541 34.2593 13.1424C34.3068 14.2088 34.1709 15.2751 33.8381 16.2939C32.9959 18.9156 31.0194 22.2572 27.2091 23.5477C24.7233 24.3899 22.5159 23.8737 21.7688 23.6428C21.728 22.6308 21.6805 21.5848 21.6398 20.5592H21.633ZM29.0633 24.9333C27.0597 26.5022 24.6078 27.521 21.9386 27.7723C21.8978 26.8758 21.8503 25.7347 21.796 24.4986C22.0608 24.6208 22.3325 24.7363 22.6178 24.8314C23.7113 25.2253 24.7232 25.3815 25.6537 25.3815C26.917 25.3815 28.0174 25.0895 28.9207 24.6956C29.0701 24.6344 29.1924 24.8314 29.0633 24.9333ZM29.8445 23.602C29.7902 23.636 29.729 23.6768 29.6679 23.7107C27.6914 24.8925 25.5723 25.1574 23.3513 24.5054C23.6502 24.5325 23.983 24.5529 24.3293 24.5529C25.2259 24.5529 26.2718 24.4307 27.3721 24.0571C29.7833 23.2421 31.6172 21.5509 32.8737 19.6016C32.9688 19.4522 33.1928 19.5744 33.1249 19.7306C33.1249 19.7442 33.1113 19.7578 33.1113 19.7646C32.4049 21.3267 31.2912 22.6783 29.8445 23.5952V23.602Z" fill="white"/>
<path d="M21.5849 38.2454C21.5238 38.3609 21.4491 38.456 21.3676 38.5375L21.2793 38.6258L21.1299 38.7752C21.0756 38.782 21.0416 38.8227 21.0348 38.8771C21.028 38.9314 21.0348 38.979 21.0756 39.0129C21.1163 39.0876 21.1774 39.108 21.2182 39.108C21.2589 39.108 21.2998 39.0944 21.3405 39.0673C21.5443 38.945 21.7344 38.7277 21.9042 38.422C21.9381 38.3813 21.9449 38.3473 21.9381 38.3202C21.9314 38.2726 21.8906 38.2319 21.8159 38.1911C21.782 38.1571 21.7479 38.1436 21.7072 38.1436C21.6528 38.1436 21.6121 38.1775 21.5782 38.2522L21.5849 38.2454ZM21.225 39.0469C21.225 39.0469 21.225 39.0469 21.2318 39.0469H21.225ZM21.714 38.1911C21.714 38.1911 21.7139 38.1911 21.7072 38.1911H21.714Z" fill="white"/>
<path d="M28.2477 38.2454C28.1865 38.3609 28.1118 38.456 28.0303 38.5375L27.9421 38.6258L27.7927 38.7752C27.7383 38.782 27.7043 38.8227 27.6975 38.8771C27.6907 38.9314 27.6975 38.979 27.7383 39.0129C27.779 39.0876 27.8401 39.108 27.8809 39.108C27.9216 39.108 27.9623 39.0944 28.0031 39.0673C28.2068 38.945 28.3971 38.7277 28.5669 38.422C28.6008 38.3813 28.6077 38.3473 28.6009 38.3202C28.5941 38.2726 28.5534 38.2319 28.4787 38.1911C28.4447 38.1571 28.4106 38.1436 28.3699 38.1436C28.3155 38.1436 28.2748 38.1775 28.2409 38.2522L28.2477 38.2454ZM27.8809 39.0469C27.8809 39.0469 27.8809 39.0469 27.8877 39.0469H27.8809ZM28.3767 38.1911C28.3767 38.1911 28.3767 38.1911 28.3699 38.1911H28.3767Z" fill="white"/>
<path d="M6.49315 31.5753C5.63057 31.976 4.81549 32.4378 4.06837 32.954C3.32126 33.4702 2.6489 34.034 2.07158 34.6181C1.48747 35.209 1.03242 35.8135 0.726786 36.4112C0.414356 37.0088 0.264986 37.6133 0.271778 38.1906C0.271778 38.7748 0.502698 39.3181 0.944175 39.7935C0.99851 39.8479 1.05966 39.8683 1.14117 39.8683C1.1955 39.8683 1.22259 39.8411 1.22938 39.8207C1.25655 39.7732 1.24293 39.712 1.18859 39.6102C1.18859 39.6102 1.18859 39.6102 1.18859 39.6034C0.808243 39.1415 0.618187 38.6321 0.631771 38.0888C0.645355 37.5386 0.808349 36.9681 1.12757 36.4044C1.44679 35.8338 1.90185 35.2633 2.47916 34.7064C3.06327 34.1494 3.72882 33.6196 4.45556 33.1442C5.1823 32.662 5.97694 32.2273 6.81235 31.8537C7.64776 31.4802 8.49673 31.1813 9.33214 30.9708C10.1676 30.767 10.9962 30.6584 11.7841 30.6516H11.8453C12.572 30.6516 13.2444 30.7603 13.8421 30.9776C13.584 31.2017 13.3124 31.4802 13.0271 31.8062C12.7215 32.1526 12.3682 32.5737 11.9743 33.0423C11.6755 33.4227 11.3834 33.7962 11.1185 34.1562C10.8536 34.5162 10.5752 34.8965 10.3035 35.2837C10.0318 35.6776 9.73976 36.0919 9.44092 36.513C9.14207 36.9409 8.80249 37.396 8.44252 37.8782C8.17763 38.245 7.90582 38.6118 7.62735 38.9785C7.36926 39.3249 7.10445 39.6645 6.85994 40.0041C6.49997 39.8547 6.13995 39.6645 5.80036 39.4471C5.44717 39.223 5.09397 38.931 4.76117 38.5846C4.70683 38.5302 4.65931 38.5099 4.61856 38.5099C4.59139 38.5099 4.53712 38.5234 4.50995 38.5914C4.48278 38.6593 4.46909 38.7544 4.57097 38.8562C4.91057 39.2094 5.26377 39.5015 5.61016 39.7256C5.93618 39.9362 6.28258 40.1128 6.64255 40.2554C6.02448 41.0365 5.41325 41.77 4.82235 42.422C4.22466 43.0876 3.64733 43.6582 3.10397 44.1064C2.56061 44.5547 2.04442 44.8671 1.56898 45.0505C1.33126 45.1388 1.10713 45.1864 0.889786 45.1864C0.672443 45.1864 0.468744 45.1388 0.271778 45.0505C0.264986 45.0505 0.258174 45.0505 0.251382 45.0505C0.088375 45.0505 0.0543754 45.1388 0.0407915 45.1932C0.0204157 45.2135 0.00679195 45.2339 0 45.2611C0 45.2815 1.98988e-05 45.3086 0.0203958 45.3358C0.0407716 45.3629 0.0680124 45.3901 0.0951802 45.4173C0.0951802 45.4173 0.101985 45.4241 0.108777 45.4241C0.346496 45.5463 0.597705 45.6075 0.862592 45.6075C1.09352 45.6075 1.34488 45.5599 1.60297 45.4648C2.13954 45.2679 2.71687 44.9215 3.31456 44.4325C3.90546 43.9502 4.53031 43.3457 5.16875 42.6394C5.79361 41.9466 6.41846 41.1927 7.02294 40.4048C7.53913 40.561 8.06894 40.6357 8.59192 40.6357C9.01982 40.6357 9.45443 40.5814 9.88233 40.4795C10.8536 40.2486 11.7637 39.8547 12.5991 39.3045C13.4277 38.7544 14.1612 38.0888 14.7793 37.3213C15.3974 36.5538 15.8253 35.7591 16.0563 34.9577C16.2872 34.1494 16.2872 33.3751 16.0427 32.6416C15.8118 31.9285 15.2751 31.3308 14.4397 30.8757L14.6843 30.6923C14.8065 30.604 14.8609 30.5361 14.8677 30.4682C14.8677 30.4342 14.8609 30.4071 14.8337 30.3867C14.8065 30.3595 14.7658 30.3459 14.7251 30.3459C14.6707 30.3459 14.6164 30.3663 14.5417 30.4138L14.1273 30.7127C13.4006 30.441 12.6059 30.3052 11.7637 30.3052C10.9215 30.3052 10.0317 30.4207 9.14194 30.638C8.2522 30.8621 7.36253 31.1745 6.49995 31.5753H6.49315ZM4.59817 38.5642C4.59817 38.5642 4.59816 38.5642 4.59137 38.5642H4.59817ZM0.848994 45.5531C0.848994 45.5531 0.835391 45.5531 0.828599 45.5531H0.842196C0.842196 45.5531 0.90341 45.5531 0.930577 45.5531C0.90341 45.5531 0.876162 45.5531 0.848994 45.5531ZM14.7183 30.4003C14.7183 30.4003 14.7317 30.4003 14.7385 30.4003C14.7249 30.4003 14.7183 30.4003 14.7047 30.4003C14.7047 30.4003 14.7115 30.4003 14.7183 30.4003ZM8.57153 40.5882C8.57153 40.5882 8.53752 40.5882 8.52394 40.5882C8.54431 40.5882 8.55795 40.5882 8.57833 40.5882H8.57153ZM14.1409 31.1134C14.9423 31.5345 15.4585 32.0847 15.6827 32.7435C15.9068 33.4159 15.9136 34.1358 15.7031 34.8694C15.4925 35.6097 15.085 36.3568 14.5077 37.0768C13.9236 37.8035 13.2308 38.4352 12.4497 38.9581C11.6686 39.4811 10.806 39.8615 9.89593 40.0924C9.46124 40.2011 9.01982 40.2554 8.59192 40.2554C8.16403 40.2554 7.70885 40.2011 7.28096 40.0856L8.84314 38.0684C9.2167 37.5522 9.54948 37.0768 9.83474 36.6625C10.12 36.2481 10.3986 35.8474 10.6567 35.4671C10.908 35.0935 11.166 34.7335 11.4241 34.3871C11.6822 34.0408 11.9607 33.6808 12.2595 33.3208C12.5719 32.9337 12.8979 32.5329 13.2239 32.1322C13.5363 31.7519 13.8489 31.4055 14.1545 31.1134H14.1409Z" fill="white"/>
<path d="M39.2235 42.0217C39.4612 41.947 39.7125 41.8655 39.957 41.7636C40.2016 41.6617 40.4393 41.5463 40.6702 41.4172C40.9012 41.2882 41.098 41.1388 41.261 40.9757C41.3154 40.9214 41.3358 40.901 41.3426 40.8807C41.363 40.8399 41.3426 40.7924 41.3086 40.7516C41.2679 40.6701 41.2068 40.6565 41.166 40.6565C41.1253 40.6565 41.0846 40.6701 41.0438 40.6973C41.0438 40.6973 41.037 40.6973 41.0302 40.7041C40.8876 40.8467 40.7178 40.9758 40.514 41.098C40.3103 41.2203 40.093 41.3289 39.862 41.4308C39.6379 41.5259 39.4068 41.6074 39.1895 41.6753C38.9721 41.7365 38.7821 41.7772 38.6326 41.7908C38.4425 41.818 38.2659 41.8315 38.1029 41.8315C37.8787 41.8315 37.6749 41.8044 37.5051 41.7568C37.2062 41.6685 36.9618 41.5259 36.7853 41.3425C36.6019 41.1523 36.466 40.9282 36.3845 40.6633C36.303 40.4052 36.2623 40.1268 36.2623 39.8483C36.2623 39.6581 36.2011 39.5291 36.0925 39.4612C36.0245 39.4204 35.943 39.4 35.8479 39.4C35.7868 39.4 35.7188 39.4068 35.6441 39.4272C35.4675 39.4679 35.2502 39.5427 35.0125 39.6581C34.8155 39.7532 34.605 39.8687 34.3877 40.0045C34.4013 39.9434 34.4149 39.889 34.4217 39.8347C34.4353 39.7328 34.4216 39.6038 34.3809 39.4544C34.3401 39.3321 34.2722 39.3049 34.2247 39.3049C34.2247 39.3049 34.2111 39.3049 34.2043 39.3049C34.1567 39.3049 34.082 39.3389 34.0413 39.4476C34.0413 39.4476 34.0413 39.4612 34.0413 39.468V39.4883L33.9393 39.5902C33.9393 39.5902 33.8987 39.631 33.8783 39.6378C33.8783 39.6378 33.8715 39.6377 33.8647 39.6445C33.8307 39.6785 33.8239 39.6853 33.8171 39.6853C33.8035 39.6921 33.7831 39.7057 33.7627 39.7328C33.7627 39.7328 33.7493 39.7328 33.7425 39.7328C33.7289 39.7328 33.7221 39.7328 33.7085 39.7464C33.6066 39.8211 33.4436 39.9162 33.2263 40.0181C33.0089 40.12 32.7712 40.2151 32.5335 40.3034C32.2958 40.3849 32.058 40.4596 31.8339 40.5207C31.6777 40.5615 31.5486 40.5818 31.4399 40.5818C31.4807 40.5411 31.5282 40.4867 31.5825 40.4188C31.6912 40.2898 31.7864 40.1404 31.8747 39.9774C31.963 39.8143 32.024 39.6513 32.0579 39.4951C32.0919 39.3253 32.0648 39.1759 31.9765 39.0604C31.929 39.0129 31.8883 38.9857 31.8543 38.9789C31.8203 38.9721 31.7863 38.9653 31.7455 38.9653C31.7387 38.9653 31.7185 38.9653 31.7049 38.9653C31.5623 38.9653 31.4059 39.0265 31.2429 39.1555C31.1478 39.2302 31.0596 39.3117 30.9849 39.4C30.9849 39.3864 30.9849 39.3729 30.9713 39.3661C30.9713 39.3321 30.9442 39.2642 30.8287 39.2642C30.7608 39.2642 30.7133 39.271 30.6793 39.2846C30.5299 39.3389 30.3669 39.434 30.1767 39.563C30.0001 39.6853 29.8506 39.8279 29.7215 39.9841C29.4566 40.1132 29.1918 40.2422 28.9337 40.3645C28.6213 40.5071 28.336 40.6158 28.0779 40.6973C28.0032 40.7245 27.8946 40.7516 27.7655 40.7856C27.6433 40.8195 27.5278 40.8331 27.4259 40.8331C27.3376 40.8331 27.2833 40.8128 27.2493 40.7788C27.2493 40.7788 27.2153 40.7245 27.3511 40.5071C27.4123 40.4052 27.4802 40.3033 27.5481 40.2151C27.6093 40.1268 27.7111 40.0317 27.8537 39.9298C27.8945 39.9094 27.9828 39.8279 27.8945 39.6853C27.847 39.597 27.7791 39.5834 27.7383 39.5834C27.7044 39.5834 27.6771 39.5902 27.6431 39.6106C27.5005 39.6921 27.3851 39.7532 27.3035 39.8076C27.222 39.8619 27.1542 39.9094 27.0863 39.957C27.0524 39.9841 27.0115 40.0113 26.9707 40.0385C26.9096 40.0724 26.8418 40.1064 26.7671 40.1404C26.5226 40.2558 26.2374 40.3713 25.9317 40.48C25.6193 40.5886 25.2932 40.6905 24.9672 40.7856C24.6344 40.8739 24.3288 40.9418 24.0503 40.969C23.9281 40.9826 23.8058 40.9893 23.7039 40.9893C23.5817 40.9893 23.4662 40.9758 23.3711 40.9554C23.1606 40.9078 23.1402 40.7924 23.1402 40.7109C23.1402 40.6158 23.1674 40.5139 23.2149 40.412C23.2489 40.3441 23.2896 40.2694 23.3304 40.1947C23.3983 40.1471 23.4322 40.086 23.4322 40.0249V40.0045L23.7786 39.8143C24.0842 39.6174 24.4442 39.3661 24.8517 39.0672C25.2593 38.7684 25.6668 38.4627 26.0675 38.1435C26.4547 37.8379 26.8282 37.539 27.1745 37.2606C27.5209 36.9753 27.7723 36.7715 27.9421 36.6289C28.2817 36.3233 28.5534 36.0584 28.7503 35.841C28.9541 35.6101 29.0695 35.4199 29.0967 35.2637C29.0967 35.2637 29.0967 35.2637 29.0967 35.2569C29.0967 35.1754 29.0627 35.0464 28.8453 35.0464H28.7299H28.7163C28.3631 35.1686 27.9217 35.3996 27.4191 35.7528C26.9165 36.0991 26.4003 36.4999 25.8909 36.9345C25.3815 37.376 24.8856 37.8379 24.4238 38.3133C23.9619 38.7888 23.5884 39.2166 23.31 39.5834L23.2013 39.7668L23.0586 39.8415C22.9974 39.8687 22.9568 39.9026 22.95 39.9502C22.95 39.9706 22.95 39.9909 22.95 40.0113C22.6987 40.1336 22.4407 40.2558 22.1894 40.3713C21.8769 40.5139 21.5917 40.6226 21.3336 40.7041C21.2588 40.7312 21.15 40.7584 21.021 40.7924C20.8919 40.8263 20.7833 40.8399 20.6814 40.8399C20.5931 40.8399 20.5388 40.8195 20.5116 40.7856C20.5116 40.7856 20.4777 40.7312 20.6136 40.5139C20.6747 40.412 20.7426 40.3101 20.8106 40.2219C20.8717 40.1336 20.9735 40.0385 21.1162 39.9366C21.1569 39.9162 21.2453 39.8347 21.157 39.6921C21.1094 39.6038 21.0415 39.5902 21.0008 39.5902C20.9668 39.5902 20.9395 39.597 20.9056 39.6174C20.7629 39.6989 20.6475 39.76 20.566 39.8143C20.4845 39.8687 20.4165 39.9162 20.3486 39.9638C20.2807 40.0113 20.2061 40.0588 20.1246 40.1064C20.0431 40.1607 19.9208 40.2151 19.7714 40.2762C19.751 40.2898 19.7374 40.3034 19.7238 40.317C19.5404 40.3917 19.3706 40.446 19.2144 40.4732C19.0582 40.5071 18.9088 40.5207 18.773 40.5207C18.5828 40.5207 18.4062 40.4867 18.2568 40.4256C18.2975 40.3916 18.3382 40.3577 18.3858 40.317C18.4673 40.249 18.5421 40.1811 18.61 40.1064C18.6779 40.0317 18.7322 39.9638 18.7798 39.8958C18.8273 39.8279 18.8544 39.7872 18.868 39.76C18.9223 39.6853 18.9564 39.6038 18.9768 39.5155C18.9904 39.4204 18.9836 39.3389 18.9632 39.2642C18.9428 39.1895 18.9019 39.1283 18.8544 39.074C18.8069 39.0265 18.7525 39.0061 18.6778 39.0061C18.6574 39.0061 18.6372 39.0061 18.6168 39.0061C18.4877 39.0197 18.3586 39.0876 18.2364 39.2031C18.1141 39.3185 18.0123 39.4544 17.924 39.6106C17.8357 39.7668 17.7745 39.923 17.7338 40.0724C17.6998 40.2083 17.6998 40.3237 17.7338 40.412C17.5844 40.5071 17.4621 40.5818 17.367 40.643C17.2651 40.7041 17.1835 40.7516 17.1224 40.7788C17.0613 40.806 17.0138 40.8196 16.9798 40.8263C16.9662 40.8263 16.9594 40.8263 16.9526 40.8263C16.9526 40.8263 16.9526 40.8263 16.9458 40.8263C16.9458 40.8128 16.9458 40.7788 16.973 40.7041C17.007 40.5954 17.0478 40.4732 17.0886 40.3441C17.1293 40.2083 17.1837 40.0656 17.2448 39.9026C17.3059 39.7464 17.3534 39.6174 17.3942 39.5087C17.3942 39.4951 17.3942 39.4815 17.3942 39.468C17.367 39.3932 17.3059 39.3525 17.2244 39.3525C17.2108 39.3525 17.1972 39.3525 17.1768 39.3525C17.0817 39.3661 17.0206 39.4 16.9866 39.4476C16.8847 39.563 16.7285 39.6785 16.5112 39.794C16.2871 39.9162 16.0968 40.0317 15.9406 40.1404C15.9067 40.1607 15.8728 40.1879 15.8524 40.2422C15.7709 40.2898 15.6893 40.3305 15.6078 40.3713C15.3905 40.4867 15.1732 40.5886 14.9626 40.6701C14.8268 40.7245 14.7181 40.7516 14.6366 40.7516C14.6027 40.7516 14.5756 40.7516 14.5552 40.738C14.4941 40.7109 14.4873 40.6226 14.5348 40.48C14.5891 40.3169 14.6978 40.1743 14.8608 40.0656C14.9491 39.9977 14.9626 39.9026 14.9082 39.8008C14.8743 39.7396 14.82 39.726 14.7792 39.726C14.7181 39.726 14.6503 39.76 14.562 39.8279C14.5009 39.8755 14.4261 39.923 14.3514 39.9841C14.3514 39.9638 14.3446 39.9434 14.331 39.923C14.2835 39.8347 14.2019 39.76 14.066 39.6853C13.937 39.6174 13.7808 39.5834 13.6178 39.5834C13.3733 39.5834 13.1288 39.6581 12.8842 39.794C12.6465 39.9366 12.4428 40.0928 12.2798 40.2762C12.1168 40.4596 12.015 40.6497 11.9742 40.8535C11.9335 41.0641 12.0014 41.2271 12.178 41.3357C12.2256 41.3697 12.2933 41.3833 12.368 41.3833C12.4292 41.3833 12.5039 41.3697 12.5922 41.3493C12.762 41.3018 12.9591 41.2339 13.1696 41.1388C13.3802 41.0437 13.5907 40.935 13.7876 40.8127C13.9235 40.7245 14.0458 40.643 14.1612 40.5682C14.1476 40.6498 14.1476 40.7312 14.168 40.8127C14.202 40.9622 14.3038 41.064 14.4736 41.1048C14.528 41.1184 14.5823 41.1252 14.6434 41.1252C14.7657 41.1252 14.9084 41.098 15.0646 41.0437C15.2955 40.9622 15.5263 40.8671 15.7572 40.7448C15.9882 40.6226 16.2056 40.5003 16.4026 40.3781C16.5248 40.2966 16.6267 40.2354 16.7082 40.1879C16.7082 40.2015 16.7014 40.2151 16.6946 40.2287C16.6539 40.3645 16.62 40.4935 16.5928 40.6294C16.5656 40.7652 16.552 40.8875 16.5656 40.9961C16.5724 41.1592 16.6539 41.2067 16.715 41.2203C16.7354 41.2203 16.7557 41.2271 16.7896 41.2271C16.844 41.2271 16.9051 41.2203 16.9866 41.1999C17.1021 41.1727 17.2175 41.132 17.3398 41.0776C17.4621 41.0233 17.5775 40.9622 17.6998 40.8875C17.8085 40.8196 17.9171 40.7448 18.0054 40.6701C18.1888 40.8128 18.4402 40.8875 18.7594 40.8875C18.8816 40.8875 19.0107 40.8807 19.1466 40.8603C19.4658 40.8128 19.8257 40.6905 20.2264 40.48C20.206 40.5275 20.1857 40.575 20.1654 40.6226C20.1042 40.7856 20.1245 40.9282 20.2128 41.0437C20.2875 41.1523 20.4302 41.2135 20.6204 41.2135C20.6815 41.2135 20.7563 41.2135 20.831 41.1931C21.123 41.1456 21.4354 41.0641 21.7614 40.9486C22.0874 40.8331 22.4067 40.6973 22.6987 40.5411C22.7395 40.5207 22.787 40.5003 22.821 40.4732C22.8006 40.5479 22.787 40.6294 22.787 40.6973C22.787 40.8535 22.8413 40.9826 22.95 41.0776C23.0518 41.1659 23.1741 41.2271 23.2964 41.2542C23.439 41.3018 23.6156 41.3221 23.8126 41.3221C23.962 41.3221 24.125 41.3086 24.3016 41.2814C24.7159 41.2203 25.137 41.1252 25.5649 40.9961C25.9928 40.8671 26.3868 40.7177 26.7467 40.5547C26.8282 40.5207 26.9028 40.4799 26.9707 40.446C26.9436 40.5003 26.9233 40.5546 26.8961 40.6158C26.835 40.7788 26.8554 40.9214 26.9437 41.0369C27.0184 41.1456 27.161 41.2067 27.3511 41.2067C27.4123 41.2067 27.487 41.2067 27.5617 41.1863C27.8538 41.1388 28.1661 41.0573 28.4921 40.9418C28.8182 40.8263 29.1375 40.6905 29.4295 40.5343C29.4499 40.5207 29.4703 40.5139 29.4907 40.5071C29.4907 40.5207 29.4907 40.5275 29.4839 40.5411C29.4567 40.738 29.5245 40.9078 29.7011 41.0505C29.8166 41.1456 29.9932 41.2067 30.2445 41.2203C30.2581 41.2203 30.2717 41.2203 30.2853 41.2203C30.5162 41.2203 30.8015 41.1184 31.1207 40.9078C31.2022 40.9214 31.2972 40.935 31.3923 40.935C31.5146 40.935 31.6505 40.9214 31.7999 40.8942C32.0716 40.8467 32.3432 40.7788 32.6149 40.6837C32.8594 40.6022 33.0904 40.5071 33.3077 40.4052H33.3213C33.3485 40.4052 33.3825 40.3984 33.4097 40.3849C33.4912 40.3441 33.5794 40.2898 33.6881 40.2219L34.0005 40.0249C34.0005 40.0249 34.0005 40.0249 34.0073 40.0181C34.0209 40.0045 34.0345 39.9977 34.0345 39.9909C34.0345 39.9909 34.0345 39.9909 34.0413 39.9909C34.0209 40.0588 33.9869 40.1268 33.9529 40.2015C33.8986 40.3034 33.8035 40.4188 33.6609 40.5275C33.6609 40.5275 33.6541 40.5343 33.6473 40.5411C33.6133 40.6022 33.5726 40.6497 33.5387 40.6905L33.4775 40.7516L33.4163 40.8127C33.2873 40.9418 33.3349 41.0505 33.3757 41.098C33.4164 41.1524 33.4639 41.1591 33.4979 41.1591C33.5454 41.1591 33.593 41.1388 33.6405 41.0912C33.688 41.0844 33.7424 41.0437 33.7967 40.9757C33.8442 40.9146 33.9054 40.8399 33.9665 40.7652C34.0684 40.6905 34.2043 40.5886 34.3741 40.4732C34.5439 40.3577 34.7205 40.249 34.8971 40.1539C35.0737 40.0588 35.2639 39.9773 35.4473 39.9094C35.5967 39.8551 35.7392 39.8279 35.8547 39.8279C35.8615 39.8279 35.8683 39.8279 35.8751 39.8279C35.8751 40.0317 35.9158 40.2762 35.9837 40.5547C36.0584 40.8603 36.1943 41.1524 36.3981 41.4172C36.6018 41.6821 36.8803 41.8995 37.2403 42.0625C37.4848 42.1711 37.7768 42.2255 38.1097 42.2255C38.2727 42.2255 38.4561 42.2119 38.6462 42.1847C38.816 42.1576 39.0265 42.11 39.2711 42.0353L39.2235 42.0217ZM41.166 40.7109C41.166 40.7109 41.166 40.7109 41.1592 40.7109H41.166ZM27.7111 39.5834C27.7111 39.5834 27.7587 39.5902 27.7791 39.6106C27.7587 39.5902 27.7315 39.5834 27.7043 39.5902C27.7043 39.5902 27.7111 39.5902 27.7179 39.5902L27.7111 39.5834ZM24.6955 38.4424C25.0487 38.0824 25.4426 37.702 25.8705 37.3285C26.2984 36.9549 26.7535 36.5882 27.2221 36.2418C27.6704 35.909 28.1186 35.6441 28.5533 35.4403L28.4651 35.5286C28.3564 35.6509 28.241 35.7731 28.1187 35.8886C27.9965 36.0108 27.8333 36.1535 27.6431 36.3097C27.5005 36.4251 27.2764 36.6085 26.9775 36.8598C26.6787 37.1043 26.3459 37.3692 25.9859 37.6409C25.626 37.9126 25.2661 38.1843 24.9129 38.4559C24.6209 38.6801 24.3695 38.8635 24.159 39.0061C24.3152 38.8363 24.4918 38.6529 24.6887 38.4424H24.6955ZM20.96 39.5834C20.96 39.5834 21.0074 39.5902 21.0346 39.6106C21.0074 39.5902 20.9803 39.5834 20.9532 39.5834C20.9532 39.5834 20.96 39.5834 20.9668 39.5834H20.96ZM17.1564 39.3661C17.1564 39.3661 17.1564 39.3661 17.1632 39.3661C17.1496 39.3661 17.136 39.3661 17.1156 39.3661C17.1292 39.3661 17.1428 39.3661 17.1496 39.3661H17.1564ZM14.7114 39.7532C14.7114 39.7532 14.7114 39.7532 14.7182 39.7532C14.7182 39.7532 14.7114 39.7532 14.7046 39.7532H14.7114ZM12.3002 41.295C12.3002 41.295 12.3342 41.295 12.3546 41.295C12.3342 41.295 12.3206 41.295 12.3002 41.295ZM13.9778 40.1675C13.7741 40.3102 13.5636 40.446 13.353 40.5682C13.1425 40.6905 12.9318 40.7924 12.7416 40.8807C12.599 40.9418 12.4767 40.9757 12.3816 40.9757C12.3545 40.9757 12.3342 40.9757 12.3138 40.9757C12.2867 40.9554 12.2527 40.9146 12.3138 40.7856C12.3682 40.6701 12.4632 40.5411 12.599 40.4052C12.7349 40.2694 12.891 40.1539 13.0676 40.0521C13.2442 39.9502 13.4072 39.9026 13.5498 39.9026C13.7264 39.9026 13.8081 39.9366 13.842 39.957C13.9031 40.0045 13.9643 40.0453 14.0322 40.086C14.0458 40.0928 14.0593 40.0996 14.0728 40.1064C14.0389 40.1268 14.0118 40.1539 13.9778 40.1743V40.1675ZM14.1136 40.0521C14.1136 40.0521 14.1068 40.0521 14.1 40.0521H14.1136ZM14.5686 41.0369C14.5686 41.0369 14.5484 41.0369 14.5416 41.0369C14.5552 41.0369 14.5686 41.0369 14.5754 41.0369C14.6026 41.0369 14.6298 41.0369 14.657 41.0369C14.6231 41.0369 14.5958 41.0369 14.5686 41.0369ZM16.7082 41.1455C16.7082 41.1455 16.7218 41.1455 16.7286 41.1455C16.7286 41.1455 16.7218 41.1455 16.715 41.1455H16.7082ZM18.6236 39.0129C18.6236 39.0129 18.5896 39.0129 18.5692 39.0129C18.5896 39.0129 18.6032 39.0129 18.6168 39.0129H18.6236ZM18.2432 39.6038C18.3654 39.4272 18.4741 39.3389 18.5692 39.3389C18.5896 39.3389 18.5964 39.3389 18.5964 39.3389C18.5964 39.3525 18.5895 39.3932 18.5012 39.4951C18.3925 39.6309 18.2364 39.8008 18.0326 40.0113C18.0801 39.8619 18.1481 39.726 18.2364 39.597L18.2432 39.6038ZM18.6778 40.7992C18.637 40.7992 18.5895 40.7992 18.5488 40.7992C18.5963 40.7992 18.6371 40.7992 18.6846 40.7992C18.6846 40.7992 18.6778 40.7992 18.671 40.7992H18.6778ZM20.5456 41.1252C20.5456 41.1252 20.5456 41.1252 20.5388 41.1252C20.5388 41.1252 20.5456 41.1252 20.5524 41.1252H20.5456ZM23.7514 41.2406C23.7514 41.2406 23.7311 41.2406 23.7175 41.2406H23.765C23.765 41.2406 23.7514 41.2406 23.7446 41.2406H23.7514ZM27.2969 41.1252C27.2969 41.1252 27.2969 41.1252 27.2901 41.1252C27.2901 41.1252 27.2968 41.1252 27.3035 41.1252H27.2969ZM30.1699 40.806C29.9118 40.806 29.8777 40.6973 29.8641 40.6633C29.8166 40.5275 29.8643 40.3713 30.0069 40.1879C30.1631 40.086 30.3193 39.9706 30.4823 39.8483C30.5842 39.7736 30.6724 39.6989 30.7471 39.6378C30.6452 39.8143 30.5909 39.9977 30.5705 40.1811C30.5501 40.3713 30.6045 40.5275 30.7199 40.6633C30.5162 40.7584 30.3329 40.7992 30.1631 40.7992L30.1699 40.806ZM30.2309 41.1388C30.2309 41.1388 30.2105 41.1388 30.1969 41.1388C30.1969 41.1388 30.2105 41.1388 30.2173 41.1388C30.2309 41.1388 30.2445 41.1388 30.2581 41.1388C30.2513 41.1388 30.2377 41.1388 30.2309 41.1388ZM31.6845 38.9721C31.6845 38.9721 31.7115 38.9721 31.7251 38.9721C31.7115 38.9721 31.6981 38.9721 31.6845 38.9721ZM31.0121 40.4392C30.951 40.3849 30.9305 40.3034 30.9509 40.1947C30.9781 40.052 31.0324 39.9094 31.1139 39.7736C31.1954 39.6377 31.2972 39.5087 31.4059 39.4C31.501 39.3117 31.5826 39.2642 31.6573 39.2642C31.6573 39.2642 31.6709 39.2642 31.6777 39.2642C31.6913 39.271 31.6981 39.3185 31.6845 39.3797C31.6641 39.4747 31.6232 39.597 31.5553 39.726C31.4874 39.8619 31.3992 39.9977 31.2973 40.1336C31.2022 40.2558 31.114 40.3577 31.0189 40.4392H31.0121ZM31.3381 40.8467C31.3381 40.8467 31.2837 40.8467 31.2633 40.8467C31.2905 40.8467 31.3245 40.8467 31.3517 40.8467C31.3517 40.8467 31.3449 40.8467 31.3381 40.8467ZM34.1975 39.3389C34.1975 39.3389 34.2043 39.3389 34.2111 39.3389C34.2111 39.3389 34.2179 39.3389 34.2247 39.3389C34.2179 39.3389 34.2111 39.3389 34.1975 39.3389ZM35.7869 39.4476C35.7869 39.4476 35.8207 39.4476 35.8343 39.4476C35.8479 39.4476 35.8547 39.4476 35.8683 39.4476C35.8411 39.4476 35.8207 39.4476 35.7935 39.4476H35.7869ZM38.0621 42.1576C38.0621 42.1576 38.0485 42.1576 38.0417 42.1576C38.062 42.1576 38.0825 42.1576 38.1097 42.1576C38.0961 42.1576 38.0824 42.1576 38.0689 42.1576H38.0621Z" fill="white"/>
<path d="M19.9891 34.8358C19.962 34.7679 19.9551 34.6456 19.9551 34.469V33.3823H20.512V33.0495H19.9551V32.5537L19.1536 33.3756H19.4865V34.4758C19.4865 34.8222 19.5 35.0396 19.5272 35.1279C19.5951 35.3316 19.7649 35.4403 20.0366 35.4403C20.1724 35.4403 20.3219 35.4131 20.4849 35.3656L20.6615 34.9105C20.5325 34.9784 20.4034 35.0124 20.2675 35.0124C20.1249 35.0124 20.0299 34.9513 19.9823 34.829L19.9891 34.8358Z" fill="white"/>
<path d="M22.529 34.3193C22.529 34.1902 22.529 34.0952 22.529 34.0272C22.529 33.7148 22.5018 33.4907 22.4542 33.3616C22.3727 33.1239 22.2029 33.0084 21.9516 33.0084C21.8565 33.0084 21.7343 33.0424 21.5848 33.1103L21.218 33.5518V32.7436C21.218 32.5398 21.2453 32.3089 21.3064 32.0508L20.6544 32.1866C20.7155 32.3972 20.7426 32.6077 20.7426 32.8319V34.6113C20.7426 34.9577 20.7155 35.2226 20.6544 35.3992H21.3064C21.2453 35.2158 21.218 34.9374 21.218 34.5638V33.674C21.4082 33.5246 21.578 33.4567 21.7138 33.4567C21.8701 33.4567 21.9721 33.5111 22.0196 33.6265C22.0468 33.6944 22.0602 33.8167 22.0602 34.0069V34.7676C22.0602 34.9849 22.0264 35.1955 21.972 35.406H22.624C22.5561 35.2023 22.5222 34.9442 22.5222 34.6249C22.5222 34.5638 22.5222 34.4619 22.5222 34.3261L22.529 34.3193Z" fill="white"/>
<path d="M24.4988 34.0474C24.4988 33.7554 24.4445 33.5177 24.3154 33.3275C24.166 33.1101 23.9555 33.0015 23.677 33.0015C23.3646 33.0015 23.1132 33.1305 22.9366 33.3954C22.7804 33.6263 22.7058 33.9048 22.7058 34.2376C22.7058 34.5976 22.8009 34.8828 22.9978 35.1002C23.2016 35.3311 23.4732 35.4398 23.8264 35.4398C23.9419 35.4398 24.0912 35.4194 24.2746 35.3719L24.4512 34.9372C24.2543 35.0255 24.0776 35.0662 23.9146 35.0662C23.5003 35.0662 23.2559 34.8013 23.188 34.2784H24.4988V34.0406V34.0474ZM24.1048 33.9523H23.188C23.188 33.7893 23.2219 33.6467 23.2898 33.5312C23.3713 33.3954 23.4936 33.3275 23.6498 33.3275C23.7925 33.3275 23.9079 33.3886 23.9894 33.5041C24.0709 33.6059 24.1048 33.735 24.1048 33.8776V33.9456V33.9523Z" fill="white"/>
</svg>
