<svg width="150" height="25" viewBox="0 0 150 25" fill="none" xmlns="http://www.w3.org/2000/svg">
<g clip-path="url(#clip0_585_4)">
<path d="M38.9048 18.8722V5.03145H42.822L45.6042 11.6902C45.7605 12.0381 46.2556 12.041 46.4148 11.696L49.281 5.03432H53.065V18.8751H50.2017V9.44762L47.4571 15.3819C47.3847 15.54 47.2255 15.6377 47.0518 15.6377H44.9296C44.7559 15.6377 44.5996 15.5371 44.5243 15.3819L41.7623 9.41025V18.8751H38.899L38.9048 18.8722Z" fill="#F0004D"/>
<path d="M58.641 8.77197C59.2808 8.77197 59.8077 8.87548 60.2217 9.07961C60.6357 9.28374 60.9542 9.508 61.1742 9.74376C61.3943 9.97952 61.5274 10.1434 61.5795 10.2297H61.7301V8.95885H62.5668C63.6872 8.95885 64.5934 9.85876 64.5934 10.9714V18.8722H62.9345C62.2686 18.8722 61.7301 18.3375 61.7301 17.6762V17.5986H61.5795C61.5303 17.6848 61.3943 17.8487 61.1742 18.0845C60.9542 18.3202 60.6386 18.5416 60.2217 18.7486C59.8077 18.9556 59.2808 19.0563 58.641 19.0563C57.8998 19.0563 57.2571 18.9096 56.7099 18.6164C56.1627 18.3231 55.7082 17.9321 55.3434 17.4376C54.9786 16.9459 54.7065 16.3939 54.5241 15.7815C54.3417 15.172 54.252 14.5481 54.252 13.9127C54.252 13.2773 54.3417 12.6534 54.5241 12.0439C54.7065 11.4343 54.9786 10.8823 55.3434 10.3878C55.7082 9.89614 56.1627 9.50225 56.7099 9.20899C57.2571 8.91573 57.8998 8.7691 58.641 8.7691V8.77197ZM59.469 11.0749C58.9537 11.0749 58.5252 11.2158 58.1778 11.4947C57.8332 11.7765 57.5756 12.133 57.4048 12.57C57.2339 13.007 57.15 13.4555 57.15 13.9155C57.15 14.3756 57.2339 14.827 57.4048 15.2611C57.5756 15.6981 57.8303 16.0546 58.1778 16.3364C58.5223 16.6182 58.9537 16.7562 59.469 16.7562C59.9843 16.7562 60.4128 16.6153 60.7602 16.3364C61.1047 16.0546 61.3624 15.6981 61.5332 15.2611C61.704 14.8241 61.788 14.3756 61.788 13.9155C61.788 13.4555 61.704 13.0041 61.5332 12.57C61.3624 12.133 61.1047 11.7765 60.7602 11.4947C60.4157 11.2129 59.9843 11.0749 59.469 11.0749Z" fill="#F0004D"/>
<path d="M82.9168 19.0591C81.7616 19.0591 80.7541 18.8579 79.8942 18.4525C79.0344 18.0471 78.3164 17.5066 77.7374 16.8252C77.1583 16.1466 76.727 15.3819 76.4374 14.5337C76.1479 13.6855 76.0032 12.8201 76.0032 11.9346C76.0032 11.0491 76.1479 10.2009 76.4374 9.35274C76.727 8.50458 77.1583 7.74268 77.7374 7.06128C78.3135 6.38275 79.0344 5.84223 79.8942 5.44259C80.7541 5.04295 81.7616 4.84457 82.9168 4.84457C83.8837 4.84457 84.7089 4.96532 85.3921 5.20971C86.0754 5.45409 86.6486 5.7646 87.106 6.14412C87.5635 6.52363 87.934 6.92902 88.2178 7.36029C88.5015 7.79156 88.7099 8.19695 88.8489 8.57646C88.9879 8.95598 89.1008 9.39012 89.1876 9.87601H87.3405C86.7644 9.87601 86.2549 9.53963 85.9972 9.02786C85.9943 9.01923 85.9885 9.01348 85.9856 9.00485C85.8611 8.76047 85.6758 8.52184 85.4297 8.28608C85.1837 8.05032 84.8594 7.84618 84.4512 7.67943C84.043 7.5098 83.5392 7.42642 82.9341 7.42642C82.0685 7.42642 81.3418 7.6478 80.7599 8.09057C80.1751 8.53334 79.735 9.09686 79.4426 9.78401C79.1473 10.4712 78.9996 11.1871 78.9996 11.9346C78.9996 12.6821 79.1473 13.4038 79.4426 14.0938C79.7379 14.7867 80.178 15.3531 80.7599 15.7959C81.3447 16.2386 82.0685 16.46 82.9341 16.46C83.5363 16.46 84.043 16.3795 84.4512 16.2156C84.8594 16.0546 85.1866 15.8505 85.4297 15.609C85.6729 15.3675 85.8582 15.1231 85.9856 14.8787C85.9856 14.8787 85.9856 14.873 85.9885 14.8701C86.2491 14.3612 86.7557 14.0277 87.329 14.0277H89.1847C89.0979 14.5136 88.985 14.9477 88.846 15.3272C88.707 15.7067 88.4986 16.1121 88.2149 16.5434C87.9312 16.9747 87.5606 17.3801 87.1031 17.7596C86.6457 18.1391 86.0725 18.4525 85.3892 18.694C84.706 18.9384 83.8809 19.0591 82.9139 19.0591H82.9168Z" fill="#F0004D"/>
<path d="M101.787 19.0591C100.907 19.0591 100.149 18.9125 99.5088 18.6192C98.869 18.326 98.3421 17.935 97.9281 17.4404C97.514 16.9488 97.2043 16.3968 96.9958 15.7844C96.7874 15.1748 96.686 14.5452 96.686 13.8954C96.686 13.2456 96.7845 12.6591 96.9784 12.0525C97.1724 11.4487 97.4735 10.8967 97.8817 10.3964C98.2899 9.89902 98.8111 9.50225 99.4451 9.20899C100.079 8.91573 100.829 8.7691 101.695 8.7691C102.612 8.7691 103.423 8.96748 104.132 9.36712C104.842 9.76676 105.398 10.3562 105.8 11.1353C106.202 11.9145 106.402 12.8604 106.402 13.9702V14.6631H99.5667C99.6043 15.2611 99.8157 15.7786 100.198 16.2156C100.58 16.6527 101.113 16.8712 101.79 16.8712C102.178 16.8712 102.497 16.8108 102.74 16.6929C102.986 16.575 103.177 16.437 103.313 16.2818C103.313 16.2818 103.313 16.2789 103.316 16.276C103.637 15.9109 104.08 15.6722 104.569 15.6722H106.307C106.194 16.1323 106.049 16.5319 105.872 16.8683C105.696 17.2047 105.441 17.5411 105.111 17.8775C104.778 18.2138 104.341 18.4956 103.802 18.7199C103.264 18.9441 102.589 19.0563 101.787 19.0563V19.0591ZM99.5638 12.9438H103.652C103.614 12.2595 103.406 11.7477 103.029 11.4113C102.653 11.0749 102.187 10.9053 101.637 10.9053C101.087 10.9053 100.612 11.0836 100.224 11.4372C99.8359 11.7937 99.6159 12.294 99.5638 12.9438Z" fill="#F0004D"/>
<path d="M111.674 8.77197C112.314 8.77197 112.841 8.87548 113.255 9.07961C113.669 9.28662 113.987 9.508 114.207 9.74376C114.427 9.97952 114.561 10.1434 114.613 10.2297H114.763V8.95885H115.6C116.72 8.95885 117.627 9.85877 117.627 10.9714V18.8722H116.043C115.337 18.8722 114.763 18.303 114.763 17.6014H114.613C114.564 17.6877 114.427 17.8516 114.207 18.0873C113.987 18.3231 113.669 18.5445 113.255 18.7515C112.841 18.9585 112.314 19.0591 111.674 19.0591C110.933 19.0591 110.29 18.9125 109.743 18.6192C109.196 18.326 108.741 17.935 108.377 17.4404C108.012 16.9488 107.74 16.3968 107.557 15.7844C107.375 15.1748 107.285 14.551 107.285 13.9156C107.285 13.2802 107.375 12.6563 107.557 12.0467C107.74 11.4372 108.012 10.8852 108.377 10.3907C108.741 9.89902 109.196 9.50513 109.743 9.21187C110.29 8.9186 110.933 8.77197 111.674 8.77197ZM112.502 11.0749C111.987 11.0749 111.558 11.2158 111.211 11.4947C110.866 11.7765 110.609 12.133 110.438 12.57C110.267 13.007 110.183 13.4555 110.183 13.9156C110.183 14.3756 110.267 14.827 110.438 15.2611C110.606 15.6981 110.864 16.0546 111.211 16.3364C111.555 16.6182 111.987 16.7562 112.502 16.7562C113.018 16.7562 113.446 16.6153 113.793 16.3364C114.138 16.0546 114.396 15.6981 114.566 15.2611C114.737 14.8241 114.821 14.3756 114.821 13.9156C114.821 13.4555 114.737 13.0041 114.566 12.57C114.399 12.133 114.141 11.7765 113.793 11.4947C113.449 11.2129 113.018 11.0749 112.502 11.0749Z" fill="#F0004D"/>
<path d="M124.161 16.8137C123.645 16.8137 123.278 16.7015 123.058 16.4773C122.838 16.253 122.728 15.9368 122.728 15.5227V11.2216H124.856V8.95885H122.728V6.50926H119.864V8.95885H117.936C118.596 9.49938 118.854 10.3015 118.782 11.1842V11.2216H119.864V15.5975C119.864 15.9368 119.902 16.3019 119.977 16.7015C120.053 17.1012 120.212 17.4778 120.449 17.8343C120.687 18.188 121.04 18.4812 121.503 18.7141C121.969 18.9441 122.589 19.0591 123.368 19.0591C123.819 19.0591 124.387 19.0016 125.064 18.8895V16.7015C124.688 16.7763 124.387 16.8137 124.161 16.8137Z" fill="#F0004D"/>
<path d="M129.152 9.24924V18.8722H126.289V9.27511C126.355 9.33549 126.416 9.38437 126.477 9.42749C126.822 9.6805 127.238 9.80701 127.719 9.80701C128.2 9.80701 128.585 9.6805 128.932 9.43325C129.007 9.38149 129.08 9.32111 129.152 9.24924Z" fill="#F0004D"/>
<path d="M133.651 18.8722L129.997 8.95885H130.964C132.099 8.95885 133.107 9.67188 133.477 10.7357L135.194 15.6722L136.833 10.7673C137.195 9.68626 138.211 8.95885 139.357 8.95885H140.319L136.648 18.8722H133.654H133.651Z" fill="#F0004D"/>
<path d="M145.385 19.0591C144.505 19.0591 143.747 18.9125 143.107 18.6192C142.467 18.326 141.94 17.935 141.526 17.4404C141.112 16.9488 140.802 16.3968 140.594 15.7844C140.388 15.1748 140.284 14.5452 140.284 13.8954C140.284 13.2456 140.382 12.6591 140.576 12.0525C140.77 11.4487 141.071 10.8967 141.48 10.3964C141.888 9.89902 142.409 9.50225 143.043 9.20899C143.677 8.91573 144.427 8.7691 145.293 8.7691C146.21 8.7691 147.021 8.96748 147.73 9.36712C148.44 9.76676 148.995 10.3562 149.398 11.1353C149.8 11.9145 150 12.8604 150 13.9702V14.6631H143.165C143.202 15.2611 143.414 15.7786 143.796 16.2156C144.178 16.6527 144.711 16.8712 145.388 16.8712C145.776 16.8712 146.094 16.8108 146.341 16.6929C146.587 16.575 146.778 16.437 146.914 16.2818C146.914 16.2818 146.914 16.2789 146.917 16.276C147.238 15.9109 147.681 15.6722 148.17 15.6722H149.907C149.794 16.1323 149.65 16.5319 149.473 16.8683C149.296 17.2047 149.042 17.5411 148.712 17.8775C148.379 18.2138 147.942 18.4956 147.403 18.7199C146.862 18.9441 146.19 19.0563 145.388 19.0563L145.385 19.0591ZM143.162 12.9438H147.25C147.212 12.2595 147.004 11.7477 146.627 11.4113C146.251 11.0749 145.785 10.9053 145.235 10.9053C144.685 10.9053 144.21 11.0836 143.822 11.4372C143.434 11.7937 143.214 12.294 143.162 12.9438Z" fill="#F0004D"/>
<path d="M128.773 8.81797C128.718 8.8726 128.66 8.92148 128.599 8.96173C128.35 9.14286 128.061 9.23199 127.719 9.23199C127.357 9.23199 127.062 9.14286 126.816 8.96173C126.758 8.92148 126.703 8.8726 126.651 8.82085C126.376 8.54196 126.242 8.22282 126.242 7.84043C126.242 7.43504 126.376 7.10153 126.651 6.82264C126.926 6.54376 127.273 6.4115 127.719 6.4115C128.142 6.4115 128.486 6.54663 128.773 6.82552C129.059 7.10441 129.198 7.43504 129.198 7.84043C129.198 8.21995 129.059 8.53909 128.773 8.81797Z" fill="#F0004D"/>
<path d="M92.9426 10.1032V8.9416H90.1748V18.8722H92.9426V15.3272C92.9802 14.2433 93.1539 13.5217 93.3971 13.1249C94.173 11.8541 95.4555 12.0611 95.7595 12.0956C95.9448 10.9398 96.6831 9.83864 97.2534 9.36712C96.1156 8.99911 94.3641 9.03648 92.9426 10.1032Z" fill="#F0004D"/>
<path d="M68.5366 14.5136L70.21 16.2559L68.2413 18.8722H65.2738L68.5366 14.5136Z" fill="#F0004D"/>
<path d="M71.9558 13.9155L75.6876 18.8722H72.7172L65.2738 8.95885H67.0543C67.8013 8.95885 68.5048 9.30962 68.9506 9.90189L70.4793 11.9346L72.7172 8.95885H75.6876L71.9558 13.9155Z" fill="#F0004D"/>
<path d="M31.3601 12.2624C31.3601 16.9315 30.4482 21.5979 28.6271 24.5247C28.6271 24.5247 21.2561 24.5247 21.2764 24.5247L15.7119 17.1472L15.7061 17.1558L6.62697 5.1407C6.15796 7.23091 5.93214 9.74663 5.94372 12.2624C5.93214 14.7781 6.16085 17.2938 6.62697 19.384L11.1984 13.3003L15.2284 17.7883L10.1475 24.5247H2.76486C0.923549 21.6036 0 16.9344 0 12.2624C0 7.5903 0.923549 2.92111 2.76486 0H10.1475L10.5354 0.51752L15.7119 7.38041L15.7177 7.37466L19.4061 12.2566L19.4003 12.2624L24.7418 19.384C24.7418 19.3668 24.7505 19.3495 24.7534 19.3323L24.7911 19.3811L24.7592 19.3121C25.208 17.2478 25.428 14.7551 25.4164 12.2624C25.428 9.74088 25.2022 7.21941 24.7418 5.1407L20.1965 11.1986L16.1925 6.73926L21.2735 0C21.2532 0 28.6242 0 28.6242 0C30.4453 2.92399 31.3572 7.59317 31.3572 12.2624H31.3601Z" fill="#F0004D"/>
</g>
<defs>
<clipPath id="clip0_585_4">
<rect width="150" height="24.5247" fill="white"/>
</clipPath>
</defs>
</svg>
