<svg width="54" height="31" viewBox="0 0 54 31" fill="none" xmlns="http://www.w3.org/2000/svg">
<g clip-path="url(#clip0_79_6038)">
<path d="M2.36568 13.3822C3.30583 13.3822 4.16933 13.2207 4.51677 13.0088H4.56787C4.46057 13.3015 4.78246 14.4419 6.5299 18.7159L9.21748 25.2455L12.5744 17.5503C13.7853 14.8153 13.0854 13.9675 12.0073 13.2762V13.0088C12.7328 13.2762 13.351 13.4074 13.9948 13.4074C14.6386 13.4074 15.2824 13.2762 16.0642 13.0088V13.2762C14.8021 14.018 14.1583 14.8708 12.9474 17.6815L7.70508 29.7819H7.21968L7.24523 29.7264L2.72846 18.7109C0.996347 14.4469 0.378101 13.3015 0 13.0138C0.699997 13.2813 1.55839 13.3872 2.36568 13.3872V13.3822Z" fill="url(#paint0_linear_79_6038)"/>
<path d="M17.1473 24.0796V20.8703C17.1473 18.8267 16.7999 18.4028 16.7437 18.1909C17.1984 18.1909 18.7874 17.8982 20.3714 16.5206H20.6422V24.0847C20.6422 28.3587 20.8057 29.4991 21.0458 29.7918C20.4531 29.5244 19.6765 29.4184 18.9509 29.4184C18.0926 29.4184 17.2597 29.5799 16.7999 29.7918H16.7488C16.9889 29.4991 17.1524 28.3587 17.1524 24.0847L17.1473 24.0796ZM19.0838 12.0044C20.1568 12.0044 21.0458 12.8521 21.0458 13.8866C21.0458 14.921 20.1568 15.7688 19.0838 15.7688C18.0108 15.7688 17.1473 14.921 17.1473 13.8866C17.1473 12.8521 18.0363 12.0044 19.0838 12.0044Z" fill="url(#paint1_linear_79_6038)"/>
<path d="M22.6555 26.6535C22.6555 25.2457 23.7847 24.5544 25.0723 24.5544C26.2015 24.5544 27.3307 25.1397 27.3307 26.1742C26.1504 26.043 25.3124 26.6788 25.3124 27.7384C25.3124 28.9848 26.3343 29.6509 27.4891 29.6509C28.7255 29.6509 30.0131 28.8536 30.0131 27.2641C30.0131 23.9488 22.6504 24.6099 22.6504 19.806C22.6504 17.3637 25.3635 16.2485 27.9438 16.2485C30.2533 16.2485 32.4861 17.1518 32.4861 18.8473C32.4861 19.8565 31.6533 20.785 30.1766 20.785C29.2109 20.785 28.3219 20.1491 28.3219 19.0592C29.7474 19.0592 30.1766 16.5362 27.8927 16.5109C26.8708 16.5109 25.7416 17.1215 25.7416 18.5798C25.7416 21.9758 33.1299 21.3905 33.1299 26.0379C33.1299 28.6669 30.2533 30.0445 27.5146 30.0445C24.2343 30.0445 22.6504 28.1875 22.6504 26.6485L22.6555 26.6535Z" fill="url(#paint2_linear_79_6038)"/>
<path d="M38.3518 13.276H38.6226V16.5156H40.4517V16.7831H38.6226V26.416C38.6226 28.167 38.7554 29.3074 39.4554 29.3074C39.6445 29.3074 39.8591 29.257 40.0992 29.0955V29.2267C39.5883 29.812 38.8372 30.0492 38.0554 30.0492C35.097 30.0492 35.1277 27.4202 35.1277 25.1646V18.1859C35.1277 16.9395 34.9386 16.778 33.2729 16.778V16.5106C34.3459 16.5106 36.6043 15.7133 38.3518 13.271V13.276Z" fill="url(#paint3_linear_79_6038)"/>
<path d="M48.995 19.488C48.995 17.3888 47.9476 16.5158 46.8746 16.5158C45.6943 16.5158 44.4578 17.5755 44.4578 19.17C44.4578 20.0985 45.0198 20.8151 45.9906 20.7091C45.9906 22.011 45.0505 22.6216 44.0286 22.6216C42.7921 22.6216 41.4739 21.7738 41.4739 20.1793C41.4739 17.3938 44.6979 16.2534 47.0381 16.2534C51.6621 16.2534 52.4643 19.2256 52.4643 21.6679V26.4162C52.4643 28.1672 52.6278 29.3076 53.3227 29.3076C53.5118 29.3076 53.7264 29.2571 53.9665 29.0957V29.2269C53.4556 29.8122 52.7045 30.0494 51.9227 30.0494C50.1753 30.0494 49.4497 29.1209 49.184 27.8998C48.0038 29.3883 46.4454 30.0494 45.0454 30.0494C43.1089 30.0494 41.2542 28.8282 41.2542 26.7593C41.2542 22.2229 48.995 23.3886 48.995 19.488ZM47.1403 28.4599C47.8403 28.4599 48.5403 28.1924 49.1278 27.6121C48.9643 26.8401 48.9643 25.9923 48.9643 25.1698L48.9899 20.6586C48.6118 22.011 44.6877 23.2321 44.6877 25.8611C44.6877 27.5062 45.8425 28.4599 47.1351 28.4599H47.1403Z" fill="url(#paint4_linear_79_6038)"/>
<path d="M26.4006 11.6009C25.3531 10.8692 24.8013 9.84489 24.7451 8.52786H26.9473C27.0035 9.61277 27.3305 10.3949 27.9334 10.8743C28.5363 11.3587 29.4254 11.5959 30.6006 11.5959C31.5663 11.5959 32.2816 11.4142 32.7363 11.0509C33.1911 10.6876 33.421 10.1426 33.421 9.42606C33.421 9.03752 33.3392 8.70448 33.1757 8.4219C33.0122 8.13932 32.6955 7.88197 32.2203 7.6448C31.7451 7.40763 31.0553 7.1957 30.1407 7.009C28.705 6.70118 27.494 6.26722 26.513 5.70206C25.5269 5.1369 25.0364 4.30935 25.0364 3.21435C25.0364 1.06977 26.8349 0 30.4371 0C32.1998 0 33.5283 0.312856 34.4276 0.943616C35.3268 1.57437 35.8173 2.41202 35.9042 3.46161H33.7327C33.5794 2.60377 33.2217 1.9932 32.6546 1.63493C32.0874 1.27666 31.3159 1.095 30.34 1.095C29.4816 1.095 28.8429 1.25647 28.4239 1.56933C28.005 1.88723 27.7955 2.29092 27.7955 2.78543C27.7955 3.05792 27.867 3.30013 28.0152 3.50702C28.1634 3.71896 28.4597 3.92584 28.9144 4.13273C29.3641 4.33962 30.0283 4.54651 30.8969 4.75845C32.1232 5.05112 33.0991 5.34884 33.8144 5.64151C34.5297 5.93418 35.1071 6.35805 35.5414 6.90303C35.9757 7.448 36.1954 8.17464 36.1954 9.08293C36.1954 9.8348 35.9655 10.4857 35.5006 11.0257C35.0356 11.5656 34.3867 11.9794 33.5487 12.262C32.7108 12.5445 31.74 12.6858 30.6312 12.6858C28.8582 12.6858 27.448 12.3225 26.4006 11.5908V11.6009Z" fill="url(#paint5_linear_79_6038)"/>
<path d="M7.46487 7.30145V4.12747H6.54517L6.71378 3.66323H7.48531L7.84808 2.24023H8.61961V3.66323H10.04L9.89187 4.12747H8.61961V7.43264C8.61961 8.03817 8.85465 8.34094 9.31961 8.34094C9.57508 8.34094 9.82544 8.27534 10.0605 8.14414V8.61847C9.76924 8.74967 9.38092 8.81527 8.89041 8.81527C7.94005 8.81527 7.45976 8.31066 7.45976 7.30145H7.46487Z" fill="url(#paint6_linear_79_6038)"/>
<path d="M10.7605 1.68018H11.9101V4.59681C12.0889 4.27386 12.3546 4.02155 12.7021 3.83989C13.0495 3.65824 13.443 3.56741 13.8824 3.56741C14.5568 3.56741 15.0831 3.73393 15.4561 4.06697C15.8291 4.40001 16.0181 4.86425 16.0181 5.45464V8.71945H14.8685V5.35876C14.8685 4.9248 14.7612 4.59681 14.5415 4.36973C14.3218 4.14266 14.005 4.03165 13.586 4.03165C13.0802 4.03165 12.6714 4.20321 12.3649 4.5413C12.0583 4.87939 11.905 5.33858 11.905 5.90374V8.7144H10.7554V1.68018H10.7605Z" fill="url(#paint7_linear_79_6038)"/>
<path d="M21.0407 8.02339C21.3422 7.80136 21.5363 7.49355 21.6181 7.09491H22.5174C22.3947 7.63989 22.0882 8.05871 21.5976 8.36148C21.1122 8.66424 20.5093 8.81562 19.794 8.81562C19.2013 8.81562 18.6904 8.70966 18.2509 8.49772C17.8115 8.28579 17.4743 7.98302 17.2393 7.58943C17.0042 7.19584 16.8867 6.73664 16.8867 6.2068C16.8867 5.67697 17.0042 5.20264 17.2393 4.804C17.4743 4.40536 17.8115 4.09755 18.2458 3.88057C18.6801 3.66358 19.1911 3.55762 19.7736 3.55762C20.6626 3.55762 21.3524 3.78469 21.8378 4.23884C22.3232 4.69298 22.5736 5.33888 22.5889 6.17653H18.0312V6.22699C18.0312 6.89307 18.1896 7.41282 18.5064 7.78623C18.8232 8.15964 19.278 8.34634 19.8758 8.34634C20.3509 8.34634 20.7341 8.23533 21.0407 8.01834V8.02339ZM18.6239 4.47096C18.3225 4.76867 18.1385 5.18245 18.0619 5.71734H21.4852C21.4137 5.16731 21.24 4.74849 20.9539 4.46086C20.6677 4.17324 20.2845 4.0269 19.8042 4.0269C19.3239 4.0269 18.9254 4.17324 18.6239 4.47096Z" fill="url(#paint8_linear_79_6038)"/>
</g>
<defs>
<linearGradient id="paint0_linear_79_6038" x1="8.0372" y1="3.21941" x2="8.0372" y2="31.3513" gradientUnits="userSpaceOnUse">
<stop offset="0.29" stop-color="#E67972"/>
<stop offset="0.62" stop-color="#F3A196"/>
<stop offset="0.97" stop-color="#F5B0B5"/>
</linearGradient>
<linearGradient id="paint1_linear_79_6038" x1="18.8947" y1="1.61958" x2="18.8947" y2="31.4469" gradientUnits="userSpaceOnUse">
<stop offset="0.29" stop-color="#E67972"/>
<stop offset="0.62" stop-color="#F3A196"/>
<stop offset="0.97" stop-color="#F5B0B5"/>
</linearGradient>
<linearGradient id="paint2_linear_79_6038" x1="27.8978" y1="8.18996" x2="27.8978" y2="31.3413" gradientUnits="userSpaceOnUse">
<stop offset="0.29" stop-color="#E67972"/>
<stop offset="0.62" stop-color="#F3A196"/>
<stop offset="0.97" stop-color="#F5B0B5"/>
</linearGradient>
<linearGradient id="paint3_linear_79_6038" x1="36.8598" y1="3.48162" x2="36.8598" y2="31.6185" gradientUnits="userSpaceOnUse">
<stop offset="0.29" stop-color="#E67972"/>
<stop offset="0.62" stop-color="#F3A196"/>
<stop offset="0.97" stop-color="#F5B0B5"/>
</linearGradient>
<linearGradient id="paint4_linear_79_6038" x1="47.6103" y1="8.18979" x2="47.6103" y2="31.3412" gradientUnits="userSpaceOnUse">
<stop offset="0.29" stop-color="#E67972"/>
<stop offset="0.62" stop-color="#F3A196"/>
<stop offset="0.97" stop-color="#F5B0B5"/>
</linearGradient>
<linearGradient id="paint5_linear_79_6038" x1="30.4677" y1="-7.41268" x2="30.4677" y2="13.8817" gradientUnits="userSpaceOnUse">
<stop offset="0.29" stop-color="#E67972"/>
<stop offset="0.62" stop-color="#F3A196"/>
<stop offset="0.97" stop-color="#F5B0B5"/>
</linearGradient>
<linearGradient id="paint6_linear_79_6038" x1="8.30282" y1="-1.59478" x2="8.30282" y2="9.43089" gradientUnits="userSpaceOnUse">
<stop offset="0.29" stop-color="#E67972"/>
<stop offset="0.62" stop-color="#F3A196"/>
<stop offset="0.97" stop-color="#F5B0B5"/>
</linearGradient>
<linearGradient id="paint7_linear_79_6038" x1="13.3867" y1="-2.43237" x2="13.3867" y2="9.37039" gradientUnits="userSpaceOnUse">
<stop offset="0.29" stop-color="#E67972"/>
<stop offset="0.62" stop-color="#F3A196"/>
<stop offset="0.97" stop-color="#F5B0B5"/>
</linearGradient>
<linearGradient id="paint8_linear_79_6038" x1="19.7378" y1="0.494652" x2="19.7378" y2="9.31014" gradientUnits="userSpaceOnUse">
<stop offset="0.29" stop-color="#E67972"/>
<stop offset="0.62" stop-color="#F3A196"/>
<stop offset="0.97" stop-color="#F5B0B5"/>
</linearGradient>
<clipPath id="clip0_79_6038">
<rect width="53.9662" height="30.0494" fill="white"/>
</clipPath>
</defs>
</svg>
