<svg width="100" height="23" viewBox="0 0 100 23" fill="none" xmlns="http://www.w3.org/2000/svg">
<g clip-path="url(#clip0_79_6355)">
<path d="M32.6622 19.6554C32.6317 19.7606 32.3403 19.8956 32.2185 19.885C31.0592 19.8063 29.7574 19.9902 28.6166 19.8871C28.3948 19.8669 28.2001 19.8329 28.1338 19.5937L28.1458 2.4451C28.1969 2.29201 28.3546 2.23673 28.5112 2.24205L44.5312 2.24524C48.705 2.68854 50.8094 6.97171 49.3978 10.6712C48.6224 12.7039 46.6877 14.0721 44.5062 14.3538L49.8317 19.5533C49.9622 19.8085 49.7664 19.8701 49.5435 19.8882C48.3135 19.9913 46.1363 19.9764 44.8955 19.8882C44.7443 19.8776 44.5997 19.8669 44.4594 19.8042C42.5139 18.0459 40.6901 16.1429 38.7924 14.3283H32.6622V19.6564V19.6554ZM32.6622 10.1461H43.6449C44.5279 10.1461 45.2935 9.10213 45.2935 8.28462C45.2935 7.46711 44.5203 6.42316 43.6449 6.42316H32.6622V10.145V10.1461Z" fill="white"/>
<path d="M57.9053 2.25845L69.8374 2.24463C72.7465 2.57525 74.8215 4.90447 74.9802 7.7227C75.0912 9.70323 75.0912 12.3748 74.9802 14.3553C74.8225 17.1544 72.7802 19.49 69.8907 19.8334C66.1899 19.7887 62.3075 20.0672 58.6187 19.8865C55.3964 19.7292 53.0322 17.5243 52.8528 14.3542C52.7408 12.3748 52.7418 9.70111 52.8528 7.72164C53.0094 4.93742 55.0365 2.61777 57.9053 2.25739V2.25845ZM58.896 6.4385C58.175 6.52142 57.5443 7.08592 57.3985 7.78011L57.3942 14.2511C57.5312 15.0272 58.1805 15.5874 58.9841 15.6544C62.1836 15.4811 65.6266 15.8787 68.7978 15.6544C69.6308 15.5959 70.2909 15.0569 70.4399 14.25C70.305 12.2057 70.6182 9.94349 70.441 7.92575C70.3681 7.0923 69.6341 6.47145 68.7978 6.42149L58.8971 6.43744L58.896 6.4385Z" fill="white"/>
<path d="M99.2654 2.24316C99.4165 2.28888 99.3219 2.58016 99.2142 2.65245L90.6338 11.0455L90.6795 11.1422L99.336 19.615C99.398 19.8266 99.186 19.8882 99.0076 19.8872C97.3046 19.7724 95.4134 20.0318 93.7332 19.8872C93.5995 19.8755 93.4798 19.8542 93.3602 19.7936L87.5192 14.1274L87.4202 14.172L81.8403 19.632C81.6728 19.7894 81.4455 19.868 81.2149 19.8882C79.538 20.035 77.6414 19.7724 75.9405 19.8882C75.7241 19.9063 75.5186 19.7756 75.6524 19.5534L84.3687 11.0402L75.6524 2.52701C75.5719 2.44515 75.6208 2.34097 75.6643 2.25273L81.3715 2.24316L81.5901 2.28462L87.4735 8.00615L93.2112 2.39731L93.4211 2.24529H99.2654V2.24316Z" fill="white"/>
<path d="M6.6 0C7.09046 0.0457126 7.55591 0.275339 7.87999 0.635725L11.2447 4.58934L14.7128 0.58576C14.9683 0.294475 15.5513 0.00106308 15.9406 0.00106308H20.2188C20.2253 0.00106308 20.3232 0.075479 20.271 0.103119L14.5062 6.80906C13.9657 7.32891 13.2664 7.70099 12.4986 7.75308C11.0381 7.85301 9.13171 7.94975 8.06052 6.83457L2.26955 0.102056C2.21735 0.0744159 2.31631 0 2.32175 0H6.6Z" fill="white"/>
<path d="M20.296 22.0768H15.8351C15.4153 22.0768 14.8846 21.6761 14.6073 21.3901C13.7416 20.4971 12.9336 19.3798 12.1028 18.4326C11.9973 18.3114 11.348 17.5534 11.2882 17.5428C11.2165 17.5311 11.1316 17.6448 11.086 17.6916C9.96692 18.8281 8.99686 20.2994 7.87891 21.4411C7.6179 21.7069 7.09155 22.0768 6.70331 22.0768H2.29565L2.34568 21.8961C4.24338 19.8986 5.89203 17.5694 7.77342 15.575C8.25845 15.0605 8.7239 14.6374 9.43295 14.4439C10.142 14.2504 12.4551 14.2472 13.1892 14.4662C13.8613 14.6671 14.2854 15.0584 14.7411 15.5506C16.5115 17.4641 18.3037 19.6403 19.9828 21.6452C20.0883 21.7717 20.246 21.9269 20.2971 22.0779L20.296 22.0768Z" fill="white"/>
<path d="M-2.22553e-05 19.8341V15.3723C-2.22553e-05 15.0789 0.384955 14.5399 0.625293 14.3517L4.64471 11.0891C4.64471 10.9945 4.22711 10.6671 4.12271 10.5789C3.00149 9.62633 1.65081 8.69507 0.598106 7.70002C0.372992 7.48741 -0.00110976 7.01327 -0.00110976 6.70498V2.24321C0.0891532 2.22088 0.103291 2.27935 0.155491 2.31975C2.06515 3.76129 4.07921 5.48881 5.91927 7.03772C6.94914 7.90414 7.82131 8.51009 7.93115 9.96652C8.03447 11.3422 8.0747 13.0899 7.01765 14.1253C4.76869 15.8922 2.64479 17.8206 0.388217 19.5779C0.276204 19.665 0.133741 19.8001 -0.00219727 19.8341H-2.22553e-05Z" fill="white"/>
<path d="M22.5396 2.24316V6.70493C22.5396 7.01535 22.1361 7.55221 21.8893 7.75101L17.897 11.0381L21.9926 14.4272C22.2035 14.5951 22.5396 15.1203 22.5396 15.3712V19.833C22.3852 19.783 22.2264 19.6299 22.097 19.5257C19.8817 17.7536 17.7339 15.8974 15.5197 14.1242C14.4681 13.093 14.5105 11.3857 14.6062 10.0164C14.6802 8.95229 15.1141 8.34102 15.8884 7.64895C17.8133 5.92675 20.0655 4.17585 22.097 2.5504C22.2264 2.44728 22.3852 2.29419 22.5396 2.24316Z" fill="white"/>
</g>
<defs>
<clipPath id="clip0_79_6355">
<rect width="99.3469" height="22.0771" fill="white"/>
</clipPath>
</defs>
</svg>
