<svg width="46" height="45" viewBox="0 0 46 45" fill="none" xmlns="http://www.w3.org/2000/svg">
<path d="M2.48542 40.45H1.46983V44.8755H1.01559V40.45H0V40.0117H2.48542V40.45Z" fill="white"/>
<path d="M8.51978 40.0117V44.8755H8.06542V42.5986H6.38185V44.8755H5.92749V40.0117H6.38185V42.1603H8.06542V40.0117H8.51978Z" fill="white"/>
<path d="M12.6294 40.45V42.1603H14.2115V42.5986H12.6294V44.4372H14.2809V44.8755H12.175V40.0117H14.2809V40.45H12.6294Z" fill="white"/>
<path d="M23.7524 40.0117V44.8755H23.3087V41.1181L22.1275 44.8755H21.8175L20.6363 41.1181V44.8755H20.1926V40.0117H20.7325L21.9725 43.9669L23.2125 40.0117H23.7524Z" fill="white"/>
<path d="M27.4081 40.0117H27.8731V44.8755H27.4081V40.0117Z" fill="white"/>
<path d="M33.5331 43.4008H32.1703L31.7747 44.8814H31.3204L32.5712 40.0176H33.1323L34.383 44.8814H33.9286L33.5331 43.4008ZM33.4637 42.9412L32.849 40.5681L32.2344 42.9412H33.4637Z" fill="white"/>
<path d="M41.3099 40.0117V44.8755H40.8663V41.1181L39.6851 44.8755H39.3698L38.1885 41.1181V44.8755H37.745V40.0117H38.2848L39.5247 43.9669L40.7648 40.0117H41.3046H41.3099Z" fill="white"/>
<path d="M44.9659 40.0117H45.4309V44.8755H44.9659V40.0117Z" fill="white"/>
<path d="M34.7001 29.3016C41.3188 22.6828 41.3188 11.9517 34.7 5.33292C28.0813 -1.28585 17.3501 -1.28587 10.7314 5.33291C4.11259 11.9517 4.11261 22.6828 10.7314 29.3016C17.3501 35.9204 28.0813 35.9204 34.7001 29.3016Z" fill="#192745"/>
<path d="M22.7154 34.6344C13.1695 34.6344 5.39819 26.8684 5.39819 17.3172C5.39819 7.76603 13.1642 0 22.7154 0C32.2666 0 40.0327 7.76603 40.0327 17.3172C40.0327 26.8684 32.2666 34.6344 22.7154 34.6344ZM22.7154 0.737585C13.5757 0.737585 6.13572 8.17223 6.13572 17.3119C6.13572 26.4515 13.5704 33.8915 22.7154 33.8915C31.8603 33.8915 39.295 26.4569 39.295 17.3119C39.295 8.16689 31.8603 0.737585 22.7154 0.737585Z" fill="white"/>
<path d="M24.6396 28.4879H34.9551C35.1582 28.2688 35.3505 28.0389 35.543 27.8091H24.6075C24.6182 28.055 24.6289 28.2795 24.6396 28.4879Z" fill="#F2EB59"/>
<path d="M20.8289 27.8091H9.89342C10.0805 28.0389 10.2783 28.2688 10.4814 28.4879H20.7969C20.8076 28.2795 20.8182 28.055 20.8289 27.8091Z" fill="#F2EB59"/>
<path d="M24.5327 26.3019H36.6387C36.783 26.0774 36.922 25.8529 37.0556 25.6231H24.5006C24.5113 25.8529 24.522 26.0827 24.5327 26.3019Z" fill="#E79640"/>
<path d="M20.941 25.6284H8.386C8.51962 25.8582 8.65847 26.0827 8.80278 26.3072H20.9089C20.9196 26.0881 20.9303 25.8582 20.941 25.6284Z" fill="#E79640"/>
<path d="M21.0536 23.3088H16.457C16.179 23.4851 15.9011 23.6401 15.6178 23.7631C15.5323 23.6188 15.4682 23.4638 15.404 23.3088H7.2639C7.35476 23.5386 7.44564 23.7631 7.54719 23.9876H21.0215C21.0322 23.7631 21.0429 23.5332 21.0536 23.3088Z" fill="#DC5142"/>
<path d="M29.8185 23.7631C29.5406 23.6401 29.2573 23.4851 28.9794 23.3088H24.3829C24.3936 23.5332 24.4043 23.7631 24.415 23.9876H37.8893C37.9855 23.7631 38.0817 23.5386 38.1726 23.3088H30.0324C29.9736 23.4638 29.9041 23.6188 29.8185 23.7631Z" fill="#DC5142"/>
<path d="M18.5732 21.4915H21.1388C21.1494 21.2617 21.1602 21.0372 21.1709 20.8127H19.1612C18.9741 21.0426 18.7763 21.2724 18.5732 21.4915Z" fill="#AC3236"/>
<path d="M30.3103 20.8127C30.3263 21.0319 30.337 21.2564 30.337 21.4915H38.7605C38.8193 21.267 38.8727 21.0426 38.9208 20.8127H30.3103Z" fill="#AC3236"/>
<path d="M24.2602 20.8127C24.2709 21.0319 24.2815 21.2617 24.2922 21.4915H26.8577C26.6546 21.2724 26.4569 21.0479 26.2699 20.8127H24.2602Z" fill="#AC3236"/>
<path d="M15.1255 20.8127H6.51509C6.5632 21.0426 6.61654 21.267 6.67533 21.4915H15.0988C15.0988 21.2617 15.1095 21.0319 15.1255 20.8127Z" fill="#AC3236"/>
<path d="M12.2823 14.4684C12.2075 14.4684 12.1274 14.431 12.0846 14.3615C12.0098 14.2493 12.0418 14.0996 12.1487 14.0302C15.2594 11.935 18.0066 12.0472 19.7651 12.5122C21.6732 13.0146 22.8277 14.0088 22.8758 14.0462C22.9773 14.1317 22.988 14.2867 22.8972 14.3829C22.8117 14.4845 22.6566 14.4952 22.5604 14.4043C22.5604 14.4043 21.4273 13.4369 19.6207 12.9665C17.2102 12.3358 14.789 12.8276 12.4159 14.4257C12.3732 14.4524 12.3304 14.4684 12.2823 14.4684Z" fill="white"/>
<path d="M13.1643 15.2488C13.1643 15.2488 13.1161 15.2488 13.0894 15.2381C12.9611 15.1953 12.8916 15.0617 12.9343 14.9388C13.3512 13.6239 14.3989 12.897 14.4416 12.865C14.5485 12.7901 14.6982 12.8169 14.7784 12.9291C14.8532 13.036 14.8264 13.1857 14.7142 13.2605C14.7142 13.2605 13.7575 13.9286 13.3941 15.0831C13.362 15.1846 13.2658 15.2488 13.1643 15.2488Z" fill="white"/>
<path d="M14.5809 14.8479C14.5809 14.8479 14.5328 14.8479 14.5061 14.8372C14.3778 14.7945 14.3083 14.6608 14.3511 14.5379C14.768 13.2231 15.8156 12.4962 15.8584 12.4641C15.9653 12.3893 16.1148 12.416 16.1897 12.5283C16.2645 12.6352 16.2378 12.7848 16.1256 12.8596C16.1256 12.8596 15.1688 13.5277 14.8053 14.6822C14.7732 14.7838 14.6771 14.8479 14.5755 14.8479H14.5809Z" fill="white"/>
<path d="M15.9384 14.6555C15.9384 14.6555 15.8903 14.6555 15.8636 14.6448C15.7353 14.6021 15.6658 14.4684 15.7086 14.3455C16.1255 13.0307 17.173 12.3038 17.2157 12.2717C17.3226 12.1969 17.4723 12.2236 17.5525 12.3358C17.6273 12.4427 17.6006 12.5924 17.4883 12.6672C17.4883 12.6672 16.5316 13.3353 16.1682 14.4898C16.1361 14.5914 16.0399 14.6555 15.9384 14.6555Z" fill="white"/>
<path d="M17.6538 13.8752C17.611 13.8752 17.5683 13.8645 17.5255 13.8377C17.4133 13.7683 17.3812 13.6186 17.4507 13.5064C18.0975 12.4748 18.7014 12.3305 18.7655 12.3145C18.8938 12.2877 19.0221 12.3733 19.0488 12.5015C19.0756 12.6298 18.99 12.7527 18.8617 12.7848C18.8457 12.7848 18.3807 12.9184 17.8569 13.7576C17.8088 13.8324 17.7339 13.8698 17.6538 13.8698V13.8752Z" fill="white"/>
<path d="M18.9315 15.5267C18.9315 15.5267 18.8887 15.5267 18.8673 15.516C18.7391 15.4786 18.6642 15.345 18.7016 15.2167C19.0383 14.0355 19.6477 13.7415 19.7172 13.7148C19.8401 13.6614 19.979 13.7148 20.0325 13.8377C20.0859 13.9607 20.0325 14.0996 19.9096 14.1531C19.8935 14.1638 19.4339 14.4043 19.1613 15.3503C19.1293 15.4572 19.0331 15.5267 18.9315 15.5267Z" fill="white"/>
<path d="M22.7155 14.4684C22.6246 14.4684 22.5392 14.4203 22.5017 14.3348C22.4911 14.3188 21.8336 12.9986 20.3585 11.8655C18.3862 10.3476 15.9597 9.85584 13.1537 10.401C13.0254 10.4277 12.8971 10.3422 12.8704 10.2086C12.8436 10.075 12.9292 9.95205 13.0628 9.92532C16.7454 9.20377 19.2308 10.3796 20.6685 11.4967C22.2292 12.7046 22.908 14.0676 22.9347 14.121C22.9935 14.2386 22.9453 14.3829 22.8224 14.4417C22.7903 14.4577 22.7529 14.4684 22.7155 14.4684Z" fill="white"/>
<path d="M13.6134 11.4646C13.56 11.4646 13.5013 11.4433 13.4585 11.4058C13.357 11.3203 13.3463 11.1653 13.4318 11.0691C14.3297 10.0162 15.575 9.75963 15.6284 9.74895C15.7567 9.72222 15.885 9.80774 15.9117 9.93602C15.9384 10.0643 15.853 10.1926 15.7247 10.2193C15.7087 10.2193 14.5809 10.4652 13.8005 11.3845C13.7524 11.4379 13.6829 11.47 13.6188 11.47L13.6134 11.4646Z" fill="white"/>
<path d="M15.0724 11.6464C15.0189 11.6464 14.9603 11.625 14.9175 11.5876C14.8159 11.502 14.8052 11.347 14.8907 11.2508C15.7887 10.1979 17.0339 9.94136 17.0874 9.93067C17.2157 9.90394 17.344 9.98946 17.3707 10.1177C17.3974 10.246 17.312 10.3743 17.1837 10.401C17.1677 10.401 16.0399 10.6469 15.2595 11.5662C15.2114 11.6196 15.1419 11.6517 15.0777 11.6517L15.0724 11.6464Z" fill="white"/>
<path d="M16.3982 11.9991C16.3447 11.9991 16.2859 11.9777 16.2432 11.9403C16.1416 11.8548 16.1309 11.6998 16.2164 11.6036C17.1143 10.5507 18.3596 10.2941 18.4131 10.2834C18.5413 10.2567 18.6696 10.3422 18.6964 10.4705C18.7231 10.5988 18.6376 10.7271 18.5094 10.7538C18.4933 10.7538 17.3655 10.9996 16.5852 11.9189C16.5371 11.9724 16.4677 12.0045 16.4035 12.0045L16.3982 11.9991Z" fill="white"/>
<path d="M18.012 12.0686C17.9318 12.0686 17.8517 12.0258 17.8089 11.9564C17.7394 11.8441 17.7768 11.6945 17.889 11.625C19.0702 10.8981 19.8347 10.989 19.8667 10.9943C20.0003 11.0103 20.0912 11.1333 20.0751 11.2615C20.0591 11.3898 19.9362 11.486 19.8079 11.47C19.7918 11.47 19.1559 11.4112 18.1404 12.0365C18.1029 12.0633 18.0601 12.0739 18.0173 12.0739L18.012 12.0686Z" fill="white"/>
<path d="M13.0468 18.3915C12.9987 18.3915 12.956 18.3808 12.9132 18.3488C12.801 18.2739 12.7742 18.1243 12.849 18.0174C14.9442 14.9067 17.5311 13.9767 19.3377 13.7469C21.2939 13.4957 22.737 13.982 22.7958 14.0034C22.9187 14.0462 22.9882 14.1851 22.9454 14.3081C22.9027 14.431 22.7637 14.5005 22.6408 14.4577C22.6408 14.4577 21.2243 13.9874 19.375 14.2279C16.9057 14.5486 14.8426 15.9169 13.2445 18.2846C13.1964 18.3541 13.1217 18.3915 13.0468 18.3915Z" fill="white"/>
<path d="M14.1584 18.7817C14.0355 18.7817 13.9286 18.6855 13.9179 18.5626C13.811 17.1836 14.5058 16.12 14.5378 16.0719C14.6127 15.9596 14.7624 15.9329 14.8693 16.0024C14.9815 16.0772 15.0082 16.2269 14.9387 16.3338C14.928 16.3498 14.3028 17.3172 14.399 18.5198C14.4097 18.6534 14.3081 18.7657 14.1798 18.7763C14.1744 18.7763 14.1691 18.7763 14.1584 18.7763V18.7817Z" fill="white"/>
<path d="M15.3182 17.8784C15.1953 17.8784 15.0883 17.7822 15.0776 17.6593C14.9707 16.2803 15.6656 15.2167 15.6977 15.1686C15.7725 15.0564 15.9221 15.0296 16.029 15.0991C16.1359 15.1686 16.1681 15.3236 16.0986 15.4305C16.0879 15.4465 15.4625 16.4139 15.5587 17.6165C15.5694 17.7501 15.4678 17.8624 15.3395 17.8731C15.3342 17.8731 15.3289 17.8731 15.3182 17.8731V17.8784Z" fill="white"/>
<path d="M16.5049 17.1889C16.3819 17.1889 16.2751 17.0927 16.2644 16.9698C16.1575 15.5908 16.8523 14.5272 16.8843 14.4791C16.9592 14.3669 17.1088 14.3401 17.2156 14.4096C17.3225 14.4791 17.3547 14.6341 17.2852 14.741C17.2745 14.757 16.6492 15.7245 16.7454 16.927C16.7561 17.0607 16.6546 17.1729 16.5263 17.1836C16.5209 17.1836 16.5156 17.1836 16.5049 17.1836V17.1889Z" fill="white"/>
<path d="M17.7394 16.5903C17.6111 16.5903 17.5041 16.4888 17.4988 16.3552C17.456 14.9762 18.2952 14.0141 18.3326 13.9767C18.4235 13.8752 18.5732 13.8698 18.6748 13.9553C18.7763 14.0408 18.7816 14.1958 18.696 14.2921C18.696 14.2921 17.9478 15.1579 17.9853 16.3391C17.9853 16.4727 17.8836 16.585 17.75 16.585C17.75 16.585 17.75 16.585 17.7446 16.585L17.7394 16.5903Z" fill="white"/>
<path d="M15.9597 22.4215C15.9597 22.4215 15.9437 22.4215 15.933 22.4215C15.7994 22.4055 15.7085 22.2879 15.7192 22.1543C16.1361 18.4289 18.0014 16.4086 19.4926 15.3664C21.1121 14.2386 22.6141 14.0034 22.6782 13.9927C22.8118 13.9714 22.9294 14.0622 22.9508 14.1958C22.9722 14.3295 22.8812 14.447 22.7476 14.4684C22.7476 14.4684 21.2777 14.7036 19.7491 15.7726C17.7074 17.1996 16.5102 19.3643 16.1949 22.2077C16.1788 22.3307 16.0773 22.4215 15.9544 22.4215H15.9597Z" fill="white"/>
<path d="M17.1246 22.2558C17.0445 22.2558 16.9644 22.2184 16.9216 22.1436C16.1894 20.9731 16.3122 19.7064 16.3176 19.6529C16.3336 19.5193 16.4512 19.4231 16.5795 19.4391C16.7131 19.4551 16.8094 19.5727 16.7933 19.701C16.7933 19.717 16.6864 20.8608 17.3278 21.887C17.3973 21.9993 17.3652 22.1489 17.2529 22.2184C17.2155 22.2451 17.1674 22.2558 17.1246 22.2558Z" fill="white"/>
<path d="M17.7394 20.9196C17.6592 20.9196 17.5789 20.8822 17.5362 20.8074C16.8039 19.6369 16.9269 18.3701 16.9323 18.3167C16.9483 18.1831 17.0659 18.0869 17.1942 18.1029C17.3278 18.1189 17.424 18.2365 17.4079 18.3648C17.4079 18.3808 17.301 19.5246 17.9424 20.5508C18.0119 20.6631 17.9799 20.8127 17.8676 20.8822C17.8302 20.9089 17.7821 20.9196 17.7394 20.9196Z" fill="white"/>
<path d="M18.4717 19.7544C18.3916 19.7544 18.3114 19.717 18.2687 19.6422C17.5364 18.4717 17.6593 17.205 17.6647 17.1515C17.6807 17.0179 17.7983 16.9217 17.9265 16.9377C18.0602 16.9538 18.1565 17.0713 18.1404 17.1996C18.1404 17.2157 18.0335 18.3594 18.6749 19.3857C18.7444 19.4979 18.7122 19.6476 18.6 19.717C18.5626 19.7438 18.5145 19.7544 18.4717 19.7544Z" fill="white"/>
<path d="M19.2893 18.6534C19.2038 18.6534 19.1235 18.6107 19.0808 18.5305C18.402 17.3279 18.7013 16.1039 18.712 16.0558C18.7441 15.9276 18.8724 15.8474 19.006 15.8795C19.1343 15.9115 19.2145 16.0398 19.1824 16.1734C19.1824 16.1895 18.9258 17.2691 19.503 18.2953C19.5672 18.4129 19.5298 18.5572 19.4122 18.6214C19.3748 18.6427 19.332 18.6534 19.2946 18.6534H19.2893Z" fill="white"/>
<path d="M20.2731 17.7662C20.1662 17.7662 20.0699 17.6967 20.0432 17.5845C19.6744 16.1734 19.9844 15.1526 20.0005 15.1098C20.0379 14.9815 20.1768 14.912 20.2997 14.9548C20.428 14.9922 20.4975 15.1312 20.4547 15.2541C20.4547 15.2701 20.1715 16.1948 20.5029 17.4615C20.5349 17.5898 20.4601 17.7234 20.3318 17.7555C20.3104 17.7555 20.2891 17.7608 20.2731 17.7608V17.7662Z" fill="white"/>
<path d="M22.7155 14.4684C22.5872 14.4684 22.4804 14.3669 22.4751 14.2333C22.4751 14.2333 22.427 12.7421 21.5611 11.0905C20.4013 8.88309 18.4076 7.42395 15.6283 6.75051C15.5001 6.71844 15.42 6.59016 15.452 6.46189C15.4841 6.33361 15.6123 6.25344 15.7406 6.28551C19.3857 7.17275 21.155 9.27861 21.9941 10.8927C22.9081 12.6405 22.9507 14.1638 22.9561 14.2279C22.9561 14.3615 22.8545 14.4684 22.7209 14.4738C22.7209 14.4738 22.7209 14.4738 22.7156 14.4738L22.7155 14.4684Z" fill="white"/>
<path d="M15.7031 7.93705C15.6123 7.93705 15.5267 7.8836 15.4839 7.79809C15.4305 7.67516 15.484 7.53619 15.6016 7.4774C16.8577 6.90016 18.0975 7.18343 18.151 7.19412C18.2793 7.22619 18.3595 7.35447 18.3274 7.48274C18.2953 7.61102 18.167 7.69119 18.0388 7.65912C18.0281 7.65912 16.9004 7.40257 15.8047 7.91033C15.7726 7.92636 15.7352 7.93171 15.7031 7.93171V7.93705Z" fill="white"/>
<path d="M16.9536 8.71206C16.8628 8.71206 16.7773 8.65861 16.7346 8.57309C16.6811 8.45016 16.7345 8.3112 16.8521 8.2524C18.1082 7.67516 19.3482 7.95844 19.4016 7.96913C19.5299 8.0012 19.6101 8.12947 19.578 8.25775C19.546 8.38602 19.4177 8.4662 19.2894 8.43413C19.2787 8.43413 18.151 8.17758 17.0553 8.68534C17.0232 8.70137 16.9857 8.70671 16.9536 8.70671V8.71206Z" fill="white"/>
<path d="M18.0121 9.58326C17.9212 9.58326 17.8358 9.52981 17.793 9.4443C17.7396 9.32136 17.793 9.1824 17.9106 9.12361C19.1666 8.54636 20.4066 8.82964 20.4601 8.84033C20.5883 8.8724 20.6686 9.00068 20.6365 9.12895C20.6044 9.25723 20.4761 9.3374 20.3479 9.30533C20.3318 9.30533 19.2094 9.04878 18.1138 9.55654C18.0817 9.57257 18.0442 9.57792 18.0121 9.57792V9.58326Z" fill="white"/>
<path d="M21.3581 10.5133C21.3207 10.5133 21.2833 10.5026 21.2459 10.4865C21.2352 10.4812 20.6527 10.1926 19.4768 10.3102C19.3432 10.3208 19.2255 10.2246 19.2148 10.0964C19.2041 9.96274 19.3004 9.84515 19.4287 9.83446C20.7649 9.70619 21.4384 10.0536 21.4651 10.0643C21.5827 10.1284 21.6254 10.2727 21.5666 10.3903C21.5239 10.4705 21.4383 10.5186 21.3527 10.5186L21.3581 10.5133Z" fill="white"/>
<path d="M19.9736 12.4374C19.8667 12.4374 19.7706 12.3679 19.7438 12.261C19.7118 12.1327 19.7865 11.9991 19.9148 11.967C20.5722 11.7907 20.9784 11.8227 20.9944 11.8227C21.1281 11.8334 21.2244 11.951 21.2137 12.0846C21.203 12.2183 21.0853 12.3145 20.957 12.3038C20.9516 12.3038 20.6096 12.2824 20.043 12.432C20.0217 12.4374 20.0004 12.4427 19.979 12.4427L19.9736 12.4374Z" fill="white"/>
<path d="M21.9618 11.6196C21.9297 11.6196 21.903 11.6143 21.8709 11.6036C21.8603 11.6036 21.5448 11.4753 20.9622 11.4539C20.8286 11.4486 20.7271 11.3364 20.7324 11.2027C20.7378 11.0691 20.85 10.9676 20.9836 10.9729C21.6678 10.9996 22.0419 11.1493 22.0579 11.16C22.1809 11.2081 22.2397 11.3524 22.1862 11.4753C22.1488 11.5662 22.058 11.625 21.9618 11.625V11.6196Z" fill="white"/>
<path d="M19.3377 13.6453C19.2735 13.6453 19.2093 13.6186 19.1612 13.5705C19.0704 13.4743 19.0757 13.3193 19.1719 13.2284C19.5781 12.8489 19.9844 12.6565 20.0004 12.6512C20.1233 12.5977 20.2622 12.6512 20.321 12.7688C20.3745 12.8917 20.321 13.0307 20.2035 13.0895C20.2035 13.0895 19.8453 13.2551 19.4979 13.5812C19.4498 13.6239 19.3911 13.6453 19.3323 13.6453H19.3377Z" fill="white"/>
<path d="M33.1542 14.4684C33.1061 14.4684 33.0633 14.4577 33.0206 14.4257C30.6528 12.8276 28.2263 12.3359 25.8158 12.9665C24.0092 13.4369 22.8868 14.399 22.8761 14.4043C22.7746 14.4898 22.625 14.4791 22.5394 14.3776C22.4539 14.276 22.4645 14.1264 22.5607 14.0409C22.6088 13.9981 23.7633 13.0093 25.6714 12.5069C27.4299 12.0419 30.1771 11.9296 33.2878 14.0248C33.4001 14.0996 33.4268 14.2493 33.352 14.3562C33.3039 14.4257 33.229 14.4631 33.1542 14.4631V14.4684Z" fill="white"/>
<path d="M32.2719 15.2488C32.1704 15.2488 32.0741 15.1846 32.042 15.0831C31.6786 13.9286 30.7325 13.2658 30.7218 13.2605C30.615 13.1857 30.583 13.036 30.6578 12.9238C30.7326 12.8169 30.8822 12.7848 30.9891 12.8596C31.0318 12.8917 32.0795 13.6133 32.4964 14.9334C32.5391 15.0617 32.4643 15.1953 32.3413 15.2327C32.3146 15.2381 32.2933 15.2434 32.2666 15.2434L32.2719 15.2488Z" fill="white"/>
<path d="M30.8558 14.8479C30.7542 14.8479 30.658 14.7838 30.626 14.6822C30.2572 13.5224 29.3165 12.865 29.3058 12.8596C29.1936 12.7848 29.1668 12.6352 29.2416 12.5229C29.3164 12.4107 29.4662 12.3839 29.5784 12.4588C29.6212 12.4908 30.6688 13.2124 31.0857 14.5326C31.1284 14.6608 31.0536 14.7945 30.9306 14.8319C30.9039 14.8372 30.8825 14.8426 30.8558 14.8426V14.8479Z" fill="white"/>
<path d="M29.4983 14.6555C29.3967 14.6555 29.3004 14.5914 29.2684 14.4898C28.9049 13.3353 27.9589 12.6726 27.9482 12.6672C27.8413 12.5924 27.8093 12.4427 27.8841 12.3305C27.959 12.2236 28.1086 12.1915 28.2155 12.2664C28.2582 12.2984 29.3058 13.02 29.7227 14.3402C29.7655 14.4684 29.6906 14.6021 29.5677 14.6395C29.541 14.6448 29.5197 14.6502 29.4929 14.6502L29.4983 14.6555Z" fill="white"/>
<path d="M27.777 13.8752C27.6969 13.8752 27.6168 13.8377 27.574 13.7629C27.0449 12.9131 26.5745 12.7902 26.5745 12.7902C26.4462 12.7634 26.3607 12.6405 26.3875 12.5069C26.4142 12.3786 26.5371 12.2931 26.6708 12.3198C26.7349 12.3305 27.3388 12.4802 27.9856 13.5117C28.055 13.6239 28.0229 13.7736 27.9107 13.8431C27.8732 13.8698 27.8251 13.8805 27.7824 13.8805L27.777 13.8752Z" fill="white"/>
<path d="M26.5053 15.5267C26.3984 15.5267 26.3022 15.4572 26.2755 15.3503C25.9976 14.3883 25.5325 14.1531 25.5271 14.1531C25.4042 14.0996 25.3508 13.9607 25.4042 13.8377C25.4577 13.7148 25.602 13.6614 25.725 13.7148C25.7945 13.7469 26.4037 14.0408 26.7404 15.2167C26.7778 15.345 26.703 15.4786 26.5747 15.516C26.5533 15.5214 26.532 15.5267 26.5106 15.5267H26.5053Z" fill="white"/>
<path d="M22.7155 14.4684C22.6781 14.4684 22.6461 14.4631 22.6087 14.4417C22.4911 14.3829 22.4377 14.2386 22.4965 14.121C22.5232 14.0622 23.202 12.6993 24.7627 11.4967C26.2004 10.385 28.6857 9.20913 32.3683 9.92533C32.4966 9.95206 32.5822 10.075 32.5608 10.2086C32.5341 10.3369 32.4111 10.4224 32.2775 10.401C29.4715 9.85585 27.0503 10.3476 25.0727 11.8655C23.5922 13.004 22.9348 14.3241 22.9294 14.3348C22.8867 14.4203 22.801 14.4684 22.7155 14.4684Z" fill="white"/>
<path d="M31.8229 11.4646C31.7535 11.4646 31.6893 11.4379 31.6412 11.3791C30.8501 10.4545 29.7278 10.2193 29.7171 10.214C29.5888 10.1872 29.5033 10.059 29.53 9.93068C29.5567 9.8024 29.685 9.71688 29.8133 9.74361C29.8667 9.7543 31.1121 10.0162 32.0101 11.0638C32.0956 11.1653 32.0849 11.315 31.9833 11.4005C31.9405 11.4379 31.8817 11.4593 31.8283 11.4593L31.8229 11.4646Z" fill="white"/>
<path d="M30.3642 11.6464C30.2947 11.6464 30.2305 11.6196 30.1824 11.5608C29.3967 10.6415 28.269 10.401 28.2583 10.3957C28.1301 10.3689 28.0445 10.2407 28.0712 10.1124C28.0979 9.98412 28.2209 9.8986 28.3545 9.92533C28.408 9.93602 29.6534 10.1979 30.5513 11.2455C30.6368 11.3471 30.6261 11.4967 30.5245 11.5822C30.4818 11.6196 30.423 11.641 30.3695 11.641L30.3642 11.6464Z" fill="white"/>
<path d="M29.0383 11.9991C28.9688 11.9991 28.9046 11.9724 28.8565 11.9136C28.0655 10.989 26.9432 10.7538 26.9325 10.7484C26.8042 10.7217 26.7186 10.5934 26.7453 10.4652C26.7721 10.3369 26.9004 10.2514 27.0286 10.2781C27.0821 10.2888 28.3275 10.5507 29.2254 11.5983C29.3109 11.6998 29.3002 11.8495 29.1987 11.935C29.1559 11.9724 29.0971 11.9938 29.0436 11.9938L29.0383 11.9991Z" fill="white"/>
<path d="M27.4244 12.0686C27.3816 12.0686 27.3389 12.0579 27.3015 12.0312C26.2806 11.4058 25.6392 11.4646 25.6338 11.4646C25.5055 11.4807 25.3826 11.3845 25.3666 11.2562C25.3505 11.1279 25.4415 11.005 25.5751 10.9889C25.6072 10.9889 26.3661 10.8981 27.5526 11.6196C27.6649 11.6891 27.7023 11.8388 27.6328 11.951C27.59 12.0258 27.5099 12.0633 27.4297 12.0633L27.4244 12.0686Z" fill="white"/>
<path d="M32.3898 18.3915C32.315 18.3915 32.2348 18.3541 32.192 18.2846C30.5886 15.9062 28.5201 14.5379 26.0401 14.2226C24.1961 13.9874 22.8119 14.4524 22.7959 14.4577C22.6676 14.5005 22.534 14.4364 22.4912 14.3081C22.4484 14.1852 22.5126 14.0462 22.6409 14.0034C22.6997 13.9821 24.1428 13.501 26.099 13.7469C27.9002 13.9767 30.4923 14.9067 32.5875 18.0174C32.6623 18.1296 32.6303 18.2793 32.5234 18.3488C32.4807 18.3755 32.4379 18.3915 32.3898 18.3915Z" fill="white"/>
<path d="M31.2781 18.7817C31.2781 18.7817 31.2674 18.7817 31.2567 18.7817C31.123 18.771 31.0269 18.6534 31.0376 18.5252C31.1338 17.3119 30.5031 16.3498 30.4977 16.3391C30.4229 16.2269 30.455 16.0772 30.5673 16.0077C30.6795 15.9329 30.8291 15.965 30.8986 16.0772C30.9307 16.12 31.6254 17.189 31.5186 18.5679C31.5079 18.6962 31.401 18.7871 31.2781 18.7871V18.7817Z" fill="white"/>
<path d="M30.1182 17.8784C30.1182 17.8784 30.1075 17.8784 30.0968 17.8784C29.9631 17.8677 29.867 17.7502 29.8777 17.6219C29.9739 16.4086 29.3432 15.4465 29.3378 15.4358C29.263 15.3236 29.295 15.174 29.4073 15.1045C29.5195 15.0296 29.6692 15.0617 29.7387 15.174C29.7708 15.2167 30.4656 16.2857 30.3587 17.6646C30.348 17.7929 30.2411 17.8838 30.1182 17.8838V17.8784Z" fill="white"/>
<path d="M28.9314 17.1889C28.9314 17.1889 28.9207 17.1889 28.91 17.1889C28.7764 17.1782 28.6802 17.0607 28.6909 16.9324C28.7871 15.7245 28.1564 14.757 28.1511 14.7464C28.0763 14.6341 28.1083 14.4845 28.2205 14.415C28.3327 14.3401 28.4825 14.3722 28.5519 14.4845C28.584 14.5272 29.2788 15.5962 29.1719 16.9751C29.1612 17.1034 29.0543 17.1943 28.9314 17.1943V17.1889Z" fill="white"/>
<path d="M27.697 16.5903C27.697 16.5903 27.6969 16.5903 27.6916 16.5903C27.558 16.5903 27.4565 16.4727 27.4565 16.3445C27.4939 15.1579 26.7509 14.3081 26.7456 14.2974C26.6547 14.1958 26.6654 14.0462 26.767 13.9553C26.8685 13.8698 27.0181 13.8752 27.109 13.9767C27.1464 14.0195 27.9856 14.9815 27.9428 16.3552C27.9428 16.4834 27.8306 16.5903 27.7023 16.5903H27.697Z" fill="white"/>
<path d="M29.4768 22.4215C29.3538 22.4215 29.2522 22.3307 29.2361 22.2077C28.9154 19.3589 27.7129 17.1889 25.6658 15.7619C24.1372 14.6983 22.6995 14.4684 22.6835 14.4684C22.5499 14.447 22.4643 14.3241 22.4803 14.1958C22.5017 14.0622 22.6247 13.9767 22.7529 13.9927C22.8171 14.0034 24.3189 14.2386 25.9384 15.3664C27.4296 16.4032 29.295 18.4236 29.7119 22.1543C29.7279 22.2879 29.6318 22.4055 29.4982 22.4215C29.4875 22.4215 29.4821 22.4215 29.4714 22.4215H29.4768Z" fill="white"/>
<path d="M28.3063 22.2558C28.2636 22.2558 28.2208 22.2451 28.1781 22.2184C28.0658 22.1489 28.0338 21.9993 28.1033 21.887C28.75 20.8555 28.6378 19.7117 28.6378 19.701C28.6217 19.5674 28.7179 19.4498 28.8515 19.4391C28.9851 19.4231 29.1027 19.5193 29.1134 19.6529C29.1188 19.7064 29.2417 20.9731 28.5095 22.1436C28.4614 22.2184 28.3865 22.2558 28.3063 22.2558Z" fill="white"/>
<path d="M27.6968 20.9196C27.6541 20.9196 27.6113 20.9089 27.5686 20.8822C27.4563 20.8127 27.4243 20.6631 27.4938 20.5508C28.1405 19.5193 28.0283 18.3755 28.0283 18.3648C28.0123 18.2312 28.1084 18.1136 28.242 18.1029C28.3756 18.0869 28.4932 18.1831 28.5039 18.3167C28.5093 18.3701 28.6321 19.6369 27.8999 20.8074C27.8518 20.8822 27.777 20.9196 27.6968 20.9196Z" fill="white"/>
<path d="M26.9649 19.7545C26.9221 19.7545 26.8793 19.7438 26.8366 19.7171C26.7243 19.6476 26.6923 19.4979 26.7618 19.3857C27.4032 18.3595 27.2963 17.2103 27.2963 17.1996C27.2803 17.066 27.3764 16.9484 27.51 16.9377C27.6437 16.9217 27.7612 17.0179 27.7719 17.1515C27.7773 17.205 27.9003 18.4717 27.168 19.6422C27.1199 19.7171 27.045 19.7545 26.9649 19.7545Z" fill="white"/>
<path d="M26.1472 18.6534C26.1098 18.6534 26.0669 18.6427 26.0295 18.6214C25.9119 18.5572 25.8745 18.4076 25.9387 18.2953C26.5213 17.2584 26.2594 16.1841 26.2594 16.1734C26.2274 16.0451 26.3074 15.9115 26.4357 15.8795C26.564 15.8474 26.6976 15.9276 26.7297 16.0558C26.7404 16.1093 27.0397 17.3333 26.3609 18.5305C26.3182 18.6107 26.2327 18.6534 26.1525 18.6534H26.1472Z" fill="white"/>
<path d="M25.1634 17.7662C25.1634 17.7662 25.1206 17.7662 25.1045 17.7608C24.9763 17.7288 24.9015 17.5952 24.9336 17.4669C25.2703 16.1895 24.987 15.2702 24.9816 15.2595C24.9442 15.1312 25.0137 14.9976 25.1366 14.9602C25.2649 14.9227 25.3986 14.9922 25.436 15.1152C25.452 15.1579 25.762 16.1788 25.3932 17.5898C25.3665 17.6967 25.2649 17.7715 25.1634 17.7715V17.7662Z" fill="white"/>
<path d="M22.7155 14.4684C22.7155 14.4684 22.7154 14.4684 22.7101 14.4684C22.5765 14.4684 22.4749 14.3562 22.4749 14.2226C22.4749 14.1584 22.5231 12.6352 23.437 10.8874C24.2762 9.27327 26.0453 7.16741 29.6904 6.28017C29.8187 6.2481 29.947 6.32827 29.9791 6.45655C30.0112 6.58482 29.9309 6.7131 29.8027 6.74517C27.0234 7.41861 25.0298 8.88309 23.87 11.0852C23.0041 12.7367 22.9561 14.2119 22.9561 14.2279C22.9561 14.3562 22.8437 14.4631 22.7154 14.4631L22.7155 14.4684Z" fill="white"/>
<path d="M29.7334 7.93706C29.7013 7.93706 29.6639 7.93171 29.6319 7.91568C28.5308 7.40792 27.4083 7.66447 27.3977 7.66447C27.2694 7.69654 27.1411 7.61637 27.109 7.48275C27.0769 7.35447 27.1572 7.22619 27.2854 7.19413C27.3389 7.18344 28.5789 6.90016 29.8349 7.4774C29.9579 7.53085 30.0059 7.67516 29.9525 7.79809C29.9097 7.88361 29.8243 7.93706 29.7334 7.93706Z" fill="white"/>
<path d="M28.4827 8.71206C28.4506 8.71206 28.4132 8.70672 28.3811 8.69068C27.2801 8.18292 26.1577 8.43948 26.1471 8.43948C26.0188 8.47155 25.8905 8.39137 25.8584 8.25775C25.8263 8.12948 25.9064 8.0012 26.0347 7.96913C26.0881 7.95844 27.3282 7.67517 28.5842 8.25241C28.7071 8.30586 28.7552 8.45017 28.7018 8.5731C28.659 8.65861 28.5735 8.71206 28.4827 8.71206Z" fill="white"/>
<path d="M27.4244 9.58326C27.3923 9.58326 27.355 9.57792 27.3229 9.56188C26.2219 9.05413 25.0995 9.31068 25.0888 9.31068C24.9605 9.34275 24.8322 9.26258 24.8002 9.12895C24.7681 9.00068 24.8482 8.8724 24.9764 8.84033C25.0299 8.82964 26.2699 8.54637 27.5259 9.12361C27.6489 9.17706 27.697 9.32137 27.6435 9.4443C27.6007 9.52982 27.5153 9.58326 27.4244 9.58326Z" fill="white"/>
<path d="M24.0785 10.5133C23.993 10.5133 23.9075 10.4652 23.8647 10.385C23.8059 10.2674 23.8487 10.1231 23.9663 10.0643C23.993 10.0483 24.6665 9.7062 26.0027 9.83447C26.1363 9.84516 26.2324 9.96275 26.2164 10.0964C26.2057 10.23 26.0828 10.3262 25.9545 10.3102C24.7733 10.1979 24.1907 10.4865 24.1853 10.4865C24.1479 10.5026 24.1105 10.5133 24.0731 10.5133H24.0785Z" fill="white"/>
<path d="M25.4627 12.4374C25.4627 12.4374 25.4199 12.4374 25.3985 12.4267C24.832 12.2717 24.4899 12.2984 24.4846 12.2984C24.3563 12.3091 24.2387 12.2076 24.228 12.0793C24.2173 11.9457 24.3135 11.8334 24.4471 11.8227C24.4632 11.8227 24.864 11.7907 25.5268 11.9671C25.6551 11.9991 25.7299 12.1327 25.6979 12.261C25.6711 12.3679 25.5696 12.4374 25.4681 12.4374H25.4627Z" fill="white"/>
<path d="M23.4746 11.6196C23.3784 11.6196 23.2875 11.5608 23.25 11.47C23.2019 11.3471 23.2607 11.2081 23.3783 11.16C23.3944 11.1546 23.7685 11.005 24.4526 10.9729C24.5863 10.9729 24.6985 11.0691 24.7038 11.2027C24.7092 11.3364 24.6077 11.4486 24.474 11.454C23.8861 11.4753 23.5654 11.6036 23.5654 11.6036C23.5387 11.6143 23.5067 11.6196 23.4746 11.6196Z" fill="white"/>
<path d="M26.099 13.6453C26.0402 13.6453 25.9814 13.6239 25.9333 13.5812C25.5805 13.2498 25.233 13.0895 25.2277 13.0895C25.1048 13.036 25.0567 12.8917 25.1101 12.7688C25.1636 12.6458 25.3079 12.5977 25.4309 12.6512C25.4469 12.6565 25.8531 12.849 26.2593 13.2284C26.3556 13.3193 26.3609 13.4689 26.27 13.5705C26.2219 13.6186 26.1578 13.6453 26.0936 13.6453H26.099Z" fill="white"/>
<path d="M21.47 29.9738C21.47 29.9738 21.4647 30.0165 21.4593 30.0165C21.3257 30.0112 21.2241 30.0913 21.2294 29.9577L21.8602 13.9286C21.8655 13.795 21.9777 13.6934 22.1114 13.6988C22.245 13.7041 22.3465 13.8164 22.3412 13.95L21.7105 29.9791C21.7105 30.1074 21.5983 29.9791 21.47 29.9791V29.9738Z" fill="white"/>
<path d="M23.966 30.102C23.8377 30.102 23.7308 30.102 23.7255 29.9738L23.0947 13.9446C23.0894 13.811 23.191 13.6988 23.3246 13.6934C23.4582 13.6881 23.5705 13.7896 23.5758 13.9233L24.2065 29.9524C24.2118 30.086 24.1103 29.9631 23.9767 29.9684C23.9767 29.9684 23.9713 30.102 23.966 30.102Z" fill="white"/>
<path d="M22.7153 29.5194C19.5351 29.5194 16.7291 30.5029 15.0402 31.9994C15.1257 32.0422 15.2112 32.0903 15.3021 32.1331C15.3929 32.1758 15.4784 32.2239 15.5693 32.2667C17.1621 30.9465 19.7703 30.0807 22.7153 30.0807C25.6603 30.0807 28.2739 30.9465 29.8667 32.272C29.9576 32.2293 30.0431 32.1812 30.1339 32.1384C30.2195 32.0956 30.3103 32.0475 30.3958 32.0048C28.7069 30.5082 25.8954 29.5194 22.7153 29.5194Z" fill="white"/>
<path d="M16.1309 30.1929C15.6766 29.9738 15.1634 29.7226 14.1853 29.7226C13.2072 29.7226 12.7208 29.9577 12.2771 30.1769C12.4749 30.3372 12.6727 30.4922 12.8812 30.6472C13.2072 30.5082 13.5867 30.4013 14.1906 30.4013C15.0137 30.4013 15.4146 30.5991 15.8422 30.8022C16.0133 30.8824 16.1897 30.9732 16.3981 31.0481C16.6974 30.877 17.0126 30.7167 17.344 30.5724C16.8095 30.5136 16.4783 30.3586 16.1362 30.1929H16.1309Z" fill="#5EBDD4"/>
<path d="M32.1705 30.5991C31.3474 30.5991 30.9465 30.4013 30.5189 30.1982C30.0646 29.9791 29.5514 29.7279 28.5733 29.7279C27.7181 29.7279 27.2211 29.9203 26.8043 30.1127C27.157 30.2196 27.5044 30.3372 27.8304 30.4708C28.0389 30.4281 28.2793 30.4013 28.5733 30.4013C29.3964 30.4013 29.7973 30.5991 30.2249 30.8022C30.5937 30.9839 31.0106 31.1817 31.684 31.2458C32.0207 31.0267 32.3468 30.8022 32.6675 30.567C32.5179 30.5831 32.3574 30.5938 32.1757 30.5938L32.1705 30.5991Z" fill="#5EBDD4"/>
<path d="M22.7153 30.0807C19.7649 30.0807 17.1621 30.9465 15.5693 32.2667C15.9755 32.4591 16.3873 32.6355 16.8095 32.7958C18.1564 31.7482 20.2997 31.0641 22.7156 31.0641C25.1314 31.0641 27.2747 31.7482 28.627 32.8012C29.0492 32.6408 29.4605 32.4644 29.8667 32.272C28.2739 30.9519 25.6656 30.0807 22.7153 30.0807ZM17.4189 33.0203C19.0865 33.5815 20.8663 33.8969 22.7209 33.8969C24.5756 33.8969 26.3501 33.5869 28.0177 33.0257C26.767 32.1758 24.8535 31.636 22.7209 31.636C20.5883 31.636 18.6803 32.1758 17.4242 33.0257L17.4189 33.0203Z" fill="#192745"/>
<path d="M22.7156 31.0641C20.2997 31.0641 18.1564 31.7482 16.8095 32.7958C16.9057 32.8332 17.007 32.8706 17.1032 32.9081C17.2101 32.9455 17.3117 32.9775 17.4186 33.015C18.6693 32.1705 20.5773 31.6253 22.7152 31.6253C24.8532 31.6253 26.7614 32.1705 28.012 33.015C28.1189 32.9775 28.2258 32.9455 28.3273 32.9081C28.4289 32.8706 28.5251 32.8332 28.6213 32.7958C27.2744 31.7429 25.1258 31.0588 22.7099 31.0588L22.7156 31.0641Z" fill="white"/>
</svg>
