<svg width="40" height="35" viewBox="0 0 40 35" fill="none" xmlns="http://www.w3.org/2000/svg">
<g clip-path="url(#clip0_79_6063)">
<path d="M12.054 33.5706L10.5111 31.271H9.88398L9.89234 31.2878C9.93415 31.3507 9.97178 31.4095 10.0136 31.4682C10.0554 31.527 10.0889 31.5815 10.1223 31.6445C10.1599 31.7032 10.185 31.7662 10.2059 31.8249C10.2268 31.8879 10.2352 31.955 10.2352 32.0263V34.1455C10.2352 34.1958 10.2268 34.2462 10.2101 34.2966C10.1934 34.3469 10.1683 34.3931 10.139 34.435C10.1098 34.477 10.0721 34.519 10.0303 34.5525C9.9885 34.5861 9.93833 34.6113 9.8798 34.6281H9.87143V34.7288H10.7536V34.6323H10.7453C10.6324 34.5903 10.5446 34.5232 10.4819 34.4308C10.4192 34.3343 10.3899 34.2378 10.3899 34.1371V32.0473L12.1627 34.7246H12.8149L12.146 33.7091L13.3794 31.6487V34.3259C13.3794 34.3973 13.3543 34.4644 13.2999 34.5232C13.2456 34.5819 13.1745 34.6113 13.0867 34.6113H13.07V34.7204H14.2073V34.6113H14.1905C14.1027 34.6113 14.0316 34.5819 13.9773 34.5232C13.9229 34.4644 13.8937 34.3973 13.8937 34.3259V31.6613C13.8937 31.5899 13.9188 31.527 13.9689 31.4682C14.0191 31.4095 14.086 31.3801 14.1738 31.3801H14.2031V31.2668H13.417L12.0456 33.5664L12.054 33.5706ZM10.4735 28.5728H10.4526C10.3355 28.5686 10.2394 28.5308 10.1683 28.4553C10.0972 28.3797 10.0596 28.2958 10.0596 28.1951V24.5905C10.0596 24.4939 10.0972 24.4016 10.1683 24.3261C10.2436 24.2464 10.3355 24.2128 10.4526 24.217H10.4735V24.0617H9.44496C9.36552 24.0617 9.2819 24.0617 9.20246 24.0617C9.12301 24.0617 9.03939 24.0617 8.95995 24.0617H8.93904V24.2086H8.95995C9.08538 24.2128 9.18155 24.2506 9.25681 24.3261C9.32789 24.4016 9.36552 24.4897 9.36552 24.5905V28.1783C9.36552 28.279 9.32789 28.363 9.25681 28.4427C9.18155 28.5182 9.08538 28.5602 8.96413 28.5644H8.94323V28.7112H10.4735V28.5644V28.5728ZM7.98575 27.8972C7.52583 27.8972 7.08681 27.8132 6.6687 27.6412C6.25059 27.4691 5.87847 27.2425 5.55652 26.9614C5.81157 27.0159 6.06662 27.0411 6.33003 27.0411C6.61434 27.0411 6.87775 26.9991 7.12026 26.9194C7.35858 26.8397 7.56764 26.7264 7.73906 26.5795C7.91467 26.4326 8.04847 26.2564 8.14881 26.055C8.24916 25.8536 8.29515 25.627 8.29515 25.3836C8.29515 25.1528 8.24916 24.9555 8.14881 24.7919C8.05265 24.624 7.92303 24.4856 7.75579 24.3764C7.58854 24.2673 7.39621 24.1876 7.17879 24.1331C6.96138 24.0827 6.72723 24.0575 6.48055 24.0575H4.21856V24.2128H4.23947C4.29801 24.2086 4.35236 24.2128 4.39835 24.238C4.44853 24.2589 4.49034 24.2883 4.52797 24.3261C4.5656 24.3639 4.59068 24.4058 4.61159 24.4562C4.63249 24.5023 4.64086 24.5485 4.64086 24.5947V28.1909C4.64086 28.2371 4.63249 28.2832 4.61159 28.3294C4.59068 28.3755 4.5656 28.4175 4.52797 28.4553C4.49034 28.493 4.44853 28.5224 4.39835 28.5476C4.34818 28.5686 4.29382 28.577 4.23947 28.5728H4.21856V28.7196H5.74885V28.5728H5.72795C5.61088 28.577 5.51471 28.5392 5.44363 28.4595C5.37255 28.3797 5.33492 28.2916 5.33492 28.1951V27.1292C5.44363 27.3055 5.57325 27.4775 5.72795 27.6454C5.88265 27.8132 6.05407 27.9685 6.24641 28.1028C6.43456 28.2413 6.63943 28.3546 6.85685 28.4511C7.07427 28.5476 7.30005 28.6147 7.53837 28.6567H7.55091L8.42895 27.8762H8.37459C8.24916 27.8888 8.11955 27.8972 7.98575 27.8972ZM5.33492 24.2673H6.14606C6.41365 24.2673 6.63943 24.2967 6.81504 24.3597C6.99064 24.4226 7.13698 24.5065 7.24987 24.624C7.35858 24.7373 7.43802 24.88 7.47983 25.0479C7.52583 25.2157 7.54673 25.4045 7.54673 25.6186C7.54673 25.799 7.52165 25.9627 7.47565 26.1095C7.42966 26.2564 7.3544 26.3865 7.25406 26.4914C7.15371 26.6005 7.02409 26.6844 6.86103 26.739C6.69797 26.7977 6.50563 26.8271 6.28404 26.8271C6.12097 26.8271 5.96209 26.8187 5.80321 26.8019C5.64432 26.7851 5.48544 26.7558 5.33074 26.7222V24.2715L5.33492 24.2673ZM23.3095 24.2631C23.4726 24.2631 23.6231 24.2841 23.7695 24.3261C23.9158 24.3681 24.0496 24.431 24.1709 24.5065C24.2921 24.5863 24.405 24.6786 24.5012 24.7835C24.5973 24.8884 24.6768 25.0017 24.7395 25.1234L25.0071 25.6563L24.6768 24.0617H21.6246V24.0701H21.2023V24.217H21.2232C21.2775 24.2086 21.3277 24.217 21.3779 24.238C21.428 24.2589 21.4699 24.2925 21.5075 24.3303C21.5451 24.3681 21.5744 24.41 21.5953 24.4604C21.6162 24.5065 21.6246 24.5527 21.6246 24.5989V28.2035C21.6246 28.2916 21.5869 28.3797 21.5158 28.4595C21.4448 28.5392 21.3528 28.5812 21.2399 28.5812H21.1981V28.728H24.3381L24.6266 28.9588L25.0029 27.1334L24.7353 27.6664C24.6726 27.7881 24.5931 27.9014 24.497 28.0105C24.4008 28.1196 24.2921 28.2119 24.1667 28.2874C24.0454 28.363 23.9074 28.4259 23.7653 28.4679C23.6189 28.514 23.4684 28.535 23.3054 28.535H22.3103V26.4998H23.3054C23.4559 26.4998 23.598 26.5459 23.7235 26.6425C23.8489 26.7348 23.9325 26.8439 23.9702 26.9656V26.9782H24.1165V25.8284H23.9702V25.841C23.9325 25.9627 23.8531 26.0676 23.7235 26.1599C23.5939 26.2522 23.4559 26.2984 23.3054 26.2984H22.3103V24.2715H23.3054L23.3095 24.2631ZM17.3305 25.157C17.3891 25.0059 17.4685 24.8632 17.5647 24.7331C17.665 24.603 17.7863 24.4939 17.9326 24.41C18.0372 24.3471 18.1459 24.3009 18.2671 24.2631C18.3884 24.2296 18.5138 24.2128 18.6434 24.2128C18.7981 24.2128 18.9528 24.238 19.1033 24.2841C19.2539 24.3303 19.3918 24.3932 19.5215 24.4772C19.6511 24.5611 19.7723 24.6492 19.881 24.7541C19.9897 24.859 20.0817 24.9639 20.1528 25.0772L20.1653 25.0982L20.7507 24.5863L20.7382 24.5737C20.5082 24.3597 20.2448 24.2044 19.9396 24.1121C19.6343 24.0198 19.3166 23.9736 18.9779 23.9736C18.5598 23.9736 18.1919 24.0365 17.8699 24.1666C17.548 24.2925 17.2762 24.4688 17.0546 24.6912C16.833 24.9136 16.6657 25.1737 16.5529 25.4675C16.44 25.7654 16.3814 26.0802 16.3814 26.4117C16.3814 26.7012 16.4316 26.9866 16.5361 27.2719C16.6407 27.5573 16.7912 27.8174 16.9919 28.0482C17.1926 28.279 17.4434 28.4637 17.7361 28.6021C18.033 28.7448 18.3675 28.8162 18.7479 28.8162C19.0239 28.8162 19.2957 28.77 19.5549 28.6819C19.8141 28.5938 20.0315 28.4511 20.2113 28.2664C20.2531 28.2161 20.295 28.1573 20.3451 28.0902C20.3953 28.0231 20.4413 27.9517 20.4873 27.8762C20.5333 27.8006 20.5709 27.7293 20.6085 27.6538C20.6462 27.5782 20.6713 27.5153 20.688 27.4565V27.444L20.5416 27.3894L20.5333 27.4104C20.5124 27.5027 20.4538 27.6076 20.3577 27.7125C20.2657 27.8216 20.1737 27.9056 20.0817 27.9685C19.9479 28.0734 19.7974 28.1447 19.6302 28.1909C19.4629 28.2371 19.2873 28.258 19.1117 28.258C18.7772 28.258 18.4845 28.1909 18.242 28.0608C17.9995 27.9265 17.7988 27.7587 17.6399 27.5489C17.4811 27.3391 17.364 27.1083 17.2846 26.8481C17.2051 26.5879 17.1675 26.3361 17.1675 26.0885C17.1675 25.9459 17.18 25.7906 17.2051 25.6311C17.2302 25.4675 17.272 25.3122 17.3305 25.1612V25.157ZM3.29872 24.4016C3.15656 24.2967 2.9935 24.217 2.80117 24.1582C2.61301 24.0995 2.40814 24.0659 2.18654 24.0575C2.14473 24.0533 2.10292 24.0491 2.06111 24.0491H1.93567C1.61373 24.0491 1.29178 24.0491 0.978199 24.0491C0.660434 24.0491 0.342669 24.0491 0.0165418 24.0491H-0.00436381V24.2044H0.0165418C0.133613 24.196 0.229779 24.2338 0.305039 24.3135C0.380299 24.3974 0.417929 24.4855 0.417929 24.5779V28.1741C0.417929 28.2622 0.38448 28.3504 0.313401 28.4343C0.242322 28.5182 0.150338 28.5602 0.0332662 28.5602H-0.00854492V28.7071H1.52174V28.5602H1.50084C1.38377 28.5686 1.2876 28.5308 1.21652 28.4427C1.14544 28.3546 1.10781 28.2664 1.10781 28.1783V27.5111L2.91824 26.6425C3.2151 26.4998 3.42415 26.311 3.55377 26.0718C3.68338 25.8368 3.75028 25.5808 3.75028 25.2996C3.75028 25.1024 3.70847 24.9262 3.62485 24.7751C3.54122 24.624 3.42833 24.4939 3.29036 24.3932L3.29872 24.4016ZM2.88897 26.1977C2.80953 26.3949 2.65901 26.5501 2.42905 26.6676C2.39142 26.6886 2.35379 26.7096 2.31616 26.7264C2.27434 26.7432 2.23671 26.7642 2.1949 26.7851C2.01512 26.8691 1.83533 26.953 1.65972 27.0327C1.48411 27.1124 1.30014 27.2006 1.11618 27.2887V24.2506H1.66808C1.80188 24.2506 1.93567 24.2631 2.06529 24.2883C2.1949 24.3135 2.31616 24.3513 2.42905 24.4016C2.54194 24.452 2.6381 24.5191 2.72172 24.5989C2.80535 24.6786 2.86806 24.7793 2.91406 24.8968C2.95587 25.0017 2.98095 25.1066 2.9935 25.2115C3.00604 25.3164 3.0144 25.4255 3.0144 25.5304C3.0144 25.778 2.97677 26.0004 2.89733 26.1935L2.88897 26.1977ZM15.4114 29.0218V24.8548C15.4114 24.7877 15.424 24.7205 15.4449 24.6534C15.4658 24.5863 15.4992 24.5233 15.5368 24.4604C15.5787 24.4016 15.6246 24.3471 15.6832 24.3009C15.7417 24.2548 15.8086 24.2212 15.8839 24.2002L15.8964 24.1918V24.0575H14.709V24.1918L14.7215 24.2002C14.7968 24.217 14.8679 24.2506 14.9264 24.2967C14.9849 24.3429 15.0351 24.3974 15.0769 24.4604C15.1187 24.5191 15.148 24.5863 15.1689 24.6534C15.1898 24.7205 15.1982 24.7877 15.1982 24.8548V27.6622L12.4554 24.4352C12.4052 24.3764 12.3634 24.3177 12.3216 24.2548C12.2798 24.196 12.2463 24.1289 12.2129 24.0617L12.2045 24.0533H10.9627L11.0171 24.0785C11.1467 24.154 11.2637 24.238 11.3641 24.3261C11.4686 24.4142 11.5648 24.5107 11.661 24.6198V27.9391C11.661 28.0692 11.6191 28.1993 11.5397 28.3294C11.4603 28.4595 11.3432 28.5476 11.1927 28.5938L11.1801 28.6021V28.7364H12.3592V28.6021L12.3467 28.5938C12.1961 28.5476 12.0791 28.4595 11.9996 28.3294C11.9202 28.1993 11.8784 28.0692 11.8784 27.9391V24.8674L15.4072 29.0176L15.4114 29.0218ZM33.0139 26.4956C32.8759 26.3865 32.7129 26.2984 32.5289 26.227C32.3449 26.1557 32.1484 26.0927 31.9477 26.0466C31.7679 26.0004 31.6007 25.9543 31.4418 25.8997C31.2829 25.8452 31.145 25.778 31.0279 25.6983C30.9108 25.6186 30.8146 25.5178 30.7477 25.4003C30.6767 25.2829 30.6432 25.1318 30.6432 24.9513C30.6432 24.838 30.6558 24.7331 30.685 24.6366C30.7143 24.5359 30.7603 24.452 30.8272 24.3764C30.8899 24.3009 30.9777 24.2422 31.0781 24.2002C31.1826 24.1582 31.308 24.1373 31.4544 24.1373C31.6091 24.1373 31.7638 24.1666 31.9059 24.2212C32.0523 24.2757 32.1819 24.3513 32.2989 24.4436C32.416 24.5359 32.5164 24.6408 32.6 24.7583C32.6836 24.8758 32.7463 25.0017 32.7881 25.1234L32.7965 25.1486L33.4278 24.5821L33.4153 24.5695C33.2146 24.3555 32.9637 24.1918 32.6711 24.0827C32.3742 23.9736 32.069 23.919 31.7512 23.919C31.5129 23.919 31.2913 23.9442 31.0822 23.9988C30.8732 24.0533 30.6892 24.1331 30.5303 24.2422C30.3756 24.3513 30.2502 24.4856 30.1582 24.6492C30.0662 24.8129 30.0202 25.0017 30.0202 25.2199C30.0202 25.4381 30.062 25.6228 30.1457 25.778C30.2293 25.9333 30.3422 26.0718 30.4885 26.1851C30.6349 26.2984 30.8021 26.3949 30.9944 26.4746C31.1868 26.5543 31.3916 26.6215 31.6049 26.6718C31.6801 26.6928 31.7596 26.7138 31.8348 26.7348C31.9143 26.7558 31.9895 26.7767 32.0648 26.7977C32.1777 26.8271 32.2822 26.8691 32.3784 26.911C32.4745 26.9572 32.5624 27.0117 32.6334 27.0789C32.7045 27.146 32.763 27.2299 32.8007 27.3265C32.8425 27.423 32.8592 27.5405 32.8592 27.6748C32.8592 27.8006 32.8425 27.9181 32.809 28.0314C32.7756 28.1447 32.7212 28.2413 32.6502 28.3252C32.5791 28.4091 32.4829 28.4721 32.37 28.5224C32.2571 28.5686 32.1192 28.5938 31.9561 28.5938C31.793 28.5938 31.6467 28.5686 31.492 28.5182C31.3373 28.4679 31.1993 28.4007 31.0697 28.3168C30.9401 28.2329 30.8272 28.1322 30.7352 28.0189C30.6432 27.9056 30.5721 27.7839 30.5261 27.658L30.5178 27.6328L29.8948 28.1783L29.9073 28.1867C30.0161 28.2958 30.1373 28.3881 30.2711 28.4679C30.4049 28.5476 30.5471 28.6105 30.6976 28.6651C30.8481 28.7196 31.0028 28.7574 31.1659 28.7826C31.3289 28.8078 31.492 28.8204 31.6509 28.8204C31.9017 28.8204 32.1401 28.791 32.37 28.7322C32.6 28.6735 32.8049 28.5644 32.993 28.4091C33.1477 28.279 33.269 28.128 33.3484 27.9559C33.4278 27.7839 33.4697 27.6034 33.4697 27.4146C33.4697 27.2132 33.4278 27.0369 33.3442 26.89C33.2606 26.7432 33.1519 26.6131 33.0139 26.5082V26.4956ZM17.456 34.3721C17.456 34.3721 17.4434 34.3301 17.4351 34.3133C17.4267 34.2924 17.4183 34.2714 17.41 34.2546L16.1431 31.2542L16.1264 31.2626C16.0511 31.3004 15.9717 31.334 15.8964 31.3717C15.8212 31.4053 15.7417 31.4431 15.6665 31.485H15.6497L15.9131 31.9802L15.0686 33.9399C15.0518 33.9776 15.0351 34.0154 15.0226 34.049C15.01 34.0867 14.9933 34.1203 14.9766 34.1539C14.9264 34.2714 14.8679 34.3679 14.7968 34.4476C14.7257 34.5274 14.6295 34.5903 14.5041 34.6365H14.4957V34.733H15.2316V34.6449H15.2233C15.1689 34.6197 15.1313 34.5903 15.102 34.5441C15.0769 34.5022 15.0602 34.456 15.0602 34.4057C15.0602 34.3889 15.0602 34.3721 15.0644 34.3553C15.0686 34.3385 15.0727 34.3217 15.0811 34.305L15.2609 33.8895H16.6908C16.6992 33.9147 16.7159 33.9483 16.7368 33.9986C16.7577 34.049 16.7786 34.0993 16.7995 34.1539C16.8204 34.2084 16.8414 34.2588 16.8539 34.305C16.8706 34.3511 16.8748 34.3889 16.8748 34.4057C16.8748 34.4602 16.8539 34.5064 16.8163 34.5525C16.7745 34.5987 16.7243 34.6197 16.6574 34.6197H16.5989V34.7288H17.8783V34.6197H17.8615C17.6567 34.6197 17.5145 34.5357 17.4434 34.3679L17.456 34.3721ZM16.6239 33.7426H15.3362C15.449 33.4783 15.5619 33.2181 15.6706 32.9579C15.7835 32.6978 15.8922 32.4376 16.0051 32.1732C16.1097 32.4334 16.21 32.6894 16.3145 32.9453C16.4191 33.2013 16.5236 33.4573 16.6281 33.7175H16.6072L16.6239 33.7426ZM29.0878 34.1203C28.745 34.1203 28.4189 34.0574 28.1095 33.9315C27.8001 33.8056 27.5241 33.6377 27.2858 33.4279C27.4739 33.4699 27.6663 33.4867 27.8586 33.4867C28.0718 33.4867 28.2642 33.4573 28.444 33.3985C28.6196 33.3398 28.7743 33.2559 28.9039 33.1468C29.0335 33.0377 29.1338 32.9076 29.2091 32.7565C29.2802 32.6054 29.3178 32.4376 29.3178 32.2571C29.3178 32.0893 29.2802 31.9424 29.2091 31.8165C29.138 31.6948 29.0419 31.5899 28.9164 31.5102C28.7952 31.4305 28.6488 31.3675 28.4899 31.3298C28.3269 31.292 28.1555 31.271 27.9715 31.271H26.2949V31.3843H26.3116C26.3534 31.3843 26.3952 31.3843 26.4328 31.4011C26.4705 31.4179 26.4997 31.4389 26.529 31.464C26.5541 31.4934 26.575 31.5228 26.5917 31.5606C26.6084 31.5941 26.6126 31.6319 26.6126 31.6613V34.3301C26.6126 34.3637 26.6043 34.3973 26.5917 34.4308C26.575 34.4644 26.5541 34.498 26.529 34.5274C26.5039 34.5567 26.4705 34.5777 26.4328 34.5945C26.3952 34.6113 26.3576 34.6197 26.3116 34.6155H26.2949V34.7246H27.4321V34.6155H27.4154C27.3276 34.6155 27.2565 34.5903 27.2022 34.5316C27.1478 34.4728 27.1185 34.4057 27.1185 34.3385V33.5496C27.198 33.6797 27.2941 33.8056 27.4112 33.9315C27.5241 34.0574 27.6537 34.1707 27.7959 34.2714C27.938 34.3721 28.0886 34.4602 28.2474 34.5316C28.4063 34.6029 28.5777 34.6532 28.7534 34.6826H28.7617L29.414 34.1035H29.3722C29.2802 34.1119 29.184 34.1203 29.0837 34.1203H29.0878ZM27.1227 31.4263H27.7248C27.9255 31.4263 28.0886 31.4473 28.2224 31.4934C28.3561 31.5396 28.4607 31.6025 28.5443 31.6864C28.6279 31.7704 28.6823 31.8753 28.7157 32.0012C28.7492 32.1271 28.7659 32.2655 28.7659 32.425C28.7659 32.5593 28.7492 32.681 28.7115 32.7901C28.6739 32.8992 28.6237 32.9957 28.5485 33.0754C28.4732 33.1552 28.3771 33.2181 28.2558 33.2601C28.1346 33.302 27.9924 33.323 27.8293 33.323C27.7081 33.323 27.591 33.3146 27.4739 33.302C27.3569 33.2894 27.2398 33.2685 27.1227 33.2433V31.4221V31.4263ZM34.9121 24.1498C34.8745 24.1037 34.8285 24.0659 34.7742 24.0365C34.7198 24.0072 34.6529 23.9946 34.5776 23.9946C34.4439 23.9946 34.3351 24.0407 34.2515 24.1331C34.1679 24.2254 34.1261 24.3219 34.1261 24.4268C34.1261 24.5317 34.1386 24.5989 34.1679 24.6408C34.193 24.687 34.2306 24.7205 34.2766 24.7499C34.3184 24.7667 34.3644 24.7877 34.4188 24.8087C34.4731 24.838 34.5191 24.88 34.5609 24.922C34.5693 24.9346 34.5818 24.9471 34.5902 24.9639C34.5986 24.9807 34.6069 24.9933 34.6069 25.0101C34.6069 25.0604 34.5944 25.1108 34.5651 25.157C34.5358 25.2031 34.5024 25.2535 34.4564 25.2996C34.4146 25.3458 34.3728 25.3878 34.3226 25.4297C34.2724 25.4717 34.2306 25.5137 34.1972 25.5472L34.1721 25.5724H34.4188C34.4857 25.522 34.5526 25.4633 34.6195 25.3878C34.6864 25.3122 34.7491 25.2367 34.8034 25.1528C34.8578 25.0688 34.9038 24.9849 34.9414 24.8968C34.979 24.8087 34.9999 24.7289 35.0083 24.6492C35.0125 24.6198 35.0167 24.5863 35.0167 24.5569V24.4646C35.0167 24.41 35.0083 24.3555 34.9916 24.3009C34.9749 24.2464 34.9498 24.1918 34.9163 24.1456L34.9121 24.1498ZM39.1225 26.8817C39.0389 26.7348 38.9302 26.6047 38.7922 26.4998C38.6542 26.3907 38.4912 26.3026 38.3072 26.2312C38.1232 26.1599 37.9267 26.0969 37.726 26.0508C37.5462 26.0046 37.379 25.9585 37.2201 25.9039C37.0612 25.8494 36.9233 25.7822 36.8062 25.7025C36.6891 25.6228 36.5929 25.522 36.5261 25.4045C36.455 25.287 36.4215 25.136 36.4215 24.9555C36.4215 24.8422 36.4341 24.7373 36.4633 24.6408C36.4926 24.5401 36.5386 24.4562 36.6055 24.3806C36.6682 24.3051 36.756 24.2464 36.8564 24.2044C36.9609 24.1624 37.0863 24.1415 37.2327 24.1415C37.3874 24.1415 37.5421 24.1708 37.6842 24.2254C37.8306 24.2799 37.9602 24.3555 38.0772 24.4478C38.1943 24.5401 38.2947 24.645 38.3783 24.7625C38.4619 24.88 38.5246 25.0059 38.5664 25.1276L38.5748 25.1528L39.2061 24.5863L39.1936 24.5737C38.9929 24.3597 38.742 24.196 38.4494 24.0869C38.1567 23.9778 37.8473 23.9232 37.5295 23.9232C37.2912 23.9232 37.0696 23.9484 36.8605 24.003C36.6515 24.0575 36.4675 24.1373 36.3086 24.2464C36.1539 24.3555 36.0285 24.4897 35.9365 24.6534C35.8445 24.8171 35.7985 25.0059 35.7985 25.2241C35.7985 25.4423 35.8403 25.627 35.924 25.7822C36.0076 25.9375 36.1205 26.076 36.2668 26.1893C36.4132 26.3026 36.5804 26.3991 36.7727 26.4788C36.9651 26.5585 37.1699 26.6257 37.3832 26.676C37.4584 26.697 37.5379 26.718 37.6131 26.739C37.6926 26.76 37.7678 26.7809 37.8431 26.8019C37.956 26.8313 38.0605 26.8733 38.1567 26.9152C38.2529 26.9614 38.3407 27.0159 38.4117 27.0831C38.4828 27.1502 38.5413 27.2341 38.579 27.3307C38.6208 27.4272 38.6375 27.5447 38.6375 27.679C38.6375 27.8048 38.6208 27.9223 38.5873 28.0356C38.5539 28.1489 38.4995 28.2455 38.4285 28.3294C38.3574 28.4133 38.2612 28.4763 38.1483 28.5266C38.0354 28.5728 37.8975 28.5979 37.7344 28.5979C37.5713 28.5979 37.425 28.5728 37.2703 28.5224C37.1156 28.4721 36.9776 28.4049 36.848 28.321C36.7184 28.2371 36.6055 28.1364 36.5135 28.0231C36.4215 27.9097 36.3504 27.7881 36.3045 27.6622L36.2961 27.637L35.6731 28.1825L35.6856 28.1909C35.7944 28.3 35.9156 28.3923 36.0494 28.4721C36.1832 28.5518 36.3254 28.6147 36.4759 28.6693C36.6264 28.7238 36.7811 28.7616 36.9442 28.7868C37.1072 28.812 37.2703 28.8246 37.4292 28.8246C37.68 28.8246 37.9184 28.7952 38.1483 28.7364C38.3783 28.6777 38.5832 28.5686 38.7713 28.4133C38.926 28.2832 39.0473 28.1322 39.1267 27.9601C39.2061 27.7881 39.248 27.6076 39.248 27.4188C39.248 27.2174 39.2061 27.0411 39.1225 26.8942V26.8817ZM20.8887 31.3717H20.897C20.9556 31.3885 21.0057 31.4137 21.0476 31.4473C21.0935 31.4808 21.1312 31.5228 21.1604 31.5689C21.1897 31.6151 21.2148 31.6613 21.2273 31.7116C21.2441 31.762 21.2483 31.8123 21.2483 31.8627V33.9483L19.212 31.5522C19.1744 31.5102 19.141 31.464 19.1117 31.4179C19.0824 31.3717 19.0532 31.3256 19.0323 31.2752H19.0281L18.1082 31.271L18.15 31.292C18.2462 31.3507 18.334 31.4095 18.4093 31.4724C18.4845 31.5354 18.5598 31.6109 18.6267 31.6906V34.1539C18.6267 34.2504 18.5974 34.3469 18.5389 34.4434C18.4804 34.5399 18.3925 34.6071 18.2797 34.6365H18.2713V34.7414H19.1493V34.6407H19.141C19.0281 34.6029 18.9403 34.5357 18.8817 34.4392C18.8232 34.3427 18.7939 34.2462 18.7939 34.1497V31.8711L21.4155 34.9512V31.8585C21.4155 31.8081 21.4239 31.7578 21.4406 31.7074C21.4573 31.6571 21.4824 31.6109 21.5117 31.5648C21.5409 31.5186 21.5786 31.4808 21.6204 31.4473C21.6622 31.4137 21.7124 31.3885 21.7709 31.3717H21.7793V31.2668H20.897V31.3675L20.8887 31.3717ZM26.9304 28.7784C27.0935 28.8036 27.2565 28.8162 27.4154 28.8162C27.6663 28.8162 27.9046 28.7868 28.1346 28.728C28.3645 28.6693 28.5694 28.5602 28.7575 28.4049C28.9122 28.2748 29.0335 28.1238 29.1129 27.9517C29.1924 27.7797 29.2342 27.5992 29.2342 27.4104C29.2342 27.209 29.1924 27.0327 29.1087 26.8858C29.0251 26.739 28.9164 26.6089 28.7784 26.504C28.6405 26.3949 28.4774 26.3068 28.2934 26.2354C28.1095 26.1641 27.9129 26.1011 27.7123 26.055C27.5325 26.0088 27.3652 25.9627 27.2063 25.9081C27.0475 25.8536 26.9095 25.7864 26.7924 25.7067C26.6753 25.627 26.5792 25.5262 26.5123 25.4087C26.4412 25.2912 26.4077 25.1402 26.4077 24.9597C26.4077 24.8464 26.4203 24.7415 26.4496 24.645C26.4788 24.5443 26.5248 24.4604 26.5917 24.3848C26.6544 24.3093 26.7422 24.2506 26.8426 24.2086C26.9471 24.1666 27.0725 24.1456 27.2189 24.1456C27.3736 24.1456 27.5283 24.175 27.6704 24.2296C27.8168 24.2841 27.9464 24.3597 28.0635 24.452C28.1805 24.5443 28.2809 24.6492 28.3645 24.7667C28.4481 24.8842 28.5108 25.0101 28.5527 25.1318L28.561 25.157L29.1924 24.5905L29.1798 24.5779C28.9791 24.3639 28.7283 24.2002 28.4356 24.0911C28.1429 23.982 27.8335 23.9274 27.5157 23.9274C27.2774 23.9274 27.0558 23.9526 26.8468 24.0072C26.6377 24.0617 26.4537 24.1415 26.2949 24.2506C26.1402 24.3597 26.0147 24.4939 25.9227 24.6576C25.8308 24.8213 25.7848 25.0101 25.7848 25.2283C25.7848 25.4465 25.8266 25.6311 25.9102 25.7864C25.9938 25.9417 26.1067 26.0802 26.253 26.1935C26.3994 26.3068 26.5666 26.4033 26.759 26.483C26.9513 26.5627 27.1562 26.6299 27.3694 26.6802C27.4447 26.7012 27.5241 26.7222 27.5994 26.7432C27.6788 26.7642 27.7541 26.7851 27.8293 26.8061C27.9422 26.8355 28.0467 26.8775 28.1429 26.9194C28.2391 26.9656 28.3269 27.0201 28.398 27.0873C28.469 27.1544 28.5276 27.2383 28.5652 27.3349C28.607 27.4314 28.6237 27.5489 28.6237 27.6831C28.6237 27.809 28.607 27.9265 28.5736 28.0398C28.5401 28.1531 28.4858 28.2497 28.4147 28.3336C28.3436 28.4175 28.2474 28.4804 28.1346 28.5308C28.0217 28.577 27.8837 28.6021 27.7206 28.6021C27.5576 28.6021 27.4112 28.577 27.2565 28.5266C27.1018 28.4763 26.9638 28.4091 26.8342 28.3252C26.7046 28.2413 26.5917 28.1405 26.4997 28.0272C26.4077 27.9139 26.3367 27.7923 26.2907 27.6664L26.2823 27.6412L25.6593 28.1867L25.6719 28.1951C25.7806 28.3042 25.9018 28.3965 26.0356 28.4763C26.1694 28.556 26.3116 28.6189 26.4621 28.6735C26.6126 28.728 26.7673 28.7658 26.9304 28.791V28.7784ZM25.3708 31.8039C25.2161 31.6403 25.0238 31.5102 24.798 31.4095C24.5722 31.313 24.3088 31.2626 24.012 31.2626C23.7151 31.2626 23.4559 31.313 23.2259 31.4095C23.0001 31.506 22.8078 31.6403 22.6489 31.8039C22.4942 31.9676 22.373 32.1564 22.2935 32.3704C22.2141 32.5845 22.1723 32.8069 22.1723 33.0335C22.1723 33.2601 22.2141 33.4867 22.2935 33.6965C22.373 33.9105 22.4942 34.0993 22.6489 34.263C22.8036 34.4266 22.996 34.5567 23.2259 34.6574C23.4559 34.754 23.7151 34.8043 24.0078 34.8043C24.3005 34.8043 24.5597 34.754 24.7855 34.6574C25.0113 34.5609 25.2036 34.4266 25.3625 34.263C25.5172 34.0993 25.6384 33.9105 25.7179 33.6965C25.7973 33.4825 25.8391 33.2601 25.8391 33.0335C25.8391 32.8069 25.7973 32.5803 25.7179 32.3704C25.6384 32.1564 25.5172 31.9676 25.3625 31.8039H25.3708ZM25.2663 33.751C25.2245 33.9063 25.1618 34.049 25.074 34.1791C24.9862 34.3091 24.8691 34.4141 24.7269 34.498C24.5848 34.5819 24.4092 34.6197 24.2043 34.6197C24.0329 34.6197 23.8824 34.5903 23.7402 34.5316C23.6022 34.4728 23.4768 34.3973 23.3639 34.3008C23.251 34.2042 23.1548 34.0909 23.0712 33.965C22.9876 33.8392 22.9207 33.7049 22.8663 33.5664C22.812 33.4279 22.7702 33.2894 22.7451 33.151C22.72 33.0125 22.7033 32.8824 22.7033 32.7649C22.7033 32.618 22.7242 32.467 22.7618 32.3117C22.8036 32.1564 22.8663 32.0138 22.9541 31.8837C23.042 31.7536 23.159 31.6487 23.3012 31.5648C23.4433 31.4808 23.6189 31.4389 23.8238 31.4389C23.9952 31.4389 24.1458 31.4682 24.2879 31.527C24.4259 31.5857 24.5555 31.6613 24.6684 31.7578C24.7813 31.8543 24.8775 31.9634 24.9611 32.0893C25.0405 32.2152 25.1116 32.3495 25.166 32.4837C25.2245 32.6222 25.2621 32.7565 25.2914 32.895C25.3165 33.0335 25.3332 33.1635 25.3332 33.2852C25.3332 33.4363 25.3123 33.5874 25.2747 33.7468L25.2663 33.751ZM19.6762 13.8689L19.5256 13.9276C19.5256 13.9276 18.0581 14.4899 16.2978 15.7194C16.557 16.03 16.9417 16.3699 17.5145 16.6846C19.3626 17.7001 19.6636 19.0933 19.6636 19.0933C19.6636 19.0933 19.9646 17.7043 21.8127 16.6846C22.3939 16.3657 22.7785 16.0174 23.0378 15.7026C21.2859 14.4857 19.8434 13.9318 19.8267 13.9276L19.6762 13.8689ZM15.0393 10.8139C16.0553 11.691 17.1926 12.375 18.0873 12.8408C18.9654 13.273 19.5047 13.4408 19.5131 13.445L19.6803 13.4954L19.8476 13.445C19.8476 13.445 20.3535 13.2856 21.1688 12.8911C22.0761 12.4211 23.2594 11.7203 24.313 10.8139C26.2154 9.16897 26.1151 6.58823 26.0816 6.14342C25.9269 2.72761 23.1214 0 19.6762 0C16.2309 0 13.2623 2.88287 13.2623 6.43716C13.2623 6.43716 13.2623 6.44136 13.2623 6.44555C13.254 7.28901 13.4045 9.39977 15.0435 10.8139H15.0393ZM9.92161 18.9506C11.8742 18.9506 12.84 18.04 13.9564 16.9909C14.3327 16.6384 14.7215 16.2691 15.1689 15.9209C16.6448 14.7627 18.0079 14.0535 18.7563 13.7052C18.0539 13.4156 16.7954 12.824 15.2525 11.7497C14.7383 11.393 14.2491 10.944 13.7766 10.5076C12.6686 9.48369 11.523 8.42622 9.92579 8.42622C7.03664 8.42622 4.68267 10.7887 4.68267 13.6884C4.68267 16.5881 7.03664 18.9506 9.92579 18.9506H9.92161ZM34.6738 13.6884C34.6738 10.7887 32.3198 8.42622 29.4307 8.42622C27.8335 8.42622 26.6879 9.48369 25.5799 10.5076C25.1074 10.944 24.6182 11.3972 24.104 11.7497C22.5569 12.8198 21.3026 13.4156 20.6002 13.7052C21.3486 14.0493 22.7116 14.7627 24.1876 15.9209C24.635 16.2691 25.0238 16.6342 25.4001 16.9909C26.5165 18.0442 27.4823 18.9506 29.4349 18.9506C32.324 18.9506 34.678 16.5881 34.678 13.6884H34.6738Z" fill="white"/>
<path d="M21.3864 10.4489C21.4407 10.2097 21.2944 9.96635 21.0519 9.9118C20.8094 9.85725 20.571 10.0041 20.5167 10.2475C20.4665 10.4657 20.5836 10.6797 20.7843 10.7637L20.1906 13.3234C20.2365 13.3066 20.2867 13.2856 20.3453 13.2605L20.9139 10.793C21.1313 10.8098 21.332 10.6671 21.3822 10.4489H21.3864ZM22.118 10.6587C21.9215 10.5706 21.6916 10.6587 21.5996 10.856C21.5201 11.0364 21.587 11.242 21.7459 11.3427L21.0268 12.9541C21.0811 12.929 21.1355 12.9038 21.194 12.8744L21.8546 11.3889C22.0386 11.4393 22.2351 11.3511 22.3146 11.1707C22.4024 10.9735 22.3146 10.7427 22.118 10.6504V10.6587ZM18.8317 10.2475C18.7773 10.0083 18.5348 9.85725 18.2965 9.9118C18.0582 9.96635 17.9077 10.2097 17.962 10.4489C18.0122 10.6671 18.2129 10.8098 18.4303 10.793L18.9989 13.2563C19.0533 13.2773 19.1035 13.2982 19.1536 13.3192L18.5641 10.7637C18.7648 10.6839 18.8819 10.4657 18.8317 10.2475ZM17.7488 10.856C17.661 10.6587 17.431 10.5706 17.2303 10.6587C17.0338 10.7469 16.946 10.9777 17.0338 11.1791C17.1133 11.3595 17.3098 11.4477 17.4937 11.3973L18.1543 12.8786C18.2129 12.908 18.2672 12.9332 18.3216 12.9583L17.6066 11.3511C17.7655 11.2462 17.8324 11.0406 17.753 10.8644L17.7488 10.856ZM19.6763 9.18584C19.4045 9.18584 19.1871 9.40405 19.1871 9.67681C19.1871 9.92439 19.3669 10.1258 19.601 10.1594V13.4745L19.6763 13.4955L19.7515 13.4703V10.1552C19.9857 10.1174 20.1655 9.916 20.1655 9.67261C20.1655 9.39985 19.948 9.18164 19.6763 9.18164V9.18584Z" fill="black"/>
</g>
<defs>
<clipPath id="clip0_79_6063">
<rect width="39.2481" height="34.9554" fill="white"/>
</clipPath>
</defs>
</svg>
